<?xml version="1.0" encoding="UTF-8" standalone="no"?>
<!DOCTYPE svg PUBLIC "-//W3C//DTD SVG 1.1//EN" "http://www.w3.org/Graphics/SVG/1.1/DTD/svg11.dtd">
<svg xmlns="http://www.w3.org/2000/svg" version="1.1" viewBox="0.00 0.00 269.00 74.00">
<path stroke="#f5fbfe" stroke-width="2.00" fill="none" stroke-linecap="butt" vector-effect="non-scaling-stroke" d="
  M 191.53 17.44
  Q 190.67 17.78 188.69 15.74
  Q 188.28 15.32 187.86 14.86
  A 1.70 1.69 -43.5 0 0 185.43 14.80
  L 182.61 17.56
  A 0.56 0.50 20.2 0 1 182.23 17.71
  Q 182.06 17.70 181.88 17.71
  Q 181.49 17.75 181.22 18.03
  L 178.12 21.18
  Q 177.86 21.45 177.75 21.81
  Q 177.58 22.35 177.03 22.10
  Q 176.45 21.83 176.03 22.29
  Q 175.79 22.56 175.97 22.89
  A 0.55 0.54 -39.1 0 1 175.90 23.51
  Q 174.23 25.51 171.61 25.44
  A 0.46 0.45 11.9 0 0 171.17 25.72
  Q 171.11 25.88 171.15 26.03
  Q 171.30 26.53 170.81 26.72
  Q 170.00 27.02 169.40 27.72
  A 4.02 3.96 7.1 0 1 168.17 28.66
  Q 166.20 29.62 165.56 31.39
  Q 165.47 31.64 165.22 31.70
  L 163.57 32.08
  Q 163.19 32.17 162.93 32.46
  L 160.31 35.38
  Q 159.77 36.00 158.94 35.94
  Q 157.86 35.88 157.95 36.99
  Q 158.01 37.70 157.30 37.85
  Q 155.29 38.29 154.79 40.35
  Q 154.67 40.87 154.22 40.58
  Q 154.07 40.48 153.99 40.34
  Q 153.73 39.89 153.35 40.24
  L 150.83 42.56
  Q 150.45 42.91 149.93 42.90
  Q 149.25 42.89 149.07 43.48
  Q 148.94 43.89 148.60 44.16
  L 145.32 46.72
  A 0.60 0.55 -69.2 0 1 145.10 46.83
  Q 143.47 47.20 142.99 48.83
  Q 142.29 51.18 140.04 50.94
  A 0.89 0.88 26.8 0 0 139.36 51.16
  L 136.58 53.64
  Q 136.21 53.97 135.72 53.99
  Q 134.82 54.03 134.56 54.90
  Q 134.40 55.41 133.99 55.73
  Q 133.09 56.42 132.14 56.86
  C 130.56 57.60 129.13 59.82 128.01 61.21
  Q 127.64 61.67 127.14 61.37
  Q 126.71 61.11 126.40 61.49
  Q 125.17 62.93 123.70 64.19
  Q 122.85 64.91 122.71 66.02
  Q 122.65 66.54 122.14 66.68
  Q 121.47 66.86 120.90 66.50
  Q 120.60 66.31 120.35 66.56
  L 119.15 67.75
  Q 118.80 68.10 118.31 68.17
  C 117.17 68.31 115.99 69.04 115.66 70.20
  Q 115.41 71.11 114.60 71.75
  A 0.81 0.80 -52.3 0 1 113.78 71.86
  Q 112.77 71.41 111.85 71.91
  A 1.35 1.30 33.6 0 1 111.03 72.06
  Q 108.47 71.72 106.47 72.55"
/>
<path fill="#f9fdff" d="
  M 191.53 17.44
  Q 190.67 17.78 188.69 15.74
  Q 188.28 15.32 187.86 14.86
  A 1.70 1.69 -43.5 0 0 185.43 14.80
  L 182.61 17.56
  A 0.56 0.50 20.2 0 1 182.23 17.71
  Q 182.06 17.70 181.88 17.71
  Q 181.49 17.75 181.22 18.03
  L 178.12 21.18
  Q 177.86 21.45 177.75 21.81
  Q 177.58 22.35 177.03 22.10
  Q 176.45 21.83 176.03 22.29
  Q 175.79 22.56 175.97 22.89
  A 0.55 0.54 -39.1 0 1 175.90 23.51
  Q 174.23 25.51 171.61 25.44
  A 0.46 0.45 11.9 0 0 171.17 25.72
  Q 171.11 25.88 171.15 26.03
  Q 171.30 26.53 170.81 26.72
  Q 170.00 27.02 169.40 27.72
  A 4.02 3.96 7.1 0 1 168.17 28.66
  Q 166.20 29.62 165.56 31.39
  Q 165.47 31.64 165.22 31.70
  L 163.57 32.08
  Q 163.19 32.17 162.93 32.46
  L 160.31 35.38
  Q 159.77 36.00 158.94 35.94
  Q 157.86 35.88 157.95 36.99
  Q 158.01 37.70 157.30 37.85
  Q 155.29 38.29 154.79 40.35
  Q 154.67 40.87 154.22 40.58
  Q 154.07 40.48 153.99 40.34
  Q 153.73 39.89 153.35 40.24
  L 150.83 42.56
  Q 150.45 42.91 149.93 42.90
  Q 149.25 42.89 149.07 43.48
  Q 148.94 43.89 148.60 44.16
  L 145.32 46.72
  A 0.60 0.55 -69.2 0 1 145.10 46.83
  Q 143.47 47.20 142.99 48.83
  Q 142.29 51.18 140.04 50.94
  A 0.89 0.88 26.8 0 0 139.36 51.16
  L 136.58 53.64
  Q 136.21 53.97 135.72 53.99
  Q 134.82 54.03 134.56 54.90
  Q 134.40 55.41 133.99 55.73
  Q 133.09 56.42 132.14 56.86
  C 130.56 57.60 129.13 59.82 128.01 61.21
  Q 127.64 61.67 127.14 61.37
  Q 126.71 61.11 126.40 61.49
  Q 125.17 62.93 123.70 64.19
  Q 122.85 64.91 122.71 66.02
  Q 122.65 66.54 122.14 66.68
  Q 121.47 66.86 120.90 66.50
  Q 120.60 66.31 120.35 66.56
  L 119.15 67.75
  Q 118.80 68.10 118.31 68.17
  C 117.17 68.31 115.99 69.04 115.66 70.20
  Q 115.41 71.11 114.60 71.75
  A 0.81 0.80 -52.3 0 1 113.78 71.86
  Q 112.77 71.41 111.85 71.91
  A 1.35 1.30 33.6 0 1 111.03 72.06
  Q 108.47 71.72 106.47 72.55
  Q 75.78 72.89 45.00 72.79
  C 44.43 72.79 43.82 72.46 43.33 72.47
  Q 27.06 72.66 10.76 71.48
  Q 6.81 71.19 2.76 70.16
  A 1.19 1.19 0.0 0 1 1.86 68.99
  C 1.98 60.02 14.20 55.11 21.35 53.95
  Q 21.86 53.87 21.93 53.37
  C 23.57 42.69 34.25 36.66 44.25 34.78
  Q 56.20 32.52 67.45 36.66
  Q 67.97 36.86 68.22 36.35
  C 73.42 25.85 84.25 19.51 95.97 21.32
  Q 96.85 21.46 97.39 20.76
  Q 99.23 18.41 101.47 16.47
  Q 115.32 4.48 135.31 1.73
  C 155.17 -1.00 176.54 3.65 191.53 17.44
  Z"
/>
<path fill="#f0f9fc" d="
  M 191.53 17.44
  Q 195.43 21.10 198.23 25.77
  Q 198.49 26.19 198.98 26.15
  C 209.69 25.22 224.79 28.77 230.85 38.40
  Q 231.15 38.87 231.70 38.88
  Q 250.93 39.21 255.81 57.70
  Q 255.94 58.17 256.42 58.25
  Q 263.81 59.59 266.46 66.35
  Q 267.18 68.18 266.95 70.05
  Q 266.88 70.60 266.35 70.74
  Q 263.68 71.46 261.37 71.60
  Q 242.76 72.69 218.55 72.55
  Q 213.35 72.52 207.27 72.74
  C 202.32 72.91 196.81 72.47 192.57 72.47
  Q 149.55 72.48 106.47 72.55
  Q 108.47 71.72 111.03 72.06
  A 1.35 1.30 33.6 0 0 111.85 71.91
  Q 112.77 71.41 113.78 71.86
  A 0.81 0.80 -52.3 0 0 114.60 71.75
  Q 115.41 71.11 115.66 70.20
  C 115.99 69.04 117.17 68.31 118.31 68.17
  Q 118.80 68.10 119.15 67.75
  L 120.35 66.56
  Q 120.60 66.31 120.90 66.50
  Q 121.47 66.86 122.14 66.68
  Q 122.65 66.54 122.71 66.02
  Q 122.85 64.91 123.70 64.19
  Q 125.17 62.93 126.40 61.49
  Q 126.71 61.11 127.14 61.37
  Q 127.64 61.67 128.01 61.21
  C 129.13 59.82 130.56 57.60 132.14 56.86
  Q 133.09 56.42 133.99 55.73
  Q 134.40 55.41 134.56 54.90
  Q 134.82 54.03 135.72 53.99
  Q 136.21 53.97 136.58 53.64
  L 139.36 51.16
  A 0.89 0.88 26.8 0 1 140.04 50.94
  Q 142.29 51.18 142.99 48.83
  Q 143.47 47.20 145.10 46.83
  A 0.60 0.55 -69.2 0 0 145.32 46.72
  L 148.60 44.16
  Q 148.94 43.89 149.07 43.48
  Q 149.25 42.89 149.93 42.90
  Q 150.45 42.91 150.83 42.56
  L 153.35 40.24
  Q 153.73 39.89 153.99 40.34
  Q 154.07 40.48 154.22 40.58
  Q 154.67 40.87 154.79 40.35
  Q 155.29 38.29 157.30 37.85
  Q 158.01 37.70 157.95 36.99
  Q 157.86 35.88 158.94 35.94
  Q 159.77 36.00 160.31 35.38
  L 162.93 32.46
  Q 163.19 32.17 163.57 32.08
  L 165.22 31.70
  Q 165.47 31.64 165.56 31.39
  Q 166.20 29.62 168.17 28.66
  A 4.02 3.96 7.1 0 0 169.40 27.72
  Q 170.00 27.02 170.81 26.72
  Q 171.30 26.53 171.15 26.03
  Q 171.11 25.88 171.17 25.72
  A 0.46 0.45 11.9 0 1 171.61 25.44
  Q 174.23 25.51 175.90 23.51
  A 0.55 0.54 -39.1 0 0 175.97 22.89
  Q 175.79 22.56 176.03 22.29
  Q 176.45 21.83 177.03 22.10
  Q 177.58 22.35 177.75 21.81
  Q 177.86 21.45 178.12 21.18
  L 181.22 18.03
  Q 181.49 17.75 181.88 17.71
  Q 182.06 17.70 182.23 17.71
  A 0.56 0.50 20.2 0 0 182.61 17.56
  L 185.43 14.80
  A 1.70 1.69 -43.5 0 1 187.86 14.86
  Q 188.28 15.32 188.69 15.74
  Q 190.67 17.78 191.53 17.44
  Z"
/>
</svg>
