<svg xmlns="http://www.w3.org/2000/svg" viewBox="0 0 200 140"><defs><style>.a{fill:#82985b;}.b{fill:#f58636;}.c{fill:#f8d8be;}.d{fill:#644a34;}.e{fill:#f69780;}.f{fill:#56b2e0;}.g{fill:#82c571;}.h{fill:#f9d8be;}.i{fill:#67bae1;}.j{fill:#b466a2;}.k,.l,.m{fill:none;stroke-miterlimit:10;stroke-width:1.55px;}.k{stroke:#a9cf3b;}.l{stroke:#ef873e;}.m{stroke:#efd13d;}.n{fill:#f8d8bf;}.o{fill:#f8d9bf;}.p{fill:#f17593;}.q{fill:#97cc7d;}.r{fill:#f9e27b;}.s{fill:#684123;}</style></defs><path class="a" d="M140.42,29.19c-27.73-.53-73.51-10.46-109.8,2.88-25.29,9.3-42,44.62-22.55,74.54s52,22.2,80,22.42,44.22,1.4,72.88-2.15c13-1.61,27.84-18.18,29.33-50.42C191.6,48.27,176.89,32.85,140.42,29.19Z"/><path class="b" d="M76.09,57s12.34,11.44,13.7,11.37,8.57-9.68,5.75-10.66-15.89-4.19-15.89-4.19Z"/><path class="b" d="M17.43,72.92s-8.18,14.72-7.79,16,11.46,6,11.74,3,.29-16.41.29-16.41Z"/><path class="c" d="M76.8,41.94c9.63-6.48,15.26,13.94,5.86,12.4-2.94,11.76-7.72,20.2-30.22,26.24s-30.87,0-33.26-3.24C11.89,85.6,2,68.31,11,67.91,14.47,51.34,41-.69,76.8,41.94Z"/><path class="d" d="M61.67,51.19c.61,2,2.19,3.27,3.52,2.86s1.92-2.36,1.29-4.35S64.29,46.42,63,46.83,61.05,49.19,61.67,51.19Z"/><path class="d" d="M24.12,64.16c.62,2,2.2,3.28,3.53,2.87s1.91-2.37,1.29-4.36-2.19-3.27-3.52-2.86S23.5,62.17,24.12,64.16Z"/><path class="e" d="M52.78,58.73c4,26.37-9.13,10.69-10.81,4.37"/><path class="b" d="M47.52,30.6c-2.71,3.28-11,33.67-24.46,25.85-1.56,2.37-4,5.47-6.66,4.37-1.89,2.75.84,6.56-.24,9.67-6.07-4.93-17.45-27.84,7.59-45.38,15.14-9.2,25.42-8.92,32.78-8.35S84.11,29.24,78.77,45.45C71.18,48.68,60.43,45,55.52,38.4S47.52,30.6,47.52,30.6Z"/><path class="f" d="M96.23,75.24a19,19,0,1,1-19-19A19,19,0,0,1,96.23,75.24Z"/><path class="g" d="M89.78,80.36a4.63,4.63,0,0,0-1.27.89c-.25,1.14-1.13,5.69-.25,5.18s2-4.68,2-4.68S90.41,80.11,89.78,80.36Z"/><path class="g" d="M65.11,81.5c.26,3,3.17,3,3.17,6.32s1.89,4.3,1.89,3.67,2.28-2.78,3.55-3.41,2-3.55.63-3.8a6.36,6.36,0,0,1-3.8-2.91c-1-1.52-2.91-.63-3.41-1.39s-3.42-1.77-4.43-2.28,1.9-1.39,2.91-1.39,0-3.92,1.14-4.42,1-2.79,1-3.54-1.9-1.78-2.66-2.16c-.88,2.91-1.26,1-2.4,2.41s.76-3.54.89-4.18-.53-1.33-.78-1.64a18.93,18.93,0,0,0-4.66,12.46c0,.37,0,.73.05,1.1l1,.73A27,27,0,0,1,62.33,80C63,80.87,64.86,78.46,65.11,81.5Z"/><path class="g" d="M88.43,59.89C87,61,86.54,60.74,85,60.5S80,59,79.79,60.63s-1.4,2.4.38,3.54,0,1.9-.89,1.9-4.43,5.31-4,7.84S76.5,77.58,78,77.7s4.17,2.16,4.17,4.69,0,5.31,1.65,4.17A9.17,9.17,0,0,0,87,81.63c.12-1.14,2.28-4.68,1.77-4.94s-2.66,0-3.42-1.26-1-4.18-.12-3.42,1.89,2.15,3.16,3.29,1-2.53,1.39-3.67c2.15,1.14,3.67,3,4.93,2,.4-.32.87-.67,1.32-1A19,19,0,0,0,88.43,59.89Z"/><path class="g" d="M66.89,63.16c.5.38,4.29,2.78,4.67,3.67s1.9,1,1.78-.89a14.69,14.69,0,0,1,.88-5.82c.51-.88,1.77-2.4-.88-2.78a10.06,10.06,0,0,0-2.68,0,18.73,18.73,0,0,0-3.88,1.93C66.67,60.68,66.54,62.9,66.89,63.16Z"/><path class="g" d="M76.63,60.88c-.64.38-1.4,2.4-1.4,2.4A1.54,1.54,0,0,0,77.64,62C77.76,61,77.26,60.5,76.63,60.88Z"/><path class="h" d="M72.16,106.31c-1.09-.79-2.67-3.57-4.58-7.27-3,2.4-11,1.1-11,1.1l.33,1.09,2.64,3s4.24,5.18,5.67,7,4.41,4.65,10.58.17C80.43,108,75,108.37,72.16,106.31Z"/><path class="h" d="M56.19,103.22v-.09s9-2,12.48-3.74c-1.82-6.3-4-15-6.76-22.09C49.21,72,42.86,82.65,42.86,82.65,42.5,97.88,46.49,110,46,111.53s-8.71,8.09-1,7.76,8.48-4,8.43-9.12a51.55,51.55,0,0,1,.19-6.72Z"/><path class="i" d="M61.88,107a23.67,23.67,0,0,0,6.87-5.73c-.93-1.73-2-3.78-3.09-6l-9.82,4c1,1.7,1.47,1.39,2.21,3.15l1.54,1.72Z"/><path class="i" d="M44.1,99.94c.44,2.85.92,5.28,1.29,7.19a76.46,76.46,0,0,0,8.07.28,35.07,35.07,0,0,1,.19-4l5-.46a36.47,36.47,0,0,0-1.55-5.62Z"/><path class="j" d="M61.92,77.3C49.21,72,42.86,82.65,42.86,82.65a102.69,102.69,0,0,0,1.87,21c5.25,0,16.38-.39,24-4.11C66.89,93.23,64.69,84.43,61.92,77.3Z"/><path class="k" d="M66.33,90.08c-5,1.34-14.76,4.62-23,3.67"/><path class="l" d="M66.87,92.83c-5.05,1.34-15.27,4.62-23.55,3.67"/><path class="m" d="M64.75,87.34c-5,1.34-13.21,4.6-21.48,3.65"/><path class="n" d="M53.52,77.62c4-4.27,10.94-8.33,12-7.15s1.75,3.78-1.78,4.46-3,4-5.7,6C54.2,83.59,49.52,81.94,53.52,77.62Z"/><path class="o" d="M148.78,79.41c-5.16-2.28-12.91-3.22-13.39-1.77s-.1,4,3.3,3.28,4.17,2.47,7.36,3.13C150.46,85,154,81.71,148.78,79.41Z"/><path class="p" d="M134,98.43c9.38-18.55,9.1-25.24,7.57-28.64S125.06,62,122.4,72.69c-7.88-3.43-19.16,2.77-15.33,11.28C111.67,94.19,134,98.43,134,98.43Z"/><path class="h" d="M164.67,81.19c1.82,14.64-.86,26.67-.23,28.11s9.16,7,1.67,7.38-8.54-3-9-8a47.36,47.36,0,0,0-.83-6.45l-6,0s-2.47,6-3.28,8.08-2.78,5.55-9.76,3.14c-5.18-1.8,0-3,2-5.7s3.36-18.37,6.58-29.95C157.53,71.54,164.67,81.19,164.67,81.19Z"/><path class="i" d="M142.13,95.76l23,2.2c-.15,2.78-.38,5.18-.55,7.05a74.15,74.15,0,0,1-7.74,1,33.81,33.81,0,0,0-.57-3.79l-6,0-1.33,3.26a22.6,22.6,0,0,1-8-3.37C141.33,100.32,141.72,98.13,142.13,95.76Z"/><path class="q" d="M145.8,77.87c11.73-6.33,18.87,3.32,18.87,3.32a99.74,99.74,0,0,1,.22,20.4c-5,.54-15.81,1.21-23.5-1.65C142.54,93.7,143.82,85,145.8,77.87Z"/><path class="r" d="M143.72,87a68.9,68.9,0,0,0,21.51,1.11c.11,2.67.1,5.18,0,7.49-6.52.23-17-1.61-22.61-2.72C143,90.93,143.33,89,143.72,87Z"/><path class="n" d="M148.71,87.5c-5.53,1-13.3.2-13.43-1.31s.81-4,4-2.45,4.62-1.45,7.88-1.38C151.62,82.47,154.31,86.44,148.71,87.5Z"/><path class="c" d="M191.27,56.2c11.43-1.28,13.11,22.91-.53,13.6-8,9-16,14.24-38.56,9.25S125.07,64.93,124.46,61c-10.19,3.94-11-15.82-2.85-12C132.24,35.94,185.64,21.59,191.27,56.2Z"/><path class="d" d="M175.11,66.19c-.37,2,.43,3.89,1.78,4.14s2.76-1.21,3.14-3.24-.43-3.89-1.79-4.14S175.48,64.15,175.11,66.19Z"/><path class="d" d="M136.2,60.42c-.37,2,.43,3.89,1.79,4.13s2.76-1.2,3.12-3.24-.42-3.89-1.78-4.13S136.57,58.38,136.2,60.42Z"/><path class="d" d="M161.05,72.17c-1.1,4.87-10,4.43-8.54-1.92"/><path class="s" d="M185.16,55.25c1.31,3.39,8,10.57,10-.4s-6-28.06-25.79-32.8-50.61,3.56-47.14,25.33c1.67,4.61,6.71,4.91,12-.58,2.84,6.51,13.18,9.85,19.41,3.77,3.54,6,10.31,8.6,14.77,2.43C173,65.38,185.16,55.25,185.16,55.25Z"/><path class="s" d="M163.76,21.05c5.18-1,11.13-4.52-2.48-10.82,7.22,2.11,17.87,6.17,8.09,11.82C165.23,23.42,163.76,21.05,163.76,21.05Z"/></svg>