<svg xmlns="http://www.w3.org/2000/svg" xmlns:xlink="http://www.w3.org/1999/xlink" viewBox="0 0 151.28 115.36"><defs><style>.a{fill:none;}.b{fill:#7e8083;}.c{opacity:0.8;}.d{clip-path:url(#a);}.e{fill:#555658;}.e,.f,.g,.h{fill-rule:evenodd;}.f{fill:#cbcdcf;}.g{fill:#6d6e71;}.h,.i{fill:#231f20;}</style><clipPath id="a"><rect class="a" width="151.28" height="68.63"/></clipPath></defs><path class="b" d="M23.67,86.48a5.82,5.82,0,0,1-1.35-.15,5.46,5.46,0,0,1-1.26-.46l.24-1.11h.07a2.93,2.93,0,0,0,1.15.68,3.91,3.91,0,0,0,1.31.24,2.7,2.7,0,0,0,1.6-.41A1.27,1.27,0,0,0,26,84.21a.83.83,0,0,0-.2-.56,1.13,1.13,0,0,0-.58-.33c-.21-.06-.46-.11-.75-.17L23.62,83a2.35,2.35,0,0,1-1.19-.59,1.38,1.38,0,0,1-.42-1,2.11,2.11,0,0,1,.88-1.73,3.6,3.6,0,0,1,2.28-.69,5.34,5.34,0,0,1,1.38.16,6.44,6.44,0,0,1,1.08.37l-.22,1h-.07a2.86,2.86,0,0,0-1-.54A3.83,3.83,0,0,0,25,79.74a2.34,2.34,0,0,0-1.42.39,1.19,1.19,0,0,0-.53,1,.91.91,0,0,0,.19.57,1.21,1.21,0,0,0,.68.36l.83.18.87.2a2.19,2.19,0,0,1,1.05.56,1.34,1.34,0,0,1,.36,1,2.18,2.18,0,0,1-.23,1,2.36,2.36,0,0,1-.66.81,3.32,3.32,0,0,1-1.05.57A4.33,4.33,0,0,1,23.67,86.48Z"/><path class="b" d="M30.5,86.47a2.74,2.74,0,0,1-1.78-.53,1.92,1.92,0,0,1-.64-1.56,3.7,3.7,0,0,1,1-2.57,3,3,0,0,1,2.34-1.07,2,2,0,0,1,1.42.46,1.69,1.69,0,0,1,.49,1.3,3.51,3.51,0,0,1,0,.46,7.16,7.16,0,0,1-.14.74h-4A2.33,2.33,0,0,0,29,84c0,.09,0,.17,0,.25a1.4,1.4,0,0,0,.42,1.08,1.69,1.69,0,0,0,1.19.39,3.2,3.2,0,0,0,1.11-.21,4,4,0,0,0,1-.47h.06l-.2,1-.44.16a4.48,4.48,0,0,1-.5.15,4.71,4.71,0,0,1-.54.11A3.15,3.15,0,0,1,30.5,86.47ZM32.33,83c0-.09,0-.17,0-.24s0-.13,0-.21a1.14,1.14,0,0,0-.29-.82,1.24,1.24,0,0,0-.91-.29,1.91,1.91,0,0,0-1.24.43A2.11,2.11,0,0,0,29.22,83Z"/><path class="b" d="M36.24,86.47a3.19,3.19,0,0,1-.92-.13,1.94,1.94,0,0,1-.69-.38,1.65,1.65,0,0,1-.45-.64,2.5,2.5,0,0,1-.15-.9A4.17,4.17,0,0,1,34.27,83a3.76,3.76,0,0,1,.67-1.17,3.23,3.23,0,0,1,3.3-.93,4.34,4.34,0,0,1,.75.32l-.2,1h-.06a1.8,1.8,0,0,0-.24-.2,1.5,1.5,0,0,0-.35-.22,2.53,2.53,0,0,0-.44-.18,1.91,1.91,0,0,0-.56-.07,1.85,1.85,0,0,0-1.54.8,3.13,3.13,0,0,0-.6,1.94,1.5,1.5,0,0,0,.35,1.06,1.32,1.32,0,0,0,1,.37,2.21,2.21,0,0,0,.62-.09,3.84,3.84,0,0,0,.52-.19,3.61,3.61,0,0,0,.44-.23l.3-.19h0l-.19,1a9.41,9.41,0,0,1-.9.33A3.48,3.48,0,0,1,36.24,86.47Z"/><path class="b" d="M43.49,81.86h-.05a1.75,1.75,0,0,0-.36-.07,2.37,2.37,0,0,0-.41,0,2.16,2.16,0,0,0-.91.21,5.67,5.67,0,0,0-.86.5L40,86.34h-.92l1.24-5.45h.93l-.19.81a5.08,5.08,0,0,1,1.1-.63,2.34,2.34,0,0,1,.87-.18h.35l.31,0Z"/><path class="b" d="M45.93,86.47a2.73,2.73,0,0,1-1.77-.53,1.92,1.92,0,0,1-.65-1.56,3.75,3.75,0,0,1,1-2.57,3,3,0,0,1,2.34-1.07,2,2,0,0,1,1.42.46,1.69,1.69,0,0,1,.49,1.3,3.51,3.51,0,0,1,0,.46c0,.21-.07.46-.13.74h-4a2.36,2.36,0,0,0,0,.28,2.18,2.18,0,0,0,0,.25,1.4,1.4,0,0,0,.42,1.08,1.67,1.67,0,0,0,1.19.39,3.15,3.15,0,0,0,1.1-.21,4.29,4.29,0,0,0,1-.47h0L48,86l-.44.16a4.23,4.23,0,0,1-.49.15,5.19,5.19,0,0,1-.54.11A3.27,3.27,0,0,1,45.93,86.47ZM47.77,83q0-.13,0-.24a1.34,1.34,0,0,0,0-.21,1.1,1.1,0,0,0-.29-.82,1.23,1.23,0,0,0-.91-.29,1.9,1.9,0,0,0-1.23.43A2.13,2.13,0,0,0,44.65,83Z"/><path class="b" d="M53.4,80.89l-.16.74h-1.9l-.58,2.52a2.43,2.43,0,0,0-.09.44,2.13,2.13,0,0,0,0,.39.69.69,0,0,0,.18.53,1,1,0,0,0,.67.17,2.23,2.23,0,0,0,.47-.06l.38-.11h.05l-.17.79-.59.11a3.74,3.74,0,0,1-.55,0,1.67,1.67,0,0,1-1-.29,1.13,1.13,0,0,1-.37-.94c0-.1,0-.21,0-.31s0-.22.06-.35l.68-2.93H49.8l.17-.74h.62L51,79.32h.92l-.37,1.57Z"/><path class="b" d="M56.71,85.76l-.36.23a4,4,0,0,1-.46.24,2.73,2.73,0,0,1-.55.19,3.08,3.08,0,0,1-.71.08,1.5,1.5,0,0,1-1.06-.38,1.3,1.3,0,0,1-.4-1,2,2,0,0,1,.28-1.1,2.12,2.12,0,0,1,.85-.73,4.64,4.64,0,0,1,1.33-.4,12.88,12.88,0,0,1,1.78-.15c0-.1,0-.17.05-.24a1.49,1.49,0,0,0,0-.21.63.63,0,0,0-.1-.38.58.58,0,0,0-.26-.23,1.17,1.17,0,0,0-.4-.12,3.75,3.75,0,0,0-.5,0,4,4,0,0,0-.95.14c-.35.09-.64.18-.86.26h0l.18-.91c.18,0,.46-.11.81-.17a6.36,6.36,0,0,1,1-.09,2.84,2.84,0,0,1,1.52.32,1.08,1.08,0,0,1,.51,1,1.41,1.41,0,0,1,0,.28,2.33,2.33,0,0,1,0,.28l-.85,3.7h-.91Zm.54-2.29c-.51,0-1,.06-1.34.11a4.12,4.12,0,0,0-1,.25,1.38,1.38,0,0,0-.6.44,1.14,1.14,0,0,0-.2.68.63.63,0,0,0,.24.54,1.22,1.22,0,0,0,.74.18,2.24,2.24,0,0,0,.9-.19,5.23,5.23,0,0,0,.87-.48Z"/><path class="b" d="M63.66,81.86h0a1.75,1.75,0,0,0-.36-.07,2.37,2.37,0,0,0-.41,0,2.16,2.16,0,0,0-.91.21,5.67,5.67,0,0,0-.86.5l-.89,3.87h-.92l1.24-5.45h.93l-.19.81a5.08,5.08,0,0,1,1.1-.63,2.38,2.38,0,0,1,.87-.18h.35l.31,0Z"/><path class="b" d="M65.71,80.89l-1.26,5.45h-.92l1.26-5.45Zm.5-1.87L66,80H65l.22-1Z"/><path class="b" d="M69.73,85.76l-.36.23a4,4,0,0,1-.46.24,2.83,2.83,0,0,1-.56.19,3,3,0,0,1-.71.08,1.49,1.49,0,0,1-1-.38,1.3,1.3,0,0,1-.41-1,2,2,0,0,1,.29-1.1,2.05,2.05,0,0,1,.85-.73,4.54,4.54,0,0,1,1.33-.4,12.87,12.87,0,0,1,1.77-.15c0-.1,0-.17,0-.24a.75.75,0,0,0,0-.21.71.71,0,0,0-.09-.38.58.58,0,0,0-.26-.23,1.25,1.25,0,0,0-.4-.12,3.75,3.75,0,0,0-.5,0,3.9,3.9,0,0,0-.95.14,8.59,8.59,0,0,0-.86.26h-.05l.18-.91a8.19,8.19,0,0,1,.81-.17,6.24,6.24,0,0,1,1-.09,2.86,2.86,0,0,1,1.53.32,1.08,1.08,0,0,1,.5,1,1.37,1.37,0,0,1,0,.28,2.33,2.33,0,0,1,0,.28l-.85,3.7H69.6Zm.53-2.29c-.5,0-.94.06-1.33.11a4.12,4.12,0,0,0-1,.25,1.38,1.38,0,0,0-.6.44,1.08,1.08,0,0,0-.2.68.63.63,0,0,0,.24.54,1.22,1.22,0,0,0,.74.18,2.31,2.31,0,0,0,.9-.19A4.76,4.76,0,0,0,69.9,85Z"/><path class="b" d="M82.93,81.86a4.53,4.53,0,0,1-.6,2.26,4.22,4.22,0,0,1-1.66,1.64,4.45,4.45,0,0,1-1.32.47,9.94,9.94,0,0,1-1.52.11h-2l1.68-7.27h1.69a9,9,0,0,1,1.44.11,3.14,3.14,0,0,1,1.2.47,2.39,2.39,0,0,1,.79.91A3,3,0,0,1,82.93,81.86Zm-1,.08a2.06,2.06,0,0,0-.2-1,1.79,1.79,0,0,0-.59-.67,2.51,2.51,0,0,0-.85-.35,6,6,0,0,0-1.14-.09h-.81L77,85.55h1a6,6,0,0,0,1.25-.12,3.37,3.37,0,0,0,1-.39,2.89,2.89,0,0,0,1.19-1.3A4,4,0,0,0,81.91,81.94Z"/><path class="b" d="M85.63,80.89l-1.26,5.45h-.91l1.26-5.45Zm.5-1.87-.22,1h-1l.22-1Z"/><path class="b" d="M87.89,86.48a3.67,3.67,0,0,1-1.09-.16A4.91,4.91,0,0,1,86,86l.2-1h0l.27.2a2.61,2.61,0,0,0,.42.24,2.44,2.44,0,0,0,.52.19,2.18,2.18,0,0,0,.63.08,2,2,0,0,0,1.08-.25.84.84,0,0,0,.39-.75.46.46,0,0,0-.2-.4,1.73,1.73,0,0,0-.57-.22l-.46-.1-.54-.13a1.68,1.68,0,0,1-.84-.46,1.08,1.08,0,0,1-.28-.75,1.58,1.58,0,0,1,.17-.71,1.86,1.86,0,0,1,.49-.61,2.43,2.43,0,0,1,.8-.43,3.29,3.29,0,0,1,1.07-.16,4.11,4.11,0,0,1,1,.12,3,3,0,0,1,.79.3l-.2.94h0L90.49,82a2.87,2.87,0,0,0-.4-.22,2.82,2.82,0,0,0-.49-.16A2.32,2.32,0,0,0,89,81.5a1.73,1.73,0,0,0-1,.26.8.8,0,0,0-.38.7.52.52,0,0,0,.19.41,1.4,1.4,0,0,0,.56.25l.5.11.51.11a1.75,1.75,0,0,1,.85.44,1.05,1.05,0,0,1,.29.75,1.61,1.61,0,0,1-.18.73,1.71,1.71,0,0,1-.52.62,2.57,2.57,0,0,1-.84.44A3.81,3.81,0,0,1,87.89,86.48Z"/><path class="b" d="M95.49,80.89l-.16.74h-1.9l-.58,2.52a2.43,2.43,0,0,0-.09.44,2.13,2.13,0,0,0,0,.39.69.69,0,0,0,.18.53,1,1,0,0,0,.67.17,2.23,2.23,0,0,0,.47-.06l.38-.11h0l-.17.79-.59.11a3.74,3.74,0,0,1-.55,0,1.67,1.67,0,0,1-1-.29,1.13,1.13,0,0,1-.37-.94c0-.1,0-.21,0-.31s0-.22.06-.35l.68-2.93h-.62l.17-.74h.62l.37-1.57H94l-.37,1.57Z"/><path class="b" d="M99.74,81.86h0a1.84,1.84,0,0,0-.37-.07,2.25,2.25,0,0,0-.4,0A2.12,2.12,0,0,0,98,82a6.3,6.3,0,0,0-.87.5l-.88,3.87h-.93l1.24-5.45h.93l-.18.81a4.86,4.86,0,0,1,1.1-.63,2.34,2.34,0,0,1,.87-.18h.34l.31,0Z"/><path class="b" d="M101.79,80.89l-1.26,5.45h-.91l1.26-5.45Zm.5-1.87-.22,1h-1l.22-1Z"/><path class="b" d="M106.44,80.89l-.16.74h-1.9l-.58,2.52c0,.13-.06.27-.09.44a2.13,2.13,0,0,0,0,.39.69.69,0,0,0,.18.53,1,1,0,0,0,.67.17,2.4,2.4,0,0,0,.48-.06l.37-.11h0l-.17.79-.59.11a3.74,3.74,0,0,1-.55,0,1.69,1.69,0,0,1-1-.29,1.15,1.15,0,0,1-.37-.94c0-.1,0-.21,0-.31s0-.22.07-.35l.67-2.93h-.61l.16-.74h.63l.36-1.57h.92l-.36,1.57Z"/><path class="b" d="M109.75,85.76l-.35.23a5.21,5.21,0,0,1-.47.24,2.73,2.73,0,0,1-.55.19,3,3,0,0,1-.71.08,1.53,1.53,0,0,1-1.06-.38,1.3,1.3,0,0,1-.4-1,2,2,0,0,1,.28-1.1,2.12,2.12,0,0,1,.85-.73,4.64,4.64,0,0,1,1.33-.4,12.88,12.88,0,0,1,1.78-.15c0-.1,0-.17,0-.24a1.49,1.49,0,0,0,0-.21.71.71,0,0,0-.09-.38.61.61,0,0,0-.27-.23,1.11,1.11,0,0,0-.4-.12,3.62,3.62,0,0,0-.5,0,4,4,0,0,0-1,.14c-.35.09-.64.18-.86.26h0l.18-.91c.19,0,.46-.11.82-.17a6.24,6.24,0,0,1,1-.09,2.84,2.84,0,0,1,1.52.32,1.08,1.08,0,0,1,.51,1c0,.09,0,.18,0,.28s0,.19,0,.28l-.86,3.7h-.91Zm.54-2.29c-.5,0-1,.06-1.34.11a3.9,3.9,0,0,0-1,.25,1.28,1.28,0,0,0-.6.44,1.08,1.08,0,0,0-.21.68.63.63,0,0,0,.24.54,1.24,1.24,0,0,0,.74.18,2.32,2.32,0,0,0,.91-.19,5.56,5.56,0,0,0,.86-.48Z"/><path class="b" d="M115,78.75l-1.76,7.59h-.91l1.75-7.59Z"/><path class="b" d="M124.74,78.75,123,86.34h-.92l.14-.57a5.51,5.51,0,0,1-1,.58,2.27,2.27,0,0,1-.83.15,1.6,1.6,0,0,1-1.22-.49,2,2,0,0,1-.45-1.42,4.56,4.56,0,0,1,.24-1.49,4.27,4.27,0,0,1,.67-1.23,3.12,3.12,0,0,1,1-.83,2.54,2.54,0,0,1,1.2-.3,3.32,3.32,0,0,1,.8.09,2.71,2.71,0,0,1,.68.28l.55-2.36Zm-1.64,3.12a3,3,0,0,0-.64-.25,3,3,0,0,0-.68-.08,1.71,1.71,0,0,0-.9.24,2.28,2.28,0,0,0-.68.67,3,3,0,0,0-.4.93,4.33,4.33,0,0,0-.14,1.05,1.41,1.41,0,0,0,.26.91,1,1,0,0,0,.83.32,1.93,1.93,0,0,0,.84-.21,7.25,7.25,0,0,0,.78-.45Z"/><path class="b" d="M127.37,86.47a2.74,2.74,0,0,1-1.78-.53,1.92,1.92,0,0,1-.64-1.56,3.75,3.75,0,0,1,1-2.57,3,3,0,0,1,2.34-1.07,2,2,0,0,1,1.42.46,1.69,1.69,0,0,1,.49,1.3,3.51,3.51,0,0,1,0,.46,7.16,7.16,0,0,1-.14.74h-4a2.33,2.33,0,0,0,0,.28c0,.09,0,.17,0,.25a1.4,1.4,0,0,0,.42,1.08,1.69,1.69,0,0,0,1.19.39,3.2,3.2,0,0,0,1.11-.21,4,4,0,0,0,.95-.47h.06l-.2,1-.44.16a4.48,4.48,0,0,1-.5.15,4.71,4.71,0,0,1-.54.11A3.15,3.15,0,0,1,127.37,86.47ZM129.2,83c0-.09,0-.17,0-.24s0-.13,0-.21a1.14,1.14,0,0,0-.29-.82,1.24,1.24,0,0,0-.91-.29,1.91,1.91,0,0,0-1.24.43,2.11,2.11,0,0,0-.72,1.13Z"/><path class="b" d="M33.63,91.89l-1.26,5.45h-.92l1.26-5.45Zm.5-1.87-.22,1h-1l.22-1Z"/><path class="b" d="M39.65,93.13c0,.08,0,.19,0,.32s0,.25-.06.35l-.82,3.54h-.91l.71-3.1q.06-.26.09-.45a2.56,2.56,0,0,0,0-.39.84.84,0,0,0-.2-.61,1,1,0,0,0-.73-.21,2.09,2.09,0,0,0-.82.2,7,7,0,0,0-.88.49l-.94,4.07h-.91l1.26-5.45h.91l-.14.61a5.44,5.44,0,0,1,1-.57,2.39,2.39,0,0,1,.94-.19,1.58,1.58,0,0,1,1.11.36A1.3,1.3,0,0,1,39.65,93.13Z"/><path class="b" d="M44.61,91.89l-.17.74H42.55L42,95.15c0,.13-.06.27-.09.44a3.67,3.67,0,0,0,0,.39.66.66,0,0,0,.19.53.94.94,0,0,0,.66.17,2.24,2.24,0,0,0,.48-.06,3.13,3.13,0,0,0,.37-.11h0l-.17.79-.58.11a3.84,3.84,0,0,1-.55,0,1.65,1.65,0,0,1-1-.29,1.13,1.13,0,0,1-.37-.94,1.62,1.62,0,0,1,0-.31,2.86,2.86,0,0,1,.06-.35l.68-2.93H41l.17-.74h.62l.36-1.57h.92l-.36,1.57Z"/><path class="b" d="M47,97.47a2.74,2.74,0,0,1-1.78-.53,1.92,1.92,0,0,1-.64-1.56,3.74,3.74,0,0,1,.94-2.57,3,3,0,0,1,2.34-1.07,2,2,0,0,1,1.42.46,1.69,1.69,0,0,1,.5,1.3c0,.09,0,.25,0,.46s-.08.46-.14.74h-4a2.36,2.36,0,0,0,0,.28,2.18,2.18,0,0,0,0,.25A1.4,1.4,0,0,0,46,96.31a1.69,1.69,0,0,0,1.19.39,3.2,3.2,0,0,0,1.11-.21,4.2,4.2,0,0,0,1-.47h0l-.2,1-.43.16c-.14,0-.3.1-.5.15a4.71,4.71,0,0,1-.54.11A3.15,3.15,0,0,1,47,97.47ZM48.87,94a1.12,1.12,0,0,0,0-.24,1.34,1.34,0,0,0,0-.21,1.13,1.13,0,0,0-.28-.82,1.27,1.27,0,0,0-.92-.29,1.9,1.9,0,0,0-1.23.43A2.13,2.13,0,0,0,45.75,94Z"/><path class="b" d="M56.08,91.89,55,96.74a3.8,3.8,0,0,1-1.06,2,3,3,0,0,1-2,.64,6.18,6.18,0,0,1-.85-.06,5.59,5.59,0,0,1-.78-.18l.21-.91h0a5,5,0,0,0,.74.24,4,4,0,0,0,.87.11,2.3,2.3,0,0,0,.79-.12,1.33,1.33,0,0,0,.53-.33,1.62,1.62,0,0,0,.34-.47,2.73,2.73,0,0,0,.2-.61l.11-.48a6,6,0,0,1-.87.5,2.41,2.41,0,0,1-1,.16A1.61,1.61,0,0,1,51,96.78a2,2,0,0,1-.45-1.37A4.25,4.25,0,0,1,50.79,94a4,4,0,0,1,.65-1.18,3,3,0,0,1,1-.81,2.59,2.59,0,0,1,1.22-.3,2.76,2.76,0,0,1,.84.11,2.52,2.52,0,0,1,.64.27l.12-.23Zm-1.14,1a3.14,3.14,0,0,0-.64-.25,2.57,2.57,0,0,0-.67-.09,1.71,1.71,0,0,0-.87.22,1.94,1.94,0,0,0-.68.6,2.71,2.71,0,0,0-.42.87,3.6,3.6,0,0,0-.15,1,1.33,1.33,0,0,0,.27.89,1,1,0,0,0,.84.32,2,2,0,0,0,.82-.18,4.3,4.3,0,0,0,.82-.43Z"/><path class="b" d="M61,92.86H61a1.75,1.75,0,0,0-.36-.07,2.37,2.37,0,0,0-.41,0,2.16,2.16,0,0,0-.91.21,6.2,6.2,0,0,0-.86.5l-.88,3.87h-.93l1.24-5.45h.93l-.18.81a4.86,4.86,0,0,1,1.1-.63,2.33,2.33,0,0,1,.86-.18h.35l.31,0Z"/><path class="b" d="M64.36,96.76,64,97a5.06,5.06,0,0,1-.46.24,2.83,2.83,0,0,1-.56.19,3,3,0,0,1-.71.08,1.49,1.49,0,0,1-1.05-.38,1.3,1.3,0,0,1-.41-1A2,2,0,0,1,61.1,95,2.05,2.05,0,0,1,62,94.3a4.54,4.54,0,0,1,1.33-.4,12.87,12.87,0,0,1,1.77-.15c0-.1,0-.17,0-.24a.75.75,0,0,0,0-.21.71.71,0,0,0-.09-.38.58.58,0,0,0-.26-.23,1.25,1.25,0,0,0-.4-.12,3.75,3.75,0,0,0-.5,0,3.9,3.9,0,0,0-.95.14,8.9,8.9,0,0,0-.87.26h0l.18-.91c.19,0,.46-.11.82-.17a6.24,6.24,0,0,1,1-.09,2.8,2.8,0,0,1,1.52.32,1.08,1.08,0,0,1,.51,1c0,.09,0,.18,0,.28s0,.19-.05.28l-.85,3.7h-.91Zm.53-2.29c-.5,0-1,.06-1.33.11a4,4,0,0,0-1,.25,1.38,1.38,0,0,0-.6.44,1.08,1.08,0,0,0-.21.68.63.63,0,0,0,.24.54,1.26,1.26,0,0,0,.75.18,2.31,2.31,0,0,0,.9-.19,4.76,4.76,0,0,0,.86-.48Z"/><path class="b" d="M69.27,97.47a3.14,3.14,0,0,1-.92-.13,1.9,1.9,0,0,1-.7-.38,1.63,1.63,0,0,1-.44-.64,2.29,2.29,0,0,1-.16-.9A4.17,4.17,0,0,1,67.29,94,3.78,3.78,0,0,1,68,92.82a3,3,0,0,1,1-.77,3.24,3.24,0,0,1,2.25-.16,3.92,3.92,0,0,1,.74.32l-.2,1h0l-.24-.2a1.74,1.74,0,0,0-.35-.22,2.34,2.34,0,0,0-.45-.18,1.84,1.84,0,0,0-.55-.07,1.87,1.87,0,0,0-1.55.8,3.13,3.13,0,0,0-.6,1.94,1.46,1.46,0,0,0,.36,1.06,1.31,1.31,0,0,0,1,.37,2.15,2.15,0,0,0,.61-.09,3,3,0,0,0,.52-.19,4.73,4.73,0,0,0,.45-.23l.3-.19h0l-.19,1q-.43.18-.9.33A3.54,3.54,0,0,1,69.27,97.47Z"/><path class="b" d="M74.3,91.89,73,97.34h-.92l1.26-5.45ZM74.8,90l-.22,1h-1l.22-1Z"/><path class="b" d="M80.22,93.82a4.33,4.33,0,0,1-.23,1.4,3.81,3.81,0,0,1-.63,1.18,3.42,3.42,0,0,1-1,.81,2.83,2.83,0,0,1-1.3.29,2,2,0,0,1-1.52-.56A2.1,2.1,0,0,1,75,95.41a4.36,4.36,0,0,1,.22-1.4,3.85,3.85,0,0,1,.64-1.18,2.88,2.88,0,0,1,1-.79,2.77,2.77,0,0,1,1.28-.3,2.06,2.06,0,0,1,1.5.54A2,2,0,0,1,80.22,93.82Zm-1.5,2.06a3.09,3.09,0,0,0,.41-.9,4.34,4.34,0,0,0,.14-1.09,1.45,1.45,0,0,0-.33-1A1.19,1.19,0,0,0,78,92.5a1.61,1.61,0,0,0-.85.23,2,2,0,0,0-.65.62,3,3,0,0,0-.41.91A4.18,4.18,0,0,0,76,95.33a1.49,1.49,0,0,0,.33,1,1.16,1.16,0,0,0,.92.36,1.61,1.61,0,0,0,.85-.23A1.92,1.92,0,0,0,78.72,95.88Zm1.46-6.72L78.44,91h-.76l1.24-1.83Z"/><path class="b" d="M86.39,93.13c0,.08,0,.19,0,.32s0,.25-.06.35l-.82,3.54h-.92l.72-3.1q.06-.26.09-.45a2.56,2.56,0,0,0,0-.39.84.84,0,0,0-.2-.61,1,1,0,0,0-.74-.21,2,2,0,0,0-.81.2,7,7,0,0,0-.88.49l-.94,4.07h-.91l1.25-5.45h.92L83,92.5a5.44,5.44,0,0,1,1-.57,2.39,2.39,0,0,1,.94-.19A1.58,1.58,0,0,1,86,92.1,1.3,1.3,0,0,1,86.39,93.13Z"/><path class="b" d="M93.35,97.48A5.94,5.94,0,0,1,92,97.33a5.56,5.56,0,0,1-1.25-.46L91,95.76h.07a3,3,0,0,0,1.15.68,4,4,0,0,0,1.32.24,2.67,2.67,0,0,0,1.59-.41,1.28,1.28,0,0,0,.56-1.06.83.83,0,0,0-.2-.56,1.17,1.17,0,0,0-.58-.33c-.21-.06-.46-.11-.75-.17S93.57,94,93.3,94a2.31,2.31,0,0,1-1.18-.59,1.38,1.38,0,0,1-.42-1,2.11,2.11,0,0,1,.88-1.73,3.6,3.6,0,0,1,2.28-.69,5.39,5.39,0,0,1,1.38.16,6.31,6.31,0,0,1,1.07.37l-.22,1H97A2.86,2.86,0,0,0,96,91a3.76,3.76,0,0,0-1.35-.23,2.31,2.31,0,0,0-1.41.39,1.17,1.17,0,0,0-.53,1,.91.91,0,0,0,.19.57,1.18,1.18,0,0,0,.68.36l.83.18.87.2a2.19,2.19,0,0,1,1,.56,1.34,1.34,0,0,1,.36,1,2.06,2.06,0,0,1-.24,1,2.22,2.22,0,0,1-.65.81,3.27,3.27,0,0,1-1.06.57A4.29,4.29,0,0,1,93.35,97.48Z"/><path class="b" d="M103,93.82a4.33,4.33,0,0,1-.23,1.4,3.81,3.81,0,0,1-.63,1.18,3.42,3.42,0,0,1-1,.81,2.86,2.86,0,0,1-1.3.29,2,2,0,0,1-1.52-.56,2.1,2.1,0,0,1-.54-1.53A4.36,4.36,0,0,1,98,94a3.85,3.85,0,0,1,.64-1.18,2.94,2.94,0,0,1,1-.79,2.81,2.81,0,0,1,1.29-.3,2.06,2.06,0,0,1,1.5.54A2,2,0,0,1,103,93.82Zm-1.5,2.06a2.84,2.84,0,0,0,.4-.9,3.93,3.93,0,0,0,.14-1.09,1.49,1.49,0,0,0-.32-1,1.2,1.2,0,0,0-.93-.36,1.67,1.67,0,0,0-.85.23,2.1,2.1,0,0,0-.64.62,2.81,2.81,0,0,0-.41.91,4.18,4.18,0,0,0-.14,1.07,1.49,1.49,0,0,0,.33,1,1.16,1.16,0,0,0,.92.36,1.61,1.61,0,0,0,.85-.23A1.92,1.92,0,0,0,101.47,95.88Z"/><path class="b" d="M106,97.47a3.19,3.19,0,0,1-.92-.13,1.86,1.86,0,0,1-.69-.38,1.65,1.65,0,0,1-.45-.64,2.5,2.5,0,0,1-.15-.9,4.42,4.42,0,0,1,.23-1.43,3.78,3.78,0,0,1,.68-1.17,3.23,3.23,0,0,1,3.3-.93,4.34,4.34,0,0,1,.75.32l-.2,1h-.06a1.8,1.8,0,0,0-.24-.2,1.5,1.5,0,0,0-.35-.22,2.53,2.53,0,0,0-.44-.18,2,2,0,0,0-.56-.07,1.87,1.87,0,0,0-1.55.8,3.19,3.19,0,0,0-.59,1.94,1.5,1.5,0,0,0,.35,1.06,1.32,1.32,0,0,0,1,.37,2.15,2.15,0,0,0,.61-.09,3.55,3.55,0,0,0,.53-.19,4.53,4.53,0,0,0,.44-.23L108,96h0l-.19,1q-.44.18-.9.33A3.54,3.54,0,0,1,106,97.47Z"/><path class="b" d="M111.07,91.89l-1.26,5.45h-.92l1.26-5.45Zm.5-1.87-.22,1h-1l.22-1Z"/><path class="b" d="M115.09,96.76l-.36.23a4,4,0,0,1-.46.24,2.83,2.83,0,0,1-.56.19,2.93,2.93,0,0,1-.7.08,1.5,1.5,0,0,1-1.06-.38,1.3,1.3,0,0,1-.4-1,2,2,0,0,1,.28-1.1,2.05,2.05,0,0,1,.85-.73,4.64,4.64,0,0,1,1.33-.4,12.87,12.87,0,0,1,1.77-.15c0-.1,0-.17,0-.24a.75.75,0,0,0,0-.21.71.71,0,0,0-.09-.38.58.58,0,0,0-.26-.23,1.25,1.25,0,0,0-.4-.12,3.75,3.75,0,0,0-.5,0,4,4,0,0,0-.95.14c-.35.09-.64.18-.86.26h-.05l.18-.91a8.19,8.19,0,0,1,.81-.17,6.24,6.24,0,0,1,1-.09,2.86,2.86,0,0,1,1.53.32,1.08,1.08,0,0,1,.5,1,1.37,1.37,0,0,1,0,.28,2.33,2.33,0,0,1,0,.28l-.85,3.7H115Zm.53-2.29c-.5,0-.94.06-1.33.11a4.12,4.12,0,0,0-1,.25,1.38,1.38,0,0,0-.6.44,1.14,1.14,0,0,0-.2.68.63.63,0,0,0,.24.54,1.22,1.22,0,0,0,.74.18,2.28,2.28,0,0,0,.9-.19,4.76,4.76,0,0,0,.86-.48Z"/><path class="b" d="M120.32,89.75l-1.76,7.59h-.92l1.76-7.59Z"/><path class="b" d="M28.89,113.34H26v-.74h1v-5.78H26v-.75h2.88v.75h-1v5.78h1Z"/><path class="b" d="M35,113.34H34.1v-3.1a5.33,5.33,0,0,0,0-.71,1.22,1.22,0,0,0-.17-.51.71.71,0,0,0-.35-.31,1.61,1.61,0,0,0-.59-.1,1.83,1.83,0,0,0-.79.19,4,4,0,0,0-.78.47v4.07h-.92v-5.45h.92v.61a3.52,3.52,0,0,1,.88-.56,2.25,2.25,0,0,1,1-.2,1.69,1.69,0,0,1,1.34.53A2.28,2.28,0,0,1,35,109.8Z"/><path class="b" d="M40.68,111.77a1.47,1.47,0,0,1-.62,1.23,2.66,2.66,0,0,1-1.68.48,3.82,3.82,0,0,1-1.11-.15,4.81,4.81,0,0,1-.85-.31v-1h0a4,4,0,0,0,1,.52,3.27,3.27,0,0,0,1,.19,1.88,1.88,0,0,0,.94-.2.64.64,0,0,0,.34-.61.63.63,0,0,0-.18-.49,1.74,1.74,0,0,0-.71-.28l-.51-.11c-.21,0-.41-.08-.58-.12a2,2,0,0,1-1-.56,1.4,1.4,0,0,1-.3-.91,1.52,1.52,0,0,1,.14-.63,1.55,1.55,0,0,1,.43-.53,1.89,1.89,0,0,1,.69-.37,3.12,3.12,0,0,1,.95-.13,4.17,4.17,0,0,1,1,.12,3.41,3.41,0,0,1,.84.29v1h0a3.46,3.46,0,0,0-.86-.44,2.87,2.87,0,0,0-1-.18,1.7,1.7,0,0,0-.85.2.67.67,0,0,0-.14,1.08,1.7,1.7,0,0,0,.67.28,5.56,5.56,0,0,0,.56.11l.53.11a2.06,2.06,0,0,1,1,.5A1.34,1.34,0,0,1,40.68,111.77Z"/><path class="b" d="M46,113a5.74,5.74,0,0,1-.87.34,3.17,3.17,0,0,1-.88.13,3.14,3.14,0,0,1-1.08-.18,2.24,2.24,0,0,1-.85-.52,2.36,2.36,0,0,1-.55-.89,3.7,3.7,0,0,1-.2-1.26,2.91,2.91,0,0,1,.74-2.1,2.61,2.61,0,0,1,1.94-.76,3.58,3.58,0,0,1,.92.13,4.79,4.79,0,0,1,.83.33v1H46a3.53,3.53,0,0,0-.87-.51,2.53,2.53,0,0,0-.87-.17,1.53,1.53,0,0,0-1.23.52,2.32,2.32,0,0,0-.45,1.54,2.28,2.28,0,0,0,.44,1.52,1.53,1.53,0,0,0,1.24.53,2.22,2.22,0,0,0,.57-.07,3.52,3.52,0,0,0,.52-.19l.37-.22A3,3,0,0,0,46,112H46Z"/><path class="b" d="M50.61,108.89h0a3.06,3.06,0,0,0-.4-.07,3.1,3.1,0,0,0-.45,0,1.8,1.8,0,0,0-.82.19,3.51,3.51,0,0,0-.77.48v3.87h-.91v-5.45h.91v.81a4.73,4.73,0,0,1,1-.63,2.13,2.13,0,0,1,.85-.18h.35l.32,0Z"/><path class="b" d="M52.46,107h-1v-1h1Zm-.06,6.36h-.92v-5.45h.92Z"/><path class="b" d="M59,110.55a3.84,3.84,0,0,1-.19,1.21,2.65,2.65,0,0,1-.54.93,2.18,2.18,0,0,1-.76.56,2.25,2.25,0,0,1-.93.2,2.78,2.78,0,0,1-1.46-.38v2.29h-.92v-7.47h.92v.57A3.24,3.24,0,0,1,56,108a2.29,2.29,0,0,1,1-.21,1.82,1.82,0,0,1,1.54.74A3.49,3.49,0,0,1,59,110.55Zm-1,0a2.59,2.59,0,0,0-.34-1.48,1.18,1.18,0,0,0-1-.49,2.09,2.09,0,0,0-.8.17,4.22,4.22,0,0,0-.76.45v3.09a3.24,3.24,0,0,0,.67.24,3,3,0,0,0,.63.07,1.5,1.5,0,0,0,1.2-.52A2.34,2.34,0,0,0,58.07,110.58Z"/><path class="b" d="M64.48,113a5.36,5.36,0,0,1-.87.34,3.17,3.17,0,0,1-.88.13,3.14,3.14,0,0,1-1.08-.18,2.24,2.24,0,0,1-.85-.52,2.49,2.49,0,0,1-.55-.89,3.71,3.71,0,0,1-.19-1.26,2.9,2.9,0,0,1,.73-2.1,2.61,2.61,0,0,1,1.94-.76,3.52,3.52,0,0,1,.92.13,4.79,4.79,0,0,1,.83.33v1h0a3.67,3.67,0,0,0-.86-.51,2.54,2.54,0,0,0-.88-.17,1.53,1.53,0,0,0-1.23.52,2.85,2.85,0,0,0,0,3.06,1.55,1.55,0,0,0,1.24.53,2.22,2.22,0,0,0,.57-.07,3.52,3.52,0,0,0,.52-.19,3.28,3.28,0,0,0,.37-.22l.28-.2h0Z"/><path class="b" d="M66.64,107h-1v-1h1Zm0,6.36h-.92v-5.45h.92Z"/><path class="b" d="M73.05,110.62a3.07,3.07,0,0,1-.68,2.1,2.55,2.55,0,0,1-3.67,0,3,3,0,0,1-.68-2.1,3.06,3.06,0,0,1,.68-2.11,2.57,2.57,0,0,1,3.67,0A3.11,3.11,0,0,1,73.05,110.62Zm-1,0a2.5,2.5,0,0,0-.41-1.57,1.54,1.54,0,0,0-2.31,0,3.11,3.11,0,0,0,0,3.12,1.36,1.36,0,0,0,1.16.53,1.4,1.4,0,0,0,1.15-.52A2.53,2.53,0,0,0,72.1,110.62Zm0-5.46L70.72,107H70l.88-1.83Z"/><path class="b" d="M79,113.34h-.92v-3.1a5.33,5.33,0,0,0,0-.71,1.23,1.23,0,0,0-.16-.51.76.76,0,0,0-.35-.31,1.67,1.67,0,0,0-.6-.1,1.79,1.79,0,0,0-.78.19,3.74,3.74,0,0,0-.79.47v4.07h-.92v-5.45h.92v.61a3.57,3.57,0,0,1,.89-.56,2.21,2.21,0,0,1,.94-.2,1.71,1.71,0,0,1,1.35.53A2.27,2.27,0,0,1,79,109.8Z"/><path class="b" d="M89.93,113.34H88.74l-3.45-6.5v6.5h-.9v-7.27h1.5L89,112v-5.94h.9Z"/><path class="b" d="M96.44,110.62a3,3,0,0,1-.68,2.1,2.55,2.55,0,0,1-3.67,0,3.07,3.07,0,0,1-.68-2.1,3.11,3.11,0,0,1,.68-2.11,2.57,2.57,0,0,1,3.67,0A3.06,3.06,0,0,1,96.44,110.62Zm-.94,0a2.43,2.43,0,0,0-.42-1.57,1.54,1.54,0,0,0-2.31,0,2.44,2.44,0,0,0-.41,1.57,2.51,2.51,0,0,0,.41,1.55,1.53,1.53,0,0,0,2.31,0A2.46,2.46,0,0,0,95.5,110.62Z"/><path class="b" d="M99.26,113.34H98.1V112h1.16Z"/><path class="b" d="M109.72,113.34H104.8v-1l1-.88q.51-.43,1-.87a10.12,10.12,0,0,0,1.28-1.44,2.1,2.1,0,0,0,.35-1.16,1.11,1.11,0,0,0-.37-.88,1.53,1.53,0,0,0-1-.32,3.52,3.52,0,0,0-1,.15,4.42,4.42,0,0,0-1,.48h0v-1a4.5,4.5,0,0,1,.93-.32,4.91,4.91,0,0,1,1.12-.14,2.62,2.62,0,0,1,1.75.54,1.84,1.84,0,0,1,.64,1.46,2.77,2.77,0,0,1-.11.78,2.6,2.6,0,0,1-.31.68,4.85,4.85,0,0,1-.45.59,7.21,7.21,0,0,1-.62.65c-.35.35-.71.68-1.08,1l-1,.89h3.91Z"/><path class="b" d="M116.08,113.34h-4.92v-1l1-.88q.51-.43,1-.87a10.12,10.12,0,0,0,1.28-1.44,2.1,2.1,0,0,0,.35-1.16,1.09,1.09,0,0,0-.38-.88,1.51,1.51,0,0,0-1-.32,3.41,3.41,0,0,0-1,.15,4.23,4.23,0,0,0-1,.48h0v-1a4.5,4.5,0,0,1,.93-.32,4.84,4.84,0,0,1,1.12-.14,2.62,2.62,0,0,1,1.75.54,1.83,1.83,0,0,1,.63,1.46,2.78,2.78,0,0,1-.1.78,3,3,0,0,1-.31.68,4.85,4.85,0,0,1-.45.59,9,9,0,0,1-.62.65c-.35.35-.71.68-1.08,1l-1,.89h3.91Z"/><path class="b" d="M122.43,109.71a5.35,5.35,0,0,1-.61,2.87,2.15,2.15,0,0,1-1.91.92,2.11,2.11,0,0,1-1.91-.93,5.35,5.35,0,0,1-.6-2.85,5.28,5.28,0,0,1,.61-2.87,2.43,2.43,0,0,1,3.82,0A5.34,5.34,0,0,1,122.43,109.71Zm-1.29,2.21a3,3,0,0,0,.24-.93,11.57,11.57,0,0,0,.06-1.28,11.9,11.9,0,0,0-.06-1.29,2.87,2.87,0,0,0-.24-.93,1.34,1.34,0,0,0-.47-.57,1.42,1.42,0,0,0-.76-.19,1.47,1.47,0,0,0-.76.19,1.31,1.31,0,0,0-.47.58,3,3,0,0,0-.23.94,12.51,12.51,0,0,0-.06,1.28c0,.5,0,.93,0,1.27a3.54,3.54,0,0,0,.23.92,1.28,1.28,0,0,0,.46.58,1.64,1.64,0,0,0,1.55,0A1.23,1.23,0,0,0,121.14,111.92Z"/><path class="b" d="M128.9,111a2.4,2.4,0,0,1-.73,1.81,2.5,2.5,0,0,1-1.79.7,2.7,2.7,0,0,1-1-.17,2.25,2.25,0,0,1-.78-.49,2.63,2.63,0,0,1-.65-1.08,5.05,5.05,0,0,1-.22-1.61,6.75,6.75,0,0,1,.2-1.71,3.71,3.71,0,0,1,.67-1.33,2.77,2.77,0,0,1,1.1-.86,3.76,3.76,0,0,1,1.59-.31,3.4,3.4,0,0,1,.48,0l.39.09V107h0a2,2,0,0,0-.42-.14,2.6,2.6,0,0,0-.56-.06,2.24,2.24,0,0,0-1.68.65,2.92,2.92,0,0,0-.72,1.78,3.69,3.69,0,0,1,.81-.38,2.84,2.84,0,0,1,.92-.13,3.23,3.23,0,0,1,.81.09,2.08,2.08,0,0,1,.73.34,1.92,1.92,0,0,1,.64.75A2.47,2.47,0,0,1,128.9,111Zm-1,0a1.83,1.83,0,0,0-.13-.75,1.35,1.35,0,0,0-.44-.52,1.28,1.28,0,0,0-.5-.2,3.66,3.66,0,0,0-.57,0,2.78,2.78,0,0,0-.78.1,3.13,3.13,0,0,0-.73.3c0,.07,0,.14,0,.21a1.85,1.85,0,0,0,0,.25,3.91,3.91,0,0,0,.16,1.22,1.68,1.68,0,0,0,.44.7,1.44,1.44,0,0,0,.48.32,1.56,1.56,0,0,0,.57.1,1.5,1.5,0,0,0,1.12-.43A1.77,1.77,0,0,0,127.91,111Z"/><g class="c"><g class="d"><path class="e" d="M29.34,68.63C20.82,63.2,1.58,65.69,0,54.07V.83C15.31,3.92,13.73,3.62,29.34,0c10.33,3.09,19,5,29.41.83V54.07c-1.36,10-21,10.64-29.41,14.56"/><polygon class="f" points="17.72 54.3 16.74 53.92 15.54 53.54 14.33 52.87 13.2 52.34 12.22 51.43 11.31 50.6 10.71 49.4 10.48 48.42 10.48 46.15 10.48 43.74 10.48 41.48 10.48 39.14 10.48 37.03 10.48 34.62 10.48 32.35 10.48 30.02 10.48 27.83 10.48 25.34 10.48 23.15 10.48 20.81 10.48 18.55 10.48 16.21 10.48 14.03 10.48 11.69 11.62 12.14 12.82 12.44 14.03 12.67 15.46 13.05 16.74 13.12 18.1 13.27 19.38 13.42 20.82 13.42 22.1 13.42 23.45 13.27 24.51 13.05 25.57 12.67 26.39 12.44 27.38 12.14 28.51 11.54 29.86 10.94 31.07 11.54 32.28 12.14 33.26 12.44 34.01 12.67 35.14 13.05 36.12 13.27 37.33 13.42 38.84 13.42 40.2 13.42 41.63 13.27 43.06 13.12 44.5 13.05 45.78 12.67 46.91 12.44 48.04 12.14 49.02 11.69 49.02 48.42 48.94 49.4 48.34 50.45 47.59 51.36 46.61 52.11 45.48 52.87 44.19 53.47 43.06 53.92 41.93 54.3 40.2 54.52 38.69 54.83 37.1 55.13 35.67 55.43 34.24 55.81 32.8 56.41 31.45 57.02 29.86 57.84 28.21 57.02 26.62 56.41 25.27 55.81 23.83 55.43 22.4 55.13 20.82 54.83 19.38 54.52 17.72 54.3"/><path class="g" d="M17,45l-.23.3-.22.15-.38.15-.38.15-.37.08.37.15h.61l.45-.08.3-.22.23-.23.22.38.61-.31-.16-.3.31-.22.37-.23.23-.3.15-.3L19,43.67l-.23.3-.3.3-.46.3-.45.07C13.8,45.93,17,45,17,45"/><polygon class="g" points="41.33 45.32 41.71 45.55 42.01 45.7 42.61 45.78 43.06 45.78 42.53 46.15 42.01 46.23 41.48 46.15 41.18 46.08 40.88 45.93 40.88 45.63 40.65 45.47 40.42 45.85 39.9 45.7 40.12 45.32 39.74 45.17 39.44 45.1 39.07 44.95 38.76 44.72 38.61 44.42 38.61 44.19 38.61 43.89 38.92 44.19 39.22 44.42 39.59 44.57 40.12 44.72 40.58 44.8 41.1 45.02 41.33 45.32"/><polygon class="g" points="21.34 52.87 20.14 52.79 20.14 52.72 20.06 52.26 20.14 51.28 20.14 50.45 19.84 49.4 19.46 48.72 19.16 48.34 18.7 47.51 19.76 46.98 20.06 46.15 20.44 46.83 20.44 47.51 20.82 48.04 21.04 48.64 20.97 49.02 21.19 48.19 21.64 47.51 22.02 46.98 22.63 46.68 23.38 46.53 24.21 46.46 24.13 47.36 23.91 48.11 23.61 48.64 23.15 49.09 22.63 49.4 21.95 49.55 21.42 49.62 21.19 49.55 21.34 49.92 21.57 50.6 21.72 51.43 21.8 52.11 21.8 52.79 21.34 52.87"/><polygon class="h" points="30.92 16.21 27.52 16.21 27.15 15.76 26.7 15.08 26.39 14.56 26.17 14.1 26.62 14.33 27 14.56 27.68 14.78 28.43 14.78 28.81 14.1 28.88 13.57 29.19 13.05 29.34 13.5 29.41 14.1 29.79 14.78 30.39 14.78 31.15 14.56 31.52 14.33 32.2 14.03 31.82 14.48 31.6 14.86 31.3 15.46 30.92 16.21"/><polygon class="h" points="30.32 17.12 25.79 17.04 25.49 17.34 25.19 17.65 25.19 18.93 25.19 19.61 26.02 19.61 27 19.61 27.38 20.14 27.22 23.53 27.15 24.28 26.47 24.81 25.79 25.11 24.96 24.96 24.43 24.73 24.21 24.36 23.98 23.45 23.83 22.32 23.61 21.8 23.23 21.12 22.85 20.66 22.47 20.29 21.87 19.99 21.27 19.61 20.36 19.31 19.46 19 18.55 18.7 17.72 18.32 16.97 18.18 16.14 17.72 15.38 17.42 14.86 17.19 14.25 16.97 13.57 16.52 13.12 16.14 12.44 15.69 11.77 14.93 11.61 16.21 11.77 17.72 12.14 18.4 12.44 19.23 12.97 19.76 13.73 20.74 14.55 21.27 15.31 21.87 16.21 22.4 17.12 22.7 17.8 23.15 18.55 23.45 17.72 23.6 16.59 23.53 15.31 23.53 14.48 23.38 13.57 23.23 12.75 22.93 12.22 22.62 12.37 23.3 12.59 23.75 12.97 24.51 13.5 25.26 14.33 26.02 15.01 26.55 15.84 27.07 16.52 27.3 17.35 27.53 18.1 27.6 18.48 27.75 19.61 27.98 18.48 28.51 17.65 28.88 17.04 29.03 16.29 29.26 15.46 29.34 14.48 29.41 13.8 29.49 14.25 29.86 14.78 30.24 15.46 30.77 16.14 31.22 16.74 31.52 17.57 31.82 18.4 31.9 19.23 31.98 20.21 31.9 21.64 31.68 20.89 32.43 20.14 32.96 19.61 33.33 19.08 33.48 18.25 33.78 17.57 33.94 16.97 33.94 16.44 33.86 16.74 34.31 17.5 34.84 18.25 35.14 19.23 35.52 20.21 35.44 21.34 35.29 22.25 35.07 22.85 34.92 23.38 34.69 24.06 34.31 23.83 35.22 23.38 35.82 23 36.2 22.55 36.5 22.1 36.88 21.64 37.03 21.19 37.1 20.74 37.26 21.49 37.78 22.32 38.01 23.38 38.01 24.59 37.71 25.19 37.48 25.72 37.33 26.24 37.03 26.62 36.8 26.92 36.5 27.38 36.58 27.68 37.1 27.22 37.56 26.62 38.01 25.64 38.54 24.89 39.14 24.06 39.59 23.3 40.2 22.55 40.95 21.87 42.31 22.85 42.08 22.1 43.06 21.8 43.44 21.27 43.89 20.74 44.49 20.21 44.95 19.84 45.25 19.38 45.25 18.63 45.17 17.72 45.32 17.2 45.55 16.82 46.08 16.74 46.76 16.89 47.29 17.42 48.04 17.95 48.49 18.7 48.94 19.46 48.87 19.23 48.19 19.68 47.59 20.66 47.81 20.82 47.13 20.66 46.38 20.82 46.15 21.34 45.78 22.1 45.25 22.78 44.8 23.3 44.34 24.06 43.89 24.66 43.51 25.27 43.36 25.11 44.19 24.96 44.64 25.57 44.12 26.09 43.81 26.47 43.59 27 43.36 26.55 44.64 26.24 45.47 26.02 46.23 25.87 46.91 25.79 47.74 26.02 48.49 26.39 48.11 26.77 47.66 27.6 47.44 27.45 48.11 27.3 49.32 27.38 50.68 27.6 52.11 27.9 52.87 28.2 53.62 28.58 54.3 28.96 55.13 29.26 55.51 29.79 54.45 30.09 53.77 30.39 53.02 30.77 52.11 30.84 51.59 31 49.85 31 48.72 30.77 47.36 31.52 47.74 32.2 48.19 32.66 48.49 32.5 47.51 32.43 46.61 32.28 45.93 32.05 45.02 31.82 44.34 31.6 43.74 31.52 43.29 32.05 43.51 32.73 43.74 33.33 44.12 33.79 44.34 34.54 44.8 34.39 44.27 34.24 43.89 35.22 44.19 35.97 44.72 36.58 45.1 37.41 45.85 37.86 46.53 37.93 47.44 38.31 48.11 38.91 48.57 39.82 48.57 40.65 48.34 41.33 47.44 41.4 46.46 41.03 45.78 40.5 45.32 39.52 45.1 38.76 45.25 38.31 45.32 37.86 44.87 37.26 44.27 36.43 43.51 35.97 42.84 35.67 42.31 35.67 42.16 36.43 42.16 36.8 42.08 36.35 41.03 35.67 40.35 34.92 39.74 33.94 38.99 33.03 38.54 32.2 38.16 31.6 37.78 31.22 37.33 31.3 36.8 31.82 36.65 32.88 37.18 33.79 37.56 34.77 37.78 36.12 38.01 36.88 37.93 37.71 37.71 38.61 37.18 37.18 36.73 36.35 36.27 35.75 35.52 35.37 34.92 35.22 34.54 35.75 34.84 36.8 35.14 38.39 35.37 39.97 35.37 41.03 35.07 41.78 34.62 42.76 33.86 41.93 33.86 41.03 33.71 40.2 33.56 39.52 33.33 38.84 32.96 38.39 32.51 38.01 32.13 37.63 31.6 38.16 31.68 39.67 31.75 41.03 31.6 42.01 31.45 42.91 31.15 43.59 30.77 44.19 30.24 44.65 29.94 44.95 29.56 44.12 29.49 43.29 29.34 42.46 29.11 41.78 28.88 41.18 28.58 40.57 28.36 40.27 28.05 40.05 27.9 40.5 27.75 41.18 27.53 42.08 27.38 42.61 27.3 43.44 26.92 44.12 26.62 44.65 26.32 45.1 25.87 45.63 25.34 45.93 24.81 46.15 24.28 46.3 23.53 46.53 22.55 45.78 22.93 45.4 23.08 44.65 23.15 43.82 23.23 42.31 23.45 41.03 23.45 40.5 23.3 40.65 23.15 41.18 22.93 41.7 22.55 42.38 22.02 43.21 21.57 43.82 21.04 44.65 20.14 45.32 19.16 45.63 18.55 45.93 17.57 46.08 16.67 46.15 15.91 46.15 15.31 46.08 14.93 45.85 15.23 45.32 15.69 44.95 15.99 44.12 16.59 43.21 17.12 42.46 17.5 41.4 17.95 40.5 18.32 39.52 18.63 38.69 18.93 37.78 19.31 37.26 19.46 36.58 19.76 35.97 20.14 35.52 20.74 35.14 21.34 34.84 22.02 34.77 22.62 34.77 23.68 34.46 24.28 34.16 24.73 33.41 24.96 32.58 24.96 32.13 24.73 31.82 24.51 31.6 24.13 31.52 23.45 31.52 21.8 31.52 20.97 31.6 19.08 31.45 18.48 31 17.87 30.62 17.42 30.32 17.12"/><path class="f" d="M28.21,19a.75.75,0,0,0,.75-.75.81.81,0,0,0-.75-.75.82.82,0,0,0-.83.75.77.77,0,0,0,.83.75"/><path class="g" d="M42.76,40.27c-1.66-.6-3.32.08-3.62,1.51a3.61,3.61,0,0,0,2.57,3.69c1.65.53,3.24-.15,3.54-1.58a3.42,3.42,0,0,0-2.49-3.62"/><polygon class="g" points="37.93 47.44 37.48 47.89 37.1 48.49 36.88 49.02 36.73 49.32 36.5 48.79 36.35 48.19 35.97 47.51 35.29 46.98 34.62 46.68 33.94 46.46 33.33 46.46 33.41 47.29 33.48 47.89 33.71 48.34 34.16 48.87 34.62 49.32 35.22 49.7 35.9 49.77 36.5 49.7 36.35 50.83 36.27 51.59 36.12 52.41 36.12 52.87 38.16 52.87 38.16 51.89 38.24 50.91 38.31 50 38.46 49.25 38.69 48.64 38.91 48.12 38.46 47.29 38.16 47.13 37.93 47.44"/><polygon class="g" points="43.36 40.2 43.52 39.67 43.36 38.99 42.99 38.76 42.53 38.61 43.14 38.46 43.66 38.69 44.04 38.99 44.19 39.44 45.17 38.69 44.72 39.9 45.25 39.97 45.7 40.12 46 40.57 46.16 41.1 45.7 40.73 45.32 40.42 44.87 40.57 44.65 40.65 44.27 40.95 43.36 40.2"/><path class="g" d="M14.41,40.73c-1.59,1-2.12,2.71-1.29,3.84s2.72,1.13,4.3.15,2-2.71,1.21-3.84-2.72-1.21-4.22-.15"/><polygon class="g" points="13.95 40.73 14.78 40.2 14.71 39.67 14.71 39.29 14.86 39.07 15.23 38.84 14.86 38.84 14.63 38.91 14.4 39.14 14.18 39.52 13.42 38.84 13.5 39.82 13.35 39.9 13.12 39.9 12.97 39.9 12.75 40.05 12.52 40.5 12.82 40.27 13.05 40.2 13.27 40.12 13.57 40.27 13.73 40.42 13.95 40.73"/><polygon class="f" points="5.2 6.71 6.11 7.01 6.79 7.39 7.24 7.84 7.69 8.52 7.77 9.43 7.62 10.48 7.24 11.01 6.71 11.54 6.18 11.91 5.43 12.14 4.67 12.22 3.85 12.07 3.09 11.77 2.56 11.39 1.96 10.94 1.51 10.26 1.43 9.13 1.66 8.22 2.11 7.62 2.79 7.01 3.54 6.71 4.38 6.64 5.2 6.71"/><polygon class="f" points="4.53 6.11 5.43 6.18 5.58 5.81 5.81 5.5 6.49 5.13 6.11 4.9 5.73 4.98 5.35 5.2 5.13 4.15 4.83 5.13 4.38 4.75 3.92 4.68 3.62 4.83 4.07 5.05 4.38 5.35 4.53 6.11"/><path class="f" d="M4.52,12.14l1.06.45H6.79l.68-.07-.31.3-.3.23-.52.3H5.81l-.46-.08H5c-.38-.22-.38.38-.38.38l.23.75.22.76.53,1,.3.75.08.76v.9l-.15.83-.15.83-.08.6-.15.68-1-.07.15-.61.15-.75v-.9l.15-.61v-.38l-.52.08-.53-.08L3.39,18,3,17.87l-.38-.22-.3-.31L2.11,17l-.22-.38L1.58,16l.91-.15,1.06.37.52.31.53.37.38.53-.08-.75-.45-.91-.3-.6L4,14.63,3.92,14l-.07-.68-.23-.15h-1L2,13a2.28,2.28,0,0,1-.76-.68l.76.08.68.07h.83l.52-.3Z"/><polygon class="f" points="5.28 27.83 6.18 28.05 6.86 28.51 7.39 28.88 7.77 29.56 7.92 30.47 7.69 31.52 7.32 32.13 6.79 32.58 6.26 32.96 5.51 33.18 4.75 33.26 3.92 33.11 3.17 32.88 2.64 32.51 2.04 31.98 1.58 31.3 1.51 30.24 1.74 29.26 2.19 28.66 2.87 28.13 3.62 27.83 4.45 27.75 5.28 27.83"/><polygon class="f" points="4.68 27.22 5.58 27.22 5.73 26.85 6.03 26.55 6.64 26.17 6.26 26.02 5.88 26.02 5.58 26.25 5.35 25.19 4.98 26.17 4.6 25.87 4.15 25.72 3.77 25.94 4.22 26.09 4.6 26.4 4.68 27.22"/><path class="f" d="M4.6,33.18l1.06.45.52.08.68-.08.68-.07-.3.38L7,34.16l-.52.23H5.88l-.45-.08H5.05c-.37-.22-.37.38-.37.38l.22.83.23.76.53.9.3.75.15.76-.08.9-.15.83-.15.83-.07.68-.15.6-1-.07.16-.53.15-.83.07-.83.08-.6v-.45l-.53.07H3.92l-.45-.15-.38-.23-.37-.22-.23-.3-.3-.31L2,37.63l-.3-.6.9-.08,1.06.3.6.31.46.37.37.53L5,37.71l-.38-.83-.38-.68-.07-.53L4,35.07l-.08-.68-.15-.15h-1L2.11,34a4.1,4.1,0,0,1-.75-.6l.83.07H3.62l.53-.3Z"/><polygon class="f" points="3.39 48.79 4.22 48.34 5.05 48.27 5.66 48.27 6.41 48.49 7.09 49.17 7.62 50.08 7.69 50.75 7.62 51.51 7.47 52.11 7.01 52.72 6.49 53.24 5.81 53.7 5.05 54 4.38 54.07 3.62 54 2.87 53.85 2.04 53.02 1.58 52.11 1.58 51.43 1.73 50.53 2.11 49.85 2.72 49.25 3.39 48.79"/><polygon class="f" points="2.56 48.72 3.32 48.19 3.17 47.81 3.17 47.36 3.39 46.61 3.02 46.76 2.72 47.06 2.64 47.44 1.74 46.76 2.11 47.74 1.58 47.74 1.21 47.96 1.06 48.27 1.51 48.11 1.96 48.19 2.56 48.72"/><path class="f" d="M6.41,53.24l1.06-.3.45-.38.45-.45.53-.45v.45l-.08.3L8.6,53l-.45.37-.46.15-.22.31c-.46,0-.08.45-.08.45l.68.53.68.37,1.06.46.67.37.61.53.45.68L12,58l.45.68.31.61.37.52-.83.61-.3-.53-.38-.68-.52-.75-.3-.53-.23-.3-.38.45-.37.23-.53.22-.38.08-.38.07-.45-.07-.38-.08-.45-.15-.6-.3.6-.68,1-.38.68-.15h.6l.68.15-.6-.52-.91-.38-.6-.3-.45-.3-.53-.46-.45-.45H6.41L5.88,55l-.22.3L5,55.43a1.76,1.76,0,0,1-.91,0l.61-.38.52-.37.61-.53L6,53.54Z"/><polygon class="f" points="22.7 60.63 23.08 59.73 23.53 59.13 23.98 58.67 24.74 58.3 25.64 58.3 26.62 58.6 27.22 58.97 27.6 59.58 27.98 60.11 28.13 60.86 28.13 61.61 27.9 62.44 27.6 63.2 27.15 63.65 26.62 64.25 25.94 64.63 24.81 64.56 23.83 64.25 23.3 63.8 22.85 63.05 22.63 62.29 22.63 61.46 22.7 60.63"/><polygon class="f" points="22.02 61.24 22.17 60.33 21.8 60.18 21.49 59.88 21.19 59.2 20.97 59.5 20.97 59.95 21.19 60.26 20.14 60.41 21.04 60.86 20.66 61.24 20.51 61.69 20.66 62.07 20.89 61.54 21.27 61.31 22.02 61.24"/><path class="f" d="M28.05,61.69l.53-.91.08-.6V58.82l.3.38.23.3.22.53-.07.53-.15.45v.38c-.23.37.37.37.37.37l.76-.15.83-.15,1-.45.75-.15.75-.08.91.16.83.15.75.22.68.15.61.15-.15,1.06-.53-.23-.83-.22-.83-.15-.61-.15h-.37v.52L34,63l-.22.45-.16.31-.22.37-.38.23-.37.23-.38.22L31.6,65V64.1l.38-1,.37-.6.45-.45.53-.31h-.75l-.91.38-.67.23-.53.07-.61.08h-.67l-.16.23-.07.6-.08.38-.3.6a2.06,2.06,0,0,1-.68.6l.15-.68.16-.67.07-.83-.3-.53Z"/><polygon class="f" points="25.94 7.92 25.72 8.82 25.27 9.5 24.89 10.03 24.21 10.41 23.3 10.56 22.25 10.33 21.64 9.96 21.19 9.43 20.82 8.9 20.59 8.14 20.51 7.39 20.66 6.56 20.89 5.81 21.27 5.28 21.8 4.68 22.47 4.22 23.53 4.15 24.51 4.37 25.11 4.83 25.64 5.51 25.94 6.26 26.02 7.09 25.94 7.92"/><polygon class="f" points="26.55 7.32 26.55 8.22 26.93 8.37 27.23 8.67 27.6 9.28 27.75 8.9 27.75 8.52 27.53 8.22 28.58 8 27.6 7.62 27.9 7.24 28.05 6.79 27.83 6.41 27.68 6.86 27.38 7.24 26.55 7.32"/><path class="f" d="M20.59,7.39l-.45,1-.08.6.08.61.07.75L19.83,10l-.22-.23-.23-.53V8.6l.08-.46V7.77c.22-.31-.38-.31-.38-.31l-.83.16-.75.3-.91.45-.75.3-.76.15-.9-.07-.83-.15-.83-.15-.68-.08-.6-.07.07-1.06.53.15.83.15.83.08.6.07h.45l-.07-.53V6.71l.15-.53.23-.3.22-.37.3-.31.31-.3.45-.22.6-.31.08.91-.3,1-.31.61-.37.52-.53.38.75-.07.83-.46.68-.3.53-.15.6-.15h.68l.15-.22v-1l.23-.68a3,3,0,0,1,.6-.68l-.07.75V6.33l.3.53Z"/><polygon class="f" points="53.7 29.71 54.37 29.79 55.13 30.02 55.81 30.39 56.34 31.22 56.56 32.05 56.41 32.88 56.03 33.48 55.73 34.01 55.13 34.46 54.37 34.69 53.47 34.77 52.49 34.77 51.59 34.54 50.9 34.09 50.45 33.48 50.15 32.73 50.15 32.05 50.38 31.07 50.98 30.39 51.66 30.02 52.26 29.86 53.02 29.71 53.7 29.71"/><path class="f" d="M53.77,34.69l.38.3h.6l.68-.15.91-.3-.38.75-.38.31-.53.07h-.53L54,35.6l-.08.68-.15.75-.15.6-.3.68-.23.76L53,40l.37-.75.46-.31.52-.22.68-.08.38.08.45.07-.22.61-.46.45-.37.45-.68.3-.83.16L53,40.5l-.08.3.08.75v.76l.15.53.07.52c-.22.31-1,.15-1,.15L52,42.69,52,41.55v-1l.08-1,.22-.91.38-1,.3-.68.08-.67V35.6l-.46.15H52l-.61-.15-.37-.31-.31-.6.91.3h1l.38-.3Z"/><polygon class="f" points="52.56 28.73 52.72 29.11 53.32 29.11 53.47 28.73 53.85 28.43 54.38 28.05 53.7 27.98 53.32 28.13 52.94 27.15 52.64 28.13 52.19 28.05 51.59 28.13 52.19 28.36 52.56 28.73"/><polygon class="f" points="53.4 7.62 54 7.69 54.75 7.84 55.43 8.3 55.96 9.05 56.19 9.88 56.03 10.71 55.66 11.39 55.35 11.84 54.75 12.29 54 12.59 53.09 12.67 52.11 12.67 51.28 12.37 50.53 11.91 50.08 11.39 49.77 10.63 49.77 9.88 50.08 8.9 50.68 8.22 51.28 7.84 51.89 7.69 52.64 7.54 53.4 7.62"/><path class="f" d="M53.55,12.52l.37.3.53.08.68-.15,1-.38-.45.83-.38.22-.45.15h-.61l-.45-.07-.15.68-.07.68-.23.6-.3.75-.15.68-.16,1,.38-.75.53-.38.45-.22.68-.08.45.08.46.15-.31.52-.45.46-.38.52-.6.31-.83.07-.38-.15-.07.3.07.68.08.76.08.52.07.53c-.23.3-1,.15-1,.15l-.15-.83-.15-1.13v-1l.07-1.06.23-.9.45-1,.23-.68.07-.68.08-.6-.45.15h-.61l-.52-.15-.38-.38-.38-.6,1,.3,1,.08.38-.31Z"/><polygon class="f" points="52.19 6.56 52.34 6.94 53.02 7.01 53.09 6.56 53.47 6.26 54 5.96 53.32 5.88 52.94 5.96 52.56 4.98 52.34 6.03 51.81 5.88 51.21 6.03 51.81 6.26 52.19 6.56"/><polygon class="f" points="55.05 52.04 55.43 52.56 55.81 53.24 56.03 54 55.81 54.9 55.35 55.66 54.75 56.18 54 56.34 53.47 56.48 52.72 56.34 51.96 56.03 51.28 55.43 50.6 54.75 50.15 53.92 50 53.09 50.08 52.41 50.38 51.66 50.91 51.21 51.73 50.6 52.64 50.6 53.4 50.75 53.92 51.05 54.52 51.51 55.05 52.04"/><path class="f" d="M51.66,55.58v.53l.38.38.6.37.91.45-.83.31-.46-.15-.45-.23-.38-.45-.3-.38-.53.45-.6.38-.6.3-.68.3-.68.38-.75.6.83-.3.6.08.53.22.45.46.3.37.23.38-.61.15-.6.08h-.6L47.74,60l-.68-.45L47,59.2l-.3.15-.45.53-.53.6-.22.46-.38.37c-.38.08-.83-.53-.83-.53l.45-.75.76-.9.68-.68.82-.68.83-.53.91-.38.68-.3.6-.38.45-.45L50,55.51l-.38-.38-.3-.53v-.53l.15-.6.46.83.67.75.46.08Z"/><polygon class="f" points="54.9 50.45 54.75 50.83 55.2 51.36 55.58 51.13 56.11 51.13 56.71 51.28 56.26 50.75 55.88 50.6 56.34 49.62 55.43 50.15 55.13 49.7 54.6 49.4 54.9 49.92 54.9 50.45"/><polygon class="f" points="33.03 7.46 33.11 6.79 33.33 6.03 33.71 5.36 34.46 4.83 35.37 4.6 36.2 4.75 36.8 5.13 37.33 5.43 37.71 6.03 38.01 6.79 38.09 7.69 38.09 8.67 37.78 9.58 37.41 10.26 36.8 10.71 36.05 11.01 35.37 11.01 34.39 10.79 33.71 10.18 33.33 9.5 33.18 8.9 33.03 8.14 33.03 7.46"/><path class="f" d="M37.93,7.24l.38-.3v-.6l-.15-.68-.3-1,.75.45.23.38L39,6v.53L38.92,7l.67.16.68.07.61.23.75.3.75.15.91.15-.76-.38-.37-.45L42,6.71,41.93,6,42,5.58l.07-.45.6.3.46.45.45.38.3.68.08.75-.15.38.3.07.68-.07L45.63,8l.45-.07.53-.08c.3.23.22,1,.22,1L46,9.05l-1.2.08h-.91l-1.13-.08-.9-.23L41,8.45l-.68-.31-.68-.07L38.92,8l.15.46v.6l-.15.6-.38.31-.61.37.38-1v-.9L38,8Z"/><polygon class="f" points="31.98 8.6 32.35 8.45 32.35 7.84 31.9 7.69 31.6 7.32 31.3 6.79 31.22 7.46 31.37 7.84 30.39 8.22 31.37 8.45 31.22 8.97 31.37 9.58 31.6 8.97 31.98 8.6"/><polygon class="e" points="5.28 11.61 5.66 11.01 6.03 10.33 6.18 9.35 6.03 8.3 5.66 7.54 5.05 7.17 4.3 7.24 3.7 7.69 3.17 8.6 3.09 9.35 3.09 10.03 3.24 10.93 3.7 11.54 4.15 11.76 4.75 11.84 5.28 11.61"/><polygon class="e" points="5.5 32.66 5.88 32.05 6.18 31.37 6.41 30.47 6.26 29.34 5.88 28.58 5.2 28.2 4.45 28.28 3.85 28.81 3.32 29.71 3.24 30.39 3.24 31.15 3.47 31.98 3.92 32.58 4.3 32.88 4.98 32.88 5.5 32.66"/><polygon class="e" points="6.71 52.34 6.56 51.66 6.41 50.9 5.96 50.08 5.13 49.32 4.38 49.02 3.62 49.09 3.09 49.7 2.94 50.45 3.09 51.43 3.54 52.04 4 52.64 4.68 53.17 5.43 53.32 5.88 53.24 6.41 52.87 6.71 52.34"/><polygon class="e" points="27.6 60.86 27 60.48 26.39 60.03 25.49 59.8 24.36 59.88 23.53 60.18 23.15 60.78 23.15 61.54 23.61 62.22 24.44 62.82 25.19 62.9 25.87 62.97 26.77 62.82 27.38 62.44 27.68 62.07 27.75 61.46 27.6 60.86"/><polygon class="e" points="21.12 8.14 21.72 8.52 22.4 8.82 23.3 9.05 24.43 8.9 25.19 8.52 25.57 7.84 25.49 7.09 24.96 6.49 24.06 5.96 23.38 5.88 22.63 5.88 21.8 6.11 21.19 6.56 20.89 6.94 20.89 7.62 21.12 8.14"/><polygon class="e" points="53.92 30.02 54.45 30.39 54.83 31 55.05 32.13 54.98 33.03 54.6 34.01 53.92 34.46 52.87 34.54 52.26 34.24 51.81 33.71 51.66 32.58 51.66 31.6 51.96 31 52.26 30.54 52.72 30.09 53.17 29.94 53.92 30.02"/><polygon class="e" points="53.7 7.84 54.15 8.3 54.6 8.82 54.83 9.96 54.68 10.86 54.37 11.84 53.62 12.37 52.64 12.37 52.04 12.07 51.59 11.54 51.36 10.41 51.43 9.43 51.66 8.82 51.96 8.37 52.41 7.92 52.87 7.77 53.7 7.84"/><polygon class="e" points="55.05 52.41 55.13 53.02 54.98 53.7 54.38 54.67 53.7 55.28 52.72 55.66 51.89 55.51 51.13 54.9 50.91 54.22 50.98 53.47 51.59 52.56 52.34 51.96 53.02 51.66 53.55 51.59 54.15 51.59 54.6 51.81 55.05 52.41"/><polygon class="e" points="33.18 7.24 33.63 6.71 34.24 6.33 35.37 6.03 36.2 6.18 37.18 6.56 37.71 7.24 37.78 8.22 37.41 8.82 36.88 9.35 35.75 9.5 34.84 9.43 34.16 9.2 33.71 8.9 33.26 8.45 33.11 7.99 33.18 7.24"/><polygon class="f" points="43.82 41.03 43.89 41.78 43.74 42.61 43.59 43.21 43.14 43.81 42.69 44.19 42.23 44.49 41.63 44.72 41.1 44.8 40.88 44.34 40.72 43.59 40.88 42.84 41.18 42.31 41.71 41.63 42.31 41.25 42.84 41.03 43.29 41.03 43.82 41.03"/><polygon class="f" points="17.27 44.57 17.35 43.74 17.27 42.84 17.04 42.16 16.59 41.48 15.99 40.95 15.38 40.65 14.63 40.73 14.33 41.33 14.48 42.31 14.71 42.99 15.01 43.44 15.46 43.97 15.99 44.27 16.59 44.42 17.27 44.57"/><path class="i" d="M71.66,13.4H70.19l-.59-1.53H66.91l-.56,1.53H64.91l2.62-6.73H69Zm-2.5-2.67-.93-2.49-.9,2.49Z"/><path class="i" d="M72.53,13.4V6.72h1.36v5.54h3.38V13.4Z"/><path class="i" d="M82.45,10.92l1.32.42a3,3,0,0,1-1,1.64,2.92,2.92,0,0,1-1.79.53,2.87,2.87,0,0,1-2.2-.92,3.47,3.47,0,0,1-.86-2.5,3.72,3.72,0,0,1,.86-2.61,3,3,0,0,1,2.29-.93,2.81,2.81,0,0,1,2,.73,2.6,2.6,0,0,1,.69,1.24l-1.35.32A1.36,1.36,0,0,0,81.91,8,1.4,1.4,0,0,0,81,7.71a1.54,1.54,0,0,0-1.22.54A2.65,2.65,0,0,0,79.31,10a2.8,2.8,0,0,0,.46,1.82,1.48,1.48,0,0,0,1.19.54,1.36,1.36,0,0,0,.93-.35A1.94,1.94,0,0,0,82.45,10.92Z"/><path class="i" d="M90.92,13.4H89.44l-.59-1.53H86.16l-.55,1.53H84.17l2.62-6.73h1.43Zm-2.5-2.67-.93-2.49-.91,2.49Z"/><path class="i" d="M91.79,13.4V6.72h1.36v5.54h3.37V13.4Z"/><path class="i" d="M97.51,6.67H100a4.64,4.64,0,0,1,1.28.13,2.2,2.2,0,0,1,1,.62,3,3,0,0,1,.64,1.08,5.17,5.17,0,0,1,.22,1.59,4.38,4.38,0,0,1-.21,1.44,3.06,3.06,0,0,1-.72,1.19,2.29,2.29,0,0,1-1,.53,3.93,3.93,0,0,1-1.21.15H97.51ZM98.87,7.8v4.46h1a4,4,0,0,0,.82-.06,1.36,1.36,0,0,0,.55-.28,1.56,1.56,0,0,0,.36-.65,4.48,4.48,0,0,0,.13-1.23,4.15,4.15,0,0,0-.13-1.2,1.52,1.52,0,0,0-.39-.65,1.19,1.19,0,0,0-.63-.32,6.22,6.22,0,0,0-1.11-.07Z"/><path class="i" d="M104.37,13.4V6.67h1.36V13.4Z"/><path class="i" d="M113.28,13.4H111.8l-.58-1.53h-2.69L108,13.4h-1.44l2.62-6.73h1.44Zm-2.5-2.67-.93-2.49-.91,2.49Z"/><path class="i" d="M116.6,13.4V6.67h2l1.22,4.59,1.21-4.59h2V13.4h-1.27V8.1l-1.33,5.3h-1.31l-1.33-5.3v5.3Z"/><path class="i" d="M130.66,13.4h-1.48l-.58-1.53h-2.69l-.56,1.53h-1.44l2.62-6.73H128Zm-2.5-2.67-.93-2.49-.91,2.49Z"/><path class="i" d="M132.52,13.4V10.56l-2.46-3.89h1.59l1.58,2.66,1.55-2.66h1.57l-2.47,3.9V13.4Z"/><path class="i" d="M136.47,10.07a4.35,4.35,0,0,1,.3-1.72,3.47,3.47,0,0,1,.63-.93,2.72,2.72,0,0,1,.87-.6,3.64,3.64,0,0,1,1.45-.27,3.17,3.17,0,0,1,2.38.92A3.53,3.53,0,0,1,143,10a3.51,3.51,0,0,1-.88,2.55,3.54,3.54,0,0,1-4.76,0A3.47,3.47,0,0,1,136.47,10.07Zm1.4,0a2.52,2.52,0,0,0,.52,1.73,1.74,1.74,0,0,0,1.34.59,1.71,1.71,0,0,0,1.34-.59,2.54,2.54,0,0,0,.52-1.75,2.54,2.54,0,0,0-.51-1.73,1.87,1.87,0,0,0-2.7,0A2.55,2.55,0,0,0,137.87,10Z"/><path class="i" d="M144.18,13.4V6.67H147a5,5,0,0,1,1.57.18,1.56,1.56,0,0,1,.78.64,1.92,1.92,0,0,1,.29,1.06,1.77,1.77,0,0,1-.44,1.25,2.17,2.17,0,0,1-1.33.63,3.6,3.6,0,0,1,.73.56,8.89,8.89,0,0,1,.77,1.09l.82,1.32H148.6l-1-1.47a10.76,10.76,0,0,0-.71-1,1.16,1.16,0,0,0-.41-.28,2.33,2.33,0,0,0-.69-.07h-.27V13.4Zm1.36-3.89h1a5.68,5.68,0,0,0,1.23-.08.76.76,0,0,0,.38-.28.92.92,0,0,0,.13-.51.81.81,0,0,0-.18-.55.79.79,0,0,0-.51-.26,8.74,8.74,0,0,0-1,0h-1.06Z"/><path class="i" d="M65.76,16.07h2.48a4.64,4.64,0,0,1,1.28.13,2.16,2.16,0,0,1,1,.62,2.94,2.94,0,0,1,.64,1.09,4.88,4.88,0,0,1,.22,1.59,4.35,4.35,0,0,1-.21,1.43,2.84,2.84,0,0,1-.72,1.19,2.23,2.23,0,0,1-1,.53,3.9,3.9,0,0,1-1.2.15H65.76Zm1.36,1.14v4.45h1A3.88,3.88,0,0,0,69,21.6a1.25,1.25,0,0,0,.55-.28,1.37,1.37,0,0,0,.36-.65A4.42,4.42,0,0,0,70,19.44a4.09,4.09,0,0,0-.14-1.2,1.43,1.43,0,0,0-.39-.65,1.19,1.19,0,0,0-.63-.32,6.55,6.55,0,0,0-1.11-.06Z"/><path class="i" d="M73.22,22.8V16.07h5v1.14H74.58V18.7H78v1.13H74.58v1.83h3.76V22.8Z"/><path class="i" d="M83.23,16.07h2.69a8.76,8.76,0,0,1,1.2.06,1.87,1.87,0,0,1,.7.28,1.72,1.72,0,0,1,.51.56,1.53,1.53,0,0,1,.21.79,1.55,1.55,0,0,1-.25.87,1.59,1.59,0,0,1-.69.59,1.74,1.74,0,0,1,.94.61,1.63,1.63,0,0,1,.33,1,2,2,0,0,1-.21.9,1.73,1.73,0,0,1-.59.69,1.93,1.93,0,0,1-.91.32c-.22,0-.77,0-1.64.05H83.23Zm1.36,1.12v1.55h.89c.53,0,.86,0,1,0a.93.93,0,0,0,.55-.24.72.72,0,0,0,.2-.53.76.76,0,0,0-.17-.5.82.82,0,0,0-.51-.24c-.14,0-.53,0-1.17,0Zm0,2.67v1.8h1.26a5.84,5.84,0,0,0,.93,0,.91.91,0,0,0,.5-.27.95.95,0,0,0,0-1.08.82.82,0,0,0-.43-.31,4.24,4.24,0,0,0-1.2-.1Z"/><path class="i" d="M90.32,19.47a4.35,4.35,0,0,1,.3-1.72,3.47,3.47,0,0,1,.63-.93,2.72,2.72,0,0,1,.87-.6A3.64,3.64,0,0,1,93.57,16a3.14,3.14,0,0,1,2.38.93,3.48,3.48,0,0,1,.89,2.56A3.51,3.51,0,0,1,96,22a3.55,3.55,0,0,1-4.76,0A3.51,3.51,0,0,1,90.32,19.47Zm1.4,0a2.52,2.52,0,0,0,.52,1.73,1.75,1.75,0,0,0,1.35.59,1.71,1.71,0,0,0,1.33-.59,2.54,2.54,0,0,0,.52-1.75,2.54,2.54,0,0,0-.51-1.73,1.72,1.72,0,0,0-1.34-.57,1.74,1.74,0,0,0-1.36.58A2.55,2.55,0,0,0,91.72,19.43Z"/><path class="i" d="M101.68,20.32V19.19h2.93v2.68a3.7,3.7,0,0,1-1.23.73,4.51,4.51,0,0,1-1.65.31,3.76,3.76,0,0,1-1.84-.44,2.9,2.9,0,0,1-1.18-1.27,4.15,4.15,0,0,1-.39-1.79,3.94,3.94,0,0,1,.44-1.87,2.94,2.94,0,0,1,1.29-1.25,3.4,3.4,0,0,1,1.61-.34,3.22,3.22,0,0,1,2,.53,2.33,2.33,0,0,1,.9,1.45l-1.34.25a1.46,1.46,0,0,0-.54-.78,1.63,1.63,0,0,0-1-.29,1.86,1.86,0,0,0-1.42.57,2.35,2.35,0,0,0-.52,1.67,2.67,2.67,0,0,0,.53,1.8,1.79,1.79,0,0,0,1.4.6,2.34,2.34,0,0,0,.85-.17,2.89,2.89,0,0,0,.74-.4v-.86Z"/><path class="i" d="M106.23,19.47a4.17,4.17,0,0,1,.31-1.72,3.22,3.22,0,0,1,.62-.93,2.72,2.72,0,0,1,.87-.6,3.68,3.68,0,0,1,1.45-.27,3.14,3.14,0,0,1,2.38.93,3.49,3.49,0,0,1,.9,2.56,3.52,3.52,0,0,1-.89,2.55,3.15,3.15,0,0,1-2.37.92,3.19,3.19,0,0,1-2.39-.91A3.51,3.51,0,0,1,106.23,19.47Zm1.4,0a2.52,2.52,0,0,0,.53,1.73,1.73,1.73,0,0,0,1.34.59,1.71,1.71,0,0,0,1.33-.59,2.54,2.54,0,0,0,.52-1.75,2.54,2.54,0,0,0-.51-1.73,1.69,1.69,0,0,0-1.34-.57,1.77,1.77,0,0,0-1.36.58A2.55,2.55,0,0,0,107.63,19.43Z"/><path class="i" d="M115.85,22.8V17.21h-2V16.07h5.35v1.14h-2V22.8Z"/><path class="i" d="M126.14,22.8h-1.47l-.59-1.53h-2.69l-.56,1.53h-1.44L122,16.07h1.44Zm-2.5-2.67-.92-2.49-.91,2.49Z"/><path class="i" d="M130.59,16.07h2.48a4.64,4.64,0,0,1,1.28.13,2.16,2.16,0,0,1,1,.62,2.94,2.94,0,0,1,.64,1.09,4.88,4.88,0,0,1,.22,1.59,4.35,4.35,0,0,1-.21,1.43,2.84,2.84,0,0,1-.72,1.19,2.23,2.23,0,0,1-1,.53,3.9,3.9,0,0,1-1.2.15h-2.56ZM132,17.21v4.45h1a3.88,3.88,0,0,0,.82-.06,1.25,1.25,0,0,0,.55-.28,1.37,1.37,0,0,0,.36-.65,4.42,4.42,0,0,0,.14-1.23,4.09,4.09,0,0,0-.14-1.2,1.43,1.43,0,0,0-.39-.65,1.19,1.19,0,0,0-.63-.32,6.55,6.55,0,0,0-1.11-.06Z"/><path class="i" d="M137.82,22.8V21.51h1.29V22.8Z"/><path class="i" d="M145.18,20.32l1.32.42a3,3,0,0,1-1,1.64,3.19,3.19,0,0,1-4-.38,3.56,3.56,0,0,1-.86-2.51,3.67,3.67,0,0,1,.87-2.61,3,3,0,0,1,2.28-.93,2.81,2.81,0,0,1,2,.73,2.6,2.6,0,0,1,.69,1.24l-1.34.32a1.42,1.42,0,0,0-.5-.82,1.38,1.38,0,0,0-.92-.31,1.52,1.52,0,0,0-1.21.54,2.64,2.64,0,0,0-.47,1.74,2.8,2.8,0,0,0,.46,1.82,1.49,1.49,0,0,0,1.19.54,1.4,1.4,0,0,0,.93-.34A2,2,0,0,0,145.18,20.32Z"/><path class="i" d="M148.16,22.8V21.51h1.29V22.8Z"/><rect class="i" x="65.76" y="27.01" width="84.13" height="0.92"/><path class="i" d="M66,39.25l.89-.08a2.12,2.12,0,0,0,.3.88,1.66,1.66,0,0,0,.72.56,2.82,2.82,0,0,0,1.11.21,2.61,2.61,0,0,0,1-.16,1.39,1.39,0,0,0,.62-.44,1.07,1.07,0,0,0,.2-.62.9.9,0,0,0-.2-.59,1.37,1.37,0,0,0-.64-.42,12.38,12.38,0,0,0-1.28-.35,6.79,6.79,0,0,1-1.39-.45,2,2,0,0,1-.77-.67,1.7,1.7,0,0,1-.25-.89,1.78,1.78,0,0,1,.31-1,1.91,1.91,0,0,1,.9-.72,3.52,3.52,0,0,1,1.32-.24,3.66,3.66,0,0,1,1.41.25,2,2,0,0,1,.94.76,2.1,2.1,0,0,1,.35,1.13l-.91.07a1.49,1.49,0,0,0-.5-1,1.94,1.94,0,0,0-1.25-.35,2,2,0,0,0-1.26.32,1,1,0,0,0-.39.76.81.81,0,0,0,.28.64,3.63,3.63,0,0,0,1.43.51,10.22,10.22,0,0,1,1.59.46,2.2,2.2,0,0,1,.93.73,1.8,1.8,0,0,1,.3,1,2,2,0,0,1-.33,1.09,2.14,2.14,0,0,1-.94.78,3.29,3.29,0,0,1-1.39.29,4.1,4.1,0,0,1-1.63-.29,2.3,2.3,0,0,1-1-.85A2.39,2.39,0,0,1,66,39.25Z"/><path class="i" d="M76.63,39.88l.91.11a2.25,2.25,0,0,1-.8,1.24,2.44,2.44,0,0,1-1.49.44,2.37,2.37,0,0,1-1.81-.7,2.74,2.74,0,0,1-.67-2,2.83,2.83,0,0,1,.68-2,2.44,2.44,0,0,1,3.46,0,2.84,2.84,0,0,1,.66,2c0,.05,0,.13,0,.24H73.68a2,2,0,0,0,.49,1.31,1.45,1.45,0,0,0,1.08.46,1.35,1.35,0,0,0,.83-.26A1.73,1.73,0,0,0,76.63,39.88Zm-2.9-1.43h2.91a1.7,1.7,0,0,0-.34-1A1.34,1.34,0,0,0,75.21,37a1.39,1.39,0,0,0-1,.4A1.61,1.61,0,0,0,73.73,38.45Z"/><path class="i" d="M82.22,39.65l.87.11a2.19,2.19,0,0,1-.73,1.4,2.11,2.11,0,0,1-1.44.51,2.2,2.2,0,0,1-1.71-.7,2.79,2.79,0,0,1-.65-2,3.54,3.54,0,0,1,.28-1.47,1.89,1.89,0,0,1,.85-1,2.52,2.52,0,0,1,1.24-.32,2.16,2.16,0,0,1,1.39.43A2,2,0,0,1,83,37.88l-.86.13a1.47,1.47,0,0,0-.43-.79A1.17,1.17,0,0,0,81,37a1.39,1.39,0,0,0-1.08.47A2.28,2.28,0,0,0,79.46,39a2.32,2.32,0,0,0,.41,1.52,1.28,1.28,0,0,0,1,.48,1.24,1.24,0,0,0,.87-.32A1.58,1.58,0,0,0,82.22,39.65Z"/><path class="i" d="M84.09,41.55v-5.2h.79v.79a2.16,2.16,0,0,1,.56-.73,1,1,0,0,1,.57-.18,1.68,1.68,0,0,1,.9.29l-.3.81a1.35,1.35,0,0,0-.65-.19.84.84,0,0,0-.52.18.87.87,0,0,0-.32.48,3.37,3.37,0,0,0-.15,1v2.72Z"/><path class="i" d="M91.15,39.88l.91.11a2.2,2.2,0,0,1-.8,1.24A2.71,2.71,0,0,1,88,41a2.78,2.78,0,0,1-.67-2A2.87,2.87,0,0,1,88,37a2.28,2.28,0,0,1,1.76-.73,2.23,2.23,0,0,1,1.7.71,2.84,2.84,0,0,1,.66,2v.24H88.21a2,2,0,0,0,.48,1.31,1.47,1.47,0,0,0,1.09.46,1.37,1.37,0,0,0,.83-.26A1.65,1.65,0,0,0,91.15,39.88Zm-2.89-1.43h2.9a1.77,1.77,0,0,0-.33-1A1.36,1.36,0,0,0,89.74,37a1.42,1.42,0,0,0-1,.4A1.6,1.6,0,0,0,88.26,38.45Z"/><path class="i" d="M95.16,40.76l.12.78a2.75,2.75,0,0,1-.66.08,1.56,1.56,0,0,1-.75-.15.84.84,0,0,1-.37-.4,3.16,3.16,0,0,1-.11-1V37h-.64v-.69h.64V35.06l.88-.53v1.82h.89V37h-.89v3a1.49,1.49,0,0,0,0,.48.38.38,0,0,0,.15.18.61.61,0,0,0,.3.06A2.13,2.13,0,0,0,95.16,40.76Z"/><path class="i" d="M99.68,40.91a3.12,3.12,0,0,1-1,.59,2.78,2.78,0,0,1-1,.17,1.9,1.9,0,0,1-1.32-.42,1.47,1.47,0,0,1-.28-1.77,1.28,1.28,0,0,1,.45-.5,2,2,0,0,1,.64-.29,6.4,6.4,0,0,1,.78-.14,7.49,7.49,0,0,0,1.57-.3c0-.12,0-.2,0-.23a1,1,0,0,0-.25-.76,1.49,1.49,0,0,0-1-.3,1.54,1.54,0,0,0-.92.22A1.35,1.35,0,0,0,97,38l-.87-.12a2.15,2.15,0,0,1,.39-.89,1.65,1.65,0,0,1,.78-.52,3.28,3.28,0,0,1,1.18-.19,2.93,2.93,0,0,1,1.08.16,1.2,1.2,0,0,1,.89,1,4.74,4.74,0,0,1,0,.82v1.17a15.15,15.15,0,0,0,0,1.56,1.79,1.79,0,0,0,.23.62h-.93A1.72,1.72,0,0,1,99.68,40.91Zm-.08-2a6.45,6.45,0,0,1-1.44.33,4.21,4.21,0,0,0-.77.18.75.75,0,0,0-.34.29.68.68,0,0,0-.13.42.76.76,0,0,0,.27.59A1.19,1.19,0,0,0,98,41a1.83,1.83,0,0,0,.91-.22,1.37,1.37,0,0,0,.58-.61,2.09,2.09,0,0,0,.14-.89Z"/><path class="i" d="M102,41.55v-5.2h.8v.79a2.16,2.16,0,0,1,.56-.73,1,1,0,0,1,.57-.18,1.71,1.71,0,0,1,.9.29l-.3.81a1.35,1.35,0,0,0-.65-.19.84.84,0,0,0-.52.18.94.94,0,0,0-.33.48,3.72,3.72,0,0,0-.14,1v2.72Z"/><path class="i" d="M105.64,35.38v-1h.88v1Zm0,6.17v-5.2h.88v5.2Z"/><path class="i" d="M111.41,40.91a3.09,3.09,0,0,1-.94.59,2.78,2.78,0,0,1-1,.17,1.9,1.9,0,0,1-1.32-.42,1.36,1.36,0,0,1-.46-1.07,1.51,1.51,0,0,1,.17-.7,1.39,1.39,0,0,1,.46-.5,2,2,0,0,1,.63-.29,7.06,7.06,0,0,1,.79-.14,7.64,7.64,0,0,0,1.57-.3c0-.12,0-.2,0-.23a1,1,0,0,0-.25-.76,1.49,1.49,0,0,0-1-.3,1.54,1.54,0,0,0-.92.22,1.36,1.36,0,0,0-.44.77l-.86-.12a2.15,2.15,0,0,1,.39-.89,1.65,1.65,0,0,1,.78-.52,3.28,3.28,0,0,1,1.18-.19,3,3,0,0,1,1.08.16,1.34,1.34,0,0,1,.61.39,1.29,1.29,0,0,1,.28.6,5.07,5.07,0,0,1,0,.82v1.17a11.84,11.84,0,0,0,.06,1.56,2,2,0,0,0,.22.62h-.92A1.93,1.93,0,0,1,111.41,40.91Zm-.07-2a6.45,6.45,0,0,1-1.44.33,4.21,4.21,0,0,0-.77.18.77.77,0,0,0-.35.29.74.74,0,0,0-.12.42.76.76,0,0,0,.27.59,1.19,1.19,0,0,0,.78.23,1.83,1.83,0,0,0,.91-.22,1.42,1.42,0,0,0,.58-.61,2.26,2.26,0,0,0,.14-.89Z"/><path class="i" d="M116.77,41.55V34.37h2.48a6,6,0,0,1,1.28.1,2.47,2.47,0,0,1,1,.52,3,3,0,0,1,.85,1.22,4.79,4.79,0,0,1,.28,1.71,4.9,4.9,0,0,1-.19,1.45,3.66,3.66,0,0,1-.49,1.05,2.4,2.4,0,0,1-1.51,1,5,5,0,0,1-1.15.12Zm1-.84h1.54a3.61,3.61,0,0,0,1.11-.14,1.52,1.52,0,0,0,.65-.37,2.23,2.23,0,0,0,.52-.91,4.3,4.3,0,0,0,.19-1.38,3.36,3.36,0,0,0-.37-1.74,1.83,1.83,0,0,0-.9-.81,4,4,0,0,0-1.23-.14h-1.51Z"/><path class="i" d="M124.13,35.38v-1H125v1Zm0,6.17v-5.2H125v5.2Z"/><path class="i" d="M126.17,40l.87-.14a1.22,1.22,0,0,0,.41.81,1.44,1.44,0,0,0,.94.28,1.42,1.42,0,0,0,.9-.25.76.76,0,0,0,.29-.58.52.52,0,0,0-.26-.47,3.66,3.66,0,0,0-.9-.3,8.47,8.47,0,0,1-1.34-.43,1.29,1.29,0,0,1-.77-1.19,1.38,1.38,0,0,1,.16-.64,1.41,1.41,0,0,1,.44-.5,1.73,1.73,0,0,1,.56-.25,2.63,2.63,0,0,1,.76-.11,3,3,0,0,1,1.08.18,1.47,1.47,0,0,1,.68.48,1.76,1.76,0,0,1,.3.8l-.86.12a.94.94,0,0,0-.34-.63,1.25,1.25,0,0,0-.8-.22,1.38,1.38,0,0,0-.86.2.56.56,0,0,0-.26.47.5.5,0,0,0,.1.31.88.88,0,0,0,.34.23c.09,0,.35.11.78.23a9.15,9.15,0,0,1,1.31.41,1.33,1.33,0,0,1,.58.46,1.28,1.28,0,0,1,.21.75,1.51,1.51,0,0,1-.26.84,1.65,1.65,0,0,1-.74.6,2.73,2.73,0,0,1-1.1.21,2.44,2.44,0,0,1-1.54-.42A2,2,0,0,1,126.17,40Z"/><path class="i" d="M133.57,40.76l.13.78a2.81,2.81,0,0,1-.66.08,1.56,1.56,0,0,1-.75-.15.79.79,0,0,1-.37-.4,3.16,3.16,0,0,1-.11-1V37h-.65v-.69h.65V35.06l.88-.53v1.82h.88V37h-.88v3a1.6,1.6,0,0,0,0,.48.46.46,0,0,0,.16.18.61.61,0,0,0,.3.06A2,2,0,0,0,133.57,40.76Z"/><path class="i" d="M134.64,41.55v-5.2h.79v.79a2.29,2.29,0,0,1,.56-.73,1,1,0,0,1,.57-.18,1.74,1.74,0,0,1,.91.29l-.31.81a1.31,1.31,0,0,0-.64-.19.8.8,0,0,0-.52.18.84.84,0,0,0-.33.48,3.37,3.37,0,0,0-.15,1v2.72Z"/><path class="i" d="M138.29,35.38v-1h.88v1Zm0,6.17v-5.2h.88v5.2Z"/><path class="i" d="M142.58,40.76l.13.78a2.83,2.83,0,0,1-.67.08,1.56,1.56,0,0,1-.75-.15.84.84,0,0,1-.37-.4,3.16,3.16,0,0,1-.11-1V37h-.64v-.69h.64V35.06l.88-.53v1.82h.89V37h-.89v3a1.49,1.49,0,0,0,.05.48.38.38,0,0,0,.15.18.61.61,0,0,0,.3.06A2.13,2.13,0,0,0,142.58,40.76Z"/><path class="i" d="M147.1,40.91a3.12,3.12,0,0,1-.95.59,2.78,2.78,0,0,1-1,.17,1.9,1.9,0,0,1-1.32-.42,1.47,1.47,0,0,1-.28-1.77A1.36,1.36,0,0,1,144,39a2,2,0,0,1,.64-.29,6.4,6.4,0,0,1,.78-.14,7.49,7.49,0,0,0,1.57-.3c0-.12,0-.2,0-.23a1,1,0,0,0-.25-.76,1.91,1.91,0,0,0-1.92-.08,1.3,1.3,0,0,0-.44.77l-.86-.12a2,2,0,0,1,.38-.89,1.65,1.65,0,0,1,.78-.52,3.28,3.28,0,0,1,1.18-.19,3,3,0,0,1,1.09.16,1.4,1.4,0,0,1,.61.39,1.38,1.38,0,0,1,.27.6,4.74,4.74,0,0,1,0,.82v1.17a15.15,15.15,0,0,0,.05,1.56,2,2,0,0,0,.23.62h-.93A1.72,1.72,0,0,1,147.1,40.91Zm-.08-2a6.45,6.45,0,0,1-1.44.33,4.43,4.43,0,0,0-.77.18.8.8,0,0,0-.47.71.76.76,0,0,0,.27.59,1.19,1.19,0,0,0,.78.23,1.83,1.83,0,0,0,.91-.22,1.37,1.37,0,0,0,.58-.61,2.09,2.09,0,0,0,.14-.89Z"/><path class="i" d="M149.4,41.55V34.37h.89v7.18Z"/><path class="i" d="M69.13,51.57v-.64a1.57,1.57,0,0,1-1.42.76,2,2,0,0,1-1.13-.34,2.22,2.22,0,0,1-.79-.94A3.18,3.18,0,0,1,65.51,49a3.62,3.62,0,0,1,.25-1.39,2,2,0,0,1,1.91-1.29,1.72,1.72,0,0,1,.82.2,1.81,1.81,0,0,1,.59.5V44.53h.86v7ZM66.4,49a2.23,2.23,0,0,0,.41,1.46,1.24,1.24,0,0,0,1,.49,1.21,1.21,0,0,0,1-.47,2.1,2.1,0,0,0,.4-1.41,2.4,2.4,0,0,0-.41-1.54,1.23,1.23,0,0,0-1-.49,1.18,1.18,0,0,0-1,.47A2.31,2.31,0,0,0,66.4,49Z"/><path class="i" d="M74.51,49.93l.89.11a2.2,2.2,0,0,1-.78,1.22,2.41,2.41,0,0,1-1.46.43A2.34,2.34,0,0,1,71.38,51a2.7,2.7,0,0,1-.66-1.94,2.81,2.81,0,0,1,.67-2,2.25,2.25,0,0,1,1.72-.71,2.2,2.2,0,0,1,1.67.7,2.78,2.78,0,0,1,.65,2v.23H71.62a2,2,0,0,0,.47,1.29,1.42,1.42,0,0,0,1.07.45,1.35,1.35,0,0,0,.81-.25A1.62,1.62,0,0,0,74.51,49.93Zm-2.84-1.4h2.85a1.76,1.76,0,0,0-.33-1,1.34,1.34,0,0,0-1.07-.5,1.43,1.43,0,0,0-1,.4A1.56,1.56,0,0,0,71.67,48.53Z"/><path class="i" d="M78.87,51.57v-7h.93v7Z"/><path class="i" d="M81.05,51.57v-5.1h.78v.72a1.85,1.85,0,0,1,1.63-.84,2.1,2.1,0,0,1,.84.17,1.26,1.26,0,0,1,.58.43,1.67,1.67,0,0,1,.27.64,5.11,5.11,0,0,1,0,.84v3.14h-.86v-3.1a2.21,2.21,0,0,0-.11-.79.76.76,0,0,0-.35-.42,1.13,1.13,0,0,0-.61-.16,1.41,1.41,0,0,0-1,.35,1.74,1.74,0,0,0-.4,1.34v2.78Z"/><path class="i" d="M88,50.8l.13.76a2.75,2.75,0,0,1-.66.08,1.5,1.5,0,0,1-.73-.15.84.84,0,0,1-.36-.39,3.05,3.05,0,0,1-.11-1V47.14h-.63v-.67h.63V45.2l.86-.52v1.79H88v.67h-.87v3a1.46,1.46,0,0,0,0,.47.35.35,0,0,0,.15.17.57.57,0,0,0,.29.06Z"/><path class="i" d="M92,49.93l.89.11a2.2,2.2,0,0,1-.78,1.22,2.41,2.41,0,0,1-1.46.43A2.34,2.34,0,0,1,88.91,51a2.7,2.7,0,0,1-.65-1.94,2.86,2.86,0,0,1,.66-2,2.25,2.25,0,0,1,1.72-.71,2.2,2.2,0,0,1,1.67.7A2.73,2.73,0,0,1,93,49v.23H89.15a1.94,1.94,0,0,0,.48,1.29,1.47,1.47,0,0,0,1.88.2A1.68,1.68,0,0,0,92,49.93Zm-2.84-1.4h2.85a1.76,1.76,0,0,0-.33-1,1.32,1.32,0,0,0-1.07-.5,1.39,1.39,0,0,0-1,.4A1.62,1.62,0,0,0,89.2,48.53Z"/><path class="i" d="M93.62,52l.84.12a.79.79,0,0,0,.29.57,1.46,1.46,0,0,0,.88.24,1.56,1.56,0,0,0,.93-.24A1.2,1.2,0,0,0,97,52a4.81,4.81,0,0,0,.06-1.11,1.79,1.79,0,0,1-1.41.66A1.92,1.92,0,0,1,94,50.81,2.93,2.93,0,0,1,93.44,49a3.32,3.32,0,0,1,.27-1.35,2.07,2.07,0,0,1,.76-1,2,2,0,0,1,1.18-.34,1.84,1.84,0,0,1,1.49.73v-.61h.8v4.41a4.21,4.21,0,0,1-.24,1.69,1.83,1.83,0,0,1-.77.79,2.67,2.67,0,0,1-1.29.29,2.41,2.41,0,0,1-1.48-.42A1.34,1.34,0,0,1,93.62,52Zm.71-3.07a2.26,2.26,0,0,0,.4,1.47,1.32,1.32,0,0,0,2,0A2.15,2.15,0,0,0,97.14,49a2,2,0,0,0-.42-1.41,1.28,1.28,0,0,0-1-.48,1.22,1.22,0,0,0-1,.47A2.06,2.06,0,0,0,94.33,48.93Z"/><path class="i" d="M99,51.57v-5.1h.78v.77a2.16,2.16,0,0,1,.55-.71,1,1,0,0,1,.56-.18,1.75,1.75,0,0,1,.89.28l-.3.8a1.26,1.26,0,0,0-.63-.18.79.79,0,0,0-.51.17,1,1,0,0,0-.33.47,3.62,3.62,0,0,0-.14,1v2.67Z"/><path class="i" d="M105.32,50.94a3,3,0,0,1-.93.58,2.67,2.67,0,0,1-1,.17,1.91,1.91,0,0,1-1.3-.41,1.38,1.38,0,0,1-.45-1.05,1.47,1.47,0,0,1,.17-.69,1.52,1.52,0,0,1,.45-.49,2.2,2.2,0,0,1,.62-.29,7,7,0,0,1,.77-.13,7.39,7.39,0,0,0,1.55-.3v-.22a1,1,0,0,0-.24-.75,1.5,1.5,0,0,0-1-.29,1.53,1.53,0,0,0-.9.21,1.27,1.27,0,0,0-.43.76l-.85-.12a2.18,2.18,0,0,1,.38-.87,1.62,1.62,0,0,1,.77-.52,3.39,3.39,0,0,1,1.15-.18,2.94,2.94,0,0,1,1.07.16,1.44,1.44,0,0,1,.6.38,1.39,1.39,0,0,1,.27.59,4.93,4.93,0,0,1,0,.8v1.15a11.27,11.27,0,0,0,.06,1.53,1.92,1.92,0,0,0,.21.61h-.9A1.72,1.72,0,0,1,105.32,50.94ZM105.25,49a6.37,6.37,0,0,1-1.42.33,3.38,3.38,0,0,0-.75.17.79.79,0,0,0-.34.28.75.75,0,0,0-.12.41.72.72,0,0,0,.26.58,1.13,1.13,0,0,0,.76.23,1.73,1.73,0,0,0,.89-.22,1.35,1.35,0,0,0,.58-.6,2.1,2.1,0,0,0,.14-.86Z"/><path class="i" d="M110.47,49.7l.85.11a2.2,2.2,0,0,1-.71,1.38,2.11,2.11,0,0,1-1.41.5,2.19,2.19,0,0,1-1.69-.69,2.78,2.78,0,0,1-.64-2,3.47,3.47,0,0,1,.28-1.45,1.94,1.94,0,0,1,.83-.93,2.54,2.54,0,0,1,1.22-.31,2.12,2.12,0,0,1,1.36.42,2,2,0,0,1,.68,1.2l-.84.13a1.38,1.38,0,0,0-.43-.78,1.11,1.11,0,0,0-.74-.26,1.35,1.35,0,0,0-1.06.47,2.94,2.94,0,0,0,0,3,1.28,1.28,0,0,0,1,.47,1.25,1.25,0,0,0,.85-.31A1.6,1.6,0,0,0,110.47,49.7Z"/><path class="i" d="M111.88,45.52v-1h.86v1Zm0,6v-5.1h.86v5.1Z"/><path class="i" d="M113.49,49a2.66,2.66,0,0,1,.79-2.1,2.38,2.38,0,0,1,1.61-.57,2.3,2.3,0,0,1,1.72.69,2.66,2.66,0,0,1,.67,1.91,3.33,3.33,0,0,1-.3,1.55,2.09,2.09,0,0,1-.86.88,2.61,2.61,0,0,1-1.23.31,2.3,2.3,0,0,1-1.74-.69A2.75,2.75,0,0,1,113.49,49Zm.89,0a2.17,2.17,0,0,0,.43,1.47,1.42,1.42,0,0,0,2.15,0,2.27,2.27,0,0,0,.43-1.5,2.12,2.12,0,0,0-.43-1.43,1.37,1.37,0,0,0-1.07-.49,1.38,1.38,0,0,0-1.08.48A2.17,2.17,0,0,0,114.38,49Zm1-3.19.64-1.34h1.13l-1.06,1.34Z"/><path class="i" d="M119,51.57v-5.1h.78v.72a1.85,1.85,0,0,1,1.63-.84,2.15,2.15,0,0,1,.85.17,1.38,1.38,0,0,1,.58.43,2.06,2.06,0,0,1,.27.64,5.45,5.45,0,0,1,0,.84v3.14h-.86v-3.1a2.52,2.52,0,0,0-.1-.79.82.82,0,0,0-.36-.42,1.08,1.08,0,0,0-.6-.16,1.44,1.44,0,0,0-1,.35,1.74,1.74,0,0,0-.4,1.34v2.78Z"/><path class="i" d="M126.42,49.31l.88-.08a1.94,1.94,0,0,0,.29.87,1.56,1.56,0,0,0,.71.55,2.86,2.86,0,0,0,2,.05,1.31,1.31,0,0,0,.61-.44,1,1,0,0,0,.2-.6.92.92,0,0,0-.19-.58,1.45,1.45,0,0,0-.64-.41,11.1,11.1,0,0,0-1.25-.35,6,6,0,0,1-1.36-.44,1.84,1.84,0,0,1-.76-.66,1.63,1.63,0,0,1-.24-.87,1.8,1.8,0,0,1,.3-1,1.86,1.86,0,0,1,.89-.7,3.3,3.3,0,0,1,1.29-.24,3.5,3.5,0,0,1,1.38.25,2,2,0,0,1,.92.74,2.14,2.14,0,0,1,.35,1.11l-.9.07a1.44,1.44,0,0,0-.49-1,1.85,1.85,0,0,0-1.22-.34,2,2,0,0,0-1.24.31.93.93,0,0,0-.38.75.8.8,0,0,0,.27.62,3.78,3.78,0,0,0,1.41.5,9.45,9.45,0,0,1,1.56.45,2.18,2.18,0,0,1,.91.72,1.8,1.8,0,0,1,.29,1,1.94,1.94,0,0,1-.32,1.06,2.24,2.24,0,0,1-.93.78,3.27,3.27,0,0,1-1.36.27,4.18,4.18,0,0,1-1.6-.27,2.26,2.26,0,0,1-1-.84A2.35,2.35,0,0,1,126.42,49.31Z"/><path class="i" d="M132.63,49a2.66,2.66,0,0,1,.79-2.1,2.38,2.38,0,0,1,1.61-.57,2.3,2.3,0,0,1,1.72.69,2.66,2.66,0,0,1,.67,1.91,3.33,3.33,0,0,1-.3,1.55,2.09,2.09,0,0,1-.86.88,2.61,2.61,0,0,1-1.23.31,2.3,2.3,0,0,1-1.74-.69A2.75,2.75,0,0,1,132.63,49Zm.89,0a2.17,2.17,0,0,0,.43,1.47,1.42,1.42,0,0,0,2.15,0,2.27,2.27,0,0,0,.43-1.5,2.12,2.12,0,0,0-.43-1.43,1.37,1.37,0,0,0-1.07-.49,1.38,1.38,0,0,0-1.08.48A2.17,2.17,0,0,0,133.52,49Z"/><path class="i" d="M141.53,49.7l.85.11a2.21,2.21,0,0,1-.72,1.38,2.08,2.08,0,0,1-1.41.5,2.16,2.16,0,0,1-1.68-.69,2.74,2.74,0,0,1-.64-2,3.64,3.64,0,0,1,.27-1.45,2,2,0,0,1,.84-.93,2.54,2.54,0,0,1,1.22-.31,2.12,2.12,0,0,1,1.36.42,2,2,0,0,1,.68,1.2l-.85.13a1.43,1.43,0,0,0-.42-.78,1.11,1.11,0,0,0-.74-.26,1.35,1.35,0,0,0-1.06.47,2.25,2.25,0,0,0-.41,1.49,2.31,2.31,0,0,0,.39,1.49,1.31,1.31,0,0,0,1,.47,1.23,1.23,0,0,0,.85-.31A1.55,1.55,0,0,0,141.53,49.7Z"/><path class="i" d="M142.94,45.52v-1h.86v1Zm0,6v-5.1h.86v5.1Z"/><path class="i" d="M148.16,50.94a3.09,3.09,0,0,1-.92.58,2.77,2.77,0,0,1-1,.17,1.87,1.87,0,0,1-1.29-.41,1.38,1.38,0,0,1-.45-1.05,1.47,1.47,0,0,1,.17-.69,1.33,1.33,0,0,1,.45-.49,2.08,2.08,0,0,1,.62-.29,7,7,0,0,1,.77-.13,7.27,7.27,0,0,0,1.54-.3c0-.12,0-.19,0-.22a1,1,0,0,0-.25-.75,1.47,1.47,0,0,0-1-.29,1.59,1.59,0,0,0-.91.21,1.38,1.38,0,0,0-.43.76l-.84-.12a2.05,2.05,0,0,1,.38-.87,1.59,1.59,0,0,1,.76-.52,3.45,3.45,0,0,1,1.16-.18,2.85,2.85,0,0,1,1.06.16,1.32,1.32,0,0,1,.6.38,1.39,1.39,0,0,1,.27.59,4.63,4.63,0,0,1,.05.8v1.15A12,12,0,0,0,149,51a1.94,1.94,0,0,0,.22.61h-.9A1.94,1.94,0,0,1,148.16,50.94ZM148.09,49a6.12,6.12,0,0,1-1.41.33,3.51,3.51,0,0,0-.76.17.86.86,0,0,0-.34.28.77.77,0,0,0,.14,1,1.16,1.16,0,0,0,.77.23,1.75,1.75,0,0,0,.89-.22,1.27,1.27,0,0,0,.57-.6,1.94,1.94,0,0,0,.14-.86Z"/><path class="i" d="M150,51.57v-7h.87v7Z"/></g></g></svg>