<svg xmlns="http://www.w3.org/2000/svg" xmlns:xlink="http://www.w3.org/1999/xlink" viewBox="0 0 151.29 113.51"><defs><style>.a{fill:none;}.b{fill:#7e8083;}.c{opacity:0.8;}.d{clip-path:url(#a);}.e{fill:#555658;}.e,.f,.g,.h{fill-rule:evenodd;}.f{fill:#cbcdcf;}.g{fill:#6d6e71;}.h,.i{fill:#231f20;}</style><clipPath id="a"><rect class="a" width="151.29" height="68.63"/></clipPath></defs><path class="b" d="M23.67,86.48a5.94,5.94,0,0,1-1.35-.15,5.39,5.39,0,0,1-1.25-.46l.23-1.11h.07a2.93,2.93,0,0,0,1.15.68,3.91,3.91,0,0,0,1.31.24,2.68,2.68,0,0,0,1.6-.41A1.27,1.27,0,0,0,26,84.21a.79.79,0,0,0-.2-.56,1.14,1.14,0,0,0-.57-.33c-.22-.06-.47-.11-.76-.17L23.62,83a2.35,2.35,0,0,1-1.19-.59,1.38,1.38,0,0,1-.42-1,2.14,2.14,0,0,1,.88-1.73,3.6,3.6,0,0,1,2.28-.69,5.47,5.47,0,0,1,1.39.16,6.63,6.63,0,0,1,1.07.37l-.22,1h-.07a2.86,2.86,0,0,0-1-.54A3.83,3.83,0,0,0,25,79.74a2.36,2.36,0,0,0-1.42.39,1.19,1.19,0,0,0-.53,1,1,1,0,0,0,.19.57,1.25,1.25,0,0,0,.68.36l.83.18c.35.07.64.14.87.2a2.14,2.14,0,0,1,1.05.56,1.34,1.34,0,0,1,.36,1,2.18,2.18,0,0,1-.23,1,2.36,2.36,0,0,1-.66.81,3.32,3.32,0,0,1-1.05.57A4.29,4.29,0,0,1,23.67,86.48Z"/><path class="b" d="M30.5,86.47a2.73,2.73,0,0,1-1.77-.53,1.92,1.92,0,0,1-.65-1.56,3.75,3.75,0,0,1,1-2.57,3,3,0,0,1,2.34-1.07,2,2,0,0,1,1.42.46,1.69,1.69,0,0,1,.49,1.3,3.51,3.51,0,0,1,0,.46c0,.21-.07.46-.13.74h-4a2.36,2.36,0,0,0,0,.28,2.29,2.29,0,0,0,0,.25,1.4,1.4,0,0,0,.42,1.08,1.72,1.72,0,0,0,1.2.39,3.19,3.19,0,0,0,1.1-.21,4.29,4.29,0,0,0,1-.47h0l-.2,1-.44.16a3.91,3.91,0,0,1-.5.15,5.06,5.06,0,0,1-.53.11A3.27,3.27,0,0,1,30.5,86.47ZM32.34,83q0-.13,0-.24a1.34,1.34,0,0,0,0-.21,1.14,1.14,0,0,0-.29-.82,1.24,1.24,0,0,0-.91-.29,1.9,1.9,0,0,0-1.23.43A2.13,2.13,0,0,0,29.22,83Z"/><path class="b" d="M36.24,86.47a3.12,3.12,0,0,1-.91-.13,1.9,1.9,0,0,1-.7-.38,1.63,1.63,0,0,1-.44-.64,2.29,2.29,0,0,1-.16-.9A4.17,4.17,0,0,1,34.27,83,3.6,3.6,0,0,1,35,81.82a3,3,0,0,1,1-.77,3.17,3.17,0,0,1,1.35-.29,3.38,3.38,0,0,1,.9.13,3.92,3.92,0,0,1,.74.32l-.2,1h0a3.11,3.11,0,0,0-.25-.2,1.42,1.42,0,0,0-.34-.22,3,3,0,0,0-.45-.18,1.88,1.88,0,0,0-.55-.07,1.85,1.85,0,0,0-1.55.8,3.13,3.13,0,0,0-.6,1.94,1.46,1.46,0,0,0,.36,1.06,1.3,1.3,0,0,0,1,.37,2.21,2.21,0,0,0,.62-.09,3.4,3.4,0,0,0,.52-.19,4.73,4.73,0,0,0,.45-.23l.29-.19h.06l-.2,1a9.41,9.41,0,0,1-.9.33A3.43,3.43,0,0,1,36.24,86.47Z"/><path class="b" d="M43.49,81.86h-.05a1.75,1.75,0,0,0-.36-.07,2.37,2.37,0,0,0-.41,0,2.19,2.19,0,0,0-.91.21,6.2,6.2,0,0,0-.86.5L40,86.34h-.93l1.24-5.45h.93l-.18.81a4.86,4.86,0,0,1,1.1-.63,2.33,2.33,0,0,1,.86-.18h.35l.31,0Z"/><path class="b" d="M45.94,86.47a2.74,2.74,0,0,1-1.78-.53,1.92,1.92,0,0,1-.64-1.56,3.74,3.74,0,0,1,.94-2.57,3,3,0,0,1,2.35-1.07,2,2,0,0,1,1.41.46,1.69,1.69,0,0,1,.5,1.3c0,.09,0,.25,0,.46s-.08.46-.14.74h-4a2.36,2.36,0,0,0,0,.28,2.18,2.18,0,0,0,0,.25,1.4,1.4,0,0,0,.42,1.08,1.69,1.69,0,0,0,1.19.39,3.2,3.2,0,0,0,1.11-.21,4.2,4.2,0,0,0,1-.47h.06L48,86l-.43.16a4.48,4.48,0,0,1-.5.15,4.71,4.71,0,0,1-.54.11A3.15,3.15,0,0,1,45.94,86.47ZM47.77,83a1.12,1.12,0,0,0,0-.24,1.34,1.34,0,0,0,0-.21,1.13,1.13,0,0,0-.28-.82,1.27,1.27,0,0,0-.92-.29,1.9,1.9,0,0,0-1.23.43A2.13,2.13,0,0,0,44.65,83Z"/><path class="b" d="M53.4,80.89l-.16.74h-1.9l-.58,2.52c0,.13-.06.27-.09.44a3.67,3.67,0,0,0,0,.39.69.69,0,0,0,.18.53,1,1,0,0,0,.67.17,2.4,2.4,0,0,0,.48-.06,3.13,3.13,0,0,0,.37-.11h.05l-.17.79-.58.11a3.84,3.84,0,0,1-.55,0,1.7,1.7,0,0,1-1-.29,1.15,1.15,0,0,1-.37-.94,1.63,1.63,0,0,1,0-.31,2.86,2.86,0,0,1,.06-.35l.68-2.93h-.62l.16-.74h.63L51,79.32h.92l-.36,1.57Z"/><path class="b" d="M56.72,85.76l-.36.23a5.06,5.06,0,0,1-.46.24,3.07,3.07,0,0,1-.56.19,3,3,0,0,1-.71.08,1.49,1.49,0,0,1-1.05-.38,1.3,1.3,0,0,1-.41-1,2,2,0,0,1,.29-1.1,2.09,2.09,0,0,1,.84-.73,4.64,4.64,0,0,1,1.33-.4,12.88,12.88,0,0,1,1.78-.15c0-.1,0-.17.05-.24a1.49,1.49,0,0,0,0-.21.71.71,0,0,0-.09-.38.61.61,0,0,0-.27-.23,1.12,1.12,0,0,0-.39-.12,3.24,3.24,0,0,0-1.45.1,8.9,8.9,0,0,0-.87.26h0l.18-.91c.19,0,.46-.11.82-.17a6.24,6.24,0,0,1,1-.09,2.82,2.82,0,0,1,1.52.32,1.08,1.08,0,0,1,.51,1c0,.09,0,.18,0,.28s0,.19,0,.28l-.86,3.7h-.91Zm.53-2.29c-.5,0-1,.06-1.34.11a3.9,3.9,0,0,0-1,.25,1.28,1.28,0,0,0-.6.44,1.08,1.08,0,0,0-.21.68.63.63,0,0,0,.24.54,1.24,1.24,0,0,0,.74.18,2.32,2.32,0,0,0,.91-.19,5.13,5.13,0,0,0,.86-.48Z"/><path class="b" d="M63.66,81.86h0a1.63,1.63,0,0,0-.36-.07,2.37,2.37,0,0,0-.41,0,2.11,2.11,0,0,0-.9.21,5.77,5.77,0,0,0-.87.5l-.88,3.87h-.93l1.24-5.45h.93l-.18.81a4.86,4.86,0,0,1,1.1-.63,2.33,2.33,0,0,1,.86-.18h.35l.31,0Z"/><path class="b" d="M65.71,80.89l-1.26,5.45h-.91l1.26-5.45Zm.5-1.87L66,80H65l.22-1Z"/><path class="b" d="M69.73,85.76l-.36.23a4,4,0,0,1-.46.24,2.73,2.73,0,0,1-.55.19,3.08,3.08,0,0,1-.71.08,1.51,1.51,0,0,1-1.06-.38,1.3,1.3,0,0,1-.4-1,2,2,0,0,1,.28-1.1,2.12,2.12,0,0,1,.85-.73,4.64,4.64,0,0,1,1.33-.4,12.88,12.88,0,0,1,1.78-.15c0-.1,0-.17,0-.24a1.49,1.49,0,0,0,0-.21.63.63,0,0,0-.1-.38.58.58,0,0,0-.26-.23,1.17,1.17,0,0,0-.4-.12,3.75,3.75,0,0,0-.5,0,4,4,0,0,0-.95.14c-.35.09-.64.18-.86.26h-.05l.18-.91c.19,0,.46-.11.82-.17a6.15,6.15,0,0,1,1-.09,2.84,2.84,0,0,1,1.52.32,1.08,1.08,0,0,1,.51,1c0,.09,0,.18,0,.28l-.06.28-.85,3.7H69.6Zm.54-2.29c-.51,0-1,.06-1.34.11a3.9,3.9,0,0,0-1,.25,1.36,1.36,0,0,0-.61.44,1.14,1.14,0,0,0-.2.68.63.63,0,0,0,.24.54,1.24,1.24,0,0,0,.74.18,2.32,2.32,0,0,0,.91-.19,5.56,5.56,0,0,0,.86-.48Z"/><path class="b" d="M82.94,81.86a4.54,4.54,0,0,1-.61,2.26,4.13,4.13,0,0,1-1.65,1.64,4.45,4.45,0,0,1-1.32.47,10,10,0,0,1-1.53.11h-2l1.67-7.27h1.69a9.2,9.2,0,0,1,1.45.11,3.16,3.16,0,0,1,1.19.47,2.31,2.31,0,0,1,.79.91A2.83,2.83,0,0,1,82.94,81.86Zm-1,.08a2.19,2.19,0,0,0-.2-1,1.74,1.74,0,0,0-.6-.67,2.51,2.51,0,0,0-.85-.35,6,6,0,0,0-1.14-.09h-.8L77,85.55h1a5.89,5.89,0,0,0,1.25-.12,3.28,3.28,0,0,0,1-.39,3,3,0,0,0,1.2-1.3A4.09,4.09,0,0,0,81.92,81.94Z"/><path class="b" d="M85.64,80.89l-1.26,5.45h-.92l1.26-5.45ZM86.13,79l-.22,1h-1l.23-1Z"/><path class="b" d="M87.9,86.48a3.62,3.62,0,0,1-1.09-.16A5.47,5.47,0,0,1,86,86l.21-1h.05l.26.2a2.61,2.61,0,0,0,.42.24,2.44,2.44,0,0,0,.52.19,2.2,2.2,0,0,0,.64.08,2,2,0,0,0,1.08-.25.84.84,0,0,0,.39-.75.48.48,0,0,0-.2-.4,1.9,1.9,0,0,0-.58-.22l-.46-.1-.54-.13a1.68,1.68,0,0,1-.84-.46,1.11,1.11,0,0,1-.27-.75,1.57,1.57,0,0,1,.16-.71,1.9,1.9,0,0,1,.5-.61,2.28,2.28,0,0,1,.79-.43,3.31,3.31,0,0,1,1.08-.16,4,4,0,0,1,1,.12,3,3,0,0,1,.79.3l-.19.94h0L90.49,82a2.39,2.39,0,0,0-.4-.22,2.56,2.56,0,0,0-.49-.16A2.25,2.25,0,0,0,89,81.5a1.79,1.79,0,0,0-1,.26.8.8,0,0,0-.38.7.52.52,0,0,0,.19.41,1.38,1.38,0,0,0,.57.25l.5.11.5.11a1.75,1.75,0,0,1,.85.44,1.05,1.05,0,0,1,.29.75,1.61,1.61,0,0,1-.18.73,1.79,1.79,0,0,1-.51.62,2.79,2.79,0,0,1-.84.44A3.81,3.81,0,0,1,87.9,86.48Z"/><path class="b" d="M95.49,80.89l-.16.74h-1.9l-.58,2.52c0,.13-.06.27-.09.44a3.67,3.67,0,0,0,0,.39.69.69,0,0,0,.18.53,1,1,0,0,0,.67.17,2.4,2.4,0,0,0,.48-.06,3.13,3.13,0,0,0,.37-.11h0l-.17.79-.58.11a3.94,3.94,0,0,1-.55,0,1.7,1.7,0,0,1-1-.29,1.15,1.15,0,0,1-.37-.94,1.63,1.63,0,0,1,0-.31,2.86,2.86,0,0,1,.06-.35l.68-2.93H91.9l.16-.74h.63l.36-1.57H94l-.36,1.57Z"/><path class="b" d="M99.75,81.86h0a1.75,1.75,0,0,0-.36-.07,2.46,2.46,0,0,0-.41,0A2.12,2.12,0,0,0,98,82a6.3,6.3,0,0,0-.87.5l-.88,3.87h-.93l1.25-5.45h.92l-.18.81a4.86,4.86,0,0,1,1.1-.63,2.34,2.34,0,0,1,.87-.18h.35l.31,0Z"/><path class="b" d="M101.8,80.89l-1.26,5.45h-.92l1.26-5.45Zm.5-1.87-.22,1h-1l.22-1Z"/><path class="b" d="M106.45,80.89l-.17.74h-1.89l-.59,2.52c0,.13-.06.27-.09.44a3.67,3.67,0,0,0,0,.39.7.7,0,0,0,.19.53.94.94,0,0,0,.66.17,2.24,2.24,0,0,0,.48-.06,3.13,3.13,0,0,0,.37-.11h0l-.17.79-.58.11a3.84,3.84,0,0,1-.55,0,1.65,1.65,0,0,1-1-.29,1.13,1.13,0,0,1-.37-.94,1.62,1.62,0,0,1,0-.31,2.86,2.86,0,0,1,.06-.35l.68-2.93h-.62l.17-.74h.62l.36-1.57h.92l-.36,1.57Z"/><path class="b" d="M109.76,85.76l-.36.23a5.06,5.06,0,0,1-.46.24,2.83,2.83,0,0,1-.56.19,3,3,0,0,1-.71.08,1.49,1.49,0,0,1-1-.38,1.3,1.3,0,0,1-.41-1,2,2,0,0,1,.29-1.1,2.05,2.05,0,0,1,.85-.73,4.54,4.54,0,0,1,1.33-.4,12.87,12.87,0,0,1,1.77-.15c0-.1,0-.17,0-.24a.75.75,0,0,0,0-.21.71.71,0,0,0-.09-.38.56.56,0,0,0-.27-.23,1.12,1.12,0,0,0-.39-.12,3.24,3.24,0,0,0-1.45.1,8.9,8.9,0,0,0-.87.26h0l.18-.91c.19,0,.46-.11.82-.17a6.24,6.24,0,0,1,1-.09,2.82,2.82,0,0,1,1.52.32,1.08,1.08,0,0,1,.51,1c0,.09,0,.18,0,.28s0,.19,0,.28l-.85,3.7h-.91Zm.53-2.29c-.5,0-1,.06-1.34.11a4,4,0,0,0-1,.25,1.38,1.38,0,0,0-.6.44,1.08,1.08,0,0,0-.21.68.63.63,0,0,0,.24.54,1.24,1.24,0,0,0,.74.18,2.32,2.32,0,0,0,.91-.19,5.13,5.13,0,0,0,.86-.48Z"/><path class="b" d="M115,78.75l-1.76,7.59h-.92l1.76-7.59Z"/><path class="b" d="M124.74,78.75,123,86.34h-.91l.13-.57a5.19,5.19,0,0,1-1,.58,2.21,2.21,0,0,1-.82.15,1.63,1.63,0,0,1-1.23-.49,2,2,0,0,1-.45-1.42A4.32,4.32,0,0,1,119,83.1a4,4,0,0,1,.66-1.23,3.24,3.24,0,0,1,1-.83,2.54,2.54,0,0,1,1.2-.3,3.32,3.32,0,0,1,.8.09,2.63,2.63,0,0,1,.69.28l.54-2.36Zm-1.64,3.12a3,3,0,0,0-.64-.25,2.86,2.86,0,0,0-.67-.08,1.74,1.74,0,0,0-.91.24,2.41,2.41,0,0,0-.68.67,3.3,3.3,0,0,0-.4.93,4.33,4.33,0,0,0-.14,1.05,1.41,1.41,0,0,0,.26.91,1,1,0,0,0,.83.32,1.9,1.9,0,0,0,.84-.21,7.42,7.42,0,0,0,.79-.45Z"/><path class="b" d="M127.37,86.47a2.73,2.73,0,0,1-1.77-.53,1.92,1.92,0,0,1-.65-1.56,3.75,3.75,0,0,1,1-2.57,3,3,0,0,1,2.34-1.07,2,2,0,0,1,1.42.46,1.69,1.69,0,0,1,.49,1.3,3.51,3.51,0,0,1,0,.46c0,.21-.07.46-.13.74h-4a2.36,2.36,0,0,0,0,.28,2.29,2.29,0,0,0,0,.25,1.4,1.4,0,0,0,.42,1.08,1.72,1.72,0,0,0,1.2.39,3.19,3.19,0,0,0,1.1-.21,4.29,4.29,0,0,0,1-.47h0l-.2,1-.44.16a3.91,3.91,0,0,1-.5.15,5.06,5.06,0,0,1-.53.11A3.27,3.27,0,0,1,127.37,86.47ZM129.21,83q0-.13,0-.24a1.34,1.34,0,0,0,0-.21,1.14,1.14,0,0,0-.29-.82,1.24,1.24,0,0,0-.91-.29,1.9,1.9,0,0,0-1.23.43,2.13,2.13,0,0,0-.73,1.13Z"/><path class="b" d="M36.53,97.48a5.94,5.94,0,0,1-1.35-.15,5.39,5.39,0,0,1-1.25-.46l.23-1.11h.07a2.93,2.93,0,0,0,1.15.68,3.93,3.93,0,0,0,1.32.24,2.67,2.67,0,0,0,1.59-.41,1.27,1.27,0,0,0,.55-1.06.83.83,0,0,0-.19-.56,1.22,1.22,0,0,0-.58-.33c-.21-.06-.47-.11-.76-.17L36.48,94a2.35,2.35,0,0,1-1.19-.59,1.38,1.38,0,0,1-.42-1,2.14,2.14,0,0,1,.88-1.73A3.6,3.6,0,0,1,38,89.94a5.47,5.47,0,0,1,1.39.16,6.63,6.63,0,0,1,1.07.37l-.22,1H40.2a2.86,2.86,0,0,0-1-.54,3.83,3.83,0,0,0-1.35-.23,2.36,2.36,0,0,0-1.42.39,1.19,1.19,0,0,0-.53,1,1,1,0,0,0,.19.57,1.25,1.25,0,0,0,.68.36l.83.18c.35.07.64.14.87.2a2.14,2.14,0,0,1,1.05.56,1.34,1.34,0,0,1,.36,1,2,2,0,0,1-.23,1,2.36,2.36,0,0,1-.66.81,3.32,3.32,0,0,1-1,.57A4.29,4.29,0,0,1,36.53,97.48Z"/><path class="b" d="M44.24,96.76l-.35.23a5.21,5.21,0,0,1-.47.24,2.73,2.73,0,0,1-.55.19,3,3,0,0,1-.71.08,1.51,1.51,0,0,1-1.06-.38,1.3,1.3,0,0,1-.4-1A2,2,0,0,1,41,95a2.12,2.12,0,0,1,.85-.73,4.64,4.64,0,0,1,1.33-.4,12.88,12.88,0,0,1,1.78-.15c0-.1,0-.17.05-.24a1.49,1.49,0,0,0,0-.21.71.71,0,0,0-.09-.38.61.61,0,0,0-.27-.23,1.17,1.17,0,0,0-.4-.12,3.62,3.62,0,0,0-.5,0,4,4,0,0,0-1,.14c-.35.09-.64.18-.86.26h0l.18-.91c.19,0,.46-.11.82-.17a6.15,6.15,0,0,1,1-.09,2.84,2.84,0,0,1,1.52.32,1.08,1.08,0,0,1,.51,1c0,.09,0,.18,0,.28l-.06.28L45,97.34h-.91Zm.54-2.29c-.5,0-1,.06-1.34.11a3.9,3.9,0,0,0-1,.25,1.28,1.28,0,0,0-.6.44,1.08,1.08,0,0,0-.21.68.63.63,0,0,0,.24.54,1.24,1.24,0,0,0,.74.18,2.32,2.32,0,0,0,.91-.19,5.56,5.56,0,0,0,.86-.48Z"/><path class="b" d="M49.47,89.75l-1.76,7.59H46.8l1.75-7.59Z"/><path class="b" d="M55.31,91.89l-1.26,5.45h-.91l.13-.6a6.27,6.27,0,0,1-1,.56,2.38,2.38,0,0,1-.95.2,1.57,1.57,0,0,1-1.1-.36,1.32,1.32,0,0,1-.4-1,1.66,1.66,0,0,1,0-.32,2.7,2.7,0,0,1,.06-.36l.81-3.54h.92L51,95c0,.12-.05.27-.08.43a2.13,2.13,0,0,0,0,.39.86.86,0,0,0,.21.63,1,1,0,0,0,.73.21,2,2,0,0,0,.82-.21,4.8,4.8,0,0,0,.86-.49l.94-4.07Z"/><path class="b" d="M62,89.75l-1.76,7.59h-.91l.13-.57a5.51,5.51,0,0,1-1,.58,2.21,2.21,0,0,1-.82.15A1.61,1.61,0,0,1,56.45,97,2,2,0,0,1,56,95.59a4.32,4.32,0,0,1,.25-1.49,4,4,0,0,1,.66-1.23,3.24,3.24,0,0,1,1-.83,2.54,2.54,0,0,1,1.2-.3,3.32,3.32,0,0,1,.8.09,2.78,2.78,0,0,1,.69.28l.54-2.36ZM60.4,92.87a3,3,0,0,0-.64-.25,2.93,2.93,0,0,0-.67-.08,1.74,1.74,0,0,0-.91.24,2.41,2.41,0,0,0-.68.67,3.3,3.3,0,0,0-.4.93A4.33,4.33,0,0,0,57,95.43a1.41,1.41,0,0,0,.26.91,1,1,0,0,0,.83.32,1.93,1.93,0,0,0,.84-.21,7.42,7.42,0,0,0,.79-.45Z"/><path class="b" d="M72.75,92.86a4.43,4.43,0,0,1-.61,2.26,4.13,4.13,0,0,1-1.65,1.64,4.45,4.45,0,0,1-1.32.47,10,10,0,0,1-1.53.11h-2l1.68-7.27h1.69a9.07,9.07,0,0,1,1.44.11,3.21,3.21,0,0,1,1.2.47,2.48,2.48,0,0,1,.79.91A3,3,0,0,1,72.75,92.86Zm-1,.08a2.19,2.19,0,0,0-.2-1,1.74,1.74,0,0,0-.6-.67,2.38,2.38,0,0,0-.84-.35A6,6,0,0,0,69,90.87h-.81l-1.32,5.68h1a5.79,5.79,0,0,0,1.24-.12,3.19,3.19,0,0,0,1-.39,2.86,2.86,0,0,0,1.2-1.3A4.09,4.09,0,0,0,71.73,92.94Z"/><path class="b" d="M75.84,97.47a2.73,2.73,0,0,1-1.77-.53,1.92,1.92,0,0,1-.65-1.56,3.75,3.75,0,0,1,1-2.57,3,3,0,0,1,2.34-1.07,2,2,0,0,1,1.42.46,1.69,1.69,0,0,1,.49,1.3,3.51,3.51,0,0,1,0,.46c0,.21-.07.46-.13.74h-4a2.36,2.36,0,0,0,0,.28,2.18,2.18,0,0,0,0,.25,1.4,1.4,0,0,0,.42,1.08A1.67,1.67,0,0,0,76,96.7a3.15,3.15,0,0,0,1.1-.21,4.29,4.29,0,0,0,1-.47h0l-.2,1-.44.16a3.91,3.91,0,0,1-.5.15,5.06,5.06,0,0,1-.53.11A3.27,3.27,0,0,1,75.84,97.47ZM77.68,94q0-.13,0-.24a1.34,1.34,0,0,0,0-.21,1.1,1.1,0,0,0-.29-.82,1.24,1.24,0,0,0-.91-.29,1.9,1.9,0,0,0-1.23.43A2.13,2.13,0,0,0,74.56,94Z"/><path class="b" d="M87.74,96.76a3.16,3.16,0,0,1-1,.45,5.11,5.11,0,0,1-1.27.13H82.81l1.67-7.27h2.09a8.43,8.43,0,0,1,1.18.06,1.72,1.72,0,0,1,.71.25,1.1,1.1,0,0,1,.41.42,1.33,1.33,0,0,1,.13.57,1.8,1.8,0,0,1-.36,1.11,2.28,2.28,0,0,1-1,.75v0a1.59,1.59,0,0,1,.89.5,1.36,1.36,0,0,1,.31.93,2.33,2.33,0,0,1-.31,1.17A2.51,2.51,0,0,1,87.74,96.76Zm.1-2a.77.77,0,0,0-.42-.76,1.34,1.34,0,0,0-.5-.16c-.21,0-.49,0-.85,0H84.6L84,96.55H85.3a7.22,7.22,0,0,0,1-.07,2.13,2.13,0,0,0,.71-.25,1.6,1.6,0,0,0,.58-.63A1.8,1.8,0,0,0,87.84,94.75ZM88,91.64a.69.69,0,0,0-.07-.34.57.57,0,0,0-.19-.22,1.14,1.14,0,0,0-.52-.17,5.72,5.72,0,0,0-.79,0h-1.1L84.78,93h1.27a3.91,3.91,0,0,0,.73-.06,1.78,1.78,0,0,0,.55-.19,1.17,1.17,0,0,0,.46-.5A1.4,1.4,0,0,0,88,91.64Z"/><path class="b" d="M95,93.82a4.32,4.32,0,0,1-.22,1.4,3.63,3.63,0,0,1-.64,1.18,3.29,3.29,0,0,1-1,.81,2.8,2.8,0,0,1-1.3.29,2,2,0,0,1-1.51-.56,2.07,2.07,0,0,1-.55-1.53A4.66,4.66,0,0,1,90,94a3.88,3.88,0,0,1,.65-1.18,2.94,2.94,0,0,1,1-.79,2.79,2.79,0,0,1,1.29-.3,2.09,2.09,0,0,1,1.5.54A2,2,0,0,1,95,93.82Zm-1.49,2.06a3.08,3.08,0,0,0,.4-.9A4.34,4.34,0,0,0,94,93.89a1.45,1.45,0,0,0-.33-1,1.18,1.18,0,0,0-.92-.36,1.61,1.61,0,0,0-.85.23,2.13,2.13,0,0,0-.65.62,2.8,2.8,0,0,0-.4.91,3.79,3.79,0,0,0-.15,1.07,1.49,1.49,0,0,0,.33,1,1.2,1.2,0,0,0,.93.36,1.67,1.67,0,0,0,.85-.23A2,2,0,0,0,93.46,95.88Z"/><path class="b" d="M101.32,91.89l-1.11,4.85a3.73,3.73,0,0,1-1,2,3,3,0,0,1-2,.64,6.18,6.18,0,0,1-.85-.06,5.59,5.59,0,0,1-.78-.18l.21-.91h0a5,5,0,0,0,.74.24,3.91,3.91,0,0,0,.87.11,2.3,2.3,0,0,0,.79-.12,1.49,1.49,0,0,0,.53-.33,1.62,1.62,0,0,0,.34-.47,3.36,3.36,0,0,0,.2-.61l.11-.48a6,6,0,0,1-.87.5,2.41,2.41,0,0,1-1,.16,1.6,1.6,0,0,1-1.24-.48,2,2,0,0,1-.45-1.37A4,4,0,0,1,96,94a3.76,3.76,0,0,1,.65-1.18,3,3,0,0,1,1-.81,2.59,2.59,0,0,1,1.22-.3,2.76,2.76,0,0,1,.84.11,2.68,2.68,0,0,1,.64.27l.11-.23Zm-1.13,1a3.23,3.23,0,0,0-.65-.25,2.5,2.5,0,0,0-.66-.09,1.77,1.77,0,0,0-.88.22,2,2,0,0,0-.67.6,2.71,2.71,0,0,0-.42.87,3.6,3.6,0,0,0-.15,1,1.39,1.39,0,0,0,.26.89,1.06,1.06,0,0,0,.85.32,2.06,2.06,0,0,0,.82-.18,4.3,4.3,0,0,0,.82-.43Z"/><path class="b" d="M107.24,93.82a4.33,4.33,0,0,1-.23,1.4,3.81,3.81,0,0,1-.63,1.18,3.42,3.42,0,0,1-1,.81,2.83,2.83,0,0,1-1.3.29,2,2,0,0,1-1.52-.56,2.1,2.1,0,0,1-.54-1.53,4.36,4.36,0,0,1,.22-1.4,3.85,3.85,0,0,1,.64-1.18,2.88,2.88,0,0,1,1-.79,2.77,2.77,0,0,1,1.28-.3,2.06,2.06,0,0,1,1.5.54A2,2,0,0,1,107.24,93.82Zm-1.5,2.06a3.09,3.09,0,0,0,.41-.9,4.34,4.34,0,0,0,.13-1.09,1.45,1.45,0,0,0-.32-1,1.2,1.2,0,0,0-.93-.36,1.6,1.6,0,0,0-.84.23,2,2,0,0,0-.65.62,3,3,0,0,0-.41.91,4.18,4.18,0,0,0-.14,1.07,1.49,1.49,0,0,0,.33,1,1.16,1.16,0,0,0,.92.36,1.61,1.61,0,0,0,.85-.23A1.92,1.92,0,0,0,105.74,95.88Z"/><path class="b" d="M112,91.89l-.17.74H110l-.59,2.52c0,.13-.06.27-.09.44a3.67,3.67,0,0,0,0,.39.66.66,0,0,0,.19.53.94.94,0,0,0,.66.17,2.24,2.24,0,0,0,.48-.06,3.13,3.13,0,0,0,.37-.11H111l-.17.79-.58.11a3.84,3.84,0,0,1-.55,0,1.65,1.65,0,0,1-1-.29,1.13,1.13,0,0,1-.37-.94,1.62,1.62,0,0,1,0-.31,2.86,2.86,0,0,1,.06-.35l.68-2.93h-.62l.17-.74h.62l.36-1.57h.92l-.36,1.57Z"/><path class="b" d="M115.35,96.76,115,97a5.06,5.06,0,0,1-.46.24,2.83,2.83,0,0,1-.56.19,3,3,0,0,1-.71.08,1.49,1.49,0,0,1-1.05-.38,1.3,1.3,0,0,1-.41-1,2,2,0,0,1,.29-1.1,2.05,2.05,0,0,1,.85-.73,4.54,4.54,0,0,1,1.33-.4,12.73,12.73,0,0,1,1.77-.15c0-.1,0-.17,0-.24a.75.75,0,0,0,0-.21.71.71,0,0,0-.09-.38.56.56,0,0,0-.27-.23,1.12,1.12,0,0,0-.39-.12,3.24,3.24,0,0,0-1.45.1,8.9,8.9,0,0,0-.87.26H113l.18-.91c.19,0,.46-.11.82-.17a6.24,6.24,0,0,1,1-.09,2.82,2.82,0,0,1,1.52.32,1.08,1.08,0,0,1,.51,1c0,.09,0,.18,0,.28s0,.19,0,.28l-.85,3.7h-.91Zm.53-2.29c-.5,0-.95.06-1.34.11a4,4,0,0,0-1,.25,1.38,1.38,0,0,0-.6.44,1.08,1.08,0,0,0-.21.68.63.63,0,0,0,.24.54,1.24,1.24,0,0,0,.74.18,2.32,2.32,0,0,0,.91-.19,5.13,5.13,0,0,0,.86-.48Zm1.22-5.31L115.37,91h-.76l1.24-1.83Z"/><path class="b" d="M49.19,112.82l-.48.22c-.15.06-.34.14-.57.21a5.15,5.15,0,0,1-.65.16,4.49,4.49,0,0,1-.77.07,4.33,4.33,0,0,1-1.43-.23,2.85,2.85,0,0,1-1.13-.69,3.11,3.11,0,0,1-.73-1.18,5.18,5.18,0,0,1,0-3.27,3.31,3.31,0,0,1,.73-1.2,3.18,3.18,0,0,1,1.12-.72,4,4,0,0,1,1.46-.25,5.2,5.2,0,0,1,1.17.14,6.27,6.27,0,0,1,1.29.5v1.15h-.07a4.16,4.16,0,0,0-1.19-.73,3.33,3.33,0,0,0-1.27-.23,2.64,2.64,0,0,0-1,.18,2.1,2.1,0,0,0-.79.55,2.49,2.49,0,0,0-.52.92,4,4,0,0,0-.19,1.3,3.63,3.63,0,0,0,.21,1.31,2.62,2.62,0,0,0,.53.9,2.27,2.27,0,0,0,.8.54,2.81,2.81,0,0,0,1,.17A3.51,3.51,0,0,0,48,112.4a3.81,3.81,0,0,0,1.15-.72h.06Z"/><path class="b" d="M53.12,113.34H50.25v-.74h1v-5.78h-1v-.75h2.87v.75h-.95v5.78h.95Z"/><path class="b" d="M57.33,113.34H54.46v-.74h.95v-5.78h-.95v-.75h2.87v.75h-.95v5.78h.95Z"/><path class="b" d="M64.45,110.42a4.74,4.74,0,0,1-.17,1.38,2.27,2.27,0,0,1-.57,1,2.17,2.17,0,0,1-.88.54,3.43,3.43,0,0,1-1.17.18,3.53,3.53,0,0,1-1.19-.19,2.23,2.23,0,0,1-.86-.53,2.26,2.26,0,0,1-.56-1,4.72,4.72,0,0,1-.18-1.4v-4.35h1v4.4a4.55,4.55,0,0,0,.08.94,1.8,1.8,0,0,0,.27.62,1.28,1.28,0,0,0,.58.47,2.21,2.21,0,0,0,.89.17,2.36,2.36,0,0,0,.89-.16,1.37,1.37,0,0,0,.58-.48,1.74,1.74,0,0,0,.27-.64,3.75,3.75,0,0,0,.09-.89v-4.43h1Z"/><path class="b" d="M74.13,113.34H70.2v-.74h1.51v-4.87H70.2v-.67a3.77,3.77,0,0,0,.65,0,1.47,1.47,0,0,0,.54-.15,1,1,0,0,0,.35-.31.9.9,0,0,0,.15-.5h.76v6.55h1.48Z"/><path class="b" d="M78.05,109.28H76.88v-1.39h1.17Zm0,4.06H76.88V112h1.17Z"/><path class="b" d="M89,111.32a1.94,1.94,0,0,1-.73,1.56,3.11,3.11,0,0,1-3.73,0,2,2,0,0,1-.7-1.56,1.8,1.8,0,0,1,.35-1.1,2.31,2.31,0,0,1,1-.78v0a2.64,2.64,0,0,1-.87-.68,1.55,1.55,0,0,1-.28-.93,1.7,1.7,0,0,1,.68-1.37,3.07,3.07,0,0,1,3.45,0,1.64,1.64,0,0,1,.65,1.33,1.74,1.74,0,0,1-.31,1,2,2,0,0,1-.9.74v0a2.9,2.9,0,0,1,1,.72A1.67,1.67,0,0,1,89,111.32Zm-1,.09a1.2,1.2,0,0,0-.2-.72,2,2,0,0,0-.77-.54,3.39,3.39,0,0,0-.51-.2l-.72-.26a1.85,1.85,0,0,0-.71.65,1.63,1.63,0,0,0-.27.92,1.44,1.44,0,0,0,.46,1.09,1.58,1.58,0,0,0,1.15.43,1.69,1.69,0,0,0,1.14-.36A1.28,1.28,0,0,0,88,111.41Zm-.15-3.64a1,1,0,0,0-.41-.83,1.59,1.59,0,0,0-1-.31,1.61,1.61,0,0,0-1,.29.92.92,0,0,0-.4.79,1,1,0,0,0,.2.61,1.63,1.63,0,0,0,.6.45c.12.06.29.14.52.23a5.34,5.34,0,0,0,.66.24,2,2,0,0,0,.67-.67A1.72,1.72,0,0,0,87.86,107.77Z"/><path class="b" d="M95.31,109.71a5.35,5.35,0,0,1-.61,2.87,2.15,2.15,0,0,1-1.91.92,2.11,2.11,0,0,1-1.91-.93,5.35,5.35,0,0,1-.6-2.85,5.28,5.28,0,0,1,.61-2.87,2.13,2.13,0,0,1,1.9-.92,2.1,2.1,0,0,1,1.91.94A5.23,5.23,0,0,1,95.31,109.71ZM94,111.92a3.32,3.32,0,0,0,.24-.93,11.57,11.57,0,0,0,.06-1.28,11.9,11.9,0,0,0-.06-1.29,3.15,3.15,0,0,0-.24-.93,1.34,1.34,0,0,0-.47-.57,1.42,1.42,0,0,0-.76-.19,1.47,1.47,0,0,0-.76.19,1.25,1.25,0,0,0-.47.58,3,3,0,0,0-.23.94,12.51,12.51,0,0,0-.06,1.28c0,.5,0,.93,0,1.27a3.54,3.54,0,0,0,.23.92,1.28,1.28,0,0,0,.46.58,1.41,1.41,0,0,0,.78.2,1.36,1.36,0,0,0,.76-.19A1.19,1.19,0,0,0,94,111.92Z"/><path class="b" d="M101.26,113.34H97.32v-.74h1.52v-4.87H97.32v-.67a3.81,3.81,0,0,0,.66,0,1.47,1.47,0,0,0,.54-.15,1,1,0,0,0,.35-.31.9.9,0,0,0,.15-.5h.76v6.55h1.48Z"/><path class="b" d="M107.62,113.34h-3.94v-.74h1.52v-4.87h-1.52v-.67a3.81,3.81,0,0,0,.66,0,1.47,1.47,0,0,0,.53-.15,1,1,0,0,0,.36-.31,1.1,1.1,0,0,0,.15-.5h.75v6.55h1.49Z"/><g class="c"><g class="d"><path class="e" d="M29.34,68.63C20.82,63.2,1.58,65.69,0,54.07V.83C15.31,3.92,13.73,3.62,29.34,0c10.33,3.09,19,5,29.41.83V54.07c-1.36,10-21,10.64-29.41,14.56"/><polygon class="f" points="17.72 54.3 16.74 53.92 15.54 53.54 14.33 52.87 13.2 52.34 12.22 51.43 11.31 50.6 10.71 49.4 10.48 48.42 10.48 46.15 10.48 43.74 10.48 41.48 10.48 39.14 10.48 37.03 10.48 34.62 10.48 32.35 10.48 30.02 10.48 27.83 10.48 25.34 10.48 23.15 10.48 20.81 10.48 18.55 10.48 16.21 10.48 14.03 10.48 11.69 11.62 12.14 12.82 12.44 14.03 12.67 15.46 13.05 16.74 13.12 18.1 13.27 19.38 13.42 20.82 13.42 22.1 13.42 23.45 13.27 24.51 13.05 25.57 12.67 26.39 12.44 27.38 12.14 28.51 11.54 29.86 10.94 31.07 11.54 32.28 12.14 33.26 12.44 34.01 12.67 35.14 13.05 36.12 13.27 37.33 13.42 38.84 13.42 40.2 13.42 41.63 13.27 43.06 13.12 44.5 13.05 45.78 12.67 46.91 12.44 48.04 12.14 49.02 11.69 49.02 48.42 48.94 49.4 48.34 50.45 47.59 51.36 46.61 52.11 45.48 52.87 44.19 53.47 43.06 53.92 41.93 54.3 40.2 54.52 38.69 54.83 37.1 55.13 35.67 55.43 34.24 55.81 32.8 56.41 31.45 57.02 29.86 57.84 28.21 57.02 26.62 56.41 25.27 55.81 23.83 55.43 22.4 55.13 20.82 54.83 19.38 54.52 17.72 54.3"/><path class="g" d="M17,45l-.23.3-.22.15-.38.15-.38.15-.37.08.37.15h.61l.45-.08.3-.22.23-.23.22.38.61-.31-.16-.3.31-.22.37-.23.23-.3.15-.3L19,43.67l-.23.3-.3.3-.46.3-.45.07C13.8,45.93,17,45,17,45"/><polygon class="g" points="41.33 45.32 41.7 45.55 42.01 45.7 42.61 45.78 43.06 45.78 42.53 46.15 42.01 46.23 41.48 46.15 41.18 46.08 40.88 45.93 40.88 45.63 40.65 45.47 40.42 45.85 39.9 45.7 40.12 45.32 39.74 45.17 39.44 45.1 39.07 44.95 38.76 44.72 38.61 44.42 38.61 44.19 38.61 43.89 38.91 44.19 39.22 44.42 39.59 44.57 40.12 44.72 40.58 44.8 41.1 45.02 41.33 45.32"/><polygon class="g" points="21.34 52.87 20.14 52.79 20.14 52.72 20.06 52.26 20.14 51.28 20.14 50.45 19.84 49.4 19.46 48.72 19.16 48.34 18.7 47.51 19.76 46.98 20.06 46.15 20.44 46.83 20.44 47.51 20.82 48.04 21.04 48.64 20.97 49.02 21.19 48.19 21.64 47.51 22.02 46.98 22.63 46.68 23.38 46.53 24.21 46.46 24.13 47.36 23.91 48.11 23.61 48.64 23.15 49.09 22.63 49.4 21.95 49.55 21.42 49.62 21.19 49.55 21.34 49.92 21.57 50.6 21.72 51.43 21.8 52.11 21.8 52.79 21.34 52.87"/><polygon class="h" points="30.92 16.21 27.52 16.21 27.15 15.76 26.7 15.08 26.39 14.56 26.17 14.1 26.62 14.33 27 14.56 27.68 14.78 28.43 14.78 28.81 14.1 28.88 13.57 29.19 13.05 29.34 13.5 29.41 14.1 29.79 14.78 30.39 14.78 31.15 14.56 31.52 14.33 32.2 14.03 31.82 14.48 31.6 14.86 31.3 15.46 30.92 16.21"/><polygon class="h" points="30.32 17.12 25.79 17.04 25.49 17.34 25.19 17.65 25.19 18.93 25.19 19.61 26.02 19.61 27 19.61 27.38 20.14 27.23 23.53 27.15 24.28 26.47 24.81 25.79 25.11 24.96 24.96 24.44 24.73 24.21 24.36 23.98 23.45 23.83 22.32 23.61 21.8 23.23 21.12 22.85 20.66 22.48 20.29 21.87 19.99 21.27 19.61 20.36 19.31 19.46 19 18.55 18.7 17.72 18.32 16.97 18.18 16.14 17.72 15.38 17.42 14.86 17.19 14.26 16.97 13.57 16.52 13.12 16.14 12.45 15.69 11.77 14.93 11.62 16.21 11.77 17.72 12.14 18.4 12.45 19.23 12.97 19.76 13.73 20.74 14.55 21.27 15.31 21.87 16.21 22.4 17.12 22.7 17.8 23.15 18.55 23.45 17.72 23.6 16.59 23.53 15.31 23.53 14.48 23.38 13.57 23.23 12.75 22.93 12.22 22.62 12.37 23.3 12.6 23.75 12.97 24.51 13.5 25.26 14.33 26.02 15.01 26.55 15.84 27.07 16.52 27.3 17.35 27.53 18.1 27.6 18.48 27.75 19.61 27.98 18.48 28.51 17.65 28.88 17.05 29.03 16.29 29.26 15.46 29.34 14.48 29.41 13.8 29.49 14.26 29.86 14.78 30.24 15.46 30.77 16.14 31.22 16.74 31.52 17.57 31.82 18.4 31.9 19.23 31.98 20.21 31.9 21.65 31.68 20.89 32.43 20.14 32.96 19.61 33.33 19.08 33.48 18.25 33.78 17.57 33.94 16.97 33.94 16.44 33.86 16.74 34.31 17.5 34.84 18.25 35.14 19.23 35.52 20.21 35.44 21.34 35.29 22.25 35.07 22.85 34.92 23.38 34.69 24.06 34.31 23.83 35.22 23.38 35.82 23 36.2 22.55 36.5 22.1 36.88 21.65 37.03 21.19 37.1 20.74 37.26 21.49 37.78 22.32 38.01 23.38 38.01 24.59 37.71 25.19 37.48 25.72 37.33 26.25 37.03 26.62 36.8 26.93 36.5 27.38 36.58 27.68 37.1 27.23 37.56 26.62 38.01 25.64 38.54 24.89 39.14 24.06 39.59 23.3 40.2 22.55 40.95 21.87 42.31 22.85 42.08 22.1 43.06 21.8 43.44 21.27 43.89 20.74 44.49 20.21 44.95 19.84 45.25 19.38 45.25 18.63 45.17 17.72 45.32 17.2 45.55 16.82 46.08 16.74 46.76 16.89 47.29 17.42 48.04 17.95 48.49 18.7 48.94 19.46 48.87 19.23 48.19 19.68 47.59 20.66 47.81 20.82 47.13 20.66 46.38 20.82 46.15 21.34 45.78 22.1 45.25 22.78 44.8 23.3 44.34 24.06 43.89 24.66 43.51 25.27 43.36 25.11 44.19 24.96 44.64 25.57 44.12 26.09 43.81 26.47 43.59 27 43.36 26.55 44.64 26.25 45.47 26.02 46.23 25.87 46.91 25.79 47.74 26.02 48.49 26.4 48.11 26.77 47.66 27.6 47.44 27.45 48.11 27.3 49.32 27.38 50.68 27.6 52.11 27.9 52.87 28.21 53.62 28.58 54.3 28.96 55.13 29.26 55.51 29.79 54.45 30.09 53.77 30.39 53.02 30.77 52.11 30.84 51.59 31 49.85 31 48.72 30.77 47.36 31.52 47.74 32.2 48.19 32.66 48.49 32.51 47.51 32.43 46.61 32.28 45.93 32.05 45.02 31.83 44.34 31.6 43.74 31.52 43.29 32.05 43.51 32.73 43.74 33.33 44.12 33.79 44.34 34.54 44.8 34.39 44.27 34.24 43.89 35.22 44.19 35.97 44.72 36.58 45.1 37.41 45.85 37.86 46.53 37.94 47.44 38.31 48.11 38.92 48.57 39.82 48.57 40.65 48.34 41.33 47.44 41.4 46.46 41.03 45.78 40.5 45.32 39.52 45.1 38.76 45.25 38.31 45.32 37.86 44.87 37.26 44.27 36.43 43.51 35.97 42.84 35.67 42.31 35.67 42.16 36.43 42.16 36.8 42.08 36.35 41.03 35.67 40.35 34.92 39.74 33.94 38.99 33.03 38.54 32.2 38.16 31.6 37.78 31.22 37.33 31.3 36.8 31.83 36.65 32.88 37.18 33.79 37.56 34.77 37.78 36.13 38.01 36.88 37.93 37.71 37.71 38.61 37.18 37.18 36.73 36.35 36.27 35.75 35.52 35.37 34.92 35.22 34.54 35.75 34.84 36.8 35.14 38.39 35.37 39.97 35.37 41.03 35.07 41.78 34.62 42.76 33.86 41.93 33.86 41.03 33.71 40.2 33.56 39.52 33.33 38.84 32.96 38.39 32.51 38.01 32.13 37.63 31.6 38.16 31.68 39.67 31.75 41.03 31.6 42.01 31.45 42.91 31.15 43.59 30.77 44.19 30.24 44.65 29.94 44.95 29.56 44.12 29.49 43.29 29.34 42.46 29.11 41.78 28.88 41.18 28.58 40.58 28.36 40.27 28.05 40.05 27.9 40.5 27.75 41.18 27.53 42.08 27.38 42.61 27.3 43.44 26.92 44.12 26.62 44.65 26.32 45.1 25.87 45.63 25.34 45.93 24.81 46.16 24.28 46.31 23.53 46.53 22.55 45.78 22.93 45.4 23.08 44.65 23.15 43.82 23.23 42.31 23.45 41.03 23.45 40.5 23.3 40.65 23.15 41.18 22.93 41.71 22.55 42.38 22.02 43.21 21.57 43.82 21.04 44.65 20.14 45.33 19.16 45.63 18.55 45.93 17.57 46.08 16.67 46.16 15.91 46.16 15.31 46.08 14.93 45.85 15.23 45.33 15.69 44.95 15.99 44.12 16.59 43.21 17.12 42.46 17.5 41.4 17.95 40.5 18.32 39.52 18.63 38.69 18.93 37.78 19.31 37.26 19.46 36.58 19.76 35.97 20.14 35.52 20.74 35.14 21.34 34.84 22.02 34.77 22.62 34.77 23.68 34.47 24.28 34.16 24.73 33.41 24.96 32.58 24.96 32.13 24.73 31.83 24.51 31.6 24.13 31.52 23.45 31.52 21.8 31.52 20.97 31.6 19.08 31.45 18.48 31 17.87 30.62 17.42 30.32 17.12"/><path class="f" d="M28.21,19a.75.75,0,0,0,.75-.75.81.81,0,0,0-.75-.75.82.82,0,0,0-.83.75.77.77,0,0,0,.83.75"/><path class="g" d="M42.76,40.27c-1.66-.6-3.32.08-3.62,1.51a3.61,3.61,0,0,0,2.57,3.69c1.65.53,3.24-.15,3.54-1.58a3.42,3.42,0,0,0-2.49-3.62"/><polygon class="g" points="37.94 47.44 37.48 47.89 37.1 48.49 36.88 49.02 36.73 49.32 36.5 48.79 36.35 48.19 35.97 47.51 35.29 46.98 34.62 46.68 33.94 46.46 33.33 46.46 33.41 47.29 33.48 47.89 33.71 48.34 34.16 48.87 34.62 49.32 35.22 49.7 35.9 49.77 36.5 49.7 36.35 50.83 36.27 51.59 36.12 52.41 36.12 52.87 38.16 52.87 38.16 51.89 38.24 50.91 38.31 50 38.46 49.25 38.69 48.64 38.91 48.12 38.46 47.29 38.16 47.13 37.94 47.44"/><polygon class="g" points="43.37 40.2 43.52 39.67 43.37 38.99 42.99 38.76 42.53 38.61 43.14 38.46 43.67 38.69 44.04 38.99 44.19 39.44 45.17 38.69 44.72 39.9 45.25 39.97 45.7 40.12 46 40.57 46.16 41.1 45.7 40.73 45.33 40.42 44.87 40.57 44.65 40.65 44.27 40.95 43.37 40.2"/><path class="g" d="M14.41,40.73c-1.59,1-2.12,2.71-1.29,3.84s2.72,1.13,4.3.15,2-2.71,1.21-3.84-2.72-1.21-4.22-.15"/><polygon class="g" points="13.95 40.73 14.78 40.2 14.71 39.67 14.71 39.29 14.86 39.07 15.23 38.84 14.86 38.84 14.63 38.91 14.41 39.14 14.18 39.52 13.43 38.84 13.5 39.82 13.35 39.9 13.12 39.9 12.97 39.9 12.75 40.05 12.52 40.5 12.82 40.27 13.05 40.2 13.27 40.12 13.58 40.27 13.73 40.42 13.95 40.73"/><polygon class="f" points="5.2 6.71 6.11 7.01 6.79 7.39 7.24 7.84 7.69 8.52 7.77 9.43 7.62 10.48 7.24 11.01 6.71 11.54 6.18 11.91 5.43 12.14 4.68 12.22 3.85 12.07 3.09 11.77 2.56 11.39 1.96 10.94 1.51 10.26 1.43 9.13 1.66 8.22 2.11 7.62 2.79 7.01 3.54 6.71 4.38 6.64 5.2 6.71"/><polygon class="f" points="4.53 6.11 5.43 6.18 5.58 5.81 5.81 5.5 6.49 5.13 6.11 4.9 5.73 4.98 5.36 5.2 5.13 4.15 4.83 5.13 4.38 4.75 3.92 4.68 3.62 4.83 4.07 5.05 4.38 5.35 4.53 6.11"/><path class="f" d="M4.52,12.14l1.06.45H6.79l.68-.07-.31.3-.3.23-.52.3H5.81l-.46-.08H5c-.38-.22-.38.38-.38.38l.23.75.22.76.53,1,.3.75.08.76v.9l-.15.83-.15.83-.08.6-.15.68-1-.07.15-.61.15-.75v-.9l.15-.61v-.38l-.52.08-.53-.08L3.39,18,3,17.87l-.38-.22-.3-.31L2.11,17l-.22-.38L1.58,16l.91-.15,1.06.37.52.31.53.37.38.53-.08-.75-.45-.91-.3-.6L4,14.63,3.92,14l-.07-.68-.23-.15h-1L2,13a2.28,2.28,0,0,1-.76-.68l.76.08.68.07h.83l.52-.3Z"/><polygon class="f" points="5.28 27.83 6.18 28.05 6.86 28.51 7.39 28.88 7.77 29.56 7.92 30.47 7.69 31.52 7.32 32.13 6.79 32.58 6.26 32.96 5.51 33.18 4.75 33.26 3.92 33.11 3.17 32.88 2.64 32.51 2.04 31.98 1.58 31.3 1.51 30.24 1.74 29.26 2.19 28.66 2.87 28.13 3.62 27.83 4.45 27.75 5.28 27.83"/><polygon class="f" points="4.68 27.22 5.58 27.22 5.73 26.85 6.03 26.55 6.64 26.17 6.26 26.02 5.88 26.02 5.58 26.25 5.35 25.19 4.98 26.17 4.6 25.87 4.15 25.72 3.77 25.94 4.22 26.09 4.6 26.4 4.68 27.22"/><path class="f" d="M4.6,33.18l1.06.45.52.08.68-.08.68-.07-.3.38L7,34.16l-.52.23H5.88l-.45-.08H5.05c-.37-.22-.37.38-.37.38l.22.83.23.76.53.9.3.75.15.76-.08.9-.15.83-.15.83-.07.68-.15.6-1-.07.16-.53.15-.83.07-.83.08-.6v-.45l-.53.07H3.92l-.45-.15-.38-.23-.37-.22-.23-.3-.3-.31L2,37.63l-.3-.6L2.57,37l1.05.3.6.31.46.37.37.53L5,37.71l-.38-.83-.38-.68-.07-.53L4,35.07l-.08-.68-.15-.15h-1L2.11,34a4.1,4.1,0,0,1-.75-.6l.83.07H3.62l.53-.3Z"/><polygon class="f" points="3.39 48.79 4.22 48.34 5.05 48.27 5.66 48.27 6.41 48.49 7.09 49.17 7.62 50.08 7.69 50.75 7.62 51.51 7.47 52.11 7.01 52.72 6.49 53.24 5.81 53.7 5.05 54 4.38 54.07 3.62 54 2.87 53.85 2.04 53.02 1.58 52.11 1.58 51.43 1.74 50.53 2.11 49.85 2.72 49.25 3.39 48.79"/><polygon class="f" points="2.56 48.72 3.32 48.19 3.17 47.81 3.17 47.36 3.39 46.61 3.02 46.76 2.72 47.06 2.64 47.44 1.74 46.76 2.11 47.74 1.58 47.74 1.21 47.96 1.06 48.27 1.51 48.11 1.96 48.19 2.56 48.72"/><path class="f" d="M6.41,53.24l1.06-.3.45-.38.45-.45.53-.45v.45l-.08.3L8.6,53l-.45.37-.46.15-.22.31c-.46,0-.08.45-.08.45l.68.53.68.37,1.06.46.67.37.61.53.45.68L12,58l.45.68.31.61.37.52-.83.61-.3-.53-.38-.68-.52-.75-.3-.53-.23-.3-.38.45-.37.23-.53.22-.38.08-.38.07-.45-.07-.38-.08-.45-.15-.6-.3.6-.68,1-.38.68-.15h.6l.68.15-.6-.52-.91-.38-.6-.3-.45-.3-.53-.46-.45-.45H6.41L5.88,55l-.22.3L5,55.43a1.76,1.76,0,0,1-.91,0l.61-.38.52-.37.61-.53L6,53.54Z"/><polygon class="f" points="22.7 60.63 23.08 59.73 23.53 59.13 23.98 58.67 24.74 58.3 25.64 58.3 26.62 58.6 27.23 58.97 27.6 59.58 27.98 60.11 28.13 60.86 28.13 61.61 27.9 62.44 27.6 63.2 27.15 63.65 26.62 64.25 25.94 64.63 24.81 64.56 23.83 64.25 23.3 63.8 22.85 63.05 22.63 62.29 22.63 61.46 22.7 60.63"/><polygon class="f" points="22.02 61.24 22.17 60.33 21.8 60.18 21.49 59.88 21.19 59.2 20.97 59.5 20.97 59.95 21.19 60.26 20.14 60.41 21.04 60.86 20.66 61.24 20.51 61.69 20.66 62.07 20.89 61.54 21.27 61.31 22.02 61.24"/><path class="f" d="M28.06,61.69l.52-.91.08-.6V58.82l.3.38.23.3.22.53-.07.53-.15.45v.38c-.23.37.37.37.37.37l.76-.15.83-.15,1-.45.75-.15.76-.08.9.16.83.15.75.22.68.15.61.15-.15,1.06-.53-.23-.83-.22-.83-.15-.61-.15h-.37v.52L34,63l-.22.45-.15.31-.23.37-.38.23-.37.23-.38.22L31.6,65V64.1l.38-1,.37-.6.46-.45.52-.31h-.75l-.9.38-.68.23-.53.07-.6.08h-.68l-.15.23-.08.6-.08.38-.3.6a2.06,2.06,0,0,1-.68.6l.16-.68.15-.67.07-.83-.3-.53Z"/><polygon class="f" points="25.94 7.92 25.72 8.82 25.27 9.5 24.89 10.03 24.21 10.41 23.3 10.56 22.25 10.33 21.65 9.96 21.19 9.43 20.82 8.9 20.59 8.14 20.51 7.39 20.66 6.56 20.89 5.81 21.27 5.28 21.8 4.68 22.48 4.22 23.53 4.15 24.51 4.37 25.11 4.83 25.64 5.51 25.94 6.26 26.02 7.09 25.94 7.92"/><polygon class="f" points="26.55 7.32 26.55 8.22 26.93 8.37 27.23 8.67 27.6 9.28 27.75 8.9 27.75 8.52 27.53 8.22 28.58 8 27.6 7.62 27.9 7.24 28.05 6.79 27.83 6.41 27.68 6.86 27.38 7.24 26.55 7.32"/><path class="f" d="M20.59,7.39l-.45,1-.08.6.08.61.07.75L19.84,10l-.23-.23-.23-.53V8.6l.08-.46V7.77c.22-.31-.38-.31-.38-.31l-.83.16-.75.3-.91.45-.75.3-.76.15-.9-.07-.83-.15-.83-.15-.68-.08-.6-.07.07-1.06.53.15.83.15.83.08.6.07h.46l-.08-.53V6.71l.15-.53.23-.3.22-.37.31-.31.3-.3.45-.22.6-.31.08.91-.3,1-.31.61-.37.52-.53.38.75-.07.83-.46.68-.3.53-.15.6-.15h.68l.15-.22v-1l.23-.68a3,3,0,0,1,.6-.68l-.07.75V6.33l.3.53Z"/><polygon class="f" points="53.7 29.71 54.38 29.79 55.13 30.02 55.81 30.39 56.34 31.22 56.56 32.05 56.41 32.88 56.03 33.48 55.73 34.01 55.13 34.46 54.38 34.69 53.47 34.77 52.49 34.77 51.59 34.54 50.91 34.09 50.45 33.48 50.15 32.73 50.15 32.05 50.38 31.07 50.98 30.39 51.66 30.02 52.26 29.86 53.02 29.71 53.7 29.71"/><path class="f" d="M53.77,34.69l.38.3h.6l.68-.15.91-.3-.38.75-.38.31-.53.07h-.53L54,35.6l-.08.68-.15.75-.15.6-.3.68-.23.76L53,40l.37-.75.46-.31.52-.22.68-.08.38.08.45.07-.22.61-.46.45-.37.45-.68.3-.83.16L53,40.5l-.08.3.08.75v.76l.15.53.07.52c-.22.31-1,.15-1,.15L52,42.69,52,41.55v-1l.08-1,.22-.91.38-1,.3-.68.08-.67V35.6l-.46.15H52l-.61-.15-.37-.31-.31-.6.91.3h1l.38-.3Z"/><polygon class="f" points="52.56 28.73 52.72 29.11 53.32 29.11 53.47 28.73 53.85 28.43 54.38 28.05 53.7 27.98 53.32 28.13 52.94 27.15 52.64 28.13 52.19 28.05 51.59 28.13 52.19 28.36 52.56 28.73"/><polygon class="f" points="53.4 7.62 54 7.69 54.75 7.84 55.43 8.3 55.96 9.05 56.19 9.88 56.03 10.71 55.66 11.39 55.35 11.84 54.75 12.29 54 12.59 53.09 12.67 52.11 12.67 51.28 12.37 50.53 11.91 50.08 11.39 49.77 10.63 49.77 9.88 50.08 8.9 50.68 8.22 51.28 7.84 51.89 7.69 52.64 7.54 53.4 7.62"/><path class="f" d="M53.55,12.52l.37.3.53.08.68-.15,1-.38-.45.83-.38.22-.45.15h-.61l-.45-.07-.15.68-.07.68-.23.6-.3.75-.15.68-.15,1,.37-.75.53-.38.45-.22.68-.08.45.08.46.15-.3.52-.46.46-.37.52-.61.31-.83.07-.37-.15-.08.3.08.68.07.76.08.52.07.53c-.22.3-1,.15-1,.15l-.15-.83-.15-1.13v-1l.07-1.06.23-.9.45-1,.23-.68.08-.68.07-.6-.45.15h-.61l-.52-.15-.38-.38-.38-.6,1,.3,1,.08.38-.31Z"/><polygon class="f" points="52.19 6.56 52.34 6.94 53.02 7.01 53.09 6.56 53.47 6.26 54 5.96 53.32 5.88 52.94 5.96 52.56 4.98 52.34 6.03 51.81 5.88 51.21 6.03 51.81 6.26 52.19 6.56"/><polygon class="f" points="55.05 52.04 55.43 52.56 55.81 53.24 56.03 54 55.81 54.9 55.35 55.66 54.75 56.18 54 56.34 53.47 56.48 52.72 56.34 51.96 56.03 51.28 55.43 50.6 54.75 50.15 53.92 50 53.09 50.08 52.41 50.38 51.66 50.91 51.21 51.73 50.6 52.64 50.6 53.4 50.75 53.92 51.05 54.52 51.51 55.05 52.04"/><path class="f" d="M51.66,55.58v.53l.38.38.6.37.91.45-.83.31-.46-.15-.45-.23-.38-.45-.3-.38-.53.45-.6.38-.6.3-.68.3-.68.38-.75.6.83-.3.6.08.53.22.45.46.3.37.23.38-.61.15-.6.08h-.6L47.74,60l-.68-.45L47,59.2l-.3.15-.45.53-.53.6-.22.46-.38.37c-.38.08-.83-.53-.83-.53l.45-.75.76-.9.68-.68.82-.68.83-.53.91-.38.68-.3.6-.38.45-.45L50,55.51l-.38-.38-.3-.53v-.53l.15-.6.46.83.67.75.46.08Z"/><polygon class="f" points="54.9 50.45 54.75 50.83 55.2 51.36 55.58 51.13 56.11 51.13 56.71 51.28 56.26 50.75 55.88 50.6 56.34 49.62 55.43 50.15 55.13 49.7 54.6 49.4 54.9 49.92 54.9 50.45"/><polygon class="f" points="33.03 7.46 33.11 6.79 33.33 6.03 33.71 5.36 34.46 4.83 35.37 4.6 36.2 4.75 36.8 5.13 37.33 5.43 37.71 6.03 38.01 6.79 38.09 7.69 38.09 8.67 37.78 9.58 37.41 10.26 36.8 10.71 36.05 11.01 35.37 11.01 34.39 10.79 33.71 10.18 33.33 9.5 33.18 8.9 33.03 8.14 33.03 7.46"/><path class="f" d="M37.93,7.24l.38-.3v-.6l-.15-.68-.3-1,.75.45.23.38L39,6v.53L38.92,7l.67.16.68.07.61.23.75.3.75.15.91.15-.76-.38-.37-.45L42,6.71,41.93,6,42,5.58l.07-.45.6.3.46.45.45.38.3.68.08.75-.15.38.3.07.68-.07L45.63,8l.45-.07.53-.08c.3.23.22,1,.22,1L46,9.05l-1.2.08h-.91l-1.13-.08-.9-.23L41,8.45l-.68-.31-.68-.07L38.92,8l.15.46v.6l-.15.6-.38.31-.61.37.38-1v-.9L38,8Z"/><polygon class="f" points="31.98 8.6 32.35 8.45 32.35 7.84 31.9 7.69 31.6 7.32 31.3 6.79 31.22 7.46 31.37 7.84 30.39 8.22 31.37 8.45 31.22 8.97 31.37 9.58 31.6 8.97 31.98 8.6"/><polygon class="e" points="5.28 11.61 5.66 11.01 6.03 10.33 6.18 9.35 6.03 8.3 5.66 7.54 5.05 7.17 4.3 7.24 3.7 7.69 3.17 8.6 3.09 9.35 3.09 10.03 3.24 10.93 3.7 11.54 4.15 11.76 4.75 11.84 5.28 11.61"/><polygon class="e" points="5.51 32.66 5.88 32.05 6.18 31.37 6.41 30.47 6.26 29.34 5.88 28.58 5.2 28.2 4.45 28.28 3.85 28.81 3.32 29.71 3.24 30.39 3.24 31.15 3.47 31.98 3.92 32.58 4.3 32.88 4.98 32.88 5.51 32.66"/><polygon class="e" points="6.71 52.34 6.56 51.66 6.41 50.9 5.96 50.08 5.13 49.32 4.38 49.02 3.62 49.09 3.09 49.7 2.94 50.45 3.09 51.43 3.54 52.04 4 52.64 4.68 53.17 5.43 53.32 5.88 53.24 6.41 52.87 6.71 52.34"/><polygon class="e" points="27.6 60.86 27 60.48 26.39 60.03 25.49 59.8 24.36 59.88 23.53 60.18 23.15 60.78 23.15 61.54 23.61 62.22 24.44 62.82 25.19 62.9 25.87 62.97 26.77 62.82 27.38 62.44 27.68 62.07 27.75 61.46 27.6 60.86"/><polygon class="e" points="21.12 8.14 21.72 8.52 22.4 8.82 23.3 9.05 24.44 8.9 25.19 8.52 25.57 7.84 25.49 7.09 24.96 6.49 24.06 5.96 23.38 5.88 22.63 5.88 21.8 6.11 21.19 6.56 20.89 6.94 20.89 7.62 21.12 8.14"/><polygon class="e" points="53.92 30.02 54.45 30.39 54.83 31 55.05 32.13 54.98 33.03 54.6 34.01 53.92 34.46 52.87 34.54 52.26 34.24 51.81 33.71 51.66 32.58 51.66 31.6 51.96 31 52.26 30.54 52.72 30.09 53.17 29.94 53.92 30.02"/><polygon class="e" points="53.7 7.84 54.15 8.3 54.6 8.82 54.83 9.96 54.68 10.86 54.38 11.84 53.62 12.37 52.64 12.37 52.04 12.07 51.59 11.54 51.36 10.41 51.43 9.43 51.66 8.82 51.96 8.37 52.41 7.92 52.87 7.77 53.7 7.84"/><polygon class="e" points="55.05 52.41 55.13 53.02 54.98 53.7 54.38 54.67 53.7 55.28 52.72 55.66 51.89 55.51 51.13 54.9 50.91 54.22 50.98 53.47 51.59 52.56 52.34 51.96 53.02 51.66 53.55 51.59 54.15 51.59 54.6 51.81 55.05 52.41"/><polygon class="e" points="33.18 7.24 33.63 6.71 34.24 6.33 35.37 6.03 36.2 6.18 37.18 6.56 37.71 7.24 37.78 8.22 37.41 8.82 36.88 9.35 35.75 9.5 34.84 9.43 34.16 9.2 33.71 8.9 33.26 8.45 33.11 7.99 33.18 7.24"/><polygon class="f" points="43.82 41.03 43.89 41.78 43.74 42.61 43.59 43.21 43.14 43.81 42.69 44.19 42.23 44.49 41.63 44.72 41.1 44.8 40.88 44.34 40.73 43.59 40.88 42.84 41.18 42.31 41.71 41.63 42.31 41.25 42.84 41.03 43.29 41.03 43.82 41.03"/><polygon class="f" points="17.27 44.57 17.35 43.74 17.27 42.84 17.04 42.16 16.59 41.48 15.99 40.95 15.38 40.65 14.63 40.73 14.33 41.33 14.48 42.31 14.71 42.99 15.01 43.44 15.46 43.97 15.99 44.27 16.59 44.42 17.27 44.57"/><path class="i" d="M71.66,13.4H70.19l-.59-1.53H66.91l-.56,1.53H64.91l2.62-6.73H69Zm-2.5-2.67-.92-2.49-.91,2.49Z"/><path class="i" d="M72.53,13.4V6.72h1.36v5.54h3.38V13.4Z"/><path class="i" d="M82.45,10.92l1.32.42a3,3,0,0,1-1,1.64,2.9,2.9,0,0,1-1.79.53,2.87,2.87,0,0,1-2.2-.92,3.47,3.47,0,0,1-.86-2.5,3.72,3.72,0,0,1,.86-2.61,3,3,0,0,1,2.29-.93,2.81,2.81,0,0,1,2,.73,2.6,2.6,0,0,1,.69,1.24l-1.35.32A1.36,1.36,0,0,0,81.91,8,1.4,1.4,0,0,0,81,7.71a1.54,1.54,0,0,0-1.22.54A2.65,2.65,0,0,0,79.31,10a2.8,2.8,0,0,0,.46,1.82,1.48,1.48,0,0,0,1.19.54,1.36,1.36,0,0,0,.93-.35A1.94,1.94,0,0,0,82.45,10.92Z"/><path class="i" d="M90.92,13.4H89.44l-.59-1.53H86.16l-.55,1.53H84.17l2.62-6.73h1.43Zm-2.5-2.67-.93-2.49-.91,2.49Z"/><path class="i" d="M91.79,13.4V6.72h1.36v5.54h3.38V13.4Z"/><path class="i" d="M97.51,6.67H100a4.64,4.64,0,0,1,1.28.13,2.2,2.2,0,0,1,1,.62,3,3,0,0,1,.64,1.08,5.17,5.17,0,0,1,.22,1.59,4.38,4.38,0,0,1-.21,1.44,3.06,3.06,0,0,1-.72,1.19,2.23,2.23,0,0,1-1,.53,3.93,3.93,0,0,1-1.21.15H97.51ZM98.87,7.8v4.46h1a4,4,0,0,0,.82-.06,1.3,1.3,0,0,0,.55-.28,1.46,1.46,0,0,0,.36-.65,4.48,4.48,0,0,0,.13-1.23,4.15,4.15,0,0,0-.13-1.2,1.52,1.52,0,0,0-.39-.65,1.19,1.19,0,0,0-.63-.32,6.22,6.22,0,0,0-1.11-.07Z"/><path class="i" d="M104.37,13.4V6.67h1.36V13.4Z"/><path class="i" d="M113.28,13.4H111.8l-.58-1.53h-2.69L108,13.4h-1.44l2.62-6.73h1.44Zm-2.5-2.67-.93-2.49-.91,2.49Z"/><path class="i" d="M116.6,13.4V6.67h2l1.22,4.59,1.21-4.59h2V13.4h-1.27V8.1l-1.33,5.3h-1.31l-1.33-5.3v5.3Z"/><path class="i" d="M130.66,13.4h-1.47l-.59-1.53h-2.69l-.56,1.53h-1.44l2.62-6.73H128Zm-2.5-2.67-.93-2.49-.91,2.49Z"/><path class="i" d="M132.52,13.4V10.56l-2.46-3.89h1.59l1.58,2.66,1.55-2.66h1.57l-2.47,3.9V13.4Z"/><path class="i" d="M136.47,10.07a4.35,4.35,0,0,1,.3-1.72,3.47,3.47,0,0,1,.63-.93,2.72,2.72,0,0,1,.87-.6,3.64,3.64,0,0,1,1.45-.27,3.17,3.17,0,0,1,2.38.92A3.53,3.53,0,0,1,143,10a3.51,3.51,0,0,1-.88,2.55,3.54,3.54,0,0,1-4.76,0A3.47,3.47,0,0,1,136.47,10.07Zm1.4,0a2.52,2.52,0,0,0,.52,1.73,1.75,1.75,0,0,0,1.35.59,1.71,1.71,0,0,0,1.33-.59,2.54,2.54,0,0,0,.52-1.75,2.54,2.54,0,0,0-.51-1.73,1.72,1.72,0,0,0-1.34-.57,1.74,1.74,0,0,0-1.36.58A2.55,2.55,0,0,0,137.87,10Z"/><path class="i" d="M144.18,13.4V6.67H147a5,5,0,0,1,1.57.18,1.56,1.56,0,0,1,.78.64,1.92,1.92,0,0,1,.29,1.06,1.77,1.77,0,0,1-.44,1.25,2.17,2.17,0,0,1-1.33.63,3.6,3.6,0,0,1,.73.56,8.89,8.89,0,0,1,.77,1.09l.82,1.32h-1.62l-1-1.47a10.76,10.76,0,0,0-.71-1,1.16,1.16,0,0,0-.41-.28,2.33,2.33,0,0,0-.69-.07h-.27V13.4Zm1.36-3.89h1a5.68,5.68,0,0,0,1.23-.08.76.76,0,0,0,.38-.28.92.92,0,0,0,.13-.51.81.81,0,0,0-.18-.55.79.79,0,0,0-.51-.26,8.74,8.74,0,0,0-1,0h-1.06Z"/><path class="i" d="M65.76,16.07h2.48a4.64,4.64,0,0,1,1.28.13,2.16,2.16,0,0,1,1,.62,2.94,2.94,0,0,1,.64,1.09,4.88,4.88,0,0,1,.22,1.59,4.65,4.65,0,0,1-.2,1.43,3,3,0,0,1-.73,1.19,2.23,2.23,0,0,1-1,.53,3.9,3.9,0,0,1-1.2.15H65.76Zm1.36,1.14v4.45h1A3.88,3.88,0,0,0,69,21.6a1.25,1.25,0,0,0,.55-.28,1.37,1.37,0,0,0,.36-.65A4.42,4.42,0,0,0,70,19.44a4.09,4.09,0,0,0-.14-1.2,1.43,1.43,0,0,0-.39-.65,1.19,1.19,0,0,0-.63-.32,6.55,6.55,0,0,0-1.11-.06Z"/><path class="i" d="M73.22,22.8V16.07h5v1.14H74.58V18.7H78v1.13H74.58v1.83h3.76V22.8Z"/><path class="i" d="M83.24,16.07h2.68a8.76,8.76,0,0,1,1.2.06,1.87,1.87,0,0,1,.7.28,1.62,1.62,0,0,1,.51.56,1.53,1.53,0,0,1,.21.79,1.55,1.55,0,0,1-.25.87,1.59,1.59,0,0,1-.69.59,1.74,1.74,0,0,1,.94.61,1.63,1.63,0,0,1,.33,1,2,2,0,0,1-.21.9,1.73,1.73,0,0,1-.59.69,1.9,1.9,0,0,1-.91.32c-.22,0-.77,0-1.63.05H83.24Zm1.35,1.12v1.55h.89c.53,0,.86,0,1,0a.93.93,0,0,0,.55-.24.72.72,0,0,0,.2-.53.76.76,0,0,0-.17-.5.82.82,0,0,0-.51-.24c-.14,0-.53,0-1.17,0Zm0,2.67v1.8h1.26a5.84,5.84,0,0,0,.93,0,.88.88,0,0,0,.5-.27.95.95,0,0,0,0-1.08A.83.83,0,0,0,86.9,20a4.38,4.38,0,0,0-1.21-.1Z"/><path class="i" d="M90.32,19.47a4.35,4.35,0,0,1,.3-1.72,3.47,3.47,0,0,1,.63-.93,2.72,2.72,0,0,1,.87-.6A3.64,3.64,0,0,1,93.57,16a3.14,3.14,0,0,1,2.38.93,3.48,3.48,0,0,1,.89,2.56A3.51,3.51,0,0,1,96,22a3.55,3.55,0,0,1-4.76,0A3.51,3.51,0,0,1,90.32,19.47Zm1.4,0a2.52,2.52,0,0,0,.52,1.73,1.75,1.75,0,0,0,1.35.59,1.71,1.71,0,0,0,1.33-.59,2.54,2.54,0,0,0,.52-1.75,2.54,2.54,0,0,0-.51-1.73,1.7,1.7,0,0,0-1.34-.57,1.75,1.75,0,0,0-1.36.58A2.55,2.55,0,0,0,91.72,19.43Z"/><path class="i" d="M101.68,20.32V19.19h2.93v2.68a3.7,3.7,0,0,1-1.23.73,4.5,4.5,0,0,1-1.64.31,3.78,3.78,0,0,1-1.85-.44,2.9,2.9,0,0,1-1.18-1.27,4.15,4.15,0,0,1-.39-1.79,3.94,3.94,0,0,1,.44-1.87,2.94,2.94,0,0,1,1.29-1.25,3.4,3.4,0,0,1,1.61-.34,3.22,3.22,0,0,1,2,.53,2.39,2.39,0,0,1,.91,1.45l-1.35.25a1.46,1.46,0,0,0-.54-.78,1.63,1.63,0,0,0-1-.29,1.86,1.86,0,0,0-1.42.57,2.4,2.4,0,0,0-.52,1.67,2.67,2.67,0,0,0,.53,1.8,1.79,1.79,0,0,0,1.4.6,2.34,2.34,0,0,0,.85-.17,2.89,2.89,0,0,0,.74-.4v-.86Z"/><path class="i" d="M106.23,19.47a4.17,4.17,0,0,1,.31-1.72,3.22,3.22,0,0,1,.62-.93,2.72,2.72,0,0,1,.87-.6,3.68,3.68,0,0,1,1.45-.27,3.13,3.13,0,0,1,2.38.93,3.49,3.49,0,0,1,.9,2.56,3.52,3.52,0,0,1-.89,2.55,3.15,3.15,0,0,1-2.37.92,3.19,3.19,0,0,1-2.39-.91A3.55,3.55,0,0,1,106.23,19.47Zm1.4,0a2.52,2.52,0,0,0,.53,1.73,1.73,1.73,0,0,0,1.34.59,1.71,1.71,0,0,0,1.33-.59,2.54,2.54,0,0,0,.52-1.75,2.54,2.54,0,0,0-.51-1.73,1.69,1.69,0,0,0-1.34-.57,1.77,1.77,0,0,0-1.36.58A2.55,2.55,0,0,0,107.63,19.43Z"/><path class="i" d="M115.85,22.8V17.21h-2V16.07h5.35v1.14h-2V22.8Z"/><path class="i" d="M126.14,22.8h-1.47l-.59-1.53h-2.69l-.56,1.53h-1.44L122,16.07h1.44Zm-2.5-2.67-.92-2.49-.91,2.49Z"/><path class="i" d="M130.59,16.07h2.48a4.64,4.64,0,0,1,1.28.13,2.16,2.16,0,0,1,1,.62,2.94,2.94,0,0,1,.64,1.09,4.88,4.88,0,0,1,.22,1.59,4.65,4.65,0,0,1-.2,1.43,3,3,0,0,1-.73,1.19,2.23,2.23,0,0,1-1,.53,3.9,3.9,0,0,1-1.2.15h-2.56ZM132,17.21v4.45h1a3.88,3.88,0,0,0,.82-.06,1.25,1.25,0,0,0,.55-.28,1.37,1.37,0,0,0,.36-.65,4.42,4.42,0,0,0,.14-1.23,4.09,4.09,0,0,0-.14-1.2,1.43,1.43,0,0,0-.39-.65,1.19,1.19,0,0,0-.63-.32,6.47,6.47,0,0,0-1.11-.06Z"/><path class="i" d="M137.82,22.8V21.51h1.29V22.8Z"/><path class="i" d="M145.18,20.32l1.32.42a3,3,0,0,1-1,1.64,3.19,3.19,0,0,1-4-.38,3.56,3.56,0,0,1-.86-2.51,3.67,3.67,0,0,1,.87-2.61,3,3,0,0,1,2.28-.93,2.81,2.81,0,0,1,2,.73,2.6,2.6,0,0,1,.69,1.24l-1.34.32a1.42,1.42,0,0,0-.5-.82,1.38,1.38,0,0,0-.92-.31,1.52,1.52,0,0,0-1.21.54,2.64,2.64,0,0,0-.47,1.74,2.8,2.8,0,0,0,.46,1.82,1.49,1.49,0,0,0,1.19.54,1.4,1.4,0,0,0,.93-.34A2,2,0,0,0,145.18,20.32Z"/><path class="i" d="M148.16,22.8V21.51h1.29V22.8Z"/><path class="i" d="M65,38.62l.91-.08a1.91,1.91,0,0,0,.3.89,1.54,1.54,0,0,0,.73.57,2.83,2.83,0,0,0,1.12.22,2.66,2.66,0,0,0,1-.17,1.39,1.39,0,0,0,.63-.45,1.09,1.09,0,0,0,.2-.62.91.91,0,0,0-.2-.6A1.5,1.5,0,0,0,69,38c-.2-.07-.63-.19-1.3-.35a6.24,6.24,0,0,1-1.4-.46,2,2,0,0,1-.78-.68,1.63,1.63,0,0,1-.25-.9,1.83,1.83,0,0,1,.31-1,2,2,0,0,1,.91-.73,3.59,3.59,0,0,1,1.34-.25,3.76,3.76,0,0,1,1.43.26,2.14,2.14,0,0,1,1,.77,2.16,2.16,0,0,1,.35,1.15l-.92.07a1.54,1.54,0,0,0-.5-1,2,2,0,0,0-1.27-.35,2.09,2.09,0,0,0-1.28.32,1,1,0,0,0-.4.77.83.83,0,0,0,.29.65,3.82,3.82,0,0,0,1.45.52,10.31,10.31,0,0,1,1.61.46,2.27,2.27,0,0,1,.94.75,1.78,1.78,0,0,1,.3,1A2,2,0,0,1,70.43,40a2.12,2.12,0,0,1-1,.8,3.3,3.3,0,0,1-1.4.29,4.17,4.17,0,0,1-1.65-.29,2.25,2.25,0,0,1-1-.87A2.35,2.35,0,0,1,65,38.62Z"/><path class="i" d="M75.75,39.26l.93.11a2.31,2.31,0,0,1-.81,1.26,2.48,2.48,0,0,1-1.51.44,2.38,2.38,0,0,1-1.83-.71,2.74,2.74,0,0,1-.68-2,2.94,2.94,0,0,1,.68-2.06,2.33,2.33,0,0,1,1.78-.74,2.27,2.27,0,0,1,1.73.72,2.9,2.9,0,0,1,.67,2s0,.13,0,.24H72.77a2,2,0,0,0,.49,1.33,1.46,1.46,0,0,0,1.1.46,1.38,1.38,0,0,0,.84-.26A1.63,1.63,0,0,0,75.75,39.26Zm-2.93-1.45h2.94a1.88,1.88,0,0,0-.33-1,1.39,1.39,0,0,0-1.11-.51,1.45,1.45,0,0,0-1,.41A1.63,1.63,0,0,0,72.82,37.81Z"/><path class="i" d="M81.41,39l.88.12a2.23,2.23,0,0,1-.74,1.42,2.14,2.14,0,0,1-1.45.51,2.27,2.27,0,0,1-1.74-.7,2.87,2.87,0,0,1-.66-2,3.68,3.68,0,0,1,.28-1.5,2.07,2.07,0,0,1,.86-1,2.62,2.62,0,0,1,1.26-.32,2.22,2.22,0,0,1,1.41.44,2,2,0,0,1,.7,1.23l-.87.14a1.41,1.41,0,0,0-.44-.8,1.12,1.12,0,0,0-.76-.27,1.4,1.4,0,0,0-1.1.48,2.33,2.33,0,0,0-.42,1.53A2.34,2.34,0,0,0,79,39.86a1.32,1.32,0,0,0,1.06.48A1.29,1.29,0,0,0,81,40,1.63,1.63,0,0,0,81.41,39Z"/><path class="i" d="M83.31,41V35.68h.81v.8a2.22,2.22,0,0,1,.56-.74,1,1,0,0,1,.58-.18,1.8,1.8,0,0,1,.92.29l-.31.83a1.28,1.28,0,0,0-.66-.19.87.87,0,0,0-.52.17,1,1,0,0,0-.34.49,3.51,3.51,0,0,0-.15,1.05V41Z"/><path class="i" d="M90.46,39.26l.92.11a2.21,2.21,0,0,1-.81,1.26,2.48,2.48,0,0,1-1.51.44,2.38,2.38,0,0,1-1.83-.71,2.78,2.78,0,0,1-.68-2,2.9,2.9,0,0,1,.69-2.06A2.29,2.29,0,0,1,89,35.56a2.26,2.26,0,0,1,1.73.72,2.86,2.86,0,0,1,.67,2v.24H87.47a2,2,0,0,0,.5,1.33,1.44,1.44,0,0,0,1.1.46,1.4,1.4,0,0,0,.84-.26A1.77,1.77,0,0,0,90.46,39.26Zm-2.94-1.45h3a1.79,1.79,0,0,0-.34-1A1.37,1.37,0,0,0,89,36.3a1.43,1.43,0,0,0-1,.41A1.64,1.64,0,0,0,87.52,37.81Z"/><path class="i" d="M94.52,40.16l.12.79A3.39,3.39,0,0,1,94,41a1.6,1.6,0,0,1-.76-.15.89.89,0,0,1-.37-.4,3,3,0,0,1-.11-1.06v-3h-.66v-.7h.66v-1.3l.89-.54v1.84h.9v.7h-.9v3.08a1.64,1.64,0,0,0,0,.49.46.46,0,0,0,.16.18.61.61,0,0,0,.3.06Z"/><path class="i" d="M99.09,40.3a3.3,3.3,0,0,1-1,.6,2.71,2.71,0,0,1-1,.17,1.91,1.91,0,0,1-1.33-.42,1.48,1.48,0,0,1-.29-1.79,1.37,1.37,0,0,1,.46-.52,2.2,2.2,0,0,1,.64-.29,5.51,5.51,0,0,1,.8-.13A8.33,8.33,0,0,0,99,37.61v-.23a1,1,0,0,0-.25-.77,1.47,1.47,0,0,0-1-.31,1.63,1.63,0,0,0-.93.22,1.33,1.33,0,0,0-.44.79l-.88-.12a2.07,2.07,0,0,1,.4-.91,1.65,1.65,0,0,1,.79-.53,3.58,3.58,0,0,1,1.19-.19,3.32,3.32,0,0,1,1.1.16,1.48,1.48,0,0,1,.62.4,1.56,1.56,0,0,1,.28.61,5.15,5.15,0,0,1,0,.82v1.2a11.92,11.92,0,0,0,.06,1.57,2,2,0,0,0,.23.64h-.94A2.13,2.13,0,0,1,99.09,40.3Zm-.07-2a7,7,0,0,1-1.46.34,3,3,0,0,0-.78.18.72.72,0,0,0-.35.29.75.75,0,0,0-.13.42.77.77,0,0,0,.27.6,1.18,1.18,0,0,0,.8.23,1.8,1.8,0,0,0,.91-.22,1.36,1.36,0,0,0,.59-.62,2.07,2.07,0,0,0,.15-.89Z"/><path class="i" d="M101.44,41V35.68h.8v.8a2.35,2.35,0,0,1,.57-.74,1,1,0,0,1,.58-.18,1.74,1.74,0,0,1,.91.29l-.3.83a1.28,1.28,0,0,0-.66-.19.87.87,0,0,0-.52.17,1,1,0,0,0-.34.49,3.51,3.51,0,0,0-.15,1.05V41Z"/><path class="i" d="M105.13,34.71v-1h.9v1Zm0,6.25V35.68h.9V41Z"/><path class="i" d="M111,40.3a3.3,3.3,0,0,1-1,.6,2.71,2.71,0,0,1-1,.17,1.91,1.91,0,0,1-1.33-.42,1.38,1.38,0,0,1-.47-1.08,1.41,1.41,0,0,1,.18-.71,1.37,1.37,0,0,1,.46-.52,2.2,2.2,0,0,1,.64-.29,5.57,5.57,0,0,1,.79-.13,8.31,8.31,0,0,0,1.6-.31v-.23a1,1,0,0,0-.25-.77,1.47,1.47,0,0,0-1-.31,1.63,1.63,0,0,0-.93.22,1.33,1.33,0,0,0-.44.79l-.88-.12a2.18,2.18,0,0,1,.39-.91,1.75,1.75,0,0,1,.79-.53,3.68,3.68,0,0,1,1.2-.19,3.32,3.32,0,0,1,1.1.16,1.48,1.48,0,0,1,.62.4,1.56,1.56,0,0,1,.28.61,5.15,5.15,0,0,1,0,.82v1.2a11.92,11.92,0,0,0,.06,1.57,2.21,2.21,0,0,0,.22.64h-.93A2.13,2.13,0,0,1,111,40.3Zm-.07-2a7.21,7.21,0,0,1-1.46.34,3,3,0,0,0-.78.18.72.72,0,0,0-.35.29.68.68,0,0,0-.13.42.77.77,0,0,0,.27.6,1.16,1.16,0,0,0,.79.23,1.84,1.84,0,0,0,.92-.22,1.36,1.36,0,0,0,.59-.62,2.07,2.07,0,0,0,.15-.89Z"/><path class="i" d="M116.41,41V33.68h2.51a6.09,6.09,0,0,1,1.29.1,2.55,2.55,0,0,1,1.07.52,3,3,0,0,1,.86,1.25,4.86,4.86,0,0,1,.29,1.73,5.07,5.07,0,0,1-.2,1.47,3.73,3.73,0,0,1-.49,1.06,2.78,2.78,0,0,1-.67.66,2.65,2.65,0,0,1-.87.36A5,5,0,0,1,119,41Zm1-.86h1.56a3.76,3.76,0,0,0,1.13-.14,1.63,1.63,0,0,0,.65-.37,2.32,2.32,0,0,0,.53-.93,4.39,4.39,0,0,0,.19-1.4,3.38,3.38,0,0,0-.37-1.75,1.86,1.86,0,0,0-.91-.82,3.79,3.79,0,0,0-1.25-.15h-1.53Z"/><path class="i" d="M123.87,34.71v-1h.89v1Zm0,6.25V35.68h.89V41Z"/><path class="i" d="M125.92,39.38l.89-.14a1.27,1.27,0,0,0,.41.82,1.45,1.45,0,0,0,.95.28,1.4,1.4,0,0,0,.92-.25.74.74,0,0,0,.29-.59.54.54,0,0,0-.26-.48,3.63,3.63,0,0,0-.91-.3,7.6,7.6,0,0,1-1.36-.43,1.3,1.3,0,0,1-.58-.5,1.34,1.34,0,0,1,0-1.36,1.38,1.38,0,0,1,.43-.5,1.9,1.9,0,0,1,.57-.26,2.76,2.76,0,0,1,.77-.11,3,3,0,0,1,1.09.18,1.45,1.45,0,0,1,.7.49,1.88,1.88,0,0,1,.31.81l-.88.12a.94.94,0,0,0-.34-.63,1.28,1.28,0,0,0-.81-.23,1.52,1.52,0,0,0-.88.2.62.62,0,0,0-.26.48.45.45,0,0,0,.11.31.69.69,0,0,0,.34.24l.79.23a13.29,13.29,0,0,1,1.32.41,1.39,1.39,0,0,1,.59.47,1.34,1.34,0,0,1,.21.77,1.48,1.48,0,0,1-.26.84,1.7,1.7,0,0,1-.75.61,2.82,2.82,0,0,1-1.11.21,2.51,2.51,0,0,1-1.57-.42A2,2,0,0,1,125.92,39.38Z"/><path class="i" d="M133.43,40.16l.13.79a3.49,3.49,0,0,1-.68.07,1.56,1.56,0,0,1-.75-.15.86.86,0,0,1-.38-.4,3.31,3.31,0,0,1-.11-1.06v-3H131v-.7h.65v-1.3l.89-.54v1.84h.9v.7h-.9v3.08a1.52,1.52,0,0,0,.05.49.38.38,0,0,0,.15.18.63.63,0,0,0,.31.06Z"/><path class="i" d="M134.5,41V35.68h.8v.8a2.35,2.35,0,0,1,.57-.74,1,1,0,0,1,.57-.18,1.77,1.77,0,0,1,.92.29l-.31.83a1.25,1.25,0,0,0-.65-.19.9.9,0,0,0-.53.17,1,1,0,0,0-.33.49,3.51,3.51,0,0,0-.15,1.05V41Z"/><path class="i" d="M138.19,34.71v-1h.89v1Zm0,6.25V35.68h.89V41Z"/><path class="i" d="M142.53,40.16l.13.79A3.49,3.49,0,0,1,142,41a1.56,1.56,0,0,1-.75-.15.86.86,0,0,1-.38-.4,3.31,3.31,0,0,1-.11-1.06v-3h-.65v-.7h.65v-1.3l.89-.54v1.84h.9v.7h-.9v3.08a1.52,1.52,0,0,0,.05.49.38.38,0,0,0,.15.18.63.63,0,0,0,.31.06Z"/><path class="i" d="M147.11,40.3a3.21,3.21,0,0,1-1,.6,2.68,2.68,0,0,1-1,.17,1.93,1.93,0,0,1-1.33-.42,1.48,1.48,0,0,1-.29-1.79,1.45,1.45,0,0,1,.46-.52,2.33,2.33,0,0,1,.64-.29,5.51,5.51,0,0,1,.8-.13,8.33,8.33,0,0,0,1.59-.31c0-.12,0-.2,0-.23a1,1,0,0,0-.26-.77,1.42,1.42,0,0,0-1-.31,1.67,1.67,0,0,0-.94.22,1.38,1.38,0,0,0-.44.79l-.87-.12a2.18,2.18,0,0,1,.39-.91,1.65,1.65,0,0,1,.79-.53,3.6,3.6,0,0,1,1.2-.19,3.26,3.26,0,0,1,1.09.16,1.48,1.48,0,0,1,.62.4,1.43,1.43,0,0,1,.28.61,4.82,4.82,0,0,1,.05.82v1.2a12.69,12.69,0,0,0,.05,1.57,2.24,2.24,0,0,0,.23.64h-.94A1.88,1.88,0,0,1,147.11,40.3Zm-.08-2a7,7,0,0,1-1.46.34,3.1,3.1,0,0,0-.78.18.72.72,0,0,0-.35.29.74.74,0,0,0-.12.42.77.77,0,0,0,.27.6,1.15,1.15,0,0,0,.79.23,1.87,1.87,0,0,0,.92-.22,1.41,1.41,0,0,0,.59-.62,2.26,2.26,0,0,0,.14-.89Z"/><path class="i" d="M149.44,41V33.68h.9V41Z"/><path class="i" d="M68.47,51.1v-.66a1.66,1.66,0,0,1-1.48.78,2,2,0,0,1-1.15-.35,2.18,2.18,0,0,1-.82-1,3.23,3.23,0,0,1-.29-1.43A3.64,3.64,0,0,1,65,47a2.05,2.05,0,0,1,2-1.33,1.78,1.78,0,0,1,.85.2,1.84,1.84,0,0,1,.61.53V43.82h.89V51.1Zm-2.83-2.63A2.29,2.29,0,0,0,66.07,50a1.29,1.29,0,0,0,1,.51,1.25,1.25,0,0,0,1-.48,2.18,2.18,0,0,0,.41-1.46A2.44,2.44,0,0,0,68.07,47a1.28,1.28,0,0,0-1-.51,1.24,1.24,0,0,0-1,.49A2.42,2.42,0,0,0,65.64,48.47Z"/><path class="i" d="M74.16,49.4l.92.12a2.15,2.15,0,0,1-.81,1.25,2.73,2.73,0,0,1-3.34-.26,2.8,2.8,0,0,1-.68-2,2.87,2.87,0,0,1,.69-2.06,2.32,2.32,0,0,1,1.78-.74,2.23,2.23,0,0,1,1.72.72,2.86,2.86,0,0,1,.67,2v.23H71.18A2,2,0,0,0,71.67,50a1.45,1.45,0,0,0,1.1.47,1.38,1.38,0,0,0,.84-.26A1.75,1.75,0,0,0,74.16,49.4ZM71.23,48h2.94a1.77,1.77,0,0,0-.34-1,1.36,1.36,0,0,0-1.1-.51,1.41,1.41,0,0,0-1,.41A1.61,1.61,0,0,0,71.23,48Z"/><path class="i" d="M78.5,48.76l.91-.08a1.92,1.92,0,0,0,.3.9,1.73,1.73,0,0,0,.73.57,2.87,2.87,0,0,0,1.12.21,2.63,2.63,0,0,0,1-.16,1.39,1.39,0,0,0,.63-.45,1,1,0,0,0,.21-.62,1,1,0,0,0-.2-.6,1.4,1.4,0,0,0-.66-.43,10.67,10.67,0,0,0-1.29-.36,6.87,6.87,0,0,1-1.41-.45,2,2,0,0,1-.78-.68,1.65,1.65,0,0,1-.25-.9,1.89,1.89,0,0,1,.31-1A2,2,0,0,1,80,44a3.35,3.35,0,0,1,1.33-.25,3.72,3.72,0,0,1,1.43.26,2,2,0,0,1,1,.77,2.23,2.23,0,0,1,.36,1.14l-.93.07a1.48,1.48,0,0,0-.5-1,2,2,0,0,0-1.27-.35,2,2,0,0,0-1.27.32.94.94,0,0,0-.4.77.83.83,0,0,0,.28.65,3.77,3.77,0,0,0,1.45.51,9.7,9.7,0,0,1,1.61.47A2.12,2.12,0,0,1,84,48a1.84,1.84,0,0,1,.3,1A2,2,0,0,1,84,50.14a2.21,2.21,0,0,1-.95.8,3.38,3.38,0,0,1-1.41.29A4.2,4.2,0,0,1,80,50.94a2.25,2.25,0,0,1-1-.87A2.44,2.44,0,0,1,78.5,48.76Z"/><path class="i" d="M88.81,50.45a3.53,3.53,0,0,1-1,.6,2.94,2.94,0,0,1-1,.17,1.91,1.91,0,0,1-1.33-.42,1.5,1.5,0,0,1-.29-1.8,1.41,1.41,0,0,1,.46-.51,2,2,0,0,1,.64-.29,6.9,6.9,0,0,1,.8-.14,7.74,7.74,0,0,0,1.59-.3v-.24a1,1,0,0,0-.25-.77,1.51,1.51,0,0,0-1-.3,1.56,1.56,0,0,0-.93.22,1.39,1.39,0,0,0-.44.78l-.87-.12a2.07,2.07,0,0,1,.39-.9,1.65,1.65,0,0,1,.79-.53,3.34,3.34,0,0,1,1.19-.19,3.08,3.08,0,0,1,1.1.16,1.26,1.26,0,0,1,.9,1,5.07,5.07,0,0,1,0,.82v1.19a12.12,12.12,0,0,0,.06,1.58,1.84,1.84,0,0,0,.23.63H89A2,2,0,0,1,88.81,50.45Zm-.07-2a6.54,6.54,0,0,1-1.46.33,4.15,4.15,0,0,0-.78.18.77.77,0,0,0-.35.29.8.8,0,0,0-.13.43.76.76,0,0,0,.27.59,1.19,1.19,0,0,0,.8.24A1.8,1.8,0,0,0,88,50.3a1.49,1.49,0,0,0,.6-.62,2.32,2.32,0,0,0,.14-.9Z"/><path class="i" d="M90.86,51.1V43.82h.89V51.1Z"/><path class="i" d="M96.42,51.1v-.77a1.94,1.94,0,0,1-1.68.89,2.12,2.12,0,0,1-.87-.18,1.44,1.44,0,0,1-.6-.45,1.64,1.64,0,0,1-.27-.66,4.13,4.13,0,0,1-.06-.83V45.83h.9v2.92a5.13,5.13,0,0,0,0,1,1,1,0,0,0,.36.55,1.11,1.11,0,0,0,.67.2,1.57,1.57,0,0,0,.76-.2,1.2,1.2,0,0,0,.5-.57,3,3,0,0,0,.14-1V45.83h.9V51.1Z"/><path class="i" d="M101.9,51.1v-.66a1.63,1.63,0,0,1-1.47.78,2.08,2.08,0,0,1-1.16-.35,2.24,2.24,0,0,1-.82-1,3.38,3.38,0,0,1-.29-1.43A3.83,3.83,0,0,1,98.42,47a2.05,2.05,0,0,1,2-1.33,1.81,1.81,0,0,1,.85.2,1.72,1.72,0,0,1,.6.53V43.82h.89V51.1Zm-2.82-2.63A2.23,2.23,0,0,0,99.51,50a1.26,1.26,0,0,0,2,0,2.23,2.23,0,0,0,.41-1.46A2.44,2.44,0,0,0,101.5,47a1.28,1.28,0,0,0-1-.51,1.22,1.22,0,0,0-1,.49A2.36,2.36,0,0,0,99.08,48.47Z"/><path class="i" d="M110.07,51.1v-.66a1.66,1.66,0,0,1-1.48.78,2.1,2.1,0,0,1-1.16-.35,2.31,2.31,0,0,1-.82-1,3.38,3.38,0,0,1-.29-1.43,3.64,3.64,0,0,1,.27-1.43,2.05,2.05,0,0,1,2-1.33,1.81,1.81,0,0,1,.85.2,1.84,1.84,0,0,1,.61.53V43.82h.89V51.1Zm-2.83-2.63a2.29,2.29,0,0,0,.43,1.51,1.27,1.27,0,0,0,1,.51,1.25,1.25,0,0,0,1-.48,2.18,2.18,0,0,0,.41-1.46,2.5,2.5,0,0,0-.41-1.59,1.28,1.28,0,0,0-1-.51,1.24,1.24,0,0,0-1,.49A2.42,2.42,0,0,0,107.24,48.47Z"/><path class="i" d="M115.76,49.4l.92.12a2.15,2.15,0,0,1-.81,1.25,2.73,2.73,0,0,1-3.34-.26,2.8,2.8,0,0,1-.68-2,2.87,2.87,0,0,1,.69-2.06,2.31,2.31,0,0,1,1.77-.74,2.26,2.26,0,0,1,1.73.72,2.86,2.86,0,0,1,.67,2v.23h-3.93a2,2,0,0,0,.49,1.33,1.45,1.45,0,0,0,1.1.47,1.38,1.38,0,0,0,.84-.26A1.75,1.75,0,0,0,115.76,49.4ZM112.82,48h3a1.77,1.77,0,0,0-.34-1,1.37,1.37,0,0,0-1.11-.51,1.39,1.39,0,0,0-1,.41A1.62,1.62,0,0,0,112.82,48Z"/><path class="i" d="M120.39,51.1V43.82h2.73a3.36,3.36,0,0,1,1.34.23,1.72,1.72,0,0,1,.79.67,1.82,1.82,0,0,1,.28,1,1.6,1.6,0,0,1-.25.87,1.82,1.82,0,0,1-.77.67,1.94,1.94,0,0,1,1,.66,1.74,1.74,0,0,1,.35,1.1,2.17,2.17,0,0,1-.21.95,1.79,1.79,0,0,1-.54.68,2.14,2.14,0,0,1-.79.36,4.93,4.93,0,0,1-1.18.12Zm1-4.22h1.57a3.83,3.83,0,0,0,.92-.08,1.14,1.14,0,0,0,.56-.36,1.1,1.1,0,0,0,.18-.64,1.16,1.16,0,0,0-.17-.64.92.92,0,0,0-.5-.38,4.45,4.45,0,0,0-1.1-.1h-1.46Zm0,3.36h1.81a5,5,0,0,0,.66,0,1.54,1.54,0,0,0,.55-.2,1,1,0,0,0,.37-.41,1.2,1.2,0,0,0,.15-.61,1.21,1.21,0,0,0-.21-.71,1.09,1.09,0,0,0-.58-.42,3.66,3.66,0,0,0-1.07-.12h-1.68Z"/><path class="i" d="M126.68,48.47a2.72,2.72,0,0,1,.81-2.17,2.48,2.48,0,0,1,1.66-.59,2.38,2.38,0,0,1,1.78.71,2.72,2.72,0,0,1,.69,2,3.4,3.4,0,0,1-.31,1.6,2.2,2.2,0,0,1-.88.91,2.67,2.67,0,0,1-1.28.32,2.39,2.39,0,0,1-1.79-.71A2.84,2.84,0,0,1,126.68,48.47Zm.92,0A2.25,2.25,0,0,0,128,50a1.46,1.46,0,0,0,2.22,0,2.32,2.32,0,0,0,.44-1.54,2.23,2.23,0,0,0-.44-1.49,1.45,1.45,0,0,0-1.11-.5A1.43,1.43,0,0,0,128,47,2.28,2.28,0,0,0,127.6,48.47Z"/><path class="i" d="M132.42,51.54l.87.13a.84.84,0,0,0,.3.58,1.49,1.49,0,0,0,.91.25,1.55,1.55,0,0,0,1-.25,1.17,1.17,0,0,0,.46-.69,5.84,5.84,0,0,0,.06-1.15,1.84,1.84,0,0,1-1.46.69,2,2,0,0,1-1.68-.78,3,3,0,0,1-.6-1.88,3.4,3.4,0,0,1,.28-1.4,2.09,2.09,0,0,1,2-1.33,1.91,1.91,0,0,1,1.54.75v-.63h.82v4.56a4.24,4.24,0,0,1-.25,1.74,1.82,1.82,0,0,1-.79.81,2.76,2.76,0,0,1-1.34.3,2.57,2.57,0,0,1-1.53-.42A1.47,1.47,0,0,1,132.42,51.54Zm.74-3.17a2.34,2.34,0,0,0,.41,1.52,1.37,1.37,0,0,0,2.07,0,2.77,2.77,0,0,0,0-3,1.34,1.34,0,0,0-1-.49,1.29,1.29,0,0,0-1,.48A2.17,2.17,0,0,0,133.16,48.37Z"/><path class="i" d="M137.81,48.47a2.72,2.72,0,0,1,.81-2.17,2.46,2.46,0,0,1,1.66-.59,2.4,2.4,0,0,1,1.78.71,2.72,2.72,0,0,1,.69,2,3.52,3.52,0,0,1-.31,1.6,2.17,2.17,0,0,1-.89.91,2.63,2.63,0,0,1-1.27.32,2.37,2.37,0,0,1-1.79-.71A2.8,2.8,0,0,1,137.81,48.47Zm.91,0a2.2,2.2,0,0,0,.45,1.51,1.39,1.39,0,0,0,1.11.51,1.42,1.42,0,0,0,1.11-.51,2.32,2.32,0,0,0,.44-1.54,2.18,2.18,0,0,0-.45-1.49,1.47,1.47,0,0,0-2.21,0A2.23,2.23,0,0,0,138.72,48.47Z"/><path class="i" d="M145.53,50.3l.13.79a3.56,3.56,0,0,1-.67.08,1.57,1.57,0,0,1-.76-.15.88.88,0,0,1-.38-.41,3.23,3.23,0,0,1-.11-1v-3h-.65v-.69h.65V44.52l.89-.53v1.84h.9v.69h-.9v3.09a1.57,1.57,0,0,0,.05.49.35.35,0,0,0,.15.17.55.55,0,0,0,.31.07A2.13,2.13,0,0,0,145.53,50.3Z"/><path class="i" d="M149.81,50.45a3.53,3.53,0,0,1-.95.6,2.94,2.94,0,0,1-1,.17,1.91,1.91,0,0,1-1.33-.42,1.5,1.5,0,0,1-.29-1.8,1.41,1.41,0,0,1,.46-.51,2,2,0,0,1,.64-.29,6.9,6.9,0,0,1,.8-.14,7.74,7.74,0,0,0,1.59-.3v-.24a1,1,0,0,0-.25-.77,1.51,1.51,0,0,0-1-.3,1.56,1.56,0,0,0-.93.22,1.39,1.39,0,0,0-.44.78l-.87-.12a2.07,2.07,0,0,1,.39-.9,1.65,1.65,0,0,1,.79-.53,3.34,3.34,0,0,1,1.19-.19,3.08,3.08,0,0,1,1.1.16,1.26,1.26,0,0,1,.9,1,5.07,5.07,0,0,1,0,.82v1.19a12.12,12.12,0,0,0,.06,1.58,1.84,1.84,0,0,0,.23.63H150A2,2,0,0,1,149.81,50.45Zm-.07-2a6.54,6.54,0,0,1-1.46.33,4.15,4.15,0,0,0-.78.18.77.77,0,0,0-.35.29.8.8,0,0,0-.13.43.76.76,0,0,0,.27.59,1.19,1.19,0,0,0,.8.24,1.8,1.8,0,0,0,.91-.22,1.49,1.49,0,0,0,.6-.62,2.32,2.32,0,0,0,.14-.9ZM148,45.17l.66-1.39h1.17l-1.09,1.39Z"/><rect class="i" x="65.76" y="27.01" width="84.13" height="0.92"/></g></g></svg>