<svg xmlns="http://www.w3.org/2000/svg" xmlns:xlink="http://www.w3.org/1999/xlink" viewBox="0 0 316.29 224.08"><defs><style>.a{isolation:isolate;}.b,.c,.d{opacity:0.4;}.b{fill:url(#a);}.c{fill:url(#b);}.d{fill:url(#c);}.e{fill:#e2b79c;}.f{fill:#1ec1ea;}.g{fill:#f9d651;}.h{fill:#b19d90;}.i{fill:#644a34;}.j,.w{fill:#f5f1e5;}.k,.l,.m,.n,.o,.p,.q,.r,.s,.t,.u,.v{fill-rule:evenodd;}.k{fill:url(#d);}.l{fill:url(#e);}.m{fill:url(#f);}.n{fill:url(#g);}.o{fill:url(#h);}.p{fill:#fdce9b;}.q{fill:url(#i);}.r{fill:#fdcf9b;}.s{fill:url(#j);}.t{fill:url(#k);}.u{fill:#5f2d22;}.v{fill:#fffaf7;}.ak,.w{mix-blend-mode:multiply;}.x{fill:#342f34;}.y{fill:#ef5c8b;}.z{fill:#ed3f7b;}.aa{fill:#f8d9bf;}.ab{fill:#f9d8be;}.ac{fill:#125b77;}.ad{fill:#2dbfcd;}.ae{fill:#f8d8bf;}.af{fill:#f8d8be;}.ag{fill:#ddc35b;}.ah{opacity:0.9;}.ai{fill:#41bbec;}.aj{fill:#98cb69;}.ak{fill:#f6a19b;}.al{fill:#f6fafd;}.am{fill:#fbb663;}.an{opacity:0.65;}.ao{fill:#896843;}.ap{fill:#fae4ba;}</style><linearGradient id="a" x1="275.21" y1="204.27" x2="265.35" y2="172.48" gradientUnits="userSpaceOnUse"><stop offset="0" stop-color="#79a5b2" stop-opacity="0"/><stop offset="1" stop-opacity="0.3"/></linearGradient><linearGradient id="b" x1="358.51" y1="535.56" x2="358.51" y2="507.02" gradientTransform="matrix(0.99, -0.11, 0.11, 0.99, -335.61, -275.09)" xlink:href="#a"/><linearGradient id="c" x1="677.66" y1="897.57" x2="677.66" y2="864.99" gradientTransform="matrix(0.97, -0.23, 0.23, 0.97, -713.29, -505.9)" xlink:href="#a"/><linearGradient id="d" x1="229.1" y1="267.12" x2="245.31" y2="267.12" gradientTransform="translate(-96.08 -86.12) rotate(-1.94)" gradientUnits="userSpaceOnUse"><stop offset="0" stop-color="#b96a2e"/><stop offset="1" stop-color="#d27836"/></linearGradient><linearGradient id="e" x1="197.06" y1="266.12" x2="210.74" y2="266.12" gradientTransform="translate(-96.08 -86.12) rotate(-1.94)" gradientUnits="userSpaceOnUse"><stop offset="0" stop-color="#d27836"/><stop offset="1" stop-color="#b96a2e"/></linearGradient><linearGradient id="f" x1="218.91" y1="283.29" x2="232.11" y2="283.29" xlink:href="#d"/><linearGradient id="g" x1="206.23" y1="284.14" x2="219.41" y2="284.14" gradientTransform="translate(-96.08 -86.12) rotate(-1.94)" gradientUnits="userSpaceOnUse"><stop offset="0" stop-color="#e7823c"/><stop offset="1" stop-color="#d27836"/></linearGradient><linearGradient id="h" x1="204.21" y1="267.42" x2="233.42" y2="267.42" gradientTransform="translate(-96.08 -86.12) rotate(-1.94)" gradientUnits="userSpaceOnUse"><stop offset="0" stop-color="#d27836"/><stop offset="1" stop-color="#e7823c"/></linearGradient><linearGradient id="i" x1="228.25" y1="226.85" x2="246.12" y2="226.85" xlink:href="#h"/><linearGradient id="j" x1="191.43" y1="227.25" x2="210.59" y2="227.25" xlink:href="#g"/><linearGradient id="k" x1="202.94" y1="230.99" x2="238.69" y2="255.11" gradientTransform="translate(-96.08 -86.12) rotate(-1.94)" gradientUnits="userSpaceOnUse"><stop offset="0" stop-color="#f58b41"/><stop offset="0.34" stop-color="#ee873f"/><stop offset="0.85" stop-color="#d97c38"/><stop offset="1" stop-color="#d27836"/></linearGradient></defs><g class="a"><path class="b" d="M231.89,176.49l15.3,18.68s-9,14.61,8.1,14.61,59.38-1.62,53.08-9.74-37.79-9.74-37.79-9.74l-4.5-9.75-10.79-2.43-2.7,7.3-11.7-8.93Z"/><path class="c" d="M39,201.15,56.3,214.42s2.44,8.55,19.43,6.66,49.08-1.21,41.92-8.58S79,207,79,207l-8.25-12.78-8.3,2.37-1.87,7.56L48,196.56Z"/><path class="d" d="M120.79,198.89l10.51,8.7s11.95,19.21,25.06,16.16,21.14-13.9,14.87-19-18.18-4.89-18.18-4.89l-9.7-4.64-5.54-.6.43,7.44-10.56-4.76Z"/><path class="e" d="M249.31,137.92c-5.11-3.14-13.15-5.25-13.86-3.79s-.69,4.23,3,3.93,4,3.21,7.31,4.37C250.29,144,254.47,141.1,249.31,137.92Z"/><path class="e" d="M265.81,142.08c-.18,15.7-4.73,28-4.28,29.63s8.66,8.65.7,8-8.58-4.39-8.34-9.7a52.93,52.93,0,0,0,.05-6.92l-6.35-.83s-3.47,6-4.63,8.05-3.73,5.45-10.74,1.9c-5.21-2.63.41-3.17,2.92-5.72s6.19-18.89,11.25-30.64C259.67,130.88,265.81,142.08,265.81,142.08Z"/><path class="f" d="M240,154.21l23.95,5.63c-.56,2.91-1.14,5.41-1.59,7.35a77,77,0,0,1-8.32,0,35.06,35.06,0,0,0-.05-4.07l-6.35-.83-1.88,3.24a24.1,24.1,0,0,1-7.93-4.7C238.45,158.91,239.17,156.65,240,154.21Z"/><path class="g" d="M246.39,135.87c13.28-5,19.42,6.21,19.42,6.21a105.71,105.71,0,0,1-2.69,21.55c-5.41-.15-16.86-1-24.56-5.11C240.68,152.09,243.27,143.11,246.39,135.87Z"/><rect class="h" x="224.02" y="-0.85" width="6.93" height="182.54" transform="translate(-13 44.69) rotate(-10.91)"/><path class="e" d="M297.46,119.56c12.24.29,10.53,26-2.51,14.26-9.7,8.34-18.95,12.72-42,4.21s-26.57-18.78-26.64-23C215,117.66,217,96.72,225,101.88,239.21,62.71,309.54,83.05,297.46,119.56Z"/><path class="i" d="M279,127.77c-.68,2.09-.11,4.16,1.29,4.61s3.09-.87,3.77-3,.1-4.17-1.29-4.62S279.66,125.67,279,127.77Z"/><path class="i" d="M238.77,116.08c-.68,2.1-.1,4.16,1.29,4.62s3.09-.87,3.77-3,.11-4.16-1.29-4.62S239.46,114,238.77,116.08Z"/><path class="i" d="M263.29,132.05c-1.85,5-11.14,3.24-8.72-3.25"/><polygon class="j" points="169.25 15.96 179.58 77.47 271.62 63.86 264.1 0 169.25 15.96"/><path class="k" d="M144.08,166.23c2.56,2.39,4.2,5,8,4.07s7.07,2.86,5.76,5.38-5.8,7.17-12.7.12S144.08,166.23,144.08,166.23Z"/><rect class="h" x="101.08" y="127.43" width="108.82" height="4.24" transform="translate(19.18 279.15) rotate(-87.46)"/><polygon class="j" points="129.65 79.56 130.5 120.44 185.91 121.69 187.79 79.59 129.65 79.56"/><path class="l" d="M119.22,164.28c-3.2,1.81-12.94,7.1-7.91,13.75,4,5.25,7.85,3,7.85,3l4.11-16Z"/><path class="m" d="M141.65,181.35c.14,4.18.77,9.12,2.37,10.77s3.25,4.38-1.38,5-9.34-1.39-10-3.38.12-10.08.12-10.08Z"/><path class="n" d="M123.11,183.37a47.73,47.73,0,0,1-2.16,9.21c-.71,2-3.23,5.38,2.66,5.49s9.42-.93,9.26-5.89-.24-7-.24-7Z"/><path class="o" d="M121.25,164.83c-3.24,4.92-9.39,18.58,5.07,21.68,10,2.15,15.41-2.69,17.21-4.3s5.37-10.87-.63-18.73S121.25,164.83,121.25,164.83Z"/><path class="p" d="M124.84,165.64c-1.16,2.36-8.62,15.64,0,18.44s16.22-1.13,17.06-4.45c1.23-4.84-.38-11.14-2.63-13.55S124.84,165.64,124.84,165.64Z"/><path class="q" d="M139.63,130.77c.73-4,6.8-11.27,13.38-5.75s4.63,10.77,2.88,12.61-8.43,4.56-8.43,4.56Z"/><path class="r" d="M141.12,134.36c.7-3.67,3.8-9.41,8.06-5.54s4,7.9-.54,9.6S141.12,134.36,141.12,134.36Z"/><path class="s" d="M111.84,143.29c-4-.17-12.11-5.16-7.55-12.45s10-6.07,12.09-4.59,5.69,7.71,5.69,7.71Z"/><path class="r" d="M115.18,141.32c-3.72-.18-9.84-2.45-6.59-7.21s7.27-5.05,9.58-.79S115.18,141.32,115.18,141.32Z"/><path class="t" d="M126.59,166.82c-5.43,0-25.58-4.71-17.86-19.39s20.07-20.67,20.84-20.85l-.26,1.56s6.48-.84,9.11-.93a6.13,6.13,0,0,0-.85,2.35s7.28-.09,9.25,3.1c-1.85.22-3.55.59-3.55.59s18,20.31,6.68,27.82S137.45,171.72,126.59,166.82Z"/><path class="u" d="M132,154.71c1-.89,4.07-1,5.11-.18.33.61-1.75,3.24-2.45,3.18S131.79,155.64,132,154.71Z"/><path class="u" d="M117.1,152.26c.48-2.21,3.23-3.21,4.18-.37C119.77,151,118.85,151.2,117.1,152.26Z"/><path class="u" d="M143.4,150.6c.39-2.2,2.73-3.19,3.55-.35C145.67,149.36,144.88,149.54,143.4,150.6Z"/><path class="v" d="M134.69,163.69c-2.68-1.62-3.64-2.36-3.64-2.36s-3.89-.49-1.31,2.37C131.33,164.88,134.69,163.69,134.69,163.69Z"/><polygon class="w" points="142.07 79.57 129.65 79.56 130.29 110.46 136.52 111.4 142.07 79.57"/><path class="x" d="M236.07,89.67s-8.41,22.42-9.15,24.41-3.46,9.21-10.49,1.46-.13-17.09,2.3-23.56,20.08-30.82,41.49-27.34S296.71,74.91,303.53,84s15,24.38,6.85,42.34-12.95,17.87-16.9,17.81-7.54,1.15-5.23-6.51,8-26.55,8-26.55-19.95-4.36-23.59-6a24.41,24.41,0,0,0-.84-4.58l-2.56,3s-14.6-3.48-19.14-5.76c.28-3,.65-6.28.65-6.28l-3,5.1S242.76,95.31,236.07,89.67Z"/><path class="y" d="M304.4,88.87c2.55.09,9-12.5-2.68-12.93-2.52-.1-5.73,2.4-6.91,4.79S295.28,88.58,304.4,88.87Z"/><path class="y" d="M305.61,89c-2.55-.08-8.19,11.37,3.52,11.81,2.52.09,5.73-2.4,6.91-4.8S314.32,89.32,305.61,89Z"/><path class="y" d="M306.89,92.08c-1.79.61-8.92-.08-5.32-6.26s8.9,2.77,7.11,4.52Z"/><path class="z" d="M249.89,155c-4.19-5.56-4.49-7.78-4.19-9s4.65-4,6.16-.61c3.19-.7,6.83.21,6.07,3.24C257,152.31,249.89,155,249.89,155Z"/><path class="e" d="M248.25,147.67c-5.86,1.31-14.14.69-14.34-.92s.73-4.23,4.12-2.74,4.87-1.72,8.34-1.75C251.16,142.21,254.17,146.34,248.25,147.67Z"/><path class="aa" d="M56,158.91c5.25-2.91,13.38-4.65,14-3.16s.49,4.26-3.18,3.79-4.19,3-7.51,4C54.78,165,50.73,161.85,56,158.91Z"/><path class="ab" d="M39.36,162.31c-.54,15.69,3.45,28.19,2.92,29.79s-9,8.25-1.06,8,8.78-4,8.78-9.31a53.57,53.57,0,0,1,.26-6.92l6.39-.53s3.19,6.12,4.25,8.25,3.47,5.62,10.64,2.39c5.32-2.39-.26-3.19-2.66-5.85S63.56,169,59,157C46,151.4,39.36,162.31,39.36,162.31Z"/><path class="ac" d="M64.64,175.6l-24.19,4.54c.43,2.94.9,5.45,1.27,7.42a77.17,77.17,0,0,0,8.3.36,37.79,37.79,0,0,1,.24-4.07l6.39-.53,1.72,3.33a24.18,24.18,0,0,0,8.13-4.35C65.92,180.37,65.31,178.08,64.64,175.6Z"/><path class="ad" d="M59,157c-13-5.59-19.68,5.32-19.68,5.32A104.79,104.79,0,0,0,41.07,184c5.41.09,16.88-.23,24.76-4C64,173.46,61.83,164.37,59,157Z"/><rect class="h" x="-9.56" y="105.33" width="178.1" height="6.93" transform="translate(-41.32 168.46) rotate(-80.13)"/><path class="ae" d="M56.65,168.69c5.78,1.58,14.09,1.33,14.36-.27s-.53-4.25-4-2.92-4.78-1.94-8.25-2.13C54,163.11,50.79,167.1,56.65,168.69Z"/><path class="af" d="M8.76,138.37c-12.23-.27-11.7,25.53,1.87,14.36,9.31,8.78,18.35,13.57,41.76,6.12S79.79,141.29,80.05,137c11.18,3.19,10.11-17.82,1.87-13C69.41,111.24,11.43,101.13,8.76,138.37Z"/><path class="i" d="M26.85,147.41c.59,2.13-.08,4.16-1.5,4.56s-3-1-3.62-3.14.08-4.16,1.5-4.55S26.27,145.29,26.85,147.41Z"/><path class="i" d="M67.55,137.57c.59,2.13-.08,4.16-1.5,4.55s-3-1-3.62-3.13.08-4.17,1.5-4.56S67,135.45,67.55,137.57Z"/><path class="i" d="M42.33,152.4c1.63,5.07,11,3.74,8.87-2.84"/><path class="ag" d="M6.61,142.88C4.25,138.43.1,126.58,8,116.47c6.42-8.23,20.4-18.28,38.29-18.49s31.14,8.58,32.9,19.16c1.71,10.28-1.66,14.89-5.65,9.67-1.75.34-3.52.53-4.88-2.21-2.45,1.75-6.14-1.95-6.13-3.54-1.53,1.41-4.14-.13-5.79-1.86-1.22,1.35-4.29,2.43-5.92.85-.64,3.45-6.89,2.63-7.19,1.1,0,2.54-5.15,3.87-6.23.92-1.28,1.84-4.12,4.14-6.5,2.08.6,3.84-7.25,4.91-7.27,4,2,2-2.44,3.49-3.15,2.36-.72,2.2-3.78,5-5.39,4.39,1.33,3.38-4,4.9-4,4.9C11.6,143.16,9.41,148.14,6.61,142.88Z"/><polygon class="j" points="48 22.26 40.83 88.78 130.52 102.4 142.38 34.47 48 22.26"/><g class="ah"><path class="ai" d="M114.16,61.14a25,25,0,1,1-25-25A25,25,0,0,1,114.16,61.14Z"/><path class="aj" d="M105.68,67.88A6,6,0,0,0,104,69c-.34,1.5-1.5,7.49-.34,6.82s2.67-6.15,2.67-6.15S106.51,67.54,105.68,67.88Z"/><path class="aj" d="M73.24,69.38c.33,4,4.16,4,4.16,8.31s2.5,5.66,2.5,4.83,3-3.66,4.65-4.49,2.66-4.66.84-5a8.38,8.38,0,0,1-5-3.83c-1.33-2-3.82-.83-4.49-1.83s-4.49-2.33-5.82-3,2.5-1.82,3.83-1.82,0-5.16,1.49-5.83,1.33-3.66,1.33-4.65-2.49-2.33-3.49-2.83c-1.17,3.82-1.66,1.33-3.16,3.16s1-4.66,1.16-5.49c.14-.67-.69-1.76-1-2.16a24.9,24.9,0,0,0-6.13,16.38c0,.49,0,1,.07,1.45l1.26,1a34.52,34.52,0,0,1,4.16,3.83C70.41,68.54,72.91,65.38,73.24,69.38Z"/><path class="aj" d="M103.9,41c-1.91,1.42-2.48,1.12-4.54.8s-6.49-2-6.82.17-1.83,3.16.5,4.65,0,2.5-1.17,2.5-5.82,7-5.32,10.31,1.66,4.83,3.66,5,5.49,2.83,5.49,6.16,0,7,2.16,5.49A12,12,0,0,0,102,69.54c.17-1.5,3-6.15,2.33-6.49s-3.49,0-4.49-1.66-1.34-5.49-.17-4.49,2.5,2.83,4.16,4.32,1.33-3.32,1.83-4.82c2.83,1.5,4.82,4,6.49,2.66.52-.42,1.13-.88,1.74-1.32A25,25,0,0,0,103.9,41Z"/><path class="aj" d="M75.57,45.25c.66.5,5.65,3.66,6.15,4.83s2.5,1.33,2.33-1.17.5-6.49,1.17-7.65,2.33-3.16-1.17-3.66a13.89,13.89,0,0,0-3.52,0,24.81,24.81,0,0,0-5.1,2.55C75.28,42,75.12,44.91,75.57,45.25Z"/><path class="aj" d="M88.38,42.26c-.83.5-1.83,3.16-1.83,3.16,1.83,1,3-.33,3.16-1.66S89.21,41.76,88.38,42.26Z"/></g><polygon class="w" points="173.58 87.47 187.53 85.41 187.79 79.59 172.26 79.59 173.58 87.47"/><path class="ak" d="M226.66,58.8c15.13-20.89,16.09-29.14,14.88-33.6s-18.74-12.84-24.1-.2c-9-5.74-24-.36-21,10.81C200.09,49.23,226.66,58.8,226.66,58.8Z"/><path class="al" d="M149.08,100.13c-.29.45-2.06,3.87-1.13,6.81a24.52,24.52,0,0,0,11.44,2.75,39.08,39.08,0,0,0,10.19-1.81,9.13,9.13,0,0,0-.76-7.24,67.77,67.77,0,0,1-11.35.81C155.29,101.42,150.51,100.78,149.08,100.13Z"/><path class="am" d="M150.26,91.76c0,1.72-3.84,7.35-3.79,12.18a16.11,16.11,0,0,0,2.64,8.42s7.27,5.26,19,.73c2.52-3.64,3.3-5.87,3.23-9.14s-3.54-9.35-3.56-11.48-5.37-2.31-9-2.37S150.29,90,150.26,91.76Z"/><g class="an"><path class="ao" d="M154.12,108.05a.51.51,0,0,1-.5-.49,33.91,33.91,0,0,1,.37-4.35c-.49.29-1.05.65-1.38.9a.58.58,0,0,1-.4.09.51.51,0,0,1-.33-.24c-.07-.12-.24-.33-.41-.56s-.17-.22-.24-.32a24.69,24.69,0,0,0-.52,3.88.52.52,0,0,1-.49.51.48.48,0,0,1-.51-.5c0-.23.39-5.18,1.18-5.52a.51.51,0,0,1,.42,0,.51.51,0,0,1,.26.33,7.34,7.34,0,0,0,.69,1l.17.22a12.6,12.6,0,0,1,2-1.14.49.49,0,0,1,.48.08.51.51,0,0,1,.19.46l-.09.65a37.23,37.23,0,0,0-.4,4.48.5.5,0,0,1-.49.51Z"/><path class="ao" d="M166,107.88a.57.57,0,0,1-.28-.08.53.53,0,0,1-.22-.37c-.1-1-.43-4.18-.47-5a.5.5,0,0,1,.48-.52.47.47,0,0,1,.52.47c0,.68.27,3,.41,4.42l.53-.11a7.74,7.74,0,0,0,1.74-.47.49.49,0,0,1,.66.25.5.5,0,0,1-.25.66,8.26,8.26,0,0,1-2,.54c-.35.07-.69.13-1,.23Z"/><path class="ao" d="M162.34,108.3c-.49,0-1,0-1.54,0a.52.52,0,0,1-.49-.46c0-.32,0-.63,0-1s0-.63,0-.94-.07-.71-.12-1.07a10,10,0,0,1-.15-2,.5.5,0,0,1,.5-.47h.15a12.52,12.52,0,0,0,1.57-.14c.52-.06,1.06-.13,1.61-.14a.49.49,0,0,1,.5.49.5.5,0,0,1-.49.51,13.22,13.22,0,0,0-1.5.13c-.44.06-.89.12-1.34.14a10.36,10.36,0,0,0,.14,1.33c.05.38.1.76.13,1.14s0,.65,0,1c0,.16,0,.31,0,.46a8.62,8.62,0,0,0,2.78-.17.5.5,0,0,1,.67.23.51.51,0,0,1-.22.67A5.56,5.56,0,0,1,162.34,108.3Z"/><path class="ao" d="M160.74,105.86a.5.5,0,0,1-.06-1c.38-.05.78-.08,1.17-.1a6.92,6.92,0,0,0,1.52-.19.49.49,0,0,1,.64.29.52.52,0,0,1-.3.65,7.8,7.8,0,0,1-1.8.25c-.36,0-.75,0-1.11.09Z"/><path class="ao" d="M158.32,103.34c-.33,0-.66,0-1,0s-.69,0-1,0a.5.5,0,0,1,0-1c.38,0,.74,0,1.11,0s.69,0,1,0h0a.5.5,0,0,1,0,1Z"/><path class="ao" d="M158.23,108.36a11.17,11.17,0,0,1-1.21-.08,5.5,5.5,0,0,0-.77,0,.5.5,0,0,1-.5-.49.49.49,0,0,1,.49-.51,5.81,5.81,0,0,1,.88.06,8.64,8.64,0,0,0,1.37.06.49.49,0,0,1,.52.48.49.49,0,0,1-.47.52Z"/><path class="ao" d="M157.41,108.26h0a.5.5,0,0,1-.48-.52c.05-1.17,0-3.67,0-5a.51.51,0,0,1,.49-.51.48.48,0,0,1,.51.49c0,1.3,0,3.83,0,5A.5.5,0,0,1,157.41,108.26Z"/></g><path class="ap" d="M147.58,98.64c-.28,2,.16,6.38,2.34,4.82s1.45-4,1.47-5,0-3.1,1.81-2.88,1.56,1.8,1.55,2.64-.17,2.91.79,2.73,1.22-1.29,1-2.23-1.46-4.52-.25-4.79,1.78-.07,2.08.88,1,2.54,1,2.54.69,1,1.59-.44,1.06-2.71,1.94-2.69,3,1.72,3.73,1.27,2.11-1.47,2.13-2.79-19.5-1.77-19.5-1.77Z"/><path class="ao" d="M148.88,92.2c0-.73,0-1.74,0-2.64.08-1.2.4-2.23,2.1-2.21,3,.05,16.87.42,16.87.42s1.21.07,1.18,1.79,0,2.82,0,2.82Z"/></g></svg>