<svg xmlns="http://www.w3.org/2000/svg" xmlns:xlink="http://www.w3.org/1999/xlink" viewBox="0 0 1739 295.7"><defs><style>.a{fill:#b0c26f;}.b{fill:#9caa61;}.c{fill:#817b5d;}.d{fill:#80a455;}.e{opacity:0.3;fill:url(#a);}.f{fill:#fcd445;}.g{fill:#ac694f;}.h{fill:#fcd771;}.i{fill:#8aa06a;}.j{fill:#e2b79c;}.k{fill:#28aec0;}.l{fill:#ee4131;}.m{fill:#644a34;}.n{fill:#342f34;}.o{fill:#8f5d54;}</style><linearGradient id="a" x1="14684.46" y1="3126.32" x2="14684.46" y2="3100.97" gradientTransform="translate(-13569.86 -545.29) rotate(-8.8)" gradientUnits="userSpaceOnUse"><stop offset="0" stop-color="#79a5b2" stop-opacity="0"/><stop offset="0.01" stop-color="#79a5b2" stop-opacity="0.02"/><stop offset="0.2" stop-color="#79a5b2" stop-opacity="0.32"/><stop offset="0.38" stop-color="#79a5b2" stop-opacity="0.56"/><stop offset="0.56" stop-color="#79a5b2" stop-opacity="0.75"/><stop offset="0.72" stop-color="#79a5b2" stop-opacity="0.89"/><stop offset="0.87" stop-color="#79a5b2" stop-opacity="0.97"/><stop offset="1" stop-color="#79a5b2"/></linearGradient></defs><path class="a" d="M-1,227.7v69H1740V227.59c-112.83,1.58-190.07-21.17-355-14.89C1015.83,226.76,667.58,240.24,399.16,240,228.42,239.91,90,227.7-1,227.7Z"/><path class="b" d="M1302.7,185.47c0,10.52-7.62,18.55-16.41,18.55s-14.7-7.57-15.42-18.05c-.82-12,3.61-19.63,15.42-20C1296.14,165.62,1302.7,175,1302.7,185.47Z"/><polygon class="c" points="1285.14 174.15 1283.5 219.77 1289.08 220.1 1288.42 173.82 1285.14 174.15"/><polygon class="c" points="1276.12 192.2 1284.62 198.76 1285.14 196.3 1276.64 191.54 1276.12 192.2"/><polygon class="c" points="1296.3 193.02 1288.26 199.59 1287.77 197.12 1295.81 192.37 1296.3 193.02"/><polygon class="c" points="1294.83 185.16 1288.02 190.23 1287.6 188.33 1294.41 184.65 1294.83 185.16"/><polygon class="c" points="1277.76 185.16 1284.87 190.23 1285.31 188.33 1278.19 184.65 1277.76 185.16"/><polygon class="c" points="1293.35 179.09 1288.11 182.52 1287.79 181.23 1293.03 178.75 1293.35 179.09"/><polygon class="c" points="1280.22 179.09 1285.45 182.52 1285.77 181.23 1280.54 178.75 1280.22 179.09"/><path class="b" d="M1234.06,193.28c0,8.54-6.18,15.06-13.32,15.06s-12-6.15-12.53-14.66c-.67-9.73,2.93-15.94,12.53-16.26C1228.73,177.15,1234.06,184.74,1234.06,193.28Z"/><polygon class="c" points="1219.8 184.08 1218.47 221.13 1223 221.4 1222.47 183.82 1219.8 184.08"/><polygon class="c" points="1212.47 198.74 1219.38 204.07 1219.8 202.07 1212.9 198.21 1212.47 198.74"/><polygon class="c" points="1228.87 199.41 1222.33 204.74 1221.93 202.74 1228.46 198.87 1228.87 199.41"/><polygon class="c" points="1227.66 193.02 1222.14 197.14 1221.8 195.6 1227.33 192.61 1227.66 193.02"/><polygon class="c" points="1213.81 193.02 1219.58 197.14 1219.94 195.6 1214.16 192.61 1213.81 193.02"/><polygon class="c" points="1226.46 188.09 1222.21 190.88 1221.96 189.83 1226.21 187.81 1226.46 188.09"/><polygon class="c" points="1215.81 188.09 1220.06 190.88 1220.32 189.83 1216.07 187.81 1215.81 188.09"/><path class="d" d="M1361.81,166c0,18.25-13.22,32.19-28.48,32.19s-25.53-13.13-26.78-31.33c-1.42-20.8,6.27-34.07,26.78-34.76C1350.42,131.52,1361.81,147.74,1361.81,166Z"/><polygon class="c" points="1331.34 146.34 1328.49 225.53 1338.17 226.1 1337.03 145.77 1331.34 146.34"/><polygon class="c" points="1315.67 177.67 1330.43 189.06 1331.34 184.79 1316.57 176.53 1315.67 177.67"/><polygon class="c" points="1350.71 179.09 1336.75 190.49 1335.89 186.22 1349.85 177.96 1350.71 179.09"/><polygon class="c" points="1348.14 165.45 1336.33 174.25 1335.61 170.95 1347.42 164.57 1348.14 165.45"/><polygon class="c" points="1318.52 165.45 1330.86 174.25 1331.62 170.95 1319.27 164.57 1318.52 165.45"/><polygon class="c" points="1345.58 154.91 1336.49 160.86 1335.94 158.63 1345.02 154.31 1345.58 154.91"/><polygon class="c" points="1322.79 154.91 1331.87 160.86 1332.43 158.63 1323.35 154.31 1322.79 154.91"/><path class="d" d="M1071.82,193.08c0,10.68-7.74,18.84-16.67,18.84s-14.94-7.68-15.67-18.34c-.84-12.17,3.67-19.93,15.67-20.33C1065.15,172.91,1071.82,182.4,1071.82,193.08Z"/><polygon class="c" points="1053.98 181.58 1052.31 227.92 1057.98 228.26 1057.31 181.25 1053.98 181.58"/><polygon class="c" points="1044.81 199.92 1053.45 206.59 1053.98 204.09 1045.34 199.25 1044.81 199.92"/><polygon class="c" points="1065.31 200.75 1057.15 207.42 1056.65 204.92 1064.81 200.08 1065.31 200.75"/><polygon class="c" points="1063.81 192.76 1056.9 197.92 1056.48 195.99 1063.39 192.25 1063.81 192.76"/><polygon class="c" points="1046.48 192.76 1053.7 197.92 1054.15 195.99 1046.92 192.25 1046.48 192.76"/><polygon class="c" points="1062.31 186.6 1057 190.08 1056.67 188.78 1061.99 186.25 1062.31 186.6"/><polygon class="c" points="1048.98 186.6 1054.3 190.08 1054.62 188.78 1049.3 186.25 1048.98 186.6"/><path class="d" d="M1210.34,183.37c0,11.85-8.58,20.89-18.48,20.89s-16.57-8.52-17.38-20.33c-.93-13.5,4.07-22.12,17.38-22.56C1203,161,1210.34,171.53,1210.34,183.37Z"/><polygon class="c" points="1190.56 170.62 1188.71 222.01 1195 222.38 1194.26 170.25 1190.56 170.62"/><polygon class="c" points="1180.39 190.95 1189.98 198.35 1190.56 195.57 1180.98 190.21 1180.39 190.95"/><polygon class="c" points="1203.13 191.88 1194.08 199.27 1193.52 196.5 1202.58 191.14 1203.13 191.88"/><polygon class="c" points="1201.47 183.02 1193.81 188.73 1193.34 186.59 1201 182.45 1201.47 183.02"/><polygon class="c" points="1182.24 183.02 1190.26 188.73 1190.75 186.59 1182.73 182.45 1182.24 183.02"/><polygon class="c" points="1199.81 176.18 1193.91 180.04 1193.55 178.59 1199.45 175.79 1199.81 176.18"/><polygon class="c" points="1185.02 176.18 1190.91 180.04 1191.27 178.59 1185.38 175.79 1185.02 176.18"/><path class="d" d="M1271,183.26c0,11.84-8.58,20.89-18.49,20.89s-16.57-8.52-17.38-20.34c-.92-13.49,4.07-22.11,17.38-22.55C1263.62,160.89,1271,171.42,1271,183.26Z"/><polygon class="c" points="1251.23 170.5 1249.38 221.9 1255.67 222.27 1254.93 170.13 1251.23 170.5"/><polygon class="c" points="1241.06 190.84 1250.64 198.24 1251.23 195.46 1241.65 190.1 1241.06 190.84"/><polygon class="c" points="1263.8 191.76 1254.74 199.16 1254.19 196.39 1263.24 191.03 1263.8 191.76"/><polygon class="c" points="1262.14 182.91 1254.47 188.62 1254 186.48 1261.67 182.34 1262.14 182.91"/><polygon class="c" points="1242.91 182.91 1250.92 188.62 1251.41 186.48 1243.4 182.34 1242.91 182.91"/><polygon class="c" points="1260.47 176.07 1254.58 179.93 1254.21 178.48 1260.11 175.68 1260.47 176.07"/><polygon class="c" points="1245.68 176.07 1251.58 179.93 1251.94 178.48 1246.04 175.68 1245.68 176.07"/><path class="d" d="M1180.37,175.93c0,18.25-13.23,32.19-28.49,32.19s-25.53-13.13-26.78-31.33c-1.42-20.8,6.27-34.07,26.78-34.76C1169,141.47,1180.37,157.68,1180.37,175.93Z"/><polygon class="c" points="1149.89 156.28 1147.04 235.47 1156.72 236.04 1155.58 155.71 1149.89 156.28"/><polygon class="c" points="1134.22 187.61 1148.98 199 1149.89 194.73 1135.12 186.47 1134.22 187.61"/><polygon class="c" points="1169.26 189.03 1155.3 200.43 1154.44 196.16 1168.4 187.9 1169.26 189.03"/><polygon class="c" points="1166.69 175.39 1154.88 184.19 1154.16 180.89 1165.97 174.51 1166.69 175.39"/><polygon class="c" points="1137.07 175.39 1149.41 184.19 1150.17 180.89 1137.82 174.51 1137.07 175.39"/><polygon class="c" points="1164.13 164.85 1155.04 170.81 1154.49 168.57 1163.57 164.25 1164.13 164.85"/><polygon class="c" points="1141.34 164.85 1150.42 170.81 1150.98 168.57 1141.9 164.25 1141.34 164.85"/><path class="b" d="M1112.41,180.56c0,14.3-10.36,25.22-22.32,25.22s-20-10.28-21-24.55c-1.12-16.29,4.91-26.69,21-27.22C1103.48,153.56,1112.41,166.27,1112.41,180.56Z"/><polygon class="c" points="1088.53 165.17 1086.3 227.21 1093.88 227.65 1092.99 164.72 1088.53 165.17"/><polygon class="c" points="1076.26 189.72 1087.82 198.64 1088.53 195.29 1076.96 188.82 1076.26 189.72"/><polygon class="c" points="1103.71 190.83 1092.77 199.75 1092.1 196.41 1103.04 189.94 1103.71 190.83"/><polygon class="c" points="1101.7 180.14 1092.44 187.04 1091.88 184.45 1101.13 179.45 1101.7 180.14"/><polygon class="c" points="1078.49 180.14 1088.16 187.04 1088.75 184.45 1079.08 179.45 1078.49 180.14"/><polygon class="c" points="1099.69 171.88 1092.57 176.55 1092.13 174.8 1099.25 171.41 1099.69 171.88"/><polygon class="c" points="1081.84 171.88 1088.95 176.55 1089.39 174.8 1082.27 171.41 1081.84 171.88"/><path class="b" d="M1431.06,192.53c0,8.52-6.18,15-13.32,15s-12-6.13-12.53-14.63c-.67-9.7,2.93-15.9,12.53-16.22C1425.73,176.45,1431.06,184,1431.06,192.53Z"/><polygon class="c" points="1416.8 183.36 1415.47 220.32 1420 220.58 1419.47 183.09 1416.8 183.36"/><polygon class="c" points="1409.47 197.98 1416.38 203.3 1416.8 201.31 1409.9 197.45 1409.47 197.98"/><polygon class="c" points="1425.87 198.65 1419.33 203.97 1418.93 201.97 1425.46 198.12 1425.87 198.65"/><polygon class="c" points="1424.66 192.28 1419.14 196.39 1418.8 194.85 1424.33 191.87 1424.66 192.28"/><polygon class="c" points="1410.81 192.28 1416.58 196.39 1416.94 194.85 1411.16 191.87 1410.81 192.28"/><polygon class="c" points="1423.46 187.36 1419.21 190.14 1418.96 189.1 1423.21 187.08 1423.46 187.36"/><polygon class="c" points="1412.81 187.36 1417.06 190.14 1417.32 189.1 1413.07 187.08 1412.81 187.36"/><path class="d" d="M1405.34,178.52c0,11.82-8.58,20.84-18.48,20.84s-16.57-8.5-17.38-20.29c-.93-13.46,4.07-22.06,17.38-22.5C1398,156.2,1405.34,166.7,1405.34,178.52Z"/><polygon class="c" points="1385.56 165.79 1383.71 217.07 1390 217.44 1389.26 165.43 1385.56 165.79"/><polygon class="c" points="1375.39 186.08 1384.98 193.46 1385.56 190.69 1375.98 185.34 1375.39 186.08"/><polygon class="c" points="1398.13 187 1389.08 194.38 1388.52 191.62 1397.58 186.27 1398.13 187"/><polygon class="c" points="1396.47 178.17 1388.81 183.87 1388.34 181.73 1396 177.6 1396.47 178.17"/><polygon class="c" points="1377.24 178.17 1385.26 183.87 1385.75 181.73 1377.73 177.6 1377.24 178.17"/><polygon class="c" points="1394.81 171.34 1388.91 175.2 1388.55 173.75 1394.45 170.96 1394.81 171.34"/><polygon class="c" points="1380.02 171.34 1385.91 175.2 1386.27 173.75 1380.38 170.96 1380.02 171.34"/><path class="e" d="M1392,276.05l11.2,10s-4.09,6.22,6.37,8.23c10.64,2,37.71,1.39,33.06-3s-25.5-10.45-25.5-10.45l-3.69-5.57-6.88-.47-1,4.75-8-4.38Z"/><path class="f" d="M1415.13,251l-.57-.49c26.22-30.55,32.7-79.28,19.25-144.85-3.85-18.76-10.36-39.62-16.11-58-2.24-7.19-4.37-14-6.22-20.28l.72-.21c1.85,6.29,4,13.08,6.22,20.27,5.75,18.42,12.27,39.29,16.12,58.09C1448,171.34,1441.51,220.29,1415.13,251Z"/><rect class="g" x="1395.32" y="25.67" width="40.03" height="1.27" transform="translate(122.99 603.99) rotate(-25.15)"/><rect class="g" x="1414.47" y="-2.95" width="1.27" height="61.27" transform="translate(136.91 635.56) rotate(-26.56)"/><polygon class="h" points="1430.47 18.63 1426.72 51.67 1399.34 34.19 1402.86 3.48 1430.47 18.63"/><polygon class="i" points="1426.75 51.38 1414.69 27.15 1430.44 18.95 1426.75 51.38"/><polygon class="i" points="1402.86 3.48 1403.56 3.87 1414.69 27.15 1399.39 33.75 1402.86 3.48"/><path class="j" d="M1400.77,247.09c3.44-2.11,8.84-3.52,9.31-2.54s.46,2.84-2,2.64-2.71,2.15-4.91,2.93C1400.12,251.19,1397.3,249.23,1400.77,247.09Z"/><path class="j" d="M1389.69,249.88c.12,10.55,3.18,18.82,2.87,19.9s-5.82,5.81-.47,5.39,5.77-2.94,5.61-6.51a34.63,34.63,0,0,1,0-4.65l4.27-.55s2.33,4,3.11,5.4,2.5,3.66,7.21,1.28c3.5-1.77-.28-2.13-2-3.85s-4.16-12.68-7.56-20.58C1393.81,242.36,1389.69,249.88,1389.69,249.88Z"/><path class="k" d="M1407.06,258,1391,261.82c.38,1.95.77,3.62,1.07,4.93a52.18,52.18,0,0,0,5.59,0,23.43,23.43,0,0,1,0-2.73l4.27-.55,1.26,2.17a16.06,16.06,0,0,0,5.32-3.16C1408.06,261.19,1407.58,259.67,1407.06,258Z"/><path class="l" d="M1402.73,245.71c-8.92-3.35-13,4.17-13,4.17a70,70,0,0,0,1.81,14.48c3.63-.1,11.32-.67,16.49-3.43C1406.57,256.61,1404.83,250.58,1402.73,245.71Z"/><path class="j" d="M1368.43,234.76c-8.22.19-7.07,17.49,1.69,9.58,6.51,5.6,12.73,8.54,28.21,2.83s17.84-12.62,17.89-15.49c7.59,1.8,6.24-12.26.85-8.8C1408.29,214.7,1369.07,209.69,1368.43,234.76Z"/><path class="m" d="M1380.84,240.27c.46,1.41.07,2.8-.86,3.1s-2.07-.58-2.53-2-.08-2.79.86-3.1S1380.38,238.86,1380.84,240.27Z"/><path class="m" d="M1407.85,232.42c.46,1.41.07,2.8-.87,3.11s-2.07-.59-2.53-2-.07-2.79.87-3.1S1407.39,231,1407.85,232.42Z"/><path class="m" d="M1391.38,243.15c1.25,3.35,7.48,2.17,5.86-2.18"/><path class="n" d="M1412.75,220.61c-1.64,2.29-5.28.34-6.21-1.36-2,2.92-3.93,1.78-6.37.82-1.74,1.19-2.47,2.43-4.46,2.07s-2.47,2.81-5.14,1.92-2.16,2.59-4.35,3.17-4-1.83-5.58.19-3,1.22-4.64,1.51-1.83,2.47-4.62,2.75-.47,3.16-2.09,3.19c-.21,2.44.45,11-3.4,6.49-2.3-4.76-4.38-14.23-.41-21.29a29.73,29.73,0,0,1,18.45-14.51c8.68-2.57,18.51-1.64,22.71.88s9.74,6.48,11.28,12.74-1.14,11.14-2.45,5.56A7.78,7.78,0,0,0,1412.75,220.61Z"/><rect class="o" x="1401.27" y="251.95" width="21.69" height="1.65" transform="translate(509.59 1367.85) rotate(-61.16)"/><path class="f" d="M1416.79,245.75c.28,5.51-3,12.12-6.61,13.49l-1.92-.27s-4.41-6.61,5.78-13.77A6.59,6.59,0,0,0,1416.79,245.75Z"/><path class="j" d="M1401.48,253.64c3.94.88,9.5.46,9.63-.62s-.48-2.84-2.76-1.84-3.27-1.15-5.6-1.18C1399.53,250,1397.51,252.75,1401.48,253.64Z"/></svg>