<svg xmlns="http://www.w3.org/2000/svg" xmlns:xlink="http://www.w3.org/1999/xlink" viewBox="0 0 1739 210"><defs><style>.a{fill:url(#a);}.b{isolation:isolate;}.c{fill:#b4e0e8;}.d{fill:#88b671;}.e{fill:#b0c26f;}.af,.ai,.f,.g,.l,.m,.n,.o,.r,.s,.x{fill:none;stroke-miterlimit:10;}.af,.ai,.f,.g,.l,.m,.n,.o,.r,.s{stroke:#fff;}.f{stroke-dasharray:2.02 4.04;}.g{stroke-dasharray:2 4;}.h{mask:url(#b);}.i{opacity:0.49;}.j{fill:#e7e1db;}.k{fill:#f9f2eb;}.l{stroke-dasharray:1.98 3.96;}.m{stroke-dasharray:2.09 4.18;}.n{stroke-dasharray:1.98 3.96;}.o{stroke-dasharray:2.09 4.18;}.ag,.ah,.al,.p{opacity:0.33;}.p{fill:url(#c);}.q{fill:url(#d);}.r{stroke-dasharray:1.98 3.96;}.s{stroke-dasharray:2.01 4.02;}.t{fill:#69843d;}.aa,.t,.u,.v,.y,.z{mix-blend-mode:multiply;}.u{fill:#839942;}.v{fill:#68873f;}.w{fill:#fff;}.x{stroke:#7e7d38;stroke-width:2.37px;}.y{fill:url(#e);}.z{fill:url(#f);}.aa{fill:url(#g);}.ab,.ac,.ad,.ae{mix-blend-mode:darken;}.ab{fill:url(#h);}.ac{fill:url(#i);}.ad{fill:url(#j);}.ae{fill:url(#k);}.af{stroke-dasharray:2.03 4.07;}.ag{fill:url(#l);}.ah{fill:url(#m);}.ai{stroke-dasharray:2.08 4.16;}.aj{fill:#91a85b;}.ak{fill:#90aa5b;}.al{fill:url(#n);}</style><linearGradient id="a" x1="1371.14" y1="127.76" x2="1382.95" y2="187.48" gradientTransform="translate(-20.81 -27.3) rotate(-0.22)" gradientUnits="userSpaceOnUse"><stop offset="0" stop-color="#fff"/><stop offset="1"/></linearGradient><mask id="b" x="1232.96" y="86.23" width="265.54" height="165.49" maskUnits="userSpaceOnUse"><polygon class="a" points="1498.5 250.7 1233.5 251.71 1232.96 135.23 1350.96 135.23 1497.96 86.23 1498.5 250.7"/></mask><linearGradient id="c" x1="-202.86" y1="-1620.06" x2="-202.86" y2="-1632.56" gradientTransform="matrix(0, 0.9, -1, 0, -499.99, 299.37)" gradientUnits="userSpaceOnUse"><stop offset="0" stop-color="#90aa5b" stop-opacity="0"/><stop offset="1" stop-color="#90aa5b"/></linearGradient><linearGradient id="d" x1="1180.6" y1="122.96" x2="1180.6" y2="89.13" gradientUnits="userSpaceOnUse"><stop offset="0" stop-color="#fff" stop-opacity="0"/><stop offset="1" stop-color="#fff"/></linearGradient><linearGradient id="e" x1="-5981.73" y1="-359.01" x2="-5959.21" y2="-359.01" gradientTransform="matrix(-1, -0.08, -0.08, 1, -4863.74, -25.07)" gradientUnits="userSpaceOnUse"><stop offset="0" stop-color="#fceaed"/><stop offset="1" stop-color="#f7c6ce"/></linearGradient><linearGradient id="f" x1="-5979.56" y1="-356.76" x2="-5960.33" y2="-356.76" xlink:href="#e"/><linearGradient id="g" x1="-5981.42" y1="-357.73" x2="-5964.8" y2="-357.73" xlink:href="#e"/><linearGradient id="h" x1="-5981.63" y1="-354.61" x2="-5970.1" y2="-354.61" gradientTransform="matrix(-1, -0.08, -0.08, 1, -4863.74, -25.07)" gradientUnits="userSpaceOnUse"><stop offset="0" stop-color="#9fa938"/><stop offset="1" stop-color="#788b39"/></linearGradient><linearGradient id="i" x1="-5978.42" y1="-350.85" x2="-5958.73" y2="-350.85" xlink:href="#h"/><linearGradient id="j" x1="-5979.58" y1="-350.51" x2="-5967.41" y2="-350.51" xlink:href="#h"/><linearGradient id="k" x1="-5981.8" y1="-354.33" x2="-5963.37" y2="-354.33" xlink:href="#h"/><linearGradient id="l" x1="715.21" y1="99.23" x2="715.21" y2="89.23" gradientTransform="matrix(1, 0, 0, 1, 0, 0)" xlink:href="#c"/><linearGradient id="m" x1="686.71" y1="81.98" x2="686.71" y2="72.73" gradientTransform="matrix(1, 0, 0, 1, 0, 0)" xlink:href="#c"/><linearGradient id="n" x1="-12754.63" y1="80.64" x2="-12754.63" y2="74.49" gradientTransform="matrix(-1, 0, 0, 1, -12020.41, 0)" xlink:href="#c"/></defs><g class="b"><rect class="c" y="-0.5" width="1739" height="211"/><path class="d" d="M0-.5v86c242.26,1.21,483.4-30.64,725.72-27.14C1063.6,63.14,1401,87.51,1739,85.5V-.5Z"/><path class="e" d="M0,82.5V-.5H1739v83c-346.63-7.68-693.09-31.18-1039.9-29C465.77,55.85,233.39,83,0,82.5Z"/><path class="f" d="M1383,121.81c0,9.07,21.88,16.42,48.87,16.42s48.88-7.35,48.88-16.42-21.88-16.41-48.88-16.41S1383,112.75,1383,121.81Z"/><path class="g" d="M1385.16,119.91c0,6.74,16.29,12.21,36.37,12.21s36.38-5.47,36.38-12.21-16.29-12.22-36.38-12.22S1385.16,113.16,1385.16,119.91Z"/><g class="h"><g class="i"><polygon class="j" points="1253.71 195.76 1373.25 165.62 1479.53 151.63 1403.91 119.16 1289.07 142.75 1253.71 195.76"/><polygon class="k" points="1308.98 152.12 1363.78 208.1 1407.14 134.49 1345.77 127 1308.98 152.12"/><path class="j" d="M1363.78,208.1c-9.16-18.41-19.63-60.47-16.64-77C1356.3,149.48,1363.78,208.1,1363.78,208.1Z"/><polygon class="k" points="1253.71 195.76 1343.87 142.13 1481.63 151.37 1424.5 103.77 1337.52 112.31 1270.84 139.97 1253.71 195.76"/></g></g><path class="l" d="M1350.69,145.43c0,2.67-7.3,4.84-16.3,4.84s-16.31-2.17-16.31-4.84,7.3-4.83,16.31-4.83S1350.69,142.77,1350.69,145.43Z"/><path class="m" d="M1356.13,140.3c0,2.17-5,3.93-11.17,3.93s-11.17-1.76-11.17-3.93,5-3.93,11.17-3.93S1356.13,138.13,1356.13,140.3Z"/><polygon class="j" points="1233.48 94.33 1355.17 74.62 1458.29 45.33 1401.74 105.12 1286.95 128.99 1233.48 94.33"/><polygon class="k" points="1301.52 112.49 1329.64 39.38 1398.63 89.76 1345.25 120.96 1301.52 112.49"/><path class="j" d="M1329.64,39.37c-1.11,20.53,5.95,63.3,15.25,77.3C1346,96.15,1329.64,39.37,1329.64,39.37Z"/><polygon class="j" points="1233.48 94.33 1335.51 104.82 1460.32 44.74 1426.74 111.09 1343.5 137.72 1271.32 138.76 1233.48 94.33"/><polygon class="k" points="1233.48 95.33 1337.51 108.82 1460.32 45.74 1426.74 112.09 1343.5 138.72 1271.32 139.76 1233.48 95.33"/><path class="n" d="M1184.81,142.32c0,2.67-7.3,4.83-16.31,4.83s-16.3-2.16-16.3-4.83,7.3-4.84,16.3-4.84S1184.81,139.65,1184.81,142.32Z"/><path class="o" d="M1190.24,137.18c0,2.17-5,3.93-11.16,3.93s-11.17-1.76-11.17-3.93,5-3.92,11.17-3.92S1190.24,135,1190.24,137.18Z"/><rect class="p" x="1120.08" y="116.39" width="12.5" height="2.24" transform="translate(698.47 1166.02) rotate(-73.76)"/><path class="q" d="M1154.26,107.63a5.51,5.51,0,0,0-1.45,3.55c0,6.51,13.93,11.78,31.11,11.78q3.78,0,7.29-.32l-7.29-11.46,10.64,11.08c12-1.65,20.48-6,20.48-11.08,0-1.76-1-3.43-2.87-4.93,7.66-.93,13.13-3.37,13.13-6.24,0-3.67-8.92-6.65-19.93-6.65-10.41,0-18.95,2.67-19.85,6.06l-1.6,0h-1a4,4,0,0,0,.11-.91c0-5.17-10.55-9.37-23.56-9.37a54.29,54.29,0,0,0-10.77,1l8.35,7.42-20-2a4.57,4.57,0,0,0-1.12,2.86C1135.9,103,1143.75,106.69,1154.26,107.63Z"/><path class="r" d="M1165.71,109.39c0,7.17-18,13-40.17,13s-40.17-5.82-40.17-13,18-13,40.17-13S1165.71,102.22,1165.71,109.39Z"/><path class="s" d="M1163.9,107.88c0,5.34-13.39,9.67-29.9,9.67s-29.89-4.33-29.89-9.67,13.38-9.66,29.89-9.66S1163.9,102.54,1163.9,107.88Z"/><path class="t" d="M1184.43,97c0,3.67,8.93,6.64,19.94,6.64s19.93-3,19.93-6.64-8.92-6.65-19.93-6.65S1184.43,93.34,1184.43,97Z"/><path class="u" d="M1182.92,96.4c-17.18,0-31.11,5.28-31.11,11.78S1165.74,120,1182.92,120q3.78,0,7.29-.32l-7.29-11.46,10.64,11.08c12-1.65,20.48-6,20.48-11.08C1214,101.68,1200.11,96.4,1182.92,96.4Z"/><path class="v" d="M1158.46,86.13a54.29,54.29,0,0,0-10.77,1l8.35,7.42-20-2a4.57,4.57,0,0,0-1.12,2.86c0,5.17,10.55,9.36,23.56,9.36S1182,100.67,1182,95.5,1171.47,86.13,1158.46,86.13Z"/><path class="w" d="M1124.24,86.25l.12-.13a6.71,6.71,0,0,0,3-6.47c1.26-6.85-2.56-16.75-17.79-24.39a45.34,45.34,0,0,0-4,15.76c-2,5.51.08,10.38,3.49,13.66a9.43,9.43,0,0,0,2.73,2.11,13.07,13.07,0,0,0,1.26.71,6,6,0,0,0,4.2,1.37,8.07,8.07,0,0,0,4.4-.47,3.62,3.62,0,0,0,1.7-1.37A3.7,3.7,0,0,0,1124.24,86.25Z"/><path class="x" d="M1121,88.33c4.94,9.29,6.87,17.73,6.87,23.65"/><path class="y" d="M1120.7,87.61c8.28-1.63,13.6-20-11.1-32.35C1102.68,70.39,1103.33,91,1120.7,87.61Z"/><path class="z" d="M1120.7,87.61c9.74-1.84,2.12-18.06-12.55-27.9C1105.68,72.59,1104.29,90.72,1120.7,87.61Z"/><path class="aa" d="M1120.53,87.68c-8.59,5.29-12.36-12.43-6.91-30.1C1123.17,65.78,1135,78.76,1120.53,87.68Z"/><path class="ab" d="M1121.72,87.89c7-2.47,9.43-18.1-3.11-23C1115.27,72.54,1113.89,90.66,1121.72,87.89Z"/><path class="ac" d="M1121.63,88.4c-6.72,3-20.65-6.09-15.89-17.92C1114,73.5,1129.19,85,1121.63,88.4Z"/><path class="ad" d="M1123,87.19c5-2.55-.43-10.92-8.35-15.29C1112.1,80.81,1110.93,93.4,1123,87.19Z"/><path class="ae" d="M1120.43,88.19c12.11-4.49,8.13-15-8.52-24.23C1107.28,74.7,1108.45,92.62,1120.43,88.19Z"/><path class="af" d="M778.17,80.1c0,6.46-12.31,11.7-27.5,11.7s-27.51-5.24-27.51-11.7,12.32-11.71,27.51-11.71S778.17,73.63,778.17,80.1Z"/><rect class="ag" x="710.96" y="89.23" width="8.5" height="10"/><rect class="ah" x="684.96" y="72.73" width="3.5" height="9.25"/><path class="ai" d="M711.21,73.17c0,3.79-7.18,6.86-16,6.86s-16-3.07-16-6.86,7.18-6.86,16-6.86S711.21,69.39,711.21,73.17Z"/><path class="aj" d="M715.19,91S712.49,54,733,26.19C726.19,41.55,720.59,51.07,718.72,91,717.68,91,715.19,91,715.19,91Z"/><path class="ak" d="M713.74,91c0-14.53-2.49-55.42-15.57-85.72,6.44,11.41,18.48,36.32,19.51,85.72A23.74,23.74,0,0,1,713.74,91Z"/><path class="ak" d="M719.34,89.8c1-16.49,9.76-38.29,14.95-45.55-6.64,6.64-18.06,31.94-18.06,45.55A28.32,28.32,0,0,1,719.34,89.8Z"/><path class="ak" d="M714.36,89.91c-.83-7.89-1.45-17.85-6.43-25.12a198.87,198.87,0,0,1,3.32,25.12Z"/><path class="aj" d="M688.3,74s2.06-26.17-13.64-45.81c5.23,10.85,9.52,17.58,10.94,45.81C686.39,74,688.3,74,688.3,74Z"/><path class="ak" d="M685.13,73.16c-.8-11.65-7.45-27-11.42-32.18,5.08,4.7,13.79,22.57,13.79,32.18C686.39,73.1,685.13,73.16,685.13,73.16Z"/><rect class="al" x="733.05" y="74.49" width="2.34" height="6.15"/><path class="aj" d="M733.15,75.36s-1.37-17.4,9.12-30.47c-3.5,7.22-6.36,11.7-7.31,30.47C734.43,75.32,733.15,75.36,733.15,75.36Z"/><path class="ak" d="M735.28,74.78c.53-7.75,5-18,7.63-21.4-3.39,3.12-9.23,15-9.23,21.4C734.43,74.74,735.28,74.78,735.28,74.78Z"/></g></svg>