<?xml version="1.0" encoding="utf-8"?>
<!-- Generator: Adobe Illustrator 25.2.1, SVG Export Plug-In . SVG Version: 6.00 Build 0)  -->
<svg version="1.1" id="Layer_1" xmlns="http://www.w3.org/2000/svg" xmlns:xlink="http://www.w3.org/1999/xlink" x="0px" y="0px"
	 viewBox="0 0 1739 295.7" style="enable-background:new 0 0 1739 295.7;" xml:space="preserve">
<style type="text/css">
	.st0{fill:#B0C26F;}
	.st1{fill:#9CAA61;}
	.st2{fill:#817B5D;}
	.st3{fill:#80A455;}
</style>
<path class="st0" d="M-1,227.7v69h1741v-69.1c-112.8,1.6-190.1-21.2-355-14.9c-369.2,14.1-717.4,27.5-985.8,27.3
	C228.4,239.9,90,227.7-1,227.7z"/>
<path class="st1" d="M1302.7,185.5c0,10.5-7.6,18.6-16.4,18.6s-14.7-7.6-15.4-18.1c-0.8-12,3.6-19.6,15.4-20
	C1296.1,165.6,1302.7,175,1302.7,185.5z"/>
<polygon class="st2" points="1285.1,174.2 1283.5,219.8 1289.1,220.1 1288.4,173.8 "/>
<polygon class="st2" points="1276.1,192.2 1284.6,198.8 1285.1,196.3 1276.6,191.5 "/>
<polygon class="st2" points="1296.3,193 1288.3,199.6 1287.8,197.1 1295.8,192.4 "/>
<polygon class="st2" points="1294.8,185.2 1288,190.2 1287.6,188.3 1294.4,184.7 "/>
<polygon class="st2" points="1277.8,185.2 1284.9,190.2 1285.3,188.3 1278.2,184.7 "/>
<polygon class="st2" points="1293.3,179.1 1288.1,182.5 1287.8,181.2 1293,178.8 "/>
<polygon class="st2" points="1280.2,179.1 1285.4,182.5 1285.8,181.2 1280.5,178.8 "/>
<path class="st1" d="M1231.7,192.3c0,8.5-6.2,15.1-13.3,15.1s-11.9-6.1-12.5-14.7c-0.7-9.7,2.9-15.9,12.5-16.3
	C1226.3,176.2,1231.7,183.7,1231.7,192.3z"/>
<polygon class="st2" points="1217.4,183.1 1216.1,220.1 1220.6,220.4 1220.1,182.8 "/>
<polygon class="st2" points="1210.1,197.7 1217,203.1 1217.4,201.1 1210.5,197.2 "/>
<polygon class="st2" points="1226.5,198.4 1219.9,203.7 1219.5,201.7 1226.1,197.9 "/>
<polygon class="st2" points="1225.3,192 1219.8,196.1 1219.4,194.6 1224.9,191.6 "/>
<polygon class="st2" points="1211.4,192 1217.2,196.1 1217.5,194.6 1211.8,191.6 "/>
<polygon class="st2" points="1224.1,187.1 1219.8,189.9 1219.6,188.8 1223.8,186.8 "/>
<polygon class="st2" points="1213.4,187.1 1217.7,189.9 1217.9,188.8 1213.7,186.8 "/>
<path class="st3" d="M1361.8,166c0,18.2-13.2,32.2-28.5,32.2s-25.5-13.1-26.8-31.3c-1.4-20.8,6.3-34.1,26.8-34.8
	C1350.4,131.5,1361.8,147.7,1361.8,166z"/>
<polygon class="st2" points="1331.3,146.3 1328.5,225.5 1338.2,226.1 1337,145.8 "/>
<polygon class="st2" points="1315.7,177.7 1330.4,189.1 1331.3,184.8 1316.6,176.5 "/>
<polygon class="st2" points="1350.7,179.1 1336.8,190.5 1335.9,186.2 1349.8,178 "/>
<polygon class="st2" points="1348.1,165.5 1336.3,174.3 1335.6,171 1347.4,164.6 "/>
<polygon class="st2" points="1318.5,165.5 1330.9,174.3 1331.6,171 1319.3,164.6 "/>
<polygon class="st2" points="1345.6,154.9 1336.5,160.9 1335.9,158.6 1345,154.3 "/>
<polygon class="st2" points="1322.8,154.9 1331.9,160.9 1332.4,158.6 1323.3,154.3 "/>
<path class="st3" d="M1071.8,193.1c0,10.7-7.7,18.8-16.7,18.8s-14.9-7.7-15.7-18.3c-0.8-12.2,3.7-19.9,15.7-20.3
	C1065.2,172.9,1071.8,182.4,1071.8,193.1z"/>
<polygon class="st2" points="1054,181.6 1052.3,227.9 1058,228.3 1057.3,181.3 "/>
<polygon class="st2" points="1044.8,199.9 1053.4,206.6 1054,204.1 1045.3,199.3 "/>
<polygon class="st2" points="1065.3,200.8 1057.2,207.4 1056.7,204.9 1064.8,200.1 "/>
<polygon class="st2" points="1063.8,192.8 1056.9,197.9 1056.5,196 1063.4,192.3 "/>
<polygon class="st2" points="1046.5,192.8 1053.7,197.9 1054.2,196 1046.9,192.3 "/>
<polygon class="st2" points="1062.3,186.6 1057,190.1 1056.7,188.8 1062,186.3 "/>
<polygon class="st2" points="1049,186.6 1054.3,190.1 1054.6,188.8 1049.3,186.3 "/>
<path class="st3" d="M1211.2,187.4c0,11.9-8.6,20.9-18.5,20.9s-16.6-8.5-17.4-20.3c-0.9-13.5,4.1-22.1,17.4-22.6
	C1203.8,165,1211.2,175.5,1211.2,187.4z"/>
<polygon class="st2" points="1191.4,174.6 1189.6,226 1195.9,226.4 1195.1,174.3 "/>
<polygon class="st2" points="1181.3,195 1190.9,202.4 1191.4,199.6 1181.9,194.2 "/>
<polygon class="st2" points="1204,195.9 1195,203.3 1194.4,200.5 1203.5,195.1 "/>
<polygon class="st2" points="1202.4,187 1194.7,192.7 1194.2,190.6 1201.9,186.5 "/>
<polygon class="st2" points="1183.1,187 1191.1,192.7 1191.6,190.6 1183.6,186.5 "/>
<polygon class="st2" points="1200.7,180.2 1194.8,184 1194.4,182.6 1200.3,179.8 "/>
<polygon class="st2" points="1185.9,180.2 1191.8,184 1192.2,182.6 1186.3,179.8 "/>
<path class="st3" d="M1271,183.3c0,11.8-8.6,20.9-18.5,20.9s-16.6-8.5-17.4-20.3c-0.9-13.5,4.1-22.1,17.4-22.6
	C1263.6,160.9,1271,171.4,1271,183.3z"/>
<polygon class="st2" points="1251.2,170.5 1249.4,221.9 1255.7,222.3 1254.9,170.1 "/>
<polygon class="st2" points="1241.1,190.8 1250.6,198.2 1251.2,195.5 1241.7,190.1 "/>
<polygon class="st2" points="1263.8,191.8 1254.7,199.2 1254.2,196.4 1263.2,191 "/>
<polygon class="st2" points="1262.1,182.9 1254.5,188.6 1254,186.5 1261.7,182.3 "/>
<polygon class="st2" points="1242.9,182.9 1250.9,188.6 1251.4,186.5 1243.4,182.3 "/>
<polygon class="st2" points="1260.5,176.1 1254.6,179.9 1254.2,178.5 1260.1,175.7 "/>
<polygon class="st2" points="1245.7,176.1 1251.6,179.9 1251.9,178.5 1246,175.7 "/>
<path class="st3" d="M1180.4,175.9c0,18.2-13.2,32.2-28.5,32.2s-25.5-13.1-26.8-31.3c-1.4-20.8,6.3-34.1,26.8-34.8
	C1169,141.5,1180.4,157.7,1180.4,175.9z"/>
<polygon class="st2" points="1149.9,156.3 1147,235.5 1156.7,236 1155.6,155.7 "/>
<polygon class="st2" points="1134.2,187.6 1149,199 1149.9,194.7 1135.1,186.5 "/>
<polygon class="st2" points="1169.3,189 1155.3,200.4 1154.4,196.2 1168.4,187.9 "/>
<polygon class="st2" points="1166.7,175.4 1154.9,184.2 1154.2,180.9 1166,174.5 "/>
<polygon class="st2" points="1137.1,175.4 1149.4,184.2 1150.2,180.9 1137.8,174.5 "/>
<polygon class="st2" points="1164.1,164.9 1155,170.8 1154.5,168.6 1163.6,164.3 "/>
<polygon class="st2" points="1141.3,164.9 1150.4,170.8 1151,168.6 1141.9,164.3 "/>
<path class="st1" d="M1112.4,180.6c0,14.3-10.4,25.2-22.3,25.2s-20-10.3-21-24.6c-1.1-16.3,4.9-26.7,21-27.2
	C1103.5,153.6,1112.4,166.3,1112.4,180.6z"/>
<polygon class="st2" points="1088.5,165.2 1086.3,227.2 1093.9,227.7 1093,164.7 "/>
<polygon class="st2" points="1076.3,189.7 1087.8,198.6 1088.5,195.3 1077,188.8 "/>
<polygon class="st2" points="1103.7,190.8 1092.8,199.8 1092.1,196.4 1103,189.9 "/>
<polygon class="st2" points="1101.7,180.1 1092.4,187 1091.9,184.5 1101.1,179.5 "/>
<polygon class="st2" points="1078.5,180.1 1088.2,187 1088.8,184.5 1079.1,179.5 "/>
<polygon class="st2" points="1099.7,171.9 1092.6,176.6 1092.1,174.8 1099.2,171.4 "/>
<polygon class="st2" points="1081.8,171.9 1088.9,176.6 1089.4,174.8 1082.3,171.4 "/>
</svg>
