<svg xmlns="http://www.w3.org/2000/svg" xmlns:xlink="http://www.w3.org/1999/xlink" viewBox="0 0 1741 682"><defs><style>.a{isolation:isolate;}.b{fill:#b4e0e8;}.c{fill:url(#a);}.d{fill:#62adc3;}.e{fill:#fff;}.f{fill:url(#b);}.g{fill:#839942;}.as,.at,.au,.av,.aw,.ax,.ay,.az,.ba,.bb,.bd,.g,.i,.k,.l,.m,.n,.o,.p,.q,.r,.s,.t,.u,.v,.w,.x,.y{mix-blend-mode:multiply;}.h{fill:url(#c);}.i{fill:#68883f;}.j{fill:#7e7d3e;}.k{fill:url(#d);}.l{fill:url(#e);}.m{fill:url(#f);}.n{fill:url(#g);}.o{fill:url(#h);}.p{fill:url(#i);}.q{fill:url(#j);}.r{fill:url(#k);}.s{fill:url(#l);}.t{fill:url(#m);}.u{fill:url(#n);}.v{fill:url(#o);}.w{fill:url(#p);}.x{fill:url(#q);}.y{fill:#889863;}.aa,.z{opacity:0.33;}.z{fill:url(#af);}.aa{fill:url(#ag);}.ab{fill:#95b83f;}.ac{fill:#bbd656;}.ad{fill:#a7cf48;}.ae{fill:#98bc43;}.af{fill:#bcd762;}.ag{fill:#9abe43;}.ah{fill:#bad657;}.ai{fill:#cfe18a;}.aj{fill:#c4da64;}.ak{fill:#b9d658;}.al{fill:#bad65a;}.am{fill:#9ec443;}.an{fill:#c1c1c1;mix-blend-mode:color-burn;}.ao{fill:#bcd759;}.ap{fill:#fffbfc;}.aq{fill:#606167;}.ar{fill:#7e7d38;}.as{fill:url(#ah);}.at{fill:url(#ai);}.au{fill:url(#aj);}.av{fill:url(#ak);}.aw{fill:url(#al);}.ax{fill:url(#am);}.ay{fill:url(#an);}.az{fill:url(#ao);}.ba{fill:url(#ap);}.bb{fill:url(#aq);}.bc{fill:url(#bb);}.bd{fill:#68853c;}.be{opacity:0.65;}.bf{fill:#6e492d;}.bg{fill:#885a37;}.bh{fill:#bd7e52;}.bi{fill:#9d683f;}.bj{fill:#593c25;}.bk{fill:#452e1c;}.bl{fill:#d32f5b;}.bm{fill:#d6bb38;}.bn{fill:url(#bc);}.bo{fill:url(#bd);}.bp{fill:url(#be);}.bq{fill:url(#bf);}.br{fill:url(#bg);}.bs{fill:url(#bh);}.bt{fill:url(#bi);}.bu{fill:url(#bj);}.bv{fill:url(#bk);}.bw{fill:url(#bl);}.bx{fill:url(#bm);}.by{fill:url(#bn);}</style><linearGradient id="a" x1="870.5" y1="656.15" x2="870.5" y2="162.57" gradientUnits="userSpaceOnUse"><stop offset="0" stop-color="#b4e0e8" stop-opacity="0"/><stop offset="0.01" stop-color="#b3dfe7" stop-opacity="0.03"/><stop offset="0.05" stop-color="#a9d7e1" stop-opacity="0.23"/><stop offset="0.1" stop-color="#a1cfdc" stop-opacity="0.41"/><stop offset="0.16" stop-color="#99c8d7" stop-opacity="0.57"/><stop offset="0.22" stop-color="#93c3d3" stop-opacity="0.71"/><stop offset="0.29" stop-color="#8ebfd0" stop-opacity="0.82"/><stop offset="0.37" stop-color="#8abbce" stop-opacity="0.9"/><stop offset="0.47" stop-color="#87b9cc" stop-opacity="0.96"/><stop offset="0.61" stop-color="#85b7cb" stop-opacity="0.99"/><stop offset="1" stop-color="#85b7cb"/></linearGradient><linearGradient id="b" x1="414.66" y1="137.17" x2="414.66" y2="88.38" gradientUnits="userSpaceOnUse"><stop offset="0" stop-color="#fff" stop-opacity="0"/><stop offset="1" stop-color="#fff"/></linearGradient><linearGradient id="c" x1="558.36" y1="160.01" x2="558.36" y2="107.07" xlink:href="#b"/><linearGradient id="d" x1="469.39" y1="-7.44" x2="469.39" y2="78.61" gradientUnits="userSpaceOnUse"><stop offset="0" stop-color="#fdf1ec"/><stop offset="1" stop-color="#f6d2c7"/></linearGradient><linearGradient id="e" x1="498.3" y1="-2.17" x2="498.3" y2="76.9" xlink:href="#d"/><linearGradient id="f" x1="485.81" y1="-8.64" x2="485.81" y2="78.95" xlink:href="#d"/><linearGradient id="g" x1="495.27" y1="-16.31" x2="495.27" y2="81.43" xlink:href="#d"/><linearGradient id="h" x1="-11497.15" y1="5535.91" x2="-11497.15" y2="5633.66" gradientTransform="matrix(-0.72, 0.7, -0.7, -0.72, -3874.65, 12048.88)" xlink:href="#d"/><linearGradient id="i" x1="459.57" y1="11.99" x2="459.57" y2="72.37" xlink:href="#d"/><linearGradient id="j" x1="507.01" y1="5.92" x2="507.01" y2="74.17" xlink:href="#d"/><linearGradient id="k" x1="513" y1="30.81" x2="513" y2="72.76" xlink:href="#d"/><linearGradient id="l" x1="453.57" y1="34.24" x2="453.57" y2="72.59" xlink:href="#d"/><linearGradient id="m" x1="483.66" y1="48.18" x2="483.66" y2="85.58" xlink:href="#d"/><linearGradient id="n" x1="470.43" y1="45.41" x2="470.43" y2="87.58" xlink:href="#d"/><linearGradient id="o" x1="-9200.16" y1="45.41" x2="-9200.16" y2="87.58" gradientTransform="matrix(-1, 0, 0, 1, -8703.8, 0)" xlink:href="#d"/><linearGradient id="p" x1="512.58" y1="46.96" x2="512.58" y2="83.32" xlink:href="#d"/><linearGradient id="q" x1="456.42" y1="46.19" x2="456.42" y2="84.44" xlink:href="#d"/><linearGradient id="af" x1="621.23" y1="165.21" x2="621.23" y2="157.8" gradientUnits="userSpaceOnUse"><stop offset="0" stop-color="#abb56d" stop-opacity="0"/><stop offset="1" stop-color="#abb56d"/></linearGradient><linearGradient id="ag" x1="636.38" y1="152.84" x2="636.38" y2="144.84" xlink:href="#af"/><linearGradient id="ah" x1="1828.03" y1="951.32" x2="1828.03" y2="1029.94" gradientTransform="translate(-864.35 -647.13) rotate(-9.04)" gradientUnits="userSpaceOnUse"><stop offset="0" stop-color="#fdeeec"/><stop offset="1" stop-color="#f4cecc"/></linearGradient><linearGradient id="ai" x1="1862.07" y1="955.65" x2="1862.07" y2="1028.52" xlink:href="#ah"/><linearGradient id="aj" x1="1845.12" y1="933.06" x2="1845.12" y2="1035.82" xlink:href="#ah"/><linearGradient id="ak" x1="1855.84" y1="939.15" x2="1855.84" y2="1033.85" xlink:href="#ah"/><linearGradient id="al" x1="-11804.75" y1="3902.54" x2="-11804.75" y2="3998.68" gradientTransform="translate(-2797.11 11860.55) rotate(126.76)" xlink:href="#ah"/><linearGradient id="am" x1="-14297.32" y1="9307.18" x2="-14297.32" y2="9344.47" gradientTransform="matrix(-0.67, 0.15, -0.21, -0.9, -6454.6, 10610.03)" xlink:href="#ah"/><linearGradient id="an" x1="-14310.52" y1="9304.42" x2="-14310.52" y2="9346.46" gradientTransform="matrix(-0.67, 0.15, -0.21, -0.9, -6454.6, 10610.03)" xlink:href="#ah"/><linearGradient id="ao" x1="5582.02" y1="9304.62" x2="5582.02" y2="9346.66" gradientTransform="matrix(0.67, -0.15, -0.21, -0.9, -666.44, 9266.52)" xlink:href="#ah"/><linearGradient id="ap" x1="-14268.49" y1="9305.97" x2="-14268.49" y2="9342.22" gradientTransform="matrix(-0.67, 0.15, -0.21, -0.9, -6454.6, 10610.03)" xlink:href="#ah"/><linearGradient id="aq" x1="-14324.48" y1="9305.2" x2="-14324.48" y2="9343.33" gradientTransform="matrix(-0.67, 0.15, -0.21, -0.9, -6454.6, 10610.03)" xlink:href="#ah"/><linearGradient id="bb" x1="1108.06" y1="135.44" x2="1108.06" y2="80.47" xlink:href="#b"/><linearGradient id="bc" x1="910.32" y1="634.89" x2="937.06" y2="644.62" gradientTransform="matrix(-1, 0, 0, 1, 1856.18, 0)" gradientUnits="userSpaceOnUse"><stop offset="0" stop-color="#85b7cb"/><stop offset="0.19" stop-color="#8dbed0" stop-opacity="0.83"/><stop offset="0.62" stop-color="#a1cfdc" stop-opacity="0.4"/><stop offset="1" stop-color="#b4e0e8" stop-opacity="0"/></linearGradient><linearGradient id="bd" x1="785.12" y1="651.67" x2="800.9" y2="642.55" gradientTransform="matrix(-1, 0, 0, 1, 1856.18, 0)" gradientUnits="userSpaceOnUse"><stop offset="0" stop-color="#85b7cb" stop-opacity="0"/><stop offset="0.29" stop-color="#85b7cb" stop-opacity="0.31"/><stop offset="0.78" stop-color="#85b7cb" stop-opacity="0.8"/><stop offset="1" stop-color="#85b7cb"/></linearGradient><linearGradient id="be" x1="893.59" y1="654.59" x2="896.52" y2="664.81" gradientTransform="matrix(-1, 0, 0, 1, 1856.18, 0)" gradientUnits="userSpaceOnUse"><stop offset="0" stop-color="#85b7cb"/><stop offset="0.36" stop-color="#9dccda"/><stop offset="0.73" stop-color="#aedbe4"/><stop offset="1" stop-color="#b4e0e8"/></linearGradient><linearGradient id="bf" x1="913.93" y1="651.14" x2="916.62" y2="660.87" gradientTransform="translate(228.74 -118.01) rotate(8.42)" gradientUnits="userSpaceOnUse"><stop offset="0" stop-color="#85b7cb"/><stop offset="0.58" stop-color="#a3d1de"/><stop offset="1" stop-color="#b4e0e8"/></linearGradient><linearGradient id="bg" x1="506.51" y1="647.13" x2="506.51" y2="195.48" gradientUnits="userSpaceOnUse"><stop offset="0" stop-color="#596853" stop-opacity="0.2"/><stop offset="1" stop-color="#596853" stop-opacity="0"/></linearGradient><linearGradient id="bh" x1="542.56" y1="660.14" x2="542.56" y2="197.62" xlink:href="#bg"/><linearGradient id="bi" x1="393.65" y1="660.01" x2="393.65" y2="191.04" xlink:href="#bg"/><linearGradient id="bj" x1="464.26" y1="627.76" x2="464.26" y2="194.23" xlink:href="#bg"/><linearGradient id="bk" x1="1076.05" y1="649.65" x2="1076.05" y2="207.86" xlink:href="#bg"/><linearGradient id="bl" x1="1146.18" y1="665.49" x2="1146.18" y2="205.5" xlink:href="#bg"/><linearGradient id="bm" x1="1098.23" y1="631.65" x2="1098.23" y2="206.33" xlink:href="#bg"/><linearGradient id="bn" x1="1108.24" y1="645.56" x2="1108.24" y2="206.33" xlink:href="#bg"/></defs><g class="a"><ellipse class="b" cx="870.5" cy="341" rx="1433.16" ry="431.14"/><path class="c" d="M1741,684.5H0v-492c349.87-6.51,700.6,9.12,1050.35,10,229.91-1.23,460.75-12.43,690.65-10Z"/><path class="d" d="M947.42,196.73C632,188.72,315.56,183.72,0,186.5v6c349.87-6.51,700.6,9.12,1050.35,10,229.91-1.23,460.75-12.43,690.65-10v-6C1476.78,187.7,1211.65,199.32,947.42,196.73Z"/><path class="e" d="M620.73,165.66c-.72,0-1.43-.07-2.12-.13l.09-1c.67.06,1.36.1,2.06.13Zm4.22,0-.06-1c.7-.05,1.39-.11,2.05-.18l.11,1C626.37,165.5,625.67,165.56,625,165.61Zm-10.53-.68c-.72-.15-1.41-.32-2.06-.51l.28-1c.62.18,1.29.35,2,.49Zm16.81-.25-.24-1a18.75,18.75,0,0,0,2-.58l.34,1C632.64,164.3,632,164.51,631.23,164.68Zm-22.82-2A5,5,0,0,1,606.8,161l.88-.48a4,4,0,0,0,1.29,1.3Zm28.67-.73-.7-.72a2.09,2.09,0,0,0,.74-1.46l1-.08v0A3.08,3.08,0,0,1,637.08,162Zm-28.15-4.23-.57-.82a11,11,0,0,1,1.92-1l.4.92A9.43,9.43,0,0,0,608.93,157.72Zm25.82-.55a14.28,14.28,0,0,0-1.86-.78l.33-.95a15.46,15.46,0,0,1,2,.85Zm-20.18-1.57-.2-1c.67-.14,1.37-.26,2.09-.36l.14,1C615.91,155.35,615.22,155.47,614.57,155.6Zm14.35-.21c-.65-.11-1.33-.21-2-.28l.12-1c.72.08,1.42.18,2.09.3Zm-8.22-.51,0-1,1.62,0h.49v1h-.48Z"/><path class="e" d="M443.23,169.29h-.48v-1h.47l1.5,0v1Zm-4.46-.13c-.67,0-1.33-.08-2-.13l.08-1,2,.14Zm10-.06-.07-1c.66,0,1.32-.1,2-.16l.1,1Zm-15.89-.51c-.67-.09-1.33-.19-2-.3l.17-1c.63.11,1.28.21,1.94.3Zm21.83-.15-.15-1c.66-.1,1.3-.21,1.93-.33l.19,1Zm-27.71-1c-.67-.17-1.31-.34-1.93-.53l.28-1c.61.19,1.24.36,1.89.52Zm33.57-.26-.26-1c.65-.18,1.27-.36,1.87-.56l.31.95C461.83,166.83,461.19,167,460.52,167.21Zm-39.28-1.63c-.65-.29-1.26-.59-1.82-.9l.49-.87c.53.29,1.11.58,1.73.85Zm44.93-.45-.44-.9a16.46,16.46,0,0,0,1.68-.93l.54.84A18.48,18.48,0,0,1,466.17,165.13Zm-50-3a5.33,5.33,0,0,1-1.06-1.88l1-.29a4.27,4.27,0,0,0,.86,1.52Zm54.75-.92-.88-.49a3.23,3.23,0,0,0,.46-1.63l1-.1v.1A4.37,4.37,0,0,1,470.93,161.24Zm-54-4.45-.77-.63a8.8,8.8,0,0,1,1.52-1.44l.6.79A8.8,8.8,0,0,0,416.89,156.79Zm52-.75a11.22,11.22,0,0,0-1.51-1.14l.54-.84a12.32,12.32,0,0,1,1.64,1.24Zm-47.28-2.42-.41-.92c.59-.26,1.22-.51,1.87-.75l.34.94C422.74,153.12,422.13,153.37,421.57,153.62Zm42.32-.43c-.59-.23-1.2-.44-1.84-.65l.31-.95c.66.21,1.29.44,1.89.67Zm-36.78-1.43-.24-1,1.94-.44.21,1C428.36,151.46,427.73,151.61,427.11,151.76Zm31.17-.25c-.62-.14-1.26-.28-1.92-.4l.19-1c.66.12,1.32.26,1.95.4Zm-25.4-.86-.14-1,2-.25.11,1Q433.84,150.51,432.88,150.65Zm19.6-.14q-1-.12-2-.21l.09-1c.68.06,1.34.14,2,.22Zm-13.73-.43-.06-1,2-.08,0,1C440.05,150,439.39,150,438.75,150.08Zm7.86-.05c-.65,0-1.31-.05-2-.06l0-1c.67,0,1.33,0,2,.06Z"/><path class="e" d="M394.61,168.07l-2,0,0-1,2,0Zm4.08,0,0-1c.68,0,1.35,0,2-.06l0,1Zm-10.19-.19-2-.13.07-1,2,.13Zm16.3-.06-.06-1,2-.14.07,1Zm-22.4-.42-2-.23.12-1,2,.22Zm28.5-.12-.12-1,2-.25.13,1Zm-34.58-.68-2-.35.18-1,2,.34Zm40.64-.18-.17-1,2-.37.19,1C418.31,166.17,417.64,166.3,417,166.41Zm-46.65-1-2-.49.26-1c.63.17,1.29.33,1.95.48Zm52.65-.25-.24-1c.67-.17,1.32-.34,1.95-.52l.27,1Zm-58.57-1.41c-.67-.22-1.31-.46-1.93-.7l.36-.93c.61.24,1.24.46,1.89.68Zm64.46-.36-.34-.94c.65-.23,1.28-.47,1.87-.72l.39.92C430.16,162.91,429.52,163.16,428.85,163.4Zm-70.14-2c-.65-.35-1.25-.7-1.79-1.06l.56-.84a17.76,17.76,0,0,0,1.7,1Zm75.76-.53L434,160a16.71,16.71,0,0,0,1.64-1.11l.61.8A20.79,20.79,0,0,1,434.47,160.83Zm-80.65-3.39a5.77,5.77,0,0,1-.94-2l1-.24a4.9,4.9,0,0,0,.78,1.64Zm85.17-1-.9-.43a4,4,0,0,0,.41-1.73l1-.12v.12A5,5,0,0,1,439,156.45Zm-84.41-4.66-.83-.56a9.46,9.46,0,0,1,1.43-1.6l.67.74A8.55,8.55,0,0,0,354.58,151.79Zm82.38-.85a12.59,12.59,0,0,0-1.45-1.29l.61-.79a12.15,12.15,0,0,1,1.57,1.4Zm-77.87-2.8-.48-.87c.58-.32,1.2-.63,1.86-.92l.41.91C360.25,147.54,359.65,147.84,359.09,148.14Zm73-.52c-.58-.28-1.19-.55-1.83-.82l.38-.92c.66.27,1.29.55,1.88.84Zm-67.5-1.82-.33-1c.63-.21,1.29-.42,2-.62l.29,1C365.87,145.38,365.23,145.59,364.62,145.8Zm61.89-.36c-.63-.2-1.27-.39-1.93-.57l.26-1c.68.19,1.33.39,2,.59Zm-56.08-1.28-.22-1,2-.44.21,1Zm50.23-.26c-.65-.14-1.31-.28-2-.4l.19-1,2,.41ZM376.38,143l-.16-1,2-.31.14,1Zm38.31-.18-2-.28.13-1c.68.09,1.36.18,2,.29Zm-32.29-.61-.11-1,2-.19.09,1Zm26.27-.12-2-.17.08-1c.69.05,1.36.11,2,.18Zm-20.22-.37-.06-1,2-.1,0,1Zm14.16-.06-2-.08,0-1,2,.08Zm-8.09-.14v-1h2v1h-2Z"/><path class="f" d="M507.79,103.9c0-8.57-20.74-15.52-46.32-15.52-23.31,0-42.59,5.77-45.83,13.29l4.26-6.53-4-1.59a175,175,0,0,0-28.3-2.21c-36.47,0-66,10.26-66,22.91,0,5.34,5.27,10.25,14.09,14.15,16.62-1.92,35.29-3.92,40-5.92-4.34,3.66-10.67,7.33-18,12.18a173.39,173.39,0,0,0,30,2.51c31.66,0,58.11-7.74,64.53-18.06,3,.21,6.17.32,9.38.32C487.05,119.43,507.79,112.48,507.79,103.9Z"/><path class="g" d="M507.79,98.19c0,8.58-20.74,15.53-46.32,15.53s-46.32-7-46.32-15.53,20.74-15.52,46.32-15.52S507.79,89.62,507.79,98.19Z"/><path class="g" d="M337.71,123.57l43.93-4.93-22.39,10.61a176.13,176.13,0,0,0,28.31,2.21c36.46,0,66-10.26,66-22.92s-29.57-22.91-66-22.91-66,10.26-66,22.91C321.52,114.29,327.63,119.55,337.71,123.57Z"/><path class="h" d="M558.36,107.07c-41,0-74.29,11.85-74.29,26.47S517.33,160,558.36,160C577,160,594,157.57,607,153.55l7.17-2.49,5.4-2.51c8.26-4.27,13.1-9.44,13.1-15C632.65,118.92,599.39,107.07,558.36,107.07Z"/><path class="i" d="M614.4,144.81l5.15-2.86c8.26-4.26,13.1-9.44,13.1-15,0-14.62-33.26-26.47-74.29-26.47s-74.29,11.85-74.29,26.47,33.26,26.47,74.29,26.47C577,153.41,594,151,607,147Z"/><path class="j" d="M485.37,121.9c-2-4.73-1.84-30.49-1.74-31.47,1.22-11.84,1.59-20.65,0-33.3l4.86-.61c1.64,13.12,1.27,22.22,0,34.41-.16,2.38.06,25.92,1.38,29.07Z"/><path class="e" d="M522.26,58.67c11.12-4.27,19.55-11.05,20.61-14.7-4.73-2.45-11.1-3.52-17.94-3.51a24.88,24.88,0,0,0,4.92-18.84,78.73,78.73,0,0,0-16.31,3,32.26,32.26,0,0,0-.33-8.61,17.28,17.28,0,0,0-4.74,1.09,45,45,0,0,0-1.59-10.93C503.66,7.7,496.23,10,490.34,16.89c-2.1-2.84-4.25-4.8-5.76-5.38a43,43,0,0,0-4.55,6A77.28,77.28,0,0,0,465.7,4.27a51.36,51.36,0,0,0-2.89,12.45,44,44,0,0,0-7.52-4.36,41.43,41.43,0,0,0-1,14,56.59,56.59,0,0,0-19.77,1.1c2,5,4.44,10.66,8.47,15.66a67.5,67.5,0,0,0-19,3.16c3.24,5.89,10.22,11,18.8,14-7.75,4.24-12.1,10.13-13.64,14.15,7.26,1.77,18.16-.25,28.56-3.79,0,3.21.81,5.86,1.84,6.62,5-1.22,10.31-4.64,15-9.32,1.14,3,4.33,5.9,8.53,8.49,5.56-3,8.43-5.7,9.52-8,4.6,4.45,9.74,7.69,14.57,8.87.88-.65,1.6-2.69,1.79-5.27,11.55,3.24,23.51,3.22,33,.1C537.73,65.91,530.61,61.43,522.26,58.67Z"/><path class="k" d="M483.29,57.53c-9.27-1.93-35-15.05-28-45.17C473.83,20.66,489.47,45.56,483.29,57.53Z"/><path class="l" d="M513.21,16c-10.09.6-30.12,15.45-30.31,41.51C494.48,56.57,517.27,39.77,513.21,16Z"/><path class="m" d="M484.58,11.51c6.56,2.52,25.16,30.88-1.27,46C474.25,50.2,468.74,29.08,484.58,11.51Z"/><path class="n" d="M506.88,6.18c-6.57,3.09-30.54,9.38-23.57,51.31C517.69,40.74,506.88,6.18,506.88,6.18Z"/><path class="o" d="M484.58,57.49c2.55-6.79,15.35-28-18.88-53.22C452.73,40.25,484.58,57.49,484.58,57.49Z"/><path class="p" d="M434.57,27.42c5.51,13.7,13.8,31.58,50,30.07C480.62,46.72,473.67,19.11,434.57,27.42Z"/><path class="q" d="M529.85,21.62c-29.15,2.51-41.31,15.84-46,35.53C501.09,59.66,533.33,46.53,529.85,21.62Z"/><path class="r" d="M542.87,44c-2.19,7.55-36,28.53-59.74,12.82C488.8,43.89,526.12,35.29,542.87,44Z"/><path class="s" d="M424,46.24c7.85,14.27,37.64,24,59.12,10.55C469.9,44.8,446.74,39,424,46.24Z"/><path class="t" d="M483.13,76.42c-9.72-6-14.06-13.85,0-19.63C490.76,60.53,501.32,66.5,483.13,76.42Z"/><path class="u" d="M459.57,77.25c-3.64-2.69-4.56-28.94,23.56-20.46C477.34,66.92,468,75.19,459.57,77.25Z"/><path class="v" d="M507.22,77.25c3.64-2.69,4.56-28.94-23.56-20.46C489.45,66.92,498.81,75.19,507.22,77.25Z"/><path class="w" d="M542,72.08c-17.28,5.66-42.58,1.13-58.91-14.63C504.21,52,531.5,57,542,72.08Z"/><path class="x" d="M429.17,74.42c3.3-8.61,19.47-25.82,54.49-17C473.41,66.09,443.85,78,429.17,74.42Z"/><path class="k" d="M483.29,57.53c-9.27-1.93-35-15.05-28-45.17C473.83,20.66,489.47,45.56,483.29,57.53Z"/><path class="l" d="M513.21,16c-10.09.6-30.12,15.45-30.31,41.51C494.48,56.57,517.27,39.77,513.21,16Z"/><path class="m" d="M484.58,11.51c6.56,2.52,25.16,30.88-1.27,46C474.25,50.2,468.74,29.08,484.58,11.51Z"/><path class="n" d="M506.88,6.18c-6.57,3.09-30.54,9.38-23.57,51.31C517.69,40.74,506.88,6.18,506.88,6.18Z"/><path class="o" d="M484.58,57.49c2.55-6.79,15.35-28-18.88-53.22C452.73,40.25,484.58,57.49,484.58,57.49Z"/><path class="p" d="M434.57,27.42c5.51,13.7,13.8,31.58,50,30.07C480.62,46.72,473.67,19.11,434.57,27.42Z"/><path class="q" d="M529.85,21.62c-29.15,2.51-41.31,15.84-46,35.53C501.09,59.66,533.33,46.53,529.85,21.62Z"/><path class="r" d="M542.87,44c-2.19,7.55-36,28.53-59.74,12.82C488.8,43.89,526.12,35.29,542.87,44Z"/><path class="s" d="M424,46.24c7.85,14.27,37.64,24,59.12,10.55C469.9,44.8,446.74,39,424,46.24Z"/><path class="t" d="M483.13,76.42c-9.72-6-14.06-13.85,0-19.63C490.76,60.53,501.32,66.5,483.13,76.42Z"/><path class="u" d="M459.57,77.25c-3.64-2.69-4.56-28.94,23.56-20.46C477.34,66.92,468,75.19,459.57,77.25Z"/><path class="v" d="M507.22,77.25c3.64-2.69,4.56-28.94-23.56-20.46C489.45,66.92,498.81,75.19,507.22,77.25Z"/><path class="w" d="M542,72.08c-17.28,5.66-42.58,1.13-58.91-14.63C504.21,52,531.5,57,542,72.08Z"/><path class="x" d="M429.17,74.42c3.3-8.61,19.47-25.82,54.49-17C473.41,66.09,443.85,78,429.17,74.42Z"/><path class="y" d="M581.4,146.08c-25.5-2.77-32.5-7.64-35.5-10s-6.25-4.63-6.25-4.63c-5.5-.24-10,.69-19.5-.24-8.75-2.08-16.75-9.72-9.75-8.79,7,2.54,33,.46,33,.46l40,17.13Z"/><polygon class="z" points="625.12 165.21 616.34 165.21 617.34 157.8 626.12 157.8 625.12 165.21"/><polygon class="aa" points="639.92 152.84 631.85 152.84 632.85 144.84 640.92 144.84 639.92 152.84"/><path class="e" d="M638.31,149.45h0c-.67,0-1.33,0-2-.06l.06-1c.62,0,1.26,0,1.91,0Zm4-.25-.13-1c.66-.08,1.3-.19,1.89-.32l.21,1C643.62,149,643,149.11,642.27,149.2Zm-9.9-.33a14.74,14.74,0,0,1-2-.54l.33-.94a15,15,0,0,0,1.83.5Zm15.69-1.43-.55-.84c.39-.26.86-.66.86-1.11l1-.07v.07A2.42,2.42,0,0,1,648.06,147.44Zm-20.84-1.93v0a2.39,2.39,0,0,1,1.29-1.93l.56.83c-.39.26-.85.66-.85,1.1Zm18.6-1.92a15,15,0,0,0-1.83-.5l.21-1a16.33,16.33,0,0,1,1.94.53Zm-13.28-.49-.21-1c.61-.13,1.27-.25,2-.34l.14,1C633.76,142.86,633.12,143,632.54,143.1Zm7.65-.51c-.62,0-1.25-.06-1.9-.06l0-1h0c.67,0,1.32,0,2,.06Z"/><path class="ab" d="M572.41,98.46c2.73-3.09,6.82-13.6-3.78-13.6-3.63,4.34-4.39,13.32-4.39,13.32Z"/><path class="ac" d="M541.08,126.92c-6.51,2.24-15.44,2.52-22,1.82s-16.2-4.63-12.11-16.82c0,0,3.18-10.1,9.68-7.72s.61,5-.6,8.28-2.42,10,3.93,10,12.27,0,15-2.38S541.08,126.92,541.08,126.92Z"/><path class="ad" d="M541.08,126.92c-1.37,2-10.6-5.89-5.45-7.43S541.08,126.92,541.08,126.92Z"/><path class="ae" d="M516.25,117.1c-2.88-.14-4.39-.84-4.69-4.48s.15-8.56,3.18-8.84S516.25,117.1,516.25,117.1Z"/><path class="af" d="M609.91,124.07c9.28,0,18.1-.6,21.39,10.09A44.08,44.08,0,0,1,632.92,145a23.61,23.61,0,0,0,8.07,0c.81-9.35-2-19.82-7.27-24.31a25.62,25.62,0,0,0-22.6-5.61C611.52,116.22,609.91,124.07,609.91,124.07Z"/><path class="ag" d="M614,119.77c-.95,3.23-3.89,6.08-6.63,5.38s-4.19-3.88-3.23-7.12,4-5.29,6.7-4.59S615,116.53,614,119.77Z"/><path class="ah" d="M532.4,118.09c11.71,15.7,17,18.69,27.05,23.18s31.48,14.95,49.25-11.59S587.3,86.3,575.59,97.52c-3.63.38-6.46-1.87-10.09.38S532.4,118.09,532.4,118.09Z"/><path class="ai" d="M602.64,122.2c6.93-6.23,7.17-13,5.71-18.24-8.48-9.73-25.66-13.24-32.76-6.44a4.53,4.53,0,0,1-.52,0c-6.24,6.54-8.44,16.06-7.15,22,1.62,7.48,4,11.59,8.48,13.09S588.91,134.54,602.64,122.2Z"/><path class="ag" d="M608.59,134.63c0,2.48-3,4.49-6.66,4.49s-6.66-2.94-6.66-5.42,3-3.56,6.66-3.56S608.59,132.15,608.59,134.63Z"/><path class="aj" d="M604.66,140.89c-8.57-3.63-11.71-10.09-2.42-9.72,6.06.25,10.09,3,14.53,6,0,0,9.28,7.11,9.28,21.32-2.82,1.12-8.88.37-8.88.37C616,151.74,614.35,145,604.66,140.89Z"/><path class="ae" d="M566.81,94c1.06,3.92,1.21,11.21-4.24,15.28s-10.67,7.6-18.62,9.53c-4.25,1-10.44,2.81-14.38-2.24S566.81,94,566.81,94Z"/><path class="ak" d="M515.85,99.76c-2.83,5.24-9.69,21.32,11.7,20.57s34.72-10.1,37.55-17.57,4.84-16.46,2.82-23.56C563.08,62,521.5,89.67,515.85,99.76Z"/><path class="ag" d="M534.11,99c4.85,1.4,14.84-.56,23-7.29s13-10.94,10-14.87S534.11,99,534.11,99Z"/><path class="al" d="M512.21,102.76c-7.67-3-.4-24.68,30.68-31.41,8.72-1.89,16-.64,20.19-.38,10.77.68,7.14,4.61,4.84,8.23-4,6.36-18.2,17.53-29.47,20.56C525.94,103.13,512.21,102.76,512.21,102.76Z"/><path class="am" d="M512.31,88.22a9.63,9.63,0,0,0,6.82,8c3,.84,9.69,1.12,11.8-2.94,2.38-4.55,2.12-5.47,2.12-5.47,2.73.56,7.72-.14,10.3-3.23a9.44,9.44,0,0,0,2.27-7.85c-.15-2-1.06-5-2.73-5.37S512.31,88.22,512.31,88.22Z"/><path class="ah" d="M529.17,85.18c-6-3.16-11.71-18.13-1.62-20s14.54,3.55,16.55,7.29S543.3,92.66,529.17,85.18Z"/><path class="an" d="M521.4,73.78c4.54-.84,13.32,2.8,11.5,11.78C531.63,91.84,521.4,73.78,521.4,73.78Z"/><path class="ao" d="M516.65,93.78c-6-3.16-11.7-18.69-1.61-20.56s14.53,4.11,16.55,7.85S530.78,101.26,516.65,93.78Z"/><path class="e" d="M544.51,73.7c-4.7,1.81-13.21,7.87-15.34,11.48C542.07,92,545.55,78.88,544.51,73.7Z"/><path class="ap" d="M517.64,94.27c11.83,5.54,15.22-6.38,14.42-11.62C528.25,84.08,520.73,91.22,517.64,94.27Z"/><path class="aq" d="M529.12,86.26a2.23,2.23,0,0,0,2.27-2.18,2,2,0,0,0-.27-1,26.27,26.27,0,0,0-3.69,2.45A2.34,2.34,0,0,0,529.12,86.26Z"/><path class="aq" d="M541.53,77.14A2.22,2.22,0,0,0,543.8,75a2.07,2.07,0,0,0-.2-.89,37.64,37.64,0,0,0-3.93,2.13A2.3,2.3,0,0,0,541.53,77.14Z"/><path class="e" d="M650.07,98.43l-2,0,0-1,2,0Zm4,0,0-1,2,0,0,1Zm-9.93-.18q-1,0-2-.12l.06-1c.65,0,1.31.09,2,.12ZM660,98.18l-.06-1,2-.14.08,1Zm-21.82-.39-2-.21.11-1,2,.22Zm27.76-.11-.1-1,1.95-.23.13,1ZM632.25,97l-2-.32.18-1c.63.12,1.28.22,1.94.32Zm39.6-.16-.17-1,1.94-.34.19,1ZM626.38,96c-.67-.15-1.31-.3-1.94-.46l.24-1,1.91.45Zm51.33-.24-.24-1,1.91-.48.26,1C679,95.39,678.37,95.55,677.71,95.71ZM620.6,94.39c-.66-.21-1.29-.42-1.89-.65l.34-.94c.6.22,1.21.44,1.86.64Zm62.86-.33-.33-.94c.64-.22,1.25-.45,1.84-.68l.37.93C684.74,93.6,684.11,93.84,683.46,94.06ZM615,92.15c-.63-.33-1.22-.67-1.76-1l.54-.84c.51.32,1.07.64,1.68,1Zm74-.51-.49-.87a17.42,17.42,0,0,0,1.62-1l.59.8A16.44,16.44,0,0,1,689,91.64Zm-78.8-3.2a5.62,5.62,0,0,1-1-1.92l1-.26a4.42,4.42,0,0,0,.79,1.58Zm83.32-1L692.6,87a3.65,3.65,0,0,0,.42-1.66l1-.11v.11A4.68,4.68,0,0,1,693.49,87.49ZM610.91,83l-.8-.59a9,9,0,0,1,1.42-1.52l.66.76A8.4,8.4,0,0,0,610.91,83Zm80.55-.8A10.69,10.69,0,0,0,690,81l.59-.81a12.58,12.58,0,0,1,1.57,1.33Zm-76.07-2.64-.45-.89c.56-.3,1.18-.59,1.81-.86l.4.91C616.54,79,615.94,79.25,615.39,79.54Zm71.28-.49c-.56-.27-1.16-.52-1.79-.77l.37-.93c.64.25,1.26.52,1.84.79Zm-65.85-1.72-.31-1c.61-.2,1.25-.39,1.91-.58l.27,1ZM681.18,77c-.61-.18-1.24-.36-1.89-.53l.25-1c.66.17,1.3.36,1.93.54ZM626.5,75.8l-.22-1,2-.41.2,1C627.77,75.52,627.13,75.66,626.5,75.8Zm49-.24-1.93-.38.18-1,2,.38Zm-43.16-.85-.15-1,2-.29.14,1Zm37.34-.17-1.95-.26.12-1,2,.26ZM638.17,74l-.1-1q1-.1,2-.18l.08,1Zm25.6-.1c-.65-.07-1.3-.12-2-.17l.07-1,2,.17Zm-19.7-.35-.06-1,2-.09,0,1C645.38,73.44,644.72,73.47,644.07,73.51Zm13.8-.06-2-.07,0-1,2,.07ZM650,73.32v-1h2v1h-2Z"/><path class="e" d="M683.11,102.25l0-1c.69,0,1.37,0,2-.08l.05,1C684.51,102.21,683.81,102.24,683.11,102.25Zm-4.18-.08c-.71,0-1.4-.09-2.08-.16l.1-1c.66.06,1.34.12,2,.16Zm10.42-.41-.14-1c.69-.1,1.37-.21,2-.34l.19,1C690.75,101.54,690.06,101.66,689.35,101.76Zm-16.64-.34c-.71-.13-1.4-.29-2.05-.45l.25-1c.63.16,1.3.31,2,.44Zm22.78-1-.32-1c.67-.23,1.31-.47,1.88-.73l.41.91C696.86,99.87,696.19,100.13,695.49,100.37Zm-28.83-.75a13.26,13.26,0,0,1-1.89-1l.55-.84a11.85,11.85,0,0,0,1.75.94ZM701,97.13l-.78-.63a2.49,2.49,0,0,0,.63-1.57l1-.09v0A3.52,3.52,0,0,1,701,97.13ZM662.39,95h-.17a3.47,3.47,0,0,1,.83-2.19l.78.62a2.52,2.52,0,0,0-.61,1.54Zm36.35-2.88a13,13,0,0,0-1.76-.93l.41-.92a14.35,14.35,0,0,1,1.89,1ZM667,91.19l-.41-.91c.6-.27,1.27-.53,2-.77l.31.95C668.21,90.69,667.58,90.93,667,91.19Zm26.15-1.33c-.64-.16-1.31-.31-2-.44l.19-1c.71.13,1.4.28,2,.45Zm-20.33-.42-.19-1c.67-.13,1.36-.25,2.07-.35l.14,1C674.15,89.2,673.47,89.31,672.82,89.44Zm14.28-.6q-1-.09-2-.15l.06-1c.7,0,1.4.09,2.08.16Zm-8.19-.14,0-1c.68,0,1.38-.07,2.08-.08l0,1C680.27,88.63,679.59,88.66,678.91,88.7Z"/><path class="e" d="M1038.06,179.31v-1l2,0,0,1Zm-4,0-2-.07,0-1,2,.07Zm10-.16,0-1,2-.13.07,1Zm-16-.12-2-.16.09-1,2,.16Zm22-.36-.11-1,2-.22.12,1Zm-28-.22-2-.26.14-1,2,.26Zm34-.57-.15-1q1-.15,1.95-.33l.18,1C1057.36,177.63,1056.7,177.75,1056,177.85Zm-39.92-.32-2-.37.2-1c.64.12,1.29.25,1.95.36Zm45.84-.8-.22-1,1.94-.45.23,1Q1062.94,176.52,1062,176.73Zm-51.73-.44-2-.49.26-1,1.93.49Zm57.56-1-.28-1,1.9-.58.3,1Zm-63.36-.57-1.91-.64.34-.95c.61.22,1.24.43,1.88.64Zm69.08-1.36-.37-.93c.63-.24,1.24-.49,1.84-.75l.39.92C1074.75,172.81,1074.13,173.06,1073.5,173.31Zm-74.74-.73c-.63-.27-1.24-.54-1.84-.82l.42-.91c.59.28,1.2.54,1.81.81Zm80.25-1.74-.46-.89c.59-.31,1.17-.62,1.73-.95l.5.87C1080.21,170.2,1079.62,170.52,1079,170.84Zm-85.67-.94c-.6-.34-1.17-.69-1.73-1.05l.55-.84q.81.53,1.68,1Zm90.83-2.24-.6-.81c.54-.39,1-.81,1.53-1.22l.65.76C1085.25,166.82,1084.72,167.25,1084.17,167.66Zm-95.81-1.23c-.53-.45-1-.92-1.49-1.39l.71-.7c.44.45.92.9,1.43,1.33Zm100.23-3-.79-.62a15.54,15.54,0,0,0,1.1-1.58l.86.51A15.06,15.06,0,0,1,1088.59,163.46Zm-104.25-1.64a12.22,12.22,0,0,1-.93-1.84l.92-.38a14.4,14.4,0,0,0,.86,1.71Zm106.93-3.89-1-.2a9.16,9.16,0,0,0,.19-1.88v-.11h1v.1A10.51,10.51,0,0,1,1091.27,157.93Zm-108.42-2-.27,0a10.61,10.61,0,0,1,.2-2l1,.19a9.36,9.36,0,0,0-.18,1.82Zm106.86-3.84a12.4,12.4,0,0,0-.87-1.7l.86-.52a13.24,13.24,0,0,1,.93,1.84ZM985.14,150.5l-.86-.51a13.75,13.75,0,0,1,1.16-1.69l.79.61A14.07,14.07,0,0,0,985.14,150.5Zm101.3-3.17c-.44-.45-.92-.9-1.43-1.33l.65-.76c.53.45,1,.92,1.49,1.39Zm-97.52-1.22-.65-.75c.49-.43,1-.86,1.58-1.27l.6.8C989.91,145.29,989.4,145.7,988.92,146.11Zm92.94-2.44q-.81-.53-1.68-1l.49-.87c.6.34,1.18.69,1.73,1.05Zm-88.12-.94-.5-.86c.57-.33,1.16-.66,1.77-1l.46.88C994.87,142.09,994.3,142.41,993.74,142.73Zm82.93-1.9c-.59-.27-1.19-.54-1.81-.8l.39-.92c.63.27,1.24.54,1.84.82ZM999,140.1l-.39-.92c.61-.26,1.23-.51,1.87-.76l.36.93C1000.25,139.59,999.64,139.84,999,140.1Zm72.13-1.49q-.93-.33-1.89-.63l.31-1,1.91.64Zm-66.55-.58-.31-.95c.63-.21,1.27-.4,1.92-.6l.28,1Zm60.86-1.17-1.93-.49.24-1,1.94.5Zm-55.14-.45-.23-1c.64-.15,1.29-.31,1.95-.45l.22,1Zm49.33-.89-2-.37.17-1,2,.37Zm-43.5-.33-.17-1c.65-.12,1.31-.23,2-.33l.16,1Zm37.63-.66-2-.25.12-1,2,.26Zm-31.73-.23-.12-1,2-.22.1,1Zm25.8-.44-2-.15.07-1,2,.16Zm-19.87-.14-.07-1,2-.13.06,1Zm13.92-.23-2-.06,0-1,2,.06Zm-8-.05,0-1,2,0v1Z"/><path class="e" d="M1012.56,152.31h0c-.68,0-1.36,0-2,0l0-1c.66,0,1.33,0,2,0Zm4.1-.11-.06-1,2-.14.09,1C1018,152.11,1017.35,152.16,1016.66,152.2Zm-10.25-.14-2-.2.11-1c.67.08,1.34.14,2,.2Zm16.38-.48-.15-1c.68-.09,1.35-.2,2-.32l.18,1C1024.15,151.37,1023.48,151.48,1022.79,151.58Zm-22.5-.32c-.68-.12-1.35-.25-2-.4l.21-1q1,.21,2,.39Zm28.55-.88-.25-1c.66-.17,1.31-.35,1.94-.54l.29,1C1030.18,150,1029.51,150.21,1028.84,150.38Zm-34.55-.54c-.67-.2-1.32-.42-2-.64l.33-.94c.62.21,1.26.42,1.92.62Zm40.42-1.4-.39-.92q1-.41,1.83-.84l.44.9C1036,147.88,1035.36,148.17,1034.71,148.44Zm-46.19-.84c-.64-.31-1.26-.65-1.83-1l.52-.86c.54.33,1.13.65,1.75,1Zm51.63-2.18-.6-.8a13.88,13.88,0,0,0,1.5-1.27l.7.71A15.82,15.82,0,0,1,1040.15,145.42Zm-56.8-1.33a10.79,10.79,0,0,1-1.38-1.62l.82-.57a10,10,0,0,0,1.26,1.48Zm60.76-3.58-.94-.33a5.81,5.81,0,0,0,.31-1.83l1-.11v.11A6.46,6.46,0,0,1,1044.11,140.51Zm-63.53-2.11v-.05a6.4,6.4,0,0,1,.36-2.1l.94.32a5.83,5.83,0,0,0-.3,1.78Zm61.67-3.63a10.58,10.58,0,0,0-1.27-1.47l.7-.72a12.68,12.68,0,0,1,1.39,1.61ZM984,133.4l-.7-.71a13.71,13.71,0,0,1,1.6-1.38l.6.8A16.24,16.24,0,0,0,984,133.4Zm53.84-2.47c-.55-.32-1.14-.64-1.76-1l.44-.89c.65.31,1.26.64,1.83,1ZM988.88,130l-.45-.89c.6-.3,1.23-.59,1.88-.86l.39.92C990.07,129.47,989.46,129.75,988.88,130Zm43.48-1.6q-.93-.33-1.92-.63l.29-1c.67.2,1.32.41,2,.63Zm-37.87-.59-.29-.95c.64-.2,1.3-.38,2-.56l.25,1C995.77,127.48,995.12,127.66,994.49,127.85Zm32-1q-1-.21-2-.39l.17-1c.69.12,1.36.25,2,.4Zm-26.15-.36-.18-1c.67-.12,1.34-.23,2-.33l.15,1C1001.7,126.22,1001,126.33,1000.38,126.45Zm20.16-.61-2-.2.08-1c.69.06,1.37.12,2,.2Zm-14.15-.18-.08-1c.67-.06,1.36-.11,2.05-.15l0,1C1007.73,125.55,1007.06,125.6,1006.39,125.66Zm8.09-.24-2,0-.07-1h.09c.64,0,1.31,0,2,0Z"/><path class="ar" d="M1120.49,102.22l-2.69-1c6.54-17.56-1.72-40.73-1.8-41l2.7-1C1119.06,60.26,1127.4,83.65,1120.49,102.22Z"/><path class="e" d="M1150.27,37.06a15.86,15.86,0,0,0-6.75,1.14c3.25-6.36,4.36-13.44,1.35-20.45a27.7,27.7,0,0,0-9.7,4.28,46.54,46.54,0,0,0-5.31-13.52,38.55,38.55,0,0,0-12.7,10.5c-4.66-6.1-9.82-10.36-12.42-10.79a27.1,27.1,0,0,0-5.84,14.37A107.49,107.49,0,0,0,1087.12,17a36.43,36.43,0,0,0-1,11.28,57.63,57.63,0,0,0-9.07-2.76c-1.06,12.16,4.43,20.47,11.78,26a27.43,27.43,0,0,0-12.91,5c8,9.32,21.49,11.44,33.16,8,2.46,0,5.35-1,8.72-3.33l-.23-.3.58.22a16.31,16.31,0,0,0,8.54-.52C1144.48,58.53,1149.92,44.16,1150.27,37.06Z"/><path class="as" d="M1115.9,61.11c-10.57-.4-41.23-8.3-38.85-35.61C1099,30.18,1120.62,49.78,1115.9,61.11Z"/><path class="at" d="M1144.87,17.75c-11,1.92-33.76,20.59-29.4,43.42C1128.09,58.71,1153.52,38,1144.87,17.75Z"/><path class="au" d="M1104.74,8.22c7.69,1.28,37.7,36,11.18,52.85C1104.63,56,1090.35,25.79,1104.74,8.22Z"/><path class="av" d="M1129.86,8.51c-6.7,3.61-29,16.86-13.94,52.56C1150.93,41.63,1129.86,8.51,1129.86,8.51Z"/><path class="aw" d="M1117.32,60.9c1.62-6.3,12-26.64-30.2-43.92C1079.13,50.25,1117.32,60.9,1117.32,60.9Z"/><path class="ax" d="M1114.09,43.57c7.68,3.86,12.19,10.2,4.06,17.53C1112.32,58.94,1104.08,55.23,1114.09,43.57Z"/><path class="ay" d="M1129.53,39.21c3,1.84,9,25.13-11.38,21.89C1119.89,51.17,1124.39,42.35,1129.53,39.21Z"/><path class="az" d="M1097.94,46.54c-1.86,3,3,26.54,19.86,14.64C1111.86,53,1103.94,47.09,1097.94,46.54Z"/><path class="ba" d="M1075.92,56.52c10.29-7.71,28-7.57,42.1,4C1105.16,68.59,1086,68.36,1075.92,56.52Z"/><path class="bb" d="M1150.27,37.06c-.4,8.19-7.55,26-32.61,23.53C1122.67,51.3,1139.8,36.13,1150.27,37.06Z"/><path class="as" d="M1115.9,61.11c-10.57-.4-41.23-8.3-38.85-35.61C1099,30.18,1120.62,49.78,1115.9,61.11Z"/><path class="at" d="M1144.87,17.75c-11,1.92-33.76,20.59-29.4,43.42C1128.09,58.71,1153.52,38,1144.87,17.75Z"/><path class="au" d="M1104.74,8.22c7.69,1.28,37.7,36,11.18,52.85C1104.63,56,1090.35,25.79,1104.74,8.22Z"/><path class="av" d="M1129.86,8.51c-6.7,3.61-29,16.86-13.94,52.56C1150.93,41.63,1129.86,8.51,1129.86,8.51Z"/><path class="aw" d="M1117.32,60.9c1.62-6.3,12-26.64-30.2-43.92C1079.13,50.25,1117.32,60.9,1117.32,60.9Z"/><path class="ax" d="M1114.09,43.57c7.68,3.86,12.19,10.2,4.06,17.53C1112.32,58.94,1104.08,55.23,1114.09,43.57Z"/><path class="ay" d="M1129.53,39.21c3,1.84,9,25.13-11.38,21.89C1119.89,51.17,1124.39,42.35,1129.53,39.21Z"/><path class="az" d="M1097.94,46.54c-1.86,3,3,26.54,19.86,14.64C1111.86,53,1103.94,47.09,1097.94,46.54Z"/><path class="ba" d="M1075.92,56.52c10.29-7.71,28-7.57,42.1,4C1105.16,68.59,1086,68.36,1075.92,56.52Z"/><path class="bb" d="M1150.27,37.06c-.4,8.19-7.55,26-32.61,23.53C1122.67,51.3,1139.8,36.13,1150.27,37.06Z"/><path class="bc" d="M1059.43,108.25a80.54,80.54,0,0,0,11.26-.77c-8.62,3-14,7.08-14,11.65,0,9,20.83,16.31,46.52,16.31,23.5,0,42.91-6.11,46.06-14,1.82.1,3.69.15,5.59.15,19.85,0,35.94-5.68,35.94-12.68s-16.09-12.69-35.94-12.69c-15.12,0-28,3.3-33.35,8a124.6,124.6,0,0,0-18.3-1.31,122.51,122.51,0,0,0-20.39,1.64c6.6-2.53,10.72-6.12,10.72-10.1,0-7.67-15.28-13.89-34.13-13.89a77.68,77.68,0,0,0-13.82,1.19l12.92,9.68-31.74-1a6.7,6.7,0,0,0-1.49,4.06C1025.3,102,1040.58,108.25,1059.43,108.25Z"/><path class="g" d="M1148.74,114.13c0-9-20.82-16.31-46.51-16.31s-46.52,7.3-46.52,16.31,20.83,16.31,46.52,16.31S1148.74,123.14,1148.74,114.13Z"/><path class="i" d="M1117.93,103.86c0-7,16.1-12.69,36-12.69s35.94,5.68,35.94,12.69-16.09,12.68-35.94,12.68S1117.93,110.86,1117.93,103.86Z"/><path class="bd" d="M1058.43,75.47a77.68,77.68,0,0,0-13.82,1.19l12.92,9.68-31.74-1a6.7,6.7,0,0,0-1.49,4.06c0,7.67,15.28,13.89,34.13,13.89s34.13-6.22,34.13-13.89S1077.28,75.47,1058.43,75.47Z"/><path class="e" d="M1170,140.68h-.54l0-1h.47c.51,0,1,0,1.46-.05l.06,1C1170.94,140.66,1170.44,140.68,1170,140.68Zm-4.53-.43a16.51,16.51,0,0,1-2-.5l.3-.95a17.25,17.25,0,0,0,1.85.47Zm10-.22-.24-1a16.72,16.72,0,0,0,1.81-.58l.37.93A18.43,18.43,0,0,1,1175.39,140Zm-15.58-2.14a4.49,4.49,0,0,1-1.34-1.72l.92-.39a3.59,3.59,0,0,0,1.06,1.34Zm21-.79-.78-.62a2.34,2.34,0,0,0,.58-1.49l.76,0,.24,0A3.34,3.34,0,0,1,1180.77,137.1Zm-20.36-4.2-.65-.76a8.6,8.6,0,0,1,1.76-1.13l.44.89A7.83,7.83,0,0,0,1160.41,132.9Zm18.18-.58a11,11,0,0,0-1.68-.83l.37-.93a12.13,12.13,0,0,1,1.84.91Zm-13-1.59-.19-1c.64-.13,1.31-.24,2-.31l.1,1A17.06,17.06,0,0,0,1165.56,130.73Zm7.66-.18c-.62-.09-1.26-.16-1.91-.2l0-1c.68,0,1.36.11,2,.21Z"/><g class="be"><polygon class="bf" points="1038.31 585.86 978.72 562.12 988.93 597.7 1048.48 630.58 1038.31 585.86"/><path class="bg" d="M991.38,597.43c7.89-4.35,20.69-33.67-3-38.56-4.08,1.36-9.75,3.17-9.75,3.17l10.26,35.66Z"/><path class="bh" d="M1063.05,590.87s-2.93-6.16-11.56-10.16c-7.65-3.54-48.53-20.39-48.53-20.39s-10.84-3.71-18.77-.27a49.08,49.08,0,0,1-5.47,2.07l59.59,23.74Z"/><path class="bi" d="M1037.49,585.59l.82.27s10.3-3,16.83-1.62,12.35,10.91,10.2,23.52c-2.44,14.4-12.23,22.82-16.86,22.82C1047.12,626.78,1037.49,585.59,1037.49,585.59Z"/><path class="bg" d="M1047,578.86c-4.62-.93-11.78.92-11.78.92-5.55-2.08-16.86-6.7-16.86-6.7,4.38-.69,10.16-1.85,13.39-.46C1035.18,574,1047,578.86,1047,578.86Z"/><path class="bg" d="M1022.24,568.46c-4.62-.92-11.78.93-11.78.93-5.54-2.08-16.86-6.7-16.86-6.7,4.39-.69,10.17-1.85,13.4-.46C1010.46,563.61,1022.24,568.46,1022.24,568.46Z"/><path class="bf" d="M978.72,562.12l10.21,35.58,59.55,32.88-10.17-44.72Zm1.79,2L1037,587.17l9.55,40.81-56.66-31.11Z"/><path class="bg" d="M1052.15,621.82c6-4.13,9.83-13.47,8.33-21.12-1.25-6.42-4.21-13.22-16.53-10.45C1046.12,597.57,1052.15,621.82,1052.15,621.82Z"/><polygon class="bj" points="1048.48 630.58 988.93 597.7 949.9 611.64 950.71 656.91 998.89 664.56 1048.88 651.59 1048.48 630.58"/><polygon class="bf" points="988.93 597.7 988.98 636.37 956.65 646.3 949.9 611.64 988.93 597.7"/><polygon class="bk" points="988.98 636.37 1010 650.69 1000.99 654.85 979.28 638.68 988.98 636.37"/><path class="bl" d="M994.59,648.87c14.63-7.35,16.81-11.7,17.31-14.59a8.54,8.54,0,0,0-14-7.7c-5.08-6.52-13.09-5.08-14.65,2.1C981.33,637.32,994.59,648.87,994.59,648.87Z"/><polygon class="bg" points="949.9 611.64 950.4 663.27 1003.24 675.34 1002.96 652.12 949.9 611.64"/><polygon class="bi" points="1048.78 629.75 1049.03 656.15 1002.96 666.22 1002.96 652.88 1048.78 629.75"/><polygon class="bg" points="1042.1 641.85 1042.1 659.25 1009.79 667.32 1009.79 656.45 1042.1 641.85"/><polygon class="bf" points="995.68 656.23 996.14 672.86 977.67 668.01 977.2 642.6 995.68 656.23"/><polygon class="bf" points="972.18 638.22 972.59 669.16 956.59 664.31 956.19 624.59 972.18 638.22"/><polygon class="bi" points="988.93 597.7 1048.48 630.58 1003.15 653.69 1002.53 652.15 1045.8 630.44 988.83 599.03 952.03 611.96 1003.92 652 1002.96 652.88 949.9 611.64 988.93 597.7"/><polygon class="bm" points="1003.4 609.89 1005.65 600.44 1001.73 599.59 1001.79 609.35 1003.4 609.89"/><polygon class="bm" points="987.64 610.29 984.71 601.02 980.91 602.31 985.98 610.64 987.64 610.29"/><polygon class="bm" points="979.97 616.86 972.06 611.21 969.79 614.52 978.85 618.15 979.97 616.86"/><polygon class="bm" points="1016.41 617.2 1022.86 609.93 1019.81 607.33 1015.25 615.96 1016.41 617.2"/><polygon class="bm" points="1020.69 626.68 1030.41 626.84 1030.4 622.83 1020.88 624.99 1020.69 626.68"/><path class="bn" d="M944.23,650.54a180.32,180.32,0,0,1-17.63,15.09c-13.34-8.54-21.33-15.3-17.42-41.13,0,0,30-2,38.8,11.58C951.21,641.08,951.23,647.18,944.23,650.54Z"/><path class="bo" d="M1057.81,662.9c-1.73-1-2.8-1.74-2.8-1.74-7-3.17-8-9.71-3.75-13.63s20.92-8,32.74-7.29C1075.55,650.55,1067.05,657.77,1057.81,662.9Z"/><path class="bp" d="M1000,679.5c-24.18,0-67-2.33-87-19,24-6,20-19,38-17,8.51,1,21.92,12.59,35,16.79,8.8,2.82,17.28,3.75,19,8.21C1005.82,670.7,1005,679.5,1000,679.5Z"/><path class="bq" d="M1000.74,678c23.92,3.54,57.14,8.12,79.34-5.44-1.3-1.9-1.36-5.24-3.61-6-14.47-5-11.47-15-27.47-15-14.32,0-20.48,8.3-34,11-5,1-10,2-13,4C999.16,668.39,995.8,677.27,1000.74,678Z"/></g><path class="br" d="M501.37,195.48q3.54,54.21,5.18,109.12c1.17,37.91,1.82,76,2.35,114l.39,28.57c.11,9.52.28,19.06.28,28.5,0,19-.42,38-.88,57-.95,38-2.3,76.07-3.54,114.13l1.53.27c1.36-38,2.83-76,3.9-114.15.53-19.07,1-38.14,1.07-57.31,0-9.63-.1-19.15-.18-28.67l-.26-28.59c-.38-38.12-.88-76.27-1.9-114.37-1-36.24-2.49-72.42-4.66-108.35l-3.28-.21"/><path class="bs" d="M546.12,197.62c-2.47,37.69-4.32,75.57-5.78,113.49q-2.22,58.06-3.28,116.27-2.2,116.37-.68,232.76l1.53-.15q-1.08-116.16,1.53-232.38,1.32-58,3.7-115.91,2.4-57.15,6.23-113.87l-3.25-.21"/><path class="bt" d="M385.63,191q-.3,23.13-.45,46.26l0,6q-.17,30.89-.05,61.78.11,29.83.5,59.67t1.13,59.61c1,39.67,2.47,79.4,5.06,118.64q1.86,29.44,4.14,58.7T400.77,660h0l1.5-.85q-2.53-29-4.64-58.32t-3.94-58.65c-2.46-39.16-3.79-78.64-4.62-118.27q-.66-29.7-.91-59.47t-.28-59.53q0-56.85,1-113.69l-3.22-.19"/><path class="bu" d="M460.8,194.23c1.43,34.26,2.29,68.79,3,103.29q1.11,54.94,1.49,110c.25,36.69.24,73.4-.23,110.07-.07,9.18-.29,18.33-.45,27.5s-.43,18.31-.69,27.46-.65,18.26-1,27.39c-.11,2.27-.18,4.57-.3,6.83l-.41,6.8-.8,13.59,1.52.62.86-13.7.43-6.85c.14-2.29.22-4.58.33-6.87.4-9.17.88-18.33,1.13-27.52s.63-18.37.79-27.56.46-18.38.56-27.57q.92-55.17.65-110.32t-1.06-110.24c-.58-34.26-1.3-68.47-2.58-102.69l-3.24-.21"/><path class="bv" d="M1063.51,207.86q.08,53.46,2.25,107.32c1.48,37.19,3.52,74.44,5.71,111.7l1.65,27.95c.57,9.32,1.08,18.65,1.76,27.87,1.4,18.52,3.22,37.05,5.11,55.55,3.81,37,8,73.94,12.17,110.92l-1.66.48c-4.25-36.92-8.63-73.82-12.57-110.88-2-18.54-3.85-37.1-5.33-55.8-.73-9.4-1.28-18.71-1.89-28l-1.78-28c-2.36-37.28-4.58-74.6-6.24-111.95-1.57-35.53-2.52-71.09-2.75-106.49l3.57-.69"/><path class="bw" d="M1156.8,205.5q.2,22.69.2,45.38v5.85q0,30.31-.35,60.61-.32,29.28-1,58.53t-1.64,58.48c-1.34,38.92-3.24,77.88-6.36,116.36q-2.25,28.89-5,57.57T1137,665.49h0l-1.65-.84c2-19,3.8-38.07,5.51-57.19s3.3-38.29,4.72-57.51c3-38.4,4.7-77.13,5.88-116q.91-29.13,1.4-58.33t.7-58.4q.39-55.77-.31-111.54l3.54-.17"/><path class="bx" d="M1097.73,206.33c-1,33.65-1.48,67.55-1.75,101.42q-.39,53.94,0,107.94c.28,36,.85,72,1.92,108,.22,9,.6,18,.91,27s.76,17.94,1.18,26.91,1,17.89,1.53,26.83c.15,2.23.26,4.47.44,6.69l.54,6.65,1.09,13.31-1.66.66-1.16-13.41-.57-6.7c-.19-2.24-.31-4.49-.47-6.73-.58-9-1.25-17.95-1.66-26.95s-1-18-1.29-27-.78-18-1-27q-1.83-54.08-2.39-108.19t-.49-108.17c.12-33.62.4-67.21,1.29-100.82l3.56-.32"/><path class="by" d="M1108,206.33c-1.08,34.75-1.55,69.75-1.85,104.73q-.44,55.69-.07,111.46c.24,37.17.78,74.35,1.81,111.49.21,9.29.58,18.56.89,27.84s.73,18.53,1.14,27.79,1,18.48,1.51,27.71c.15,2.31.26,4.62.43,6.92l.54,6.87,1.08,13.74-1.66.68-1.15-13.85-.57-6.93c-.18-2.31-.31-4.63-.46-6.95-.57-9.27-1.23-18.54-1.63-27.84s-1-18.58-1.27-27.89-.76-18.6-1-27.91q-1.79-55.85-2.28-111.73t-.4-111.71c.16-34.72.47-69.4,1.39-104.11l3.56-.31"/></g></svg>