<svg xmlns="http://www.w3.org/2000/svg" viewBox="0 0 269.66 142.37"><defs><style>.a{fill:#6d6e71;}.b{fill:#8a8c8e;}.c{fill:#395e14;}.d{fill:#85aa40;}.e{fill:#9bc33c;}.f{fill:#fbab18;}</style></defs><path class="a" d="M122.83,25.23v.2l-.4,11c1.9.1,6,.4,7.9.6a20.6,20.6,0,0,1-.2,5.6h-7.6c-.3.4,0,9.1.1,11.4,2.9,0,7-.7,9.8-.3-.2,1.9.3,4.5,0,6.7-4.8.4-11.3.4-16.2.6l-.1-3.1c-.4-12.9.2-26.4.2-38.6,5.1-.3,10.7-.7,16.1-.9,0,1.2.2,3.1.3,6.1Z"/><path class="a" d="M137.43,56.93c-.9-8.2-.6-15.7-.5-24.2l.2-14.4c2.2-.2,4.8,0,6.8-.3-.1,11.1-.6,22.9-.2,35.9.1,2.4,2.7,1.9,4.8,2a29.35,29.35,0,0,1,.1,6C144.73,61.83,137.93,62.13,137.43,56.93Z"/><path class="a" d="M167.83,25.93c-2.4,1.7-3.1,5.9-1.2,8.6,3.3,4.9,11.4,14.5,4.5,23.8-2.8,2.7-7.9,3.6-13.9,3.6l-.1-6.9c2.3-.2,7.2.8,9.6-3,1.8-8.7-7.3-13-7.7-19.3-.3-4,.1-9.5,4-12.4,1.7-1.2,5-2.1,8.5-2.4l1,6.4A12.1,12.1,0,0,0,167.83,25.93Z"/><path class="a" d="M187.43,61l.1-3.3c-2.2,1.2-5.9,2.8-9.2,1.4-3-2.1-2.6-8.7-1-11.5,1.4-2.5,6.8-3.1,10.2-3.3-.1-2.3.2-7.7-1.1-8.5-1.5-1-6-.9-7.8-.9,0-1.9-.1-3.7,0-5.9,4-.4,10.8,0,12.5,1.7a7.41,7.41,0,0,1,1.5,2.4c.9,2.2.4,18.7,1.4,28C191.93,61,187.43,61.23,187.43,61Zm-3.8-12a4.27,4.27,0,0,0-2.6,2.8c-.1,2.5.4,3.4,2.8,3.4,2.9-.4,4-.8,3.8-6.7C185,48.53,184.33,48.73,183.63,49Z"/><path class="a" d="M214.53,59.13c-1.6,1.3-7.2,1.2-10.5.2,0,4.6.7,10.6.5,12.1l-6.7-.1c-.3-11.9-.6-27.7-.6-42,1.8.1,4.2-.2,5.6,0a26,26,0,0,0,.3,2.8c2.8-1.3,6.1-2.7,9.4-1.6,5.4,2.8,3.8,9.6,3.7,14.8C216.23,49.63,216.53,57.53,214.53,59.13Zm-11.1-21.5.3,14.8a5.36,5.36,0,0,0,1.5,1.5c1.1.5,3.5,1.2,4.2-.2,1.3-2.5,1.1-9.8.9-14.9C210.23,34.13,205.23,36.23,203.43,37.63Z"/><path class="a" d="M225.43,23.83a3.32,3.32,0,0,1-3.9.4,3.92,3.92,0,0,1-2-4.6c.9-3,5.2-2.7,6.5-.5C227,20.83,226.33,22.43,225.43,23.83ZM221,60.43c-.5-10.3-.6-21.8-.6-31.2,2-.1,4-.2,5.8-.2,1.2,9.5,1.3,20.6,1.4,31.3C225.73,60.43,223.33,60.33,221,60.43Z"/><path class="a" d="M246.93,61.83a15,15,0,0,1-10.6-1.3c-1.1-.8-1.2-1.8-1.8-2.8-.9-7.1-.6-15.1-.9-22.2-1.2,0-2.2,0-3.4-.1,0-2.2,0-4.1-.1-6.1H234l-.1-9.1,6.3.1v8.6a56.1,56.1,0,0,0,5.8,0c.2,1.6.1,4.5.3,6.2-1.7-.1-4.1,0-6,0v1.5l.3,15.8c.8,4.5,3.3,3.5,6.4,3.7Z"/><path class="a" d="M267.13,57.73c-1.2,2.6-4.3,3-8.5,3-2.8,0-8.2-.3-8.5-4-.4-4-.4-8.1-.4-12.1,0-4.2-.2-7.3-.2-11.4,0-3.3,2.9-4.1,6.2-4.3,2.8-.2,10.1-.4,11.1,2.8s.7,4.6.8,7.7v8C267.53,52.43,267.73,56.33,267.13,57.73Zm-5.7-21.6c-.2-3.2-5.6-3.1-5.6.2,0,6,0,17.9.6,19,.8,1.3,4.7,1.6,5.1-.6C261.83,52.93,261.83,43,261.43,36.13Z"/><path class="a" d="M126.63,77c-2.4,1.7-3.1,5.8-1.2,8.6,3.3,4.9,11.4,14.5,4.5,23.8-2.8,2.7-7.9,3.6-13.9,3.6l-.1-6.9c2.3-.2,7.2.8,9.7-3,1.8-8.7-7.3-13-7.7-19.3-.3-4,.1-9.5,4-12.4,1.7-1.2,5-2.1,8.5-2.4l1,6.4A12.07,12.07,0,0,0,126.63,77Z"/><path class="a" d="M147.93,112.23l.1-3.3c-2.2,1.2-5.9,2.8-9.2,1.4-3-2.1-2.6-8.7-1-11.5,1.5-2.5,6.8-3.1,10.2-3.3-.1-2.3.2-7.7-1.1-8.5-1.5-1-6-.9-7.8-.9a58.05,58.05,0,0,1,0-5.9c4-.4,10.8,0,12.5,1.7a7.41,7.41,0,0,1,1.5,2.4c.9,2.2.4,18.7,1.4,28C152.43,112.23,147.93,112.33,147.93,112.23Zm-3.8-12a4.27,4.27,0,0,0-2.6,2.8c0,2.5.4,3.4,2.8,3.4,2.9-.4,4-.8,3.8-6.7C145.53,99.73,144.83,99.93,144.13,100.23Z"/><path class="a" d="M161,107.73c-.9-8.2-.6-15.7-.5-24.2l.2-14.4c2.3-.2,4.8,0,6.8-.3-.1,11.1-.6,22.9-.2,35.9,0,2.4,2.7,1.9,4.8,2a23.63,23.63,0,0,1,.1,6C168.43,112.63,161.63,112.93,161,107.73Z"/><path class="a" d="M189.33,112.63a15,15,0,0,1-10.6-1.3c-1.1-.9-1.2-1.9-1.8-2.8-.9-7.1-.6-15.1-.9-22.2-1.2,0-2.2,0-3.4-.1,0-2.2,0-4.1-.1-6.1h3.9l-.1-9.1,6.3.1v8.5c1.9.1,3.9.1,5.8.1.2,1.6.1,4.4.3,6.2-1.7-.1-4.1-.1-6,0v1.6l.3,15.8c.8,4.4,3.3,3.5,6.4,3.7Z"/><path class="a" d="M203.73,111.83l.1-3.3c-2.2,1.2-5.9,2.8-9.2,1.4-3-2.1-2.6-8.7-1-11.5,1.5-2.5,6.8-3.1,10.2-3.3-.1-2.3.2-7.7-1.1-8.5-1.5-1-6-.8-7.8-.8,0-1.9-.1-3.8,0-5.9,4-.4,10.8,0,12.5,1.7a7.41,7.41,0,0,1,1.5,2.4c.9,2.2.4,18.7,1.4,28C208.23,111.83,203.73,112,203.73,111.83Zm-3.8-12a4.27,4.27,0,0,0-2.6,2.8c0,2.5.4,3.4,2.8,3.4,2.9-.4,4-.8,3.8-6.7C201.33,99.33,200.63,99.53,199.93,99.83Z"/><path class="a" d="M222.33,88.63v23.2c-2.4.1-5,.1-6.8,0,0-11.9.4-23.6.8-34.4l6,.1v4.7l8.3-1.8a31.91,31.91,0,0,1,1,4.3Z"/><path class="a" d="M238.43,77.43l-3.8-2c2-3.8,2.4-5,4.2-8.2l5,2.8C241.63,73,241,74.33,238.43,77.43Zm-2.8,34.5c-.5-10.3-.6-21.8-.6-31.2,2-.1,4-.2,5.8-.2,1.2,9.5,1.3,20.7,1.4,31.3-1.9.1-4.3,0-6.6.1Z"/><path class="a" d="M261.13,111.93c.2-8.7,0-16.1-.4-23.8-1.5-2.7-4.8-.5-6.6.4-.2,7.3.1,15.4.2,23.4-2.1.1-4.3.1-6.4,0l.2-32.2c2.1.1,4.5-.2,6.1-.2,0,1.2,0,2.4.1,3.6,3-1.5,6.5-3.8,10.1-1.8,3.5,3.3,2.8,9.2,2.8,13.8,0,4.9.3,10.6.1,16.8Z"/><path class="b" d="M121.53,137.73c-4,0-6.8-2.4-6.8-8.1,0-4.8,2.8-7.9,7.2-7.9a8.16,8.16,0,0,1,3.6.9l-.8,1.8a6.74,6.74,0,0,0-2.8-.6c-2,0-4.5,1.3-4.5,5.7,0,4.7,1.8,6.2,4.2,6.2a13.34,13.34,0,0,0,2.1-.2v-5.2h2.4v6.4A15.09,15.09,0,0,1,121.53,137.73Z"/><path class="b" d="M135.73,137.33v-1.2a7.5,7.5,0,0,1-3.8,1.6c-1.8,0-3-1.4-3-3.6V127h2.4v6.8c0,1.4.5,1.9,1.4,1.9a7.88,7.88,0,0,0,3-1.3v-7.5H138v10.4Z"/><path class="b" d="M146.43,137.33v-1.1a6,6,0,0,1-3.4,1.4,2.93,2.93,0,0,1-2.9-2.7v-.3c0-1.9,1.7-3,3.9-3.1l2.3-.1v-1.1c0-1.4-.6-1.8-1.5-1.8a11.75,11.75,0,0,0-3.2.7l-.7-1.8a10,10,0,0,1,4.2-.9,3.34,3.34,0,0,1,3.6,3v7.8Zm0-4.5-1.9.1c-.8,0-2,.4-2,1.4a1.25,1.25,0,0,0,1,1.4h.2a6.17,6.17,0,0,0,2.6-.9Z"/><path class="b" d="M157.53,128.83a3.78,3.78,0,0,0-1-.2,5.56,5.56,0,0,0-2.4,1.2v7.5h-2.4v-10.4h2.4V128a4.44,4.44,0,0,1,2.8-1.4,3.69,3.69,0,0,1,1.1.2Z"/><path class="b" d="M166,137.33v-1.1a4,4,0,0,1-2.8,1.2c-2.9,0-4.7-2.2-4.7-5.3a5.34,5.34,0,0,1,5-5.6h.3a6.14,6.14,0,0,1,2.2.5v-6.6h2.4v16.9Zm-.1-8.5a5.4,5.4,0,0,0-2.2-.5c-1.9,0-2.8,1.6-2.8,3.6s.6,3.7,2.7,3.7a3.68,3.68,0,0,0,2.3-1Z"/><path class="b" d="M175.73,137.63a4.87,4.87,0,0,1-5.09-4.67,1.77,1.77,0,0,1,0-.23v-.4c0-3.1,1.6-5.7,4.7-5.7,2.9,0,4.1,1.9,4.7,4.4l-.9,1.2-6,.9c.3,1.6,1.2,2.7,2.8,2.7a5.61,5.61,0,0,0,3.3-1.1l.9,1.6A8.09,8.09,0,0,1,175.73,137.63Zm-.4-9.4c-1.5,0-2.4,1.6-2.4,3.3l4.4-.9C177.23,129.63,176.83,128.23,175.33,128.23Z"/><path class="b" d="M188.13,128.83a3.69,3.69,0,0,0-1.1-.2,5.56,5.56,0,0,0-2.4,1.2v7.5h-2.4v-10.4h2.3V128a4.44,4.44,0,0,1,2.8-1.4,3.69,3.69,0,0,1,1.1.2Z"/><path class="b" d="M190.93,125l-1-1.2,3.8-3.6,1.4,1.8Zm-.6,12.3v-10.4h2.3v10.4Z"/><path class="b" d="M201.33,137.33v-1.1a6,6,0,0,1-3.4,1.4,2.93,2.93,0,0,1-2.9-2.7v-.3c0-1.9,1.7-3,3.9-3.1l2.3-.1v-1.1c0-1.4-.5-1.8-1.5-1.8a11.75,11.75,0,0,0-3.2.7l-.7-1.8a10,10,0,0,1,4.2-.9,3.34,3.34,0,0,1,3.6,3v7.8Zm-.1-4.5-1.9.1c-.8,0-2,.4-2,1.4a1.25,1.25,0,0,0,1,1.4h.2a6.17,6.17,0,0,0,2.6-.9Z"/><path class="b" d="M213.33,140.73a6.24,6.24,0,0,1-2-.4l.6-1.9a3,3,0,0,0,1.3.3,1.89,1.89,0,0,0,2.1-1.68V122.13h2.5v14.7C217.83,139.53,215.53,140.73,213.33,140.73Z"/><path class="b" d="M226.73,137.33v-1.1a6,6,0,0,1-3.4,1.4,2.93,2.93,0,0,1-2.9-2.7v-.3c0-1.9,1.7-3,3.9-3.1l2.3-.1v-1.1c0-1.4-.5-1.8-1.5-1.8a11.75,11.75,0,0,0-3.2.7l-.7-1.8a10,10,0,0,1,4.2-.9,3.34,3.34,0,0,1,3.6,3v7.8Zm-.1-4.5-1.9.1c-.8,0-2,.4-2,1.4a1.25,1.25,0,0,0,1,1.4h.2a6.17,6.17,0,0,0,2.6-.9Z"/><path class="b" d="M237.83,128.83a3.78,3.78,0,0,0-1-.2,5.56,5.56,0,0,0-2.4,1.2v7.5H232v-10.4h2.3V128a4.21,4.21,0,0,1,2.8-1.4,3.69,3.69,0,0,1,1.1.2Z"/><path class="b" d="M246.33,137.33v-1.1a4,4,0,0,1-2.8,1.2c-2.9,0-4.7-2.2-4.7-5.3a5.34,5.34,0,0,1,5-5.6h.3a6.14,6.14,0,0,1,2.2.5v-6.6h2.4v16.9Zm-.1-8.5a5.4,5.4,0,0,0-2.2-.5c-1.9,0-2.9,1.6-2.9,3.6s.6,3.7,2.7,3.7a3.68,3.68,0,0,0,2.3-1v-5.8Z"/><path class="b" d="M252.33,125l-1-1.2,3.8-3.6,1.4,1.8Zm-.5,12.3v-10.4h2.4v10.4Z"/><path class="b" d="M264.43,137.33v-6.8c0-1.4-.5-1.9-1.4-1.9a11,11,0,0,0-3.1,1.3v7.4h-2.4v-10.4h2.3v1.2c1.2-.7,2.5-1.6,4-1.6,1.8,0,3,1.4,3,3.6v7.1h-2.4Z"/><path class="c" d="M26,35.33a5.09,5.09,0,0,1-5.58-4.54c0-.05,0-.1,0-.16a5.31,5.31,0,0,1,.6-3,2,2,0,1,0,2.3-2.2,4.83,4.83,0,0,1,1.7-.5,5.23,5.23,0,0,1,1,10.4Zm55.2-6.1a4.75,4.75,0,0,0-5.17-4.31h-.13a4.33,4.33,0,0,0-1.6.5,2,2,0,1,1-2.2,2.2,4.77,4.77,0,0,0,4.79,6.9h0A5,5,0,0,0,81.23,29.23Z"/><path class="d" d="M102.33,79.33c-.5-6.2-3.9-10.8-10.8-12.6a30,30,0,0,1-5.9,6,47.89,47.89,0,0,1-11.1,6.6c5.3,10.7,1,21.1-5.3,29.9,2.2,1.4,9.2,5.7,10.3,6.5,1.2-.4,1.1-1.1,1.9-1.6s2.1,0,2.6-.3.6-1.3,1.5-1.6,2.1,0,2.8-.9c-1.9-.7-7-2.2-11.9-3.9C97.93,97.33,102.93,87,102.33,79.33Z"/><path class="e" d="M63.23,113.53c8.4-9.8,15.5-21.3,9.4-33.4-1.3.5-2.7,1-4.1,1.4a61.31,61.31,0,0,1-18.6,2.6,73.06,73.06,0,0,1-18.6-2.5c-4.4,10.6-.3,21.8,11.6,31.8.2-.3.3-.9,1.1-1.2a13.36,13.36,0,0,0,2-.4c.6-.3.8-1,1.3-1.3A13.86,13.86,0,0,0,49,110c-1.8-3.1-4.9-9.6-4.2-15.6a1,1,0,0,1,.8-.9,26.76,26.76,0,0,1,7.4-.8,23.15,23.15,0,0,1,6.1.6.83.83,0,0,1,.6.8c.6,4.9-1.3,12.9-3,16.6a3.3,3.3,0,0,1,1.7.3c.4.3.7.9,1.3,1.2s1.4,0,2,.2S62.63,113.63,63.23,113.53Z"/><path class="d" d="M57.83,95.23a18.51,18.51,0,0,0-4.7-.3,32,32,0,0,0-6.1.6,24.11,24.11,0,0,0,2.1,9.9c1.3,0,5.1,0,7.4-.1A39.09,39.09,0,0,0,57.83,95.23Z"/><path class="d" d="M29.53,81c-1.5-.5-3-1-4.4-1.6a25.63,25.63,0,0,1-12.6-10.8C2.33,71.63,1.93,76.93,2,82c.2,11.2,16.1,23.9,25.2,27.2,0,0-9.4,3.4-11.3,4.1.6.8,1.6.2,2.9.9.6.3.5,1,1.2,1.4s2,.2,2.6.6.1,1.1,1.4,1.6c0,0,7.6-4.7,12.2-7.9C25.73,98.23,26.83,87.63,29.53,81Z"/><path class="e" d="M86.33,36.13c9.2-13.1-8.4-25.2-18.7-14.9-6.9-3.4-18.5-6.5-32.6-.6-9.1-9.3-30.3,1-19.4,18.7-7.5,15.9-5.3,31.6,10.2,38.2s41.4,7.3,58.5-6.4S91.73,40.33,86.33,36.13Zm-60,1.2h-.7a7.27,7.27,0,0,1-.7-14.5h.7a7.27,7.27,0,0,1,.7,14.5Zm50.7-.7h-.7a6.94,6.94,0,0,1-6.9-6.2,7.21,7.21,0,0,1,1.5-5.1,7.09,7.09,0,0,1,4.7-2.5h.7a7.07,7.07,0,0,1,7,6.9A6.93,6.93,0,0,1,77,36.63Z"/><path class="f" d="M50.93,15.23a40.87,40.87,0,0,1,15.4,3.1v-.1l5.2-12.5a.61.61,0,0,0-.1-.7.66.66,0,0,0-.7-.2l-6.9,2L60,2.23a.65.65,0,0,0-.9-.1h0L53.93,6l-6-4.2a1,1,0,0,0-.9-.1.62.62,0,0,0-.3.7l1.5,12.9C49.13,15.25,50,15.22,50.93,15.23Z"/><path class="c" d="M44.83,57.53a1.35,1.35,0,0,1,.3-1.2,1.73,1.73,0,0,1,2.4-.3,1.5,1.5,0,0,1,.6,1,1.28,1.28,0,0,1-.3,1.2,1.84,1.84,0,0,1-1.1.7h-.3A1.69,1.69,0,0,1,44.83,57.53Zm10.8,1.2h.3a1.67,1.67,0,0,0-.37-3.32l-.13,0h0A1.62,1.62,0,0,0,54,57.24s0,.06,0,.09a1.49,1.49,0,0,0,1.56,1.41Zm25-4.4a1.35,1.35,0,0,0-1.7.8h0c-2.3,6.7-13.2,12.6-25.4,13.8-12.6,1.3-26-3.3-28.5-9.7a1.39,1.39,0,1,0-2.6,1c3,7.6,15.4,11.7,26.8,11.7,1.5,0,3-.1,4.5-.2,13.4-1.3,25-7.9,27.7-15.6a1.33,1.33,0,0,0-.68-1.75Z"/></svg>