<svg xmlns="http://www.w3.org/2000/svg" viewBox="0 0 265.6 139.1"><defs><style>.a{fill:#6d6e71;}.b{fill:#8a8c8e;}.c{fill:#395e14;}.d{fill:#85aa40;}.e{fill:#9bc33c;}.f{fill:#fbab18;}</style></defs><path class="a" d="M120.8,23.6v.2l-.4,11c1.9.1,6,.4,7.9.6a20.89,20.89,0,0,1-.2,5.6h-7.6c-.3.4,0,9.1.1,11.4,2.9,0,7-.7,9.8-.3-.2,1.9.3,4.5,0,6.7-4.8.4-11.3.4-16.2.6l-.1-3.1c-.4-12.9.2-26.4.2-38.6,5.1-.3,10.7-.7,16.1-.9,0,1.2.2,3.1.3,6.1Z"/><path class="a" d="M135.4,55.3c-.9-8.2-.6-15.7-.5-24.2l.2-14.4c2.2-.2,4.8,0,6.8-.3-.1,11.1-.6,22.9-.2,35.9.1,2.4,2.7,1.9,4.8,2a30.09,30.09,0,0,1,.1,6C142.7,60.2,135.9,60.5,135.4,55.3Z"/><path class="a" d="M165.8,24.3c-2.4,1.7-3.1,5.9-1.2,8.6,3.3,4.9,11.4,14.5,4.5,23.8-2.8,2.7-7.9,3.6-13.9,3.6l-.1-6.9c2.3-.2,7.2.8,9.6-3,1.8-8.7-7.3-13-7.7-19.3-.3-4,.1-9.5,4-12.4,1.7-1.2,5-2.1,8.5-2.4l1,6.4A12,12,0,0,0,165.8,24.3Z"/><path class="a" d="M185.4,59.4l.1-3.3c-2.2,1.2-5.9,2.8-9.2,1.4-3-2.1-2.6-8.7-1-11.5,1.4-2.5,6.8-3.1,10.2-3.3-.1-2.3.2-7.7-1.1-8.5-1.5-1-6-.9-7.8-.9,0-1.9-.1-3.7,0-5.9,4-.4,10.8,0,12.5,1.7a7.48,7.48,0,0,1,1.5,2.4c.9,2.2.4,18.7,1.4,28C189.9,59.4,185.4,59.6,185.4,59.4Zm-3.8-12a4.27,4.27,0,0,0-2.6,2.8c-.1,2.5.4,3.4,2.8,3.4,2.9-.4,4-.8,3.8-6.7-2.6,0-3.3.2-4,.5Z"/><path class="a" d="M212.5,57.5c-1.6,1.3-7.2,1.2-10.5.2,0,4.6.7,10.6.5,12.1l-6.7-.1c-.3-11.9-.6-27.7-.6-42,1.8.1,4.2-.2,5.6,0a24,24,0,0,0,.3,2.8c2.8-1.3,6.1-2.7,9.4-1.6,5.4,2.8,3.8,9.6,3.7,14.8C214.2,48,214.5,55.9,212.5,57.5ZM201.4,36l.3,14.8a5.36,5.36,0,0,0,1.5,1.5c1.1.5,3.5,1.2,4.2-.2,1.3-2.5,1.1-9.8.9-14.9C208.2,32.5,203.2,34.6,201.4,36Z"/><path class="a" d="M223.4,22.2a3.33,3.33,0,0,1-3.9.4,3.92,3.92,0,0,1-2-4.6c.9-3,5.2-2.7,6.5-.5C225,19.2,224.3,20.8,223.4,22.2ZM219,58.8c-.5-10.3-.6-21.8-.6-31.2,2-.1,4-.2,5.8-.2,1.2,9.5,1.3,20.6,1.4,31.3C223.7,58.8,221.3,58.7,219,58.8Z"/><path class="a" d="M244.9,60.2a15,15,0,0,1-10.6-1.3c-1.1-.8-1.2-1.8-1.8-2.8-.9-7.1-.6-15.1-.9-22.2-1.2,0-2.2,0-3.4-.1,0-2.2,0-4.1-.1-6.1H232l-.1-9.1,6.3.1v8.6a56.1,56.1,0,0,0,5.8,0c.2,1.6.1,4.5.3,6.2-1.7-.1-4.1,0-6,0V35l.3,15.8c.8,4.5,3.3,3.5,6.4,3.7Z"/><path class="a" d="M265.1,56.1c-1.2,2.6-4.3,3-8.5,3-2.8,0-8.2-.3-8.5-4-.4-4-.4-8.1-.4-12.1,0-4.2-.2-7.3-.2-11.4,0-3.3,2.9-4.1,6.2-4.3,2.8-.2,10.1-.4,11.1,2.8s.7,4.6.8,7.7v8C265.5,50.8,265.7,54.7,265.1,56.1Zm-5.7-21.6c-.2-3.2-5.6-3.1-5.6.2,0,6,0,17.9.6,19,.8,1.3,4.7,1.6,5.1-.6C259.8,51.3,259.8,41.4,259.4,34.5Z"/><path class="a" d="M124.6,75.4c-2.4,1.7-3.1,5.8-1.2,8.6,3.3,4.9,11.4,14.5,4.5,23.8-2.8,2.7-7.9,3.6-13.9,3.6l-.1-6.9c2.3-.2,7.2.8,9.7-3,1.8-8.7-7.3-13-7.7-19.3-.3-4,.1-9.5,4-12.4,1.7-1.2,5-2.1,8.5-2.4l1,6.4A11.87,11.87,0,0,0,124.6,75.4Z"/><path class="a" d="M145.9,110.6l.1-3.3c-2.2,1.2-5.9,2.8-9.2,1.4-3-2.1-2.6-8.7-1-11.5,1.5-2.5,6.8-3.1,10.2-3.3-.1-2.3.2-7.7-1.1-8.5-1.5-1-6-.9-7.8-.9a58,58,0,0,1,0-5.9c4-.4,10.8,0,12.5,1.7a7.48,7.48,0,0,1,1.5,2.4c.9,2.2.4,18.7,1.4,28C150.4,110.6,145.9,110.7,145.9,110.6Zm-3.8-12a4.27,4.27,0,0,0-2.6,2.8c0,2.5.4,3.4,2.8,3.4,2.9-.4,4-.8,3.8-6.7-2.6,0-3.3.2-4,.5Z"/><path class="a" d="M159,106.1c-.9-8.2-.6-15.7-.5-24.2l.2-14.4c2.3-.2,4.8,0,6.8-.3-.1,11.1-.6,22.9-.2,35.9,0,2.4,2.7,1.9,4.8,2a24.1,24.1,0,0,1,.1,6C166.4,111,159.6,111.3,159,106.1Z"/><path class="a" d="M187.3,111a15,15,0,0,1-10.6-1.3c-1.1-.9-1.2-1.9-1.8-2.8-.9-7.1-.6-15.1-.9-22.2-1.2,0-2.2,0-3.4-.1,0-2.2,0-4.1-.1-6.1h3.9l-.1-9.1,6.3.1V78c1.9.1,3.9.1,5.8.1.2,1.6.1,4.4.3,6.2-1.7-.1-4.1-.1-6,0v1.6l.3,15.8c.8,4.4,3.3,3.5,6.4,3.7Z"/><path class="a" d="M201.7,110.2l.1-3.3c-2.2,1.2-5.9,2.8-9.2,1.4-3-2.1-2.6-8.7-1-11.5,1.5-2.5,6.8-3.1,10.2-3.3-.1-2.3.2-7.7-1.1-8.5-1.5-1-6-.8-7.8-.8,0-1.9-.1-3.8,0-5.9,4-.4,10.8,0,12.5,1.7a7.48,7.48,0,0,1,1.5,2.4c.9,2.2.4,18.7,1.4,28C206.2,110.2,201.7,110.4,201.7,110.2Zm-3.8-12a4.27,4.27,0,0,0-2.6,2.8c0,2.5.4,3.4,2.8,3.4,2.9-.4,4-.8,3.8-6.7-2.6,0-3.3.2-4,.5Z"/><path class="a" d="M220.3,87v23.2c-2.4.1-5,.1-6.8,0,0-11.9.4-23.6.8-34.4l6,.1v4.7l8.3-1.8a32.07,32.07,0,0,1,1,4.3Z"/><path class="a" d="M236.4,75.8l-3.8-2c2-3.8,2.4-5,4.2-8.2l5,2.8C239.6,71.4,239,72.7,236.4,75.8Zm-2.8,34.5c-.5-10.3-.6-21.8-.6-31.2,2-.1,4-.2,5.8-.2,1.2,9.5,1.3,20.7,1.4,31.3C238.3,110.3,235.9,110.2,233.6,110.3Z"/><path class="a" d="M259.1,110.3c.2-8.7,0-16.1-.4-23.8-1.5-2.7-4.8-.5-6.6.4-.2,7.3.1,15.4.2,23.4-2.1.1-4.3.1-6.4,0l.2-32.2c2.1.1,4.5-.2,6.1-.2,0,1.2,0,2.4.1,3.6,3-1.5,6.5-3.8,10.1-1.8,3.5,3.3,2.8,9.2,2.8,13.8,0,4.9.3,10.6.1,16.8Z"/><path class="b" d="M119.5,136.1c-4,0-6.8-2.4-6.8-8.1,0-4.8,2.8-7.9,7.2-7.9a8,8,0,0,1,3.6.9l-.8,1.8a6.71,6.71,0,0,0-2.8-.6c-2,0-4.5,1.3-4.5,5.7,0,4.7,1.8,6.2,4.2,6.2a14.92,14.92,0,0,0,2.1-.2v-5.2h2.4v6.4A15.21,15.21,0,0,1,119.5,136.1Z"/><path class="b" d="M133.7,135.7v-1.2a7.58,7.58,0,0,1-3.8,1.6c-1.8,0-3-1.4-3-3.6v-7.1h2.4v6.8c0,1.4.5,1.9,1.4,1.9a8.06,8.06,0,0,0,3-1.3v-7.5H136v10.4Z"/><path class="b" d="M144.4,135.7v-1.1A6.06,6.06,0,0,1,141,136a2.94,2.94,0,0,1-2.9-2.7V133c0-1.9,1.7-3,3.9-3.1l2.3-.1v-1.1c0-1.4-.6-1.8-1.5-1.8a11.43,11.43,0,0,0-3.2.7l-.7-1.8a9.9,9.9,0,0,1,4.2-.9,3.34,3.34,0,0,1,3.6,3v7.8Zm0-4.5-1.9.1c-.8,0-2,.4-2,1.4a1.25,1.25,0,0,0,1,1.4h.2a6.22,6.22,0,0,0,2.6-.9Z"/><path class="b" d="M155.5,127.2a3.55,3.55,0,0,0-1-.2,5.45,5.45,0,0,0-2.4,1.2v7.5h-2.4V125.3h2.4v1.1a4.44,4.44,0,0,1,2.8-1.4,3.59,3.59,0,0,1,1.1.2Z"/><path class="b" d="M164,135.7v-1.1a4,4,0,0,1-2.8,1.2c-2.9,0-4.7-2.2-4.7-5.3a5.34,5.34,0,0,1,5-5.6h.3a5.85,5.85,0,0,1,2.2.5v-6.6h2.4v16.9Zm-.1-8.5a5.45,5.45,0,0,0-2.2-.5c-1.9,0-2.8,1.6-2.8,3.6s.6,3.7,2.7,3.7a3.73,3.73,0,0,0,2.3-1Z"/><path class="b" d="M173.7,136a4.89,4.89,0,0,1-5.1-4.9v-.4c0-3.1,1.6-5.7,4.7-5.7,2.9,0,4.1,1.9,4.7,4.4l-.9,1.2-6,.9c.3,1.6,1.2,2.7,2.8,2.7a5.68,5.68,0,0,0,3.3-1.1l.9,1.6A8.13,8.13,0,0,1,173.7,136Zm-.4-9.4c-1.5,0-2.4,1.6-2.4,3.3l4.4-.9c-.1-1-.5-2.4-2-2.4Z"/><path class="b" d="M186.1,127.2a3.59,3.59,0,0,0-1.1-.2,5.45,5.45,0,0,0-2.4,1.2v7.5h-2.4V125.3h2.3v1.1a4.44,4.44,0,0,1,2.8-1.4,3.59,3.59,0,0,1,1.1.2Z"/><path class="b" d="M188.9,123.4l-1-1.2,3.8-3.6,1.4,1.8Zm-.6,12.3V125.3h2.3v10.4Z"/><path class="b" d="M199.3,135.7v-1.1a6.06,6.06,0,0,1-3.4,1.4,2.94,2.94,0,0,1-2.9-2.7V133c0-1.9,1.7-3,3.9-3.1l2.3-.1v-1.1c0-1.4-.5-1.8-1.5-1.8a11.43,11.43,0,0,0-3.2.7l-.7-1.8a9.9,9.9,0,0,1,4.2-.9,3.34,3.34,0,0,1,3.6,3v7.8Zm-.1-4.5-1.9.1c-.8,0-2,.4-2,1.4a1.25,1.25,0,0,0,1,1.4h.2a6.22,6.22,0,0,0,2.6-.9Z"/><path class="b" d="M211.3,139.1a6.47,6.47,0,0,1-2-.4l.6-1.9a3.08,3.08,0,0,0,1.3.3,1.9,1.9,0,0,0,2.1-1.7V120.5h2.5v14.7C215.8,137.9,213.5,139.1,211.3,139.1Z"/><path class="b" d="M224.7,135.7v-1.1a6.06,6.06,0,0,1-3.4,1.4,2.94,2.94,0,0,1-2.9-2.7V133c0-1.9,1.7-3,3.9-3.1l2.3-.1v-1.1c0-1.4-.5-1.8-1.5-1.8a11.43,11.43,0,0,0-3.2.7l-.7-1.8a9.9,9.9,0,0,1,4.2-.9,3.34,3.34,0,0,1,3.6,3v7.8Zm-.1-4.5-1.9.1c-.8,0-2,.4-2,1.4a1.25,1.25,0,0,0,1,1.4h.2a6.22,6.22,0,0,0,2.6-.9Z"/><path class="b" d="M235.8,127.2a3.55,3.55,0,0,0-1-.2,5.45,5.45,0,0,0-2.4,1.2v7.5H230V125.3h2.3v1.1a4.21,4.21,0,0,1,2.8-1.4,3.59,3.59,0,0,1,1.1.2Z"/><path class="b" d="M244.3,135.7v-1.1a4,4,0,0,1-2.8,1.2c-2.9,0-4.7-2.2-4.7-5.3a5.34,5.34,0,0,1,5-5.6h.3a5.85,5.85,0,0,1,2.2.5v-6.6h2.4v16.9Zm-.1-8.5a5.45,5.45,0,0,0-2.2-.5c-1.9,0-2.9,1.6-2.9,3.6s.6,3.7,2.7,3.7a3.73,3.73,0,0,0,2.3-1v-5.8Z"/><path class="b" d="M250.3,123.4l-1-1.2,3.8-3.6,1.4,1.8Zm-.5,12.3V125.3h2.4v10.4Z"/><path class="b" d="M262.4,135.7v-6.8c0-1.4-.5-1.9-1.4-1.9a10.7,10.7,0,0,0-3.1,1.3v7.4h-2.4V125.3h2.3v1.2c1.2-.7,2.5-1.6,4-1.6,1.8,0,3,1.4,3,3.6v7.1h-2.4Z"/><path class="c" d="M24,33.7A5.09,5.09,0,0,1,18.4,29a5.25,5.25,0,0,1,.6-3,2,2,0,1,0,2.3-2.2,4.8,4.8,0,0,1,1.7-.5,5.23,5.23,0,0,1,1,10.4Zm55.2-6.1a4.76,4.76,0,0,0-5.3-4.3,4.28,4.28,0,0,0-1.6.5A2,2,0,1,1,70.1,26a4.68,4.68,0,0,0-.5,2.6,4.82,4.82,0,0,0,5.3,4.3,5,5,0,0,0,4.3-5.3Z"/><path class="d" d="M100.3,77.7c-.5-6.2-3.9-10.8-10.8-12.6a30.51,30.51,0,0,1-5.9,6,47.89,47.89,0,0,1-11.1,6.6c5.3,10.7,1,21.1-5.3,29.9,2.2,1.4,9.2,5.7,10.3,6.5,1.2-.4,1.1-1.1,1.9-1.6s2.1,0,2.6-.3.6-1.3,1.5-1.6,2.1,0,2.8-.9c-1.9-.7-7-2.2-11.9-3.9C95.9,95.7,100.9,85.4,100.3,77.7Z"/><path class="e" d="M61.2,111.9c8.4-9.8,15.5-21.3,9.4-33.4-1.3.5-2.7,1-4.1,1.4a61.49,61.49,0,0,1-18.6,2.6A73.12,73.12,0,0,1,29.3,80c-4.4,10.6-.3,21.8,11.6,31.8.2-.3.3-.9,1.1-1.2a14.16,14.16,0,0,0,2-.4c.6-.3.8-1,1.3-1.3a15.43,15.43,0,0,0,1.7-.5c-1.8-3.1-4.9-9.6-4.2-15.6a1,1,0,0,1,.8-.9,26.26,26.26,0,0,1,7.4-.8,22.62,22.62,0,0,1,6.1.6.84.84,0,0,1,.6.8c.6,4.9-1.3,12.9-3,16.6a3.23,3.23,0,0,1,1.7.3c.4.3.7.9,1.3,1.2s1.4,0,2,.2S60.6,112,61.2,111.9Z"/><path class="d" d="M55.8,93.6a18.6,18.6,0,0,0-4.7-.3,31.53,31.53,0,0,0-6.1.6,24.11,24.11,0,0,0,2.1,9.9c1.3,0,5.1,0,7.4-.1A39.44,39.44,0,0,0,55.8,93.6Z"/><path class="d" d="M27.5,79.4c-1.5-.5-3-1-4.4-1.6A25.58,25.58,0,0,1,10.5,67C.3,70-.1,75.3,0,80.4c.2,11.2,16.1,23.9,25.2,27.2,0,0-9.4,3.4-11.3,4.1.6.8,1.6.2,2.9.9.6.3.5,1,1.2,1.4s2,.2,2.6.6.1,1.1,1.4,1.6c0,0,7.6-4.7,12.2-7.9C23.7,96.6,24.8,86,27.5,79.4Z"/><path class="e" d="M84.3,34.5c9.2-13.1-8.4-25.2-18.7-14.9C58.7,16.2,47.1,13.1,33,19,23.9,9.7,2.7,20,13.6,37.7,6.1,53.6,8.3,69.3,23.8,75.9s41.4,7.3,58.5-6.4S89.7,38.7,84.3,34.5Zm-60,1.2h-.7a7.27,7.27,0,0,1-.7-14.5h.7a7.27,7.27,0,0,1,.7,14.5ZM75,35h-.7a6.94,6.94,0,0,1-6.9-6.2,7.18,7.18,0,0,1,1.5-5.1,7.07,7.07,0,0,1,4.7-2.5h.7a7.07,7.07,0,0,1,7,6.9A6.94,6.94,0,0,1,75,35Z"/><path class="f" d="M48.9,13.6a40.71,40.71,0,0,1,15.4,3.1v-.1L69.5,4.1a.62.62,0,0,0-.1-.7.66.66,0,0,0-.7-.2l-6.9,2L58,.6a.64.64,0,0,0-.9-.1L51.9,4.4,45.9.2A1,1,0,0,0,45,.1a.61.61,0,0,0-.3.7l1.5,12.9A25.28,25.28,0,0,1,48.9,13.6Z"/><path class="c" d="M42.8,55.9a1.31,1.31,0,0,1,.3-1.2,1.73,1.73,0,0,1,2.4-.3,1.52,1.52,0,0,1,.6,1,1.31,1.31,0,0,1-.3,1.2,1.9,1.9,0,0,1-1.1.7h-.3A1.7,1.7,0,0,1,42.8,55.9Zm10.8,1.2h.3a1.67,1.67,0,1,0-.5-3.3h0A1.62,1.62,0,0,0,52,55.7a1.48,1.48,0,0,0,1.6,1.4Zm25-4.4a1.34,1.34,0,0,0-1.7.8h0c-2.3,6.7-13.2,12.6-25.4,13.8C38.9,68.6,25.5,64,23,57.6a1.39,1.39,0,0,0-2.6,1c3,7.6,15.4,11.7,26.8,11.7,1.5,0,3-.1,4.5-.2,13.4-1.3,25-7.9,27.7-15.6A1.33,1.33,0,0,0,78.6,52.7Z"/></svg>