<svg xmlns="http://www.w3.org/2000/svg" xmlns:xlink="http://www.w3.org/1999/xlink" viewBox="0 0 1804.77 452.91"><defs><style>.a{isolation:isolate;}.b{fill:url(#a);}.c,.d{fill:#b4e0e9;}.c{mix-blend-mode:multiply;}</style><linearGradient id="a" x1="902.38" y1="56.42" x2="902.38" y2="452.91" gradientUnits="userSpaceOnUse"><stop offset="0" stop-color="#83b3cc"/><stop offset="1" stop-color="#8cc2ca"/></linearGradient></defs><g class="a"><polygon class="b" points="0 60.42 0 451.91 1804.77 452.91 1804.77 56.42 1401.72 56.46 414.19 60.38 0 60.42"/><path class="c" d="M0,0V85.42c.75-.1,40.21-.19,94.66-.27C140.67,85.08,233.88,84,287,84c87.82-.09,129.25.84,132.48.78C503,83.39,875.53,94,966.47,95.42c188.76,3,476.7-7.22,530.59-7.3,79.39-.13,188.45-4.22,253.45-4.27l54.26,0V0Z"/><path class="d" d="M0,0V81.42c.71-.1,40.21-.18,94.67-.26C140.42,81.1,233.23,80,286,80c87.79-.09,129.22.84,132.15.79C499,79.28,875,90,966.47,91.42c185.39,2.92,477.66-7.13,534.53-7.24,81.62-.16,191.39-4.27,254.44-4.33l49.33,0V0Z"/></g></svg>