<svg xmlns="http://www.w3.org/2000/svg" xmlns:xlink="http://www.w3.org/1999/xlink" viewBox="0 0 104.96 94"><defs><style>.a{fill:#fff;}.b,.c,.f{opacity:0.33;}.b{fill:url(#a);}.c{fill:url(#b);}.d{fill:#91a85b;}.e{fill:#90aa5b;}.f{fill:url(#c);}</style><linearGradient id="a" x1="41.5" y1="94" x2="41.5" y2="84" gradientUnits="userSpaceOnUse"><stop offset="0" stop-color="#90aa5b" stop-opacity="0"/><stop offset="1" stop-color="#90aa5b"/></linearGradient><linearGradient id="b" x1="13" y1="76.75" x2="13" y2="67.5" xlink:href="#a"/><linearGradient id="c" x1="-8478.23" y1="75.42" x2="-8478.23" y2="69.26" gradientTransform="matrix(-1, 0, 0, 1, -8417.72, 0)" xlink:href="#a"/></defs><path class="a" d="M77,87.07h-.49v-1h2l0,1Zm-4.59-.16q-1-.07-2-.18l.1-1q1,.11,2,.18Zm10.25-.08-.09-1q1-.09,2-.21l.12,1C84,86.7,83.3,86.77,82.61,86.83Zm-16.35-.67c-.69-.12-1.36-.25-2-.4l.21-1q1,.21,2,.39ZM88.71,86l-.2-1c.67-.13,1.33-.27,2-.43l.23,1C90.06,85.68,89.39,85.83,88.71,86ZM60.26,84.7c-.67-.22-1.32-.44-1.94-.68l.35-.94c.61.24,1.24.46,1.9.67Zm34.4-.34-.33-1c.65-.23,1.27-.47,1.87-.72l.39.92C96,83.87,95.33,84.12,94.66,84.36ZM54.57,82.25a17.78,17.78,0,0,1-1.76-1.14l.6-.8a18.34,18.34,0,0,0,1.66,1.08Zm45.7-.57-.55-.84a14.73,14.73,0,0,0,1.58-1.17l.65.76A15.28,15.28,0,0,1,100.27,81.68ZM49.89,78.05a6.38,6.38,0,0,1-.82-2l1-.2a5.54,5.54,0,0,0,.69,1.72Zm54.64-1-.93-.37a4.73,4.73,0,0,0,.36-1.79l1-.11v.13A5.83,5.83,0,0,1,104.53,77ZM50.7,72.28l-.86-.51a9.12,9.12,0,0,1,1.31-1.7l.72.7A7.59,7.59,0,0,0,50.7,72.28Zm51.89-.89A10.36,10.36,0,0,0,101.23,70l.65-.76a12.43,12.43,0,0,1,1.49,1.51ZM55,68.4l-.5-.86c.57-.34,1.19-.66,1.84-1l.42.91C56.13,67.77,55.54,68.08,55,68.4Zm42.94-.54c-.57-.29-1.17-.57-1.81-.84l.39-.93c.66.28,1.29.58,1.87.88ZM60.48,66l-.31-1c.64-.21,1.3-.4,2-.58l.26,1C61.75,65.63,61.1,65.82,60.48,66Zm31.85-.33c-.62-.19-1.27-.36-1.94-.52l.23-1c.69.16,1.35.34,2,.53Zm-26-1.11-.18-1c.67-.12,1.34-.23,2-.32l.14,1C67.66,64.35,67,64.46,66.34,64.58Zm20.1-.19c-.66-.11-1.32-.2-2-.28l.12-1c.69.08,1.37.17,2,.28Zm-14.1-.56-.07-1,2-.11,0,1C73.68,63.75,73,63.78,72.34,63.83Zm8.08-.07c-.67,0-1.34-.06-2-.08l0-1c.69,0,1.38,0,2,.08Z"/><rect class="b" x="37.25" y="84" width="8.5" height="10"/><rect class="c" x="11.25" y="67.5" width="3.5" height="9.25"/><path class="a" d="M21.48,75.31h0c-.71,0-1.4,0-2.08-.06l.05-1c.66,0,1.34.06,2,.06Zm4.2-.24-.11-1c.68-.08,1.36-.18,2-.3l.18,1C27.09,74.89,26.38,75,25.68,75.07Zm-10.49-.3c-.72-.13-1.41-.28-2.07-.44l.25-1c.63.16,1.3.3,2,.43ZM31.87,73.7l-.34-.94A15.29,15.29,0,0,0,33.39,72l.45.9A17.16,17.16,0,0,1,31.87,73.7ZM9.12,72.89a12.88,12.88,0,0,1-1.86-1.12l.6-.8a10.76,10.76,0,0,0,1.7,1Zm28.14-2.72-.82-.57A2.91,2.91,0,0,0,37,68l1-.09V68A3.86,3.86,0,0,1,37.26,70.17ZM4.93,68v0a3.9,3.9,0,0,1,.71-2.19l.83.56A2.88,2.88,0,0,0,5.93,68ZM35,64.91a11.89,11.89,0,0,0-1.71-1l.44-.9a13.44,13.44,0,0,1,1.86,1.11Zm-25.54-1L9.05,63a17.16,17.16,0,0,1,2-.83l.34.94A17.05,17.05,0,0,0,9.5,63.94Zm20-1.41c-.64-.16-1.31-.31-2-.43l.17-1c.71.12,1.4.27,2.07.44Zm-14.23-.41-.17-1c.67-.12,1.37-.23,2.08-.31l.12,1C16.62,61.9,16,62,15.29,62.12Zm8.17-.48c-.66,0-1.32,0-2,0l-.05-1h.05c.7,0,1.38,0,2.05,0Z"/><path class="d" d="M41.48,85.81s-2.7-37,17.85-64.85C52.48,36.32,46.88,45.85,45,85.81,44,85.72,41.48,85.81,41.48,85.81Z"/><path class="e" d="M40,85.72C40,71.19,37.54,30.3,24.46,0,30.9,11.42,42.93,36.32,44,85.72A23.72,23.72,0,0,1,40,85.72Z"/><path class="e" d="M45.63,84.57c1-16.49,9.76-38.28,14.95-45.55C53.93,45.66,42.52,71,42.52,84.57,44,84.48,45.63,84.57,45.63,84.57Z"/><path class="e" d="M40.65,84.68c-.83-7.88-1.45-17.85-6.43-25.11a198.59,198.59,0,0,1,3.32,25.11Z"/><path class="d" d="M14.58,68.81S16.65,42.65,1,23c5.23,10.85,9.51,17.58,10.94,45.81C12.68,68.75,14.58,68.81,14.58,68.81Z"/><path class="e" d="M11.41,67.93C10.62,56.29,4,40.89,0,35.76c5.07,4.69,13.79,22.56,13.79,32.17C12.68,67.87,11.41,67.93,11.41,67.93Z"/><rect class="f" x="59.33" y="69.26" width="2.34" height="6.15"/><path class="d" d="M59.44,70.14s-1.38-17.41,9.12-30.47c-3.5,7.21-6.36,11.69-7.32,30.47C60.71,70.1,59.44,70.14,59.44,70.14Z"/><path class="e" d="M61.56,69.55c.53-7.75,5-18,7.64-21.4-3.4,3.12-9.23,15-9.23,21.4C60.71,69.51,61.56,69.55,61.56,69.55Z"/></svg>