<svg xmlns="http://www.w3.org/2000/svg" viewBox="0 0 76.48 56.31"><defs><style>.a,.e{fill:none;stroke:#907839;stroke-linecap:round;stroke-linejoin:round;}.a{stroke-width:1.49px;}.b{fill:#b09140;}.c{fill:#e7c465;}.d{fill:#ffdb7c;}.e{stroke-width:1px;}.f{fill:#907839;}.g{fill:#d88d37;}</style></defs><polyline class="a" points="20.71 47.76 17.56 51.25 20.71 55.56"/><path class="b" d="M25.73,0C25,8.84,24.55,16.32,32,25.4c6.6,8.09,17.8,10.83,23.16,6,9.74-8.83,3.36-18.17-2.74-19.67-3.87-.94-10,.25-17.55-3.11A17.69,17.69,0,0,1,25.73,0Z"/><path class="c" d="M0,22.33c1.12,7.46,13.69,28.5,30.38,31.24S54.9,49.21,63.61,37.51s9.59-27,.75-32-18.17-.75-20.17.12S26.89,16,21.91,20.33,7.47,27.18,0,22.33Z"/><path class="d" d="M63.61,37.51C58.45,44.44,53.6,49.76,47,52.37c-2.28-8.11-.62-12.68,3.06-20,3.46-6.92,12.25-8.2,19.82-8.35A35.89,35.89,0,0,1,63.61,37.51Z"/><path class="e" d="M62.12,10.25c-.75,3.49-4.23,3.61-5.85,1"/><line class="e" x1="62.99" y1="13.49" x2="61.62" y2="12.05"/><line class="e" x1="60.38" y1="14.98" x2="60.07" y2="13.18"/><line class="e" x1="57.33" y1="14.86" x2="58.26" y2="13.11"/><line class="e" x1="55.21" y1="13.42" x2="56.58" y2="12.18"/><path class="f" d="M15.44,2.66C14.69,11.5,14.26,19,21.66,28.05c6.6,8.09,17.8,10.83,23.16,6,9.74-8.84,3.36-18.18-2.74-19.67-3.87-.95-10,.25-17.56-3.11A17.7,17.7,0,0,1,15.44,2.66Z"/><polygon class="g" points="76.48 10.25 68.35 10.08 70.17 14.73 76.48 10.25"/><polyline class="a" points="18.55 45.94 14.4 48.43 14.4 53.24"/></svg>