<svg xmlns="http://www.w3.org/2000/svg" viewBox="0 0 165.06 290.55"><defs><style>.a{opacity:0.5;}.b{fill:#7e7d3e;}</style></defs><g class="a"><path class="b" d="M109.79,3.14q5.64,33.54,8.43,67.5c2,23.45,3.16,47,4.16,70.52l.74,17.66c.22,5.89.53,11.79.58,17.63.08,11.72-.43,23.49-1,35.25-1.23,23.52-3.06,47-4.74,70.54l2.33.18c1.85-23.5,3.87-47,5.28-70.56.7-11.78,1.29-23.58,1.31-35.43,0-6-.26-11.84-.42-17.72L125.87,141c-.77-23.57-1.74-47.16-3.48-70.73-1.66-22.41-4.16-44.79-7.64-67l-5-.15"/><path class="b" d="M160.14,4.64C156.61,27.93,154,51.33,152,74.77c-2,23.93-3.44,47.89-4.35,71.87q-2.7,71.94.22,143.91l2.33-.08q-2.27-71.84,1.06-143.67c1.12-23.92,2.73-47.82,5-71.65,2.22-23.55,5-47,8.82-70.37l-4.92-.14"/><path class="b" d="M.49,0Q.15,14.29,0,28.6l0,3.68q-.09,19.1.25,38.2c.22,12.3.55,24.6,1.08,36.89s1.15,24.59,2,36.86c1.7,24.54,4.16,49.11,8.3,73.39,2,12.14,4.22,24.24,6.58,36.31S23.14,278,25.91,290h0l2.27-.52c-2.67-12-5.07-24-7.34-36.08s-4.38-24.16-6.27-36.29A728.44,728.44,0,0,1,6.94,144c-.77-12.24-1.3-24.51-1.69-36.77S4.61,82.69,4.5,70.42Q4.19,35.28,5.35.13L.49,0"/><path class="b" d="M79.81,2.26c2.34,21.19,3.83,42.54,5.11,63.88q2,34,2.84,68c.58,22.68.75,45.37.25,68-.06,5.67-.35,11.33-.54,17s-.55,11.32-.89,17-.89,11.29-1.39,16.93c-.14,1.4-.24,2.82-.42,4.22l-.57,4.2-1.14,8.4,2.29.39,1.24-8.46.61-4.24c.2-1.41.31-2.83.46-4.24.56-5.67,1.24-11.33,1.56-17s.85-11.35,1.06-17,.59-11.36.69-17c.73-22.74.77-45.48.4-68.21s-1.1-45.45-2.21-68.16C88.1,44.73,86.82,23.57,84.71,2.4l-4.9-.14"/></g></svg>