<svg xmlns="http://www.w3.org/2000/svg" xmlns:xlink="http://www.w3.org/1999/xlink" viewBox="0 0 105.33 132.12"><defs><style>.a{opacity:0.3;}.b{fill:url(#a);}.c{fill:#f9d8be;}.d{fill:#67bae1;}.e{fill:#b466a2;}.f{fill:#a9cf3b;}.g{fill:#ef873e;}.h{fill:#f58636;}.i{fill:#f8d8be;}.j{fill:#644a34;}.k{fill:#efd13d;}.l{fill:#f8d8bf;}</style><linearGradient id="a" x1="64.66" y1="132.12" x2="64.66" y2="104.59" gradientUnits="userSpaceOnUse"><stop offset="0" stop-color="#79a5b2" stop-opacity="0"/><stop offset="0.01" stop-color="#79a5b2" stop-opacity="0.02"/><stop offset="0.2" stop-color="#79a5b2" stop-opacity="0.32"/><stop offset="0.38" stop-color="#79a5b2" stop-opacity="0.56"/><stop offset="0.56" stop-color="#79a5b2" stop-opacity="0.75"/><stop offset="0.72" stop-color="#79a5b2" stop-opacity="0.89"/><stop offset="0.87" stop-color="#79a5b2" stop-opacity="0.97"/><stop offset="1" stop-color="#79a5b2"/></linearGradient></defs><g class="a"><path class="b" d="M24,104.59l12.62,15s-10,12.52,9,12.52,66-1.39,59-8.35-42-8.35-42-8.35l-5.37-7.33-9.63-.75-.87,7L34,104.59Z"/></g><path class="c" d="M59.33,70c-.18,15.8-4.76,28.18-4.3,29.81s8.71,8.71.7,8.07-8.64-4.41-8.39-9.76a51.59,51.59,0,0,0,0-7L41,90.36s-3.49,6-4.65,8.1-3.75,5.48-10.81,1.91c-5.24-2.65.42-3.19,2.94-5.76s6.23-19,11.32-30.83C53.15,58.76,59.33,70,59.33,70Z"/><path class="d" d="M33.31,82.24l24.1,5.66c-.56,2.93-1.15,5.44-1.61,7.4a77.73,77.73,0,0,1-8.36,0,33.31,33.31,0,0,0-.06-4.1L41,90.36,39.1,93.62a24.37,24.37,0,0,1-8-4.73C31.8,87,32.53,84.7,33.31,82.24Z"/><path class="e" d="M39.79,63.78C53.15,58.76,59.33,70,59.33,70a106.27,106.27,0,0,1-2.71,21.69c-5.44-.16-17-1-24.71-5.15C34,80.11,36.65,71.07,39.79,63.78Z"/><path class="f" d="M56.34,82.4c-7,0-14.35-2.38-19.4-4l-2.42-.76L35,76.09c.73.22,1.55.49,2.45.78,5.47,1.76,13.74,4.41,21,3.84l.13,1.6C57.81,82.37,57.08,82.4,56.34,82.4Z"/><path class="g" d="M56.24,85.25C49,85.25,41,82.7,36,81.11l-2.1-.65.47-1.54,2.11.66c5.4,1.71,14.44,4.57,21.85,4l.13,1.61C57.7,85.22,57,85.25,56.24,85.25Z"/><path class="h" d="M79.26,60.49S82.93,78,84.14,78.75,97.5,75.61,95.66,73,84.48,59.66,84.48,59.66Z"/><path class="h" d="M16.59,36.12S.48,43.87,0,45.24s6.25,12.22,8.32,9.81S18.65,41,18.65,41Z"/><path class="i" d="M91.18,47.37c12.31.29,10.6,26.2-2.53,14.35-9.76,8.4-19.07,12.8-42.26,4.24S19.66,47.05,19.58,42.76c-11.37,2.7-9.34-18.37-1.27-13.18C31.46,17.32,90.21,9.81,91.18,47.37Z"/><path class="j" d="M72.58,55.63c-.68,2.11-.1,4.19,1.3,4.65s3.11-.88,3.79-3,.11-4.19-1.3-4.65S73.27,53.52,72.58,55.63Z"/><path class="j" d="M32.13,43.87c-.69,2.11-.11,4.19,1.29,4.65s3.11-.88,3.79-3,.11-4.19-1.29-4.65S32.81,41.76,32.13,43.87Z"/><path class="j" d="M56.8,59.94c-1.87,5-11.21,3.25-8.78-3.27"/><path class="h" d="M70.84,21.88c-4.53,1.4-31.56,26.07-38.46,9-2.91,1.3-7.09,2.72-8.74-.22C20.18,32.07,21,30.5,18,32.87,18.38,24.49,19.66.26,53.26,0,72.67,1.24,81.62,8.62,87.8,14.26s18,24.75,2.76,37.28c-8.84-2-17.57-6.34-17.65-16.35S70.84,21.88,70.84,21.88Z"/><path class="k" d="M56.48,79.55c-6.37,0-12.45-2.08-17-3.64-1.17-.4-2.24-.77-3.21-1.06l.47-1.54c1,.3,2.07.67,3.26,1.08,5,1.69,11.74,4,18.56,3.47l.13,1.6Q57.58,79.55,56.48,79.55Z"/><path class="l" d="M41.66,75.65c-5.89,1.33-14.23.7-14.42-.92S28,70.47,31.38,72s4.9-1.73,8.39-1.76C44.59,70.16,47.62,74.32,41.66,75.65Z"/></svg>