<svg xmlns="http://www.w3.org/2000/svg" xmlns:xlink="http://www.w3.org/1999/xlink" viewBox="0 0 175.81 117.75"><defs><style>.a{fill:#6e492d;}.b{fill:#885a37;}.c{fill:#bd7e52;}.d{fill:#9d683f;}.e{fill:#593c25;}.f{fill:#452e1c;}.g{fill:#d32f5b;}.h{fill:#d6bb38;}.i{fill:url(#a);}.j{fill:url(#b);}.k{fill:url(#c);}</style><linearGradient id="a" x1="135" y1="94.01" x2="164.76" y2="84.02" gradientUnits="userSpaceOnUse"><stop offset="0" stop-color="#83b3cc"/><stop offset="1" stop-color="#8cc2ca"/></linearGradient><linearGradient id="b" x1="-2.04" y1="91.84" x2="24.08" y2="93.48" xlink:href="#a"/><linearGradient id="c" x1="90.12" y1="84.87" x2="90.12" y2="117.75" xlink:href="#a"/></defs><polygon class="a" points="45.69 27.27 105.28 3.53 95.06 39.12 35.51 71.99 45.69 27.27"/><path class="b" d="M92.62,38.84c-7.89-4.35-20.7-33.67,3-38.56,4.08,1.36,9.75,3.17,9.75,3.17L95.06,39.11Z"/><path class="c" d="M21,32.28s2.92-6.16,11.55-10.16C40.16,18.58,81,1.73,81,1.73S91.87-2,99.8,1.46a48.67,48.67,0,0,0,5.48,2.07L45.69,27.27Z"/><path class="d" d="M46.5,27l-.81.27s-10.31-3-16.84-1.62S16.51,36.56,18.65,49.17C21.1,63.57,30.89,72,35.51,72,36.87,68.19,46.5,27,46.5,27Z"/><path class="b" d="M37,20.27c4.62-.93,11.78.92,11.78.92,5.54-2.08,16.86-6.7,16.86-6.7-4.39-.69-10.16-1.84-13.4-.46C48.82,15.42,37,20.27,37,20.27Z"/><path class="b" d="M61.75,9.87c4.62-.92,11.78.93,11.78.93,5.55-2.08,16.86-6.7,16.86-6.7C86,3.41,80.23,2.25,77,3.64,73.53,5,61.75,9.87,61.75,9.87Z"/><path class="a" d="M45.69,27.27,35.51,72,95.06,39.11,105.28,3.53Zm48.4,11L37.42,69.39,47,28.58,103.48,5.49Z"/><path class="b" d="M31.85,63.23c-6-4.13-9.84-13.46-8.34-21.12C24.77,35.69,27.72,28.89,40,31.66,37.87,39,31.85,63.23,31.85,63.23Z"/><polygon class="e" points="35.51 71.99 95.06 39.12 134.09 53.05 133.28 98.32 85.11 105.97 35.12 93 35.51 71.99"/><polygon class="a" points="95.06 39.12 95.01 77.78 127.35 87.71 134.09 53.05 95.06 39.12"/><polygon class="f" points="95.01 77.78 74 92.1 83 96.26 104.71 80.09 95.01 77.78"/><path class="g" d="M89.4,90.29c-14.63-7.36-16.8-11.71-17.31-14.6a8.54,8.54,0,0,1,14-7.7c5.08-6.52,13.1-5.08,14.66,2.1C102.67,78.73,89.4,90.29,89.4,90.29Z"/><polygon class="b" points="134.09 53.05 133.59 104.68 80.76 116.75 81.04 93.53 134.09 53.05"/><polygon class="d" points="35.21 71.16 34.97 97.56 81.04 107.63 81.04 94.3 35.21 71.16"/><polygon class="b" points="41.9 83.27 41.9 100.66 74.2 108.73 74.2 97.86 41.9 83.27"/><polygon class="a" points="88.31 97.64 87.85 114.27 106.33 109.42 106.79 84.02 88.31 97.64"/><polygon class="a" points="111.81 79.63 111.41 110.58 127.41 105.73 127.81 66 111.81 79.63"/><polygon class="d" points="95.06 39.12 35.51 71.99 80.84 95.1 81.46 93.56 38.19 71.85 95.17 40.44 131.97 53.37 80.08 93.41 81.04 94.3 134.09 53.05 95.06 39.12"/><polygon class="h" points="80.59 51.31 78.34 41.85 82.27 41 82.2 50.76 80.59 51.31"/><polygon class="h" points="96.35 51.7 99.28 42.43 103.09 43.72 98.01 52.05 96.35 51.7"/><polygon class="h" points="104.03 58.28 111.93 52.62 114.2 55.93 105.14 59.56 104.03 58.28"/><polygon class="h" points="67.58 58.61 61.13 51.34 64.19 48.74 68.74 57.37 67.58 58.61"/><polygon class="h" points="63.3 68.09 53.59 68.25 53.6 64.24 63.11 66.41 63.3 68.09"/><path class="i" d="M139.77,92A181.55,181.55,0,0,0,157.39,107c13.34-8.54,21.33-15.29,17.42-41.13,0,0-30-2-38.79,11.58C132.79,82.49,132.77,88.59,139.77,92Z"/><path class="j" d="M26.19,104.31c1.73-1,2.8-1.74,2.8-1.74,7-3.17,8-9.71,3.75-13.63S11.81,80.91,0,81.65C8.45,92,16.94,99.19,26.19,104.31Z"/><path class="k" d="M80.76,116.75c24.14,1.41,60.94,3.82,80.92-12.85a55.11,55.11,0,0,1-4.45-5.42c-7.07-9.8-17.4-17.43-32.42-11.57-8,3.11-13.73,10.59-26.87,14.8s-27.49,5.56-42.13-1.8-25.19-7.26-37.24-.44C35.6,111.72,54.66,115.22,80.76,116.75Z"/></svg>