<svg xmlns="http://www.w3.org/2000/svg" xmlns:xlink="http://www.w3.org/1999/xlink" viewBox="0 0 322.44 295.42"><defs><style>.a{fill:#9caa61;}.b{fill:#817b5d;}.c{fill:#80a455;}.d{opacity:0.3;fill:url(#a);}.e{fill:#fcd445;}.f{fill:#ac694f;}.g{fill:#fcd771;}.h{fill:#8aa06a;}.i{fill:#e2b79c;}.j{fill:#28aec0;}.k{fill:#ee4131;}.l{fill:#644a34;}.m{fill:#342f34;}.n{fill:#8f5d54;}</style><linearGradient id="a" x1="13025.89" y1="2870.11" x2="13025.89" y2="2844.76" gradientTransform="translate(-13107.04 -545.86) rotate(-8.8)" gradientUnits="userSpaceOnUse"><stop offset="0" stop-color="#79a5b2" stop-opacity="0"/><stop offset="0.01" stop-color="#79a5b2" stop-opacity="0.02"/><stop offset="0.2" stop-color="#79a5b2" stop-opacity="0.32"/><stop offset="0.38" stop-color="#79a5b2" stop-opacity="0.56"/><stop offset="0.56" stop-color="#79a5b2" stop-opacity="0.75"/><stop offset="0.72" stop-color="#79a5b2" stop-opacity="0.89"/><stop offset="0.87" stop-color="#79a5b2" stop-opacity="0.97"/><stop offset="1" stop-color="#79a5b2"/></linearGradient></defs><path class="a" d="M263.32,183.47c0,10.52-7.62,18.55-16.41,18.55s-14.7-7.57-15.42-18.05c-.82-12,3.61-19.63,15.42-20C256.76,163.62,263.32,173,263.32,183.47Z"/><polygon class="b" points="245.76 172.15 244.12 217.77 249.7 218.1 249.04 171.82 245.76 172.15"/><polygon class="b" points="236.74 190.2 245.24 196.76 245.76 194.3 237.26 189.54 236.74 190.2"/><polygon class="b" points="256.92 191.02 248.88 197.59 248.39 195.12 256.43 190.37 256.92 191.02"/><polygon class="b" points="255.44 183.16 248.64 188.23 248.22 186.33 255.03 182.65 255.44 183.16"/><polygon class="b" points="238.38 183.16 245.49 188.23 245.93 186.33 238.81 182.65 238.38 183.16"/><polygon class="b" points="253.97 177.09 248.73 180.52 248.41 179.23 253.65 176.75 253.97 177.09"/><polygon class="b" points="240.84 177.09 246.07 180.52 246.39 179.23 241.16 176.75 240.84 177.09"/><path class="a" d="M192.29,185.28c0,8.54-6.19,15.06-13.33,15.06s-11.94-6.15-12.52-14.66c-.67-9.73,2.93-15.94,12.52-16.26C187,169.15,192.29,176.74,192.29,185.28Z"/><polygon class="b" points="178.03 176.08 176.7 213.13 181.23 213.4 180.7 175.82 178.03 176.08"/><polygon class="b" points="170.7 190.74 177.61 196.07 178.03 194.07 171.13 190.21 170.7 190.74"/><polygon class="b" points="187.09 191.41 180.56 196.74 180.16 194.74 186.69 190.87 187.09 191.41"/><polygon class="b" points="185.89 185.02 180.37 189.14 180.03 187.6 185.56 184.61 185.89 185.02"/><polygon class="b" points="172.03 185.02 177.81 189.14 178.16 187.6 172.39 184.61 172.03 185.02"/><polygon class="b" points="184.69 180.09 180.44 182.88 180.18 181.83 184.43 179.81 184.69 180.09"/><polygon class="b" points="174.03 180.09 178.28 182.88 178.54 181.83 174.29 179.81 174.03 180.09"/><path class="c" d="M322.44,166c0,18.25-13.23,32.19-28.49,32.19s-25.53-13.13-26.78-31.33c-1.42-20.8,6.27-34.07,26.78-34.76C311,131.52,322.44,147.74,322.44,166Z"/><polygon class="b" points="291.96 146.34 289.11 225.53 298.79 226.1 297.65 145.77 291.96 146.34"/><polygon class="b" points="276.29 177.67 291.05 189.06 291.96 184.79 277.19 176.53 276.29 177.67"/><polygon class="b" points="311.33 179.09 297.37 190.49 296.51 186.22 310.47 177.96 311.33 179.09"/><polygon class="b" points="308.76 165.45 296.95 174.25 296.23 170.95 308.04 164.57 308.76 165.45"/><polygon class="b" points="279.14 165.45 291.48 174.25 292.24 170.95 279.89 164.57 279.14 165.45"/><polygon class="b" points="306.2 154.91 297.11 160.86 296.56 158.63 305.64 154.31 306.2 154.91"/><polygon class="b" points="283.41 154.91 292.49 160.86 293.05 158.63 283.97 154.31 283.41 154.91"/><path class="c" d="M32.44,186.08c0,10.68-7.74,18.84-16.67,18.84S.83,197.24.1,186.58c-.84-12.17,3.67-19.93,15.67-20.33C25.77,165.91,32.44,175.4,32.44,186.08Z"/><polygon class="b" points="14.6 174.58 12.93 220.92 18.6 221.26 17.93 174.25 14.6 174.58"/><polygon class="b" points="5.43 192.92 14.07 199.59 14.6 197.09 5.96 192.25 5.43 192.92"/><polygon class="b" points="25.93 193.75 17.77 200.42 17.27 197.92 25.43 193.08 25.93 193.75"/><polygon class="b" points="24.43 185.76 17.52 190.92 17.1 188.99 24.01 185.25 24.43 185.76"/><polygon class="b" points="7.1 185.76 14.32 190.92 14.77 188.99 7.54 185.25 7.1 185.76"/><polygon class="b" points="22.93 179.6 17.62 183.08 17.29 181.78 22.61 179.25 22.93 179.6"/><polygon class="b" points="9.6 179.6 14.91 183.08 15.24 181.78 9.92 179.25 9.6 179.6"/><path class="c" d="M171.85,180.37c0,11.85-8.58,20.89-18.49,20.89s-16.57-8.52-17.38-20.33c-.92-13.5,4.07-22.12,17.38-22.56C164.46,158,171.85,168.53,171.85,180.37Z"/><polygon class="b" points="152.07 167.62 150.22 219.01 156.51 219.38 155.77 167.25 152.07 167.62"/><polygon class="b" points="141.9 187.95 151.48 195.35 152.07 192.57 142.49 187.21 141.9 187.95"/><polygon class="b" points="164.64 188.88 155.58 196.27 155.03 193.5 164.09 188.14 164.64 188.88"/><polygon class="b" points="162.98 180.02 155.31 185.73 154.84 183.59 162.51 179.45 162.98 180.02"/><polygon class="b" points="143.75 180.02 151.76 185.73 152.25 183.59 144.24 179.45 143.75 180.02"/><polygon class="b" points="161.31 173.18 155.42 177.04 155.06 175.59 160.95 172.79 161.31 173.18"/><polygon class="b" points="146.52 173.18 152.42 177.04 152.78 175.59 146.88 172.79 146.52 173.18"/><path class="c" d="M231.63,183.26c0,11.84-8.58,20.89-18.49,20.89s-16.56-8.52-17.38-20.34c-.92-13.49,4.07-22.11,17.38-22.55C224.24,160.89,231.63,171.42,231.63,183.26Z"/><polygon class="b" points="211.85 170.5 210 221.9 216.29 222.27 215.55 170.13 211.85 170.5"/><polygon class="b" points="201.68 190.84 211.26 198.24 211.85 195.46 202.27 190.1 201.68 190.84"/><polygon class="b" points="224.42 191.76 215.36 199.16 214.81 196.39 223.87 191.02 224.42 191.76"/><polygon class="b" points="222.76 182.91 215.09 188.62 214.62 186.48 222.29 182.34 222.76 182.91"/><polygon class="b" points="203.53 182.91 211.54 188.62 212.03 186.48 204.02 182.34 203.53 182.91"/><polygon class="b" points="221.09 176.07 215.2 179.93 214.84 178.48 220.73 175.68 221.09 176.07"/><polygon class="b" points="206.3 176.07 212.2 179.93 212.56 178.48 206.66 175.68 206.3 176.07"/><path class="c" d="M141,175.93c0,18.25-13.23,32.19-28.49,32.19S87,195,85.72,176.79C84.3,156,92,142.72,112.5,142,129.59,141.46,141,157.68,141,175.93Z"/><polygon class="b" points="110.51 156.28 107.66 235.47 117.34 236.04 116.2 155.71 110.51 156.28"/><polygon class="b" points="94.84 187.61 109.6 199 110.51 194.73 95.74 186.47 94.84 187.61"/><polygon class="b" points="129.88 189.03 115.92 200.43 115.06 196.16 129.02 187.9 129.88 189.03"/><polygon class="b" points="127.31 175.39 115.5 184.19 114.78 180.89 126.59 174.51 127.31 175.39"/><polygon class="b" points="97.69 175.39 110.03 184.19 110.79 180.89 98.44 174.51 97.69 175.39"/><polygon class="b" points="124.75 164.85 115.66 170.81 115.11 168.57 124.19 164.25 124.75 164.85"/><polygon class="b" points="101.96 164.85 111.05 170.81 111.6 168.57 102.52 164.25 101.96 164.85"/><path class="a" d="M73,180.56c0,14.3-10.36,25.22-22.32,25.22s-20-10.28-21-24.55c-1.12-16.29,4.91-26.69,21-27.22C64.1,153.56,73,166.27,73,180.56Z"/><polygon class="b" points="49.15 165.17 46.92 227.21 54.51 227.65 53.61 164.72 49.15 165.17"/><polygon class="b" points="36.88 189.72 48.44 198.64 49.15 195.29 37.59 188.82 36.88 189.72"/><polygon class="b" points="64.33 190.83 53.39 199.75 52.72 196.41 63.66 189.94 64.33 190.83"/><polygon class="b" points="62.32 180.14 53.06 187.04 52.5 184.45 61.75 179.45 62.32 180.14"/><polygon class="b" points="39.11 180.14 48.78 187.04 49.37 184.45 39.7 179.45 39.11 180.14"/><polygon class="b" points="60.31 171.88 53.19 176.55 52.76 174.8 59.87 171.41 60.31 171.88"/><polygon class="b" points="42.45 171.88 49.57 176.55 50.01 174.8 42.89 171.41 42.45 171.88"/><path class="d" d="M176.63,276l11.2,10s-4.08,6.22,6.37,8.23c10.64,2,37.71,1.39,33.06-3s-25.5-10.45-25.5-10.45l-3.69-5.57-6.88-.47-1,4.75-8.05-4.38Z"/><path class="e" d="M199.75,251l-.57-.49c26.22-30.55,32.7-79.28,19.25-144.85-3.85-18.76-10.36-39.62-16.11-58-2.24-7.19-4.37-14-6.22-20.28l.72-.21c1.85,6.29,4,13.08,6.22,20.27,5.75,18.42,12.27,39.29,16.12,58.09C232.66,171.34,226.13,220.29,199.75,251Z"/><rect class="f" x="179.94" y="25.67" width="40.03" height="1.27" transform="translate(7.77 87.47) rotate(-25.15)"/><rect class="f" x="199.09" y="-2.95" width="1.27" height="61.27" transform="translate(8.69 92.21) rotate(-26.56)"/><polygon class="g" points="215.1 18.63 211.34 51.67 183.96 34.19 187.48 3.48 215.1 18.63"/><polygon class="h" points="211.37 51.38 199.31 27.15 215.06 18.95 211.37 51.38"/><polygon class="h" points="187.48 3.48 188.18 3.87 199.31 27.15 184.01 33.75 187.48 3.48"/><path class="i" d="M185.39,247.09c3.44-2.11,8.84-3.52,9.31-2.54s.46,2.84-2,2.64-2.71,2.15-4.91,2.93C184.74,251.19,181.92,249.23,185.39,247.09Z"/><path class="i" d="M174.31,249.88c.12,10.55,3.18,18.82,2.87,19.9s-5.81,5.81-.47,5.39,5.77-2.94,5.61-6.51a34.63,34.63,0,0,1,0-4.65l4.27-.55s2.33,4,3.11,5.4,2.5,3.66,7.21,1.28c3.5-1.77-.28-2.14-2-3.85s-4.16-12.68-7.56-20.58C178.44,242.36,174.31,249.88,174.31,249.88Z"/><path class="j" d="M191.68,258l-16.09,3.79c.38,1.95.77,3.62,1.07,4.93a52.18,52.18,0,0,0,5.59,0,23.43,23.43,0,0,1,0-2.73l4.27-.55,1.26,2.17a16.06,16.06,0,0,0,5.32-3.16C192.68,261.19,192.2,259.67,191.68,258Z"/><path class="k" d="M187.35,245.71c-8.91-3.35-13,4.17-13,4.17a70,70,0,0,0,1.81,14.48c3.63-.11,11.32-.67,16.49-3.43C191.19,256.61,189.45,250.58,187.35,245.71Z"/><path class="i" d="M153.05,234.76c-8.22.19-7.07,17.49,1.69,9.58,6.51,5.6,12.73,8.54,28.21,2.83s17.84-12.62,17.89-15.49c7.59,1.8,6.24-12.26.85-8.8C192.91,214.7,153.7,209.69,153.05,234.76Z"/><path class="l" d="M165.46,240.27c.46,1.41.07,2.8-.86,3.1s-2.07-.58-2.53-2-.07-2.8.86-3.1S165,238.86,165.46,240.27Z"/><path class="l" d="M192.47,232.42c.46,1.41.07,2.8-.87,3.11s-2.07-.59-2.53-2-.07-2.79.87-3.1S192,231,192.47,232.42Z"/><path class="l" d="M176,243.15c1.25,3.35,7.48,2.17,5.86-2.18"/><path class="m" d="M197.37,220.61c-1.64,2.29-5.28.34-6.21-1.36-2,2.92-3.93,1.78-6.37.82-1.74,1.19-2.47,2.43-4.46,2.07s-2.47,2.81-5.14,1.92-2.16,2.59-4.35,3.17-4-1.83-5.58.19-3,1.22-4.64,1.51-1.83,2.47-4.62,2.75-.47,3.16-2.09,3.19c-.21,2.44.45,11-3.4,6.49-2.3-4.76-4.38-14.23-.41-21.29a29.73,29.73,0,0,1,18.45-14.51c8.68-2.57,18.51-1.64,22.71.88s9.74,6.48,11.28,12.74-1.14,11.14-2.45,5.56A7.78,7.78,0,0,0,197.37,220.61Z"/><rect class="n" x="185.89" y="251.95" width="21.69" height="1.65" transform="translate(-119.58 303.19) rotate(-61.16)"/><path class="e" d="M201.41,245.75c.28,5.51-3,12.12-6.61,13.49l-1.92-.27s-4.41-6.61,5.78-13.77A6.59,6.59,0,0,0,201.41,245.75Z"/><path class="i" d="M186.1,253.64c3.94.88,9.5.46,9.63-.62s-.48-2.84-2.76-1.84-3.27-1.15-5.6-1.18C184.15,250,182.13,252.75,186.1,253.64Z"/></svg>