<svg xmlns="http://www.w3.org/2000/svg" xmlns:xlink="http://www.w3.org/1999/xlink" viewBox="0 0 1020 338"><defs><style>.a{isolation:isolate;}.b{fill:#b0c26f;}.c{fill:#b7e0ee;}.d{fill:#9caa61;}.e{fill:#817b5d;}.f{fill:#80a455;}.g{opacity:0.3;mix-blend-mode:multiply;fill:url(#a);}.h,.i,.q{fill:none;stroke-miterlimit:10;}.h{stroke:#fcd445;stroke-width:0.75px;}.i{stroke:#ac694f;stroke-width:1.27px;}.j{fill:#fcd771;}.k{fill:#8aa06a;}.l{fill:#e2b79c;}.m{fill:#28aec0;}.n{fill:#ee4131;}.o{fill:#644a34;}.p{fill:#342f34;}.q{stroke:#8f5d54;stroke-width:1.65px;}.r{fill:#fcd445;}</style><linearGradient id="a" x1="13764.5" y1="2889.48" x2="13764.5" y2="2864.12" gradientTransform="translate(-13162.34 -437.31) rotate(-8.8)" gradientUnits="userSpaceOnUse"><stop offset="0" stop-color="#79a5b2" stop-opacity="0"/><stop offset="0.01" stop-color="#79a5b2" stop-opacity="0.02"/><stop offset="0.2" stop-color="#79a5b2" stop-opacity="0.32"/><stop offset="0.38" stop-color="#79a5b2" stop-opacity="0.56"/><stop offset="0.56" stop-color="#79a5b2" stop-opacity="0.75"/><stop offset="0.72" stop-color="#79a5b2" stop-opacity="0.89"/><stop offset="0.87" stop-color="#79a5b2" stop-opacity="0.97"/><stop offset="1" stop-color="#79a5b2"/></linearGradient></defs><g class="a"><rect class="b" y="177.11" width="1020" height="160.89"/><path class="c" d="M0,0V238.61c560.13-15,672.62-2.74,1020-8.17V0Z"/><path class="d" d="M940.89,198.15c0,10.52-7.62,18.55-16.41,18.55s-14.71-7.57-15.43-18c-.82-12,3.61-19.63,15.43-20C934.32,178.3,940.89,187.64,940.89,198.15Z"/><polygon class="e" points="923.33 186.83 921.69 232.45 927.27 232.78 926.61 186.5 923.33 186.83"/><polygon class="e" points="914.3 204.88 922.81 211.44 923.33 208.98 914.83 204.22 914.3 204.88"/><polygon class="e" points="934.49 205.7 926.45 212.26 925.95 209.8 934 205.04 934.49 205.7"/><polygon class="e" points="933.01 197.84 926.21 202.91 925.79 201.01 932.59 197.33 933.01 197.84"/><polygon class="e" points="915.95 197.84 923.06 202.91 923.49 201.01 916.38 197.33 915.95 197.84"/><polygon class="e" points="931.53 191.77 926.3 195.2 925.98 193.91 931.21 191.43 931.53 191.77"/><polygon class="e" points="918.41 191.77 923.64 195.2 923.96 193.91 918.73 191.43 918.41 191.77"/><path class="d" d="M869.85,200c0,8.54-6.18,15.06-13.32,15.06s-11.94-6.15-12.53-14.66c-.66-9.73,2.94-15.94,12.53-16.26C864.52,183.83,869.85,191.42,869.85,200Z"/><polygon class="e" points="855.6 190.76 854.26 227.81 858.79 228.07 858.26 190.5 855.6 190.76"/><polygon class="e" points="848.27 205.42 855.17 210.75 855.6 208.75 848.69 204.89 848.27 205.42"/><polygon class="e" points="864.66 206.09 858.13 211.42 857.73 209.42 864.26 205.55 864.66 206.09"/><polygon class="e" points="863.46 199.7 857.93 203.82 857.59 202.28 863.12 199.29 863.46 199.7"/><polygon class="e" points="849.6 199.7 855.38 203.82 855.73 202.28 849.95 199.29 849.6 199.7"/><polygon class="e" points="862.26 194.77 858.01 197.56 857.75 196.51 862 194.49 862.26 194.77"/><polygon class="e" points="851.6 194.77 855.85 197.56 856.11 196.51 851.86 194.49 851.6 194.77"/><path class="f" d="M1000,180.67c0,18.25-13.23,32.19-28.49,32.19S946,199.73,944.74,181.53c-1.43-20.8,6.27-34.07,26.77-34.76C988.61,146.2,1000,162.42,1000,180.67Z"/><polygon class="e" points="969.52 161.02 966.67 240.21 976.36 240.78 975.22 160.45 969.52 161.02"/><polygon class="e" points="953.85 192.35 968.62 203.74 969.52 199.47 954.76 191.21 953.85 192.35"/><polygon class="e" points="988.89 193.77 974.93 205.17 974.08 200.9 988.04 192.63 988.89 193.77"/><polygon class="e" points="986.33 180.13 974.52 188.93 973.79 185.63 985.6 179.25 986.33 180.13"/><polygon class="e" points="956.7 180.13 969.05 188.93 969.8 185.63 957.46 179.25 956.7 180.13"/><polygon class="e" points="983.76 169.59 974.68 175.54 974.12 173.31 983.21 168.99 983.76 169.59"/><polygon class="e" points="960.98 169.59 970.06 175.54 970.62 173.31 961.53 168.99 960.98 169.59"/><path class="f" d="M710,200.76c0,10.68-7.74,18.84-16.67,18.84s-14.94-7.68-15.67-18.34c-.83-12.17,3.67-19.93,15.67-20.34C703.33,180.59,710,190.08,710,200.76Z"/><polygon class="e" points="692.16 189.26 690.5 235.6 696.17 235.94 695.5 188.93 692.16 189.26"/><polygon class="e" points="683 207.6 691.64 214.27 692.16 211.76 683.52 206.93 683 207.6"/><polygon class="e" points="703.5 208.43 695.33 215.1 694.83 212.6 703 207.76 703.5 208.43"/><polygon class="e" points="702 200.44 695.09 205.6 694.66 203.66 701.58 199.93 702 200.44"/><polygon class="e" points="684.66 200.44 691.89 205.6 692.33 203.66 685.11 199.93 684.66 200.44"/><polygon class="e" points="700.5 194.28 695.18 197.76 694.86 196.46 700.17 193.93 700.5 194.28"/><polygon class="e" points="687.16 194.28 692.48 197.76 692.8 196.46 687.49 193.93 687.16 194.28"/><path class="f" d="M849.42,195.05c0,11.85-8.59,20.89-18.49,20.89s-16.57-8.52-17.38-20.33c-.93-13.5,4.07-22.12,17.38-22.56C842,172.68,849.42,183.21,849.42,195.05Z"/><polygon class="e" points="829.63 182.29 827.78 233.69 834.07 234.06 833.33 181.93 829.63 182.29"/><polygon class="e" points="819.47 202.63 829.05 210.03 829.63 207.25 820.05 201.89 819.47 202.63"/><polygon class="e" points="842.21 203.56 833.15 210.95 832.59 208.18 841.65 202.81 842.21 203.56"/><polygon class="e" points="840.54 194.7 832.88 200.41 832.41 198.27 840.07 194.13 840.54 194.7"/><polygon class="e" points="821.31 194.7 829.33 200.41 829.82 198.27 821.8 194.13 821.31 194.7"/><polygon class="e" points="838.88 187.86 832.98 191.72 832.62 190.27 838.52 187.47 838.88 187.86"/><polygon class="e" points="824.09 187.86 829.98 191.72 830.34 190.27 824.45 187.47 824.09 187.86"/><path class="f" d="M909.2,197.94c0,11.84-8.59,20.89-18.49,20.89s-16.57-8.52-17.38-20.34c-.93-13.49,4.07-22.11,17.38-22.55C901.8,175.57,909.2,186.1,909.2,197.94Z"/><polygon class="e" points="889.41 185.18 887.57 236.58 893.85 236.95 893.11 184.81 889.41 185.18"/><polygon class="e" points="879.25 205.52 888.83 212.91 889.41 210.14 879.83 204.78 879.25 205.52"/><polygon class="e" points="901.99 206.44 892.93 213.84 892.37 211.07 901.43 205.7 901.99 206.44"/><polygon class="e" points="900.32 197.59 892.66 203.3 892.19 201.16 899.85 197.02 900.32 197.59"/><polygon class="e" points="881.09 197.59 889.11 203.3 889.6 201.16 881.58 197.02 881.09 197.59"/><polygon class="e" points="898.66 190.75 892.76 194.61 892.4 193.16 898.3 190.36 898.66 190.75"/><polygon class="e" points="883.87 190.75 889.76 194.61 890.12 193.16 884.23 190.36 883.87 190.75"/><path class="f" d="M818.55,190.61c0,18.25-13.22,32.19-28.48,32.19s-25.53-13.13-26.78-31.33c-1.43-20.8,6.27-34.07,26.78-34.76C807.16,156.14,818.55,172.36,818.55,190.61Z"/><polygon class="e" points="788.07 170.96 785.22 250.15 794.91 250.72 793.77 170.39 788.07 170.96"/><polygon class="e" points="772.4 202.29 787.17 213.69 788.07 209.41 773.31 201.15 772.4 202.29"/><polygon class="e" points="807.44 203.72 793.48 215.11 792.63 210.84 806.59 202.57 807.44 203.72"/><polygon class="e" points="804.88 190.07 793.07 198.87 792.34 195.57 804.15 189.19 804.88 190.07"/><polygon class="e" points="775.25 190.07 787.6 198.87 788.36 195.57 776.01 189.19 775.25 190.07"/><polygon class="e" points="802.32 179.53 793.23 185.48 792.67 183.25 801.76 178.93 802.32 179.53"/><polygon class="e" points="779.53 179.53 788.61 185.48 789.17 183.25 780.08 178.93 779.53 179.53"/><path class="d" d="M750.59,195.24c0,14.3-10.36,25.22-22.31,25.22s-20-10.28-21-24.55c-1.11-16.29,4.91-26.69,21-27.22C741.67,168.24,750.59,181,750.59,195.24Z"/><polygon class="e" points="726.72 179.85 724.48 241.89 732.07 242.33 731.18 179.4 726.72 179.85"/><polygon class="e" points="714.44 204.4 726.01 213.32 726.72 209.97 715.15 203.5 714.44 204.4"/><polygon class="e" points="741.89 205.51 730.96 214.44 730.29 211.09 741.22 204.62 741.89 205.51"/><polygon class="e" points="739.88 194.82 730.63 201.72 730.06 199.13 739.32 194.13 739.88 194.82"/><polygon class="e" points="716.67 194.82 726.35 201.72 726.94 199.13 717.26 194.13 716.67 194.82"/><polygon class="e" points="737.87 186.56 730.76 191.23 730.32 189.48 737.44 186.09 737.87 186.56"/><polygon class="e" points="720.02 186.56 727.14 191.23 727.57 189.48 720.46 186.09 720.02 186.56"/><path class="g" d="M854.19,290.72l11.2,10s-4.08,6.22,6.38,8.23c10.63,2,37.7,1.39,33.05-3s-25.49-10.45-25.49-10.45l-3.7-5.57-6.88-.47-1,4.75-8.06-4.38Z"/><path class="h" d="M874,42c6.66,22.67,17,52.34,22.33,78.34C907,172.2,908.36,229,877,265.45"/><line class="i" x1="895.64" y1="32.49" x2="859.4" y2="49.49"/><line class="i" x1="863.6" y1="14.96" x2="890.99" y2="69.77"/><polygon class="j" points="892.66 33.31 888.9 66.35 861.53 48.87 865.05 18.16 892.66 33.31"/><polygon class="k" points="888.94 66.06 876.87 41.83 892.62 33.63 888.94 66.06"/><polygon class="k" points="865.05 18.16 865.75 18.55 876.87 41.83 861.58 48.43 865.05 18.16"/><path class="l" d="M863,261.77c3.43-2.11,8.83-3.52,9.31-2.54s.46,2.84-2,2.64-2.72,2.15-4.91,2.93C862.3,265.87,859.49,263.91,863,261.77Z"/><path class="l" d="M851.87,264.56c.12,10.55,3.18,18.82,2.88,19.9s-5.82,5.81-.47,5.39,5.76-2.94,5.6-6.52a35.09,35.09,0,0,1,0-4.64l4.27-.56s2.32,4,3.1,5.41,2.51,3.66,7.22,1.28c3.49-1.77-.28-2.14-2-3.85s-4.15-12.68-7.55-20.58C856,257,851.87,264.56,851.87,264.56Z"/><path class="m" d="M869.24,272.71l-16.09,3.79c.38,1.95.77,3.62,1.08,4.93a52.17,52.17,0,0,0,5.59,0,23.43,23.43,0,0,1,0-2.73l4.27-.56,1.26,2.18a16.06,16.06,0,0,0,5.32-3.16C870.25,275.87,869.77,274.35,869.24,272.71Z"/><path class="n" d="M864.92,260.39c-8.92-3.35-13,4.17-13,4.17A71.45,71.45,0,0,0,853.68,279c3.64-.11,11.32-.67,16.5-3.43C868.75,271.29,867,265.26,864.92,260.39Z"/><path class="l" d="M830.62,249.44c-8.22.19-7.08,17.49,1.68,9.58,6.52,5.6,12.73,8.54,28.21,2.82s17.85-12.61,17.9-15.48c7.59,1.8,6.23-12.26.85-8.8C870.48,229.38,831.26,224.37,830.62,249.44Z"/><path class="o" d="M843,255c.46,1.41.07,2.8-.87,3.1s-2.07-.58-2.53-2-.07-2.8.87-3.1S842.57,253.54,843,255Z"/><path class="o" d="M870,247.1c.46,1.41.08,2.8-.86,3.11s-2.07-.59-2.53-2-.07-2.79.86-3.1S869.57,245.7,870,247.1Z"/><path class="o" d="M853.57,257.83c1.24,3.35,7.48,2.17,5.86-2.18"/><path class="p" d="M874.93,235.29c-1.63,2.29-5.27.34-6.2-1.36-2.06,2.92-3.93,1.78-6.37.82-1.75,1.19-2.47,2.43-4.46,2.07s-2.47,2.81-5.14,1.92-2.17,2.59-4.36,3.17-4-1.83-5.57.19-3,1.22-4.65,1.51-1.82,2.47-4.61,2.75-.48,3.16-2.1,3.19c-.2,2.44.45,11-3.4,6.49-2.3-4.76-4.37-14.23-.41-21.29a29.72,29.72,0,0,1,18.46-14.51c8.68-2.57,18.5-1.64,22.7.88s9.75,6.48,11.28,12.74S879,245,877.65,239.42A7.73,7.73,0,0,0,874.93,235.29Z"/><line class="q" x1="879.53" y1="257.95" x2="869.06" y2="276.95"/><path class="r" d="M879,260.43c.27,5.51-3,12.12-6.61,13.49l-1.93-.27s-4.4-6.61,5.78-13.77A6.66,6.66,0,0,0,879,260.43Z"/><path class="l" d="M863.67,268.32c3.93.88,9.5.46,9.63-.62s-.49-2.84-2.77-1.84-3.27-1.15-5.6-1.18C861.71,264.65,859.69,267.43,863.67,268.32Z"/></g></svg>