<svg xmlns="http://www.w3.org/2000/svg" xmlns:xlink="http://www.w3.org/1999/xlink" viewBox="0 0 176.24 239.95"><defs><style>.a{isolation:isolate;}.b{fill:#fff;}.c{fill:#7e7d38;}.d,.e,.f,.g,.h,.i,.j,.k,.l,.m,.o,.p,.q{mix-blend-mode:multiply;}.d{fill:url(#a);}.e{fill:url(#b);}.f{fill:url(#c);}.g{fill:url(#d);}.h{fill:url(#e);}.i{fill:url(#f);}.j{fill:url(#g);}.k{fill:url(#h);}.l{fill:url(#i);}.m{fill:url(#j);}.n{fill:url(#u);}.o{fill:#839942;}.p{fill:#68883f;}.q{fill:#68853c;}</style><linearGradient id="a" x1="388.26" y1="769.45" x2="388.26" y2="848.07" gradientTransform="translate(-428.43 -686.19) rotate(-9.04)" gradientUnits="userSpaceOnUse"><stop offset="0" stop-color="#fdeeec"/><stop offset="1" stop-color="#f4cecc"/></linearGradient><linearGradient id="b" x1="422.3" y1="773.77" x2="422.3" y2="846.65" xlink:href="#a"/><linearGradient id="c" x1="405.36" y1="751.18" x2="405.36" y2="853.95" xlink:href="#a"/><linearGradient id="d" x1="416.07" y1="757.27" x2="416.07" y2="851.97" xlink:href="#a"/><linearGradient id="e" x1="-9015.19" y1="251.03" x2="-9015.19" y2="347.16" gradientTransform="translate(-5068.01 7448.13) rotate(126.76)" xlink:href="#a"/><linearGradient id="f" x1="-11999.81" y1="3825" x2="-11999.81" y2="3862.29" gradientTransform="matrix(-0.67, 0.15, -0.21, -0.9, -7080.86, 5354.19)" xlink:href="#a"/><linearGradient id="g" x1="-12013.01" y1="3822.23" x2="-12013.01" y2="3864.28" gradientTransform="matrix(-0.67, 0.15, -0.21, -0.9, -7080.86, 5354.19)" xlink:href="#a"/><linearGradient id="h" x1="3225.35" y1="3822.43" x2="3225.35" y2="3864.48" gradientTransform="matrix(0.67, -0.15, -0.21, -0.9, -1253.34, 4001.54)" xlink:href="#a"/><linearGradient id="i" x1="-11970.98" y1="3823.78" x2="-11970.98" y2="3860.03" gradientTransform="matrix(-0.67, 0.15, -0.21, -0.9, -7080.86, 5354.19)" xlink:href="#a"/><linearGradient id="j" x1="-12026.97" y1="3823.01" x2="-12026.97" y2="3861.15" gradientTransform="matrix(-0.67, 0.15, -0.21, -0.9, -7080.86, 5354.19)" xlink:href="#a"/><linearGradient id="u" x1="93.48" y1="143.08" x2="93.48" y2="88.11" gradientUnits="userSpaceOnUse"><stop offset="0" stop-color="#fff" stop-opacity="0"/><stop offset="1" stop-color="#fff"/></linearGradient></defs><g class="a"><path class="b" d="M57.48,240v-1c.67,0,1.33,0,2,0l0,1C58.82,239.94,58.15,240,57.48,240Zm-4,0c-.67,0-1.34,0-2-.06l0-1c.66,0,1.32,0,2,.06Zm10-.16-.05-1,2-.13.07,1C64.83,239.68,64.16,239.73,63.49,239.76Zm-16-.12-2-.16.08-1c.66,0,1.32.11,2,.15Zm22-.35-.1-1,2-.22.12,1Zm-28-.22c-.67-.09-1.33-.17-2-.27l.14-1c.65.1,1.31.18,2,.26Zm34-.57-.16-1c.66-.1,1.31-.22,2-.33l.18,1Zm-39.92-.32-2-.38.19-1,2,.37Zm45.83-.8-.21-1,1.93-.44.24,1C82.67,237.08,82,237.24,81.36,237.38Zm-51.72-.44-1.95-.49.26-1,1.92.49Zm57.56-1.05-.29-1c.65-.19,1.28-.39,1.9-.59l.31,1Zm-63.36-.57c-.65-.21-1.29-.43-1.91-.65l.33-.94c.62.22,1.24.43,1.88.63ZM92.91,234l-.36-.94c.62-.24,1.24-.49,1.83-.74l.4.92C94.17,233.46,93.55,233.71,92.91,234Zm-74.73-.74c-.63-.26-1.25-.54-1.84-.82l.42-.9c.59.27,1.19.54,1.81.8Zm80.24-1.73L98,230.6c.6-.31,1.18-.63,1.73-.95l.5.87C99.62,230.85,99,231.17,98.42,231.49Zm-85.67-.94c-.59-.35-1.17-.7-1.72-1.06l.54-.84c.54.35,1.1.7,1.68,1Zm90.83-2.25-.59-.8c.53-.4,1.05-.81,1.53-1.22l.65.76C104.67,227.46,104.14,227.89,103.58,228.3Zm-95.8-1.22c-.53-.46-1-.92-1.49-1.39L7,225c.44.45.92.89,1.43,1.33Zm100.23-3-.79-.62a14.61,14.61,0,0,0,1.1-1.59l.85.52A16.39,16.39,0,0,1,108,224.11ZM3.75,222.47a13.84,13.84,0,0,1-.92-1.85l.92-.37a11.8,11.8,0,0,0,.86,1.7Zm106.94-3.9-1-.19a10,10,0,0,0,.19-1.88v-.11h1v.1A10.34,10.34,0,0,1,110.69,218.57Zm-108.43-2H2a11.38,11.38,0,0,1,.19-2l1,.19A9.28,9.28,0,0,0,3,216.5Zm106.86-3.83a11.4,11.4,0,0,0-.86-1.71l.85-.52a14.54,14.54,0,0,1,.94,1.84ZM4.55,211.15l-.86-.51a17.66,17.66,0,0,1,1.16-1.7l.79.62A15.52,15.52,0,0,0,4.55,211.15ZM105.86,208c-.45-.45-.93-.9-1.43-1.33l.65-.76c.52.45,1,.91,1.49,1.38ZM8.34,206.76,7.68,206c.5-.42,1-.85,1.59-1.27l.6.81C9.33,205.94,8.81,206.35,8.34,206.76Zm92.93-2.44c-.54-.35-1.1-.69-1.68-1l.5-.87c.6.35,1.17.7,1.73,1.06Zm-88.11-.94-.51-.87c.57-.33,1.16-.65,1.77-1l.46.89C14.29,202.74,13.71,203.06,13.16,203.38Zm82.92-1.9c-.58-.27-1.19-.54-1.8-.8l.39-.93c.62.27,1.24.54,1.84.82Zm-77.62-.74-.39-.92c.6-.25,1.23-.51,1.86-.75l.36.93C19.67,200.24,19.06,200.49,18.46,200.74Zm72.12-1.49-1.88-.63.3-1c.65.21,1.29.42,1.91.64ZM24,198.67l-.31-.95,1.92-.59.29,1C25.28,198.28,24.65,198.47,24,198.67Zm60.86-1.16L83,197l.23-1,2,.49Zm-55.13-.45-.24-1,2-.46.21,1Zm49.33-.89-2-.37.17-1c.66.11,1.32.24,2,.37Zm-43.5-.34-.18-1,2-.34.16,1Zm37.62-.65-2-.26.12-1,2,.26Zm-31.72-.24-.13-1,2-.23.1,1Zm25.79-.43-2-.16.07-1c.67,0,1.34.1,2,.15Zm-19.86-.14-.07-1,2-.13,0,1Zm13.91-.23c-.66,0-1.32,0-2-.06l0-1c.67,0,1.34,0,2,.06Zm-7.95-.06,0-1,2,0v1Z"/><path class="b" d="M32,213h0c-.68,0-1.36,0-2,0l0-1c.66,0,1.33,0,2,0Zm4.1-.12,0-1c.68,0,1.35-.08,2-.14l.08,1C37.45,212.76,36.76,212.8,36.07,212.84Zm-10.25-.14c-.69,0-1.37-.12-2-.2l.11-1,2,.2Zm16.38-.47-.14-1,2-.32.18,1C43.57,212,42.89,212.13,42.2,212.23Zm-22.49-.32c-.68-.12-1.36-.26-2-.4l.22-1q1,.21,2,.39ZM48.25,211l-.25-1c.67-.17,1.31-.35,2-.55l.29,1C49.59,210.67,48.93,210.85,48.25,211Zm-34.54-.54c-.67-.21-1.33-.42-2-.64l.33-.95q.93.33,1.92.63Zm40.41-1.41-.38-.92c.63-.26,1.24-.54,1.82-.83l.45.9C55.41,208.52,54.77,208.81,54.12,209.08Zm-46.19-.83c-.64-.32-1.25-.65-1.82-1l.51-.86c.55.33,1.14.65,1.76.95Zm51.64-2.18-.6-.8A13.63,13.63,0,0,0,60.46,204l.71.71A14.68,14.68,0,0,1,59.57,206.07Zm-56.8-1.33a11.4,11.4,0,0,1-1.39-1.62l.83-.57A10.45,10.45,0,0,0,3.46,204Zm60.76-3.58-1-.33A5.55,5.55,0,0,0,62.9,199l1-.11V199A6.76,6.76,0,0,1,63.53,201.16ZM0,199.05V199a6.67,6.67,0,0,1,.35-2.11l1,.32A5.56,5.56,0,0,0,1,199Zm61.66-3.63A9.38,9.38,0,0,0,60.4,194l.69-.72a10.73,10.73,0,0,1,1.39,1.61ZM3.4,194l-.7-.71A15.54,15.54,0,0,1,4.29,192l.6.8A13.63,13.63,0,0,0,3.4,194Zm53.84-2.46c-.55-.33-1.14-.65-1.76-1l.44-.9c.64.32,1.26.65,1.83,1Zm-48.95-.89-.44-.89c.6-.3,1.23-.59,1.88-.86l.39.92C9.49,190.12,8.87,190.4,8.29,190.69Zm43.48-1.61c-.62-.21-1.26-.42-1.92-.62l.29-1c.68.2,1.33.42,2,.64Zm-37.86-.58-.3-1c.65-.19,1.31-.38,2-.55l.25,1C15.18,188.13,14.54,188.31,13.91,188.5Zm32-1c-.65-.14-1.31-.27-2-.39l.18-1,2,.4Zm-26.16-.37-.17-1c.66-.12,1.34-.23,2-.33l.15,1Zm20.17-.6c-.67-.08-1.34-.14-2-.2l.09-1q1,.09,2,.21Zm-14.15-.19-.09-1c.68-.06,1.36-.11,2.05-.15l.06,1Zm8.09-.23L32,186l-.07-1H32c.63,0,1.3,0,2,0Z"/><path class="b" d="M154.36,11.32h-.53l0-1h.47c.51,0,1,0,1.45,0l.06,1C155.35,11.31,154.86,11.32,154.36,11.32Zm-4.52-.42a18.7,18.7,0,0,1-2-.5l.3-1c.58.18,1.21.34,1.85.47Zm10-.23-.25-1a13.74,13.74,0,0,0,1.81-.58l.37.93A14.55,14.55,0,0,1,159.81,10.67ZM144.22,8.54a4.66,4.66,0,0,1-1.33-1.73l.92-.38a3.64,3.64,0,0,0,1.06,1.34Zm21-.79-.78-.63A2.39,2.39,0,0,0,165,5.64l.75,0H166A3.37,3.37,0,0,1,165.19,7.75ZM144.83,3.54l-.65-.76a8.66,8.66,0,0,1,1.75-1.13l.45.9A7.81,7.81,0,0,0,144.83,3.54ZM163,3a10.52,10.52,0,0,0-1.68-.83l.36-.93a11,11,0,0,1,1.85.91Zm-13-1.6-.2-1c.65-.13,1.32-.23,2-.3l.11,1C151.23,1.15,150.59,1.25,150,1.37Zm7.65-.18C157,1.1,156.37,1,155.72,1l.06-1c.68,0,1.35.11,2,.2Z"/><path class="c" d="M105.9,109.86l-2.69-1c6.55-17.57-1.71-40.73-1.79-41l2.69-1C104.47,67.9,112.82,91.29,105.9,109.86Z"/><path class="b" d="M135.69,44.7a16,16,0,0,0-6.75,1.14c3.25-6.36,4.35-13.43,1.35-20.45a27.92,27.92,0,0,0-9.7,4.28,46.4,46.4,0,0,0-5.31-13.51,38.42,38.42,0,0,0-12.7,10.5c-4.66-6.1-9.82-10.36-12.42-10.79a27,27,0,0,0-5.85,14.36,107.34,107.34,0,0,0-11.77-5.6,36.11,36.11,0,0,0-1,11.27,58.54,58.54,0,0,0-9.06-2.75c-1.06,12.15,4.43,20.46,11.78,26a27.38,27.38,0,0,0-12.91,5c8,9.32,21.49,11.45,33.16,8,2.45,0,5.34-1,8.72-3.33l-.23-.3.58.22a16.39,16.39,0,0,0,8.53-.52C129.9,66.18,135.34,51.81,135.69,44.7Z"/><path class="d" d="M101.32,68.76c-10.57-.4-41.23-8.31-38.85-35.61C84.39,37.83,106,57.43,101.32,68.76Z"/><path class="e" d="M130.29,25.39c-11,1.93-33.77,20.6-29.4,43.42C113.51,66.36,138.94,45.6,130.29,25.39Z"/><path class="f" d="M90.16,15.87c7.69,1.28,37.7,36,11.17,52.85C90.05,63.6,75.77,33.44,90.16,15.87Z"/><path class="g" d="M115.28,16.16c-6.71,3.61-29,16.85-14,52.56C136.35,49.28,115.28,16.16,115.28,16.16Z"/><path class="h" d="M102.73,68.54c1.63-6.29,12-26.63-30.19-43.91C64.55,57.9,102.73,68.54,102.73,68.54Z"/><path class="i" d="M99.5,51.22c7.68,3.85,12.19,10.2,4.07,17.53C97.73,66.58,89.5,62.88,99.5,51.22Z"/><path class="j" d="M115,46.86c3,1.83,9,25.13-11.38,21.89C105.31,58.82,109.8,50,115,46.86Z"/><path class="k" d="M83.36,54.19c-1.87,3,3,26.53,19.86,14.64C97.28,60.68,89.36,54.74,83.36,54.19Z"/><path class="l" d="M61.34,64.16c10.28-7.71,28-7.56,42.09,4C90.58,76.24,71.46,76,61.34,64.16Z"/><path class="m" d="M135.69,44.7c-.4,8.2-7.56,26.05-32.61,23.54C108.09,59,125.22,43.77,135.69,44.7Z"/><path class="d" d="M101.32,68.76c-10.57-.4-41.23-8.31-38.85-35.61C84.39,37.83,106,57.43,101.32,68.76Z"/><path class="e" d="M130.29,25.39c-11,1.93-33.77,20.6-29.4,43.42C113.51,66.36,138.94,45.6,130.29,25.39Z"/><path class="f" d="M90.16,15.87c7.69,1.28,37.7,36,11.17,52.85C90.05,63.6,75.77,33.44,90.16,15.87Z"/><path class="g" d="M115.28,16.16c-6.71,3.61-29,16.85-14,52.56C136.35,49.28,115.28,16.16,115.28,16.16Z"/><path class="h" d="M102.73,68.54c1.63-6.29,12-26.63-30.19-43.91C64.55,57.9,102.73,68.54,102.73,68.54Z"/><path class="i" d="M99.5,51.22c7.68,3.85,12.19,10.2,4.07,17.53C97.73,66.58,89.5,62.88,99.5,51.22Z"/><path class="j" d="M115,46.86c3,1.83,9,25.13-11.38,21.89C105.31,58.82,109.8,50,115,46.86Z"/><path class="k" d="M83.36,54.19c-1.87,3,3,26.53,19.86,14.64C97.28,60.68,89.36,54.74,83.36,54.19Z"/><path class="l" d="M61.34,64.16c10.28-7.71,28-7.56,42.09,4C90.58,76.24,71.46,76,61.34,64.16Z"/><path class="m" d="M135.69,44.7c-.4,8.2-7.56,26.05-32.61,23.54C108.09,59,125.22,43.77,135.69,44.7Z"/><path class="n" d="M44.85,115.9a78.87,78.87,0,0,0,11.25-.78c-8.62,3-14,7.09-14,11.65,0,9,20.83,16.31,46.51,16.31,23.5,0,42.92-6.11,46.06-14,1.82.1,3.69.15,5.59.15,19.85,0,36-5.68,36-12.69s-16.1-12.68-36-12.68c-15.11,0-28,3.29-33.35,8a127.08,127.08,0,0,0-38.68.33C74.86,109.58,79,106,79,102c0-7.68-15.28-13.9-34.13-13.9A78.62,78.62,0,0,0,31,89.3L43.94,99,12.2,98A6.72,6.72,0,0,0,10.72,102C10.72,109.68,26,115.9,44.85,115.9Z"/><path class="o" d="M134.16,121.77c0-9-20.83-16.31-46.52-16.31s-46.51,7.31-46.51,16.31S62,138.08,87.64,138.08,134.16,130.78,134.16,121.77Z"/><path class="p" d="M103.35,111.5c0-7,16.09-12.68,35.94-12.68s36,5.68,36,12.68-16.1,12.69-36,12.69S103.35,118.51,103.35,111.5Z"/><path class="q" d="M43.85,83.11A78.62,78.62,0,0,0,30,84.3L42.94,94,11.2,93A6.72,6.72,0,0,0,9.72,97c0,7.67,15.28,13.89,34.13,13.89S78,104.68,78,97,62.7,83.11,43.85,83.11Z"/></g></svg>