<svg xmlns="http://www.w3.org/2000/svg" viewBox="0 0 107.75 93.39"><defs><style>.a{fill:#efefef;}.b{fill:#9c823f;}.c{fill:#ad9044;}.d{fill:#e7c56b;}.e{fill:#ffdd80;}.f{fill:#d8903e;}</style></defs><path class="a" d="M48,42.67C28.88,43.2,3.29,48,.19,23.63S33.06-1.35,56.27.78,102.91,10.31,97,26.15,80.37,41.77,48,42.67Z"/><path class="a" d="M38,55.68c-6.77-9.56-5.09-14-4.13-21.54-5.8-1.54-5.12-.06-5.12-.06A21.48,21.48,0,0,0,38,55.68Z"/><path class="b" d="M91.54,93.39a.57.57,0,0,1-.35-.12.58.58,0,0,1-.13-.81l2.19-3L91.1,87.09a.58.58,0,1,1,.87-.78L94.44,89a.6.6,0,0,1,0,.74L92,93.15A.61.61,0,0,1,91.54,93.39Z"/><path class="c" d="M87.61,49.32c.59,6.91.92,12.77-4.87,19.87-5.17,6.34-13.93,8.48-18.12,4.68C57,67,62,59.64,66.76,58.47c3-.74,7.8.2,13.74-2.43A13.82,13.82,0,0,0,87.61,49.32Z"/><path class="d" d="M107.75,66.79C106.87,72.63,97,89.1,84,91.24S64.78,87.83,58,78.68s-7.5-21.15-.58-25,14.22-.59,15.78.09S86.7,61.82,90.6,65.23,101.9,70.59,107.75,66.79Z"/><path class="e" d="M58,78.68c4,5.42,7.84,9.58,13,11.62,1.79-6.35.49-9.92-2.39-15.68C65.84,69.2,59,68.2,53,68.09A28.18,28.18,0,0,0,58,78.68Z"/><path class="b" d="M61.42,59.92a3,3,0,0,1-.43,0,2.92,2.92,0,0,1-2.24-2.47.38.38,0,0,1,.3-.46.38.38,0,0,1,.46.3,2.14,2.14,0,0,0,1.61,1.86,2.31,2.31,0,0,0,2.26-1.21.39.39,0,0,1,.66.41A3.16,3.16,0,0,1,61.42,59.92Z"/><path class="b" d="M58.45,60.26a.35.35,0,0,1-.27-.11.38.38,0,0,1,0-.55l1.07-1.12a.39.39,0,1,1,.56.54l-1.07,1.12A.39.39,0,0,1,58.45,60.26Z"/><path class="b" d="M60.49,61.43h-.06a.38.38,0,0,1-.32-.45l.24-1.41a.4.4,0,0,1,.45-.32.39.39,0,0,1,.32.45l-.24,1.42A.4.4,0,0,1,60.49,61.43Z"/><path class="b" d="M62.88,61.33a.38.38,0,0,1-.34-.2l-.73-1.37a.37.37,0,0,1,.16-.52.37.37,0,0,1,.52.16l.73,1.36a.38.38,0,0,1-.16.53A.37.37,0,0,1,62.88,61.33Z"/><path class="b" d="M64.54,60.21a.39.39,0,0,1-.27-.1l-1.07-1a.39.39,0,0,1,.53-.58l1.07,1a.38.38,0,0,1,0,.55A.35.35,0,0,1,64.54,60.21Z"/><path class="b" d="M95.67,51.4c.58,6.91.92,12.76-4.88,19.87C85.63,77.6,76.86,79.75,72.67,76,65.05,69,70,61.72,74.82,60.55c3-.74,7.79.2,13.73-2.43A13.86,13.86,0,0,0,95.67,51.4Z"/><polygon class="f" points="47.89 57.34 54.26 57.21 52.83 60.85 47.89 57.34"/><path class="b" d="M96.47,91.57a.58.58,0,0,1-.58-.59V87.55l-3-1.78a.6.6,0,0,1-.2-.8.59.59,0,0,1,.81-.2l3.24,2a.57.57,0,0,1,.29.5V91A.58.58,0,0,1,96.47,91.57Z"/></svg>