<svg xmlns="http://www.w3.org/2000/svg" xmlns:xlink="http://www.w3.org/1999/xlink" viewBox="0 0 361.34 165.02"><defs><style>.a{isolation:isolate;}.b{fill:#fff;}.c{fill:url(#a);}.d{fill:#839942;}.d,.f,.h,.i,.j,.k,.l,.m,.n,.o,.p,.q,.r,.s,.t,.u,.v{mix-blend-mode:multiply;}.e{fill:url(#b);}.f{fill:#68883f;}.g{fill:#7e7d3e;}.h{fill:url(#c);}.i{fill:url(#d);}.j{fill:url(#e);}.k{fill:url(#f);}.l{fill:url(#g);}.m{fill:url(#h);}.n{fill:url(#i);}.o{fill:url(#j);}.p{fill:url(#k);}.q{fill:url(#l);}.r{fill:url(#m);}.s{fill:url(#n);}.t{fill:url(#o);}.u{fill:url(#p);}.v{fill:#889863;}.w,.x{opacity:0.33;}.w{fill:url(#ae);}.x{fill:url(#af);}.y{fill:#95b83f;}.z{fill:#bbd656;}.aa{fill:#a7cf48;}.ab{fill:#98bc43;}.ac{fill:#bcd762;}.ad{fill:#9abe43;}.ae{fill:#bad657;}.af{fill:#cfe18a;}.ag{fill:#c4da64;}.ah{fill:#b9d658;}.ai{fill:#bad65a;}.aj{fill:#9ec443;}.ak{fill:#c1c1c1;mix-blend-mode:color-burn;}.al{fill:#bcd759;}.am{fill:#fffbfc;}.an{fill:#606167;}</style><linearGradient id="a" x1="93.13" y1="132.89" x2="93.13" y2="84.11" gradientUnits="userSpaceOnUse"><stop offset="0" stop-color="#fff" stop-opacity="0"/><stop offset="1" stop-color="#fff"/></linearGradient><linearGradient id="b" x1="236.84" y1="155.74" x2="236.84" y2="102.79" xlink:href="#a"/><linearGradient id="c" x1="147.86" y1="-11.71" x2="147.86" y2="74.34" gradientUnits="userSpaceOnUse"><stop offset="0" stop-color="#fdf1ec"/><stop offset="1" stop-color="#f6d2c7"/></linearGradient><linearGradient id="d" x1="176.77" y1="-6.44" x2="176.77" y2="72.63" xlink:href="#c"/><linearGradient id="e" x1="164.28" y1="-12.91" x2="164.28" y2="74.68" xlink:href="#c"/><linearGradient id="f" x1="173.75" y1="-20.58" x2="173.75" y2="77.16" xlink:href="#c"/><linearGradient id="g" x1="-8011.4" y1="1445.39" x2="-8011.4" y2="1543.14" gradientTransform="matrix(-0.72, 0.7, -0.7, -0.72, -4548.74, 6682.21)" xlink:href="#c"/><linearGradient id="h" x1="138.05" y1="7.72" x2="138.05" y2="68.1" xlink:href="#c"/><linearGradient id="i" x1="185.48" y1="1.65" x2="185.48" y2="69.9" xlink:href="#c"/><linearGradient id="j" x1="191.47" y1="26.54" x2="191.47" y2="68.49" xlink:href="#c"/><linearGradient id="k" x1="132.04" y1="29.97" x2="132.04" y2="68.32" xlink:href="#c"/><linearGradient id="l" x1="162.14" y1="43.91" x2="162.14" y2="81.31" xlink:href="#c"/><linearGradient id="m" x1="148.9" y1="41.13" x2="148.9" y2="83.31" xlink:href="#c"/><linearGradient id="n" x1="-7373.68" y1="41.13" x2="-7373.68" y2="83.31" gradientTransform="matrix(-1, 0, 0, 1, -7198.85, 0)" xlink:href="#c"/><linearGradient id="o" x1="191.06" y1="42.69" x2="191.06" y2="79.05" xlink:href="#c"/><linearGradient id="p" x1="134.89" y1="41.92" x2="134.89" y2="80.17" xlink:href="#c"/><linearGradient id="ae" x1="299.71" y1="160.94" x2="299.71" y2="153.53" gradientUnits="userSpaceOnUse"><stop offset="0" stop-color="#abb56d" stop-opacity="0"/><stop offset="1" stop-color="#abb56d"/></linearGradient><linearGradient id="af" x1="314.86" y1="148.57" x2="314.86" y2="140.57" xlink:href="#ae"/></defs><g class="a"><path class="b" d="M299.2,161.39c-.72,0-1.42-.07-2.11-.13l.09-1c.67.06,1.36.1,2.06.13Zm4.23-.06-.07-1c.71-.05,1.39-.11,2.06-.18l.11,1Q304.51,161.27,303.43,161.33Zm-10.53-.67c-.72-.15-1.42-.32-2.07-.52l.29-1c.62.19,1.29.35,2,.5Zm16.81-.25-.24-1a19.51,19.51,0,0,0,1.95-.58l.33.95C311.12,160,310.43,160.23,309.71,160.41Zm-22.83-2a4.87,4.87,0,0,1-1.6-1.65l.88-.48a4,4,0,0,0,1.29,1.3Zm28.68-.74-.71-.71a2.09,2.09,0,0,0,.74-1.46l1-.08v0A3.09,3.09,0,0,1,315.56,157.67Zm-28.16-4.22-.57-.82a11.15,11.15,0,0,1,1.93-1l.39.92A10.12,10.12,0,0,0,287.4,153.45Zm25.82-.55a12.87,12.87,0,0,0-1.85-.78l.32-1a15.68,15.68,0,0,1,2,.84Zm-20.17-1.57-.21-1c.68-.14,1.38-.26,2.09-.36l.14,1C294.38,151.08,293.7,151.19,293.05,151.33Zm14.35-.21c-.66-.11-1.34-.21-2-.29l.11-1q1.08.12,2.1.3Zm-8.22-.51,0-1c.54,0,1.08,0,1.63,0h.48v1h-.47Q300,150.58,299.18,150.61Z"/><path class="b" d="M309.54,39.16l-2,0,0-1,2,0Zm4,0v-1l2,0,0,1ZM303.59,39c-.67,0-1.33-.07-2-.12l.07-1c.65,0,1.31.09,2,.12Zm15.88-.06-.06-1,2-.13.07,1Zm-21.83-.39-2-.22.12-1c.65.08,1.3.15,2,.21Zm27.77-.11-.11-1,2-.23.12,1Zm-33.69-.64-2-.32.17-1,1.94.32Zm39.6-.16-.16-1,1.94-.34.18,1Zm-45.47-.93-1.94-.46.25-1,1.91.45Zm51.33-.24-.23-1,1.9-.48.26,1C338.49,36.12,337.84,36.28,337.18,36.44Zm-57.11-1.32c-.65-.21-1.28-.43-1.89-.65l.35-.94c.59.22,1.21.44,1.85.64Zm62.86-.33-.32-.94c.64-.22,1.25-.45,1.83-.68l.37.92C344.21,34.33,343.59,34.57,342.93,34.79ZM274.5,32.87a19,19,0,0,1-1.76-1l.54-.84c.5.32,1.07.64,1.67.95Zm73.95-.5L348,31.5a16,16,0,0,0,1.61-1l.59.8A16.26,16.26,0,0,1,348.45,32.37Zm-78.81-3.2a5.58,5.58,0,0,1-1-1.92l1-.26a4.63,4.63,0,0,0,.8,1.58Zm83.33-1-.9-.45a3.66,3.66,0,0,0,.42-1.67l1-.11v.11A4.83,4.83,0,0,1,353,28.22Zm-82.58-4.51-.81-.59A9.15,9.15,0,0,1,271,21.6l.65.76A7.92,7.92,0,0,0,270.39,23.71Zm80.55-.8a11.35,11.35,0,0,0-1.44-1.22l.58-.81a11.89,11.89,0,0,1,1.57,1.33Zm-76.07-2.65-.46-.88c.57-.3,1.18-.59,1.82-.87l.4.92C276,19.7,275.42,20,274.87,20.26Zm71.28-.49c-.57-.26-1.17-.51-1.8-.76l.37-.93c.65.25,1.27.52,1.85.79Zm-65.86-1.71-.31-.95c.62-.2,1.26-.39,1.91-.58l.28,1Zm60.36-.33-1.89-.54.26-1q1,.25,1.92.54ZM286,16.53l-.22-1c.63-.14,1.28-.28,1.95-.41l.19,1Zm49-.24L333,15.91l.18-1,1.95.38Zm-43.16-.85-.15-1,2-.29.14,1Zm37.34-.17L327.17,15l.12-1,2,.26Zm-31.48-.58-.09-1,2-.19.09,1Zm25.61-.11-2-.16.08-1,2,.17Zm-19.71-.34-.05-1c.66,0,1.32-.07,2-.09l0,1C304.85,14.17,304.2,14.2,303.54,14.24Zm13.8-.06-2-.07,0-1,2,.07Zm-7.88-.13v-1h2v1h-2Z"/><path class="b" d="M342.58,43l0-1c.7,0,1.38,0,2.05-.08l.06,1C344,42.94,343.29,43,342.58,43Zm-4.17-.08c-.71,0-1.41-.09-2.09-.16l.1-1q1,.09,2,.15Zm10.42-.41-.14-1c.69-.1,1.36-.21,2-.34l.19,1C350.23,42.27,349.54,42.39,348.83,42.49Zm-16.65-.34q-1.06-.21-2-.45l.24-1c.64.16,1.3.31,2,.44Zm22.78-1-.32-1c.68-.23,1.31-.47,1.89-.73l.41.91C356.33,40.6,355.67,40.86,355,41.1Zm-28.82-.76a13.26,13.26,0,0,1-1.89-1l.55-.84a11.77,11.77,0,0,0,1.75.94Zm34.35-2.49-.78-.62a2.51,2.51,0,0,0,.63-1.57l1-.09v0A3.42,3.42,0,0,1,360.49,37.85Zm-38.63-2.16h-.16a3.45,3.45,0,0,1,.82-2.19l.78.62a2.5,2.5,0,0,0-.6,1.54Zm36.35-2.88a11.85,11.85,0,0,0-1.75-.93l.41-.92a15.75,15.75,0,0,1,1.89,1Zm-31.73-.89-.41-.91c.6-.27,1.26-.53,2-.77l.32,1A20,20,0,0,0,326.48,31.92Zm26.14-1.33c-.63-.16-1.3-.31-2-.44l.19-1c.71.13,1.39.28,2.05.45Zm-20.32-.42-.19-1c.66-.13,1.35-.25,2.06-.35l.15,1C333.62,29.93,333,30,332.3,30.17Zm14.28-.6q-1-.09-2-.15l0-1c.71,0,1.41.09,2.09.16Zm-8.19-.14-.06-1c.69,0,1.38-.07,2.09-.08l0,1C339.75,29.36,339.06,29.39,338.39,29.43Z"/><path class="b" d="M121.71,165h-.48v-1h.47l1.49,0,0,1Zm-4.46-.13c-.67,0-1.33-.08-2-.13l.08-1c.65.05,1.3.1,2,.13Zm10-.06-.07-1c.66,0,1.31-.1,2-.16l.09,1C128.53,164.73,127.87,164.78,127.2,164.83Zm-15.9-.51c-.67-.09-1.33-.2-2-.31l.17-1c.63.11,1.28.21,1.94.3Zm21.84-.15-.16-1c.66-.1,1.31-.21,1.94-.33l.18,1Zm-27.72-1c-.66-.17-1.31-.34-1.93-.53l.29-1c.6.18,1.23.36,1.89.52Zm33.58-.27-.27-1c.65-.18,1.28-.36,1.87-.56l.32,1Q140,162.66,139,162.93Zm-39.28-1.62c-.65-.29-1.26-.59-1.82-.9l.49-.87c.53.29,1.11.58,1.73.85Zm44.93-.45-.44-.9a14.59,14.59,0,0,0,1.67-.94l.54.85A17.16,17.16,0,0,1,144.65,160.86Zm-50-3A5.53,5.53,0,0,1,93.59,156l1-.28a4.47,4.47,0,0,0,.87,1.52ZM149.4,157l-.87-.49a3.36,3.36,0,0,0,.46-1.63l1-.1v.1A4.28,4.28,0,0,1,149.4,157Zm-54-4.45-.77-.64a9.06,9.06,0,0,1,1.51-1.43l.61.79A8.36,8.36,0,0,0,95.37,152.52Zm52-.75a11.35,11.35,0,0,0-1.52-1.14l.54-.84A11.83,11.83,0,0,1,148,151ZM100,149.34l-.4-.91c.58-.26,1.21-.51,1.87-.75l.34.94C101.21,148.85,100.61,149.09,100,149.34Zm42.32-.42c-.58-.23-1.19-.45-1.83-.65l.31-1c.66.22,1.29.45,1.89.68Zm-36.78-1.43-.24-1c.63-.15,1.28-.3,2-.44l.2,1Zm31.18-.25c-.63-.14-1.27-.28-1.92-.4l.18-1c.67.12,1.32.26,2,.4Zm-25.4-.86-.14-1,2-.25.11,1Q112.32,146.25,111.36,146.38Zm19.6-.14-2-.22.09-1c.67.06,1.33.13,2,.22Zm-13.74-.43,0-1,2-.09,0,1C118.53,145.75,117.87,145.77,117.22,145.81Zm7.86-.05c-.65,0-1.3,0-2-.06l0-1c.67,0,1.33,0,2,.06Z"/><path class="b" d="M73.09,163.8l-2,0,0-1,2,0Zm4.07,0,0-1c.68,0,1.36,0,2-.05l0,1C78.53,163.76,77.85,163.77,77.16,163.78ZM67,163.6l-2-.13.07-1,2,.13Zm16.31-.06-.07-1c.68,0,1.35-.09,2-.15l.08,1Zm-22.41-.42-2-.23.12-1,2,.23Zm28.5-.12-.11-1,2-.25.13,1Zm-34.57-.68-2-.35.18-1,2,.34Zm40.64-.18-.17-1,2-.37.19,1Zm-46.66-1c-.67-.16-1.34-.32-2-.49l.25-1c.64.17,1.29.33,2,.48Zm52.66-.26-.24-1q1-.24,2-.51l.27,1C102.78,160.55,102.12,160.73,101.44,160.89Zm-58.57-1.4c-.67-.23-1.32-.46-1.93-.7l.36-.93c.6.23,1.23.46,1.89.68Zm64.46-.36-.34-.94c.65-.23,1.27-.47,1.87-.72l.38.92C108.63,158.64,108,158.89,107.33,159.13Zm-70.15-2c-.64-.35-1.24-.71-1.78-1.06l.55-.84a19.1,19.1,0,0,0,1.7,1Zm75.76-.54-.51-.86a15.09,15.09,0,0,0,1.64-1.1l.61.8A17.52,17.52,0,0,1,112.94,156.55Zm-80.65-3.38a6.16,6.16,0,0,1-.94-2l1-.24a4.94,4.94,0,0,0,.79,1.64Zm85.18-1-.91-.43A4.06,4.06,0,0,0,117,150l1-.12V150A5.12,5.12,0,0,1,117.47,152.18Zm-84.42-4.66-.82-.56a9.38,9.38,0,0,1,1.42-1.6l.67.74A9,9,0,0,0,33.05,147.52Zm82.39-.85a12.49,12.49,0,0,0-1.45-1.29l.6-.79a12.19,12.19,0,0,1,1.58,1.4Zm-77.87-2.8-.48-.88c.58-.31,1.2-.62,1.85-.91l.41.91C38.72,143.27,38.12,143.57,37.57,143.87Zm73-.52c-.58-.28-1.18-.55-1.83-.82l.39-.92c.66.27,1.28.55,1.88.84Zm-67.5-1.82-.32-.95c.63-.22,1.28-.42,1.95-.62l.29,1C44.35,141.11,43.71,141.32,43.09,141.53Zm61.89-.36c-.62-.2-1.26-.39-1.93-.57l.27-1c.67.19,1.33.38,2,.58Zm-56.07-1.28-.23-1,2-.44.2,1Zm50.22-.26c-.64-.14-1.3-.28-2-.41l.19-1,2,.41Zm-44.27-.91-.16-1,2-.3.14,1C56.18,138.51,55.51,138.62,54.86,138.72Zm38.31-.18-2-.28.13-1,2,.28Zm-32.3-.61-.1-1,2-.19.09,1Zm26.28-.12-2-.18.08-1,2,.17Zm-20.23-.37,0-1,2-.1,0,1Zm14.17-.06-2-.08,0-1,2,.08Zm-8.1-.14v-1h2v1H73Z"/><path class="c" d="M186.27,99.63c0-8.57-20.74-15.52-46.32-15.52-23.31,0-42.6,5.77-45.84,13.28l4.27-6.52-4-1.6A176,176,0,0,0,66,87.07C29.56,87.07,0,97.33,0,110c0,5.34,5.26,10.25,14.08,14.15,16.63-1.93,35.3-3.93,40-5.93-4.33,3.67-10.66,7.34-18,12.19a173.61,173.61,0,0,0,30,2.5c31.67,0,58.11-7.73,64.53-18,3,.21,6.17.32,9.39.32C165.53,115.16,186.27,108.2,186.27,99.63Z"/><path class="d" d="M186.27,93.92c0,8.58-20.74,15.53-46.32,15.53s-46.32-7-46.32-15.53S114.37,78.4,140,78.4,186.27,85.35,186.27,93.92Z"/><path class="d" d="M16.19,119.3l43.93-4.93L37.73,125A176,176,0,0,0,66,127.19c36.47,0,66-10.26,66-22.92S102.5,81.36,66,81.36,0,91.62,0,104.27C0,110,6.11,115.28,16.19,119.3Z"/><path class="e" d="M236.84,102.79c-41,0-74.29,11.86-74.29,26.48s33.26,26.47,74.29,26.47c18.59,0,35.59-2.44,48.62-6.46l7.17-2.49,5.4-2.51c8.25-4.27,13.09-9.44,13.09-15C311.12,114.65,277.86,102.79,236.84,102.79Z"/><path class="f" d="M292.88,140.54l5.15-2.86c8.25-4.26,13.09-9.44,13.09-15,0-14.62-33.26-26.47-74.28-26.47s-74.29,11.85-74.29,26.47,33.26,26.47,74.29,26.47c18.59,0,35.59-2.44,48.62-6.46Z"/><path class="g" d="M163.85,117.63c-2-4.73-1.85-30.49-1.75-31.47,1.23-11.84,1.59-20.65,0-33.3l4.86-.61c1.64,13.12,1.26,22.22,0,34.41-.16,2.38.06,25.92,1.39,29.07Z"/><path class="b" d="M200.74,54.39c11.11-4.26,19.55-11,20.6-14.69-4.72-2.45-11.1-3.53-17.93-3.51a24.94,24.94,0,0,0,4.92-18.84,78.07,78.07,0,0,0-16.31,3,32.68,32.68,0,0,0-.33-8.61,17.34,17.34,0,0,0-4.75,1.09,44.36,44.36,0,0,0-1.59-10.93c-3.22,1.51-10.64,3.81-16.54,10.71-2.09-2.84-4.25-4.8-5.76-5.38a42.94,42.94,0,0,0-4.54,6A77.58,77.58,0,0,0,144.18,0a51.45,51.45,0,0,0-2.9,12.44,44.91,44.91,0,0,0-7.51-4.36,41.2,41.2,0,0,0-1,14,57.08,57.08,0,0,0-19.77,1.1c2,5.05,4.43,10.66,8.47,15.67a67.51,67.51,0,0,0-19,3.16c3.24,5.89,10.22,11,18.81,14-7.76,4.24-12.1,10.13-13.64,14.15,7.26,1.77,18.15-.26,28.56-3.79,0,3.21.81,5.86,1.84,6.62,5-1.23,10.31-4.64,15-9.32,1.14,3,4.33,5.9,8.53,8.49,5.57-3,8.44-5.7,9.53-8,4.6,4.45,9.74,7.68,14.56,8.87.89-.65,1.61-2.69,1.8-5.28,11.55,3.25,23.5,3.23,33,.11C216.2,61.64,209.08,57.16,200.74,54.39Z"/><path class="h" d="M161.76,53.26c-9.26-1.93-34.94-15.06-28-45.18C152.3,16.39,167.94,41.29,161.76,53.26Z"/><path class="i" d="M191.69,11.75c-10.1.6-30.12,15.45-30.31,41.51C173,52.3,195.74,35.5,191.69,11.75Z"/><path class="j" d="M163.05,7.24c6.57,2.51,25.17,30.88-1.27,46C152.73,45.93,147.22,24.81,163.05,7.24Z"/><path class="k" d="M185.35,1.91c-6.56,3.09-30.53,9.38-23.57,51.31C196.17,36.47,185.35,1.91,185.35,1.91Z"/><path class="l" d="M163.05,53.22c2.55-6.79,15.36-28-18.87-53.22C131.21,36,163.05,53.22,163.05,53.22Z"/><path class="m" d="M113.05,23.14c5.5,13.71,13.8,31.59,50,30.08C159.1,42.45,152.14,14.84,113.05,23.14Z"/><path class="n" d="M208.33,17.35c-29.15,2.51-41.32,15.83-46,35.53C179.56,55.39,211.81,42.26,208.33,17.35Z"/><path class="o" d="M221.34,39.7c-2.19,7.55-36,28.53-59.74,12.82C167.28,39.62,204.6,31,221.34,39.7Z"/><path class="p" d="M102.48,42c7.86,14.27,37.64,24,59.12,10.55C148.37,40.53,125.22,34.74,102.48,42Z"/><path class="q" d="M161.6,72.15c-9.71-6-14-13.85,0-19.63C169.24,56.26,179.79,62.23,161.6,72.15Z"/><path class="r" d="M138.05,73C134.4,70.29,133.49,44,161.6,52.52,155.81,62.64,146.45,70.91,138.05,73Z"/><path class="s" d="M185.69,73c3.65-2.69,4.56-28.94-23.55-20.46C167.93,62.64,177.29,70.91,185.69,73Z"/><path class="t" d="M220.52,67.81c-17.29,5.66-42.59,1.13-58.92-14.63C182.69,47.76,210,52.72,220.52,67.81Z"/><path class="u" d="M107.65,70.15c3.3-8.61,19.47-25.82,54.49-17C151.89,61.82,122.33,73.72,107.65,70.15Z"/><path class="h" d="M161.76,53.26c-9.26-1.93-34.94-15.06-28-45.18C152.3,16.39,167.94,41.29,161.76,53.26Z"/><path class="i" d="M191.69,11.75c-10.1.6-30.12,15.45-30.31,41.51C173,52.3,195.74,35.5,191.69,11.75Z"/><path class="j" d="M163.05,7.24c6.57,2.51,25.17,30.88-1.27,46C152.73,45.93,147.22,24.81,163.05,7.24Z"/><path class="k" d="M185.35,1.91c-6.56,3.09-30.53,9.38-23.57,51.31C196.17,36.47,185.35,1.91,185.35,1.91Z"/><path class="l" d="M163.05,53.22c2.55-6.79,15.36-28-18.87-53.22C131.21,36,163.05,53.22,163.05,53.22Z"/><path class="m" d="M113.05,23.14c5.5,13.71,13.8,31.59,50,30.08C159.1,42.45,152.14,14.84,113.05,23.14Z"/><path class="n" d="M208.33,17.35c-29.15,2.51-41.32,15.83-46,35.53C179.56,55.39,211.81,42.26,208.33,17.35Z"/><path class="o" d="M221.34,39.7c-2.19,7.55-36,28.53-59.74,12.82C167.28,39.62,204.6,31,221.34,39.7Z"/><path class="p" d="M102.48,42c7.86,14.27,37.64,24,59.12,10.55C148.37,40.53,125.22,34.74,102.48,42Z"/><path class="q" d="M161.6,72.15c-9.71-6-14-13.85,0-19.63C169.24,56.26,179.79,62.23,161.6,72.15Z"/><path class="r" d="M138.05,73C134.4,70.29,133.49,44,161.6,52.52,155.81,62.64,146.45,70.91,138.05,73Z"/><path class="s" d="M185.69,73c3.65-2.69,4.56-28.94-23.55-20.46C167.93,62.64,177.29,70.91,185.69,73Z"/><path class="t" d="M220.52,67.81c-17.29,5.66-42.59,1.13-58.92-14.63C182.69,47.76,210,52.72,220.52,67.81Z"/><path class="u" d="M107.65,70.15c3.3-8.61,19.47-25.82,54.49-17C151.89,61.82,122.33,73.72,107.65,70.15Z"/><path class="v" d="M259.88,141.81c-25.5-2.78-32.5-7.64-35.5-9.95s-6.25-4.64-6.25-4.64c-5.5-.23-10,.7-19.5-.23-8.75-2.08-16.75-9.72-9.75-8.8,7,2.55,33,.47,33,.47l40,17.13Z"/><polygon class="w" points="303.6 160.94 294.81 160.94 295.81 153.53 304.6 153.53 303.6 160.94"/><polygon class="x" points="318.4 148.57 310.32 148.57 311.32 140.57 319.4 140.57 318.4 148.57"/><path class="b" d="M316.78,145.18h0q-1,0-2-.06l.06-1q.94.06,1.92.06Zm4-.25-.13-1c.66-.09,1.29-.19,1.89-.32l.21,1C322.1,144.73,321.43,144.84,320.75,144.93Zm-9.91-.33a16.27,16.27,0,0,1-1.94-.54l.33-.94a14.83,14.83,0,0,0,1.82.5Zm15.7-1.43-.56-.84c.4-.26.86-.66.86-1.11l1-.08v.08A2.44,2.44,0,0,1,326.54,143.17Zm-20.84-1.93v0a2.4,2.4,0,0,1,1.28-1.93l.56.83c-.38.26-.84.66-.84,1.1Zm18.59-1.92a14.53,14.53,0,0,0-1.83-.5l.22-1a16.87,16.87,0,0,1,1.94.53ZM311,138.83l-.22-1c.61-.13,1.28-.25,2-.34l.13,1C312.23,138.59,311.6,138.7,311,138.83Zm7.64-.51q-.92-.06-1.89-.06l0-1h0q1,0,2,.06Z"/><path class="y" d="M250.89,94.18c2.72-3.08,6.81-13.6-3.79-13.6-3.63,4.35-4.39,13.32-4.39,13.32Z"/><path class="z" d="M219.55,122.65c-6.51,2.24-15.44,2.52-22,1.82s-16.2-4.63-12.11-16.83c0,0,3.18-10.09,9.69-7.71s.61,5-.61,8.27-2.42,10,3.94,10,12.26,0,15-2.38S219.55,122.65,219.55,122.65Z"/><path class="aa" d="M219.55,122.65c-1.36,2-10.59-5.89-5.45-7.43S219.55,122.65,219.55,122.65Z"/><path class="ab" d="M194.73,112.83c-2.88-.14-4.39-.84-4.7-4.48s.15-8.56,3.18-8.84S194.73,112.83,194.73,112.83Z"/><path class="ac" d="M288.38,119.8c9.29,0,18.1-.6,21.4,10.09a44.58,44.58,0,0,1,1.61,10.85,23.66,23.66,0,0,0,8.08,0c.8-9.35-2-19.82-7.27-24.31a25.64,25.64,0,0,0-22.61-5.61C290,111.94,288.38,119.8,288.38,119.8Z"/><path class="ad" d="M292.52,115.5c-1,3.23-3.9,6.08-6.64,5.38s-4.18-3.88-3.23-7.12,4-5.29,6.7-4.59S293.48,112.26,292.52,115.5Z"/><path class="ae" d="M210.87,113.81c11.71,15.71,17,18.7,27,23.19s31.49,14.95,49.25-11.59S265.78,82,254.07,93.25c-3.63.37-6.46-1.87-10.09.37S210.87,113.81,210.87,113.81Z"/><path class="af" d="M281.12,117.93c6.93-6.23,7.16-13,5.7-18.24-8.47-9.73-25.65-13.24-32.75-6.44l-.52,0c-6.25,6.54-8.44,16.06-7.15,22,1.61,7.48,4,11.59,8.48,13.09S267.39,130.27,281.12,117.93Z"/><path class="ad" d="M287.07,130.36c0,2.48-3,4.49-6.66,4.49s-6.66-2.94-6.66-5.42,3-3.56,6.66-3.56S287.07,127.88,287.07,130.36Z"/><path class="ag" d="M283.13,136.62c-8.56-3.64-11.7-10.09-2.42-9.72,6.06.25,10.09,3,14.54,6,0,0,9.28,7.11,9.28,21.32-2.83,1.12-8.88.37-8.88.37C294.44,147.47,292.82,140.73,283.13,136.62Z"/><path class="ab" d="M245.29,89.75c1.06,3.93,1.21,11.22-4.24,15.29s-10.67,7.6-18.62,9.53c-4.26,1-10.45,2.81-14.38-2.24S245.29,89.75,245.29,89.75Z"/><path class="ah" d="M194.32,95.49c-2.82,5.24-9.69,21.32,11.71,20.57s34.72-10.1,37.54-17.58S248.42,82,246.4,74.93C241.55,57.73,200,85.4,194.32,95.49Z"/><path class="ad" d="M212.59,94.75c4.84,1.4,14.83-.57,23-7.3s13-10.93,10-14.86S212.59,94.75,212.59,94.75Z"/><path class="ai" d="M190.69,98.48c-7.67-3-.4-24.67,30.68-31.4,8.71-1.89,16-.64,20.18-.38,10.78.68,7.15,4.61,4.85,8.23-4,6.36-18.2,17.53-29.47,20.56C204.42,98.86,190.69,98.48,190.69,98.48Z"/><path class="aj" d="M190.79,84a9.6,9.6,0,0,0,6.81,8c3,.84,9.69,1.12,11.81-2.94,2.37-4.56,2.12-5.47,2.12-5.47,2.72.56,7.72-.14,10.29-3.23a9.37,9.37,0,0,0,2.27-7.85c-.15-2-1.05-5-2.72-5.37S190.79,84,190.79,84Z"/><path class="ae" d="M207.64,80.91c-6-3.16-11.7-18.13-1.61-20s14.53,3.55,16.55,7.29S221.77,88.39,207.64,80.91Z"/><path class="ak" d="M199.87,69.51c4.54-.84,13.32,2.8,11.51,11.78C210.11,87.57,199.87,69.51,199.87,69.51Z"/><path class="al" d="M195.13,89.51c-6-3.16-11.71-18.69-1.61-20.56s14.53,4.11,16.55,7.85S209.26,97,195.13,89.51Z"/><path class="b" d="M223,69.43c-4.71,1.8-13.22,7.87-15.35,11.48C220.55,87.74,224,74.61,223,69.43Z"/><path class="am" d="M196.11,90c11.84,5.54,15.23-6.38,14.43-11.63C206.73,79.81,199.21,87,196.11,90Z"/><path class="an" d="M207.59,82a2.22,2.22,0,0,0,2.27-2.18,2,2,0,0,0-.27-1,26.83,26.83,0,0,0-3.68,2.45A2.32,2.32,0,0,0,207.59,82Z"/><path class="an" d="M220,72.87a2.22,2.22,0,0,0,2.27-2.17,2.19,2.19,0,0,0-.2-.89,35,35,0,0,0-3.94,2.13A2.31,2.31,0,0,0,220,72.87Z"/></g></svg>