<svg xmlns="http://www.w3.org/2000/svg" xmlns:xlink="http://www.w3.org/1999/xlink" viewBox="0 0 463.76 168.72"><defs><style>.a{fill:url(#a);}.b{isolation:isolate;}.c{fill:#fff;}.d{mask:url(#b);}.e{opacity:0.49;}.f{fill:#e7e1db;}.g{fill:#f9f2eb;}.h{opacity:0.33;fill:url(#c);}.i{fill:url(#d);}.j{fill:#69843d;}.j,.k,.l,.n,.o,.p{mix-blend-mode:multiply;}.k{fill:#839942;}.l{fill:#68873f;}.m{fill:#7e7d38;}.n{fill:url(#e);}.o{fill:url(#f);}.p{fill:url(#g);}.q,.r,.s,.t{mix-blend-mode:darken;}.q{fill:url(#h);}.r{fill:url(#i);}.s{fill:url(#j);}.t{fill:url(#k);}</style><linearGradient id="a" x1="339.91" y1="79.15" x2="351.72" y2="138.87" gradientTransform="translate(-7.26 -22.09) rotate(-0.22)" gradientUnits="userSpaceOnUse"><stop offset="0" stop-color="#fff"/><stop offset="1"/></linearGradient><mask id="b" x="215.09" y="46.85" width="265.54" height="165.49" maskUnits="userSpaceOnUse"><polygon class="a" points="480.63 211.33 215.63 212.34 215.09 95.85 333.09 95.85 480.09 46.85 480.63 211.33"/></mask><linearGradient id="c" x1="-385.87" y1="-1113.98" x2="-385.87" y2="-1126.48" gradientTransform="matrix(0, 0.9, -1, 0, -1078.76, 430.03)" gradientUnits="userSpaceOnUse"><stop offset="0" stop-color="#90aa5b" stop-opacity="0"/><stop offset="1" stop-color="#90aa5b"/></linearGradient><linearGradient id="d" x1="95.74" y1="89.59" x2="95.74" y2="55.76" gradientUnits="userSpaceOnUse"><stop offset="0" stop-color="#fff" stop-opacity="0"/><stop offset="1" stop-color="#fff"/></linearGradient><linearGradient id="e" x1="-2495.77" y1="-218.01" x2="-2473.26" y2="-218.01" gradientTransform="matrix(-1, -0.08, -0.08, 1, -2462.02, 66.59)" gradientUnits="userSpaceOnUse"><stop offset="0" stop-color="#fceaed"/><stop offset="1" stop-color="#f7c6ce"/></linearGradient><linearGradient id="f" x1="-2493.61" y1="-215.76" x2="-2474.38" y2="-215.76" xlink:href="#e"/><linearGradient id="g" x1="-2495.47" y1="-216.73" x2="-2478.85" y2="-216.73" xlink:href="#e"/><linearGradient id="h" x1="-2495.67" y1="-213.61" x2="-2484.14" y2="-213.61" gradientTransform="matrix(-1, -0.08, -0.08, 1, -2462.02, 66.59)" gradientUnits="userSpaceOnUse"><stop offset="0" stop-color="#9fa938"/><stop offset="1" stop-color="#788b39"/></linearGradient><linearGradient id="i" x1="-2492.47" y1="-209.85" x2="-2472.78" y2="-209.85" xlink:href="#h"/><linearGradient id="j" x1="-2493.63" y1="-209.51" x2="-2481.46" y2="-209.51" xlink:href="#h"/><linearGradient id="k" x1="-2495.85" y1="-213.33" x2="-2477.42" y2="-213.33" xlink:href="#h"/></defs><g class="b"><path class="c" d="M414,99.35l0-1h2v1Zm-4.08,0-2-.07.05-1,2,.07ZM420,99.23l0-1,2-.1.06,1ZM403.82,99l-2-.16.08-1,2,.16Zm22.26-.16-.09-1,2-.19.1,1C427.43,98.72,426.76,98.79,426.08,98.84Zm-28.31-.41-2-.25.14-1,2,.25Zm34.35-.24-.13-1,2-.29.15,1Zm-40.37-.62c-.68-.11-1.34-.23-2-.36l.19-1,2,.35Zm46.38-.35-.19-1c.67-.13,1.33-.26,2-.4l.21,1Zm-52.35-.86c-.67-.15-1.33-.32-2-.49l.25-1,1.95.48Zm58.29-.47-.25-1c.66-.17,1.3-.35,1.93-.53l.28,1ZM379.9,94.74,378,94.08l.34-.94c.61.22,1.24.44,1.89.65Zm70-.64-.34-.94c.65-.23,1.27-.47,1.87-.72l.38.93C451.19,93.62,450.56,93.86,449.9,94.1Zm-75.7-1.56c-.64-.3-1.25-.6-1.83-.91l.47-.88c.56.3,1.16.59,1.78.88Zm81.32-.88-.47-.89c.6-.32,1.18-.65,1.72-1l.53.84C456.74,91,456.14,91.32,455.52,91.66Zm-86.63-2.23a15.36,15.36,0,0,1-1.57-1.36l.7-.71a14.61,14.61,0,0,0,1.48,1.27Zm91.68-1.32-.7-.71a10.23,10.23,0,0,0,1.25-1.46l.82.58A11.51,11.51,0,0,1,460.57,88.11ZM365,84.57a6.34,6.34,0,0,1-.38-2.13v-.13l1,0v.1a5.43,5.43,0,0,0,.32,1.8Zm97.37-2.07v-.06a5.37,5.37,0,0,0-.3-1.75l.95-.33a6.53,6.53,0,0,1,.35,2.08Zm-95.5-3.6-.81-.59a11.64,11.64,0,0,1,1.38-1.58l.69.71A11.82,11.82,0,0,0,366.84,78.9ZM460,77.56a15.88,15.88,0,0,0-1.47-1.28l.61-.79a15.36,15.36,0,0,1,1.57,1.36Zm-88.73-2.49-.53-.85c.56-.35,1.16-.69,1.78-1l.47.88C372.33,74.4,371.75,74.73,371.22,75.07Zm83.93-.91c-.57-.3-1.16-.59-1.79-.88l.42-.91c.64.3,1.26.6,1.84.91Zm-78.59-1.74-.38-.93c.62-.25,1.25-.49,1.91-.73l.33.95C377.78,71.94,377.16,72.17,376.56,72.42Zm73.11-.66c-.61-.22-1.24-.44-1.89-.65l.3-1,1.93.66Zm-67.43-1.28-.28-1c.64-.19,1.29-.37,2-.54l.25,1C383.51,70.12,382.87,70.3,382.24,70.48ZM443.93,70,442,69.5l.23-1c.67.16,1.33.32,2,.49Zm-55.85-1-.21-1,2-.4.19,1Zm50-.36c-.65-.13-1.3-.25-2-.36l.17-1,2,.36ZM394,68l-.15-1,2-.28.13,1Zm38.09-.26-2-.25.12-1,2,.25ZM400,67.21l-.1-1,2-.19.09,1C401.32,67.08,400.66,67.15,400,67.21ZM426.11,67l-2-.16.07-1c.68,0,1.36.1,2,.16ZM406,66.75l-.06-1,2-.1,0,1Zm14.08-.09-2-.07,0-1,2,.07Zm-8-.12v-1H414l.08,1h-2Z"/><path class="c" d="M405.15,93.23v-1c.67,0,1.33,0,2,0l0,1C406.5,93.21,405.83,93.23,405.15,93.23Zm-4,0-2-.07,0-1,2,.07ZM411.18,93l-.07-1,2-.16.09,1C412.53,92.88,411.86,92.94,411.18,93ZM395.1,92.9c-.68-.05-1.34-.11-2-.18l.1-1,2,.18Zm22.09-.52-.13-1,2-.29.16,1Zm-28.09-.15-2-.31.17-1,2,.31Zm34-.87-.21-1,1.94-.44.24,1C424.48,91.07,423.82,91.22,423.15,91.36Zm-40-.23c-.67-.15-1.32-.31-2-.48l.26-1c.62.17,1.26.33,1.93.48ZM429,89.82l-.31-.95c.65-.21,1.27-.43,1.87-.65l.35.93C430.31,89.38,429.67,89.6,429,89.82Zm-51.69-.34c-.66-.23-1.29-.47-1.9-.71l.38-.93c.59.24,1.21.47,1.85.7Zm57.32-2-.47-.88c.61-.32,1.17-.65,1.69-1l.55.83A19.66,19.66,0,0,1,434.64,87.5ZM371.76,87a17.49,17.49,0,0,1-1.71-1.14l.6-.8a16.87,16.87,0,0,0,1.62,1.08Zm67.71-3.33-.82-.58a5,5,0,0,0,.78-1.63l1,.25A6,6,0,0,1,439.47,83.65Zm-72.18-1a5,5,0,0,1-.49-2.14v-.11l1,0v.08a3.92,3.92,0,0,0,.4,1.71Zm71.42-4.6a8.81,8.81,0,0,0-1.25-1.4l.67-.74a9.18,9.18,0,0,1,1.4,1.58Zm-69.41-.84-.73-.68a12,12,0,0,1,1.56-1.38l.6.8A11.35,11.35,0,0,0,369.3,77.23Zm65-2.74c-.55-.29-1.14-.58-1.77-.86l.41-.92c.64.29,1.26.59,1.83.9ZM374.09,74l-.44-.9c.59-.28,1.21-.56,1.87-.82l.37.93C375.26,73.44,374.66,73.71,374.09,74Zm54.71-1.75c-.62-.2-1.25-.39-1.9-.58l.27-1c.67.19,1.31.38,1.94.59Zm-49.17-.34-.29-1q.95-.29,2-.54l.25,1C380.89,71.53,380.25,71.7,379.63,71.89ZM423,70.71q-1-.21-2-.39l.18-1,2,.4Zm-37.62-.23-.2-1,2-.37.16,1Q386.38,70.29,385.42,70.48Zm31.74-.79q-1-.14-2-.24l.11-1,2,.25Zm-25.85-.14-.11-1,2-.22.09,1C392.63,69.39,392,69.47,391.31,69.55Zm19.9-.47-2-.12.06-1,2,.13ZM397.27,69l-.06-1,2-.1,0,1Zm8-.18h-2v-1h2Z"/><path class="c" d="M163.65,52.28h0c-.67,0-1.34,0-2,0l0-1c.64,0,1.29,0,1.95,0Zm4-.15-.07-1q1-.08,1.95-.18l.12,1C169,52,168.33,52.08,167.65,52.13Zm-10-.19c-.69-.07-1.35-.17-2-.27l.17-1c.62.1,1.27.19,1.94.27Zm16-.66-.22-1c.67-.16,1.3-.32,1.88-.5l.29.95C175,51,174.3,51.12,173.61,51.28Zm-21.87-.51a16,16,0,0,1-1.91-.71l.41-.91a15.26,15.26,0,0,0,1.8.67ZM179.29,49l-.63-.77a1.74,1.74,0,0,0,.78-1.26l1-.08v.08A2.65,2.65,0,0,1,179.29,49ZM147,47h-.11a2.64,2.64,0,0,1,1.12-2l.64.77a1.71,1.71,0,0,0-.76,1.24ZM177,44.73a16.16,16.16,0,0,0-1.81-.67l.3-1a16.08,16.08,0,0,1,1.91.7Zm-25-.64-.29-1c.6-.18,1.25-.36,1.95-.52l.22,1C153.19,43.74,152.56,43.91,152,44.09Zm19.44-.89q-.94-.15-1.95-.27l.12-1c.69.08,1.35.17,2,.27Zm-13.7-.26-.12-1c.65-.08,1.32-.14,2-.19l.07,1C159,42.8,158.35,42.87,157.72,42.94Zm7.84-.3q-.94,0-1.92,0l0-1h0q1,0,2,0Z"/><path class="c" d="M174.22,46.24h0c-.7,0-1.41,0-2.11-.07l.07-1c.67,0,1.36.07,2,.07Zm4.24-.29-.14-1c.71-.1,1.39-.23,2-.38l.23,1C179.91,45.71,179.2,45.84,178.46,46Zm-10.58-.39a17.47,17.47,0,0,1-2.06-.62l.36-.94a15.29,15.29,0,0,0,1.93.59Zm16.71-1.66-.59-.8a1.85,1.85,0,0,0,.88-1.29l1-.08v.11A2.61,2.61,0,0,1,184.59,43.9Zm-22.05-2.07v0a2.66,2.66,0,0,1,1.27-2.08l.6.8a1.84,1.84,0,0,0-.87,1.28Zm19.68-2.22a13.59,13.59,0,0,0-1.94-.58l.23-1a17.66,17.66,0,0,1,2.07.62ZM168.07,39l-.23-1a20.46,20.46,0,0,1,2.09-.39l.15,1C169.37,38.77,168.7,38.89,168.07,39Zm8.16-.59c-.66-.05-1.34-.07-2-.07l0-1h0c.71,0,1.41,0,2.09.07Z"/><g class="d"><g class="e"><polygon class="f" points="235.84 156.39 355.38 126.24 461.67 112.26 386.05 79.78 271.2 103.37 235.84 156.39"/><polygon class="g" points="291.12 112.74 345.91 168.72 389.28 95.11 327.91 87.63 291.12 112.74"/><path class="f" d="M345.91,168.72c-9.15-18.4-19.63-60.46-16.63-77C338.43,110.11,345.91,168.72,345.91,168.72Z"/><polygon class="g" points="235.84 156.39 326.01 102.76 463.76 111.99 406.63 64.39 319.65 72.94 252.98 100.59 235.84 156.39"/></g></g><path class="c" d="M316.54,111.39h0q-1,0-2,0l0-1q1,0,1.95,0l.12,0-.1.43Zm4-.14-.08-1c.67,0,1.32-.11,2-.19l.11,1C321.88,111.13,321.22,111.2,320.54,111.25Zm-10-.19c-.68-.08-1.34-.17-2-.28l.16-1c.62.1,1.27.19,1.94.27Zm15.95-.66-.22-1c.67-.15,1.3-.32,1.88-.5l.3,1C327.84,110.07,327.18,110.24,326.49,110.4Zm-21.86-.51a18.19,18.19,0,0,1-1.92-.71l.41-.91a16,16,0,0,0,1.8.66Zm27.54-1.8-.63-.77a1.76,1.76,0,0,0,.79-1.26l1-.08v0A2.62,2.62,0,0,1,332.17,108.09Zm-32.45-2v0a2.65,2.65,0,0,1,1.13-2l.63.77a1.74,1.74,0,0,0-.76,1.24Zm30.18-2.25a16.78,16.78,0,0,0-1.8-.66l.29-1a18.19,18.19,0,0,1,1.92.71Zm-25-.64-.3-1c.6-.19,1.26-.36,1.95-.52l.22,1C306.07,102.86,305.44,103,304.87,103.2Zm19.43-.88c-.62-.1-1.27-.19-1.94-.27l.11-1c.69.08,1.35.18,2,.28Zm-13.7-.26-.11-1c.64-.08,1.31-.14,2-.2l.07,1C311.89,101.92,311.23,102,310.6,102.06Zm7.84-.3q-.94,0-1.92,0l0-1h0c.66,0,1.32,0,2,0Z"/><path class="c" d="M327.11,105.35h0c-.7,0-1.41,0-2.1-.07l.06-1c.67,0,1.36.06,2,.06Zm4.24-.29-.14-1c.7-.1,1.38-.23,2-.37l.23,1A20.46,20.46,0,0,1,331.35,105.06Zm-10.58-.38a15.89,15.89,0,0,1-2.07-.63l.36-.93a15.52,15.52,0,0,0,1.94.58Zm16.7-1.66-.59-.81a1.83,1.83,0,0,0,.88-1.28l1-.08v0A2.63,2.63,0,0,1,337.47,103ZM315.42,101v0a2.62,2.62,0,0,1,1.27-2.08l.6.8a1.8,1.8,0,0,0-.87,1.28Zm19.69-2.23a16,16,0,0,0-1.94-.58l.22-1a14.51,14.51,0,0,1,2.07.62ZM321,98.16l-.23-1c.66-.16,1.36-.29,2.1-.4l.14,1C322.25,97.88,321.58,98,321,98.16Zm8.16-.6c-.65,0-1.33-.06-2-.06l0-1h0c.71,0,1.41,0,2.09.07Z"/><polygon class="f" points="215.61 54.95 337.31 35.24 440.43 5.96 383.87 65.74 269.08 89.61 215.61 54.95"/><polygon class="g" points="283.66 73.11 311.77 0 380.76 50.39 327.39 81.59 283.66 73.11"/><path class="f" d="M311.77,0c-1.11,20.52,6,63.29,15.26,77.3C328.14,56.78,311.77,0,311.77,0Z"/><polygon class="f" points="215.61 54.95 317.64 65.45 442.46 5.37 408.87 71.71 325.63 98.35 253.46 99.39 215.61 54.95"/><polygon class="g" points="215.61 55.95 319.64 69.45 442.46 6.37 408.87 72.71 325.63 99.35 253.46 100.39 215.61 55.95"/><rect class="h" x="35.22" y="83.02" width="12.5" height="2.24" transform="translate(-50.91 100.42) rotate(-73.76)"/><path class="i" d="M69.39,74.25A5.6,5.6,0,0,0,68,77.81c0,6.5,13.93,11.78,31.11,11.78,2.51,0,5-.12,7.29-.33L99.06,77.81,109.7,88.88c11.94-1.64,20.47-6,20.47-11.07,0-1.76-1-3.43-2.86-4.94,7.65-.92,13.13-3.36,13.13-6.24,0-3.67-8.93-6.64-19.94-6.64-10.41,0-18.94,2.66-19.84,6.05H98a4.06,4.06,0,0,0,.11-.92c0-5.17-10.54-9.36-23.56-9.36a53.45,53.45,0,0,0-10.76,1l8.35,7.42-20-2A4.57,4.57,0,0,0,51,65.12C51,69.58,58.89,73.31,69.39,74.25Z"/><path class="c" d="M41.69,89.5v-1c.66,0,1.32,0,2,0l0,1C43,89.49,42.36,89.5,41.69,89.5Zm-4,0c-.67,0-1.33,0-2-.06l0-1c.65,0,1.31,0,2,.06Zm9.93-.16-.06-1c.66,0,1.32-.08,2-.12l.07,1Zm-15.89-.12-2-.16.09-1,2,.16Zm21.83-.37-.11-1,2-.23.13,1Zm-27.76-.23c-.67-.08-1.33-.17-2-.27l.14-1q1,.15,1.95.27ZM59.5,88l-.17-1c.66-.11,1.31-.22,1.94-.35l.19,1C60.82,87.77,60.17,87.89,59.5,88Zm-39.57-.35L18,87.25l.22-1,1.92.4Zm45.42-.87-.24-1c.65-.16,1.28-.33,1.9-.5l.27,1C66.65,86.45,66,86.62,65.35,86.78Zm-51.24-.5c-.65-.18-1.29-.38-1.91-.57l.31-1c.6.2,1.23.39,1.87.57Zm57-1.24-.34-.94c.63-.23,1.23-.47,1.81-.72l.4.92C72.35,84.55,71.73,84.8,71.08,85ZM8.45,84.32c-.64-.27-1.25-.56-1.83-.85l.45-.89c.56.28,1.15.55,1.77.82Zm68.08-1.85L76,81.62a15.89,15.89,0,0,0,1.57-1.1l.62.78A15.23,15.23,0,0,1,76.53,82.47ZM3.18,81.34a11.5,11.5,0,0,1-1.51-1.41l.75-.66A10.8,10.8,0,0,0,3.8,80.55Zm77.69-3.21L80,77.71A4.14,4.14,0,0,0,80.34,76l1-.11v0A5.2,5.2,0,0,1,80.87,78.13ZM0,76.07v0A5,5,0,0,1,.45,74l.92.4A4,4,0,0,0,1,76Zm78.89-3.33a9.53,9.53,0,0,0-1.38-1.28l.61-.79a11.52,11.52,0,0,1,1.52,1.4ZM3.73,71.54l-.63-.78a18,18,0,0,1,1.67-1.17l.53.85A15.89,15.89,0,0,0,3.73,71.54Zm70.5-2.11c-.56-.27-1.15-.55-1.77-.81l.39-.92q1,.4,1.83.84ZM8.75,68.68l-.4-.92c.6-.26,1.22-.5,1.87-.75l.34.94C9.93,68.19,9.33,68.43,8.75,68.68Zm60-1.41c-.61-.2-1.23-.39-1.88-.57l.27-1,1.92.57Zm-54.5-.53-.27-1c.62-.18,1.27-.35,1.93-.52l.24,1C15.54,66.4,14.91,66.57,14.29,66.74Zm48.81-1c-.63-.13-1.27-.27-1.93-.39l.19-1c.67.13,1.32.27,2,.41ZM20,65.38l-.2-1,2-.36L22,65Zm37.26-.68q-1-.15-1.95-.27l.13-1,2,.28Zm-31.43-.25-.13-1,2-.23.11,1C27.15,64.29,26.5,64.36,25.86,64.45ZM51.43,64l-2-.16.07-1,2,.17Zm-19.69-.15-.08-1c.66,0,1.32-.1,2-.13l.05,1Zm13.79-.23-2-.06,0-1,2,.06Zm-7.89,0,0-1,2,0v1Z"/><path class="c" d="M50.17,84.67v-1l2,0,0,1Zm-4,0-2-.09.06-1c.65,0,1.32.06,2,.09Zm10.09-.23-.08-1,2-.18.1,1Q57.24,84.33,56.22,84.4Zm-16.14-.18c-.68-.07-1.35-.14-2-.23l.12-1c.65.09,1.31.16,2,.23Zm22.16-.52-.16-1,2-.34.19,1C63.59,83.48,62.92,83.6,62.24,83.7Zm-28.16-.33c-.68-.13-1.34-.27-2-.41l.22-1q.94.21,1.95.39Zm34.11-.9-.26-1c.66-.18,1.3-.36,1.91-.55l.3,1C69.52,82.11,68.87,82.29,68.19,82.47Zm-40-.55q-1-.32-1.92-.66l.35-.93c.59.22,1.22.43,1.87.64ZM74,80.45l-.42-.9c.63-.3,1.21-.61,1.73-.92l.51.86A19.15,19.15,0,0,1,74,80.45Zm-51.42-.94a13,13,0,0,1-1.7-1.21l.65-.76a12,12,0,0,0,1.57,1.11Zm56.36-2.85L78,76.13a3.14,3.14,0,0,0,.49-1.62l1-.1v0A4.1,4.1,0,0,1,78.89,76.66Zm-60-2.12h-.17a4.08,4.08,0,0,1,.62-2.14l.86.51a3.09,3.09,0,0,0-.48,1.6Zm57.85-3.09a11.33,11.33,0,0,0-1.57-1.11l.51-.85a12.49,12.49,0,0,1,1.71,1.2ZM23,70.4l-.52-.85a18,18,0,0,1,1.82-1l.42.9A19.37,19.37,0,0,0,23,70.4Zm48.65-1.72c-.59-.22-1.22-.44-1.87-.64l.29-1c.68.21,1.32.43,1.93.66ZM28.4,68.07l-.31-.95c.63-.2,1.28-.39,2-.57l.25,1C29.64,67.69,29,67.88,28.4,68.07Zm37.53-1-2-.4.19-1c.68.13,1.34.26,2,.41Zm-31.75-.38-.18-1c.65-.12,1.31-.24,2-.34l.16,1ZM60,66l-2-.23.1-1c.68.07,1.35.14,2,.23Zm-19.92-.22-.11-1c.67-.07,1.33-.13,2-.18l.08,1Zm14-.32-2-.08,0-1,2,.08Zm-8-.08,0-1,2,0v1Z"/><path class="j" d="M99.57,63.63c0,3.67,8.92,6.65,19.93,6.65s19.94-3,19.94-6.65S130.51,57,119.5,57,99.57,60,99.57,63.63Z"/><path class="k" d="M98.06,63C80.88,63,67,68.3,67,74.81S80.88,86.59,98.06,86.59c2.51,0,5-.12,7.29-.33L98.06,74.81,108.7,85.88c11.94-1.64,20.47-6,20.47-11.07C129.17,68.3,115.24,63,98.06,63Z"/><path class="l" d="M73.59,52.76a53.45,53.45,0,0,0-10.76,1l8.35,7.42-20-2A4.57,4.57,0,0,0,50,62.12c0,5.17,10.55,9.37,23.56,9.37s23.56-4.2,23.56-9.37S86.61,52.76,73.59,52.76Z"/><path class="c" d="M39.37,52.88l.13-.13a6.73,6.73,0,0,0,3-6.48C43.78,39.42,40,29.53,24.74,21.89a45.28,45.28,0,0,0-4,15.75c-2,5.51.07,10.39,3.48,13.66a9.6,9.6,0,0,0,2.73,2.12c.42.26.84.49,1.26.71a6.08,6.08,0,0,0,4.21,1.37,8.08,8.08,0,0,0,4.4-.48,3.6,3.6,0,0,0,1.7-1.37A3.59,3.59,0,0,0,39.37,52.88Z"/><path class="m" d="M44.22,78.61H41.85c0-6.63-2.45-15-6.73-23.1l2.09-1.11C41.67,62.78,44.22,71.61,44.22,78.61Z"/><path class="n" d="M35.83,54.24c8.28-1.64,13.61-20-11.09-32.35C17.82,37,18.47,57.66,35.83,54.24Z"/><path class="o" d="M35.83,54.24C45.57,52.39,38,36.17,23.28,26.33,20.81,39.22,19.42,57.34,35.83,54.24Z"/><path class="p" d="M35.66,54.3c-8.58,5.3-12.35-12.42-6.9-30.1C38.3,32.41,50.12,45.39,35.66,54.3Z"/><path class="q" d="M36.85,54.51c7-2.47,9.43-18.1-3.11-23C30.41,39.16,29,57.28,36.85,54.51Z"/><path class="r" d="M36.77,55C30,58,16.12,48.94,20.88,37.11,29.18,40.13,44.32,51.65,36.77,55Z"/><path class="s" d="M38.18,53.82c5-2.55-.44-10.93-8.36-15.3C27.24,47.44,26.06,60,38.18,53.82Z"/><path class="t" d="M35.56,54.81c12.11-4.48,8.14-15-8.52-24.23C22.41,41.32,23.58,59.24,35.56,54.81Z"/></g></svg>