<svg xmlns="http://www.w3.org/2000/svg" xmlns:xlink="http://www.w3.org/1999/xlink" viewBox="0 0 606.84 130.61"><defs><style>.a,.e{fill:none;stroke:#907839;stroke-linecap:round;stroke-linejoin:round;}.a{stroke-width:1.49px;}.b{fill:#b09140;}.c{fill:#e7c465;}.d{fill:#ffdb7c;}.e{stroke-width:1px;}.f{fill:#907839;}.g{fill:#d88d37;}.h{fill:#efefef;}.i{opacity:0.5;fill:url(#a);}</style><linearGradient id="a" x1="7.4" y1="111.46" x2="59.4" y2="111.46" gradientUnits="userSpaceOnUse"><stop offset="0" stop-color="#79a5b2" stop-opacity="0"/><stop offset="0.01" stop-color="#79a5b2" stop-opacity="0.02"/><stop offset="0.2" stop-color="#79a5b2" stop-opacity="0.32"/><stop offset="0.38" stop-color="#79a5b2" stop-opacity="0.56"/><stop offset="0.56" stop-color="#79a5b2" stop-opacity="0.75"/><stop offset="0.72" stop-color="#79a5b2" stop-opacity="0.89"/><stop offset="0.87" stop-color="#79a5b2" stop-opacity="0.97"/><stop offset="1" stop-color="#79a5b2"/></linearGradient></defs><polyline class="a" points="20.71 67.48 17.56 70.97 20.71 75.28"/><path class="b" d="M25.73,19.72C25,28.55,24.55,36,32,45.11c6.6,8.09,17.8,10.83,23.16,6,9.74-8.84,3.36-18.18-2.74-19.67-3.87-1-10,.25-17.55-3.11A17.69,17.69,0,0,1,25.73,19.72Z"/><path class="c" d="M0,42c1.12,7.47,13.69,28.51,30.38,31.25S54.9,68.93,63.61,57.23s9.59-27,.75-32-18.17-.75-20.17.12S26.89,35.69,21.91,40.05,7.47,46.9,0,42Z"/><path class="d" d="M63.61,57.23C58.45,64.16,53.6,69.47,47,72.09,44.75,64,46.41,59.4,50.09,52c3.46-6.92,12.25-8.19,19.82-8.34A36,36,0,0,1,63.61,57.23Z"/><path class="e" d="M62.12,30c-.75,3.48-4.23,3.61-5.85,1"/><line class="e" x1="62.99" y1="33.2" x2="61.62" y2="31.77"/><line class="e" x1="60.38" y1="34.7" x2="60.07" y2="32.89"/><line class="e" x1="57.33" y1="34.57" x2="58.26" y2="32.83"/><line class="e" x1="55.21" y1="33.14" x2="56.58" y2="31.9"/><path class="f" d="M15.44,22.37c-.75,8.84-1.18,16.32,6.22,25.4,6.6,8.09,17.8,10.83,23.16,6,9.74-8.83,3.36-18.17-2.74-19.67-3.87-.94-10,.25-17.56-3.11A17.66,17.66,0,0,1,15.44,22.37Z"/><polygon class="g" points="76.48 29.97 68.35 29.8 70.17 34.45 76.48 29.97"/><polyline class="a" points="18.55 65.65 14.4 68.14 14.4 72.96"/><path class="h" d="M468.27.19c115.92-2,138.08,10.71,138.57,76,.38,50.2-77.36,56.74-232.57,53.21-91.45-2.07-262.42,20.92-266.82-68.16C103.5-18.58,217.22,4.48,468.27.19Z"/><path class="h" d="M85.26,30.61c18,11.46,24.76,9.4,36.15,6.27,5,10.95,1.9,8,1.9,8S103.88,52.85,85.26,30.61Z"/><ellipse class="i" cx="33.4" cy="111.46" rx="26" ry="2.5"/></svg>