<svg xmlns="http://www.w3.org/2000/svg" xmlns:xlink="http://www.w3.org/1999/xlink" viewBox="0 0 1020 282"><defs><style>.a{fill:url(#a);}.b{isolation:isolate;}.c{fill:#b0c26f;}.d{fill:#b4e0e9;}.ad,.e,.f,.g,.h,.i,.n,.o,.s,.x,.y{fill:none;stroke-miterlimit:10;}.e,.f,.g,.h,.i,.n,.o,.s,.x,.y{stroke:#fff;}.e{stroke-dasharray:2.03 4.07;}.f{stroke-dasharray:2.02 4.04;}.g{stroke-dasharray:2 4;}.h{stroke-dasharray:1.98 3.96;}.i{stroke-dasharray:2.09 4.18;}.j{mask:url(#b);}.k{opacity:0.49;}.l{fill:#e7e1db;}.m{fill:#f9f2eb;}.n{stroke-dasharray:1.98 3.96;}.o{stroke-dasharray:2.09 4.18;}.p,.q,.r,.v{opacity:0.33;}.p{fill:url(#c);}.q{fill:url(#d);}.r{fill:url(#e);}.s{stroke-dasharray:2.08 4.16;}.t{fill:#91a85b;}.u{fill:#90aa5b;}.v{fill:url(#f);}.w{fill:url(#g);}.x{stroke-dasharray:1.98 3.96;}.y{stroke-dasharray:2.01 4.02;}.z{fill:#69843d;}.aa,.ab,.ae,.af,.ag,.z{mix-blend-mode:multiply;}.aa{fill:#839942;}.ab{fill:#68873f;}.ac{fill:#fff;}.ad{stroke:#7e7d38;stroke-width:2.37px;}.ae{fill:url(#h);}.af{fill:url(#i);}.ag{fill:url(#j);}.ah,.ai,.aj,.ak{mix-blend-mode:darken;}.ah{fill:url(#k);}.ai{fill:url(#l);}.aj{fill:url(#m);}.ak{fill:url(#n);}</style><linearGradient id="a" x1="875.39" y1="168.62" x2="887.2" y2="228.34" gradientTransform="translate(-9.2 -20.01) rotate(-0.22)" gradientUnits="userSpaceOnUse"><stop offset="0" stop-color="#fff"/><stop offset="1"/></linearGradient><mask id="b" x="748.98" y="136.31" width="265.54" height="165.49" maskUnits="userSpaceOnUse"><polygon class="a" points="1014.52 300.79 749.53 301.8 748.98 185.31 866.98 185.31 1013.98 136.31 1014.52 300.79"/></mask><linearGradient id="c" x1="109.23" y1="142.31" x2="109.23" y2="132.31" gradientUnits="userSpaceOnUse"><stop offset="0" stop-color="#90aa5b" stop-opacity="0"/><stop offset="1" stop-color="#90aa5b"/></linearGradient><linearGradient id="d" x1="21.03" y1="-1008.27" x2="21.03" y2="-1020.77" gradientTransform="matrix(0, 0.9, -1, 0, -439.17, 154.76)" xlink:href="#c"/><linearGradient id="e" x1="80.73" y1="125.06" x2="80.73" y2="115.81" xlink:href="#c"/><linearGradient id="f" x1="-8410.49" y1="123.73" x2="-8410.49" y2="117.57" gradientTransform="matrix(-1, 0, 0, 1, -8282.24, 0)" xlink:href="#c"/><linearGradient id="g" x1="629.63" y1="179.05" x2="629.63" y2="145.22" gradientUnits="userSpaceOnUse"><stop offset="0" stop-color="#fff" stop-opacity="0"/><stop offset="1" stop-color="#fff"/></linearGradient><linearGradient id="h" x1="-1930.87" y1="-127.36" x2="-1908.36" y2="-127.36" gradientTransform="matrix(-1, -0.08, -0.08, 1, -1357.96, 108.71)" gradientUnits="userSpaceOnUse"><stop offset="0" stop-color="#fceaed"/><stop offset="1" stop-color="#f7c6ce"/></linearGradient><linearGradient id="i" x1="-1928.7" y1="-125.11" x2="-1909.48" y2="-125.11" xlink:href="#h"/><linearGradient id="j" x1="-1930.56" y1="-126.08" x2="-1913.95" y2="-126.08" xlink:href="#h"/><linearGradient id="k" x1="-1930.77" y1="-122.96" x2="-1919.24" y2="-122.96" gradientTransform="matrix(-1, -0.08, -0.08, 1, -1357.96, 108.71)" gradientUnits="userSpaceOnUse"><stop offset="0" stop-color="#9fa938"/><stop offset="1" stop-color="#788b39"/></linearGradient><linearGradient id="l" x1="-1927.57" y1="-119.21" x2="-1907.88" y2="-119.21" xlink:href="#k"/><linearGradient id="m" x1="-1928.72" y1="-118.87" x2="-1916.56" y2="-118.87" xlink:href="#k"/><linearGradient id="n" x1="-1930.95" y1="-122.68" x2="-1912.52" y2="-122.68" xlink:href="#k"/></defs><g class="b"><rect class="c" width="1020" height="138.31"/><path class="d" d="M1020,282V121.31c-237.88-13.58-516.2-28.52-668.37-28C63.26,94.28,0,121.31,0,121.31V282Z"/><path class="e" d="M172.2,123.18c0,6.46-12.32,11.7-27.51,11.7s-27.5-5.24-27.5-11.7,12.31-11.7,27.5-11.7S172.2,116.72,172.2,123.18Z"/><path class="f" d="M899,171.9c0,9.06,21.89,16.41,48.88,16.41s48.87-7.35,48.87-16.41-21.88-16.41-48.87-16.41S899,162.84,899,171.9Z"/><path class="g" d="M901.19,170c0,6.74,16.28,12.21,36.37,12.21s36.37-5.47,36.37-12.21-16.28-12.21-36.37-12.21S901.19,163.25,901.19,170Z"/><path class="h" d="M713.83,136.4c0,2.67-7.3,4.84-16.3,4.84s-16.3-2.17-16.3-4.84,7.3-4.83,16.3-4.83S713.83,133.73,713.83,136.4Z"/><path class="i" d="M719.27,131.27c0,2.17-5,3.92-11.17,3.92s-11.17-1.75-11.17-3.92,5-3.93,11.17-3.93S719.27,129.1,719.27,131.27Z"/><g class="j"><g class="k"><polygon class="l" points="769.73 245.84 889.27 215.7 995.56 201.72 919.94 169.24 805.09 192.83 769.73 245.84"/><polygon class="m" points="825.01 202.2 879.8 258.18 923.17 184.57 861.8 177.09 825.01 202.2"/><path class="l" d="M879.8,258.18c-9.15-18.4-19.62-60.46-16.63-77C872.32,199.57,879.8,258.18,879.8,258.18Z"/><polygon class="m" points="769.73 245.84 859.9 192.22 997.65 201.45 940.52 153.85 853.54 162.4 786.87 190.05 769.73 245.84"/></g></g><path class="n" d="M866.72,195.52c0,2.67-7.3,4.83-16.31,4.83s-16.3-2.16-16.3-4.83,7.3-4.83,16.3-4.83S866.72,192.85,866.72,195.52Z"/><path class="o" d="M872.15,190.38c0,2.17-5,3.93-11.17,3.93s-11.16-1.76-11.16-3.93,5-3.92,11.16-3.92S872.15,188.21,872.15,190.38Z"/><polygon class="l" points="749.5 144.41 871.2 124.7 974.32 95.41 917.76 155.2 802.98 179.07 749.5 144.41"/><polygon class="m" points="817.55 162.57 845.66 89.46 914.65 139.85 861.28 171.05 817.55 162.57"/><path class="l" d="M845.66,89.46c-1.11,20.52,6,63.29,15.26,77.3C862,146.24,845.66,89.46,845.66,89.46Z"/><polygon class="l" points="749.5 144.41 851.54 154.91 976.35 94.83 942.76 161.17 859.52 187.8 787.35 188.84 749.5 144.41"/><polygon class="m" points="749.5 145.41 853.54 158.91 976.35 95.83 942.76 162.17 859.52 188.8 787.35 189.84 749.5 145.41"/><rect class="p" x="104.98" y="132.31" width="8.5" height="10"/><rect class="q" x="569.11" y="172.48" width="12.5" height="2.24" transform="translate(247.76 677.43) rotate(-73.76)"/><rect class="r" x="78.98" y="115.81" width="3.5" height="9.25"/><path class="s" d="M105.23,116.26c0,3.79-7.17,6.86-16,6.86s-16-3.07-16-6.86,7.18-6.86,16-6.86S105.23,112.47,105.23,116.26Z"/><path class="t" d="M109.22,134.12s-2.7-37,17.85-64.85c-6.85,15.36-12.45,24.89-14.32,64.85C111.71,134,109.22,134.12,109.22,134.12Z"/><path class="u" d="M107.77,134c0-14.53-2.49-55.42-15.57-85.72,6.43,11.42,18.47,36.32,19.51,85.72A23.72,23.72,0,0,1,107.77,134Z"/><path class="u" d="M113.37,132.88c1-16.49,9.76-38.28,14.94-45.55-6.64,6.64-18,31.94-18,45.55C111.71,132.79,113.37,132.88,113.37,132.88Z"/><path class="u" d="M108.39,133c-.83-7.88-1.45-17.85-6.44-25.11A197.51,197.51,0,0,1,105.28,133Z"/><path class="t" d="M82.32,117.12S84.38,91,68.69,71.31c5.23,10.85,9.51,17.58,10.94,45.81C80.42,117.06,82.32,117.12,82.32,117.12Z"/><path class="u" d="M79.15,116.24c-.79-11.64-7.45-27-11.41-32.17,5.07,4.69,13.79,22.56,13.79,32.17C80.42,116.18,79.15,116.24,79.15,116.24Z"/><rect class="v" x="127.07" y="117.57" width="2.34" height="6.15"/><path class="t" d="M127.18,118.45S125.8,101,136.3,88c-3.5,7.21-6.36,11.69-7.32,30.47C128.45,118.41,127.18,118.45,127.18,118.45Z"/><path class="u" d="M129.3,117.86c.53-7.75,5-18,7.64-21.4-3.4,3.12-9.23,15-9.23,21.4C128.45,117.82,129.3,117.86,129.3,117.86Z"/><path class="w" d="M603.28,163.71a5.58,5.58,0,0,0-1.44,3.56c0,6.5,13.93,11.78,31.11,11.78,2.51,0,4.95-.12,7.29-.33L633,167.27l10.64,11.07c11.94-1.64,20.47-6,20.47-11.07,0-1.77-1-3.44-2.86-4.94,7.65-.93,13.13-3.37,13.13-6.24,0-3.67-8.92-6.64-19.93-6.64-10.42,0-18.95,2.66-19.85,6.05h-2.62a4.06,4.06,0,0,0,.11-.92c0-5.17-10.54-9.36-23.55-9.36a54.32,54.32,0,0,0-10.77,1l8.35,7.43-20-2a4.52,4.52,0,0,0-1.12,2.86C584.93,159,592.78,162.77,603.28,163.71Z"/><path class="x" d="M614.73,165.48c0,7.17-18,13-40.17,13s-40.17-5.81-40.17-13,18-13,40.17-13S614.73,158.3,614.73,165.48Z"/><path class="y" d="M612.92,164c0,5.33-13.38,9.66-29.89,9.66s-29.9-4.33-29.9-9.66,13.39-9.67,29.9-9.67S612.92,158.63,612.92,164Z"/><path class="z" d="M633.46,153.09c0,3.67,8.93,6.65,19.94,6.65s19.93-3,19.93-6.65-8.92-6.64-19.93-6.64S633.46,149.42,633.46,153.09Z"/><path class="aa" d="M632,152.49c-17.18,0-31.11,5.27-31.11,11.78s13.93,11.78,31.11,11.78c2.51,0,4.95-.12,7.29-.33L632,164.27l10.64,11.07c11.94-1.64,20.47-6,20.47-11.07C663.06,157.76,649.13,152.49,632,152.49Z"/><path class="ab" d="M607.49,142.22a54.32,54.32,0,0,0-10.77,1l8.35,7.43-20-2a4.52,4.52,0,0,0-1.12,2.86c0,5.17,10.54,9.37,23.56,9.37s23.55-4.2,23.55-9.37S620.5,142.22,607.49,142.22Z"/><path class="ac" d="M573.26,142.34l.13-.13a6.73,6.73,0,0,0,3-6.48c1.25-6.85-2.56-16.74-17.79-24.38a45.28,45.28,0,0,0-4,15.75c-2,5.51.07,10.38,3.49,13.66a9.59,9.59,0,0,0,2.72,2.12c.42.26.84.49,1.27.71a6,6,0,0,0,4.2,1.36,8,8,0,0,0,4.4-.47,57.29,57.29,0,0,0,2.6-2.14Z"/><path class="ad" d="M570.06,144.41c4.93,9.3,6.87,17.73,6.87,23.66"/><path class="ae" d="M569.72,143.7c8.28-1.64,13.61-20-11.09-32.35C551.71,126.47,552.36,147.12,569.72,143.7Z"/><path class="af" d="M569.72,143.7c9.74-1.85,2.13-18.07-12.55-27.91C554.7,128.68,553.31,146.8,569.72,143.7Z"/><path class="ag" d="M569.55,143.76c-8.58,5.29-12.35-12.43-6.9-30.1C572.19,121.86,584,134.85,569.55,143.76Z"/><path class="ah" d="M570.74,144c7-2.47,9.43-18.1-3.1-23C564.3,128.62,562.91,146.74,570.74,144Z"/><path class="ai" d="M570.66,144.48c-6.73,3-20.65-6.09-15.89-17.91C563.07,129.59,578.21,141.11,570.66,144.48Z"/><path class="aj" d="M572.07,143.28c5-2.55-.43-10.93-8.36-15.3C561.13,136.89,560,149.48,572.07,143.28Z"/><path class="ak" d="M569.45,144.27c12.11-4.48,8.14-15-8.52-24.23C556.3,130.78,557.47,148.7,569.45,144.27Z"/></g></svg>