<svg xmlns="http://www.w3.org/2000/svg" xmlns:xlink="http://www.w3.org/1999/xlink" viewBox="0 0 698.45 140.91"><defs><style>.a{isolation:isolate;}.b{opacity:0.3;mix-blend-mode:multiply;}.c{fill:url(#a);}.d{fill:url(#b);}.e{fill:url(#c);}.f{fill:#f8d9bf;}.g{fill:#f5f1e5;}.h{fill:#f9d8be;}.i{fill:#67bae1;}.j{fill:#97cc7d;}.k{fill:#f9e27b;}.l{fill:#f8d8bf;}.m{fill:#f8d8be;}.n{fill:#644a34;}.o{fill:#684123;}.p{fill:#b466a2;}.q{fill:#a9cf3b;}.r{fill:#ef873e;}.s{fill:#f58636;}.t{fill:#efd13d;}</style><linearGradient id="a" x1="657.79" y1="139.1" x2="657.79" y2="111.57" gradientUnits="userSpaceOnUse"><stop offset="0" stop-color="#79a5b2" stop-opacity="0"/><stop offset="0.01" stop-color="#79a5b2" stop-opacity="0.02"/><stop offset="0.2" stop-color="#79a5b2" stop-opacity="0.32"/><stop offset="0.38" stop-color="#79a5b2" stop-opacity="0.56"/><stop offset="0.56" stop-color="#79a5b2" stop-opacity="0.75"/><stop offset="0.72" stop-color="#79a5b2" stop-opacity="0.89"/><stop offset="0.87" stop-color="#79a5b2" stop-opacity="0.97"/><stop offset="1" stop-color="#79a5b2"/></linearGradient><linearGradient id="b" x1="485.43" y1="858.1" x2="485.43" y2="822.36" gradientTransform="translate(-525.32 -629) rotate(-8.8)" xlink:href="#a"/><linearGradient id="c" x1="366.68" y1="131.63" x2="366.68" y2="102.4" xlink:href="#a"/></defs><g class="a"><g class="b"><path class="c" d="M617.12,111.57l12.63,15s-10,12.53,9,12.53,66-1.39,59-8.35-42-8.35-42-8.35l-5.38-7.33-9.62-.75-.88,7-12.75-9.75Z"/><path class="d" d="M39.37,118.82l15.38,10.25c-2.52,3-1.16,8.36,12,10.31,19,2.81,67.27,1.92,59-4.13s-45.49-14.38-45.49-14.38l-9.39-8.43-8-.37-.12,7.62-15.13-3.87Z"/><path class="e" d="M629.75,126.57c-10.41.23-22.1.63-32.5.79s-20.79.28-31.08.39q-17.2.31-34.43.48t-34.45.23c-117.82,1.39-236,2.16-354.22-.84q-11.82-.12-23.64-.32c-7.89-.15-7.91-.39-15.81-.61,1.38.38,7.13,2.5,9,2.88,7.31,1.46,20,.53,27.67.94,118.91,4,238.15,6.28,357.15,3.47q17.32-.3,34.64-.86t34.6-1.45c10.22-.33,20.54-.67,30.85-1s20.24-.72,30.55-1.15Z"/></g><path class="f" d="M635.85,72.82c-5.14-3.16-13.23-5.28-13.94-3.81s-.7,4.26,3,4,4.07,3.22,7.36,4.39C636.84,79,641.05,76,635.85,72.82Z"/><path class="f" d="M56.38,72.59c5.28-2.93,13.46-4.67,14.11-3.17s.49,4.28-3.2,3.81-4.22,3-7.55,4C55.12,78.69,51.05,75.55,56.38,72.59Z"/><rect class="g" x="68.51" y="8.57" width="556.12" height="81.41"/><path class="h" d="M39.6,76c-.53,15.8,3.48,28.38,2.95,30s-9.11,8.3-1.08,8,8.84-4,8.84-9.37a51.92,51.92,0,0,1,.27-7L57,97.16s3.21,6.16,4.28,8.3,3.5,5.65,10.71,2.41c5.35-2.41-.27-3.22-2.68-5.89S64,82.71,59.41,70.66C46.29,65,39.6,76,39.6,76Z"/><path class="i" d="M65.05,89.39,40.71,94c.43,3,.9,5.48,1.27,7.46a80.78,80.78,0,0,0,8.36.37,34.58,34.58,0,0,1,.24-4.09L57,97.16l1.74,3.34a24.33,24.33,0,0,0,8.18-4.36C66.33,94.18,65.71,91.88,65.05,89.39Z"/><path class="j" d="M59.41,70.66C46.29,65,39.6,76,39.6,76a106.86,106.86,0,0,0,1.72,21.8c5.45.08,17-.24,24.92-4C64.41,87.23,62.21,78.09,59.41,70.66Z"/><path class="k" d="M62.51,80.16a74.53,74.53,0,0,1-22.85,3.26c.14,2.85.4,5.53.7,8,7-.38,18-3.35,23.86-5.07C63.68,84.32,63.11,82.24,62.51,80.16Z"/><path class="l" d="M57,82.44c5.82,1.59,14.18,1.34,14.45-.27s-.53-4.28-4-2.94-4.82-2-8.3-2.14C54.32,76.82,51.11,80.83,57,82.44Z"/><path class="m" d="M8.82,51.93C-3.49,51.66-3,77.62,10.69,66.38c9.37,8.83,18.47,13.65,42,6.16s27.57-17.67,27.83-22c11.24,3.21,10.17-17.94,1.88-13.12C69.85,24.62,11.5,14.45,8.82,51.93Z"/><path class="n" d="M27,61c.59,2.13-.08,4.18-1.51,4.58s-3.06-1-3.65-3.16.09-4.19,1.51-4.58S26.43,58.89,27,61Z"/><path class="n" d="M68,51.12c.59,2.14-.08,4.19-1.51,4.59s-3.06-1-3.65-3.16.09-4.19,1.51-4.58S67.38,49,68,51.12Z"/><path class="n" d="M42.6,66.05c1.63,5.1,11,3.76,8.92-2.87"/><path class="o" d="M15.24,50.32c-1.07,3.75-7.49,12-10.7.53S8.28,20.34,28.89,13.38s54.34-1.07,52.73,22.49c-1.33,5.08-6.69,5.88-12.84.53-2.41,7.23-13.12,11.78-20.35,5.89-3.21,6.69-10.17,10.17-15.52,4C29.16,60,15.24,50.32,15.24,50.32Z"/><path class="o" d="M34.78,11.78C29.16,11.24,22.47,8,36.39,0c-7.5,2.94-18.47,8.3-7.5,13.38C33.44,14.45,34.78,11.78,34.78,11.78Z"/><path class="h" d="M652.46,77c-.18,15.8-4.77,28.18-4.31,29.81s8.72,8.7.71,8.07-8.64-4.41-8.4-9.76a53.76,53.76,0,0,0,0-7l-6.39-.82s-3.49,6-4.66,8.09-3.75,5.49-10.8,1.92c-5.24-2.65.41-3.19,2.94-5.76s6.22-19,11.32-30.83C646.27,65.74,652.46,77,652.46,77Z"/><path class="i" d="M626.43,89.21l24.11,5.67c-.57,2.93-1.15,5.44-1.61,7.4a75.53,75.53,0,0,1-8.37,0,35.77,35.77,0,0,0,0-4.1l-6.39-.82-1.89,3.26a24.27,24.27,0,0,1-8-4.74C624.93,93.94,625.65,91.67,626.43,89.21Z"/><path class="p" d="M632.92,70.76c13.35-5,19.54,6.25,19.54,6.25a106.27,106.27,0,0,1-2.71,21.69c-5.45-.16-17-1-24.71-5.15C627.17,87.08,629.78,78,632.92,70.76Z"/><path class="q" d="M649.47,89.38c-7,0-14.35-2.38-19.41-4l-2.42-.77.47-1.53,2.45.77c5.47,1.76,13.74,4.42,21,3.85l.12,1.6C650.94,89.35,650.2,89.38,649.47,89.38Z"/><path class="r" d="M649.37,92.23c-7.22,0-15.29-2.56-20.3-4.14L627,87.43l.46-1.53,2.12.66c5.4,1.71,14.44,4.57,21.85,4l.12,1.6Q650.47,92.23,649.37,92.23Z"/><path class="s" d="M672.38,67.47s3.67,17.49,4.89,18.26,13.36-3.14,11.51-5.73S677.6,66.63,677.6,66.63Z"/><path class="s" d="M609.71,43.1s-16.11,7.75-16.56,9.11,6.25,12.22,8.31,9.81S611.77,48,611.77,48Z"/><path class="m" d="M684.31,54.34c12.31.3,10.59,26.21-2.53,14.36-9.76,8.39-19.08,12.79-42.26,4.23S612.78,54,612.71,49.74c-11.38,2.7-9.35-18.38-1.28-13.19C624.59,24.29,683.34,16.79,684.31,54.34Z"/><path class="n" d="M665.71,62.61c-.69,2.1-.11,4.18,1.3,4.64s3.1-.87,3.79-3,.1-4.19-1.3-4.65S666.4,60.5,665.71,62.61Z"/><path class="n" d="M625.25,50.85c-.69,2.11-.11,4.19,1.3,4.65s3.1-.88,3.79-3,.11-4.19-1.3-4.65S625.94,48.74,625.25,50.85Z"/><path class="n" d="M649.92,66.91c-1.86,5-11.21,3.26-8.78-3.26"/><path class="s" d="M664,28.86c-4.53,1.4-31.55,26.07-38.45,9-2.92,1.3-7.09,2.72-8.75-.22-3.46,1.45-2.67-.12-5.64,2.24.39-8.37,1.67-32.61,35.26-32.86,19.42,1.24,28.37,8.61,34.54,14.26s18,24.75,2.77,37.27c-8.84-2-17.57-6.33-17.65-16.34S664,28.86,664,28.86Z"/><path class="t" d="M649.61,86.52c-6.37,0-12.45-2.07-17-3.63-1.17-.4-2.25-.77-3.21-1.06l.46-1.54c1,.3,2.08.67,3.27,1.08,4.95,1.69,11.74,4,18.56,3.47l.12,1.6C651.06,86.5,650.33,86.52,649.61,86.52Z"/><path class="l" d="M634.79,82.63c-5.9,1.32-14.23.69-14.43-.92s.73-4.26,4.15-2.76,4.89-1.73,8.38-1.76C637.72,77.14,640.74,81.3,634.79,82.63Z"/></g></svg>