<svg xmlns="http://www.w3.org/2000/svg" viewBox="0 0 1805.17 157.28"><defs><style>.a{fill:#b0c26f;}.b{fill:#b4e0e9;}.c{fill:#7caa65;}</style></defs><path class="a" d="M1805.17,0H0V86.57c1.2-.34,50-.68,114-1,39.11-.21,134-4.11,177-6.63,100-5.86,312.3-21.26,484.65-22.35,3.56,0,7.37,0,11.34,0,167.36,0,687.48,19.57,778,19.67,64,.07,164.47,2.15,210,2.22l30.19,0Z"/><rect class="b" y="106.57" width="1805.17" height="50.71"/><path class="c" d="M1805.17,78.47l-30.19,0c-45.57-.07-146-2.15-210-2.22-90.49-.1-610.61-19.67-778-19.67-4,0-7.78,0-11.34,0C603.28,57.66,391,73.06,291,78.92c-43,2.52-137.86,6.42-177,6.63-64,.34-112.81.68-114,1v20H1805.17Z"/><path class="b" d="M1805.17,89.48l-28.18,0c-46.06-.07-148.49-2.14-214-2.21-91.64-.1-651.6-26.16-801.35-25.65C545.35,62.3,390,77.06,293,82.15c-43.71,2.3-139.32,6.63-179,6.86-64.84.36-114,.56-114,.56v67.71H1805.17Z"/></svg>