<svg xmlns="http://www.w3.org/2000/svg" viewBox="0 0 59.86 44.07"><defs><style>.a{fill:#9c823f;}.b{fill:#ad9044;}.c{fill:#e7c56b;}.d{fill:#ffdd80;}.e{fill:#d8903e;}</style></defs><path class="a" d="M43.65,44.07A.63.63,0,0,1,43.3,44a.59.59,0,0,1-.13-.82l2.19-3-2.15-2.38a.58.58,0,0,1,.87-.78l2.47,2.73a.59.59,0,0,1,0,.73l-2.47,3.38A.58.58,0,0,1,43.65,44.07Z"/><path class="b" d="M39.72,0c.59,6.92.92,12.77-4.87,19.88-5.16,6.33-13.93,8.47-18.12,4.67C9.1,17.64,14.1,10.33,18.87,9.16c3-.74,7.8.19,13.74-2.44A13.82,13.82,0,0,0,39.72,0Z"/><path class="c" d="M59.86,17.47C59,23.32,49.14,39.79,36.08,41.93s-19.19-3.41-26-12.57-7.5-21.14-.58-25,14.22-.58,15.78.1S38.81,12.5,42.71,15.91,54,21.27,59.86,17.47Z"/><path class="d" d="M10.07,29.36c4,5.42,7.84,9.58,13,11.63,1.79-6.35.49-9.93-2.39-15.69C18,19.88,11.07,18.89,5.14,18.77A28.11,28.11,0,0,0,10.07,29.36Z"/><path class="a" d="M13.53,10.61a3,3,0,0,1-.43,0A2.9,2.9,0,0,1,10.86,8.1a.39.39,0,1,1,.76-.16A2.14,2.14,0,0,0,13.23,9.8a2.3,2.3,0,0,0,2.26-1.2A.38.38,0,0,1,16,8.47a.39.39,0,0,1,.13.54A3.18,3.18,0,0,1,13.53,10.61Z"/><path class="a" d="M10.56,11a.39.39,0,0,1-.28-.66l1.07-1.12a.38.38,0,0,1,.55,0,.39.39,0,0,1,0,.55l-1.07,1.13A.39.39,0,0,1,10.56,11Z"/><path class="a" d="M12.6,12.11h-.06a.39.39,0,0,1-.32-.45l.24-1.41a.39.39,0,0,1,.45-.32.38.38,0,0,1,.32.45L13,11.79A.4.4,0,0,1,12.6,12.11Z"/><path class="a" d="M15,12a.39.39,0,0,1-.34-.21l-.73-1.36a.39.39,0,1,1,.68-.37l.73,1.36a.38.38,0,0,1-.16.53A.37.37,0,0,1,15,12Z"/><path class="a" d="M16.65,10.9a.4.4,0,0,1-.27-.11l-1.07-1a.38.38,0,0,1,0-.55.39.39,0,0,1,.55,0l1.07,1a.38.38,0,0,1,0,.55A.39.39,0,0,1,16.65,10.9Z"/><path class="a" d="M47.78,2.08C48.36,9,48.7,14.85,42.9,22,37.74,28.29,29,30.43,24.78,26.63c-7.62-6.91-2.63-14.22,2.15-15.39,3-.74,7.79.19,13.73-2.44A13.82,13.82,0,0,0,47.78,2.08Z"/><polygon class="e" points="0 8.02 6.37 7.89 4.94 11.53 0 8.02"/><path class="a" d="M48.58,42.25a.58.58,0,0,1-.58-.58V38.23l-3-1.78a.59.59,0,1,1,.61-1l3.24,1.95a.58.58,0,0,1,.29.5v3.77A.58.58,0,0,1,48.58,42.25Z"/></svg>