<svg xmlns="http://www.w3.org/2000/svg" xmlns:xlink="http://www.w3.org/1999/xlink" viewBox="0 0 399.56 317.36"><defs><style>.a{isolation:isolate;}.b{fill:#f9faf4;}.c{fill:#b9e1ef;}.d,.e,.f{opacity:0.4;}.am,.at,.d,.e,.f,.y{mix-blend-mode:multiply;}.d{fill:url(#a);}.e{fill:url(#b);}.f{fill:url(#c);}.g{fill:#e3b89d;}.h{fill:#1dc2eb;}.i{fill:#fad651;}.j{fill:#b19d8f;}.k{fill:#644a34;}.l{fill:#fff;}.m,.n,.o,.p,.q,.r,.s,.t,.u,.v,.w,.x{fill-rule:evenodd;}.m{fill:url(#d);}.n{fill:url(#e);}.o{fill:url(#f);}.p{fill:url(#g);}.q{fill:url(#h);}.r{fill:#fecf9b;}.s{fill:url(#i);}.t{fill:#fdcf9b;}.u{fill:url(#j);}.v{fill:url(#k);}.w{fill:#5f2d22;}.x{fill:#fffaf8;}.y{fill:#fffbef;}.z{fill:#342f34;}.aa{fill:#f05c8c;}.ab{fill:#ee3f7a;}.ac{fill:#f9d9c0;}.ad{fill:#f9d7be;}.ae{fill:#135b76;}.af{fill:#2ec0cd;}.ag{fill:#f9d8c0;}.ah{fill:#f9d8bf;}.ai{fill:#ddc45b;}.aj{opacity:0.9;}.ak{fill:#42bced;}.al{fill:#98cc69;}.am{fill:#f7a29b;}.an{fill:#f6fafd;}.ao{fill:#fcb763;}.ap{opacity:0.65;}.aq{fill:none;stroke:#8b6843;stroke-linecap:round;stroke-linejoin:round;stroke-width:1.04px;}.ar{fill:#fbe4bb;}.as{fill:#8b6843;}.at{opacity:0.45;}.au,.av{fill:#4e626a;stroke:#4e626a;}.au{stroke-width:0.65px;}.av{stroke-width:0.31px;}</style><linearGradient id="a" x1="324.64" y1="296.76" x2="314.39" y2="263.68" gradientUnits="userSpaceOnUse"><stop offset="0" stop-color="#b2b3b3" stop-opacity="0"/><stop offset="0.07" stop-color="#b2b3b3" stop-opacity="0.04"/><stop offset="0.42" stop-color="#b2b3b3" stop-opacity="0.17"/><stop offset="0.74" stop-color="#b2b3b3" stop-opacity="0.25"/><stop offset="1" stop-color="#b2b3b3" stop-opacity="0.28"/></linearGradient><linearGradient id="b" x1="516.02" y1="2.01" x2="516.02" y2="-27.68" gradientTransform="matrix(0.99, -0.11, 0.11, 0.99, -391.57, 365.64)" xlink:href="#a"/><linearGradient id="c" x1="1034.8" y1="-280.16" x2="1034.8" y2="-314.05" gradientTransform="matrix(0.97, -0.23, 0.23, 0.97, -750.5, 815.01)" xlink:href="#a"/><linearGradient id="d" x1="301" y1="165.95" x2="317.87" y2="165.95" gradientTransform="translate(-120.45 108.65) rotate(-1.94)" gradientUnits="userSpaceOnUse"><stop offset="0" stop-color="#b96a2e"/><stop offset="1" stop-color="#d27836"/></linearGradient><linearGradient id="e" x1="267.67" y1="164.9" x2="281.9" y2="164.9" gradientTransform="translate(-120.45 108.65) rotate(-1.94)" gradientUnits="userSpaceOnUse"><stop offset="0" stop-color="#d27836"/><stop offset="1" stop-color="#b96a2e"/></linearGradient><linearGradient id="f" x1="290.4" y1="182.77" x2="304.14" y2="182.77" xlink:href="#d"/><linearGradient id="g" x1="277.21" y1="183.65" x2="290.93" y2="183.65" gradientTransform="translate(-120.45 108.65) rotate(-1.94)" gradientUnits="userSpaceOnUse"><stop offset="0" stop-color="#e7833c"/><stop offset="1" stop-color="#d27836"/></linearGradient><linearGradient id="h" x1="275.11" y1="166.26" x2="305.5" y2="166.26" gradientTransform="translate(-120.45 108.65) rotate(-1.94)" gradientUnits="userSpaceOnUse"><stop offset="0" stop-color="#d27836"/><stop offset="1" stop-color="#e7833c"/></linearGradient><linearGradient id="i" x1="300.12" y1="124.06" x2="318.71" y2="124.06" xlink:href="#h"/><linearGradient id="j" x1="261.81" y1="124.48" x2="281.74" y2="124.48" xlink:href="#g"/><linearGradient id="k" x1="273.79" y1="128.37" x2="310.98" y2="153.45" gradientTransform="translate(-120.45 108.65) rotate(-1.94)" gradientUnits="userSpaceOnUse"><stop offset="0" stop-color="#f68c42"/><stop offset="0.34" stop-color="#ef8840"/><stop offset="0.84" stop-color="#da7d39"/><stop offset="1" stop-color="#d27836"/></linearGradient></defs><g class="a"><rect class="b" width="399.56" height="317.36"/><path class="c" d="M90.22,307C54.74,291.05.15,264.16,6.14,202S46.07,97,73.58,90.9s216-20.63,263.26,6.78S420,217.26,369.06,264.88s-99.85,46.5-161.35,46.54S90.22,307,90.22,307Z"/><path class="d" d="M279.58,267.86l15.91,19.42s-9.36,15.21,8.42,15.21,61.78-1.69,55.23-10.14-39.31-10.13-39.31-10.13l-4.68-10.14-11.24-2.53-2.8,7.6-12.17-9.29Z"/><path class="e" d="M79,293.51l18,13.8s2.53,8.89,20.21,6.93,51.05-1.26,43.6-8.93-40.19-5.73-40.19-5.73L112,286.28l-8.63,2.47-2,7.87-13.12-7.89Z"/><path class="f" d="M164,291.15l10.93,9.06s12.44,20,26.07,16.81,22-14.47,15.46-19.78-18.9-5.08-18.9-5.08l-10.09-4.83-5.76-.62.45,7.74-11-5Z"/><path class="g" d="M297.7,227.74c-5.32-3.28-13.68-5.46-14.42-4s-.71,4.41,3.13,4.09,4.2,3.33,7.6,4.54C298.71,234.09,303.07,231,297.7,227.74Z"/><path class="g" d="M314.87,232.06c-.2,16.33-4.93,29.14-4.46,30.82s9,9,.73,8.34-8.93-4.56-8.68-10.09a54.63,54.63,0,0,0,.05-7.2l-6.61-.85s-3.6,6.2-4.81,8.36-3.87,5.68-11.17,2c-5.41-2.74.43-3.31,3-6s6.44-19.65,11.7-31.87C308.47,220.41,314.87,232.06,314.87,232.06Z"/><path class="h" d="M288,244.68l24.92,5.86c-.59,3-1.19,5.62-1.66,7.64a80.53,80.53,0,0,1-8.65,0,35.69,35.69,0,0,0-.06-4.24l-6.61-.85L294,256.45a25.07,25.07,0,0,1-8.24-4.9C286.4,249.56,287.15,247.22,288,244.68Z"/><path class="i" d="M294.66,225.6c13.81-5.19,20.21,6.46,20.21,6.46a110.24,110.24,0,0,1-2.81,22.42c-5.63-.16-17.53-1-25.54-5.32C288.72,242.48,291.42,233.13,294.66,225.6Z"/><rect class="j" x="271.39" y="83.39" width="7.21" height="189.88" transform="translate(-28.78 55.27) rotate(-10.91)"/><path class="g" d="M347.79,208.63c12.73.3,10.95,27.09-2.62,14.84-10.09,8.68-19.71,13.23-43.68,4.38s-27.64-19.54-27.72-24c-11.76,2.79-9.66-19-1.31-13.63C287.19,149.5,360.35,170.65,347.79,208.63Z"/><path class="k" d="M328.56,217.17c-.71,2.18-.11,4.33,1.35,4.81s3.2-.91,3.91-3.09.11-4.33-1.34-4.81S329.27,215,328.56,217.17Z"/><path class="k" d="M286.74,205c-.71,2.18-.11,4.33,1.34,4.8s3.21-.91,3.92-3.09.11-4.32-1.34-4.8S287.45,202.84,286.74,205Z"/><path class="k" d="M312.24,221.63c-1.93,5.18-11.58,3.36-9.07-3.38"/><polygon class="l" points="214.42 100.88 225.17 164.86 320.9 150.69 313.09 84.27 214.42 100.88"/><path class="m" d="M188.24,257.18c2.66,2.49,4.36,5.18,8.36,4.24s7.36,3,6,5.6-6,7.46-13.21.12S188.24,257.18,188.24,257.18Z"/><rect class="j" x="143.51" y="216.82" width="113.19" height="4.41" transform="translate(-27.58 409.23) rotate(-87.46)"/><polygon class="l" points="173.22 167.03 174.11 209.55 231.75 210.85 233.71 167.06 173.22 167.03"/><path class="n" d="M162.37,255.16c-3.32,1.88-13.45,7.38-8.22,14.3,4.13,5.46,8.17,3.11,8.17,3.11L166.59,256Z"/><path class="o" d="M185.71,272.91c.14,4.35.8,9.48,2.47,11.2s3.38,4.56-1.44,5.21-9.72-1.45-10.43-3.52.12-10.48.12-10.48Z"/><path class="p" d="M166.43,275a49.24,49.24,0,0,1-2.26,9.59c-.73,2.12-3.35,5.59,2.78,5.71s9.8-1,9.62-6.13-.24-7.25-.24-7.25Z"/><path class="q" d="M164.49,255.73c-3.38,5.11-9.77,19.32,5.28,22.55,10.39,2.23,16-2.8,17.9-4.47s5.58-11.31-.66-19.49S164.49,255.73,164.49,255.73Z"/><path class="r" d="M168.23,256.57c-1.21,2.46-9,16.26,0,19.18s16.86-1.17,17.74-4.63c1.28-5-.39-11.59-2.74-14.09S168.23,256.57,168.23,256.57Z"/><path class="s" d="M183.61,220.3c.76-4.13,7.07-11.73,13.92-6s4.81,11.21,3,13.12-8.77,4.75-8.77,4.75Z"/><path class="t" d="M185.16,224c.73-3.82,4-9.79,8.39-5.76s4.15,8.22-.57,10S185.16,224,185.16,224Z"/><path class="u" d="M154.7,233.33c-4.19-.18-12.59-5.38-7.85-13s10.43-6.32,12.58-4.78,5.91,8,5.91,8Z"/><path class="t" d="M158.18,231.27c-3.87-.19-10.24-2.55-6.86-7.5s7.56-5.26,10-.82S158.18,231.27,158.18,231.27Z"/><path class="v" d="M170,257.8c-5.64,0-26.61-4.91-18.58-20.17s20.88-21.5,21.68-21.69l-.27,1.62s6.74-.87,9.48-1a6.48,6.48,0,0,0-.88,2.45s7.57-.09,9.62,3.22c-1.93.23-3.69.61-3.69.61s18.77,21.13,6.94,28.95S181.34,262.9,170,257.8Z"/><path class="w" d="M175.66,245.19c1-.92,4.24-1,5.31-.18.35.64-1.82,3.37-2.54,3.32S175.45,246.17,175.66,245.19Z"/><path class="w" d="M160.18,242.65c.49-2.29,3.35-3.33,4.34-.38C163,241.35,162,241.54,160.18,242.65Z"/><path class="w" d="M187.53,240.92c.4-2.29,2.84-3.32,3.69-.36C189.89,239.64,189.07,239.82,187.53,240.92Z"/><path class="x" d="M178.48,254.54a43.45,43.45,0,0,1-3.8-2.46s-4-.5-1.36,2.47C175,255.78,178.48,254.54,178.48,254.54Z"/><polygon class="y" points="186.15 167.04 173.22 167.03 173.89 199.17 180.37 200.15 186.15 167.04"/><path class="z" d="M283.92,177.54s-8.74,23.32-9.52,25.39-3.59,9.59-10.91,1.53-.13-17.78,2.4-24.52,20.88-32.06,43.16-28.43S347,162.19,354.1,171.65s15.61,25.35,7.12,44-13.47,18.59-17.58,18.52-7.84,1.2-5.44-6.77,8.29-27.62,8.29-27.62-20.76-4.53-24.55-6.25a25.49,25.49,0,0,0-.87-4.76L318.41,192s-15.19-3.62-19.91-6c.29-3.14.68-6.54.68-6.54L296,184.73S290.89,183.41,283.92,177.54Z"/><path class="aa" d="M355,176.71c2.66.09,9.4-13-2.78-13.45-2.63-.1-6,2.49-7.19,5S345.51,176.41,355,176.71Z"/><path class="aa" d="M356.27,176.89c-2.66-.08-8.53,11.83,3.66,12.28,2.62.1,5.95-2.49,7.18-5S365.32,177.18,356.27,176.89Z"/><path class="aa" d="M357.59,180.05c-1.86.63-9.27-.08-5.53-6.51s9.26,2.88,7.4,4.7Z"/><path class="ab" d="M298.3,245.54c-4.36-5.79-4.67-8.1-4.36-9.36s4.84-4.15,6.42-.63c3.31-.73,7.09.21,6.3,3.37C305.71,242.71,298.3,245.54,298.3,245.54Z"/><path class="g" d="M296.6,237.87c-6.09,1.37-14.72.72-14.92-1s.76-4.4,4.29-2.85,5.06-1.79,8.67-1.82C299.63,232.2,302.75,236.49,296.6,237.87Z"/><path class="ac" d="M96.65,249.56c5.46-3,13.92-4.83,14.58-3.28s.52,4.43-3.31,3.94-4.35,3.14-7.8,4.19C95.35,255.87,91.13,252.62,96.65,249.56Z"/><path class="ad" d="M79.3,253.1c-.55,16.33,3.6,29.33,3,31s-9.41,8.58-1.11,8.3,9.13-4.15,9.13-9.68a53.78,53.78,0,0,1,.28-7.2l6.64-.55s3.32,6.37,4.42,8.58,3.62,5.84,11.07,2.49c5.54-2.49-.27-3.32-2.76-6.09S104.48,260,99.78,247.57C86.22,241.76,79.3,253.1,79.3,253.1Z"/><path class="ae" d="M105.61,266.93l-25.16,4.72c.44,3.06.93,5.67,1.31,7.72a80.62,80.62,0,0,0,8.64.38,34.88,34.88,0,0,1,.25-4.24l6.64-.55s.83,1.59,1.79,3.46a25.12,25.12,0,0,0,8.46-4.52C106.94,271.89,106.3,269.51,105.61,266.93Z"/><path class="af" d="M99.78,247.57c-13.56-5.81-20.48,5.53-20.48,5.53a110.49,110.49,0,0,0,1.78,22.53c5.63.09,17.56-.24,25.76-4.15C105,264.7,102.68,255.24,99.78,247.57Z"/><rect class="j" x="28.42" y="193.83" width="185.26" height="7.21" transform="translate(-94.22 282.86) rotate(-80.13)"/><path class="ag" d="M97.29,259.74c6,1.65,14.66,1.39,14.94-.27s-.56-4.43-4.15-3.05-5-2-8.58-2.21C94.52,253.93,91.2,258.08,97.29,259.74Z"/><path class="ah" d="M47.48,228.2c-12.73-.28-12.17,26.56,1.94,14.94,9.68,9.13,19.09,14.11,43.44,6.36s28.5-18.26,28.78-22.68c11.62,3.32,10.51-18.54,1.93-13.56C110.57,200,50.25,189.46,47.48,228.2Z"/><path class="k" d="M66.3,237.61c.61,2.21-.09,4.33-1.56,4.74s-3.16-1.06-3.78-3.27.09-4.33,1.56-4.74S65.69,235.4,66.3,237.61Z"/><path class="k" d="M108.63,227.37c.61,2.21-.08,4.33-1.56,4.74s-3.16-1.06-3.77-3.27.09-4.33,1.56-4.73S108,225.16,108.63,227.37Z"/><path class="k" d="M82.4,242.8c1.69,5.27,11.42,3.89,9.22-3"/><path class="ai" d="M45.24,232.89c-2.45-4.62-6.77-16.95,1.42-27.46,6.67-8.57,21.22-19,39.83-19.24s32.39,8.92,34.22,19.93c1.78,10.69-1.73,15.49-5.88,10-1.82.36-3.66.56-5.08-2.29-2.54,1.82-6.39-2-6.37-3.68-1.59,1.47-4.31-.14-6-1.94-1.26,1.4-4.46,2.53-6.16.89-.66,3.59-7.16,2.73-7.47,1.14,0,2.64-5.36,4-6.48,1-1.34,1.91-4.29,4.3-6.76,2.16.62,4-7.55,5.11-7.57,4.13,2.12,2.05-2.53,3.63-3.28,2.45-.74,2.3-3.93,5.23-5.6,4.57,1.38,3.52-4.12,5.1-4.12,5.1C50.43,233.18,48.15,238.37,45.24,232.89Z"/><polygon class="l" points="88.29 107.42 80.84 176.62 174.13 190.79 186.47 120.12 88.29 107.42"/><g class="aj"><path class="ak" d="M157.12,147.87a26,26,0,1,1-26.05-26A26,26,0,0,1,157.12,147.87Z"/><path class="al" d="M148.29,154.88a6.27,6.27,0,0,0-1.73,1.21c-.34,1.56-1.56,7.78-.34,7.09s2.77-6.4,2.77-6.4S149.16,154.53,148.29,154.88Z"/><path class="al" d="M114.55,156.43c.34,4.16,4.33,4.16,4.33,8.66s2.59,5.88,2.59,5,3.12-3.8,4.85-4.67,2.77-4.84.86-5.19a8.68,8.68,0,0,1-5.19-4c-1.38-2.08-4-.87-4.67-1.9s-4.67-2.43-6.06-3.12,2.6-1.9,4-1.9,0-5.37,1.56-6.06,1.38-3.81,1.38-4.84-2.59-2.43-3.63-2.94c-1.21,4-1.73,1.38-3.29,3.28s1-4.84,1.21-5.71c.14-.69-.71-1.82-1.06-2.24a25.9,25.9,0,0,0-6.38,17c0,.51,0,1,.08,1.51l1.31,1a36.21,36.21,0,0,1,4.32,4C111.61,155.57,114.2,152.28,114.55,156.43Z"/><path class="al" d="M146.45,126.88c-2,1.47-2.59,1.16-4.73.83s-6.75-2.08-7.1.17-1.9,3.29.52,4.85,0,2.59-1.21,2.59-6.06,7.27-5.54,10.73,1.73,5,3.81,5.19,5.71,2.94,5.71,6.41,0,7.26,2.25,5.7a12.48,12.48,0,0,0,4.33-6.74c.17-1.56,3.11-6.4,2.42-6.75s-3.63,0-4.67-1.73-1.39-5.71-.18-4.67,2.6,2.94,4.33,4.49,1.38-3.46,1.9-5c3,1.56,5,4.16,6.75,2.77.54-.43,1.18-.91,1.81-1.37A26,26,0,0,0,146.45,126.88Z"/><path class="al" d="M117,131.34c.69.52,5.88,3.81,6.4,5s2.6,1.38,2.43-1.21.52-6.75,1.21-8,2.42-3.29-1.21-3.81a14.6,14.6,0,0,0-3.67.05,26.25,26.25,0,0,0-5.3,2.65C116.67,128,116.5,131,117,131.34Z"/><path class="al" d="M130.3,128.23c-.87.52-1.91,3.28-1.91,3.28a2.1,2.1,0,0,0,3.29-1.72C131.85,128.4,131.16,127.71,130.3,128.23Z"/></g><polygon class="y" points="218.93 175.26 233.44 173.11 233.71 167.06 217.55 167.06 218.93 175.26"/><path class="am" d="M274.14,145.43c15.74-21.72,16.73-30.31,15.48-34.95s-19.49-13.36-25.07-.21c-9.34-6-25-.37-21.83,11.24C246.5,135.48,274.14,145.43,274.14,145.43Z"/><path class="an" d="M193.44,188.42c-.31.47-2.15,4-1.18,7.09a25.63,25.63,0,0,0,11.9,2.86,41,41,0,0,0,10.6-1.88A9.54,9.54,0,0,0,214,189a70.51,70.51,0,0,1-11.8.85C199.9,189.77,194.92,189.1,193.44,188.42Z"/><path class="ao" d="M194.67,179.72c0,1.79-4,7.65-3.95,12.66a16.7,16.7,0,0,0,2.75,8.76s7.56,5.48,19.81.76c2.62-3.78,3.43-6.1,3.36-9.5s-3.68-9.73-3.71-11.94-5.58-2.41-9.4-2.46S194.69,177.93,194.67,179.72Z"/><g class="ap"><path class="aq" d="M194.61,195.54c0-1.13.63-5.14.91-5.26a16,16,0,0,0,1.28,1.87,13.53,13.53,0,0,1,2.39-1.42,43.49,43.49,0,0,0-.5,5.41"/><path class="aq" d="M210.59,190.75c0,.84.37,4,.49,5.22a22,22,0,0,0,3-.78"/><path class="aq" d="M208.75,191c-1.17,0-2.34.32-3.47.29a23.19,23.19,0,0,0,.28,3.12c.05.65,0,1.31.08,2a10.44,10.44,0,0,0,3.62-.21"/><path class="aq" d="M208.48,193.54a19.31,19.31,0,0,1-2.91.33"/><path class="aq" d="M201,191.16c.75,0,1.47.09,2.22.08"/><path class="aq" d="M200.89,196.33c.6,0,1.44.17,2.36.13"/><path class="aq" d="M202.13,191.17c0,1.28,0,3.93,0,5.2"/></g><path class="ar" d="M191.88,186.88c-.29,2,.17,6.63,2.43,5s1.51-4.18,1.53-5.25,0-3.22,1.89-3,1.62,1.87,1.61,2.75-.18,3,.81,2.84,1.28-1.35,1-2.33-1.52-4.7-.26-5,1.85-.08,2.16.91,1.09,2.64,1.09,2.64.71,1,1.65-.46,1.09-2.81,2-2.8,3.07,1.8,3.87,1.32,2.2-1.53,2.22-2.89-20.29-1.85-20.29-1.85Z"/><path class="as" d="M193.23,180.18c0-.77,0-1.81,0-2.75.07-1.25.4-2.32,2.18-2.3,3.1.05,17.55.44,17.55.44s1.25.07,1.23,1.86,0,2.93,0,2.93Z"/><g class="at"><path class="au" d="M70.35,43a7.59,7.59,0,0,1-3.43-1.92,6.69,6.69,0,0,1-2-3l-.12-1.63c0-.67-.06-1.3,0-1.87a2.6,2.6,0,0,1,.12-1c.09-.07.14-.26.14-.58a1.52,1.52,0,0,1,.07-.65q.12-.45.27-.93a2.63,2.63,0,0,0,.24-.94,2.51,2.51,0,0,0-.05-.55,3,3,0,0,1,.48-.82,1,1,0,0,0,.24-.86.93.93,0,0,1,.09-.53,3.07,3.07,0,0,1,.29-.53,3.71,3.71,0,0,0,.43-.72,4.11,4.11,0,0,1,.22-.77c.14-.42.31-.87.5-1.37s.38-.95.56-1.37a3.79,3.79,0,0,1,.41-.81V22a6.09,6.09,0,0,1,.52-1c0-.16.12-.42.24-.79s.28-.73.44-1.08c.35-.77.79-1.64,1.32-2.62s1.09-2,1.7-2.93,1.19-1.85,1.75-2.64a11.43,11.43,0,0,1,1.47-1.75c.54-.61,1-.93,1.3-1s.72.19,1.2.67a2,2,0,0,1,.48.82,2.74,2.74,0,0,1,.12.84c0,.24-.09.37-.22.4a4.6,4.6,0,0,0-1,1.09c-.45.59-.95,1.28-1.51,2.08S75.51,15.78,75,16.63s-1,1.61-1.37,2.28c-.42.93-1,2.08-1.68,3.46l-.1.24-.09.19c-.49,1-.89,1.9-1.21,2.71s-.64,1.68-1,2.57a2,2,0,0,0-.38,1c-.07,0-.11,0-.14.22a3.49,3.49,0,0,1-.2.6.85.85,0,0,0-.28.6,5.32,5.32,0,0,0,0,.79,14.7,14.7,0,0,0-.63,2.09,19.69,19.69,0,0,0-.41,2.35,10.4,10.4,0,0,0-.07,1.75A2.33,2.33,0,0,0,68.26,39,6.62,6.62,0,0,0,70.06,40l.92.31a2.36,2.36,0,0,0,.72.12,4.12,4.12,0,0,0,1,0c.4-.05.95-.14,1.66-.27h0c.42-.06.86-.15,1.32-.26l1.32-.31L78,39.39q.52-.12.81-.21c.71-.2,1.22-.33,1.54-.41a.8.8,0,0,1,.72.07,1.09,1.09,0,0,1,.34.46,1.14,1.14,0,0,1,0,.69,2.34,2.34,0,0,1-.77.7,12.37,12.37,0,0,1-1.61.89,14.68,14.68,0,0,1-1.85.72,10.29,10.29,0,0,1-2.28.67,14.23,14.23,0,0,1-2.54.24A6.87,6.87,0,0,1,70.35,43Z"/><path class="au" d="M95.74,41.05a6.27,6.27,0,0,1-1-1.32A8.26,8.26,0,0,1,94,37.78a4.41,4.41,0,0,1-.07-1.05,5.33,5.33,0,0,0,0-1,2.85,2.85,0,0,1-.46.69,5.64,5.64,0,0,1-.6.6c-.13.13-.42.38-.86.75a8,8,0,0,1-1.35.89A6.3,6.3,0,0,1,88,39.8a2.26,2.26,0,0,1-1.94-1.06A3.51,3.51,0,0,1,85,37.35a3.6,3.6,0,0,1,0-2.11A18,18,0,0,1,85.47,32a25.64,25.64,0,0,1,1.58-4.3c.67-1.31,1.18-2.28,1.54-2.91a12.1,12.1,0,0,1,.67-1.12,1.45,1.45,0,0,1,1.2,0,1.21,1.21,0,0,1,.58.94A2.16,2.16,0,0,1,91,26.21,18,18,0,0,1,89.74,29q-.67,1.63-1.23,3.27a12.34,12.34,0,0,0-.64,2.78c-.07.77.12,1.24.57,1.4A2,2,0,0,0,90,36.34a6.52,6.52,0,0,0,2.45-1.92,16.71,16.71,0,0,0,2.66-4.66,14.35,14.35,0,0,0,.58-1.7,9.88,9.88,0,0,0,.24-1.66,2,2,0,0,1,.07-1,1.55,1.55,0,0,1,.74-.79,2.22,2.22,0,0,1,.53-.46c.23-.14.37-.14.43,0l.77,0c.13,0,.22,0,.27.21a.83.83,0,0,0,.31.46c.35.29.45.91.29,1.87a19.08,19.08,0,0,1-1.35,4,27.06,27.06,0,0,0-1.22,3,7.9,7.9,0,0,0-.36,2,4.06,4.06,0,0,0,.33,1.63,4,4,0,0,0,1.06,1.4,1.18,1.18,0,0,1,.6.77,3.62,3.62,0,0,1,0,1,1,1,0,0,1-.55.7,2,2,0,0,1-1,.26A1.82,1.82,0,0,1,95.74,41.05ZM94.4,20a2.18,2.18,0,0,1-.51-1,2.51,2.51,0,0,1-.12-.87,3.46,3.46,0,0,1,.65-1c.4-.48.87-1,1.42-1.58S96.9,14.46,97.4,14a5.3,5.3,0,0,1,1.08-.82.76.76,0,0,1,1,.12,6.58,6.58,0,0,1,1,1.23,1.14,1.14,0,0,1-.36,1,10.15,10.15,0,0,1-1.32,1.27l-1.61,1.32A7.22,7.22,0,0,0,96,19.34a2.89,2.89,0,0,1-.74.91C95.06,20.35,94.78,20.25,94.4,20Z"/><path class="au" d="M115.55,42.06a1.19,1.19,0,0,1-1-.17,1.8,1.8,0,0,1-.61-.89,12.27,12.27,0,0,1-.55-2.42,11,11,0,0,1-.07-2.33l.1-1-1.88,1.49a11.18,11.18,0,0,1-3.14,2.06,7.1,7.1,0,0,1-2.67.63,3.74,3.74,0,0,1-1-.39,3.51,3.51,0,0,1-.94-.72,3.92,3.92,0,0,1-.65-.91,3.78,3.78,0,0,1-.17-1.83,11.7,11.7,0,0,1,.58-2.52,18,18,0,0,1,1.15-2.69A11.72,11.72,0,0,1,106.23,28a6.57,6.57,0,0,1,3.41-2.93,4.42,4.42,0,0,1,3.6.53,4.32,4.32,0,0,0,1.56.48c.21,0,.4-.4.56-1.1.12-.51.25-1,.38-1.56s.34-1.24.62-2.14q1.2-3.64,2.09-5.72c.6-1.37,1.13-2.57,1.61-3.6a4.09,4.09,0,0,1,.89-1.37,1.06,1.06,0,0,1,.75-.21,1.44,1.44,0,0,1,1,.38,2.61,2.61,0,0,1,.67,1.06,1.65,1.65,0,0,1,.17.74,2.24,2.24,0,0,1-.32.84c-.41.77-.9,1.79-1.46,3.05s-1.12,2.65-1.68,4.16-1.08,3-1.56,4.46-.88,2.77-1.2,3.89a21,21,0,0,0-.51,2.69c-.14,1.09-.26,2.2-.36,3.34s-.15,2.15-.17,3a8.17,8.17,0,0,0,.08,1.7,4.64,4.64,0,0,1,.26,1.44.81.81,0,0,1-.26.65A1.77,1.77,0,0,1,115.55,42.06Zm-8.12-5.33a4.62,4.62,0,0,0,1.32-.53c.43-.26.89-.56,1.37-.91,1-.74,1.79-1.41,2.5-2A4.63,4.63,0,0,0,114,30.48a2.64,2.64,0,0,0-.17-1.46,2.94,2.94,0,0,0-.84-1,2.39,2.39,0,0,0-1.56-.32,3.53,3.53,0,0,0-2,1,12.86,12.86,0,0,0-2.23,2.83,13.5,13.5,0,0,0-1.61,4.37.7.7,0,0,0,.29.77A2.2,2.2,0,0,0,107.43,36.73Z"/><path class="au" d="M123,39.61a2.18,2.18,0,0,1-.55-1,3.28,3.28,0,0,1-.12-1.16,2.6,2.6,0,0,1,.24-1,1.28,1.28,0,0,1,.12-.6.54.54,0,0,0,.07-.4,1.5,1.5,0,0,1,.1-.68c.09-.32.19-.62.29-.91.22-.51.46-1.13.72-1.85s.49-1.43.72-2.13l.57-1.83c.16-.51.26-.83.29-1,0-.38.26-.59.77-.63a1.11,1.11,0,0,1,.86,0,2.92,2.92,0,0,1,.77.94,1.31,1.31,0,0,1,.29,1.15,6.85,6.85,0,0,1-.62,1.92c-.13.26-.28.63-.46,1.11a6.72,6.72,0,0,0-.36,1.29c-.13.26-.28.62-.46,1.08s-.33.91-.45,1.32a4.51,4.51,0,0,0-.2.7q-.09.45-.24,1a3.27,3.27,0,0,1-.38.89,5.83,5.83,0,0,1-.79,2.3C123.93,40.41,123.54,40.22,123,39.61Zm4.66-19.5a2.16,2.16,0,0,1-.43-.7,3,3,0,0,1-.24-.86c0-.27,0-.41.09-.41.26,0,.56-.3.92-.82a1.92,1.92,0,0,0,.43-1.34.56.56,0,0,1,.14-.36.74.74,0,0,1,.34-.22,1.11,1.11,0,0,1,1.13-.12,2.69,2.69,0,0,1,1,1,2.07,2.07,0,0,1,.24,1.51,5.91,5.91,0,0,1-1.06,1.66,2.34,2.34,0,0,1-1.32,1.05A1.63,1.63,0,0,1,127.65,20.11Z"/><path class="au" d="M137.26,40.62a5,5,0,0,1-2.54-.17,3.73,3.73,0,0,1-1.85-1.39,4.32,4.32,0,0,1-.7-2.53,9.91,9.91,0,0,1,.34-3.33,19.33,19.33,0,0,1,1.42-3.82,17.75,17.75,0,0,1,2-3.32c.64-.76,1.28-1.47,1.92-2.11a6,6,0,0,1,1.73-1.29,4.5,4.5,0,0,1,1.27-.37c.4,0,.73-.07,1-.07a6.51,6.51,0,0,1,1.66.7c.59.33.89.7.89,1.08l.24.24c.19,0,.36.21.5.62a5,5,0,0,1,.27,1.42,2.45,2.45,0,0,1-.24,1.32,4.22,4.22,0,0,1-.67,1.59c-.32.44-.61.67-.87.67l-.36,0c-.11,0-.17.11-.17.27s-.08.22-.26.19a1.15,1.15,0,0,1-.55-.31,1.83,1.83,0,0,1-.44-.65,3.15,3.15,0,0,1,.2-.82c.12-.38.25-.88.38-1.49.19-.89.18-1.48,0-1.75s-.65-.28-1.29,0a9.06,9.06,0,0,0-2.28,1.87,12.77,12.77,0,0,0-2,3.1A25.31,25.31,0,0,0,135.2,35a6,6,0,0,0-.22,1.92c.05.54.12.83.22.86a4.74,4.74,0,0,0,1.82.07,4.68,4.68,0,0,0,1.69-.4,15.45,15.45,0,0,0,1.72-1c.64-.43,1.2-.82,1.69-1.17a3.9,3.9,0,0,0,.57-.48,2.73,2.73,0,0,1,.72-.53c.26-.39.48-.61.67-.67a2.75,2.75,0,0,1,.87-.1,3.19,3.19,0,0,1,.72.29,1.27,1.27,0,0,1,.45.38c.09.13,0,.24-.16.34s-.21.08-.24.24-.08.39-.41.79A16.61,16.61,0,0,1,144,36.82a16.24,16.24,0,0,1-1.47,1.23,2.23,2.23,0,0,1-1,.5c-.32,0-.48.1-.48.29s-.24.22-.7.48-1,.51-1.58.77A9.67,9.67,0,0,1,137.26,40.62Z"/><path class="au" d="M150.28,39.42a1.46,1.46,0,0,0-.48-.6c-.19-.15-.28-.28-.28-.41a2.93,2.93,0,0,0,0-.41.68.68,0,0,0-.21-.41c-.17-.19-.15-.63,0-1.32a20.21,20.21,0,0,1,1-2.55c.45-1,1-2.07,1.59-3.19a5.63,5.63,0,0,0,.77-1,4.51,4.51,0,0,1,.57-.81.53.53,0,0,1,.15-.36.4.4,0,0,1,.33-.17v-.29a1.86,1.86,0,0,1,.46-.82,16.29,16.29,0,0,1,1.13-1.27c.45-.46.91-.91,1.39-1.34a7.76,7.76,0,0,1,1.2-.94A4.94,4.94,0,0,1,160,22.7a2.37,2.37,0,0,1,1.85.48l.48.48c.22.23.49.48.79.75l.94.84,1.78,1.58-.87,2.4a6.57,6.57,0,0,0-.31,3.37,8.23,8.23,0,0,0,.94,2.49,2.45,2.45,0,0,0,1,1,3.71,3.71,0,0,0,1.42.58,1.59,1.59,0,0,1,.72.29.87.87,0,0,1,.33.76,1.35,1.35,0,0,1-.19.77,1,1,0,0,1-.67.39,4.1,4.1,0,0,1-3-.77A8.67,8.67,0,0,1,162.67,35a7.36,7.36,0,0,1-.5-1.08,7.65,7.65,0,0,1-.36-1l-.72.88a9.82,9.82,0,0,1-.82.94,22.8,22.8,0,0,1-5.88,4.64Q151.92,40.47,150.28,39.42Zm2.77-2.72a7.9,7.9,0,0,0,2.23-1.32c1.09-.93,2.18-2,3.29-3.07a25,25,0,0,0,2.66-3.12l1.06-1.73a3.73,3.73,0,0,0-1-1.52,1.7,1.7,0,0,0-.94-.4c-.42,0-1,.38-1.85,1.15a22.52,22.52,0,0,0-2.62,3.07A40.33,40.33,0,0,0,153.21,34c-.32.64-.72,1.55-1.2,2.74C152,37,152.36,36.94,153.05,36.7Z"/><path class="au" d="M188.7,32.6l-.72,0a3.41,3.41,0,0,1-1-.21,1.86,1.86,0,0,1-1-.17,1.49,1.49,0,0,1-.43-.51c-.35-.48-.38-.8-.1-1a6.82,6.82,0,0,1,2.21-.46,18.28,18.28,0,0,1,2.43-.31c1.07-.08,2.23-.14,3.48-.19l3.55-.12c1.12,0,2-.05,2.65-.05a8.75,8.75,0,0,1,1.68.1,2.17,2.17,0,0,1,1,.62,1.38,1.38,0,0,1,.52,1.37c-.12.43-.56.58-1.29.46-.16,0-.41,0-.75,0s-.7.07-1.1.1l-1.18.1-1.58,0c-.87,0-1.87.07-3,.1s-2.21.06-3.22.07Zm6.05,7.06c-.48.35-.8.38-1,.09a6.75,6.75,0,0,1-.46-2.21,18.09,18.09,0,0,1-.31-2.42c-.08-1.08-.14-2.24-.19-3.48s-.09-2.44-.12-3.56-.05-2-.05-2.64a7.57,7.57,0,0,1,.12-1.68,2.49,2.49,0,0,1,.6-1,1.39,1.39,0,0,1,1.37-.53c.43.13.58.56.46,1.3a6.89,6.89,0,0,1,.07.74c0,.34,0,.71.07,1.11s.06.79.1,1.17c0,.2,0,.72,0,1.59s.07,1.86.1,3,.06,2.21.07,3.22,0,1.73,0,2.18q0,.29,0,.72a3.41,3.41,0,0,1-.21,1,1.86,1.86,0,0,1-.17,1A1.51,1.51,0,0,1,194.75,39.66Z"/><path class="au" d="M228.08,43.93a.56.56,0,0,1-.33-.29,2.76,2.76,0,0,1-.19-.77.92.92,0,0,0-.29-.76,2.72,2.72,0,0,0-1.11-.44,3.21,3.21,0,0,1-.77-1.2,9.4,9.4,0,0,1-.36-2.21c-.08-1-.18-2.56-.31-4.61.07-1.12.12-2.06.17-2.83s.1-1.49.17-2.16.13-1.39.21-2.16.2-1.73.36-2.88a10.06,10.06,0,0,1,.12-2.41,6.2,6.2,0,0,0,.08-2.06,10.91,10.91,0,0,0,.43-2.43,10.37,10.37,0,0,1,.43-2.42c.06-.55.14-1.06.22-1.54a7.54,7.54,0,0,0,.12-1.2,5.22,5.22,0,0,1,.09-1.78,1.4,1.4,0,0,1,.77-1,3.91,3.91,0,0,1,.82-.15,1.08,1.08,0,0,1,.77.15,1,1,0,0,1,.52.62,2.31,2.31,0,0,1,.1,1,9.26,9.26,0,0,1,0,1.83c0,.86-.13,1.82-.26,2.86a29.66,29.66,0,0,1-.53,3c-.25,1.32-.45,2.65-.6,4s-.25,2.7-.31,4Q228.23,30,228,32.6a20.72,20.72,0,0,0,0,3.74c0,.1,0,.35.09.77s.15.81.24,1.18.2.55.29.55c.26,0,.51-.26.75-.67A10.18,10.18,0,0,0,230,36.7c.21-.56.41-1.05.6-1.46.41-.8.84-1.68,1.27-2.62s.81-1.85,1.13-2.71a28.5,28.5,0,0,1,1.73-3.46,27.57,27.57,0,0,0,1.63-3.22c.19-.51.54-1.26,1-2.23s1-1.88,1.42-2.72,1.07-1.63,1.56-2.4,1.08-1.79,1.75-3.07a23.2,23.2,0,0,1,2.17-3.17,2.1,2.1,0,0,1,1.53-.86,1.2,1.2,0,0,1,.65,0,2.66,2.66,0,0,1,.46.55,2.1,2.1,0,0,1,.41,1.08,3.43,3.43,0,0,1-.48,1.52,28.7,28.7,0,0,1-1.76,2.73c-.64,1-1.35,2.09-2.13,3.37s-1.51,2.49-2.17,3.62-1.12,2-1.41,2.52a9.82,9.82,0,0,0-.43,1.11,3.48,3.48,0,0,1-.58,1.05,9.53,9.53,0,0,0-1.3,2.07c-.54,1.06-1.07,2.1-1.58,3.12-.58,1.35-1,2.39-1.37,3.15s-.61,1.37-.82,1.85l-.6,1.39L232,39.56a13,13,0,0,1-.65,1.7,6.29,6.29,0,0,0-.45,1.18,3.59,3.59,0,0,1-.89.94,3.45,3.45,0,0,1-1.08.55A1.29,1.29,0,0,1,228.08,43.93Z"/><path class="au" d="M243.42,39.42a1.63,1.63,0,0,0-.48-.6c-.19-.15-.29-.28-.29-.41a2.88,2.88,0,0,0,0-.41.7.7,0,0,0-.22-.41c-.16-.19-.14-.63.05-1.32a18.76,18.76,0,0,1,1-2.55c.45-1,1-2.07,1.59-3.19a5.63,5.63,0,0,0,.77-1,4.51,4.51,0,0,1,.57-.81.53.53,0,0,1,.15-.36.39.39,0,0,1,.33-.17v-.29a1.75,1.75,0,0,1,.46-.82,16.29,16.29,0,0,1,1.13-1.27c.44-.46.91-.91,1.39-1.34a7.76,7.76,0,0,1,1.2-.94,4.94,4.94,0,0,1,2.09-.82,2.37,2.37,0,0,1,1.85.48q.13.15.48.48c.22.23.49.48.79.75l.94.84,1.77,1.58-.86,2.4a6.46,6.46,0,0,0-.31,3.37,8.49,8.49,0,0,0,.93,2.49,2.48,2.48,0,0,0,1,1,3.65,3.65,0,0,0,1.42.58,1.59,1.59,0,0,1,.72.29.87.87,0,0,1,.33.76,1.35,1.35,0,0,1-.19.77,1,1,0,0,1-.67.39,4.14,4.14,0,0,1-3-.77A8.76,8.76,0,0,1,255.81,35a6.42,6.42,0,0,1-.5-1.08,7.65,7.65,0,0,1-.36-1l-.72.88c-.36.44-.63.75-.82.94a22.8,22.8,0,0,1-5.88,4.64Q245.06,40.47,243.42,39.42Zm2.76-2.72a7.8,7.8,0,0,0,2.24-1.32q1.62-1.4,3.29-3.07a25,25,0,0,0,2.66-3.12l1.06-1.73a3.83,3.83,0,0,0-1-1.52,1.7,1.7,0,0,0-.94-.4c-.42,0-1,.38-1.85,1.15A21.83,21.83,0,0,0,249,29.76,37.27,37.27,0,0,0,246.35,34c-.32.64-.72,1.55-1.2,2.74C245.15,37,245.49,36.94,246.18,36.7Z"/><path class="au" d="M266.94,41.14a1.35,1.35,0,0,1-1.47-.38,3.26,3.26,0,0,1-.65-1.92,10.93,10.93,0,0,1,.29-3.07,7.91,7.91,0,0,0,.38-1.13,3.63,3.63,0,0,0,.15-.89c.06-.32.19-.79.38-1.42s.4-1.27.63-1.94.44-1.28.65-1.8.34-.86.4-1,.24-.11.34-.33a1.66,1.66,0,0,0,.14-.68,2.72,2.72,0,0,1,.17-.86,1.69,1.69,0,0,1,.36-.67,1.61,1.61,0,0,1,.12-.56A1.42,1.42,0,0,0,269,24a.68.68,0,0,1,.12-.38.74.74,0,0,0,.12-.39,20.12,20.12,0,0,0,.89-2c.37-.91.77-1.93,1.2-3s.84-2.23,1.23-3.31.69-2,.93-2.77a7.06,7.06,0,0,0,.36-1.37.77.77,0,0,1,.2-.57.74.74,0,0,1,.57-.19.8.8,0,0,1,.36-.2,2,2,0,0,1,.41,0l.77.76a1.29,1.29,0,0,1,.45.77,6,6,0,0,1,.08,1,3.73,3.73,0,0,1-.15,1.11,11.12,11.12,0,0,1-.57,1.39l-1.35,2.83c-.26.64-.53,1.24-.82,1.8a4,4,0,0,0-.43,1,1.47,1.47,0,0,1-.17.57q-.16.39-.36,1c-.12.26-.3.64-.52,1.13s-.46,1-.7,1.59-.44,1-.6,1.44a3.86,3.86,0,0,0-.24.69c0,.13,0,.26,0,.39a.69.69,0,0,1-.22.38c-.13,0-.21.18-.24.53a11.48,11.48,0,0,1-.77,2.54c-.51,1.77-1,3.38-1.42,4.86a13.29,13.29,0,0,0-.64,3.55,14.92,14.92,0,0,1-.05,1.51A.72.72,0,0,1,266.94,41.14Z"/><path class="au" d="M277.66,40.42a1.75,1.75,0,0,1-1-.24,10.84,10.84,0,0,1-.89-.67,6.48,6.48,0,0,1-1.3-1.85,3,3,0,0,1-.24-1.7,2.75,2.75,0,0,0,.1-1.11c-.16-.16-.21-.26-.14-.31a.87.87,0,0,0,.19-.26c.19,0,.25-.18.19-.53a3.85,3.85,0,0,1,.38-1.68,13.25,13.25,0,0,1,1.2-2.45c.2-.32.48-.75.87-1.27s.81-1.06,1.27-1.59A12.71,12.71,0,0,1,281.7,24a8,8,0,0,1,2-.72,7.87,7.87,0,0,1,1.46-.24c.27,0,.65.26,1.13.77A3.89,3.89,0,0,1,287.87,25a4,4,0,0,1,.65,2,11.65,11.65,0,0,1-.22,3.29A13,13,0,0,1,286,34.81a13.57,13.57,0,0,1-2.21,2.57,17.25,17.25,0,0,1-2.4,1.65,9.34,9.34,0,0,1-1.83,1A7.21,7.21,0,0,1,277.66,40.42Zm4.61-5.09a16.24,16.24,0,0,0,1.85-2.45A15,15,0,0,0,285.44,30a4.73,4.73,0,0,0,.24-1.33,9,9,0,0,0,0-1.48c-.05-.47-.17-.73-.36-.8a2.12,2.12,0,0,0-1.39-.21,3.7,3.7,0,0,0-1.78.93,12.18,12.18,0,0,0-2.59,3.1,40.72,40.72,0,0,0-2.17,4.2,3.77,3.77,0,0,0-.31,2.76c.27.69.87.93,1.78.72A7.79,7.79,0,0,0,282.27,35.33Z"/><path class="au" d="M292.88,39.46a1.93,1.93,0,0,1-.6-.67,2.46,2.46,0,0,1,0-1.3,20.92,20.92,0,0,1,.39-2.37c.16-.69.35-1.48.57-2.38a16.57,16.57,0,0,1,.56-2c.3-.93.68-1.94,1.12-3s.9-2.13,1.35-3.1a17,17,0,0,1,1.15-2.19,1.35,1.35,0,0,1,.94-.24,1.41,1.41,0,0,1,.93.44c.36.28.41.79.17,1.51A33.87,33.87,0,0,1,298,27.55c-.39.87-.67,1.52-.87,1.95a1.79,1.79,0,0,0-.24.77c0,.08.18,0,.44-.12a5,5,0,0,1,1.05-1.23c.51-.46,1.06-.92,1.64-1.37s1.12-.84,1.63-1.2.86-.57,1.05-.67a4.29,4.29,0,0,1,.89-.41,6.76,6.76,0,0,0,.7-.26,4.08,4.08,0,0,1,2.26-.39,1.6,1.6,0,0,1,1.44.87,1.21,1.21,0,0,0,.57.77c.13,0,.21.09.24.28s-.16.37-.5.41-.76.09-1.27.12a4.33,4.33,0,0,0-1.11.24l-1.15.48q-1.83,1.07-3.48,2.07a14.76,14.76,0,0,0-3.2,2.69,8.29,8.29,0,0,0-.67.91l-.72,1.15a2.77,2.77,0,0,0-.48,1.06c-.16.54-.3,1.06-.41,1.56a6.43,6.43,0,0,0-.16.89,4.54,4.54,0,0,1-.63,1.34c-.38.52-.7.77-1,.77S293.39,40,292.88,39.46Z"/><path class="au" d="M318.37,39.46a4.13,4.13,0,0,1-2.33,1,5,5,0,0,1-4.63-2.11,5.34,5.34,0,0,1-1.06-2.43,14.13,14.13,0,0,1-.05-3.57,9.27,9.27,0,0,1,1.2-3.77,14.85,14.85,0,0,1,2.57-3.39,9.22,9.22,0,0,1,3-2.07,2.19,2.19,0,0,1,1.23-.45l1.56.12a5,5,0,0,1,1.65.43,2.39,2.39,0,0,1,.89.77,3.8,3.8,0,0,1,1,1.42,4.16,4.16,0,0,1,.24,1.37,6.14,6.14,0,0,1-1.41,2.56,9.23,9.23,0,0,1-3.2,2.48,6.82,6.82,0,0,1-2.3.29,3.79,3.79,0,0,1-2.07-.63q-.92-.37-1.2.12a8.35,8.35,0,0,0-.53,2.43,4.67,4.67,0,0,0,.29,2.66,1.85,1.85,0,0,0,1.3,1c.64.13,1.14.21,1.51.26a2.24,2.24,0,0,0,1.37-.41,8.11,8.11,0,0,1,1-.55.86.86,0,0,0,.31-.19l.6-.6.53-.51a.64.64,0,0,1,.43-.16.59.59,0,0,1,.44.21,1.06,1.06,0,0,0,.38.31c.32,0,.39.2.22.58a5.4,5.4,0,0,1-1,1.37A9.62,9.62,0,0,1,318.37,39.46Zm-.05-10.18a5.82,5.82,0,0,0,1.11-.69,5.49,5.49,0,0,0,1-1,1.72,1.72,0,0,0,.41-.94,1.36,1.36,0,0,0-.63-1.13,2.2,2.2,0,0,0-1.87-.12,3.5,3.5,0,0,0-1.2.7,12.16,12.16,0,0,0-1.27,1.22,12.52,12.52,0,0,0-1,1.2c-.24.36-.33.56-.27.63s.37.28.82.36a6.63,6.63,0,0,0,1.51.07A3.83,3.83,0,0,0,318.32,29.28Z"/><path class="au" d="M329.15,41.34a7.37,7.37,0,0,1-1.73-1,4.3,4.3,0,0,1-1.06-1.08.94.94,0,0,1,.15-.6c.09-.11.37-.16.84-.14s1.22.09,2.28.22c.38,0,.87,0,1.44-.1a10.74,10.74,0,0,0,1.61-.29q.75-.2.84-.48c.16,0,.19,0,.1-.17l-.34-.36a.72.72,0,0,1-.43-.17.79.79,0,0,0-.43-.16c0-.16-.16-.35-.46-.56a5.32,5.32,0,0,0-.94-.5c-.7-.58-1.31-1.1-1.82-1.56s-.71-.78-.58-.94v-.24c-.22,0-.47-.32-.74-1a4.5,4.5,0,0,1-.41-1.73,4.21,4.21,0,0,1,.34-1.46,10.86,10.86,0,0,1,.91-1.85,8,8,0,0,1,1.2-1.59,24.11,24.11,0,0,1,2.16-1.75c.86-.62,1.72-1.18,2.57-1.68a9.28,9.28,0,0,1,2.14-1,4.31,4.31,0,0,1,1.6-.34,2.56,2.56,0,0,1,1.33.34,3,3,0,0,1,.88.69,7.94,7.94,0,0,1,.72.91,2.76,2.76,0,0,1,.41.8,10,10,0,0,1-.09,1.27,8.27,8.27,0,0,1-.27,1.22c-.11.36-.28.53-.5.53a.27.27,0,0,0-.24.29,1.68,1.68,0,0,1-.72,1.11,4.4,4.4,0,0,1-1.59.74.61.61,0,0,1-.81-.5,1.41,1.41,0,0,1-.2-.34c0-.1-.11-.14-.24-.14a.89.89,0,0,1-.28-.63,1,1,0,0,1,.28-.53c.16,0,.37-.18.63-.55a8.73,8.73,0,0,0,.69-1.2,2.64,2.64,0,0,0,.32-.89c0-.19,0-.3-.07-.33a1.06,1.06,0,0,0-.46-.05c-.45.19-1,.45-1.63.77s-1.25.63-1.8.93a5.8,5.8,0,0,0-1.23.84l-.24.41c0,.05-.11.07-.24.07s-.1-.07-.31.17-.47.57-.77,1-.59.82-.86,1.22-.48.7-.6.89a1.36,1.36,0,0,0-.22.55,3.39,3.39,0,0,0-.12.84c-.13.39-.11.65,0,.79s.51.44,1.05.89c1.12.84,2,1.52,2.64,2.07a16.43,16.43,0,0,1,1.45,1.34,2.26,2.26,0,0,1,.57,1,2.59,2.59,0,0,1,.53,2.21,3,3,0,0,1-1.63,1.35,5.56,5.56,0,0,1-1.59.38,20.7,20.7,0,0,1-2.25.17A13.39,13.39,0,0,1,329.15,41.34Z"/><path class="av" d="M123.34,70.59a3.6,3.6,0,0,1-1.71-.88,3.84,3.84,0,0,1-1.09-1.7,6.1,6.1,0,0,1-.42-2.53,13.21,13.21,0,0,1,.46-3.19c.08-.29.15-.6.21-.91s.1-.51.12-.62.15-.41.3-.76.33-.77.53-1.22.4-.91.59-1.37.36-.86.5-1.22a10,10,0,0,1,.76-1.36c.33-.53.68-1,1-1.58s.69-1,1-1.37a4.84,4.84,0,0,1,.63-.71l.33-.31a.72.72,0,0,1,.37-.2.78.78,0,0,1,.37-.42,1,1,0,0,1,.49-.16,1.09,1.09,0,0,1,.84-.17c.21.08.38.35.5.81a.64.64,0,0,1,0,.42,1.63,1.63,0,0,1-.52.3c-.15.06-.35.15-.58.27a1.86,1.86,0,0,0-.51.36c-.14.17-.29.34-.46.51a2.49,2.49,0,0,1-.4.35c-.27.11-.41.23-.41.37a7.93,7.93,0,0,1-.84,1.34c-.18.29-.4.66-.65,1.09s-.44.76-.58,1-.25.46-.33.62a3,3,0,0,1-.36.5,2.86,2.86,0,0,1-.07.32,2.32,2.32,0,0,1-.28.58,8.06,8.06,0,0,1-.56,1.37c-.1.24-.23.57-.38,1s-.27.79-.37,1.16a3.5,3.5,0,0,0-.15.79s-.06,0-.08.12,0,.28-.09.56-.11.75-.2,1.38a11,11,0,0,0,.06,1.72,3.12,3.12,0,0,0,.33,1.14,4.74,4.74,0,0,0,.68.94,2.22,2.22,0,0,0,.51.35,2,2,0,0,0,.6.14l.79.48a1.09,1.09,0,0,1-.36.66A1,1,0,0,1,123.34,70.59Z"/><path class="av" d="M132.21,68.06a.54.54,0,0,1-.49-.08.79.79,0,0,1-.29-.43,5.27,5.27,0,0,1-.27-1.17,5.57,5.57,0,0,1,0-1.13l0-.48-.9.72a5.6,5.6,0,0,1-1.52,1,3.53,3.53,0,0,1-1.29.31,2.11,2.11,0,0,1-.51-.19,1.7,1.7,0,0,1-.45-.35,1.85,1.85,0,0,1-.31-.44,1.81,1.81,0,0,1-.08-.88,5.7,5.7,0,0,1,.28-1.22,8.06,8.06,0,0,1,.55-1.29,5.51,5.51,0,0,1,.78-1.13,3.17,3.17,0,0,1,1.64-1.41,2.12,2.12,0,0,1,1.74.25,2.33,2.33,0,0,0,.75.24c.11,0,.19-.2.27-.54s.12-.5.19-.75.16-.6.3-1c.38-1.18.72-2.09,1-2.76s.54-1.24.77-1.74a2.15,2.15,0,0,1,.43-.66.5.5,0,0,1,.36-.1.69.69,0,0,1,.46.18,1.33,1.33,0,0,1,.33.51.76.76,0,0,1,.08.36,1.22,1.22,0,0,1-.15.41c-.2.37-.44.86-.71,1.47s-.54,1.28-.81,2-.52,1.45-.75,2.16-.43,1.34-.58,1.88a10.59,10.59,0,0,0-.25,1.29c-.06.53-.12,1.07-.17,1.61s-.07,1-.08,1.46a4.21,4.21,0,0,0,0,.83,2,2,0,0,1,.13.69.4.4,0,0,1-.13.32A.87.87,0,0,1,132.21,68.06Zm-3.91-2.57a2,2,0,0,0,.63-.26c.21-.12.43-.27.67-.44.46-.35.86-.68,1.2-1a2.22,2.22,0,0,0,.67-1.35,1.27,1.27,0,0,0-.08-.7,1.43,1.43,0,0,0-.4-.5,1.25,1.25,0,0,0-.76-.15,1.68,1.68,0,0,0-1,.5A6.33,6.33,0,0,0,128.17,63a6.63,6.63,0,0,0-.78,2.11.35.35,0,0,0,.14.37C127.66,65.56,127.91,65.56,128.3,65.49Z"/><path class="av" d="M141.73,67.57a2.85,2.85,0,0,1-.46-.63,4,4,0,0,1-.37-.94,2.39,2.39,0,0,1,0-.51,2.19,2.19,0,0,0,0-.47,1.22,1.22,0,0,1-.22.34,2,2,0,0,1-.29.29l-.41.36a3.83,3.83,0,0,1-.65.43A3.1,3.1,0,0,1,138,67a1.07,1.07,0,0,1-.93-.51,1.66,1.66,0,0,1-.53-.67,1.81,1.81,0,0,1,0-1,9.38,9.38,0,0,1,.23-1.59,12.77,12.77,0,0,1,.77-2.07c.32-.64.57-1.1.74-1.4a4.78,4.78,0,0,1,.33-.55.7.7,0,0,1,.57,0,.57.57,0,0,1,.28.45,1,1,0,0,1,0,.79,9.21,9.21,0,0,1-.59,1.37c-.22.52-.42,1-.59,1.58a5.66,5.66,0,0,0-.32,1.34c0,.37.07.59.28.67a.94.94,0,0,0,.73-.07,3.13,3.13,0,0,0,1.18-.92,8.35,8.35,0,0,0,1.29-2.25,7.39,7.39,0,0,0,.28-.83,3.77,3.77,0,0,0,.11-.8.88.88,0,0,1,0-.49.74.74,0,0,1,.36-.39,1.12,1.12,0,0,1,.25-.22c.11-.07.18-.06.21,0l.37,0c.06,0,.11,0,.13.11a.4.4,0,0,0,.15.22c.17.14.22.44.14.9a9.45,9.45,0,0,1-.65,2,13.49,13.49,0,0,0-.59,1.43,3.74,3.74,0,0,0-.17,1,1.84,1.84,0,0,0,.67,1.46.61.61,0,0,1,.29.38,2.47,2.47,0,0,1,0,.48.52.52,0,0,1-.27.34,1,1,0,0,1-.5.13A.89.89,0,0,1,141.73,67.57Z"/><path class="av" d="M146.9,67.62a.66.66,0,0,1-.71-.19,1.52,1.52,0,0,1-.31-.92A5.16,5.16,0,0,1,146,65a2.85,2.85,0,0,0,.18-.54,1.64,1.64,0,0,0,.07-.43c0-.15.1-.38.19-.68s.19-.62.3-.94.21-.62.31-.87.17-.41.2-.48.12,0,.16-.16a.74.74,0,0,0,.07-.32,1.35,1.35,0,0,1,.08-.42.84.84,0,0,1,.18-.32,1,1,0,0,1,.05-.27.69.69,0,0,0,.06-.24.33.33,0,0,1,.06-.19A.33.33,0,0,0,148,59a10.45,10.45,0,0,0,.43-1l.58-1.47c.21-.54.4-1.07.59-1.6s.33-1,.45-1.33a3,3,0,0,0,.17-.66.36.36,0,0,1,.1-.28.37.37,0,0,1,.27-.09.31.31,0,0,1,.18-.09.69.69,0,0,1,.2,0c.12.13.24.25.37.37a.72.72,0,0,1,.22.37,3.58,3.58,0,0,1,0,.49,1.7,1.7,0,0,1-.07.53,5.86,5.86,0,0,1-.28.68c-.14.29-.35.75-.65,1.36a8.76,8.76,0,0,1-.39.87,1.82,1.82,0,0,0-.21.5.87.87,0,0,1-.08.28c-.05.12-.11.28-.17.46s-.15.31-.26.55-.22.49-.33.76-.22.5-.29.7a1.72,1.72,0,0,0-.12.33,1.15,1.15,0,0,1,0,.19.3.3,0,0,1-.11.18c-.06,0-.1.09-.11.26a6.14,6.14,0,0,1-.37,1.23l-.69,2.34a6.76,6.76,0,0,0-.31,1.71c0,.37,0,.62,0,.73A.36.36,0,0,1,146.9,67.62Z"/><path class="av" d="M152.41,67c-.59.08-1,.13-1.33.15a1.57,1.57,0,0,1-.66-.06,1.87,1.87,0,0,1-.47-.32.42.42,0,0,1-.15-.44,3.47,3.47,0,0,1,.77-1c.3-.35.6-.69.91-1s.59-.57.83-.77a4,4,0,0,1,.37-.29l.68-.48,1.36-.92.7-.54.43-.31.36-.27-.71-.07a5.67,5.67,0,0,0-1,0h-.83a1.51,1.51,0,0,1-.37-.06h-.35a1.47,1.47,0,0,1-.42-.1,2.63,2.63,0,0,1-.56-.27c-.17-.1-.26-.21-.27-.32a1.81,1.81,0,0,0,.37-.26l.29-.18a.13.13,0,0,1,.19,0l1.44,0c.9,0,1.56,0,2,.08a3.33,3.33,0,0,1,.95.19,2.34,2.34,0,0,1,.62.42.85.85,0,0,1,.3.72,1.37,1.37,0,0,1-.33.63,1.54,1.54,0,0,0-.17.19c-.05.07-.1.11-.15.11l-1.11.71c-.3.21-.59.39-.87.56a2.1,2.1,0,0,0-.52.37l-.4.24a3.32,3.32,0,0,0-.32.25,3.81,3.81,0,0,1-.31.32,3.49,3.49,0,0,1-.53.42c-.14.12-.3.28-.49.46l-.71.7q.93-.12,1.62-.18a10.45,10.45,0,0,1,1.37,0c.72,0,1.3,0,1.72-.06s.75,0,1,0a1.18,1.18,0,0,1,.52.11.64.64,0,0,1,.29.18.82.82,0,0,1,.18.29c0,.1.05.18,0,.22l-.72.06c-.42,0-.9.07-1.44.1-.71.07-1.4.14-2.06.24Z"/><path class="av" d="M165.76,67.57a2.85,2.85,0,0,1-.46-.63,3.62,3.62,0,0,1-.37-.94,1.55,1.55,0,0,1,0-.51,3.15,3.15,0,0,0,0-.47,1.5,1.5,0,0,1-.22.34,2.64,2.64,0,0,1-.29.29L164,66a3.18,3.18,0,0,1-.65.43A3.12,3.12,0,0,1,162,67a1.1,1.1,0,0,1-.94-.51,1.63,1.63,0,0,1-.52-.67,1.81,1.81,0,0,1,0-1,9.38,9.38,0,0,1,.23-1.59,11.88,11.88,0,0,1,.77-2.07c.32-.64.57-1.1.74-1.4s.28-.49.32-.55a.72.72,0,0,1,.58,0,.57.57,0,0,1,.28.45,1,1,0,0,1,0,.79,8.26,8.26,0,0,1-.59,1.37c-.21.52-.41,1-.59,1.58A5.58,5.58,0,0,0,162,64.7c0,.37.06.59.28.67a.94.94,0,0,0,.73-.07,3.13,3.13,0,0,0,1.18-.92,8.35,8.35,0,0,0,1.29-2.25,7.14,7.14,0,0,0,.27-.83,3.74,3.74,0,0,0,.12-.8,1,1,0,0,1,0-.49.83.83,0,0,1,.36-.39,1.49,1.49,0,0,1,.26-.22c.11-.07.18-.06.21,0l.37,0c.06,0,.1,0,.13.11a.4.4,0,0,0,.15.22c.17.14.21.44.14.9a10.11,10.11,0,0,1-.65,2,11.61,11.61,0,0,0-.59,1.43,3.77,3.77,0,0,0-.18,1,2.06,2.06,0,0,0,.16.79,1.9,1.9,0,0,0,.51.67.57.57,0,0,1,.29.38,1.83,1.83,0,0,1,0,.48.59.59,0,0,1-.27.34,1,1,0,0,1-.5.13A.85.85,0,0,1,165.76,67.57Z"/><path class="av" d="M170.43,66.81a1.23,1.23,0,0,1-.29-.33,1.31,1.31,0,0,1,0-.62,9.84,9.84,0,0,1,.19-1.15c.08-.33.17-.71.28-1.15a8.84,8.84,0,0,1,.26-1c.15-.44.33-.93.55-1.46s.43-1,.65-1.49a8.84,8.84,0,0,1,.55-1.06.65.65,0,0,1,.46-.11.68.68,0,0,1,.45.21c.17.14.19.38.08.73a16.82,16.82,0,0,1-.71,1.63c-.18.42-.32.73-.42.94s-.13.33-.11.37.08,0,.21-.06a2.44,2.44,0,0,1,.51-.59c.24-.22.51-.44.78-.66s.55-.41.79-.58a4.51,4.51,0,0,1,.51-.32,1.89,1.89,0,0,1,.43-.2,2.49,2.49,0,0,0,.34-.13,1.89,1.89,0,0,1,1.09-.18.75.75,0,0,1,.69.41.59.59,0,0,0,.28.37c.06,0,.1,0,.12.14s-.09.18-.25.2l-.61.06a1.53,1.53,0,0,0-.54.12c-.15.06-.34.13-.55.23l-1.68,1a7.29,7.29,0,0,0-1.54,1.3,3.36,3.36,0,0,0-.33.44c-.11.17-.22.36-.34.56A1.19,1.19,0,0,0,172,65c-.07.26-.14.51-.19.75a2.33,2.33,0,0,0-.08.43,2.32,2.32,0,0,1-.31.65c-.18.25-.34.37-.46.37S170.68,67.06,170.43,66.81Z"/><path class="av" d="M179.14,66.79a.69.69,0,0,0-.23-.29.27.27,0,0,1-.14-.2c0-.06,0-.13,0-.2a.4.4,0,0,0-.11-.2q-.12-.14,0-.63a8.22,8.22,0,0,1,.46-1.23c.21-.49.47-1,.76-1.54a2.51,2.51,0,0,0,.37-.49,2.92,2.92,0,0,1,.28-.39.34.34,0,0,1,.07-.18.23.23,0,0,1,.16-.08v-.14a.92.92,0,0,1,.22-.39c.15-.19.33-.39.55-.62s.44-.44.67-.64a4.93,4.93,0,0,1,.58-.46,2.47,2.47,0,0,1,1-.39,1.1,1.1,0,0,1,.89.23c.05,0,.12.13.23.23l.38.36.46.41.85.76-.41,1.16a3.14,3.14,0,0,0-.15,1.62,4,4,0,0,0,.45,1.21,1.26,1.26,0,0,0,.47.49,1.76,1.76,0,0,0,.69.27.85.85,0,0,1,.34.14.43.43,0,0,1,.17.37.58.58,0,0,1-.1.37.45.45,0,0,1-.32.19,2,2,0,0,1-1.43-.37,4.2,4.2,0,0,1-1.21-1.53,3.19,3.19,0,0,1-.25-.52,4.82,4.82,0,0,1-.17-.5l-.35.43q-.25.31-.39.45a11.1,11.1,0,0,1-2.84,2.24A2,2,0,0,1,179.14,66.79Zm1.33-1.31a4,4,0,0,0,1.08-.64c.52-.45,1-.94,1.59-1.48a12.75,12.75,0,0,0,1.28-1.51l.51-.84a1.82,1.82,0,0,0-.5-.73.77.77,0,0,0-.45-.19,1.63,1.63,0,0,0-.89.55,10.91,10.91,0,0,0-1.26,1.49,17.36,17.36,0,0,0-1.28,2c-.15.31-.34.75-.58,1.32C180,65.6,180.14,65.59,180.47,65.48Z"/><path class="av" d="M197.28,66.88a1.08,1.08,0,0,1-.26-.47,1.3,1.3,0,0,1-.06-.55,1.08,1.08,0,0,1,.12-.47.6.6,0,0,1,0-.29.27.27,0,0,0,0-.19.74.74,0,0,1,0-.33c0-.15.1-.3.14-.44s.23-.54.35-.89.24-.69.35-1l.28-.88c.07-.25.12-.4.14-.46s.12-.29.37-.31a.53.53,0,0,1,.41,0,1.44,1.44,0,0,1,.37.45.63.63,0,0,1,.14.56,3.27,3.27,0,0,1-.3.93c-.06.12-.13.3-.22.53a3.74,3.74,0,0,0-.17.63,4.26,4.26,0,0,0-.22.52,6.08,6.08,0,0,0-.22.64,1.8,1.8,0,0,0-.09.33c0,.15-.07.3-.12.46a1.55,1.55,0,0,1-.19.43,2.64,2.64,0,0,1-.38,1.12C197.74,67.26,197.55,67.17,197.28,66.88Zm2.25-9.41a1,1,0,0,1-.21-.34,1.32,1.32,0,0,1-.11-.41c0-.14,0-.2,0-.2s.27-.15.44-.4a.9.9,0,0,0,.21-.64.3.3,0,0,1,.23-.28.51.51,0,0,1,.55-.06,1.25,1.25,0,0,1,.5.5,1,1,0,0,1,.11.73,2.77,2.77,0,0,1-.51.8,1.13,1.13,0,0,1-.63.51A.81.81,0,0,1,199.53,57.47Z"/><path class="av" d="M210.45,66.55a1.36,1.36,0,0,1-.76-.19,1.61,1.61,0,0,1-.51-.66A6.24,6.24,0,0,1,209,65a5.3,5.3,0,0,1-.06-.77,1,1,0,0,1,.07-.47.46.46,0,0,0,.08-.34c0-.16,0-.34,0-.52s-.09-.48-.22-.52a.8.8,0,0,0-.57.15l-1.09.68c-.45.29-.91.6-1.4.94a16.82,16.82,0,0,0-1.38,1.07,3.06,3.06,0,0,0-.61.84c-.07.19-.17.29-.29.29s-.23.07-.31,0a3,3,0,0,1-.36-.26q-.16-.19-.33-.36a1.42,1.42,0,0,1-.21-.27,4.89,4.89,0,0,1,.07-.49c.05-.24.11-.49.18-.74s.12-.41.15-.48.14-.08.19-.24a3.22,3.22,0,0,1,.27-.51,3.85,3.85,0,0,1,.24-.75c.14-.31.25-.6.36-.85a4.73,4.73,0,0,0,.45-.92,3.65,3.65,0,0,0,.18-.93.16.16,0,0,1,0-.17.18.18,0,0,1,.16-.08.4.4,0,0,1,.44-.11,1,1,0,0,1,.46.36,1.53,1.53,0,0,1,.34,1.15,5.12,5.12,0,0,1-.76,1.68c-.1.25-.19.43-.24.57a.94.94,0,0,0-.08.31l.8-.55.5-.33a3.9,3.9,0,0,1,.53-.42c.28-.2.58-.4.89-.59a3,3,0,0,1,.71-.34,3.52,3.52,0,0,1,.39-.17,1.11,1.11,0,0,1,.3-.08.93.93,0,0,1,.48.2,3.3,3.3,0,0,1,.54.46,1.34,1.34,0,0,1,.31.45,1.21,1.21,0,0,0,0,.19,1.13,1.13,0,0,0,0,.18,3.22,3.22,0,0,1,.11.81,8.86,8.86,0,0,1,0,.93c0,.28-.08.44-.16.49a.11.11,0,0,0,.12.11v.12c-.08,0-.11.06-.1.2a1.48,1.48,0,0,0,.15.43,2.37,2.37,0,0,0,.27.37.58.58,0,0,1,.23.52Q210.83,66.46,210.45,66.55Z"/><path class="av" d="M216.22,67.36a2.29,2.29,0,0,1-1.23-.08,1.8,1.8,0,0,1-.89-.67,2.09,2.09,0,0,1-.33-1.22,4.5,4.5,0,0,1,.16-1.61,9.37,9.37,0,0,1,.68-1.84,8.41,8.41,0,0,1,1-1.6c.31-.37.61-.71.92-1a2.88,2.88,0,0,1,.84-.62,2.2,2.2,0,0,1,.61-.18l.48,0a3.4,3.4,0,0,1,.8.33c.28.17.42.34.42.53l.12.11q.14,0,.24.3a2.35,2.35,0,0,1,.13.69,1.13,1.13,0,0,1-.11.63,2.07,2.07,0,0,1-.33.77c-.15.22-.29.32-.42.32h-.17s-.08.06-.08.13,0,.11-.13.1a.57.57,0,0,1-.26-.16.62.62,0,0,1-.21-.31,1.43,1.43,0,0,1,.09-.39c.06-.19.12-.43.19-.72s.08-.72,0-.85-.32-.13-.62,0a4.2,4.2,0,0,0-1.1.91,6.3,6.3,0,0,0-1,1.49,12.52,12.52,0,0,0-.78,2.28,2.72,2.72,0,0,0-.11.93c0,.26.06.4.11.42a2.43,2.43,0,0,0,.88,0,2.15,2.15,0,0,0,.81-.2,9.25,9.25,0,0,0,.83-.49l.81-.57a1.58,1.58,0,0,0,.28-.23,1.23,1.23,0,0,1,.35-.26.79.79,0,0,1,.32-.32,1.45,1.45,0,0,1,.42-.05,1.51,1.51,0,0,1,.35.14.53.53,0,0,1,.22.19c0,.06,0,.11-.08.16s-.1,0-.12.11,0,.19-.2.39a6.92,6.92,0,0,1-.61.63,5.82,5.82,0,0,1-.71.59,1,1,0,0,1-.47.25c-.16,0-.23,0-.23.14s-.12.11-.34.23-.48.25-.76.37A3.92,3.92,0,0,1,216.22,67.36Z"/><path class="av" d="M223.93,67.62a.65.65,0,0,1-.71-.19,1.52,1.52,0,0,1-.31-.92A5.11,5.11,0,0,1,223,65a3.86,3.86,0,0,0,.19-.54,1.64,1.64,0,0,0,.07-.43c0-.15.09-.38.18-.68s.2-.62.31-.94.21-.62.31-.87a4.68,4.68,0,0,1,.2-.48c.06,0,.11,0,.16-.16a.92.92,0,0,0,.07-.32,1.11,1.11,0,0,1,.08-.42.85.85,0,0,1,.17-.32.74.74,0,0,1,.06-.27.69.69,0,0,0,.06-.24.33.33,0,0,1,.06-.19.32.32,0,0,0,0-.19,8.26,8.26,0,0,0,.43-1c.18-.44.37-.93.58-1.47s.41-1.07.59-1.6.34-1,.46-1.33a3.77,3.77,0,0,0,.17-.66.32.32,0,0,1,.37-.37.28.28,0,0,1,.17-.09l.2,0,.37.37a.61.61,0,0,1,.22.37,3.47,3.47,0,0,1,0,.49,2.06,2.06,0,0,1-.07.53,5.86,5.86,0,0,1-.28.68l-.65,1.36a8.76,8.76,0,0,1-.39.87,1.82,1.82,0,0,0-.21.5.87.87,0,0,1-.08.28,3.7,3.7,0,0,0-.18.46l-.25.55-.34.76-.29.7a1.37,1.37,0,0,0-.11.33,1.11,1.11,0,0,1,0,.19.28.28,0,0,1-.1.18c-.06,0-.1.09-.12.26a5.48,5.48,0,0,1-.37,1.23c-.24.85-.47,1.63-.68,2.34a6.34,6.34,0,0,0-.31,1.71,5.4,5.4,0,0,1,0,.73A.33.33,0,0,1,223.93,67.62Z"/><path class="av" d="M233.78,67.57a2.57,2.57,0,0,1-.46-.63,4,4,0,0,1-.38-.94,1.93,1.93,0,0,1,0-.51,3.15,3.15,0,0,0,0-.47,1.5,1.5,0,0,1-.22.34,2.64,2.64,0,0,1-.29.29L232,66a3.47,3.47,0,0,1-.65.43,3.12,3.12,0,0,1-1.26.53,1.09,1.09,0,0,1-.94-.51,1.63,1.63,0,0,1-.52-.67,1.81,1.81,0,0,1,0-1,9.38,9.38,0,0,1,.23-1.59,12.55,12.55,0,0,1,.76-2.07c.33-.64.58-1.1.75-1.4a5.49,5.49,0,0,1,.32-.55.72.72,0,0,1,.58,0,.6.6,0,0,1,.28.45,1,1,0,0,1,0,.79,8.26,8.26,0,0,1-.59,1.37c-.21.52-.41,1-.59,1.58A5.58,5.58,0,0,0,230,64.7c0,.37.06.59.28.67a.94.94,0,0,0,.73-.07,3.21,3.21,0,0,0,1.18-.92,8.1,8.1,0,0,0,1.28-2.25,5.79,5.79,0,0,0,.28-.83,4.5,4.5,0,0,0,.12-.8,1,1,0,0,1,0-.49.83.83,0,0,1,.36-.39,1.19,1.19,0,0,1,.26-.22c.11-.07.17-.06.21,0l.37,0c.06,0,.1,0,.12.11a.54.54,0,0,0,.15.22c.17.14.22.44.14.9a8.87,8.87,0,0,1-.65,2,13.49,13.49,0,0,0-.59,1.43,4.24,4.24,0,0,0-.17,1,1.84,1.84,0,0,0,.67,1.46.57.57,0,0,1,.29.38,1.51,1.51,0,0,1,0,.48.54.54,0,0,1-.26.34,1.06,1.06,0,0,1-.5.13A.85.85,0,0,1,233.78,67.57Z"/><path class="av" d="M238.3,66.88a1.08,1.08,0,0,1-.26-.47,1.3,1.3,0,0,1-.06-.55,1.25,1.25,0,0,1,.12-.47.76.76,0,0,1,.05-.29.27.27,0,0,0,0-.19.65.65,0,0,1,.05-.33c0-.15.09-.3.13-.44s.23-.54.35-.89.24-.69.35-1l.28-.88c.07-.25.12-.4.14-.46s.12-.29.37-.31a.53.53,0,0,1,.41,0,1.58,1.58,0,0,1,.38.45.63.63,0,0,1,.13.56,3.27,3.27,0,0,1-.3.93c-.06.12-.13.3-.22.53a3.74,3.74,0,0,0-.17.63,4.26,4.26,0,0,0-.22.52,6.08,6.08,0,0,0-.22.64,1.8,1.8,0,0,0-.09.33,4.48,4.48,0,0,1-.12.46,1.55,1.55,0,0,1-.19.43,2.64,2.64,0,0,1-.38,1.12C238.76,67.26,238.57,67.17,238.3,66.88Zm2.25-9.41a1.44,1.44,0,0,1-.21-.34,1.32,1.32,0,0,1-.11-.41c0-.14,0-.2,0-.2s.27-.15.44-.4a.9.9,0,0,0,.21-.64.31.31,0,0,1,.07-.18.3.3,0,0,1,.17-.1.49.49,0,0,1,.54-.06,1.25,1.25,0,0,1,.5.5,1,1,0,0,1,.11.73,2.77,2.77,0,0,1-.51.8,1.13,1.13,0,0,1-.63.51A.81.81,0,0,1,240.55,57.47Z"/><path class="av" d="M249.35,68.06a.56.56,0,0,1-.5-.08.85.85,0,0,1-.29-.43,6.69,6.69,0,0,1-.27-1.17,5.5,5.5,0,0,1,0-1.13l0-.48-.9.72a5.46,5.46,0,0,1-1.52,1,3.44,3.44,0,0,1-1.28.31,2.11,2.11,0,0,1-.51-.19,1.93,1.93,0,0,1-.46-.35,1.85,1.85,0,0,1-.31-.44,1.81,1.81,0,0,1-.08-.88,5.7,5.7,0,0,1,.28-1.22,8.12,8.12,0,0,1,.56-1.29,5.48,5.48,0,0,1,.77-1.13,3.15,3.15,0,0,1,1.65-1.41,2.13,2.13,0,0,1,1.74.25,2.33,2.33,0,0,0,.75.24c.1,0,.19-.2.26-.54s.13-.5.19-.75.16-.6.3-1c.39-1.18.72-2.09,1-2.76s.54-1.24.78-1.74a2.18,2.18,0,0,1,.42-.66.5.5,0,0,1,.36-.1.71.71,0,0,1,.47.18,1.31,1.31,0,0,1,.32.51.76.76,0,0,1,.08.36,1.22,1.22,0,0,1-.15.41c-.2.37-.43.86-.7,1.47s-.55,1.28-.82,2-.52,1.45-.75,2.16-.42,1.34-.58,1.88a10.82,10.82,0,0,0-.24,1.29c-.07.53-.13,1.07-.18,1.61s-.07,1-.08,1.46a4.82,4.82,0,0,0,0,.83,2.71,2.71,0,0,1,.13.69.4.4,0,0,1-.13.32A.92.92,0,0,1,249.35,68.06Zm-3.92-2.57a2.06,2.06,0,0,0,.64-.26,6.87,6.87,0,0,0,.66-.44c.46-.35.86-.68,1.2-1a2.23,2.23,0,0,0,.68-1.35,1.26,1.26,0,0,0-.09-.7,1.43,1.43,0,0,0-.4-.5,1.23,1.23,0,0,0-.75-.15,1.67,1.67,0,0,0-1,.5A6.33,6.33,0,0,0,245.3,63a6.88,6.88,0,0,0-.77,2.11.33.33,0,0,0,.14.37C244.79,65.56,245,65.56,245.43,65.49Z"/><path class="av" d="M253.54,66.79a.69.69,0,0,0-.23-.29.27.27,0,0,1-.14-.2c0-.06,0-.13,0-.2a.4.4,0,0,0-.11-.2c-.07-.09-.07-.3,0-.63a8.22,8.22,0,0,1,.46-1.23c.22-.49.47-1,.76-1.54a2.51,2.51,0,0,0,.37-.49,2.92,2.92,0,0,1,.28-.39.34.34,0,0,1,.07-.18.23.23,0,0,1,.16-.08v-.14a.87.87,0,0,1,.23-.39,6.59,6.59,0,0,1,.54-.62c.22-.22.44-.44.67-.64a4.93,4.93,0,0,1,.58-.46,2.52,2.52,0,0,1,1-.39,1.1,1.1,0,0,1,.89.23l.23.23.39.36.45.41.85.76-.41,1.16a3.14,3.14,0,0,0-.15,1.62,4,4,0,0,0,.45,1.21,1.26,1.26,0,0,0,.47.49,1.76,1.76,0,0,0,.69.27.85.85,0,0,1,.34.14.43.43,0,0,1,.17.37.58.58,0,0,1-.1.37.45.45,0,0,1-.32.19,2,2,0,0,1-1.42-.37,4.11,4.11,0,0,1-1.22-1.53,3.4,3.4,0,0,1-.24-.52,3.66,3.66,0,0,1-.18-.5l-.35.43q-.25.31-.39.45a11.1,11.1,0,0,1-2.84,2.24A2,2,0,0,1,253.54,66.79Zm1.33-1.31a4,4,0,0,0,1.08-.64c.52-.45,1.05-.94,1.59-1.48a12.75,12.75,0,0,0,1.28-1.51l.51-.84a1.82,1.82,0,0,0-.5-.73.77.77,0,0,0-.45-.19,1.63,1.63,0,0,0-.89.55,10.91,10.91,0,0,0-1.26,1.49,17.36,17.36,0,0,0-1.28,2c-.15.31-.34.75-.58,1.32C254.37,65.6,254.54,65.59,254.87,65.48Z"/><path class="av" d="M263.11,70.4a1.87,1.87,0,0,1-.68-.32.81.81,0,0,1-.27-.56.53.53,0,0,0,0-.2.64.64,0,0,1,.09-.29,1,1,0,0,0,.67,0,1.33,1.33,0,0,0,.65-.09,3.24,3.24,0,0,0,.53-.51l.59-.81a3.64,3.64,0,0,0,.46-.77,2.59,2.59,0,0,0,.53-.47A4.53,4.53,0,0,0,266,66a2.21,2.21,0,0,1,.07-.43,2.67,2.67,0,0,1,.35-.75c.17-.38.33-.71.48-1a1.6,1.6,0,0,0,.24-.52,1.15,1.15,0,0,0,.11-.56.57.57,0,0,0,.24-.31,1.11,1.11,0,0,0,.09-.5,3.27,3.27,0,0,1,.2-.55,2.71,2.71,0,0,0,.24-1c.17-.55.29-1,.38-1.49s.15-.93.2-1.45.09-1.2.13-2,.06-1.21.07-1.56a4,4,0,0,0,0-.8,1.19,1.19,0,0,0-.22-.56c-.15-.49-.28-.74-.39-.74s-.1-.06-.15-.2a.77.77,0,0,1,0-.52.24.24,0,0,1,.07-.21.34.34,0,0,1,.3-.09.64.64,0,0,1,.36.13,1.13,1.13,0,0,1,.27.22c.06-.06.15,0,.28.22a4.5,4.5,0,0,1,.43,1,3.68,3.68,0,0,1,.21.55,2.36,2.36,0,0,1,.1.49c0,.17,0,.42,0,.74s0,.75-.07,1.31a16.45,16.45,0,0,1-.11,1.77c-.07.64-.15,1.27-.24,1.88s-.19,1.16-.3,1.65-.26.89-.44,1.45-.39,1.13-.62,1.71-.43,1.08-.62,1.52a6.15,6.15,0,0,1-.48,1s0,.1-.13.28-.27.42-.46.71l-.59.88-.51.78a3.9,3.9,0,0,1-.79.83,3.41,3.41,0,0,1-.86.51A1.15,1.15,0,0,1,263.11,70.4Z"/></g></g></svg>