<svg xmlns="http://www.w3.org/2000/svg" xmlns:xlink="http://www.w3.org/1999/xlink" viewBox="0 0 126.7 140.91"><defs><style>.a{opacity:0.3;}.b{fill:url(#a);}.c{fill:#f9d8be;}.d{fill:#67bae1;}.e{fill:#97cc7d;}.f{fill:#f9e27b;}.g{fill:#f8d8bf;}.h{fill:#f8d8be;}.i{fill:#644a34;}.j{fill:#684123;}</style><linearGradient id="a" x1="453.7" y1="852.43" x2="453.7" y2="816.69" gradientTransform="translate(-493.09 -628.26) rotate(-8.8)" gradientUnits="userSpaceOnUse"><stop offset="0" stop-color="#79a5b2" stop-opacity="0"/><stop offset="0.01" stop-color="#79a5b2" stop-opacity="0.02"/><stop offset="0.2" stop-color="#79a5b2" stop-opacity="0.32"/><stop offset="0.38" stop-color="#79a5b2" stop-opacity="0.56"/><stop offset="0.56" stop-color="#79a5b2" stop-opacity="0.75"/><stop offset="0.72" stop-color="#79a5b2" stop-opacity="0.89"/><stop offset="0.87" stop-color="#79a5b2" stop-opacity="0.97"/><stop offset="1" stop-color="#79a5b2"/></linearGradient></defs><g class="a"><path class="b" d="M39.37,118.82l15.38,10.25c-2.52,3-1.16,8.36,12,10.31,19,2.81,67.27,1.92,59-4.13s-45.49-14.38-45.49-14.38l-9.39-8.43-8-.37-.12,7.62-15.13-3.87Z"/></g><path class="c" d="M39.6,76c-.53,15.8,3.48,28.38,2.95,30s-9.11,8.3-1.08,8,8.84-4,8.84-9.37a51.92,51.92,0,0,1,.27-7L57,97.16s3.21,6.16,4.28,8.3,3.5,5.65,10.71,2.41c5.35-2.41-.27-3.22-2.68-5.89S64,82.71,59.41,70.66C46.29,65,39.6,76,39.6,76Z"/><path class="d" d="M65.05,89.39,40.71,94c.43,3,.9,5.48,1.27,7.46a80.78,80.78,0,0,0,8.36.37,34.58,34.58,0,0,1,.24-4.09L57,97.16l1.74,3.34a24.33,24.33,0,0,0,8.18-4.36C66.33,94.18,65.71,91.88,65.05,89.39Z"/><path class="e" d="M59.41,70.66C46.29,65,39.6,76,39.6,76a106.86,106.86,0,0,0,1.72,21.8c5.45.08,17-.24,24.92-4C64.41,87.23,62.21,78.09,59.41,70.66Z"/><path class="f" d="M62.51,80.16a74.53,74.53,0,0,1-22.85,3.26c.14,2.85.4,5.53.7,8,7-.38,18-3.35,23.86-5.07C63.68,84.32,63.11,82.24,62.51,80.16Z"/><path class="g" d="M57,82.44c5.82,1.59,14.18,1.34,14.45-.27s-.53-4.28-4-2.94-4.82-2-8.3-2.14C54.32,76.82,51.11,80.83,57,82.44Z"/><path class="h" d="M8.82,51.93C-3.49,51.66-3,77.62,10.69,66.38c9.37,8.83,18.47,13.65,42,6.16s27.57-17.67,27.83-22c11.24,3.21,10.17-17.94,1.88-13.12C69.85,24.62,11.5,14.45,8.82,51.93Z"/><path class="i" d="M27,61c.59,2.13-.08,4.18-1.51,4.58s-3.06-1-3.65-3.16.09-4.19,1.51-4.58S26.43,58.89,27,61Z"/><path class="i" d="M68,51.12c.59,2.14-.08,4.19-1.51,4.59s-3.06-1-3.65-3.16.09-4.19,1.51-4.58S67.38,49,68,51.12Z"/><path class="i" d="M42.6,66.05c1.63,5.1,11,3.76,8.92-2.87"/><path class="j" d="M15.24,50.32c-1.07,3.75-7.49,12-10.7.53S8.28,20.34,28.89,13.38s54.34-1.07,52.73,22.49c-1.33,5.08-6.69,5.88-12.84.53-2.41,7.23-13.12,11.78-20.35,5.89-3.21,6.69-10.17,10.17-15.52,4C29.16,60,15.24,50.32,15.24,50.32Z"/><path class="j" d="M34.78,11.78C29.16,11.24,22.47,8,36.39,0c-7.5,2.94-18.47,8.3-7.5,13.38C33.44,14.45,34.78,11.78,34.78,11.78Z"/></svg>