<svg xmlns="http://www.w3.org/2000/svg" xmlns:xlink="http://www.w3.org/1999/xlink" viewBox="0 0 200 140"><defs><style>.a,.f,.h,.k,.l,.m{fill:none;}.b{fill:#e1e2b9;}.c{fill:#808180;}.d{clip-path:url(#a);}.e{fill:#526952;}.f{stroke:#fbba7e;}.f,.h,.i,.k,.l,.m{stroke-linecap:round;stroke-linejoin:round;stroke-width:1.16px;}.g{clip-path:url(#b);}.h,.i{stroke:#bcd978;}.i{fill:url(#c);}.j{clip-path:url(#d);}.k,.l,.m{stroke:#fceb7f;}.l{stroke-dasharray:3.41 3.41;}.m{stroke-dasharray:3.59 3.59;}</style><clipPath id="a"><path class="a" d="M132,115.74c16.45-1.41,41,4.4,38.21-23.09s-34.93-25.74-54.64-22.8-33.47,9.51-29.2,32.6C89.82,121.19,104.07,118.14,132,115.74Z"/></clipPath><clipPath id="b"><path class="a" d="M57.78,75.45C43.06,74.26,21.72,80.34,22,53.05s29-26,46.77-23.32S102.32,32.08,100.33,55C98.7,73.65,82.76,77.46,57.78,75.45Z"/></clipPath><linearGradient id="c" x1="67.03" y1="40.87" x2="67.22" y2="41.38" gradientTransform="translate(3.3 4.26) rotate(0.07)" gradientUnits="userSpaceOnUse"><stop offset="0" stop-color="#f9f2eb"/><stop offset="1" stop-color="#eddfd4"/></linearGradient><clipPath id="d"><path class="a" d="M135.2,16.24c-14.1,3.07-36.72-.08-28.82,26.49s35.7,21.54,52.34,16.64S188.85,52.11,180.5,30C173.73,12.06,159.13,11,135.2,16.24Z"/></clipPath></defs><path class="b" d="M45.67,20.67c27.58-2.92,84.81,1.37,110.75,8.75,17.2,4.89,38.25,25.25,33.25,62.25-4.78,35.38-35,29.75-75.1,33.09-58.9,4.91-98.9.91-104-47.14C7.54,49.49,9.66,27.46,45.67,20.67Z"/><path class="c" d="M85.24,64.39C94.83,70.53,97.78,73.53,99,81.68l5.73-1.82s-5.22-14.08-16.41-17.1C84.58,62.62,85.24,64.39,85.24,64.39Z"/><path class="c" d="M118.52,46.27c-11,3.52-15.39,3.95-23.21,0l-1.8,5.35s15.38,4.42,24.63-2.13C120.45,46.82,118.52,46.27,118.52,46.27Z"/><path class="c" d="M59,90C49.9,80,51.44,74.91,51.82,66.5c-7.12-1.15-6.15.42-6.15.42S43.45,81.82,59,90Z"/><g class="d"><rect class="e" x="98.97" y="50.21" width="58.61" height="88.71" transform="translate(33.57 222.74) rotate(-89.94)"/><path class="f" d="M86.32,86.49c10,3.44,28.14,8.5,36.88,4.68s15.72-5.43,22.27-4.62,26.62,4.27,26.62,4.27"/><path class="f" d="M84.12,96.37C90,97.59,114.24,100.64,126,95s19.21-4.41,25.54-4.2S172.09,92,172.09,92"/><path class="f" d="M85.86,105c7.63,0,29.68,1.85,39.29-4.59s19.43-6.23,26.2-6.23,20.3-1,20.3-1"/><path class="f" d="M94.36,113.52c7.2-.19,19.64-.78,30.35-8.43s22.49-7.65,27.07-7.84S171,95.66,171,95.66"/><path class="f" d="M170.33,97.27s-17.25,2-24.23,3.81c-19.65,5.22-24,13.08-36.47,16.29"/><path class="f" d="M125.4,77.55c2,.41,4.15-.6,3.27-1.81s-3.59-1.61-3.49,2.82.32,7.57.32,7.57,1.09-2.22,7.75-1.41c0-4.13.22-7,.23-8.77s4-2.62,3.6-1.31-1.86,1.92-3.49,1.81"/><path class="f" d="M115.48,68.37c1.09.81,3.71-1.41,4.69-.8a81.72,81.72,0,0,0-4.92,9.17c-1,2.52,1.74,5,3.38,3.13s-2-3.33-2.94-3.34"/><path class="f" d="M115,70.48c.76.21,2.84-1.1,3.49-.7"/><path class="f" d="M150,104.73c1.31.44,3-2.44,4.15-2.16a79.93,79.93,0,0,0-1.44,10.15c-.05,2.68,3.42,4.25,4.3,2s-3-2.57-3.95-2.27"/><path class="f" d="M150.35,105.87c.8,0,2.3-1.9,3.06-1.71"/><path class="f" d="M129,112.67c1.74,0,4,.62,2.94,1.93s-3.16.1-3.16-3.34a46.15,46.15,0,0,1,.45-6.25s-6.56.7-7.75-1.42c-.44,4.44-1.1,7.56-1.21,9.18s2.4,2.22,2.94,1.11-.43-2.12-2.4-2.12"/><path class="f" d="M141,77.76c2.4-.2,6.11,1.92,4.25,2.93s-4.58.59-4.36-2.63a32.32,32.32,0,0,1,1.75-7.36c2.07,1.11,8.73,2.63,10.15,2.23-1.1,4.54-3.72,10.08-.89,10.28s4.59-3.42-1-2.92"/><path class="f" d="M102.67,96.39c-5.88-5,2-9.07,6.34-7.66s7,11.71.2,13.11-18.76-1.43-16.13-10.3S106,83.49,108.81,78.45s2-15.49-3.7-8.68c-1.53,1.81-.45,8.07,1.07,16.54s6.95,23.4,1.93,25.61-10.26-.61-5.89-5.85"/></g><g class="g"><rect class="e" x="32.69" y="8.77" width="58.6" height="88.71" transform="matrix(0, -1, 1, 0, 8.8, 115.07)"/><polygon class="h" points="58.9 53.44 53.23 65.62 65.8 65.53 62.25 53.44 58.9 53.44"/><line class="h" x1="50.53" y1="53.62" x2="56.91" y2="56.34"/><line class="h" x1="63.61" y1="57.31" x2="71.67" y2="54.03"/><polyline class="h" points="57.53 66.11 57.41 73.65 53.75 74.81"/><polyline class="h" points="62.03 66.11 61.7 73.27 65.26 74.53"/><path class="h" d="M55.35,46.86c2,2.32,5.54,4.45,9.21.68"/><line class="h" x1="58.6" y1="42.6" x2="58.6" y2="44.83"/><line class="h" x1="62.06" y1="42.61" x2="62.05" y2="44.83"/><path class="h" d="M56.62,40.67c-3.15,2-6.18,4.83-4.2,7.83s8.68,6.78,13.08,3.78,4.3-6.18,2.94-7.73-3.35-4.75-5.75-4.84A24.39,24.39,0,0,0,56.62,40.67Z"/><line class="h" x1="52.75" y1="39.69" x2="54.31" y2="42.21"/><line class="h" x1="56.72" y1="37.96" x2="57.77" y2="40.09"/><line class="h" x1="61.65" y1="36.71" x2="61.75" y2="39.51"/><line class="h" x1="66.77" y1="39.23" x2="65.83" y2="40.97"/><line class="h" x1="69.59" y1="42.32" x2="67.71" y2="43.58"/><line class="i" x1="71.58" y1="45.33" x2="69.17" y2="45.61"/><polygon class="h" points="33.78 50.51 33.14 61.73 35.55 62.12 35.77 50.12 33.78 50.51"/><path class="h" d="M35.78,50.12l2.09,1.26,3.35-.09V49.45s1.67-.48,1.67-.87-1.25-2.22-.83-3.09,2.83-.68,2-2.32-.31-2.71-2.4-2.62-.42-.48-2.09-1.64-2.93-2.13-4.71-1.17S29,39,29,40.64s-5.65.57-3.77,3.86,3.14,1.07,3.34,4,0,3.77,2.09,3A40.21,40.21,0,0,1,35.78,50.12Z"/><polygon class="h" points="80.99 51.33 80.98 61.1 95.63 61.12 95.65 50.96 80.99 51.33"/><polygon class="h" points="88.22 43.41 97.32 50.77 79.53 51.04 88.22 43.41"/><polyline class="h" points="91.57 46.02 91.58 43.22 94.61 43.13 94.5 47.57"/><path class="h" d="M93.15,39.84s-.1-4.26-2-4.26c0,0-2.19-4.84-6.07-2.33-1.68-1.94-5.44-4.65-7.64-1.94-4-.49-3.56,3.38.31,3.38-.84,2.22,5.44,4.46,6.07,2,1,.77,3.66,2.42,5.23,1C88.54,39.93,91,40.32,91,40.32"/><rect class="h" x="82.8" y="54.87" width="7.16" height="4.92" transform="translate(28.9 143.62) rotate(-89.91)"/><path class="h" d="M81,61.1a24,24,0,0,1-11.63,6.76,170.72,170.72,0,0,1-24.81,3.07c-8.37.47-10.47,3.08-11,3.85s28.56,8.74,32.75,3.91,9.54-7.25,10.9-8.11,11.73-6.86,13.41-9.37"/></g><g class="j"><rect class="e" x="115.16" y="-5.31" width="58.6" height="88.71" transform="translate(105.26 183.47) rotate(-89.94)"/><path class="k" d="M170.05,42c2.64-.2,4.61,2.08,7,1.87"/><path class="k" d="M158.64,21.26A4.89,4.89,0,0,0,154,26.64a2.7,2.7,0,0,0,2.42,2.78c2,0,2.59-1.82,3.41-3.15"/><path class="k" d="M163.45,25.34A4,4,0,0,0,163,23.5c-1.8-.23-2.06.16-2.8,1.48-.49.85-1.77,3.06-.63,3.9,2.82,2.06,3.47-4.47,3.48-5.23,0,1.72-.45,5.1,2.21,4.53s4-4.72,4-7c-.56,1.64-1.33,3.85-1,5.69.25,1.5,3.11,3.1,3.61.94"/><path class="k" d="M166.86,22.94a14.91,14.91,0,0,1,4.82.56"/><path class="k" d="M119.09,32c-1.46,0-2.94,0-4.39,0,0-2.09.18-5.88-.62-7.76"/><path class="k" d="M122.71,25.12c-.16-.37-.79-1.47-.8-1.49"/><path class="k" d="M153,35.53a7.23,7.23,0,0,0-.8-1.11"/><path class="k" d="M125.91,29.76c-1,.78-2.37,2.32-3.79,2.38a6.19,6.19,0,0,1-.42-4.62"/><path class="k" d="M131.94,26.24c-1.7-.6-5.35.11-4.44,2.4.7,1.79,4.73.18,4,2.57-.91.46-3.86,1.35-4-.16"/><path class="k" d="M145.38,26.81c-1.29-.11-4-.35-4,1.66s2.84,1.46,4.2,1.52c.24,1.81-2.93,2.41-4.19,1.45"/><path class="k" d="M137,26.61c-2.24-.22-5.13,1.21-4.22,3.71.37,1,1.3,1.8,2.37,1,.84-.6.83-4,1.05-4.58,0,1-.28,2.64.54,3.42s2.4.88,2.87-.05"/><path class="k" d="M139.16,25.69A2.53,2.53,0,0,1,140.37,24"/><path class="k" d="M159.21,45.56c-2.73-2.78-6,1.84-6.24,3.89s-.8,7,2.81,6.32c2.89-.56,4.49-3.86,5.12-6,.39-1.32,1.11-3.12,2.48-3.71,1.14-.5,3-.22,3.44.91-1.86-.31-3.66-1.75-5,.07-.93,1.3-.5,3.83-.42,5.34,1.58.74,4.32,1.12,5.36-.65s0-4.85.59-6.88c-.12,1.63-1.57,8.87,2.86,6.65,4.06-2,.36-9,4.7-11.31-1.27,2.17-2.2,3.73-2.09,6.48.08,2.24,1.38,4.76,4.2,4.83"/><path class="k" d="M125.88,52.75c0-1.62.59-3.93-1.33-4.65.39.56.71,1.1,1.09,1.63,0-1.09,1.33-2.53,2.66-1.76s.79,4.38.79,5.67c-.35-1.45-.81-4.81,1-5.54,3.44-1.38,3,3.61,3,5.22"/><path class="k" d="M136.33,47.94a3.5,3.5,0,0,0,2.37,4c1.13-1.42,2.93-1.84,2.61-3.8-.12,2.24-4.69,5.92-5.41,6.64s-1.7,1.21-2.4,2"/><path class="k" d="M130.34,60.5c.59.06,1.17.09,1.73.1"/><path class="l" d="M135.48,60.35a15.2,15.2,0,0,0,7.86-3.5c2.5-2.47,2.92-5.49,3.48-8.7,1.11-6.3-6.33-6.79-11.4-7-5.7-.27-14.15-.14-16.31,6.06a15.85,15.85,0,0,0-.45,6.31c.23,1.21,2,3.33,5.43,5.32"/><path class="k" d="M125.59,59.61c.5.25,1,.49,1.58.72"/><path class="k" d="M127.94,16.4a16.61,16.61,0,0,1,1.73,0"/><path class="m" d="M133.21,17a74,74,0,0,1,7.1,2.4c2,.72,5.32,1.7,7.05,3.05,2.94,2.31,4.24,6.57,1.23,9.75-1.19,1.26-2.17,2.53-3.86,3.14A24.42,24.42,0,0,0,142,36.38a18.45,18.45,0,0,1-7.22,1.88,71.69,71.69,0,0,1-14.64.23c-3.44-.44-8.45-3.05-12.28-5.31"/><path class="k" d="M106.31,32.25c-.53-.32-1-.63-1.47-.92"/><path class="k" d="M152.6,37.57c-.31,1.82,2.8,4.46,5,3.56,1.82-.4,2.16-5.08,1.8-8.12-.35,1.43-1.36,6.64.84,7.23,3.39.91,5.17-5,5.6-6.65-1-.12-1.34-.15-1.38.71,3.45.37,5.81,3.11,2.19,4.22"/><path class="k" d="M152.6,37.57c-.43,2.36,3,3.62-.81,5"/><path class="k" d="M156.41,34.8h4.22"/></g></svg>