<svg xmlns="http://www.w3.org/2000/svg" viewBox="0 0 200 140"><defs><style>.a{fill:#a79f9a;}.b{fill:#ffcd36;}.c{fill:#f9a837;}.d{fill:#fbdc3c;}.e{fill:#fffcfc;}.f{fill:none;stroke:#231f20;stroke-miterlimit:10;stroke-width:1.52px;}.g{fill:#f9a838;}.h{fill:#d38043;}.i{fill:#38394e;}.j{fill:#fffffc;}.k{fill:#f9df3e;}.l{fill:#ee3f31;}.m{fill:#c8977d;}.n{fill:#644a34;}.o{fill:#80542d;}.p{fill:#e2b79c;}.q{fill:#342f34;}.r{fill:#ec2178;}.s{fill:#2fbfce;}.t{fill:#1f9248;}.u{fill:#af66a0;}.v{fill:#7d552d;}.w{fill:#c8977c;}.x{fill:#f8d8be;}.y{fill:#ddc35b;}.z{fill:#f58636;}</style></defs><path class="a" d="M60,129.35c27.64-1,73.9,6.77,109.11-9.28,24.55-11.18,37.46-45.46,16.07-75.69s-53.1-31.37-81-30S49,16.09,31.85,24.77C14.28,33.66,3.31,51.36,4,85.22,4.64,114.84,23.46,127.59,60,129.35Z"/><path class="b" d="M11.58,100.85c-1-12.18,1.69-27.06,29.43-24.7,5.42-16.91,12.86-43.64,26.4-41.61S172.3,50.1,172.3,50.1s17.59,1.69,17.59,23.69-6.77,52.44-6.77,52.44Z"/><polygon class="c" points="15.3 96.12 184.81 120.48 183.12 125.89 16.99 101.87 15.3 96.12"/><path class="d" d="M21.05,81.91l-4.11-.39c-5.34,5-5.92,12.59-5.36,19.33l5.41.8Z"/><path class="e" d="M26.77,88.73c-.51,3-2,5.33-3.27,5.11s-1.91-2.86-1.4-5.9,2-5.33,3.26-5.11S27.28,85.69,26.77,88.73Z"/><line class="f" x1="12.25" y1="86.64" x2="16.31" y2="87.66"/><line class="f" x1="11.92" y1="90.36" x2="15.3" y2="91.38"/><line class="f" x1="10.9" y1="93.41" x2="15.64" y2="94.42"/><line class="f" x1="182.78" y1="111.68" x2="187.86" y2="113.03"/><line class="f" x1="181.77" y1="114.73" x2="187.52" y2="116.08"/><polygon class="g" points="77.05 44.26 67.41 108.97 89.23 111.77 99.38 47.56 77.05 44.26"/><path class="g" d="M69.44,42.74c-6.6-1-8.89-1.27-10.92,2.29S48.37,67.86,48.37,72.69c6.35,2.53,14.21,2.53,17.26,2.53C67.15,63.55,69.44,42.74,69.44,42.74Z"/><polygon class="g" points="105.72 48.83 101.16 80.05 123.23 83.85 127.8 52.64 105.72 48.83"/><polygon class="g" points="129.58 84.36 133.64 52.89 155.72 56.45 151.66 87.91 129.58 84.36"/><path class="g" d="M162.57,57.46s13.7,1.27,15.73,1.52,8.38,4.32,7.36,12.44-1.78,21.82-1.78,21.82l-25.37-4.06Z"/><polygon class="h" points="80.09 49.59 77.05 68.37 82.13 69.89 85.17 50.61 80.09 49.59"/><polygon class="h" points="89.48 50.86 94.31 51.62 92.53 70.66 86.69 69.89 89.48 50.86"/><polygon class="h" points="86.19 75.22 81.62 107.2 87.2 107.96 91.26 75.98 86.19 75.22"/><polygon class="h" points="81.87 74.46 76.54 73.95 71.47 105.17 77.05 105.67 81.87 74.46"/><ellipse class="i" cx="45.61" cy="108.63" rx="13.87" ry="14.09"/><ellipse class="j" cx="45.83" cy="108.93" rx="7.65" ry="7.79"/><path class="k" d="M28.15,102.49c1-4.35,7.64-14.09,18.73-13s17.69,9.29,17.84,18-7.49,6.6-7.49,1.65-3.15-10.64-7.35-11.54c-4.46-1-11.09-1.05-14.54,6.6-.74,1.64-.77,3.39-1.5,4.19-2.66,2.92-6,.29-6.14-1.94C27.55,103.54,28.15,102.49,28.15,102.49Z"/><ellipse class="i" cx="143.46" cy="123.07" rx="13.87" ry="14.09"/><path class="j" d="M151.33,123.37a7.65,7.65,0,1,1-7.65-7.8A7.73,7.73,0,0,1,151.33,123.37Z"/><path class="k" d="M126,116.92c1.05-4.34,7.65-14.09,18.74-13s17.69,9.3,17.84,18-7.5,6.6-7.5,1.65-3.15-10.64-7.34-11.54c-4.46-1-11.1-1-14.54,6.59-.75,1.65-.77,3.4-1.5,4.2-2.67,2.92-6,.29-6.15-2C125.39,118,126,116.92,126,116.92Z"/><path class="l" d="M112,74.58c1,2.91-2.17,5.54-4.83,7s-7.94.32-8.92-1.46a9.49,9.49,0,0,1-.75-4.52Z"/><path class="m" d="M129.87,73.48C121.23,71,116,74.81,114.19,77c-2.39-1.46-5.64,6-1.14,4.93.66,3.85,3,6.25,10.89,8.15s11.2.29,12.59-1.85c2.89,3.35,6.5-2.88,2.79-3.67C137.11,79.38,138.5,76,129.87,73.48Z"/><path class="n" d="M131,86.14c-.22.66,0,1.31.4,1.46s1-.27,1.2-.93,0-1.32-.4-1.47S131.22,85.47,131,86.14Z"/><path class="n" d="M117.46,82.22c-.22.66,0,1.31.4,1.46s1-.27,1.19-.93,0-1.32-.39-1.46S117.68,81.56,117.46,82.22Z"/><path class="n" d="M125.32,87.66c-.47,1.62-3.43,1.3-2.83-.81"/><path class="o" d="M114,77.69a4.11,4.11,0,0,1,0-2.28A9.22,9.22,0,0,1,116.68,72c.59-.24.48-.86,1.69-1.44a38.46,38.46,0,0,1,7.1-2c.94,0,3.54,1.06,4.55,1.23A13.81,13.81,0,0,1,134,70.88a21.39,21.39,0,0,0,3.61,2.48c.7.2,1.22,1.45,1.51,2.29s1.64,2.86,1.49,4a26.77,26.77,0,0,1-.77,3.74c-.14.31-1.75,2.71-2.3.93a9,9,0,0,1-.63-2.69,1.28,1.28,0,0,0-.6-1.39,6.61,6.61,0,0,1-1.93-1.42c-.23-.42-.15-.51-1-.69A4.5,4.5,0,0,1,131,76.69c-.76-.79-1.34.21-2.07-.29s-1.3-1.36-2.38-1.26a4.89,4.89,0,0,1-2.21-.22c-.7-.2-1.51.39-2.28.23s-2.43-.69-3.36-.08-2.16.85-2.53,1.73-.72,1.72-1.39,1.42A2.43,2.43,0,0,1,114,77.69Z"/><path class="p" d="M105.37,60.8c-9-.08-13,5-14.13,7.66-2.69-.76-3.78,7.31.25,5,1.68,3.53,4.54,5.22,12.7,4.88S115,75.6,115.8,73.17c3.7,2.43,5.46-4.54,1.68-4.29C114,64.5,114.37,60.89,105.37,60.8Z"/><path class="n" d="M109.91,72.67c0,.69.32,1.28.78,1.3s.87-.53.9-1.22-.32-1.28-.78-1.3S109.94,72,109.91,72.67Z"/><path class="n" d="M95.81,72.59c0,.7.32,1.28.78,1.3s.87-.53.9-1.22-.32-1.28-.78-1.3S95.84,71.9,95.81,72.59Z"/><path class="n" d="M104.86,75.69c0,1.68-3,2.18-3,0"/><path class="q" d="M93.65,66.35V74.6c0,.67,0,3.11-2.94,1.59s-1.94-5-1.94-7.23S91.3,57.61,98,56.26s11.94-1,15,.93,7.15,5.55,6.73,11.77-1.85,6.73-3,7.15-2.1,1.18-2.27-1.35L113.83,66s-6.39.92-7.65.84a7.53,7.53,0,0,0-.76-1.26L105,66.77a47.93,47.93,0,0,1-6.3.43c-.26-.93-.51-1.94-.51-1.94l-.33,1.85A10.54,10.54,0,0,1,93.65,66.35Z"/><path class="r" d="M113.79,58.53c.77-.26,1.29-4.7-2.23-3.53a2.82,2.82,0,0,0-1.51,2.19C110,58,111.06,59.46,113.79,58.53Z"/><path class="r" d="M114.17,58.45c-.77.26-1.16,4.28,2.35,3.1A2.79,2.79,0,0,0,118,59.37C118.12,58.53,116.78,57.57,114.17,58.45Z"/><path class="r" d="M114.88,59.21c-.46.37-2.64,1-2.27-1.27s3-.16,2.61.55Z"/><path class="s" d="M179.57,88.67c-.51,3-4.57,3.81-7.61,3.81s-7.11-3.55-7.11-5.58a9.51,9.51,0,0,1,1.52-4.32Z"/><path class="t" d="M164.17,66.51c1.53,2.68-1.13,5.84-3.49,7.76s-7.76,1.74-9,.16a9.43,9.43,0,0,1-1.54-4.3Z"/><path class="u" d="M132.46,67.14c-.11,3.09-4,4.38-7.05,4.77s-7.51-2.58-7.78-4.6a9.49,9.49,0,0,1,1-4.47Z"/><path class="v" d="M144.09,73.17a.86.86,0,1,1-1.69.34.86.86,0,1,1,1.69-.34Z"/><path class="v" d="M145,71.69a.86.86,0,1,1-1-.71A.9.9,0,0,1,145,71.69Z"/><path class="v" d="M144.25,72.47a.57.57,0,1,1-.67-.47A.58.58,0,0,1,144.25,72.47Z"/><path class="v" d="M145.12,71.13a.58.58,0,0,1-.43.7.6.6,0,0,1-.24-1.17A.58.58,0,0,1,145.12,71.13Z"/><path class="v" d="M145.87,70.31a.86.86,0,1,1-1-.71A.9.9,0,0,1,145.87,70.31Z"/><path class="v" d="M147.2,74.5a.9.9,0,0,1-.4,1.19.91.91,0,0,1-.77-1.64A.9.9,0,0,1,147.2,74.5Z"/><path class="v" d="M147.72,72.85a.86.86,0,1,1-1.16-.44A.87.87,0,0,1,147.72,72.85Z"/><path class="v" d="M147.19,73.78a.57.57,0,0,1-.26.78.58.58,0,0,1-.77-.29.6.6,0,0,1,.26-.79A.59.59,0,0,1,147.19,73.78Z"/><path class="v" d="M147.72,72.28a.57.57,0,1,1-1,.48.57.57,0,1,1,1-.48Z"/><path class="v" d="M148.24,71.31a.87.87,0,0,1-.39,1.18.88.88,0,0,1-1.16-.45.86.86,0,1,1,1.55-.73Z"/><path class="v" d="M150.12,74.91a.86.86,0,1,1-1.47.9.86.86,0,1,1,1.47-.9Z"/><path class="v" d="M150.45,73.22a.86.86,0,1,1-1.2-.32A.88.88,0,0,1,150.45,73.22Z"/><path class="v" d="M150,74.19a.57.57,0,1,1-.8-.2A.58.58,0,0,1,150,74.19Z"/><path class="v" d="M150.39,72.64a.57.57,0,1,1-.8-.21A.59.59,0,0,1,150.39,72.64Z"/><path class="v" d="M150.8,71.62a.86.86,0,1,1-1.47.9.86.86,0,1,1,1.47-.9Z"/><path class="v" d="M169.21,67.61a.86.86,0,1,0,1.69-.34.86.86,0,1,0-1.69.34Z"/><path class="v" d="M167.8,66.61a.86.86,0,1,0,1.69-.34.86.86,0,1,0-1.69.34Z"/><path class="v" d="M168.78,67a.59.59,0,0,0,.68.47.58.58,0,0,0,.44-.69.57.57,0,1,0-1.12.22Z"/><path class="v" d="M167.46,66.14a.57.57,0,1,0,.44-.69A.57.57,0,0,0,167.46,66.14Z"/><path class="v" d="M166.46,65.68a.86.86,0,1,0,1.68-.34.86.86,0,1,0-1.68.34Z"/><path class="v" d="M166.87,70.05a.86.86,0,1,0,.9-.87A.9.9,0,0,0,166.87,70.05Z"/><path class="v" d="M165.74,68.75a.87.87,0,0,0,.83.93.9.9,0,1,0-.83-.93Z"/><path class="v" d="M166.6,69.39a.58.58,0,0,0,.54.62.6.6,0,0,0,.05-1.19A.57.57,0,0,0,166.6,69.39Z"/><path class="v" d="M165.52,68.21a.58.58,0,0,0,.54.62.6.6,0,0,0,.05-1.19A.58.58,0,0,0,165.52,68.21Z"/><path class="v" d="M164.66,67.53a.86.86,0,1,0,.89-.87A.88.88,0,0,0,164.66,67.53Z"/><path class="v" d="M164.35,71.57a.86.86,0,1,0,1-.76A.87.87,0,0,0,164.35,71.57Z"/><path class="v" d="M163.37,70.15a.87.87,0,1,0,1-.76A.89.89,0,0,0,163.37,70.15Z"/><path class="v" d="M164.15,70.88a.57.57,0,1,0,.65-.5A.58.58,0,0,0,164.15,70.88Z"/><path class="v" d="M163.21,69.59a.57.57,0,1,0,.65-.5A.59.59,0,0,0,163.21,69.59Z"/><path class="v" d="M162.43,68.81a.86.86,0,1,0,1-.76A.88.88,0,0,0,162.43,68.81Z"/><path class="w" d="M154.77,53.5c-8.84,1.72-11.69,7.53-12.32,10.32-2.79-.2-2.24,7.93,1.26,4.9,2.35,3.12,5.49,4.2,13.42,2.24s10.07-4.89,10.32-7.43c4.12,1.65,4.45-5.55.79-4.54C163.91,55.41,163.6,51.78,154.77,53.5Z"/><path class="n" d="M161.59,64.22c.11.68.57,1.18,1,1.11s.75-.68.64-1.37-.57-1.19-1-1.12S161.48,63.53,161.59,64.22Z"/><path class="n" d="M147.76,67c.11.69.57,1.19,1,1.12s.74-.69.63-1.38-.57-1.19-1-1.12S147.65,66.27,147.76,67Z"/><path class="n" d="M157.24,68.19c.33,1.65-2.45,2.72-2.88.58"/><path class="v" d="M142.55,64.17c1,0,1.76-1.56,1.87-2.79s1.36-4.82,6.34-6.05c1.89-.46,2.92-1.16,3.1-1.6.81.88,1.84.59,3,.37s6.57.35,8,2.32,2.11,3.27,3.39,2.93c-.88-3.45-2.08-8-7-8.79-3.57-.56-11-.17-14.42,2.7S141.53,58.26,142.55,64.17Z"/><path class="p" d="M155.67,76.71c-9-.08-12.95,5.05-14.13,7.65-2.69-.75-3.78,7.32.25,5,1.69,3.53,4.54,5.21,12.7,4.88s10.85-2.78,11.61-5.22c3.7,2.44,5.46-4.54,1.68-4.29C164.25,80.41,164.67,76.79,155.67,76.71Z"/><path class="n" d="M160.21,88.57c0,.7.32,1.28.78,1.3s.87-.52.9-1.22-.32-1.28-.78-1.3S160.24,87.88,160.21,88.57Z"/><path class="n" d="M146.11,88.5c0,.69.32,1.27.79,1.3s.86-.53.89-1.23-.31-1.27-.78-1.29S146.15,87.8,146.11,88.5Z"/><path class="n" d="M155.16,91.6c0,1.68-2.95,2.17-2.94,0"/><path class="q" d="M143.45,83.62c1.06.79,2.41-.61,2.58-1.5,1.34,1,2,.23,3-.55,1,.28,1.45.74,2.29.29s1.51.91,2.58.13,1.34.84,2.41.79,1.52-1.39,2.53-.71,1.51.12,2.29,0,1.18.85,2.47.57.66,1.35,1.39,1.13c.45,1.07,1.38,5,2.46,2.42.35-2.46-.08-7-2.87-9.6a14,14,0,0,0-10.35-3.86c-4.26.09-8.53,1.92-10.05,3.65s-3.45,4.3-3.24,7.33,2.11,4.83,1.9,2.14A3.63,3.63,0,0,1,143.45,83.62Z"/><path class="x" d="M181.52,72.56c-8.21-3.69-13.89-.58-16,1.33-2.16-1.77-6.4,5.18-1.79,4.72.12,3.91,2.06,6.6,9.66,9.57s11,1.82,12.73-.1c2.4,3.72,6.83-2,3.26-3.26C187.88,79.4,189.72,76.26,181.52,72.56Z"/><path class="n" d="M180.91,85.25c-.31.63-.23,1.3.19,1.51s1-.13,1.31-.76.23-1.3-.19-1.5S181.22,84.63,180.91,85.25Z"/><path class="n" d="M168,79.52c-.31.62-.22,1.29.19,1.5s1-.13,1.32-.76.22-1.3-.2-1.5S168.34,78.89,168,79.52Z"/><path class="n" d="M175.06,86c-.68,1.54-3.57.81-2.69-1.19"/><path class="y" d="M166.07,74.42c.46,3.14,4.91,4.08,8.65,3.52s7.26-2.32,8.19.38,2.75,6.08,4.52,6,1.2.62,1.2.62c2.59-3.18,4-7.69.65-11.74s-9.34-6.76-12.91-6.77-8.4.72-10,4-1.32,3.83-1.45,5Z"/><path class="z" d="M136.91,65.54s1.22,6,1.63,6.27,4.51-1.12,3.89-2-3.76-4.57-3.76-4.57Z"/><path class="z" d="M115.94,58.08s-5.44,2.72-5.6,3.19,2.1,4.18,2.8,3.35,3.49-4.87,3.49-4.87Z"/><path class="x" d="M131.8,51c-8.61-2.61-13.85,1.2-15.71,3.37-2.37-1.48-5.69,6-1.18,4.91.62,3.87,2.9,6.29,10.82,8.26s11.19.38,12.6-1.75c2.87,3.39,6.52-2.82,2.82-3.64C139,56.92,140.41,53.57,131.8,51Z"/><path class="n" d="M132.82,63.62c-.22.66,0,1.32.39,1.47s1-.26,1.2-.92.06-1.32-.38-1.47S133.05,63,132.82,63.62Z"/><path class="n" d="M119.31,59.58c-.22.66,0,1.32.39,1.47s1-.26,1.21-.92,0-1.31-.39-1.47S119.54,58.93,119.31,59.58Z"/><path class="n" d="M127.12,65.1c-.47,1.62-3.44,1.26-2.82-.83"/><path class="z" d="M133.6,52.83c-1.53.49-10.67,9.07-13,3.2-1,.45-2.39.95-3-.05-1.16.51-.9,0-1.9.79.14-2.89.59-11.23,11.92-11.42,6.54.37,9.55,2.88,11.63,4.8s6,8.47.9,12.83c-3-.67-5.92-2.13-5.94-5.58S133.6,52.83,133.6,52.83Z"/><path class="i" d="M133.78,3l-5.28,8.05a5.78,5.78,0,0,0-2-1.44c-2-.9-4.16-.59-4.72.69s.64,3,2.68,3.95,4.16.59,4.73-.69a1.63,1.63,0,0,0,.13-.57l3-5.14,8.15,6.61-1.6,4.08a4,4,0,0,0-1.62-1.29c-1.68-.74-3.5-.3-4.06,1s.34,2.92,2,3.66,3.49.3,4.06-1L144.69,12Zm-.66,3.63.77-1.21,7.71,6.06-.55,1.65Z"/><path class="i" d="M155.05,29.2l-1.07-1-4.67,6.88a4,4,0,0,0-1.47-1.39c-1.6-.9-3.45-.63-4.13.59s.06,2.94,1.66,3.83,3.45.63,4.13-.59a1.87,1.87,0,0,0,.21-.6Z"/><path class="i" d="M110.69,20.77l-9.78-4-1.55,7.67a3.18,3.18,0,0,0-1.23-.75,2.64,2.64,0,0,0-3.43,1.46,2.84,2.84,0,0,0,5.35,1.74l1.76-6.48,7,2.17-.39,4.46a2.79,2.79,0,0,0-.77-.39A2.45,2.45,0,0,0,104.44,28a2.66,2.66,0,0,0,5,1.62,2,2,0,0,0,.08-.59Z"/><path class="i" d="M168.67,9.07a9.39,9.39,0,0,0-2.09-1l.61,7.3a2.91,2.91,0,0,0-1.59-.21A2.67,2.67,0,0,0,163.22,18a2.48,2.48,0,0,0,3,2,2.66,2.66,0,0,0,2.38-2.82l-.33-6.62s2,1.24,1.87,3.1C171.31,13,169.88,9.82,168.67,9.07Z"/><path class="i" d="M81.65,23.23a9.75,9.75,0,0,0-1.31-1.86l-2.91,5.84a3.06,3.06,0,0,0-1.25-1,2.48,2.48,0,0,0-3.35.87,2.76,2.76,0,0,0,4.92,2.21l2.83-5.18s1.1,2,.13,3.33C82,27.62,82.33,24.43,81.65,23.23Z"/></svg>