<svg xmlns="http://www.w3.org/2000/svg" viewBox="0 0 200 140"><defs><style>.a{fill:#c5ddd2;}.b{fill:#7b663c;}.b,.c,.d,.e{fill-rule:evenodd;}.c{fill:#e5a350;}.d{fill:#916429;}.e,.f,.h,.i,.m{fill:none;}.e,.f{stroke:#916429;stroke-width:1.31px;}.e,.f,.i,.m{stroke-linecap:round;stroke-linejoin:round;}.g{fill:#fcbc69;}.h{stroke:#8c7944;stroke-miterlimit:10;stroke-width:0.98px;}.i,.m{stroke:#a47f32;}.i{stroke-width:1.66px;}.j{fill:#bf982e;}.k{fill:#ecc048;}.l{fill:#ffd55d;}.m{stroke-width:1.11px;}.n{fill:#a47f32;}</style></defs><path class="a" d="M110.24,12.26c-26.61,1.79-68.18,2.47-91.16,15C3.83,35.57-11,81,11.51,111.54c12.49,17,57.24,15.71,84.09,13.56s37.16-2.16,64.18-8.46c12.24-2.85,24.5-22.11,22.13-57.26C179.83,28.65,145.58,13.14,110.24,12.26Z"/><polygon class="b" points="113.81 104.39 113.95 102.1 110.72 92.83 125.05 101.96 125.67 99.01 120.37 93.53 128.75 96.85 138.42 99.83 143.16 99.6 144.32 101.39 150.23 103.27 152.51 103.24 159.15 98.75 169.82 102.2 180.35 95.53 180.38 97.98 188.19 95.76 186.97 102.15 197.41 101.19 185.76 110.17 181.55 112.83 187.44 113.74 170.76 125.06 164.01 120.57 159.15 124.23 149.98 122.06 144.09 121.15 135.92 121.59 133.48 122.11 132.85 123.75 126.25 118.61 112.9 109.47 105.99 105.96 113.81 104.39"/><path class="c" d="M114.54,61.89c3.91-14.7,10.21-19.08,17.07-18.52s12.44,1.8,20.52,20.32,21.75,27.66,34,29c-10.58,15.49-32.35,24.59-50.77,15.35s-20.17-20.7-20.89-23.91A46.58,46.58,0,0,1,114.54,61.89Z"/><path class="c" d="M125.1,44.76a33,33,0,0,0,6.31-4.33,3.77,3.77,0,0,1,.35,1.8,13.87,13.87,0,0,0,3.56-2.5,22,22,0,0,1-.44,3.28,18.43,18.43,0,0,1,3.39-2.5s-1.08,4.92-3.53,5S125.1,44.76,125.1,44.76Z"/><path class="d" d="M118,41.26l-.89,7.36-6.06-1.06L119.49,53s1.93-2,1.59-3.28S118,41.26,118,41.26Z"/><path class="e" d="M134.25,57.88c-.22-4.74-4.15-5.34-6.58-3.18"/><line class="f" x1="136.12" y1="55.08" x2="134.06" y2="55.98"/><line class="f" x1="133.96" y1="52.66" x2="132.89" y2="54.03"/><line class="f" x1="131.22" y1="51.33" x2="131.2" y2="53.29"/><line class="f" x1="128.02" y1="51.97" x2="128.69" y2="53.54"/><path class="g" d="M114.49,84.1a46.58,46.58,0,0,1,.05-22.21c.43-1.64.9-3.12,1.39-4.51,6.69,1.28,15,6.3,21,27.69,2.88,10.31,3.19,18.4,2.35,24.59a35,35,0,0,1-3.86-1.65C117,98.77,115.21,87.31,114.49,84.1Z"/><path class="d" d="M154.77,103.84c.65-12.58-1.69-29.54-14.65-34.11s-17.2,9.36-10.7,19.08C134.26,96.06,148.23,103.76,154.77,103.84Z"/><line class="h" x1="166.78" y1="95.05" x2="141.18" y2="111.23"/><line class="h" x1="143.75" y1="95.35" x2="128.7" y2="106.32"/><line class="h" x1="148.81" y1="94.3" x2="132.05" y2="112.16"/><line class="h" x1="102.86" y1="91.14" x2="134.14" y2="122.42"/><line class="h" x1="141.87" y1="126.57" x2="132.92" y2="116.72"/><line class="h" x1="127.5" y1="127.41" x2="150" y2="110.79"/><line class="h" x1="148.24" y1="126.82" x2="137.94" y2="113.39"/><line class="h" x1="143.52" y1="128.02" x2="154.46" y2="115.14"/><line class="h" x1="172.76" y1="127.65" x2="151.14" y2="110.61"/><line class="h" x1="162.24" y1="110.14" x2="139.89" y2="99.81"/><line class="h" x1="124.94" y1="92.98" x2="143.69" y2="102.86"/><line class="h" x1="115.94" y1="91.78" x2="128.26" y2="96.85"/><line class="h" x1="198.44" y1="92.36" x2="183.44" y2="107.26"/><line class="h" x1="196.51" y1="107.25" x2="177.35" y2="103.9"/><line class="h" x1="169.33" y1="115.6" x2="194.03" y2="92.42"/><line class="h" x1="164.37" y1="110.77" x2="192.42" y2="94.56"/><line class="h" x1="192.04" y1="89.83" x2="184.75" y2="107.24"/><line class="h" x1="194.41" y1="109.56" x2="175.5" y2="112.26"/><line class="h" x1="161.22" y1="106.72" x2="183.19" y2="112.98"/><line class="h" x1="186.6" y1="111.3" x2="160.48" y2="100.2"/><line class="h" x1="165.69" y1="99.31" x2="143.48" y2="112.34"/><line class="h" x1="156.39" y1="112.5" x2="135.01" y2="101.01"/><line class="h" x1="116.31" y1="94.88" x2="139.76" y2="102.42"/><line class="h" x1="129.1" y1="98.64" x2="143.54" y2="116.75"/><line class="h" x1="137.01" y1="104.58" x2="156.91" y2="127.69"/><line class="h" x1="151.83" y1="126.12" x2="161.74" y2="109.17"/><line class="h" x1="154.62" y1="127.23" x2="166.81" y2="110.24"/><line class="h" x1="164.57" y1="125.96" x2="133.89" y2="116.06"/><line class="h" x1="108.87" y1="114.09" x2="131.32" y2="119.19"/><line class="h" x1="134.18" y1="125.86" x2="107.11" y2="103.66"/><line class="h" x1="99.07" y1="100.99" x2="122.3" y2="116.37"/><line class="h" x1="110.68" y1="115.05" x2="132.81" y2="107.9"/><line class="h" x1="106.95" y1="91.41" x2="136.26" y2="122.07"/><line class="h" x1="109.52" y1="88.27" x2="118.32" y2="111.68"/><line class="h" x1="109.57" y1="92.03" x2="139.38" y2="110.92"/><line class="h" x1="99.36" y1="98.37" x2="142.48" y2="110.39"/><line class="h" x1="170.23" y1="96.64" x2="108.59" y2="104.95"/><line class="h" x1="155.12" y1="102.39" x2="129.37" y2="107.46"/><line class="h" x1="156.11" y1="103.36" x2="176.06" y2="118.13"/><line class="h" x1="183.2" y1="113.79" x2="165.71" y2="126.1"/><line class="h" x1="168.49" y1="126.07" x2="190.04" y2="112.72"/><line class="h" x1="191.87" y1="114.99" x2="156.64" y2="119.2"/><line class="h" x1="175.25" y1="117.98" x2="152.93" y2="123.33"/><line class="h" x1="131.16" y1="119.85" x2="148.82" y2="121.26"/><line class="h" x1="181.06" y1="112.67" x2="170.04" y2="119.84"/><line class="h" x1="168.33" y1="113.98" x2="161.86" y2="118.8"/><line class="h" x1="166.83" y1="111.39" x2="154.43" y2="112.53"/><line class="h" x1="169.32" y1="114.13" x2="145.48" y2="115.26"/><line class="h" x1="138.49" y1="117.8" x2="159.86" y2="115.89"/><line class="h" x1="159.11" y1="120.47" x2="145.71" y2="120.32"/><line class="h" x1="140.4" y1="113.85" x2="126.17" y2="112.89"/><line class="h" x1="131.47" y1="105.63" x2="117.14" y2="108.76"/><line class="h" x1="119.33" y1="114.12" x2="139.11" y2="115.01"/><line class="h" x1="130.5" y1="106.63" x2="137.28" y2="112.75"/><line class="h" x1="182.74" y1="90.6" x2="179.45" y2="101.91"/><line class="h" x1="187.48" y1="91.52" x2="167.7" y2="102.88"/><line class="h" x1="168.83" y1="101.4" x2="182.08" y2="103.51"/><line class="h" x1="200.01" y1="100.02" x2="185.67" y2="103.14"/><line class="h" x1="197.25" y1="101.52" x2="183.99" y2="112.15"/><line class="h" x1="161.11" y1="124.2" x2="163.04" y2="121.4"/><line class="h" x1="166.06" y1="115.32" x2="170.49" y2="116.24"/><line class="h" x1="185.84" y1="103.79" x2="176.07" y2="105.88"/><line class="h" x1="146.27" y1="112.8" x2="133.68" y2="112.3"/><line class="h" x1="172.08" y1="100.05" x2="152.89" y2="107.16"/><line class="h" x1="152.09" y1="95.41" x2="171.34" y2="106.43"/><line class="h" x1="173.91" y1="102.97" x2="153.74" y2="109.92"/><line class="h" x1="186.89" y1="96.43" x2="174.85" y2="99.69"/><line class="h" x1="184" y1="113.13" x2="168.49" y2="113.16"/><line class="h" x1="164.19" y1="109.13" x2="152.29" y2="111.09"/><line class="h" x1="162.05" y1="102.53" x2="144.68" y2="112.09"/><line class="h" x1="146.44" y1="102.73" x2="136.22" y2="109.21"/><line class="h" x1="149.87" y1="102.11" x2="138.48" y2="112.65"/><line class="h" x1="118.72" y1="100.29" x2="139.89" y2="118.7"/><line class="h" x1="145.13" y1="121.13" x2="139.07" y2="115.34"/><line class="h" x1="135.39" y1="121.64" x2="150.66" y2="111.82"/><line class="h" x1="149.45" y1="121.27" x2="142.48" y2="113.37"/><line class="h" x1="146.24" y1="121.99" x2="153.68" y2="114.38"/><line class="h" x1="166.07" y1="121.73" x2="151.43" y2="111.72"/><line class="h" x1="158.96" y1="111.43" x2="143.82" y2="105.36"/><line class="h" x1="133.69" y1="101.35" x2="146.39" y2="107.16"/><line class="h" x1="127.58" y1="100.66" x2="135.93" y2="103.63"/><line class="h" x1="183.52" y1="100.9" x2="173.33" y2="109.7"/><line class="h" x1="182.19" y1="109.68" x2="169.21" y2="107.73"/><line class="h" x1="163.76" y1="114.64" x2="180.53" y2="100.94"/><line class="h" x1="160.4" y1="111.79" x2="179.44" y2="102.21"/><line class="h" x1="179.18" y1="99.42" x2="174.22" y2="109.69"/><line class="h" x1="180.77" y1="111.05" x2="167.94" y2="112.66"/><line class="h" x1="158.27" y1="109.41" x2="173.15" y2="113.07"/><line class="h" x1="175.47" y1="112.08" x2="157.77" y2="105.57"/><line class="h" x1="161.31" y1="105.04" x2="146.24" y2="112.74"/><line class="h" x1="154.99" y1="112.83" x2="140.5" y2="106.08"/><line class="h" x1="127.83" y1="102.49" x2="143.72" y2="106.9"/><line class="h" x1="136.5" y1="104.69" x2="146.27" y2="115.34"/><line class="h" x1="141.86" y1="108.18" x2="155.32" y2="121.77"/><line class="h" x1="151.88" y1="120.85" x2="158.62" y2="110.85"/><line class="h" x1="153.77" y1="121.51" x2="162.06" y2="111.48"/><line class="h" x1="160.52" y1="120.75" x2="139.73" y2="114.95"/><line class="h" x1="122.77" y1="113.81" x2="137.98" y2="116.8"/><line class="h" x1="139.91" y1="120.72" x2="121.58" y2="107.67"/><line class="h" x1="116.14" y1="106.1" x2="131.87" y2="115.14"/><line class="h" x1="124" y1="114.38" x2="139" y2="110.14"/><line class="h" x1="121.49" y1="100.45" x2="141.33" y2="118.49"/><line class="h" x1="123.24" y1="98.6" x2="129.18" y2="112.39"/><line class="h" x1="123.27" y1="100.81" x2="143.46" y2="111.92"/><line class="h" x1="116.34" y1="104.56" x2="145.56" y2="111.6"/><line class="h" x1="164.39" y1="103.46" x2="122.59" y2="108.43"/><line class="h" x1="154.14" y1="106.87" x2="136.67" y2="109.88"/><line class="h" x1="154.81" y1="107.44" x2="168.32" y2="116.12"/><line class="h" x1="173.16" y1="113.55" x2="161.29" y2="120.83"/><line class="h" x1="163.18" y1="120.81" x2="177.81" y2="112.92"/><line class="h" x1="179.04" y1="114.25" x2="155.15" y2="116.77"/><line class="h" x1="167.77" y1="116.03" x2="152.63" y2="119.21"/><line class="h" x1="137.88" y1="117.18" x2="149.85" y2="117.99"/><line class="h" x1="171.71" y1="112.9" x2="164.24" y2="117.14"/><line class="h" x1="163.08" y1="113.68" x2="158.69" y2="116.53"/><line class="h" x1="162.07" y1="112.16" x2="153.66" y2="112.84"/><line class="h" x1="163.75" y1="113.77" x2="147.59" y2="114.46"/><line class="h" x1="142.84" y1="115.96" x2="157.34" y2="114.82"/><line class="h" x1="156.82" y1="117.52" x2="147.74" y2="117.44"/><line class="h" x1="144.14" y1="113.64" x2="134.5" y2="113.09"/><line class="h" x1="138.1" y1="108.8" x2="128.38" y2="110.66"/><line class="h" x1="129.86" y1="113.82" x2="143.27" y2="114.32"/><line class="h" x1="137.44" y1="109.39" x2="142.03" y2="112.99"/><line class="h" x1="172.87" y1="99.89" x2="170.63" y2="106.56"/><line class="h" x1="176.09" y1="100.42" x2="162.67" y2="107.14"/><line class="h" x1="163.43" y1="106.26" x2="172.42" y2="107.5"/><line class="h" x1="184.58" y1="105.41" x2="174.85" y2="107.27"/><line class="h" x1="182.7" y1="106.31" x2="173.7" y2="112.59"/><line class="h" x1="158.18" y1="119.72" x2="159.48" y2="118.06"/><line class="h" x1="161.54" y1="114.47" x2="164.54" y2="115.01"/><line class="h" x1="174.97" y1="107.66" x2="168.34" y2="108.9"/><line class="h" x1="148.12" y1="113.01" x2="139.59" y2="112.73"/><line class="h" x1="165.64" y1="105.47" x2="152.62" y2="109.68"/><line class="h" x1="152.09" y1="102.75" x2="165.13" y2="109.23"/><line class="h" x1="166.88" y1="107.18" x2="153.2" y2="111.31"/><line class="h" x1="175.69" y1="103.32" x2="167.52" y2="105.25"/><line class="h" x1="173.71" y1="113.16" x2="163.19" y2="113.2"/><line class="h" x1="160.28" y1="110.83" x2="152.21" y2="111.99"/><polyline class="i" points="32.89 89.08 29.51 93.08 33.17 97.76"/><path class="j" d="M36.75,35.76c-.52,9.86-.73,18.19,7.84,28,7.63,8.76,20.2,11.41,26,5.81,10.52-10.18,3.08-20.34-3.76-21.79-4.33-.91-11.07.64-19.64-2.83A19.64,19.64,0,0,1,36.75,35.76Z"/><path class="k" d="M8.92,61.53C10.44,69.8,25.19,92.75,43.85,95.2S71,89.46,80.26,76.13,90,45.72,79.93,40.5s-20.25-.17-22.43.87S38.62,53.49,33.23,58.52,17.41,66.66,8.92,61.53Z"/><path class="l" d="M80.26,76.13c-5.5,7.9-10.71,14-17.92,17.13-2.83-9-1.15-14.09,2.68-22.42,3.6-7.82,13.34-9.56,21.76-10A40.09,40.09,0,0,1,80.26,76.13Z"/><path class="m" d="M77.61,45.85C76.9,49.75,73,50,71.14,47.17"/><line class="m" x1="78.7" y1="49.42" x2="77.12" y2="47.87"/><line class="m" x1="75.84" y1="51.17" x2="75.43" y2="49.17"/><line class="m" x1="72.44" y1="51.14" x2="73.42" y2="49.17"/><line class="m" x1="70.04" y1="49.63" x2="71.51" y2="48.19"/><path class="n" d="M25.39,39.08c-.51,9.86-.72,18.2,7.84,28,7.64,8.76,20.2,11.4,26,5.81,10.52-10.18,3.09-20.35-3.75-21.79-4.34-.91-11.08.64-19.65-2.83A19.68,19.68,0,0,1,25.39,39.08Z"/><polygon class="n" points="93.59 45.33 84.53 45.44 86.73 50.54 93.59 45.33"/><polyline class="i" points="30.42 87.13 25.9 90.05 26.07 95.4"/></svg>