<svg xmlns="http://www.w3.org/2000/svg" xmlns:xlink="http://www.w3.org/1999/xlink" viewBox="0 0 136.74 104.63"><defs><style>.a{fill:none;}.b{isolation:isolate;}.c{fill:#7e8083;}.d,.j,.k{mix-blend-mode:multiply;}.e{clip-path:url(#a);}.f{clip-path:url(#b);}.g{fill:#e7e8e8;}.h{fill:#7c7d7c;}.i{fill:#b0b1b1;}.j{opacity:0.32;}.k{opacity:0.8;}.l{clip-path:url(#e);}.m{fill:#58595b;}</style><clipPath id="a"><rect class="a" width="135.17" height="63.15"/></clipPath><clipPath id="b"><rect class="a" x="2.45" y="2.98" width="132.71" height="54.96"/></clipPath><clipPath id="e"><rect class="a" x="2.15" y="58.53" width="134.59" height="9.45"/></clipPath></defs><g class="b"><path class="c" d="M10.55,88.46H6l1.68-7.27h1L7.12,87.64h3.62Z"/><path class="c" d="M13.63,83l-1.26,5.45h-.92L12.71,83Zm.5-1.87-.22,1h-1l.22-1Z"/><path class="c" d="M16.55,88.59a2.82,2.82,0,0,1-.91-.13,1.9,1.9,0,0,1-.7-.38,1.63,1.63,0,0,1-.44-.64,2.29,2.29,0,0,1-.16-.9,4.17,4.17,0,0,1,.24-1.43,3.78,3.78,0,0,1,.68-1.17,3,3,0,0,1,1-.77,3.17,3.17,0,0,1,1.35-.29,3,3,0,0,1,.9.14,3.36,3.36,0,0,1,.74.31l-.2,1h-.05a3.11,3.11,0,0,0-.25-.2,1.82,1.82,0,0,0-.34-.22,2.64,2.64,0,0,0-.45-.18,1.88,1.88,0,0,0-.55-.07,1.85,1.85,0,0,0-1.55.8,3.13,3.13,0,0,0-.6,1.94,1.46,1.46,0,0,0,.36,1.06,1.3,1.3,0,0,0,1,.37,2.21,2.21,0,0,0,.62-.09,3.4,3.4,0,0,0,.52-.19,4.73,4.73,0,0,0,.45-.23l.29-.19h.06l-.2,1a9.41,9.41,0,0,1-.9.33A3.43,3.43,0,0,1,16.55,88.59Z"/><path class="c" d="M22,88.59a2.74,2.74,0,0,1-1.78-.53,1.92,1.92,0,0,1-.64-1.56,3.75,3.75,0,0,1,1-2.57,3,3,0,0,1,2.34-1.07,2,2,0,0,1,1.42.46,1.69,1.69,0,0,1,.49,1.3,3.51,3.51,0,0,1,0,.46,7.16,7.16,0,0,1-.14.74h-4a2.74,2.74,0,0,0-.05.28c0,.09,0,.17,0,.25a1.4,1.4,0,0,0,.42,1.08,1.69,1.69,0,0,0,1.19.39,3.2,3.2,0,0,0,1.11-.21,4,4,0,0,0,.95-.47h.06l-.2,1-.44.16a4.48,4.48,0,0,1-.5.15,4.71,4.71,0,0,1-.54.11A3.15,3.15,0,0,1,22,88.59Zm1.83-3.45c0-.09,0-.17,0-.24s0-.13,0-.21a1.14,1.14,0,0,0-.29-.82,1.24,1.24,0,0,0-.91-.29,1.86,1.86,0,0,0-1.23.43,2.11,2.11,0,0,0-.73,1.13Z"/><path class="c" d="M30.82,84.26c0,.07,0,.18,0,.31s0,.25-.06.35l-.82,3.54H29l.71-3.1q.06-.26.09-.45a2.56,2.56,0,0,0,0-.39.84.84,0,0,0-.2-.61,1,1,0,0,0-.73-.21,2,2,0,0,0-.82.2,7,7,0,0,0-.88.49l-.94,4.07h-.91L26.62,83h.91l-.14.61a5.44,5.44,0,0,1,1-.57,2.39,2.39,0,0,1,.94-.19,1.58,1.58,0,0,1,1.11.36A1.31,1.31,0,0,1,30.82,84.26Z"/><path class="c" d="M34.05,88.59a2.88,2.88,0,0,1-.92-.13,1.86,1.86,0,0,1-.69-.38,1.65,1.65,0,0,1-.45-.64,2.5,2.5,0,0,1-.15-.9,4.42,4.42,0,0,1,.23-1.43,3.78,3.78,0,0,1,.68-1.17,3.21,3.21,0,0,1,2.4-1.06,2.93,2.93,0,0,1,.9.14,3.67,3.67,0,0,1,.75.31l-.2,1h-.06a1.8,1.8,0,0,0-.24-.2A1.92,1.92,0,0,0,36,83.9a2.53,2.53,0,0,0-.44-.18,2,2,0,0,0-.56-.07,1.87,1.87,0,0,0-1.55.8,3.19,3.19,0,0,0-.59,1.94,1.5,1.5,0,0,0,.35,1.06,1.32,1.32,0,0,0,1,.37,2.15,2.15,0,0,0,.61-.09,3.55,3.55,0,0,0,.53-.19,4.53,4.53,0,0,0,.44-.23l.3-.19h.05l-.19,1q-.44.18-.9.33A3.54,3.54,0,0,1,34.05,88.59Z"/><path class="c" d="M39.08,83l-1.26,5.45H36.9L38.16,83Zm.5-1.87-.22,1h-1l.22-1Z"/><path class="c" d="M43.1,87.88l-.36.23a4,4,0,0,1-.46.24,2.83,2.83,0,0,1-.56.19,3,3,0,0,1-.71.08,1.49,1.49,0,0,1-1-.38,1.3,1.3,0,0,1-.41-1,2,2,0,0,1,.29-1.1,2.05,2.05,0,0,1,.85-.73A4.54,4.54,0,0,1,42,85a14.65,14.65,0,0,1,1.77-.15c0-.1,0-.17.05-.24a.75.75,0,0,0,0-.21.74.74,0,0,0-.09-.38.58.58,0,0,0-.26-.23,1.25,1.25,0,0,0-.4-.12,3.75,3.75,0,0,0-.5,0,3.9,3.9,0,0,0-1,.14,6.39,6.39,0,0,0-.86.27h0l.18-.92a8.19,8.19,0,0,1,.81-.17,6.24,6.24,0,0,1,1-.09,2.86,2.86,0,0,1,1.53.32,1.08,1.08,0,0,1,.5,1,1.37,1.37,0,0,1,0,.28,2,2,0,0,1-.05.28l-.85,3.7H43Zm.53-2.29c-.5,0-.94.06-1.33.11a4.12,4.12,0,0,0-1,.25,1.38,1.38,0,0,0-.6.44,1.14,1.14,0,0,0-.2.68.63.63,0,0,0,.24.54,1.22,1.22,0,0,0,.74.19,2.33,2.33,0,0,0,.9-.2,4.23,4.23,0,0,0,.86-.48Z"/><path class="c" d="M55.34,80.87l-1.76,7.59h-.91l.13-.57a5.51,5.51,0,0,1-1,.58,2.21,2.21,0,0,1-.82.15,1.61,1.61,0,0,1-1.23-.49,2,2,0,0,1-.45-1.42,4.32,4.32,0,0,1,.25-1.49A4,4,0,0,1,50.21,84a3.24,3.24,0,0,1,1-.83,2.54,2.54,0,0,1,1.2-.3,3.32,3.32,0,0,1,.8.09,2.78,2.78,0,0,1,.69.28l.54-2.36ZM53.7,84a3,3,0,0,0-.64-.25,2.93,2.93,0,0,0-.67-.08,1.74,1.74,0,0,0-.91.24,2.41,2.41,0,0,0-.68.67,3,3,0,0,0-.4.93,4.33,4.33,0,0,0-.14,1,1.41,1.41,0,0,0,.26.91,1,1,0,0,0,.83.32,1.93,1.93,0,0,0,.84-.21,8.55,8.55,0,0,0,.79-.45Z"/><path class="c" d="M58,88.59a2.76,2.76,0,0,1-1.78-.53,2,2,0,0,1-.64-1.56,3.75,3.75,0,0,1,1-2.57,3,3,0,0,1,2.34-1.07,2,2,0,0,1,1.42.46,1.69,1.69,0,0,1,.49,1.3,3.51,3.51,0,0,1,0,.46c0,.21-.07.46-.13.74h-4a2.74,2.74,0,0,0-.05.28c0,.09,0,.17,0,.25a1.4,1.4,0,0,0,.42,1.08,1.69,1.69,0,0,0,1.19.39,3.2,3.2,0,0,0,1.11-.21,4.29,4.29,0,0,0,1-.47h0l-.2,1-.44.16a4.48,4.48,0,0,1-.5.15,5.06,5.06,0,0,1-.53.11A3.34,3.34,0,0,1,58,88.59Zm1.83-3.45c0-.09,0-.17,0-.24a1.34,1.34,0,0,0,0-.21,1.14,1.14,0,0,0-.29-.82,1.24,1.24,0,0,0-.91-.29,1.86,1.86,0,0,0-1.23.43,2.17,2.17,0,0,0-.73,1.13Z"/><path class="c" d="M68.19,88.6A3.06,3.06,0,0,1,66,87.88a2.62,2.62,0,0,1-.79-2A5.44,5.44,0,0,1,65.55,84a4.78,4.78,0,0,1,.86-1.53,4.08,4.08,0,0,1,1.39-1,4.46,4.46,0,0,1,1.83-.37,4.27,4.27,0,0,1,1.19.16A5.23,5.23,0,0,1,72,81.7l-.22,1.1h-.08a3,3,0,0,0-.32-.3,2.2,2.2,0,0,0-.49-.31,3.59,3.59,0,0,0-.64-.24,3.49,3.49,0,0,0-.82-.09,2.76,2.76,0,0,0-1.25.28,3,3,0,0,0-1,.8,3.68,3.68,0,0,0-.65,1.21,5.08,5.08,0,0,0-.23,1.52,2.19,2.19,0,0,0,.52,1.57,2,2,0,0,0,1.51.56,3.17,3.17,0,0,0,.88-.11,4,4,0,0,0,.76-.26,5,5,0,0,0,.57-.32c.17-.11.31-.22.43-.31H71l-.23,1.12a6.9,6.9,0,0,1-1.18.47A4.64,4.64,0,0,1,68.19,88.6Z"/><path class="c" d="M77.21,84.94A4.43,4.43,0,0,1,77,86.35a3.87,3.87,0,0,1-.63,1.17,3.42,3.42,0,0,1-1,.81,2.86,2.86,0,0,1-1.3.29,2,2,0,0,1-1.52-.56A2.1,2.1,0,0,1,72,86.53a4.36,4.36,0,0,1,.22-1.4A3.85,3.85,0,0,1,72.87,84a2.94,2.94,0,0,1,1-.79,2.81,2.81,0,0,1,1.29-.3,2.06,2.06,0,0,1,1.5.54A2,2,0,0,1,77.21,84.94ZM75.71,87a2.84,2.84,0,0,0,.4-.9A3.93,3.93,0,0,0,76.25,85a1.49,1.49,0,0,0-.32-1,1.19,1.19,0,0,0-.93-.35,1.66,1.66,0,0,0-.85.22,2.1,2.1,0,0,0-.64.62,2.81,2.81,0,0,0-.41.91A4.18,4.18,0,0,0,73,86.45a1.49,1.49,0,0,0,.33,1,1.16,1.16,0,0,0,.92.36,1.61,1.61,0,0,0,.85-.23A1.92,1.92,0,0,0,75.71,87Z"/><path class="c" d="M83.38,84.26c0,.07,0,.18,0,.31s0,.25-.06.35l-.82,3.54h-.92l.72-3.1q.06-.26.09-.45a2.56,2.56,0,0,0,0-.39.84.84,0,0,0-.2-.61,1,1,0,0,0-.74-.21,2.13,2.13,0,0,0-.82.2,6.86,6.86,0,0,0-.87.49l-.94,4.07h-.92L79.17,83h.92l-.14.61a5.44,5.44,0,0,1,1-.57,2.36,2.36,0,0,1,.94-.19,1.58,1.58,0,0,1,1.11.36A1.31,1.31,0,0,1,83.38,84.26Z"/><path class="c" d="M86,88.6a3.33,3.33,0,0,1-1.09-.16,5.06,5.06,0,0,1-.81-.32l.21-1h0l.26.2a2.61,2.61,0,0,0,.42.24,2.44,2.44,0,0,0,.52.19,2.2,2.2,0,0,0,.64.08,2,2,0,0,0,1.08-.25.84.84,0,0,0,.39-.75.48.48,0,0,0-.2-.4,1.9,1.9,0,0,0-.58-.22l-.46-.1L85.84,86a1.68,1.68,0,0,1-.84-.46,1.1,1.1,0,0,1-.27-.75,1.57,1.57,0,0,1,.16-.71,1.9,1.9,0,0,1,.5-.61,2.28,2.28,0,0,1,.79-.43,3.31,3.31,0,0,1,1.08-.16,4,4,0,0,1,1,.12,3,3,0,0,1,.79.3l-.19.94h0l-.24-.17a3.42,3.42,0,0,0-.4-.22,2.56,2.56,0,0,0-.49-.16,2.27,2.27,0,0,0-.59-.07,1.78,1.78,0,0,0-1,.26.8.8,0,0,0-.38.7.52.52,0,0,0,.19.41,1.4,1.4,0,0,0,.56.25l.51.11.5.11a1.75,1.75,0,0,1,.85.44,1.05,1.05,0,0,1,.29.75,1.61,1.61,0,0,1-.18.73,1.83,1.83,0,0,1-.52.63,2.56,2.56,0,0,1-.84.43A3.69,3.69,0,0,1,86,88.6Z"/><path class="c" d="M93.54,83l-.16.74h-1.9l-.58,2.52c0,.13-.06.27-.09.44a3.67,3.67,0,0,0,0,.39.69.69,0,0,0,.18.53,1,1,0,0,0,.67.18,2.52,2.52,0,0,0,.48-.07l.37-.11h0l-.17.79-.59.11a3.71,3.71,0,0,1-.54,0,1.7,1.7,0,0,1-1-.29,1.15,1.15,0,0,1-.37-.94,1.63,1.63,0,0,1,0-.31,2.86,2.86,0,0,1,.06-.35l.67-2.93H90l.16-.74h.63l.36-1.57H92L91.66,83Z"/><path class="c" d="M97.8,84h0a1.75,1.75,0,0,0-.36-.07,2.46,2.46,0,0,0-.41,0,2.12,2.12,0,0,0-.91.21,6.3,6.3,0,0,0-.87.5l-.88,3.87h-.93L94.64,83h.92l-.18.81a4.86,4.86,0,0,1,1.1-.63,2.34,2.34,0,0,1,.87-.18h.34l.32,0Z"/><path class="c" d="M103.43,83l-1.25,5.45h-.92l.14-.6a6.77,6.77,0,0,1-1,.56,2.38,2.38,0,0,1-1,.2,1.57,1.57,0,0,1-1.1-.36,1.28,1.28,0,0,1-.4-1c0-.11,0-.22,0-.32s0-.23.07-.36L98.88,83h.92l-.72,3.11c0,.12,0,.27-.08.43a2.13,2.13,0,0,0,0,.39.86.86,0,0,0,.21.63,1,1,0,0,0,.73.21,2,2,0,0,0,.82-.21,5.46,5.46,0,0,0,.86-.48l.94-4.08Z"/><path class="c" d="M106.35,88.59a2.82,2.82,0,0,1-.91-.13,1.9,1.9,0,0,1-.7-.38,1.63,1.63,0,0,1-.44-.64,2.29,2.29,0,0,1-.16-.9,4.17,4.17,0,0,1,.24-1.43,3.6,3.6,0,0,1,.68-1.17,3,3,0,0,1,1-.77,3.17,3.17,0,0,1,1.35-.29,3,3,0,0,1,.9.14,3.36,3.36,0,0,1,.74.31l-.2,1h-.05a3.11,3.11,0,0,0-.25-.2,1.82,1.82,0,0,0-.34-.22,3,3,0,0,0-.45-.18,1.88,1.88,0,0,0-.55-.07,1.85,1.85,0,0,0-1.55.8,3.13,3.13,0,0,0-.6,1.94,1.46,1.46,0,0,0,.36,1.06,1.3,1.3,0,0,0,1,.37,2.21,2.21,0,0,0,.62-.09,3.4,3.4,0,0,0,.52-.19,4.73,4.73,0,0,0,.45-.23l.29-.19h.06l-.2,1a9.41,9.41,0,0,1-.9.33A3.43,3.43,0,0,1,106.35,88.59Z"/><path class="c" d="M111.56,88.59a2.82,2.82,0,0,1-.91-.13,1.9,1.9,0,0,1-.7-.38,1.63,1.63,0,0,1-.44-.64,2.29,2.29,0,0,1-.16-.9,4.17,4.17,0,0,1,.24-1.43,3.6,3.6,0,0,1,.68-1.17,3,3,0,0,1,1-.77,3.17,3.17,0,0,1,1.35-.29,3,3,0,0,1,.9.14,3.36,3.36,0,0,1,.74.31l-.2,1h0l-.25-.2a1.82,1.82,0,0,0-.34-.22,3,3,0,0,0-.45-.18,1.88,1.88,0,0,0-.55-.07,1.85,1.85,0,0,0-1.55.8,3.13,3.13,0,0,0-.6,1.94,1.46,1.46,0,0,0,.36,1.06,1.3,1.3,0,0,0,1,.37,2.21,2.21,0,0,0,.62-.09,3.4,3.4,0,0,0,.52-.19,4.73,4.73,0,0,0,.45-.23l.29-.19h.06l-.2,1a9.41,9.41,0,0,1-.9.33A3.43,3.43,0,0,1,111.56,88.59Z"/><path class="c" d="M116.6,83l-1.26,5.45h-.92L115.68,83Zm.49-1.87-.22,1h-1l.22-1Z"/><path class="c" d="M122.51,84.94a4.43,4.43,0,0,1-.22,1.41,3.69,3.69,0,0,1-.64,1.17,3.29,3.29,0,0,1-1,.81,2.8,2.8,0,0,1-1.3.29,2,2,0,0,1-1.51-.56,2.11,2.11,0,0,1-.55-1.53,4.37,4.37,0,0,1,.23-1.4,3.65,3.65,0,0,1,.64-1.18,2.94,2.94,0,0,1,1-.79,2.79,2.79,0,0,1,1.29-.3,2.06,2.06,0,0,1,1.5.54A2,2,0,0,1,122.51,84.94ZM121,87a2.84,2.84,0,0,0,.4-.9,3.93,3.93,0,0,0,.14-1.09,1.45,1.45,0,0,0-.33-1,1.16,1.16,0,0,0-.92-.35,1.63,1.63,0,0,0-.85.22,2.24,2.24,0,0,0-.65.62,3,3,0,0,0-.4.91,3.79,3.79,0,0,0-.14,1.07,1.54,1.54,0,0,0,.32,1,1.2,1.2,0,0,0,.93.36,1.64,1.64,0,0,0,.85-.23A2,2,0,0,0,121,87Zm1.45-6.72-1.73,1.83H120l1.24-1.83Z"/><path class="c" d="M128.69,84.26a2.24,2.24,0,0,1,0,.31,1.58,1.58,0,0,1-.06.35l-.81,3.54h-.92l.71-3.1q.06-.26.09-.45a1.72,1.72,0,0,0,0-.39.81.81,0,0,0-.21-.61,1,1,0,0,0-.73-.21,2.09,2.09,0,0,0-.82.2,6.24,6.24,0,0,0-.87.49l-.94,4.07h-.92L124.48,83h.92l-.14.61a5.12,5.12,0,0,1,1-.57,2.32,2.32,0,0,1,.94-.19,1.61,1.61,0,0,1,1.11.36A1.34,1.34,0,0,1,128.69,84.26Z"/><path class="c" d="M28.89,104.46h-1.2L24.24,98v6.5h-.9V97.19h1.5L28,103.13V97.19h.91Z"/><path class="c" d="M35.4,101.74a3,3,0,0,1-.69,2.1,2.3,2.3,0,0,1-1.83.78,2.33,2.33,0,0,1-1.84-.78,3.07,3.07,0,0,1-.68-2.1A3.11,3.11,0,0,1,31,99.63a2.36,2.36,0,0,1,1.84-.77,2.32,2.32,0,0,1,1.83.77A3.06,3.06,0,0,1,35.4,101.74Zm-.95,0a2.43,2.43,0,0,0-.42-1.57,1.37,1.37,0,0,0-1.15-.52,1.39,1.39,0,0,0-1.16.52,3.17,3.17,0,0,0,0,3.12,1.53,1.53,0,0,0,2.31,0A2.46,2.46,0,0,0,34.45,101.74Z"/><path class="c" d="M38.23,104.46H37.06v-1.39h1.17Z"/><path class="c" d="M48.55,104.46H44V97.19h1v6.41h3.63Z"/><path class="c" d="M55,103.94l-.49.22a5.6,5.6,0,0,1-.57.21,5.15,5.15,0,0,1-.65.16,4.4,4.4,0,0,1-.77.07,4.33,4.33,0,0,1-1.43-.23,2.92,2.92,0,0,1-1.13-.69,3.11,3.11,0,0,1-.73-1.18,5.37,5.37,0,0,1,0-3.27A3.31,3.31,0,0,1,50,98a3.18,3.18,0,0,1,1.12-.72,4,4,0,0,1,1.46-.25,5.2,5.2,0,0,1,1.17.14,6.56,6.56,0,0,1,1.3.5v1.15H55a4.16,4.16,0,0,0-1.19-.73,3.28,3.28,0,0,0-1.26-.23,2.66,2.66,0,0,0-1,.18,2.18,2.18,0,0,0-.79.55,2.49,2.49,0,0,0-.52.92,4,4,0,0,0-.19,1.3,3.63,3.63,0,0,0,.21,1.31,2.78,2.78,0,0,0,.53.9,2.27,2.27,0,0,0,.8.54,2.87,2.87,0,0,0,1,.17,3.49,3.49,0,0,0,1.3-.24A3.81,3.81,0,0,0,55,102.8H55Z"/><path class="c" d="M64.64,100.83A5.26,5.26,0,0,1,64,103.7a2.43,2.43,0,0,1-3.82,0,5.35,5.35,0,0,1-.6-2.85A5.28,5.28,0,0,1,60.22,98a2.14,2.14,0,0,1,1.91-.92A2.1,2.1,0,0,1,64,98,5.34,5.34,0,0,1,64.64,100.83ZM63.36,103a3.33,3.33,0,0,0,.23-.93,11.57,11.57,0,0,0,.06-1.28,11.9,11.9,0,0,0-.06-1.29,2.87,2.87,0,0,0-.24-.93,1.32,1.32,0,0,0-.46-.57,1.47,1.47,0,0,0-.76-.19,1.45,1.45,0,0,0-.76.19,1.33,1.33,0,0,0-.48.58,3,3,0,0,0-.23.94,12.51,12.51,0,0,0-.06,1.28,11.25,11.25,0,0,0,.06,1.27,2.89,2.89,0,0,0,.23.92,1.2,1.2,0,0,0,.45.58,1.42,1.42,0,0,0,.79.2,1.41,1.41,0,0,0,.76-.19A1.25,1.25,0,0,0,63.36,103Z"/><path class="c" d="M71,100.39a6.2,6.2,0,0,1-.22,1.73,3.42,3.42,0,0,1-.66,1.32,2.87,2.87,0,0,1-1.11.86,4.06,4.06,0,0,1-2.05.28,2.15,2.15,0,0,1-.4-.09v-.93h0a1.65,1.65,0,0,0,.4.14,2.47,2.47,0,0,0,.57.07,2.24,2.24,0,0,0,1.7-.65,3,3,0,0,0,.71-1.79,3.21,3.21,0,0,1-.86.39,3,3,0,0,1-.87.12,3.35,3.35,0,0,1-.81-.09,1.93,1.93,0,0,1-.73-.34,1.87,1.87,0,0,1-.65-.75,2.51,2.51,0,0,1-.22-1.1,2.39,2.39,0,0,1,.73-1.81,2.49,2.49,0,0,1,1.79-.7,2.84,2.84,0,0,1,1,.16,2.11,2.11,0,0,1,.78.49,2.66,2.66,0,0,1,.64,1A5.08,5.08,0,0,1,71,100.39Zm-1-.21A3.65,3.65,0,0,0,69.85,99a1.68,1.68,0,0,0-.42-.72,1.54,1.54,0,0,0-1.07-.41,1.45,1.45,0,0,0-1.11.44,1.78,1.78,0,0,0-.41,1.24,1.94,1.94,0,0,0,.13.75,1.3,1.3,0,0,0,.45.52,1.2,1.2,0,0,0,.48.2,3.51,3.51,0,0,0,.59.05,3,3,0,0,0,.77-.1,3.12,3.12,0,0,0,.73-.3c0-.07,0-.13,0-.2A1.93,1.93,0,0,0,70,100.18Z"/><path class="c" d="M75.45,101.72h-3v-.88h3Z"/><path class="c" d="M81.49,104.46H77.55v-.74h1.52V98.85H77.55v-.67a3.81,3.81,0,0,0,.66-.05,1.47,1.47,0,0,0,.54-.15,1,1,0,0,0,.35-.3,1,1,0,0,0,.15-.51H80v6.55h1.48Z"/><path class="c" d="M86.35,101.72h-3v-.88h3Z"/><path class="c" d="M92.79,100.83a5.26,5.26,0,0,1-.61,2.87,2.42,2.42,0,0,1-3.81,0,5.34,5.34,0,0,1-.61-2.85A5.27,5.27,0,0,1,88.38,98a2.12,2.12,0,0,1,1.9-.92,2.1,2.1,0,0,1,1.91.94A5.34,5.34,0,0,1,92.79,100.83ZM91.51,103a3.33,3.33,0,0,0,.23-.93,11.57,11.57,0,0,0,.06-1.28,11.9,11.9,0,0,0-.06-1.29,3.16,3.16,0,0,0-.23-.93A1.34,1.34,0,0,0,91,98a1.61,1.61,0,0,0-1.52,0,1.33,1.33,0,0,0-.48.58,3,3,0,0,0-.22.94,12.51,12.51,0,0,0-.06,1.28,11.55,11.55,0,0,0,0,1.27A3.18,3.18,0,0,0,89,103a1.28,1.28,0,0,0,.46.58,1.62,1.62,0,0,0,1.54,0A1.25,1.25,0,0,0,91.51,103Z"/><path class="c" d="M99.16,104.46H94.24v-1l1-.88q.51-.44,1-.87a9.59,9.59,0,0,0,1.28-1.44,2.1,2.1,0,0,0,.35-1.16,1.1,1.1,0,0,0-.38-.88,1.51,1.51,0,0,0-1-.32,3.46,3.46,0,0,0-1,.15,4.42,4.42,0,0,0-1,.48h0v-1a4.5,4.5,0,0,1,.93-.32A4.84,4.84,0,0,1,96.47,97a2.62,2.62,0,0,1,1.75.54A1.83,1.83,0,0,1,98.85,99a2.78,2.78,0,0,1-.1.78,2.6,2.6,0,0,1-.31.68,5.86,5.86,0,0,1-.45.6c-.17.19-.38.41-.62.64s-.71.68-1.08,1l-1,.89h3.91Z"/><path class="c" d="M105.57,102.44a2,2,0,0,1-.73,1.57,2.79,2.79,0,0,1-1.85.62,2.73,2.73,0,0,1-1.88-.61,2,2,0,0,1-.7-1.56,1.8,1.8,0,0,1,.35-1.1,2.31,2.31,0,0,1,1-.78v0a2.51,2.51,0,0,1-.87-.68,1.55,1.55,0,0,1-.28-.93,1.7,1.7,0,0,1,.68-1.37A2.63,2.63,0,0,1,103,97a2.67,2.67,0,0,1,1.74.52,1.64,1.64,0,0,1,.65,1.33,1.82,1.82,0,0,1-.31,1,2.07,2.07,0,0,1-.9.74v0a2.9,2.9,0,0,1,1,.72A1.67,1.67,0,0,1,105.57,102.44Zm-1,.09a1.2,1.2,0,0,0-.2-.72,2,2,0,0,0-.77-.54,3.86,3.86,0,0,0-.51-.2l-.73-.26a1.9,1.9,0,0,0-.7.65,1.63,1.63,0,0,0-.27.92,1.41,1.41,0,0,0,.46,1.09,1.58,1.58,0,0,0,1.15.43,1.73,1.73,0,0,0,1.14-.36A1.28,1.28,0,0,0,104.57,102.53Zm-.15-3.64a1,1,0,0,0-.41-.83,1.62,1.62,0,0,0-1-.31,1.58,1.58,0,0,0-1,.29.92.92,0,0,0-.4.79,1,1,0,0,0,.2.61,1.63,1.63,0,0,0,.6.45c.12.06.29.14.52.23a5.34,5.34,0,0,0,.66.24,2,2,0,0,0,.67-.67A1.72,1.72,0,0,0,104.42,98.89Z"/><path class="c" d="M111.9,98.28l-3.3,6.18h-1l3.5-6.41h-4.14v-.86h5Z"/><g class="d"><g class="e"><g class="f"><path class="g" d="M82.22,3h30.89q10.1,0,15.12,4.8t5,13.66q0,9.11-5.47,14.24t-16.72,5.12H100.89V63.15H82.22Zm18.67,25.64h4.55q5.37,0,7.55-1.87A6,6,0,0,0,115.16,22a6.7,6.7,0,0,0-1.89-4.8c-1.25-1.31-3.62-2-7.09-2h-5.29Z"/><path class="h" d="M48.56,9.59H66.71a21.73,21.73,0,0,1,8.67,1.46,14.08,14.08,0,0,1,5.46,4.18A17.29,17.29,0,0,1,84,21.57a29.21,29.21,0,0,1,1,7.65,26.59,26.59,0,0,1-1.44,9.83,16.31,16.31,0,0,1-4,5.86A13,13,0,0,1,74,48.05a28.34,28.34,0,0,1-7.28,1.08H48.56Zm12.22,9V40.15h3a12.71,12.71,0,0,0,5.45-.85,5.77,5.77,0,0,0,2.53-3,18.63,18.63,0,0,0,.92-6.86q0-6.28-2-8.61c-1.37-1.54-3.63-2.32-6.8-2.32Z"/><path class="i" d="M0,41.18l17.64-1.11A13.35,13.35,0,0,0,20,46.62a9.77,9.77,0,0,0,8.18,3.64,9.06,9.06,0,0,0,6.12-1.86,5.59,5.59,0,0,0,2.15-4.32,5.5,5.5,0,0,0-2-4.17q-2-1.84-9.49-3.48-12.21-2.74-17.4-7.29A14.66,14.66,0,0,1,2.25,17.56,15.72,15.72,0,0,1,4.93,8.82,17.83,17.83,0,0,1,13,2.35Q18.37,0,27.75,0,39.26,0,45.29,4.28t7.18,13.61L35,18.91c-.47-2.7-1.44-4.67-2.93-5.89a9.39,9.39,0,0,0-6.16-1.85A7.39,7.39,0,0,0,21,12.55a4.19,4.19,0,0,0-1.64,3.33,3.33,3.33,0,0,0,1.35,2.58q1.32,1.18,6.22,2.21Q39.14,23.3,44.39,26A18.3,18.3,0,0,1,52,32.62a16.85,16.85,0,0,1,2.4,8.88,19.11,19.11,0,0,1-3.19,10.65,20,20,0,0,1-8.93,7.38q-5.73,2.52-14.45,2.52-15.3,0-21.2-5.89A23.27,23.27,0,0,1,0,41.18"/></g></g></g><g class="j"><g class="e"><g class="f"><path class="g" d="M82.22,3h30.89q10.1,0,15.12,4.8t5,13.66q0,9.11-5.47,14.24t-16.72,5.12H100.89V63.15H82.22Zm18.67,25.64h4.55q5.37,0,7.55-1.87A6,6,0,0,0,115.16,22a6.7,6.7,0,0,0-1.89-4.8c-1.25-1.31-3.62-2-7.09-2h-5.29Z"/><path class="h" d="M48.56,9.59H66.71a21.73,21.73,0,0,1,8.67,1.46,14.08,14.08,0,0,1,5.46,4.18A17.29,17.29,0,0,1,84,21.57a29.21,29.21,0,0,1,1,7.65,26.59,26.59,0,0,1-1.44,9.83,16.31,16.31,0,0,1-4,5.86A13,13,0,0,1,74,48.05a28.34,28.34,0,0,1-7.28,1.08H48.56Zm12.22,9V40.15h3a12.71,12.71,0,0,0,5.45-.85,5.77,5.77,0,0,0,2.53-3,18.63,18.63,0,0,0,.92-6.86q0-6.28-2-8.61c-1.37-1.54-3.63-2.32-6.8-2.32Z"/><path class="i" d="M0,41.18l17.64-1.11A13.35,13.35,0,0,0,20,46.62a9.77,9.77,0,0,0,8.18,3.64,9.06,9.06,0,0,0,6.12-1.86,5.59,5.59,0,0,0,2.15-4.32,5.5,5.5,0,0,0-2-4.17q-2-1.84-9.49-3.48-12.21-2.74-17.4-7.29A14.66,14.66,0,0,1,2.25,17.56,15.72,15.72,0,0,1,4.93,8.82,17.83,17.83,0,0,1,13,2.35Q18.37,0,27.75,0,39.26,0,45.29,4.28t7.18,13.61L35,18.91c-.47-2.7-1.44-4.67-2.93-5.89a9.39,9.39,0,0,0-6.16-1.85A7.39,7.39,0,0,0,21,12.55a4.19,4.19,0,0,0-1.64,3.33,3.33,3.33,0,0,0,1.35,2.58q1.32,1.18,6.22,2.21Q39.14,23.3,44.39,26A18.3,18.3,0,0,1,52,32.62a16.85,16.85,0,0,1,2.4,8.88,19.11,19.11,0,0,1-3.19,10.65,20,20,0,0,1-8.93,7.38q-5.73,2.52-14.45,2.52-15.3,0-21.2-5.89A23.27,23.27,0,0,1,0,41.18"/></g></g></g><g class="k"><g class="l"><path class="m" d="M2.51,63.55l.71-.06a1.57,1.57,0,0,0,.23.7,1.35,1.35,0,0,0,.58.45,2.23,2.23,0,0,0,.88.17,2.2,2.2,0,0,0,.76-.13,1.14,1.14,0,0,0,.5-.36.84.84,0,0,0,.16-.48.71.71,0,0,0-.16-.47A1.06,1.06,0,0,0,5.66,63a9.31,9.31,0,0,0-1-.28,5.72,5.72,0,0,1-1.11-.36,1.6,1.6,0,0,1-.61-.53,1.33,1.33,0,0,1-.2-.71A1.41,1.41,0,0,1,3,60.34a1.49,1.49,0,0,1,.72-.57,2.69,2.69,0,0,1,1.05-.2,2.83,2.83,0,0,1,1.12.21,1.53,1.53,0,0,1,.74.6,1.72,1.72,0,0,1,.29.9l-.73,0a1.13,1.13,0,0,0-.4-.81,1.48,1.48,0,0,0-1-.28,1.58,1.58,0,0,0-1,.25.76.76,0,0,0-.32.61.64.64,0,0,0,.23.5A2.81,2.81,0,0,0,4.82,62a7,7,0,0,1,1.26.37,1.65,1.65,0,0,1,.74.58,1.4,1.4,0,0,1,.24.81,1.58,1.58,0,0,1-.26.86,1.79,1.79,0,0,1-.75.63,2.65,2.65,0,0,1-1.11.23,3.32,3.32,0,0,1-1.3-.23,1.85,1.85,0,0,1-1.13-1.71Z"/><path class="m" d="M11.35,64.05l.73.09a1.78,1.78,0,0,1-.64,1,2,2,0,0,1-1.19.35,1.88,1.88,0,0,1-1.44-.56,2.21,2.21,0,0,1-.53-1.57,2.26,2.26,0,0,1,.54-1.62,1.8,1.8,0,0,1,1.39-.58,1.76,1.76,0,0,1,1.36.57,2.23,2.23,0,0,1,.53,1.59v.19H9a1.56,1.56,0,0,0,.38,1,1.15,1.15,0,0,0,.87.36,1.08,1.08,0,0,0,.66-.2A1.35,1.35,0,0,0,11.35,64.05ZM9,62.92h2.32a1.39,1.39,0,0,0-.27-.79,1.06,1.06,0,0,0-.87-.4,1.13,1.13,0,0,0-.81.32A1.34,1.34,0,0,0,9,62.92Z"/><path class="m" d="M16.16,63.87l.69.09a1.76,1.76,0,0,1-.57,1.12,1.7,1.7,0,0,1-1.15.4,1.79,1.79,0,0,1-1.37-.55,2.29,2.29,0,0,1-.51-1.6,2.81,2.81,0,0,1,.22-1.17,1.56,1.56,0,0,1,.67-.76,2,2,0,0,1,1-.25,1.79,1.79,0,0,1,1.11.34,1.6,1.6,0,0,1,.55,1l-.68.11a1.14,1.14,0,0,0-.35-.63.88.88,0,0,0-.6-.21,1.07,1.07,0,0,0-.86.38,1.79,1.79,0,0,0-.33,1.2,1.86,1.86,0,0,0,.32,1.22,1,1,0,0,0,.83.37,1,1,0,0,0,.69-.25A1.24,1.24,0,0,0,16.16,63.87Z"/><path class="m" d="M18,65.39V61.24h.63v.63a1.76,1.76,0,0,1,.45-.58.77.77,0,0,1,.45-.14,1.41,1.41,0,0,1,.72.23L20,62a1,1,0,0,0-.52-.15.62.62,0,0,0-.41.14.74.74,0,0,0-.26.38,2.66,2.66,0,0,0-.12.82v2.17Z"/><path class="m" d="M24,64.05l.73.09a1.78,1.78,0,0,1-.64,1,1.93,1.93,0,0,1-1.19.35,1.88,1.88,0,0,1-1.44-.56,2.21,2.21,0,0,1-.53-1.57,2.26,2.26,0,0,1,.54-1.62,1.8,1.8,0,0,1,1.4-.58,1.75,1.75,0,0,1,1.35.57,2.23,2.23,0,0,1,.53,1.59v.19H21.65a1.56,1.56,0,0,0,.38,1,1.15,1.15,0,0,0,.87.36,1,1,0,0,0,.66-.2A1.28,1.28,0,0,0,24,64.05Zm-2.3-1.13H24a1.39,1.39,0,0,0-.27-.79,1.06,1.06,0,0,0-.87-.4,1.13,1.13,0,0,0-.81.32A1.28,1.28,0,0,0,21.69,62.92Z"/><path class="m" d="M27.54,64.76l.1.62a2.69,2.69,0,0,1-.53.06,1.21,1.21,0,0,1-.59-.12.66.66,0,0,1-.3-.32,2.42,2.42,0,0,1-.08-.82V61.79h-.52v-.55h.52v-1l.69-.42v1.44h.71v.55h-.71v2.42a1.4,1.4,0,0,0,0,.39.41.41,0,0,0,.12.14.54.54,0,0,0,.24.05Z"/><path class="m" d="M31.5,64.88a2.87,2.87,0,0,1-.75.47,2.2,2.2,0,0,1-.78.13,1.54,1.54,0,0,1-1-.33,1.11,1.11,0,0,1-.36-.85,1.16,1.16,0,0,1,.13-.56,1.19,1.19,0,0,1,.37-.4,1.52,1.52,0,0,1,.5-.23,3.92,3.92,0,0,1,.63-.11,7.08,7.08,0,0,0,1.25-.24v-.19a.75.75,0,0,0-.2-.6,1.16,1.16,0,0,0-.8-.24,1.21,1.21,0,0,0-.73.18,1.05,1.05,0,0,0-.35.61l-.68-.09a1.66,1.66,0,0,1,.3-.71,1.27,1.27,0,0,1,.62-.42,2.79,2.79,0,0,1,.95-.15,2.32,2.32,0,0,1,.86.13,1,1,0,0,1,.48.31,1.06,1.06,0,0,1,.22.48,3.18,3.18,0,0,1,0,.65v.93a10.24,10.24,0,0,0,0,1.24,1.58,1.58,0,0,0,.18.5h-.73A1.37,1.37,0,0,1,31.5,64.88Zm-.06-1.57a5.38,5.38,0,0,1-1.15.26,3.31,3.31,0,0,0-.61.14.71.71,0,0,0-.28.23.65.65,0,0,0-.1.34.6.6,0,0,0,.22.46.89.89,0,0,0,.62.19,1.43,1.43,0,0,0,.72-.18,1.09,1.09,0,0,0,.47-.48,1.79,1.79,0,0,0,.11-.7Z"/><path class="m" d="M33.7,65.39V61.24h.63v.63a1.76,1.76,0,0,1,.45-.58.82.82,0,0,1,.45-.14,1.36,1.36,0,0,1,.72.23l-.24.65a1,1,0,0,0-.52-.15.62.62,0,0,0-.41.14.74.74,0,0,0-.26.38,2.66,2.66,0,0,0-.12.82v2.17Z"/><path class="m" d="M37,60.48v-.81h.71v.81Zm0,4.91V61.24h.71v4.15Z"/><path class="m" d="M41.92,64.88a2.87,2.87,0,0,1-.75.47,2.2,2.2,0,0,1-.78.13,1.54,1.54,0,0,1-1-.33A1.11,1.11,0,0,1,39,64.3a1.06,1.06,0,0,1,.14-.56,1.07,1.07,0,0,1,.36-.4,1.52,1.52,0,0,1,.5-.23,3.92,3.92,0,0,1,.63-.11,6.89,6.89,0,0,0,1.25-.24v-.19a.79.79,0,0,0-.19-.6,1.18,1.18,0,0,0-.8-.24,1.24,1.24,0,0,0-.74.18,1,1,0,0,0-.34.61l-.69-.09a1.55,1.55,0,0,1,.31-.71A1.23,1.23,0,0,1,40,61.3a2.69,2.69,0,0,1,.94-.15,2.32,2.32,0,0,1,.86.13,1.12,1.12,0,0,1,.49.31,1.33,1.33,0,0,1,.22.48,4.59,4.59,0,0,1,0,.65v.93a9.44,9.44,0,0,0,0,1.24,1.56,1.56,0,0,0,.17.5h-.73A1.59,1.59,0,0,1,41.92,64.88Zm-.06-1.57a5.24,5.24,0,0,1-1.15.26,3.53,3.53,0,0,0-.61.14.71.71,0,0,0-.28.23.64.64,0,0,0-.09.34.59.59,0,0,0,.21.46.89.89,0,0,0,.62.19,1.43,1.43,0,0,0,.72-.18,1.09,1.09,0,0,0,.47-.48,1.79,1.79,0,0,0,.11-.7Z"/><path class="m" d="M46.76,65.39V59.67h2a5.23,5.23,0,0,1,1,.08,2,2,0,0,1,.84.41,2.35,2.35,0,0,1,.67,1,3.8,3.8,0,0,1,.23,1.36,4,4,0,0,1-.15,1.15,3.06,3.06,0,0,1-.39.83,2.13,2.13,0,0,1-.52.52,2,2,0,0,1-.69.29,3.65,3.65,0,0,1-.92.1Zm.76-.68h1.22a3.07,3.07,0,0,0,.89-.1,1.28,1.28,0,0,0,.51-.3,1.81,1.81,0,0,0,.42-.72,3.57,3.57,0,0,0,.15-1.1,2.62,2.62,0,0,0-.3-1.38,1.42,1.42,0,0,0-.71-.65,2.92,2.92,0,0,0-1-.12h-1.2Z"/><path class="m" d="M53,60.48v-.81h.7v.81Zm0,4.91V61.24h.7v4.15Z"/><path class="m" d="M55,64.15l.69-.11a1,1,0,0,0,.33.64,1.11,1.11,0,0,0,.74.22,1.09,1.09,0,0,0,.72-.19.59.59,0,0,0,.24-.47.43.43,0,0,0-.21-.37,3.52,3.52,0,0,0-.72-.24,7.54,7.54,0,0,1-1.07-.33,1,1,0,0,1-.45-.4,1.07,1.07,0,0,1-.16-.55,1.14,1.14,0,0,1,.13-.52,1.1,1.1,0,0,1,.35-.39,1.5,1.5,0,0,1,.44-.21,2.37,2.37,0,0,1,.61-.08,2.5,2.5,0,0,1,.86.14,1.25,1.25,0,0,1,.54.38,1.43,1.43,0,0,1,.24.64l-.69.1a.73.73,0,0,0-.27-.5,1,1,0,0,0-.63-.18,1.13,1.13,0,0,0-.69.16.47.47,0,0,0-.21.37.38.38,0,0,0,.09.25.72.72,0,0,0,.27.19l.62.18a10.11,10.11,0,0,1,1,.32,1.13,1.13,0,0,1,.46.37,1,1,0,0,1,.17.6,1.15,1.15,0,0,1-.21.66,1.24,1.24,0,0,1-.59.48,2,2,0,0,1-.87.17,2,2,0,0,1-1.23-.33A1.61,1.61,0,0,1,55,64.15Z"/><path class="m" d="M61.22,64.76l.1.62a2.61,2.61,0,0,1-.53.06,1.21,1.21,0,0,1-.59-.12.66.66,0,0,1-.3-.32,2.73,2.73,0,0,1-.08-.82V61.79H59.3v-.55h.52v-1l.7-.42v1.44h.7v.55h-.7v2.42a1.55,1.55,0,0,0,0,.39.41.41,0,0,0,.12.14.54.54,0,0,0,.24.05Z"/><path class="m" d="M62.43,65.39V61.24h.63v.63a1.76,1.76,0,0,1,.45-.58.77.77,0,0,1,.45-.14,1.41,1.41,0,0,1,.72.23l-.24.65a1,1,0,0,0-.52-.15.62.62,0,0,0-.41.14.74.74,0,0,0-.26.38,2.66,2.66,0,0,0-.12.82v2.17Z"/><path class="m" d="M65.69,60.48v-.81h.7v.81Zm0,4.91V61.24h.7v4.15Z"/><path class="m" d="M69.47,64.76l.1.62a2.77,2.77,0,0,1-.53.06,1.18,1.18,0,0,1-.59-.12.62.62,0,0,1-.3-.32,2.34,2.34,0,0,1-.09-.82V61.79h-.51v-.55h.51v-1l.7-.42v1.44h.71v.55h-.71v2.42a1.09,1.09,0,0,0,0,.39.27.27,0,0,0,.12.14.48.48,0,0,0,.24.05Z"/><path class="m" d="M73.43,64.88a2.87,2.87,0,0,1-.75.47,2.24,2.24,0,0,1-.78.13,1.54,1.54,0,0,1-1.05-.33,1.12,1.12,0,0,1-.37-.85,1.16,1.16,0,0,1,.14-.56,1.19,1.19,0,0,1,.37-.4,1.43,1.43,0,0,1,.5-.23,3.92,3.92,0,0,1,.63-.11,7.08,7.08,0,0,0,1.25-.24v-.19a.79.79,0,0,0-.2-.6,1.16,1.16,0,0,0-.8-.24,1.21,1.21,0,0,0-.73.18,1.05,1.05,0,0,0-.35.61l-.69-.09a1.79,1.79,0,0,1,.31-.71,1.27,1.27,0,0,1,.62-.42,2.73,2.73,0,0,1,.94-.15,2.35,2.35,0,0,1,.87.13,1,1,0,0,1,.48.31,1.06,1.06,0,0,1,.22.48,3.18,3.18,0,0,1,0,.65v.93a10.24,10.24,0,0,0,0,1.24,1.58,1.58,0,0,0,.18.5h-.73A1.37,1.37,0,0,1,73.43,64.88Zm-.06-1.57a5.38,5.38,0,0,1-1.15.26,3.31,3.31,0,0,0-.61.14.71.71,0,0,0-.28.23.65.65,0,0,0-.1.34.57.57,0,0,0,.22.46.89.89,0,0,0,.62.19,1.43,1.43,0,0,0,.72-.18,1,1,0,0,0,.46-.48,1.6,1.6,0,0,0,.12-.7Z"/><path class="m" d="M75.62,65.39V59.67h.7v5.72Z"/><path class="m" d="M83.11,65.39v-.52a1.28,1.28,0,0,1-1.16.61,1.64,1.64,0,0,1-.91-.27,1.77,1.77,0,0,1-.64-.76,2.71,2.71,0,0,1-.23-1.13,3,3,0,0,1,.21-1.13,1.58,1.58,0,0,1,.62-.77,1.63,1.63,0,0,1,.92-.27,1.35,1.35,0,0,1,.67.16,1.33,1.33,0,0,1,.47.41v-2h.7v5.72Zm-2.22-2.07a1.76,1.76,0,0,0,.34,1.19,1,1,0,0,0,.79.39,1,1,0,0,0,.78-.37,1.72,1.72,0,0,0,.32-1.15,2,2,0,0,0-.32-1.25,1,1,0,0,0-.81-.4,1,1,0,0,0-.78.38A1.9,1.9,0,0,0,80.89,63.32Z"/><path class="m" d="M88.18,64.05l.73.09a1.78,1.78,0,0,1-.64,1,1.92,1.92,0,0,1-1.18.35,1.89,1.89,0,0,1-1.45-.56,2.21,2.21,0,0,1-.53-1.57,2.26,2.26,0,0,1,.54-1.62,1.8,1.8,0,0,1,1.4-.58,1.75,1.75,0,0,1,1.35.57,2.18,2.18,0,0,1,.53,1.59v.19H85.84a1.56,1.56,0,0,0,.38,1,1.17,1.17,0,0,0,.87.36,1,1,0,0,0,.66-.2A1.28,1.28,0,0,0,88.18,64.05Zm-2.3-1.13h2.31a1.47,1.47,0,0,0-.26-.79,1.1,1.1,0,0,0-.88-.4,1.13,1.13,0,0,0-.81.32A1.28,1.28,0,0,0,85.88,62.92Z"/><path class="m" d="M92.89,65.39V59.67h2.16a6.15,6.15,0,0,1,.87,0,1.88,1.88,0,0,1,.71.27,1.45,1.45,0,0,1,.45.55,1.72,1.72,0,0,1,.18.78,1.77,1.77,0,0,1-.47,1.24,2.26,2.26,0,0,1-1.68.5H93.65v2.33Zm.76-3h1.48a1.52,1.52,0,0,0,1-.28,1,1,0,0,0,.31-.76,1.05,1.05,0,0,0-.18-.62,1,1,0,0,0-.48-.34,3.61,3.61,0,0,0-.71,0H93.65Z"/><path class="m" d="M98.56,65.39V59.67h.7v5.72Z"/><path class="m" d="M103.53,64.88a2.87,2.87,0,0,1-.75.47,2.2,2.2,0,0,1-.78.13,1.54,1.54,0,0,1-1-.33,1.11,1.11,0,0,1-.36-.85,1.16,1.16,0,0,1,.13-.56,1.19,1.19,0,0,1,.37-.4,1.52,1.52,0,0,1,.5-.23,3.92,3.92,0,0,1,.63-.11,7.08,7.08,0,0,0,1.25-.24v-.19a.75.75,0,0,0-.2-.6,1.14,1.14,0,0,0-.8-.24,1.21,1.21,0,0,0-.73.18,1.11,1.11,0,0,0-.35.61l-.68-.09a1.55,1.55,0,0,1,.31-.71,1.23,1.23,0,0,1,.62-.42,2.69,2.69,0,0,1,.94-.15,2.32,2.32,0,0,1,.86.13,1.12,1.12,0,0,1,.49.31,1.17,1.17,0,0,1,.21.48,3.18,3.18,0,0,1,0,.65v.93a10.24,10.24,0,0,0,0,1.24,1.88,1.88,0,0,0,.18.5h-.73A1.59,1.59,0,0,1,103.53,64.88Zm-.06-1.57a5.24,5.24,0,0,1-1.15.26,3.31,3.31,0,0,0-.61.14.71.71,0,0,0-.28.23.64.64,0,0,0-.09.34.59.59,0,0,0,.21.46.89.89,0,0,0,.62.19,1.43,1.43,0,0,0,.72-.18,1.09,1.09,0,0,0,.47-.48,1.79,1.79,0,0,0,.11-.7Z"/><path class="m" d="M105.74,65.39V61.24h.63v.59a1.51,1.51,0,0,1,1.32-.68,1.74,1.74,0,0,1,.69.14,1,1,0,0,1,.47.35,1.36,1.36,0,0,1,.22.52,4.76,4.76,0,0,1,0,.68v2.55h-.71V62.87a1.74,1.74,0,0,0-.08-.64.61.61,0,0,0-.29-.34.88.88,0,0,0-.49-.13,1.11,1.11,0,0,0-.77.28,1.4,1.4,0,0,0-.33,1.09v2.26Z"/><path class="m" d="M113.5,64.05l.72.09a1.71,1.71,0,0,1-.63,1,2,2,0,0,1-1.19.35,1.88,1.88,0,0,1-1.44-.56,2.21,2.21,0,0,1-.53-1.57,2.26,2.26,0,0,1,.54-1.62,1.8,1.8,0,0,1,1.39-.58,1.76,1.76,0,0,1,1.36.57,2.23,2.23,0,0,1,.53,1.59,1.58,1.58,0,0,1,0,.19h-3.09a1.61,1.61,0,0,0,.39,1,1.15,1.15,0,0,0,.87.36,1.08,1.08,0,0,0,.66-.2A1.35,1.35,0,0,0,113.5,64.05Zm-2.31-1.13h2.32a1.39,1.39,0,0,0-.27-.79,1.06,1.06,0,0,0-.87-.4,1.13,1.13,0,0,0-.81.32A1.34,1.34,0,0,0,111.19,62.92Z"/><path class="m" d="M118.29,64.88a2.87,2.87,0,0,1-.75.47,2.2,2.2,0,0,1-.78.13,1.54,1.54,0,0,1-1.05-.33,1.11,1.11,0,0,1-.36-.85,1.06,1.06,0,0,1,.14-.56,1.07,1.07,0,0,1,.36-.4,1.52,1.52,0,0,1,.5-.23A3.92,3.92,0,0,1,117,63a6.89,6.89,0,0,0,1.25-.24v-.19A.79.79,0,0,0,118,62a1.18,1.18,0,0,0-.8-.24,1.24,1.24,0,0,0-.74.18,1,1,0,0,0-.34.61l-.69-.09a1.55,1.55,0,0,1,.31-.71,1.23,1.23,0,0,1,.62-.42,2.69,2.69,0,0,1,.94-.15,2.32,2.32,0,0,1,.86.13,1.12,1.12,0,0,1,.49.31,1.33,1.33,0,0,1,.22.48,4.59,4.59,0,0,1,0,.65v.93a9.44,9.44,0,0,0,0,1.24,1.56,1.56,0,0,0,.17.5h-.73A1.59,1.59,0,0,1,118.29,64.88Zm-.06-1.57a5.24,5.24,0,0,1-1.15.26,3.53,3.53,0,0,0-.61.14.71.71,0,0,0-.28.23.64.64,0,0,0-.09.34.59.59,0,0,0,.21.46.89.89,0,0,0,.62.19,1.43,1.43,0,0,0,.72-.18,1.09,1.09,0,0,0,.47-.48,1.79,1.79,0,0,0,.11-.7Z"/><path class="m" d="M123.18,63.87l.69.09a1.77,1.77,0,0,1-.58,1.12,1.67,1.67,0,0,1-1.14.4,1.77,1.77,0,0,1-1.37-.55,2.25,2.25,0,0,1-.52-1.6,3,3,0,0,1,.22-1.17,1.58,1.58,0,0,1,.68-.76,2,2,0,0,1,1-.25,1.79,1.79,0,0,1,1.11.34,1.58,1.58,0,0,1,.54,1l-.68.11a1.13,1.13,0,0,0-.34-.63.91.91,0,0,0-.6-.21,1.06,1.06,0,0,0-.86.38,1.79,1.79,0,0,0-.34,1.2,1.92,1.92,0,0,0,.32,1.22,1.07,1.07,0,0,0,.84.37,1,1,0,0,0,.69-.25A1.29,1.29,0,0,0,123.18,63.87Z"/><path class="m" d="M125,60.48v-.81h.7v.81Zm0,4.91V61.24h.7v4.15Z"/><path class="m" d="M127.06,63.32a2.13,2.13,0,0,1,.64-1.71,2,2,0,0,1,2.7.1,2.13,2.13,0,0,1,.54,1.55,2.77,2.77,0,0,1-.24,1.26,1.71,1.71,0,0,1-.7.71,2,2,0,0,1-1,.25,1.85,1.85,0,0,1-1.41-.56A2.24,2.24,0,0,1,127.06,63.32Zm.72,0a1.73,1.73,0,0,0,.35,1.19,1.17,1.17,0,0,0,1.74,0,1.83,1.83,0,0,0,.35-1.22,1.71,1.71,0,0,0-.35-1.16,1.15,1.15,0,0,0-1.74,0A1.71,1.71,0,0,0,127.78,63.32Zm.83-2.59.52-1.09h.92l-.86,1.09Z"/><path class="m" d="M132.26,65.39V61.24h.64v.59a1.49,1.49,0,0,1,1.32-.68,1.65,1.65,0,0,1,.68.14,1,1,0,0,1,.47.35,1.22,1.22,0,0,1,.22.52,3.61,3.61,0,0,1,0,.68v2.55h-.7V62.87a2,2,0,0,0-.08-.64.65.65,0,0,0-.29-.34.88.88,0,0,0-.49-.13,1.15,1.15,0,0,0-.78.28,1.45,1.45,0,0,0-.32,1.09v2.26Z"/></g></g></g></svg>