<svg xmlns="http://www.w3.org/2000/svg" xmlns:xlink="http://www.w3.org/1999/xlink" viewBox="0 0 157.35 127.26"><defs><style>.a{fill:none;}.b{fill:#7e8083;}.c{opacity:0.8;}.d{clip-path:url(#a);}.e{fill:#555658;}.e,.f,.g,.h{fill-rule:evenodd;}.f{fill:#cbcdcf;}.g{fill:#6d6e71;}.h,.i{fill:#231f20;}</style><clipPath id="a"><rect class="a" x="3.41" width="150.71" height="68.63"/></clipPath></defs><path class="b" d="M2.6,89.24a5.94,5.94,0,0,1-1.35-.15A6.05,6.05,0,0,1,0,88.64l.23-1.11H.3a3.37,3.37,0,0,0,1.15.68,4,4,0,0,0,1.32.24A2.6,2.6,0,0,0,4.36,88a1.25,1.25,0,0,0,.56-1,.83.83,0,0,0-.2-.56,1.17,1.17,0,0,0-.58-.33,7.15,7.15,0,0,0-.75-.17c-.3,0-.57-.11-.84-.17a2.39,2.39,0,0,1-1.18-.59,1.4,1.4,0,0,1-.42-1,2.11,2.11,0,0,1,.88-1.73,3.58,3.58,0,0,1,2.28-.69,5.39,5.39,0,0,1,1.38.16,5.54,5.54,0,0,1,1.07.37l-.22,1H6.27a3.08,3.08,0,0,0-1-.55,4.07,4.07,0,0,0-1.35-.23,2.32,2.32,0,0,0-1.42.39,1.17,1.17,0,0,0-.53,1,.87.87,0,0,0,.19.57,1.18,1.18,0,0,0,.68.37l.83.18.87.19a2.28,2.28,0,0,1,1.05.57,1.32,1.32,0,0,1,.36.95,2.09,2.09,0,0,1-.24,1,2.31,2.31,0,0,1-.65.81A3.53,3.53,0,0,1,4,89,4.7,4.7,0,0,1,2.6,89.24Z"/><path class="b" d="M12.63,83.66l-1.25,5.45h-.92l.14-.6a6.7,6.7,0,0,1-1,.55,2.38,2.38,0,0,1-.95.2,1.63,1.63,0,0,1-1.1-.35,1.34,1.34,0,0,1-.39-1,1.72,1.72,0,0,1,0-.32,2.86,2.86,0,0,1,.06-.35l.81-3.54H9l-.71,3.1c0,.13-.06.27-.09.44a3.29,3.29,0,0,0,0,.38.86.86,0,0,0,.21.63,1,1,0,0,0,.72.21,2.07,2.07,0,0,0,.83-.21,6,6,0,0,0,.86-.48l.93-4.07Z"/><path class="b" d="M18.73,85.38a4.8,4.8,0,0,1-.25,1.52,4,4,0,0,1-.67,1.23,3.14,3.14,0,0,1-1,.83,2.39,2.39,0,0,1-1.19.3,3,3,0,0,1-.81-.11,2.82,2.82,0,0,1-.68-.31l-.12.27h-.86l1.75-7.6h.92l-.62,2.72a4.88,4.88,0,0,1,.89-.52,2.18,2.18,0,0,1,1-.21,1.52,1.52,0,0,1,1.22.5A2.07,2.07,0,0,1,18.73,85.38Zm-1.51,2.19a3.25,3.25,0,0,0,.41-.93,4.23,4.23,0,0,0,.13-1.09,1.39,1.39,0,0,0-.25-.89,1,1,0,0,0-.81-.32,2.06,2.06,0,0,0-.84.2,6.32,6.32,0,0,0-.81.46l-.72,3.12a3.49,3.49,0,0,0,.61.26,2.38,2.38,0,0,0,.7.09,1.66,1.66,0,0,0,.91-.25A2.19,2.19,0,0,0,17.22,87.57Z"/><path class="b" d="M25.59,81.51l-1.75,7.6h-.92l.13-.57a5.29,5.29,0,0,1-1,.57,2.18,2.18,0,0,1-.82.15A1.57,1.57,0,0,1,20,88.77a2,2,0,0,1-.45-1.42,4.5,4.5,0,0,1,.24-1.48,4,4,0,0,1,.66-1.23,3.22,3.22,0,0,1,1-.83,2.56,2.56,0,0,1,1.21-.31,3.37,3.37,0,0,1,.8.1,2.38,2.38,0,0,1,.68.28l.55-2.37ZM24,84.64a2.56,2.56,0,0,0-1.31-.34,1.69,1.69,0,0,0-.9.25,2.1,2.1,0,0,0-.69.67,2.83,2.83,0,0,0-.39.93,3.89,3.89,0,0,0-.14,1,1.43,1.43,0,0,0,.25.91,1,1,0,0,0,.84.31,2,2,0,0,0,.83-.2,6.54,6.54,0,0,0,.79-.45Z"/><path class="b" d="M27.83,83.66l-1.26,5.45h-.92l1.26-5.45Zm.5-1.87-.22.95h-1l.22-.95Z"/><path class="b" d="M32.79,84.62h0l-.36-.07-.41,0a2.19,2.19,0,0,0-.91.21,5.34,5.34,0,0,0-.86.5l-.88,3.87h-.93l1.24-5.45h.93l-.18.8a5.78,5.78,0,0,1,1.1-.63,2.31,2.31,0,0,1,.86-.17h.35l.31,0Z"/><path class="b" d="M35.24,89.24a2.68,2.68,0,0,1-1.78-.54,1.88,1.88,0,0,1-.64-1.55,3.74,3.74,0,0,1,.94-2.57,3,3,0,0,1,2.35-1.08,2,2,0,0,1,1.41.46,1.71,1.71,0,0,1,.5,1.3c0,.1,0,.25,0,.47s-.08.45-.14.73h-4c0,.1,0,.19,0,.28a2.35,2.35,0,0,0,0,.26,1.43,1.43,0,0,0,.42,1.08,1.69,1.69,0,0,0,1.19.39,3.2,3.2,0,0,0,1.11-.21,4.67,4.67,0,0,0,.95-.47h.06l-.21,1-.43.16a4.48,4.48,0,0,1-.5.15l-.54.11A4.39,4.39,0,0,1,35.24,89.24Zm1.83-3.45a1.2,1.2,0,0,0,0-.24,1.48,1.48,0,0,0,0-.21,1.12,1.12,0,0,0-.28-.82,1.23,1.23,0,0,0-.92-.29,1.9,1.9,0,0,0-1.23.43A2,2,0,0,0,34,85.79Z"/><path class="b" d="M41,89.23a3.21,3.21,0,0,1-.92-.12,1.75,1.75,0,0,1-.69-.39,1.55,1.55,0,0,1-.45-.64,2.4,2.4,0,0,1-.16-.89A4.13,4.13,0,0,1,39,85.76a3.57,3.57,0,0,1,.68-1.17,3.13,3.13,0,0,1,1-.78,3.23,3.23,0,0,1,1.35-.28,2.92,2.92,0,0,1,.9.13,4.34,4.34,0,0,1,.75.31l-.2,1h-.06l-.24-.2a2.33,2.33,0,0,0-.35-.22,1.92,1.92,0,0,0-.44-.17,2,2,0,0,0-.56-.07,1.86,1.86,0,0,0-1.55.79,3.22,3.22,0,0,0-.59,2,1.42,1.42,0,0,0,.35,1,1.32,1.32,0,0,0,1,.37,2.13,2.13,0,0,0,.61-.08,3.55,3.55,0,0,0,.53-.19,4.56,4.56,0,0,0,.44-.24l.3-.19H43l-.19,1a6.9,6.9,0,0,1-.9.33A3.19,3.19,0,0,1,41,89.23Z"/><path class="b" d="M46.19,89.23a3.21,3.21,0,0,1-.92-.12,1.75,1.75,0,0,1-.69-.39,1.55,1.55,0,0,1-.45-.64,2.4,2.4,0,0,1-.16-.89,4.13,4.13,0,0,1,.24-1.43,3.57,3.57,0,0,1,.68-1.17,3.13,3.13,0,0,1,1-.78,3.23,3.23,0,0,1,1.35-.28,2.92,2.92,0,0,1,.9.13,4.34,4.34,0,0,1,.75.31l-.2,1h-.06l-.24-.2a2.33,2.33,0,0,0-.35-.22,1.92,1.92,0,0,0-.44-.17,2,2,0,0,0-.56-.07,1.86,1.86,0,0,0-1.55.79A3.22,3.22,0,0,0,45,87a1.42,1.42,0,0,0,.35,1,1.32,1.32,0,0,0,1,.37,2.13,2.13,0,0,0,.61-.08,3.55,3.55,0,0,0,.53-.19,4.56,4.56,0,0,0,.44-.24l.3-.19h.05l-.19,1a6.9,6.9,0,0,1-.9.33A3.19,3.19,0,0,1,46.19,89.23Z"/><path class="b" d="M51.22,83.66,50,89.11H49l1.26-5.45Zm.5-1.87-.22.95h-1l.22-.95Z"/><path class="b" d="M57.14,85.58A4.43,4.43,0,0,1,56.91,87a3.65,3.65,0,0,1-.63,1.17,3,3,0,0,1-1,.81,2.83,2.83,0,0,1-1.3.29,2,2,0,0,1-1.52-.55,2.1,2.1,0,0,1-.54-1.53,4.32,4.32,0,0,1,.22-1.4,3.74,3.74,0,0,1,.64-1.18,3,3,0,0,1,1-.8,2.77,2.77,0,0,1,1.28-.3,1.9,1.9,0,0,1,2.06,2.08Zm-1.5,2.06a3.09,3.09,0,0,0,.41-.9,4.2,4.2,0,0,0,.14-1.08,1.48,1.48,0,0,0-.33-1,1.22,1.22,0,0,0-.92-.35,1.61,1.61,0,0,0-.85.23,2.13,2.13,0,0,0-.65.62A3.09,3.09,0,0,0,53,86a4.32,4.32,0,0,0-.14,1.08,1.47,1.47,0,0,0,.33,1,1.2,1.2,0,0,0,.93.36,1.66,1.66,0,0,0,.85-.22A2,2,0,0,0,55.64,87.64Zm1.46-6.71-1.73,1.82H54.6l1.24-1.82Z"/><path class="b" d="M63.31,84.9c0,.08,0,.18,0,.32s0,.25-.06.35l-.82,3.54H61.5L62.21,86q.06-.25.09-.45a2.43,2.43,0,0,0,0-.38.89.89,0,0,0-.2-.62,1,1,0,0,0-.73-.21,2,2,0,0,0-.82.21,7,7,0,0,0-.88.49l-.94,4.07h-.91l1.26-5.45H60l-.14.6a6,6,0,0,1,1-.56,2.41,2.41,0,0,1,.94-.2,1.58,1.58,0,0,1,1.11.36A1.32,1.32,0,0,1,63.31,84.9Z"/><path class="b" d="M71.26,89.25a3.44,3.44,0,0,1-2.34-.74,2.65,2.65,0,0,1-.85-2.11,5.34,5.34,0,0,1,.31-1.86,4.4,4.4,0,0,1,.9-1.49,4.11,4.11,0,0,1,1.44-1,5,5,0,0,1,1.91-.35,5.59,5.59,0,0,1,1.28.15,5.68,5.68,0,0,1,1.3.5L75,83.46H74.9a3.41,3.41,0,0,0-1.18-.73,4,4,0,0,0-1.36-.23,3,3,0,0,0-1.41.32,2.91,2.91,0,0,0-1,.85,3.59,3.59,0,0,0-.62,1.2,5.13,5.13,0,0,0-.2,1.39,2.19,2.19,0,0,0,.57,1.62,2.29,2.29,0,0,0,1.69.58,5.22,5.22,0,0,0,.92-.09,4.79,4.79,0,0,0,.81-.24l.42-1.86H71.58l.19-.82h2.91L74,88.57l-.58.24-.65.22c-.23.06-.46.12-.7.16A4.63,4.63,0,0,1,71.26,89.25Z"/><path class="b" d="M78,89.24a2.67,2.67,0,0,1-1.77-.54,1.88,1.88,0,0,1-.64-1.55,3.74,3.74,0,0,1,.94-2.57,3,3,0,0,1,2.34-1.08,2,2,0,0,1,1.42.46,1.71,1.71,0,0,1,.5,1.3,4.18,4.18,0,0,1,0,.47,6.73,6.73,0,0,1-.13.73h-4c0,.1,0,.19,0,.28a2.35,2.35,0,0,0,0,.26A1.43,1.43,0,0,0,77,88.08a1.67,1.67,0,0,0,1.19.39,3.11,3.11,0,0,0,1.1-.21,4.77,4.77,0,0,0,1-.47h0l-.2,1-.44.16a4.23,4.23,0,0,1-.49.15l-.54.11A4.55,4.55,0,0,1,78,89.24Zm1.84-3.45c0-.1,0-.17,0-.24a1.48,1.48,0,0,0,0-.21,1.12,1.12,0,0,0-.28-.82,1.23,1.23,0,0,0-.92-.29,1.9,1.9,0,0,0-1.23.43,2.09,2.09,0,0,0-.73,1.13Z"/><path class="b" d="M83.11,89.24a3.7,3.7,0,0,1-1.1-.15,4.4,4.4,0,0,1-.8-.33l.21-1h0l.27.21a2.61,2.61,0,0,0,.42.24,3.14,3.14,0,0,0,.52.19,2.61,2.61,0,0,0,.64.08,2,2,0,0,0,1.07-.25.85.85,0,0,0,.4-.75.47.47,0,0,0-.2-.4,1.89,1.89,0,0,0-.58-.23l-.46-.09L83,86.65a1.69,1.69,0,0,1-.84-.47,1.08,1.08,0,0,1-.28-.74,1.62,1.62,0,0,1,.17-.72,2.12,2.12,0,0,1,.49-.61,2.62,2.62,0,0,1,.8-.42,3.29,3.29,0,0,1,1.07-.17,3.67,3.67,0,0,1,1,.13,3,3,0,0,1,.79.3l-.19.94h0l-.24-.18a2.92,2.92,0,0,0-.4-.21,2.8,2.8,0,0,0-.49-.17,2.88,2.88,0,0,0-.59-.06,1.77,1.77,0,0,0-1,.25.82.82,0,0,0-.38.7.5.5,0,0,0,.19.41,1.27,1.27,0,0,0,.56.26l.5.11.51.11a1.67,1.67,0,0,1,.85.44,1,1,0,0,1,.29.74,1.65,1.65,0,0,1-.18.74,1.8,1.8,0,0,1-.52.62,2.57,2.57,0,0,1-.84.44A3.75,3.75,0,0,1,83.11,89.24Z"/><path class="b" d="M90.7,83.66l-.16.74h-1.9l-.58,2.52c0,.12-.06.27-.09.43a2.31,2.31,0,0,0,0,.4.72.72,0,0,0,.18.53,1,1,0,0,0,.67.17,1.91,1.91,0,0,0,.48-.07,2.19,2.19,0,0,0,.37-.11h.05l-.17.79a5.15,5.15,0,0,1-.59.11,3.86,3.86,0,0,1-.55,0,1.61,1.61,0,0,1-1-.3A1.15,1.15,0,0,1,87,88a3,3,0,0,1,0-.31c0-.11,0-.22.07-.35l.67-2.93H87.1l.17-.74h.63l.36-1.57h.92l-.37,1.57Z"/><path class="b" d="M92.74,83.66l-1.26,5.45h-.92l1.26-5.45Zm.5-1.87-.22.95H92l.22-.95Z"/><path class="b" d="M98.66,85.58A4.43,4.43,0,0,1,98.43,87a3.65,3.65,0,0,1-.63,1.17,3.12,3.12,0,0,1-1,.81,2.83,2.83,0,0,1-1.3.29A2,2,0,0,1,94,88.71a2.1,2.1,0,0,1-.54-1.53,4.32,4.32,0,0,1,.22-1.4,3.74,3.74,0,0,1,.64-1.18,3.09,3.09,0,0,1,1-.8,2.84,2.84,0,0,1,1.29-.3,1.9,1.9,0,0,1,2.06,2.08Zm-1.5,2.06a3.09,3.09,0,0,0,.41-.9,4.2,4.2,0,0,0,.14-1.08,1.48,1.48,0,0,0-.33-1,1.22,1.22,0,0,0-.92-.35,1.61,1.61,0,0,0-.85.23,2,2,0,0,0-.65.62,2.85,2.85,0,0,0-.41.9,4.32,4.32,0,0,0-.14,1.08,1.47,1.47,0,0,0,.33,1,1.16,1.16,0,0,0,.92.36,1.61,1.61,0,0,0,.85-.22A2,2,0,0,0,97.16,87.64Zm1.46-6.71-1.74,1.82h-.76l1.24-1.82Z"/><path class="b" d="M104.83,84.9c0,.08,0,.18,0,.32s0,.25-.06.35l-.82,3.54H103l.72-3.11q.06-.25.09-.45a2.43,2.43,0,0,0,0-.38.89.89,0,0,0-.2-.62,1,1,0,0,0-.73-.21,1.92,1.92,0,0,0-.82.21,7,7,0,0,0-.88.49l-.94,4.07h-.91l1.25-5.45h.92l-.14.6a6,6,0,0,1,1-.56,2.37,2.37,0,0,1,.94-.2,1.58,1.58,0,0,1,1.11.36A1.32,1.32,0,0,1,104.83,84.9Z"/><path class="b" d="M115.39,81.51l-1.76,7.6h-.92l.14-.57a6,6,0,0,1-1,.57,2.21,2.21,0,0,1-.82.15,1.58,1.58,0,0,1-1.23-.49,2,2,0,0,1-.45-1.42,4.5,4.5,0,0,1,.24-1.48,4.27,4.27,0,0,1,.67-1.23,3.1,3.1,0,0,1,1-.83,2.55,2.55,0,0,1,1.2-.31,3.3,3.3,0,0,1,.8.1,2.27,2.27,0,0,1,.68.28l.55-2.37Zm-1.64,3.13a3.08,3.08,0,0,0-.64-.26,2.93,2.93,0,0,0-.67-.08,1.72,1.72,0,0,0-.91.25,2.07,2.07,0,0,0-.68.67,2.84,2.84,0,0,0-.4.93,4.33,4.33,0,0,0-.14,1,1.43,1.43,0,0,0,.26.91,1,1,0,0,0,.83.31,2.06,2.06,0,0,0,.84-.2,7.25,7.25,0,0,0,.78-.45Z"/><path class="b" d="M118,89.24a2.7,2.7,0,0,1-1.78-.54,1.91,1.91,0,0,1-.64-1.55,3.75,3.75,0,0,1,1-2.57,3,3,0,0,1,2.34-1.08,2,2,0,0,1,1.42.46,1.7,1.7,0,0,1,.49,1.3,3.62,3.62,0,0,1,0,.47,7,7,0,0,1-.14.73h-4c0,.1,0,.19,0,.28s0,.18,0,.26a1.43,1.43,0,0,0,.42,1.08,1.69,1.69,0,0,0,1.19.39,3.2,3.2,0,0,0,1.11-.21,4.42,4.42,0,0,0,1-.47h.06l-.2,1-.44.16a4.48,4.48,0,0,1-.5.15l-.53.11A4.69,4.69,0,0,1,118,89.24Zm1.83-3.45c0-.1,0-.17,0-.24s0-.14,0-.21a1.12,1.12,0,0,0-.29-.82,1.2,1.2,0,0,0-.91-.29,1.86,1.86,0,0,0-1.23.43,2.09,2.09,0,0,0-.73,1.13Z"/><path class="b" d="M131.06,89.11h-1.13L128,86.2h-1.39L126,89.11h-1l1.67-7.27h2a6.28,6.28,0,0,1,1.08.08,2.12,2.12,0,0,1,.72.31,1.67,1.67,0,0,1,.43.49,1.49,1.49,0,0,1,.16.71,2.42,2.42,0,0,1-.57,1.59A2.9,2.9,0,0,1,129,86ZM130,83.64a1.1,1.1,0,0,0-.08-.43.79.79,0,0,0-.24-.31,1.14,1.14,0,0,0-.46-.21,3,3,0,0,0-.66-.06h-1.09l-.64,2.8h1a3.34,3.34,0,0,0,.83-.09,1.71,1.71,0,0,0,.64-.3,1.75,1.75,0,0,0,.5-.61A1.79,1.79,0,0,0,130,83.64Z"/><path class="b" d="M134.05,83.66l-1.26,5.45h-.91l1.25-5.45Zm.5-1.87-.22.95h-1l.22-.95Z"/><path class="b" d="M137.19,89.24a2.7,2.7,0,0,1-1.78-.54,1.91,1.91,0,0,1-.64-1.55,3.75,3.75,0,0,1,.95-2.57,3,3,0,0,1,2.34-1.08,2,2,0,0,1,1.42.46,1.7,1.7,0,0,1,.49,1.3,3.62,3.62,0,0,1,0,.47,7,7,0,0,1-.14.73h-4c0,.1,0,.19-.05.28s0,.18,0,.26a1.43,1.43,0,0,0,.42,1.08,1.69,1.69,0,0,0,1.19.39,3.2,3.2,0,0,0,1.11-.21,4.42,4.42,0,0,0,.95-.47h.06l-.2,1-.44.16a4.48,4.48,0,0,1-.5.15l-.53.11A4.69,4.69,0,0,1,137.19,89.24ZM139,85.79c0-.1,0-.17,0-.24s0-.14,0-.21a1.12,1.12,0,0,0-.29-.82,1.2,1.2,0,0,0-.91-.29,1.86,1.86,0,0,0-1.23.43,2.09,2.09,0,0,0-.73,1.13Z"/><path class="b" d="M142.27,89.24a3.64,3.64,0,0,1-1.09-.15,4.11,4.11,0,0,1-.8-.33l.2-1h0l.27.21a2.11,2.11,0,0,0,.41.24,3.27,3.27,0,0,0,.53.19,2.59,2.59,0,0,0,.63.08,2.05,2.05,0,0,0,1.08-.25.84.84,0,0,0,.39-.75.47.47,0,0,0-.2-.4,1.7,1.7,0,0,0-.58-.23l-.45-.09-.54-.13a1.77,1.77,0,0,1-.85-.47,1.07,1.07,0,0,1-.27-.74,1.62,1.62,0,0,1,.17-.72,2,2,0,0,1,.49-.61,2.56,2.56,0,0,1,.79-.42,3.4,3.4,0,0,1,1.08-.17,3.6,3.6,0,0,1,1,.13,3,3,0,0,1,.8.3l-.2.94h-.05s-.13-.1-.23-.18a2.57,2.57,0,0,0-.41-.21,2.54,2.54,0,0,0-.49-.17,2.72,2.72,0,0,0-.58-.06,1.73,1.73,0,0,0-1,.25.79.79,0,0,0-.38.7.52.52,0,0,0,.18.41,1.32,1.32,0,0,0,.57.26l.5.11.5.11a1.71,1.71,0,0,1,.86.44,1,1,0,0,1,.28.74,1.65,1.65,0,0,1-.18.74,1.77,1.77,0,0,1-.51.62,2.57,2.57,0,0,1-.84.44A3.82,3.82,0,0,1,142.27,89.24Z"/><path class="b" d="M151.44,83.66l-1.11,4.84a3.76,3.76,0,0,1-1.05,2,3,3,0,0,1-2.05.64,6,6,0,0,1-.84-.06,5,5,0,0,1-.78-.17l.21-.91h0a4.39,4.39,0,0,0,.74.23,3.48,3.48,0,0,0,.88.11,2.21,2.21,0,0,0,.78-.12,1.44,1.44,0,0,0,.54-.32,1.58,1.58,0,0,0,.33-.48,2.65,2.65,0,0,0,.21-.6l.11-.48a5.83,5.83,0,0,1-.87.49,2.39,2.39,0,0,1-1,.17,1.64,1.64,0,0,1-1.25-.49,1.93,1.93,0,0,1-.45-1.37,4.3,4.3,0,0,1,.88-2.56,3.17,3.17,0,0,1,1-.8A2.46,2.46,0,0,1,149,83.5a3,3,0,0,1,.83.11,2.77,2.77,0,0,1,.65.28l.11-.23Zm-1.14,1a3.9,3.9,0,0,0-.64-.26,3,3,0,0,0-.67-.08,1.81,1.81,0,0,0-.87.21,2.19,2.19,0,0,0-.68.61A2.71,2.71,0,0,0,147,86a3.58,3.58,0,0,0-.14,1,1.33,1.33,0,0,0,.26.89,1.05,1.05,0,0,0,.85.31,2.23,2.23,0,0,0,.82-.17,4.87,4.87,0,0,0,.81-.43Z"/><path class="b" d="M157.35,85.58a4.43,4.43,0,0,1-.22,1.41,3.48,3.48,0,0,1-.64,1.17,3,3,0,0,1-1,.81,2.8,2.8,0,0,1-1.3.29,2,2,0,0,1-1.51-.55,2.07,2.07,0,0,1-.55-1.53,4.33,4.33,0,0,1,.23-1.4A3.55,3.55,0,0,1,153,84.6a3.09,3.09,0,0,1,1-.8,2.79,2.79,0,0,1,1.29-.3,1.89,1.89,0,0,1,2,2.08Zm-1.49,2.06a2.84,2.84,0,0,0,.4-.9,3.81,3.81,0,0,0,.14-1.08,1.48,1.48,0,0,0-.33-1,1.19,1.19,0,0,0-.92-.35,1.64,1.64,0,0,0-.85.23,2.13,2.13,0,0,0-.65.62,3.08,3.08,0,0,0-.4.9,3.9,3.9,0,0,0-.14,1.08,1.46,1.46,0,0,0,.32,1,1.2,1.2,0,0,0,.93.36,1.63,1.63,0,0,0,.85-.22A2,2,0,0,0,155.86,87.64Z"/><path class="b" d="M7.79,97.19a6.08,6.08,0,0,1-.48,1.39,3.07,3.07,0,0,1-1.75,1.51,4.13,4.13,0,0,1-1.24.17,2.45,2.45,0,0,1-1.71-.52,1.85,1.85,0,0,1-.56-1.43,5.1,5.1,0,0,1,0-.57c0-.17.07-.36.11-.55l1-4.35h1l-1,4.4a3.29,3.29,0,0,0-.1.51,2.93,2.93,0,0,0,0,.45,1.21,1.21,0,0,0,.37.94,1.58,1.58,0,0,0,1.09.32,2.36,2.36,0,0,0,.92-.16,1.73,1.73,0,0,0,.69-.48,2.36,2.36,0,0,0,.42-.67,4.94,4.94,0,0,0,.28-.89l1-4.42h1Z"/><path class="b" d="M14.35,95.9c0,.08,0,.18,0,.32a1.7,1.7,0,0,1-.06.35l-.82,3.54h-.91L13.25,97q.06-.25.09-.45a2.43,2.43,0,0,0,0-.38.89.89,0,0,0-.2-.62,1,1,0,0,0-.73-.21,2,2,0,0,0-.82.21,6.24,6.24,0,0,0-.87.49l-.94,4.07H8.89l1.26-5.45h.92l-.14.6a5.55,5.55,0,0,1,1-.56,2.41,2.41,0,0,1,.94-.2,1.58,1.58,0,0,1,1.11.36A1.32,1.32,0,0,1,14.35,95.9Z"/><path class="b" d="M17.4,94.66l-1.26,5.45h-.91l1.26-5.45Zm.5-1.87-.22.95h-1l.22-.95Z"/><path class="b" d="M24.14,92.51l-1.76,7.6h-.91l.13-.57a5.61,5.61,0,0,1-1,.57,2.21,2.21,0,0,1-.82.15,1.59,1.59,0,0,1-1.23-.49,2,2,0,0,1-.45-1.42,4.26,4.26,0,0,1,.25-1.48A4,4,0,0,1,19,95.64a3.1,3.1,0,0,1,1-.83,2.55,2.55,0,0,1,1.2-.31,3.3,3.3,0,0,1,.8.1,2.44,2.44,0,0,1,.69.28l.54-2.37ZM22.5,95.64a3.08,3.08,0,0,0-.64-.26,2.93,2.93,0,0,0-.67-.08,1.75,1.75,0,0,0-.91.25,2.17,2.17,0,0,0-.68.67,3.07,3.07,0,0,0-.4.93,4.33,4.33,0,0,0-.14,1,1.43,1.43,0,0,0,.26.91,1,1,0,0,0,.83.31,2.06,2.06,0,0,0,.84-.2,7.42,7.42,0,0,0,.79-.45Z"/><path class="b" d="M27.65,99.53l-.36.22a2.94,2.94,0,0,1-.46.25,5,5,0,0,1-.55.19,3.11,3.11,0,0,1-.71.07,1.5,1.5,0,0,1-1.06-.38,1.28,1.28,0,0,1-.4-1,2,2,0,0,1,.28-1.09,2.12,2.12,0,0,1,.85-.73,4.63,4.63,0,0,1,1.33-.41,14.65,14.65,0,0,1,1.78-.15c0-.09,0-.17,0-.24a1.23,1.23,0,0,0,0-.2.61.61,0,0,0-.1-.38.67.67,0,0,0-.26-.24,1.17,1.17,0,0,0-.4-.12,3.84,3.84,0,0,0-.5,0,3.91,3.91,0,0,0-.95.13,6.89,6.89,0,0,0-.86.27H25.3l.18-.92c.19,0,.46-.1.82-.16a5.28,5.28,0,0,1,1-.1,2.94,2.94,0,0,1,1.52.32,1.1,1.1,0,0,1,.51,1,1.49,1.49,0,0,1,0,.28,2.33,2.33,0,0,1,0,.28l-.85,3.7h-.91Zm.54-2.3a11.9,11.9,0,0,0-1.34.12,4.46,4.46,0,0,0-1,.24,1.34,1.34,0,0,0-.6.44,1.11,1.11,0,0,0-.21.69.66.66,0,0,0,.24.54,1.24,1.24,0,0,0,.74.18,2.17,2.17,0,0,0,.91-.2,5.51,5.51,0,0,0,.86-.47Z"/><path class="b" d="M36.38,92.51l-1.76,7.6H33.7l.13-.57a5.6,5.6,0,0,1-1,.57,2.27,2.27,0,0,1-.83.15,1.57,1.57,0,0,1-1.22-.49,2,2,0,0,1-.45-1.42,4.5,4.5,0,0,1,.24-1.48,4.27,4.27,0,0,1,.67-1.23,3,3,0,0,1,1-.83,2.55,2.55,0,0,1,1.2-.31,3.3,3.3,0,0,1,.8.1,2.38,2.38,0,0,1,.68.28l.55-2.37Zm-1.64,3.13a3.15,3.15,0,0,0-.65-.26,2.86,2.86,0,0,0-.67-.08,1.69,1.69,0,0,0-.9.25,2.07,2.07,0,0,0-.68.67,2.84,2.84,0,0,0-.4.93,4.33,4.33,0,0,0-.14,1,1.43,1.43,0,0,0,.26.91,1,1,0,0,0,.83.31,2,2,0,0,0,.83-.2,6.54,6.54,0,0,0,.79-.45Z"/><path class="b" d="M45.83,100.11h-1l-.25-2H41.47l-1.19,2h-1l4.33-7.27h1.28ZM44.5,97.27,44,93.69l-2.11,3.58Z"/><path class="b" d="M53,92.51l-1.76,7.6h-.91l.13-.57a6,6,0,0,1-1,.57,2.21,2.21,0,0,1-.82.15,1.58,1.58,0,0,1-1.23-.49,2,2,0,0,1-.45-1.42,4.26,4.26,0,0,1,.25-1.48,4,4,0,0,1,.66-1.23,3.1,3.1,0,0,1,1-.83A2.55,2.55,0,0,1,50,94.5a3.3,3.3,0,0,1,.8.1,2.44,2.44,0,0,1,.69.28L52,92.51Zm-1.64,3.13a3.08,3.08,0,0,0-.64-.26A2.93,2.93,0,0,0,50,95.3a1.75,1.75,0,0,0-.91.25,2.17,2.17,0,0,0-.68.67,2.84,2.84,0,0,0-.4.93,4.33,4.33,0,0,0-.14,1,1.43,1.43,0,0,0,.26.91,1,1,0,0,0,.83.31,2.06,2.06,0,0,0,.84-.2,7.25,7.25,0,0,0,.78-.45Z"/><path class="b" d="M61.87,95.86a2,2,0,0,1,0,.34,2.38,2.38,0,0,1-.06.37L61,100.11H60L60.76,97c0-.17.07-.33.1-.47a3.17,3.17,0,0,0,0-.41.86.86,0,0,0-.18-.58,1,1,0,0,0-.71-.2,1.9,1.9,0,0,0-.82.22,7.53,7.53,0,0,0-.85.5c0,.08,0,.18,0,.28a2,2,0,0,1,0,.28l-.8,3.49h-.92L57.24,97c0-.2.07-.36.1-.49a1.72,1.72,0,0,0,0-.39.67.67,0,0,0-.25-.61,1.14,1.14,0,0,0-.65-.17,1.73,1.73,0,0,0-.66.15,5.88,5.88,0,0,0-1,.55l-.94,4.07H53l1.26-5.45h.92l-.14.6a6.66,6.66,0,0,1,1-.56,2.21,2.21,0,0,1,.92-.2,1.51,1.51,0,0,1,.89.24,1.07,1.07,0,0,1,.46.65,5.93,5.93,0,0,1,1.16-.68,2.65,2.65,0,0,1,1-.21,1.48,1.48,0,0,1,1.08.36A1.35,1.35,0,0,1,61.87,95.86Z"/><path class="b" d="M64.92,94.66l-1.26,5.45h-.92L64,94.66Zm.5-1.87-.22.95h-1l.22-.95Z"/><path class="b" d="M70.94,95.9c0,.08,0,.18,0,.32s0,.25-.06.35L70,100.11h-.92L69.84,97q.06-.25.09-.45a2.43,2.43,0,0,0,0-.38.89.89,0,0,0-.2-.62,1,1,0,0,0-.73-.21,1.92,1.92,0,0,0-.82.21,7,7,0,0,0-.88.49l-.94,4.07h-.91l1.26-5.45h.91l-.14.6a6,6,0,0,1,1-.56,2.37,2.37,0,0,1,.94-.2,1.58,1.58,0,0,1,1.11.36A1.32,1.32,0,0,1,70.94,95.9Z"/><path class="b" d="M74,94.66l-1.26,5.45h-.92l1.26-5.45Zm.5-1.87-.22.95h-1l.22-.95Z"/><path class="b" d="M76.25,100.24a3.64,3.64,0,0,1-1.09-.15,4.11,4.11,0,0,1-.8-.33l.2-1h0l.27.21a2.47,2.47,0,0,0,.41.24,3.27,3.27,0,0,0,.53.19,2.59,2.59,0,0,0,.63.08,2.05,2.05,0,0,0,1.08-.25.84.84,0,0,0,.39-.75.47.47,0,0,0-.2-.4,1.72,1.72,0,0,0-.57-.23l-.46-.09-.54-.13a1.77,1.77,0,0,1-.85-.47,1.07,1.07,0,0,1-.27-.74,1.62,1.62,0,0,1,.17-.72,2,2,0,0,1,.49-.61,2.51,2.51,0,0,1,.8-.42,3.29,3.29,0,0,1,1.07-.17,3.54,3.54,0,0,1,1,.13,3,3,0,0,1,.8.3l-.2.94h0s-.13-.1-.23-.18a2.57,2.57,0,0,0-.41-.21,2.54,2.54,0,0,0-.49-.17,2.72,2.72,0,0,0-.58-.06,1.73,1.73,0,0,0-1,.25.79.79,0,0,0-.38.7.52.52,0,0,0,.18.41,1.38,1.38,0,0,0,.57.26l.5.11.51.11a1.71,1.71,0,0,1,.85.44,1,1,0,0,1,.28.74,1.65,1.65,0,0,1-.18.74,1.77,1.77,0,0,1-.51.62,2.57,2.57,0,0,1-.84.44A3.82,3.82,0,0,1,76.25,100.24Z"/><path class="b" d="M83.85,94.66l-.17.74H81.79l-.59,2.52a3.71,3.71,0,0,0-.08.43,2.31,2.31,0,0,0,0,.4.72.72,0,0,0,.18.53,1,1,0,0,0,.67.17,1.78,1.78,0,0,0,.47-.07,2.09,2.09,0,0,0,.38-.11h0l-.17.79a4.6,4.6,0,0,1-.58.11,4,4,0,0,1-.55,0,1.59,1.59,0,0,1-1-.3,1.12,1.12,0,0,1-.37-.93,3,3,0,0,1,0-.31c0-.11,0-.22.06-.35l.68-2.93h-.62l.17-.74H81l.37-1.57h.92L82,94.66Z"/><path class="b" d="M88.1,95.62h0l-.36-.07-.41,0a2.16,2.16,0,0,0-.91.21,5.34,5.34,0,0,0-.86.5l-.89,3.87H83.7l1.24-5.45h.93l-.18.8a5.78,5.78,0,0,1,1.1-.63,2.31,2.31,0,0,1,.86-.17H88l.31,0Z"/><path class="b" d="M91.43,99.53l-.36.22a3.47,3.47,0,0,1-.46.25,5.22,5.22,0,0,1-.56.19,3,3,0,0,1-.71.07,1.49,1.49,0,0,1-1-.38,1.29,1.29,0,0,1-.41-1,2,2,0,0,1,.29-1.09,2.05,2.05,0,0,1,.85-.73,4.53,4.53,0,0,1,1.33-.41,14.65,14.65,0,0,1,1.77-.15c0-.09,0-.17,0-.24a.65.65,0,0,0,0-.2.69.69,0,0,0-.09-.38.64.64,0,0,0-.27-.24,1.12,1.12,0,0,0-.39-.12,3.73,3.73,0,0,0-1.45.1,6.59,6.59,0,0,0-.87.27h-.05l.18-.92c.19,0,.46-.1.82-.16a5.35,5.35,0,0,1,1-.1,2.89,2.89,0,0,1,1.52.32,1.1,1.1,0,0,1,.51,1c0,.08,0,.18,0,.28s0,.19,0,.28l-.85,3.7h-.92Zm.53-2.3a12.12,12.12,0,0,0-1.34.12,4.62,4.62,0,0,0-1,.24,1.47,1.47,0,0,0-.6.44,1.11,1.11,0,0,0-.21.69.66.66,0,0,0,.24.54,1.24,1.24,0,0,0,.74.18,2.17,2.17,0,0,0,.91-.2,5.09,5.09,0,0,0,.86-.47Z"/><path class="b" d="M98.06,94.66l-.16.74H96l-.58,2.52c0,.12-.06.27-.09.43a2.31,2.31,0,0,0,0,.4.72.72,0,0,0,.18.53,1,1,0,0,0,.67.17,1.91,1.91,0,0,0,.48-.07,2.19,2.19,0,0,0,.37-.11H97l-.17.79a5.15,5.15,0,0,1-.59.11,3.86,3.86,0,0,1-.55,0,1.63,1.63,0,0,1-1-.3,1.15,1.15,0,0,1-.37-.93,3,3,0,0,1,0-.31c0-.11,0-.22.07-.35l.67-2.93h-.62l.17-.74h.63l.36-1.57h.92l-.37,1.57Z"/><path class="b" d="M100.1,94.66l-1.26,5.45h-.92l1.26-5.45Zm.5-1.87-.22.95h-1l.22-.95Z"/><path class="b" d="M106.56,94.66l-3.46,5.45h-.92l-.93-5.45h.93l.69,4.35,2.69-4.35Z"/><path class="b" d="M110,99.53l-.36.22a3.47,3.47,0,0,1-.46.25c-.17.07-.36.13-.56.19a3,3,0,0,1-.71.07,1.49,1.49,0,0,1-1-.38,1.29,1.29,0,0,1-.41-1,2,2,0,0,1,.29-1.09,2.09,2.09,0,0,1,.84-.73,4.63,4.63,0,0,1,1.33-.41,14.65,14.65,0,0,1,1.78-.15c0-.09,0-.17,0-.24a1.23,1.23,0,0,0,0-.2.69.69,0,0,0-.09-.38.64.64,0,0,0-.27-.24,1.12,1.12,0,0,0-.39-.12,4,4,0,0,0-.51,0,3.83,3.83,0,0,0-.94.13,6.59,6.59,0,0,0-.87.27h0l.18-.92c.19,0,.46-.1.82-.16a5.35,5.35,0,0,1,1-.1,2.92,2.92,0,0,1,1.52.32,1.1,1.1,0,0,1,.51,1c0,.08,0,.18,0,.28s0,.19,0,.28l-.86,3.7h-.91Zm.53-2.3a12.12,12.12,0,0,0-1.34.12,4.46,4.46,0,0,0-1,.24,1.4,1.4,0,0,0-.6.44,1.11,1.11,0,0,0-.21.69.66.66,0,0,0,.24.54,1.24,1.24,0,0,0,.74.18,2.17,2.17,0,0,0,.91-.2,5.09,5.09,0,0,0,.86-.47Z"/><path class="b" d="M122.62,92.84l-.19.82h-3.82l-.47,2H122l-.19.83H118l-.64,2.75h3.83l-.19.82h-4.79l1.67-7.27Z"/><path class="b" d="M124.11,100.24a3.68,3.68,0,0,1-1.09-.15,4.11,4.11,0,0,1-.8-.33l.2-1h0l.27.21a2.61,2.61,0,0,0,.42.24,2.84,2.84,0,0,0,.52.19,2.59,2.59,0,0,0,.63.08,2.05,2.05,0,0,0,1.08-.25.84.84,0,0,0,.39-.75.44.44,0,0,0-.2-.4,1.72,1.72,0,0,0-.57-.23l-.46-.09-.54-.13a1.69,1.69,0,0,1-.84-.47,1,1,0,0,1-.28-.74,1.62,1.62,0,0,1,.17-.72,2,2,0,0,1,.49-.61,2.62,2.62,0,0,1,.8-.42,3.29,3.29,0,0,1,1.07-.17,3.67,3.67,0,0,1,1,.13,3.11,3.11,0,0,1,.79.3l-.2.94h0l-.24-.18a2.92,2.92,0,0,0-.4-.21,2.65,2.65,0,0,0-.5-.17,2.72,2.72,0,0,0-.58-.06,1.73,1.73,0,0,0-1,.25.82.82,0,0,0-.38.7.52.52,0,0,0,.18.41,1.38,1.38,0,0,0,.57.26l.5.11.51.11a1.71,1.71,0,0,1,.85.44,1,1,0,0,1,.28.74,1.63,1.63,0,0,1-.17.74,1.8,1.8,0,0,1-.52.62,2.57,2.57,0,0,1-.84.44A3.82,3.82,0,0,1,124.11,100.24Z"/><path class="b" d="M133.16,96.38a4.45,4.45,0,0,1-.25,1.52,3.8,3.8,0,0,1-.67,1.21,3.11,3.11,0,0,1-1,.81,2.47,2.47,0,0,1-1.19.3,3.45,3.45,0,0,1-.81-.1,2.89,2.89,0,0,1-.67-.29l-.53,2.29h-.91l1.72-7.46h.92l-.13.57a4.88,4.88,0,0,1,.89-.52,2.19,2.19,0,0,1,1-.21,1.5,1.5,0,0,1,1.21.5A2.07,2.07,0,0,1,133.16,96.38Zm-1,.17a1.45,1.45,0,0,0-.25-.89,1,1,0,0,0-.81-.32,2.06,2.06,0,0,0-.84.2,6.32,6.32,0,0,0-.81.46l-.72,3.09a3,3,0,0,0,.61.25,2.33,2.33,0,0,0,.7.09,1.74,1.74,0,0,0,.9-.25,2.12,2.12,0,0,0,.67-.63,3.19,3.19,0,0,0,.41-.92A4.09,4.09,0,0,0,132.2,96.55Z"/><path class="b" d="M136.43,100.24a2.7,2.7,0,0,1-1.78-.54,1.91,1.91,0,0,1-.64-1.55,3.75,3.75,0,0,1,1-2.57,3,3,0,0,1,2.34-1.08,2,2,0,0,1,1.42.46,1.7,1.7,0,0,1,.49,1.3,3.62,3.62,0,0,1,0,.47c0,.21-.07.45-.13.73h-4c0,.1,0,.19-.05.28s0,.18,0,.26a1.43,1.43,0,0,0,.42,1.08,1.69,1.69,0,0,0,1.19.39,3.2,3.2,0,0,0,1.11-.21,4.42,4.42,0,0,0,.95-.47h.06l-.2,1-.44.16a4.48,4.48,0,0,1-.5.15l-.53.11A4.69,4.69,0,0,1,136.43,100.24Zm1.83-3.45c0-.1,0-.17,0-.24s0-.14,0-.21a1.12,1.12,0,0,0-.29-.82,1.2,1.2,0,0,0-.91-.29,1.86,1.86,0,0,0-1.23.43,2.09,2.09,0,0,0-.73,1.13Z"/><path class="b" d="M142.17,100.23a3.26,3.26,0,0,1-.92-.12,1.82,1.82,0,0,1-.69-.39,1.76,1.76,0,0,1-.45-.64,2.4,2.4,0,0,1-.15-.89,4.13,4.13,0,0,1,.24-1.43,3.4,3.4,0,0,1,.68-1.17,3,3,0,0,1,1.05-.78,3.16,3.16,0,0,1,1.34-.28,2.92,2.92,0,0,1,.9.13,4,4,0,0,1,.75.31l-.2,1h-.05l-.25-.2a2.17,2.17,0,0,0-1.35-.46,1.84,1.84,0,0,0-1.54.79,3.16,3.16,0,0,0-.6,2,1.46,1.46,0,0,0,.35,1,1.34,1.34,0,0,0,1,.37,2.2,2.2,0,0,0,.62-.08,3.4,3.4,0,0,0,.52-.19,3.62,3.62,0,0,0,.44-.24l.3-.19h.06l-.2,1a6,6,0,0,1-.9.33A3.1,3.1,0,0,1,142.17,100.23Z"/><path class="b" d="M147.2,94.66l-1.26,5.45H145l1.26-5.45Zm.5-1.87-.22.95h-1l.22-.95Z"/><path class="b" d="M151.22,99.53l-.36.22a2.94,2.94,0,0,1-.46.25,5,5,0,0,1-.55.19,3.11,3.11,0,0,1-.71.07,1.51,1.51,0,0,1-1.06-.38,1.28,1.28,0,0,1-.4-1A2,2,0,0,1,148,97.8a2.12,2.12,0,0,1,.85-.73,4.63,4.63,0,0,1,1.33-.41,14.65,14.65,0,0,1,1.78-.15c0-.09,0-.17.05-.24a1.23,1.23,0,0,0,0-.2.61.61,0,0,0-.1-.38.67.67,0,0,0-.26-.24,1.17,1.17,0,0,0-.4-.12,3.84,3.84,0,0,0-.5,0,3.91,3.91,0,0,0-.95.13,6.89,6.89,0,0,0-.86.27h0l.18-.92c.19,0,.46-.1.82-.16a5.28,5.28,0,0,1,1-.1,2.94,2.94,0,0,1,1.52.32,1.1,1.1,0,0,1,.51,1c0,.08,0,.18,0,.28l-.06.28-.85,3.7h-.91Zm.54-2.3a11.9,11.9,0,0,0-1.34.12,4.46,4.46,0,0,0-1,.24,1.44,1.44,0,0,0-.61.44,1.17,1.17,0,0,0-.2.69.66.66,0,0,0,.24.54,1.22,1.22,0,0,0,.74.18,2.17,2.17,0,0,0,.91-.2,5.51,5.51,0,0,0,.86-.47Z"/><path class="b" d="M156.45,92.51l-1.76,7.6h-.91l1.75-7.6Z"/><path class="b" d="M12.47,111.24a3.11,3.11,0,0,1-2.16-.71,2.6,2.6,0,0,1-.79-2,5.74,5.74,0,0,1,.3-1.88,4.57,4.57,0,0,1,.87-1.52,4.14,4.14,0,0,1,1.38-1,4.37,4.37,0,0,1,1.83-.37,4.56,4.56,0,0,1,1.19.15,4.91,4.91,0,0,1,1.15.49L16,105.44H16c-.11-.11-.21-.21-.32-.3a3.09,3.09,0,0,0-.49-.3,2.67,2.67,0,0,0-.64-.24,3.47,3.47,0,0,0-.82-.1,2.78,2.78,0,0,0-1.26.29,3,3,0,0,0-1,.8,3.76,3.76,0,0,0-.64,1.21,4.74,4.74,0,0,0-.23,1.52,2.22,2.22,0,0,0,.52,1.57,2,2,0,0,0,1.5.56,3.53,3.53,0,0,0,.88-.11,3.76,3.76,0,0,0,.76-.27,5,5,0,0,0,.57-.32,4.67,4.67,0,0,0,.44-.31h.07l-.23,1.13a7.26,7.26,0,0,1-1.18.46A4.69,4.69,0,0,1,12.47,111.24Z"/><path class="b" d="M21.9,105.66l-1.26,5.45h-.91l.13-.6a6.16,6.16,0,0,1-1,.55,2.38,2.38,0,0,1-.95.2,1.61,1.61,0,0,1-1.1-.35,1.34,1.34,0,0,1-.4-1,1.73,1.73,0,0,1,0-.32,2.86,2.86,0,0,1,.06-.35l.81-3.54h.92l-.72,3.1c0,.13-.05.27-.08.44a2.12,2.12,0,0,0,0,.38.86.86,0,0,0,.21.63,1,1,0,0,0,.73.21,2,2,0,0,0,.82-.21,5.46,5.46,0,0,0,.86-.48l.94-4.07Z"/><path class="b" d="M25,111.24a2.7,2.7,0,0,1-1.78-.54,1.91,1.91,0,0,1-.64-1.55,3.75,3.75,0,0,1,.95-2.57,3,3,0,0,1,2.34-1.08,2,2,0,0,1,1.42.46,1.7,1.7,0,0,1,.49,1.3,3.62,3.62,0,0,1,0,.47c0,.21-.07.45-.13.73h-4a1.45,1.45,0,0,0,0,.28,2.46,2.46,0,0,0,0,.26,1.43,1.43,0,0,0,.42,1.08,1.69,1.69,0,0,0,1.19.39,3.2,3.2,0,0,0,1.11-.21,4.77,4.77,0,0,0,1-.47h.05l-.2,1-.44.16a4.48,4.48,0,0,1-.5.15l-.53.11A4.69,4.69,0,0,1,25,111.24Zm1.83-3.45c0-.1,0-.17,0-.24s0-.14,0-.21a1.12,1.12,0,0,0-.29-.82,1.2,1.2,0,0,0-.91-.29,1.86,1.86,0,0,0-1.23.43,2.09,2.09,0,0,0-.73,1.13Z"/><path class="b" d="M32.81,106.62h-.05l-.36-.07-.41,0a2.16,2.16,0,0,0-.91.21,4.94,4.94,0,0,0-.86.5l-.89,3.87h-.92l1.24-5.45h.93l-.19.8a5.81,5.81,0,0,1,1.11-.63,2.27,2.27,0,0,1,.86-.17h.35l.31,0Z"/><path class="b" d="M38.22,107.38A4.45,4.45,0,0,1,38,108.9a3.6,3.6,0,0,1-.66,1.21,3.15,3.15,0,0,1-1,.81,2.44,2.44,0,0,1-1.18.3,3.32,3.32,0,0,1-.81-.1,2.71,2.71,0,0,1-.67-.29l-.53,2.29h-.92l1.73-7.46h.91l-.13.57a4.88,4.88,0,0,1,.89-.52,2.27,2.27,0,0,1,1-.21,1.5,1.5,0,0,1,1.21.5A2.07,2.07,0,0,1,38.22,107.38Zm-1,.17a1.39,1.39,0,0,0-.25-.89,1,1,0,0,0-.81-.32,2.06,2.06,0,0,0-.84.2,6.32,6.32,0,0,0-.81.46l-.71,3.09a3,3,0,0,0,.6.25,2.38,2.38,0,0,0,.7.09,1.75,1.75,0,0,0,.91-.25,2,2,0,0,0,.66-.63,3,3,0,0,0,.42-.92A4.1,4.1,0,0,0,37.25,107.55Z"/><path class="b" d="M44.27,107.58A4.43,4.43,0,0,1,44,109a3.65,3.65,0,0,1-.63,1.17,3.12,3.12,0,0,1-1,.81,2.86,2.86,0,0,1-1.3.29,2,2,0,0,1-1.52-.55,2.1,2.1,0,0,1-.54-1.53,4.32,4.32,0,0,1,.22-1.4,3.74,3.74,0,0,1,.64-1.18,3.09,3.09,0,0,1,1-.8,2.84,2.84,0,0,1,1.29-.3,1.9,1.9,0,0,1,2.06,2.08Zm-1.5,2.06a2.84,2.84,0,0,0,.4-.9,3.81,3.81,0,0,0,.14-1.08,1.47,1.47,0,0,0-.32-1,1.23,1.23,0,0,0-.93-.35,1.64,1.64,0,0,0-.85.23,2.1,2.1,0,0,0-.64.62,2.85,2.85,0,0,0-.41.9A4.32,4.32,0,0,0,40,109.1a1.47,1.47,0,0,0,.33,1,1.16,1.16,0,0,0,.92.36,1.61,1.61,0,0,0,.85-.22A2,2,0,0,0,42.77,109.64Z"/><path class="b" d="M55.85,106.41a5.94,5.94,0,0,1-.29,1.83,4.89,4.89,0,0,1-.82,1.55,4.1,4.1,0,0,1-1.34,1.08,3.9,3.9,0,0,1-1.77.39,2.82,2.82,0,0,1-2-.71,2.71,2.71,0,0,1-.73-2,5.94,5.94,0,0,1,.29-1.86,4.91,4.91,0,0,1,.85-1.54,3.92,3.92,0,0,1,3.07-1.44,2.81,2.81,0,0,1,2,.7A2.68,2.68,0,0,1,55.85,106.41ZM54,109.3a4.12,4.12,0,0,0,.62-1.24,5.15,5.15,0,0,0,.21-1.51,2.17,2.17,0,0,0-.5-1.53,1.82,1.82,0,0,0-1.4-.54,2.51,2.51,0,0,0-1.26.32,3.22,3.22,0,0,0-1,.87,4,4,0,0,0-.6,1.25,5.1,5.1,0,0,0-.21,1.46,2.22,2.22,0,0,0,.5,1.55,1.83,1.83,0,0,0,1.41.53,2.55,2.55,0,0,0,1.25-.31A3.08,3.08,0,0,0,54,109.3Z"/><path class="b" d="M60.8,104.37h0a1.85,1.85,0,0,0-.38-.1,2.12,2.12,0,0,0-.42,0,1.22,1.22,0,0,0-.9.3,2,2,0,0,0-.45.94l0,.19h1.65l-.17.73H58.41l-1.06,4.72h-.93l1.07-4.72h-.63l.18-.73h.62l0-.19a2.65,2.65,0,0,1,.78-1.48,2.16,2.16,0,0,1,1.5-.53,4.73,4.73,0,0,1,.56,0l.45.07Z"/><path class="b" d="M62.06,105.66l-1.26,5.45h-.91l1.26-5.45Zm.5-1.87-.22.95h-1l.22-.95Z"/><path class="b" d="M65,111.23a3.14,3.14,0,0,1-.91-.12,1.79,1.79,0,0,1-.7-.39,1.63,1.63,0,0,1-.44-.64,2.21,2.21,0,0,1-.16-.89,4.13,4.13,0,0,1,.24-1.43,3.57,3.57,0,0,1,.68-1.17,3,3,0,0,1,1-.78,3.23,3.23,0,0,1,1.35-.28,2.92,2.92,0,0,1,.9.13,3.92,3.92,0,0,1,.74.31l-.2,1h0l-.24-.2a2.33,2.33,0,0,0-.35-.22,2,2,0,0,0-.45-.17,1.84,1.84,0,0,0-.55-.07,1.86,1.86,0,0,0-1.55.79,3.16,3.16,0,0,0-.6,2,1.42,1.42,0,0,0,.36,1,1.31,1.31,0,0,0,1,.37,2.13,2.13,0,0,0,.61-.08,3,3,0,0,0,.52-.19,4.76,4.76,0,0,0,.45-.24l.3-.19H67l-.2,1a6.27,6.27,0,0,1-.89.33A3.21,3.21,0,0,1,65,111.23Z"/><path class="b" d="M70,105.66l-1.26,5.45h-.92l1.26-5.45Zm.5-1.87-.22.95h-1l.22-.95Z"/><path class="b" d="M74,110.53l-.36.22a3.47,3.47,0,0,1-.46.25,5.22,5.22,0,0,1-.56.19,3,3,0,0,1-.71.07,1.49,1.49,0,0,1-1-.38,1.29,1.29,0,0,1-.41-1,2,2,0,0,1,.29-1.09,2.09,2.09,0,0,1,.84-.73,4.7,4.7,0,0,1,1.34-.41,14.48,14.48,0,0,1,1.77-.15c0-.09,0-.17,0-.24a1.23,1.23,0,0,0,0-.2.69.69,0,0,0-.09-.38.64.64,0,0,0-.27-.24,1.12,1.12,0,0,0-.39-.12,4,4,0,0,0-.51,0,3.83,3.83,0,0,0-.94.13,6.59,6.59,0,0,0-.87.27h0l.18-.92c.19,0,.46-.1.82-.16a5.35,5.35,0,0,1,1-.1,2.92,2.92,0,0,1,1.52.32,1.1,1.1,0,0,1,.51,1c0,.08,0,.18,0,.28s0,.19,0,.28l-.85,3.7H73.9Zm.53-2.3a12.12,12.12,0,0,0-1.34.12,4.46,4.46,0,0,0-1,.24,1.47,1.47,0,0,0-.6.44,1.11,1.11,0,0,0-.21.69.66.66,0,0,0,.24.54,1.24,1.24,0,0,0,.74.18,2.17,2.17,0,0,0,.91-.2,5.09,5.09,0,0,0,.86-.47Z"/><path class="b" d="M79.26,103.51l-1.75,7.6h-.92l1.76-7.6Z"/><path class="b" d="M89,103.51l-1.76,7.6h-.91l.13-.57a5.61,5.61,0,0,1-1,.57,2.21,2.21,0,0,1-.82.15,1.59,1.59,0,0,1-1.23-.49,2,2,0,0,1-.45-1.42,4.26,4.26,0,0,1,.25-1.48,4,4,0,0,1,.66-1.23,3.1,3.1,0,0,1,1-.83,2.55,2.55,0,0,1,1.2-.31,3.3,3.3,0,0,1,.8.1,2.44,2.44,0,0,1,.69.28l.54-2.37Zm-1.64,3.13a3.08,3.08,0,0,0-.64-.26,2.93,2.93,0,0,0-.67-.08,1.75,1.75,0,0,0-.91.25,2.17,2.17,0,0,0-.68.67,3.07,3.07,0,0,0-.4.93,4.33,4.33,0,0,0-.14,1,1.43,1.43,0,0,0,.26.91,1,1,0,0,0,.83.31,2.06,2.06,0,0,0,.84-.2,7.42,7.42,0,0,0,.79-.45Z"/><path class="b" d="M91.65,111.24a2.67,2.67,0,0,1-1.77-.54,1.89,1.89,0,0,1-.65-1.55,3.75,3.75,0,0,1,1-2.57,3,3,0,0,1,2.34-1.08,2,2,0,0,1,1.42.46,1.7,1.7,0,0,1,.49,1.3,3.62,3.62,0,0,1,0,.47c0,.21-.07.45-.13.73h-4c0,.1,0,.19,0,.28a2.46,2.46,0,0,0,0,.26,1.43,1.43,0,0,0,.42,1.08,1.7,1.7,0,0,0,1.2.39,3.19,3.19,0,0,0,1.1-.21,4.77,4.77,0,0,0,1-.47h0l-.2,1-.44.16a4.48,4.48,0,0,1-.5.15l-.53.11A4.55,4.55,0,0,1,91.65,111.24Zm1.84-3.45c0-.1,0-.17,0-.24a1.48,1.48,0,0,0,0-.21,1.12,1.12,0,0,0-.29-.82,1.2,1.2,0,0,0-.91-.29,1.9,1.9,0,0,0-1.23.43,2.09,2.09,0,0,0-.73,1.13Z"/><path class="b" d="M103.55,110.52a2.93,2.93,0,0,1-1,.45,5.12,5.12,0,0,1-1.27.14H98.62l1.67-7.27h2.09a10.91,10.91,0,0,1,1.18,0,1.88,1.88,0,0,1,.71.25,1.07,1.07,0,0,1,.4.42,1.2,1.2,0,0,1,.14.57,1.85,1.85,0,0,1-.36,1.12,2.24,2.24,0,0,1-1,.74v0a1.58,1.58,0,0,1,.89.49,1.36,1.36,0,0,1,.31.93,2.34,2.34,0,0,1-.31,1.18A2.49,2.49,0,0,1,103.55,110.52Zm.1-2a1,1,0,0,0-.09-.45.91.91,0,0,0-.33-.31,1.34,1.34,0,0,0-.5-.16,6.42,6.42,0,0,0-.85,0h-1.47l-.63,2.75h1.33a6,6,0,0,0,1-.07,1.93,1.93,0,0,0,.71-.25,1.47,1.47,0,0,0,.58-.63A1.86,1.86,0,0,0,103.65,108.52Zm.11-3.12a.67.67,0,0,0-.07-.33.71.71,0,0,0-.19-.23,1.28,1.28,0,0,0-.52-.17c-.2,0-.47,0-.79,0h-1.11l-.49,2.16h1.27a3.91,3.91,0,0,0,.73-.06,1.9,1.9,0,0,0,.54-.19,1.19,1.19,0,0,0,.47-.5A1.41,1.41,0,0,0,103.76,105.4Z"/><path class="b" d="M110.76,107.58a4.43,4.43,0,0,1-.22,1.41,3.67,3.67,0,0,1-.64,1.17,3,3,0,0,1-1,.81,2.8,2.8,0,0,1-1.3.29,2,2,0,0,1-1.52-.55,2.1,2.1,0,0,1-.54-1.53,4.32,4.32,0,0,1,.22-1.4,3.74,3.74,0,0,1,.64-1.18,3.13,3.13,0,0,1,1-.8,2.79,2.79,0,0,1,1.29-.3,2.05,2.05,0,0,1,1.49.54A2,2,0,0,1,110.76,107.58Zm-1.49,2.06a3.08,3.08,0,0,0,.4-.9,4.2,4.2,0,0,0,.14-1.08,1.48,1.48,0,0,0-.33-1,1.21,1.21,0,0,0-.92-.35,1.61,1.61,0,0,0-.85.23,2.13,2.13,0,0,0-.65.62,3.09,3.09,0,0,0-.41.9,4.32,4.32,0,0,0-.14,1.08,1.47,1.47,0,0,0,.33,1,1.2,1.2,0,0,0,.93.36,1.66,1.66,0,0,0,.85-.22A2,2,0,0,0,109.27,109.64Z"/><path class="b" d="M120.34,106.86a2,2,0,0,1,0,.34,2.38,2.38,0,0,1-.06.37l-.82,3.54h-.92l.72-3.11c0-.17.07-.33.1-.47a3.17,3.17,0,0,0,0-.41.86.86,0,0,0-.18-.58,1,1,0,0,0-.71-.2,1.9,1.9,0,0,0-.82.22,6.74,6.74,0,0,0-.85.5c0,.08,0,.18,0,.28a2,2,0,0,1-.05.28l-.8,3.49H115l.72-3.11c0-.2.07-.36.1-.49a2.58,2.58,0,0,0,0-.39.67.67,0,0,0-.25-.61,1.15,1.15,0,0,0-.66-.17,1.73,1.73,0,0,0-.65.15,5.88,5.88,0,0,0-1,.55l-.94,4.07h-.92l1.26-5.45h.92l-.14.6a6.15,6.15,0,0,1,.95-.56,2.21,2.21,0,0,1,.92-.2,1.53,1.53,0,0,1,.89.24,1.11,1.11,0,0,1,.46.65,5.65,5.65,0,0,1,1.16-.68,2.61,2.61,0,0,1,1-.21,1.46,1.46,0,0,1,1.07.36A1.35,1.35,0,0,1,120.34,106.86Z"/><path class="b" d="M126.74,107.38a4.53,4.53,0,0,1-.25,1.52,3.81,3.81,0,0,1-.66,1.23,3.26,3.26,0,0,1-1,.83,2.42,2.42,0,0,1-1.19.3,3,3,0,0,1-.81-.11,2.66,2.66,0,0,1-.68-.31l-.12.27h-.86l1.75-7.6h.92l-.63,2.72a4.88,4.88,0,0,1,.89-.52,2.19,2.19,0,0,1,1-.21,1.52,1.52,0,0,1,1.22.5A2.07,2.07,0,0,1,126.74,107.38Zm-1.51,2.19a3,3,0,0,0,.41-.93,4.22,4.22,0,0,0,.14-1.09,1.39,1.39,0,0,0-.25-.89,1,1,0,0,0-.81-.32,2.06,2.06,0,0,0-.84.2,7.22,7.22,0,0,0-.82.46l-.71,3.12a3.41,3.41,0,0,0,.6.26,2.5,2.5,0,0,0,.71.09,1.66,1.66,0,0,0,.91-.25A2.15,2.15,0,0,0,125.23,109.57Z"/><path class="b" d="M130,111.24a2.67,2.67,0,0,1-1.77-.54,1.89,1.89,0,0,1-.65-1.55,3.75,3.75,0,0,1,.95-2.57,3,3,0,0,1,2.34-1.08,2,2,0,0,1,1.42.46,1.7,1.7,0,0,1,.49,1.3,3.62,3.62,0,0,1,0,.47c0,.21-.07.45-.13.73h-4a1.45,1.45,0,0,0,0,.28,2.46,2.46,0,0,0,0,.26,1.43,1.43,0,0,0,.42,1.08,1.7,1.7,0,0,0,1.2.39,3.19,3.19,0,0,0,1.1-.21,4.77,4.77,0,0,0,1-.47h.05l-.2,1-.44.16a4.48,4.48,0,0,1-.5.15l-.53.11A4.55,4.55,0,0,1,130,111.24Zm1.83-3.45c0-.1,0-.17,0-.24a1.48,1.48,0,0,0,0-.21,1.12,1.12,0,0,0-.29-.82,1.2,1.2,0,0,0-.91-.29,1.9,1.9,0,0,0-1.23.43,2.09,2.09,0,0,0-.73,1.13Z"/><path class="b" d="M137.79,106.62h0l-.36-.07-.41,0a2.16,2.16,0,0,0-.91.21,4.94,4.94,0,0,0-.86.5l-.89,3.87h-.92l1.24-5.45h.93l-.18.8a5.49,5.49,0,0,1,1.1-.63,2.31,2.31,0,0,1,.86-.17h.35l.31,0Z"/><path class="b" d="M143,107.58a4.43,4.43,0,0,1-.23,1.41,3.65,3.65,0,0,1-.63,1.17,3.12,3.12,0,0,1-1,.81,2.86,2.86,0,0,1-1.3.29,2,2,0,0,1-1.52-.55,2.1,2.1,0,0,1-.54-1.53,4.32,4.32,0,0,1,.22-1.4,3.74,3.74,0,0,1,.64-1.18,3.09,3.09,0,0,1,1-.8,2.84,2.84,0,0,1,1.29-.3,1.9,1.9,0,0,1,2.06,2.08Zm-1.5,2.06a2.84,2.84,0,0,0,.4-.9,3.81,3.81,0,0,0,.14-1.08,1.47,1.47,0,0,0-.32-1,1.23,1.23,0,0,0-.93-.35,1.67,1.67,0,0,0-.85.23,2.1,2.1,0,0,0-.64.62,2.85,2.85,0,0,0-.41.9,4.32,4.32,0,0,0-.14,1.08,1.47,1.47,0,0,0,.33,1,1.16,1.16,0,0,0,.92.36,1.61,1.61,0,0,0,.85-.22A2,2,0,0,0,141.52,109.64Z"/><path class="b" d="M145.43,111.24a3.64,3.64,0,0,1-1.09-.15,4.52,4.52,0,0,1-.81-.33l.21-1h0l.26.21a2.61,2.61,0,0,0,.42.24,3,3,0,0,0,.53.19,2.47,2.47,0,0,0,.63.08,2.05,2.05,0,0,0,1.08-.25.84.84,0,0,0,.39-.75.47.47,0,0,0-.2-.4,1.89,1.89,0,0,0-.58-.23l-.45-.09-.54-.13a1.73,1.73,0,0,1-.85-.47,1.07,1.07,0,0,1-.27-.74,1.61,1.61,0,0,1,.16-.72,2,2,0,0,1,.5-.61,2.56,2.56,0,0,1,.79-.42,3.35,3.35,0,0,1,1.08-.17,3.6,3.6,0,0,1,1,.13,2.84,2.84,0,0,1,.79.3l-.19.94h-.05a2.35,2.35,0,0,0-.64-.39,2.54,2.54,0,0,0-.49-.17,2.78,2.78,0,0,0-.58-.06,1.73,1.73,0,0,0-1,.25.8.8,0,0,0-.39.7.53.53,0,0,0,.19.41,1.26,1.26,0,0,0,.57.26l.5.11.5.11a1.75,1.75,0,0,1,.86.44,1,1,0,0,1,.28.74,1.65,1.65,0,0,1-.18.74,1.88,1.88,0,0,1-.51.62,2.57,2.57,0,0,1-.84.44A3.82,3.82,0,0,1,145.43,111.24Z"/><path class="b" d="M36.35,126.58l-.49.22a4.6,4.6,0,0,1-.57.22c-.2.06-.41.11-.64.16a4.63,4.63,0,0,1-.77.06,4.35,4.35,0,0,1-1.44-.22,3,3,0,0,1-1.13-.7,3.24,3.24,0,0,1-.73-1.18,4.9,4.9,0,0,1-.26-1.66,4.67,4.67,0,0,1,.25-1.6,3.15,3.15,0,0,1,.73-1.2,3,3,0,0,1,1.12-.72,4,4,0,0,1,1.46-.25,4.68,4.68,0,0,1,1.17.14,6,6,0,0,1,1.3.5v1.14h-.08a4.5,4.5,0,0,0-1.19-.73,3.48,3.48,0,0,0-1.26-.23,2.66,2.66,0,0,0-1,.18,2.18,2.18,0,0,0-.78.55,2.63,2.63,0,0,0-.53.93,4.17,4.17,0,0,0-.19,1.29,3.73,3.73,0,0,0,.21,1.32,2.63,2.63,0,0,0,.54.9,2,2,0,0,0,.79.53,2.65,2.65,0,0,0,1,.18,3.58,3.58,0,0,0,1.31-.24,3.9,3.9,0,0,0,1.14-.72h.07Z"/><path class="b" d="M42.29,124.38a3.11,3.11,0,0,1-.68,2.11,2.57,2.57,0,0,1-3.67,0,3.6,3.6,0,0,1,0-4.21,2.55,2.55,0,0,1,3.67,0A3.08,3.08,0,0,1,42.29,124.38Zm-.95,0a2.52,2.52,0,0,0-.41-1.57,1.56,1.56,0,0,0-2.31,0,3.13,3.13,0,0,0,0,3.13,1.39,1.39,0,0,0,1.16.53,1.37,1.37,0,0,0,1.14-.52A2.49,2.49,0,0,0,41.34,124.38Z"/><path class="b" d="M48.27,127.11h-.92V124a5.18,5.18,0,0,0,0-.7,1.33,1.33,0,0,0-.16-.52.79.79,0,0,0-.35-.3,1.47,1.47,0,0,0-.6-.1,1.92,1.92,0,0,0-.78.18,3.79,3.79,0,0,0-.79.48v4.07h-.92v-5.45h.92v.6a3.88,3.88,0,0,1,.89-.56,2.37,2.37,0,0,1,.94-.2,1.68,1.68,0,0,1,1.35.54,2.24,2.24,0,0,1,.46,1.53Z"/><path class="b" d="M53.94,125.54a1.48,1.48,0,0,1-.62,1.22,2.69,2.69,0,0,1-1.69.48,4.32,4.32,0,0,1-1.11-.14,4.77,4.77,0,0,1-.85-.32v-1h0a3.61,3.61,0,0,0,1,.52,2.91,2.91,0,0,0,1,.19,2,2,0,0,0,.95-.19.68.68,0,0,0,.34-.62.59.59,0,0,0-.19-.48,1.67,1.67,0,0,0-.71-.29l-.51-.1c-.21,0-.4-.08-.57-.13a1.84,1.84,0,0,1-1-.56,1.36,1.36,0,0,1-.3-.9,1.39,1.39,0,0,1,.14-.64,1.59,1.59,0,0,1,.42-.53,2,2,0,0,1,.69-.36,3.16,3.16,0,0,1,.95-.14,4.32,4.32,0,0,1,1,.12,4,4,0,0,1,.83.29v1h0a3.09,3.09,0,0,0-.85-.44,3,3,0,0,0-1-.18,1.72,1.72,0,0,0-.85.19.63.63,0,0,0-.35.58.6.6,0,0,0,.21.5,1.56,1.56,0,0,0,.67.28l.57.12.52.11a1.86,1.86,0,0,1,1,.5A1.33,1.33,0,0,1,53.94,125.54Z"/><path class="b" d="M58.08,127.06a4.27,4.27,0,0,1-.56.11,4,4,0,0,1-.55,0,1.7,1.7,0,0,1-1.27-.45,2,2,0,0,1-.43-1.44v-2.9h-.62v-.77h.62v-1.57h.92v1.57h1.89v.77H56.19v2.48a6.15,6.15,0,0,0,0,.67,1.06,1.06,0,0,0,.13.46.63.63,0,0,0,.3.28,1.35,1.35,0,0,0,.57.09,2,2,0,0,0,.47-.06l.35-.11h0Z"/><path class="b" d="M63.43,127.11h-.92v-.58l-.33.23a2.12,2.12,0,0,1-.4.24,4,4,0,0,1-.53.19,2.82,2.82,0,0,1-.69.07,1.71,1.71,0,0,1-1.25-.49,1.61,1.61,0,0,1-.52-1.24,1.72,1.72,0,0,1,.27-1,1.85,1.85,0,0,1,.76-.6,3.9,3.9,0,0,1,1.2-.3c.46-.05,1-.09,1.49-.11v-.15a1,1,0,0,0-.11-.51.76.76,0,0,0-.31-.33,1.53,1.53,0,0,0-.47-.15,5.1,5.1,0,0,0-.57,0,4.25,4.25,0,0,0-.81.1,5.88,5.88,0,0,0-.91.28h0v-.94c.18,0,.43-.1.77-.16a5.81,5.81,0,0,1,1-.09,4.31,4.31,0,0,1,1,.1,2,2,0,0,1,.74.32,1.57,1.57,0,0,1,.47.58,2.32,2.32,0,0,1,.16.89Zm-.92-1.34v-1.52l-1,.07a5.32,5.32,0,0,0-.91.14,1.48,1.48,0,0,0-.63.35.85.85,0,0,0-.25.65.86.86,0,0,0,.28.71,1.33,1.33,0,0,0,.87.24,2.14,2.14,0,0,0,.88-.19A4.17,4.17,0,0,0,62.51,125.77Z"/><path class="b" d="M69.76,127.11h-.92V124a5.12,5.12,0,0,0,0-.7,1.33,1.33,0,0,0-.16-.52.79.79,0,0,0-.35-.3,1.42,1.42,0,0,0-.59-.1,1.93,1.93,0,0,0-.79.18,4.07,4.07,0,0,0-.79.48v4.07H65.2v-5.45h.91v.6a4.11,4.11,0,0,1,.89-.56,2.41,2.41,0,0,1,.94-.2,1.68,1.68,0,0,1,1.35.54,2.24,2.24,0,0,1,.47,1.53Z"/><path class="b" d="M75.56,126.77a6.57,6.57,0,0,1-.88.34,3,3,0,0,1-.87.12,3.41,3.41,0,0,1-1.09-.17,2.23,2.23,0,0,1-.84-.53,2.28,2.28,0,0,1-.55-.89,3.6,3.6,0,0,1-.2-1.25,2.91,2.91,0,0,1,.74-2.1,2.55,2.55,0,0,1,1.94-.76,3.2,3.2,0,0,1,.92.13,5.74,5.74,0,0,1,.83.32v1h0a3.83,3.83,0,0,0-.87-.5,2.34,2.34,0,0,0-.87-.18,1.54,1.54,0,0,0-1.23.53,2.8,2.8,0,0,0,0,3.06,1.53,1.53,0,0,0,1.24.53,2.3,2.3,0,0,0,.57-.08,2.35,2.35,0,0,0,.51-.19l.38-.21.28-.2h0Z"/><path class="b" d="M77.72,120.74h-1v-.95h1Zm-.06,6.37h-.92v-5.45h.92Z"/><path class="b" d="M83.72,127.11H82.8v-.58l-.33.23a2.49,2.49,0,0,1-.4.24,4,4,0,0,1-.53.19,2.91,2.91,0,0,1-.7.07,1.74,1.74,0,0,1-1.25-.49,1.64,1.64,0,0,1-.51-1.24,1.72,1.72,0,0,1,.27-1,1.85,1.85,0,0,1,.76-.6,3.91,3.91,0,0,1,1.19-.3c.47-.05,1-.09,1.5-.11v-.15a1,1,0,0,0-.11-.51.82.82,0,0,0-.31-.33,1.53,1.53,0,0,0-.47-.15,5.1,5.1,0,0,0-.57,0,4.25,4.25,0,0,0-.81.1,6.34,6.34,0,0,0-.92.28h0v-.94c.17,0,.43-.1.77-.16a5.72,5.72,0,0,1,1-.09,4.31,4.31,0,0,1,1,.1,2,2,0,0,1,.74.32,1.45,1.45,0,0,1,.46.58,2.14,2.14,0,0,1,.17.89Zm-.92-1.34v-1.52l-1,.07a5,5,0,0,0-.9.14,1.58,1.58,0,0,0-.64.35.88.88,0,0,0-.24.65.86.86,0,0,0,.28.71,1.33,1.33,0,0,0,.87.24,2.14,2.14,0,0,0,.88-.19A4.56,4.56,0,0,0,82.8,125.77Z"/><path class="b" d="M94.62,127.11h-1.2L90,120.61v6.5h-.91v-7.27h1.5l3.15,5.94v-5.94h.9Z"/><path class="b" d="M101.13,124.38a3.06,3.06,0,0,1-.69,2.11,2.32,2.32,0,0,1-1.83.77,2.36,2.36,0,0,1-1.84-.77,3.6,3.6,0,0,1,0-4.21,2.33,2.33,0,0,1,1.84-.78,2.3,2.3,0,0,1,1.83.78A3,3,0,0,1,101.13,124.38Zm-.95,0a2.52,2.52,0,0,0-.41-1.57,1.57,1.57,0,0,0-2.32,0,2.52,2.52,0,0,0-.41,1.57,2.46,2.46,0,0,0,.42,1.56,1.52,1.52,0,0,0,2.3,0A2.49,2.49,0,0,0,100.18,124.38Z"/><path class="b" d="M104,127.11h-1.17v-1.39H104Z"/><path class="b" d="M113.77,123.61a1.64,1.64,0,0,1,.38.53,1.91,1.91,0,0,1,.15.82,2.27,2.27,0,0,1-.18.91,2.16,2.16,0,0,1-.5.72,2.38,2.38,0,0,1-.87.51,3.4,3.4,0,0,1-1.08.16,5.52,5.52,0,0,1-2.16-.46v-1h.08a4,4,0,0,0,1,.46,3.6,3.6,0,0,0,1.09.18,2.27,2.27,0,0,0,.65-.11,1.31,1.31,0,0,0,.56-.3,1.52,1.52,0,0,0,.34-.47,1.78,1.78,0,0,0,.11-.66,1.35,1.35,0,0,0-.13-.64.92.92,0,0,0-.34-.41,1.25,1.25,0,0,0-.53-.2,3.66,3.66,0,0,0-.68-.06h-.44v-.81h.35a2,2,0,0,0,1.18-.31,1.05,1.05,0,0,0,.44-.91,1,1,0,0,0-.11-.46,1,1,0,0,0-.31-.32,1.25,1.25,0,0,0-.45-.18,2.92,2.92,0,0,0-.54,0,3.32,3.32,0,0,0-1,.17,3.74,3.74,0,0,0-1,.47h0v-1a4.72,4.72,0,0,1,.93-.32,5,5,0,0,1,1.12-.14,3.82,3.82,0,0,1,.94.1,2.07,2.07,0,0,1,.73.31,1.57,1.57,0,0,1,.53.56,1.63,1.63,0,0,1,.18.78,1.51,1.51,0,0,1-.42,1.06,1.94,1.94,0,0,1-1,.57v.06a2.46,2.46,0,0,1,.53.17A1.56,1.56,0,0,1,113.77,123.61Z"/><path class="b" d="M120.93,125.06h-1.08v2h-.94v-2h-3.48v-1.12l3.52-4.1h.9v4.44h1.08Zm-2-.78V121l-2.81,3.28Z"/><path class="b" d="M127.29,125.06h-1.08v2h-.94v-2h-3.48v-1.12l3.52-4.1h.9v4.44h1.08Zm-2-.78V121l-2.82,3.28Z"/><g class="c"><g class="d"><path class="e" d="M32.75,68.63C24.23,63.2,5,65.69,3.41,54.07V.83C18.72,3.92,17.14,3.62,32.75,0c10.33,3.09,19,5,29.41.83V54.07c-1.36,10-21,10.64-29.41,14.56"/><polygon class="f" points="21.13 54.3 20.15 53.92 18.95 53.54 17.74 52.87 16.61 52.34 15.63 51.43 14.72 50.6 14.12 49.4 13.89 48.42 13.89 46.15 13.89 43.74 13.89 41.48 13.89 39.14 13.89 37.03 13.89 34.62 13.89 32.35 13.89 30.02 13.89 27.83 13.89 25.34 13.89 23.15 13.89 20.81 13.89 18.55 13.89 16.21 13.89 14.03 13.89 11.69 15.03 12.14 16.23 12.44 17.44 12.67 18.87 13.05 20.15 13.12 21.51 13.27 22.79 13.42 24.23 13.42 25.51 13.42 26.86 13.27 27.92 13.05 28.98 12.67 29.81 12.44 30.79 12.14 31.92 11.54 33.28 10.94 34.48 11.54 35.69 12.14 36.67 12.44 37.42 12.67 38.55 13.05 39.53 13.27 40.74 13.42 42.25 13.42 43.61 13.42 45.04 13.27 46.47 13.12 47.91 13.05 49.19 12.67 50.32 12.44 51.45 12.14 52.43 11.69 52.43 48.42 52.35 49.4 51.75 50.45 51 51.36 50.02 52.11 48.89 52.87 47.6 53.47 46.47 53.92 45.34 54.3 43.61 54.52 42.1 54.83 40.52 55.13 39.08 55.43 37.65 55.81 36.22 56.41 34.86 57.02 33.28 57.84 31.62 57.02 30.03 56.41 28.68 55.81 27.24 55.43 25.81 55.13 24.23 54.83 22.79 54.52 21.13 54.3"/><path class="g" d="M20.38,45l-.23.3-.22.15-.38.15-.38.15-.37.08.37.15h.61l.45-.08.3-.22.23-.23.22.38.61-.31-.15-.3.3-.22.37-.23.23-.3.15-.3-.07-.45-.23.3-.3.3-.45.3-.46.07c-3.77,1.29-.6.31-.6.31"/><polygon class="g" points="44.74 45.32 45.12 45.55 45.42 45.7 46.02 45.78 46.47 45.78 45.95 46.15 45.42 46.23 44.89 46.15 44.59 46.08 44.28 45.93 44.28 45.63 44.06 45.47 43.83 45.85 43.3 45.7 43.53 45.32 43.15 45.17 42.85 45.1 42.48 44.95 42.17 44.72 42.02 44.42 42.02 44.19 42.02 43.89 42.33 44.19 42.63 44.42 43 44.57 43.53 44.72 43.98 44.8 44.51 45.02 44.74 45.32"/><polygon class="g" points="24.75 52.87 23.55 52.79 23.55 52.72 23.47 52.26 23.55 51.28 23.55 50.45 23.25 49.4 22.87 48.72 22.57 48.34 22.11 47.51 23.17 46.98 23.47 46.15 23.85 46.83 23.85 47.51 24.23 48.04 24.45 48.64 24.38 49.02 24.6 48.19 25.06 47.51 25.43 46.98 26.04 46.68 26.79 46.53 27.62 46.46 27.54 47.36 27.32 48.11 27.02 48.64 26.56 49.09 26.04 49.4 25.36 49.55 24.83 49.62 24.6 49.55 24.75 49.92 24.98 50.6 25.13 51.43 25.21 52.11 25.21 52.79 24.75 52.87"/><polygon class="h" points="34.33 16.21 30.94 16.21 30.56 15.76 30.11 15.08 29.81 14.56 29.58 14.1 30.03 14.33 30.41 14.56 31.09 14.78 31.84 14.78 32.22 14.1 32.3 13.57 32.6 13.05 32.75 13.5 32.82 14.1 33.2 14.78 33.8 14.78 34.56 14.56 34.94 14.33 35.61 14.03 35.24 14.48 35.01 14.86 34.71 15.46 34.33 16.21"/><polygon class="h" points="33.73 17.12 29.2 17.04 28.9 17.34 28.6 17.65 28.6 18.93 28.6 19.61 29.43 19.61 30.41 19.61 30.79 20.14 30.64 23.53 30.56 24.28 29.88 24.81 29.2 25.11 28.37 24.96 27.85 24.73 27.62 24.36 27.39 23.45 27.24 22.32 27.02 21.8 26.64 21.12 26.26 20.66 25.89 20.29 25.28 19.99 24.68 19.61 23.77 19.31 22.87 19 21.96 18.7 21.13 18.32 20.38 18.18 19.55 17.72 18.8 17.42 18.27 17.19 17.66 16.97 16.98 16.52 16.53 16.14 15.86 15.69 15.18 14.93 15.03 16.21 15.18 17.72 15.55 18.4 15.86 19.23 16.38 19.76 17.14 20.74 17.96 21.27 18.72 21.87 19.63 22.4 20.53 22.7 21.21 23.15 21.96 23.45 21.13 23.6 20 23.53 18.72 23.53 17.89 23.38 16.98 23.23 16.16 22.93 15.63 22.62 15.78 23.3 16 23.75 16.38 24.51 16.91 25.26 17.74 26.02 18.42 26.55 19.25 27.07 19.93 27.3 20.76 27.53 21.51 27.6 21.89 27.75 23.02 27.98 21.89 28.51 21.06 28.88 20.45 29.03 19.7 29.26 18.87 29.34 17.89 29.41 17.21 29.49 17.66 29.86 18.19 30.24 18.87 30.77 19.55 31.22 20.15 31.52 20.98 31.82 21.81 31.9 22.64 31.98 23.62 31.9 25.06 31.68 24.3 32.43 23.55 32.96 23.02 33.33 22.49 33.48 21.66 33.78 20.98 33.94 20.38 33.94 19.85 33.86 20.15 34.31 20.91 34.84 21.66 35.14 22.64 35.52 23.62 35.44 24.75 35.29 25.66 35.07 26.26 34.92 26.79 34.69 27.47 34.31 27.24 35.22 26.79 35.82 26.41 36.2 25.96 36.5 25.51 36.88 25.06 37.03 24.6 37.1 24.15 37.26 24.9 37.78 25.73 38.01 26.79 38.01 28 37.71 28.6 37.48 29.13 37.33 29.66 37.03 30.03 36.8 30.34 36.5 30.79 36.58 31.09 37.1 30.64 37.56 30.03 38.01 29.05 38.54 28.3 39.14 27.47 39.59 26.71 40.2 25.96 40.95 25.28 42.31 26.26 42.08 25.51 43.06 25.21 43.44 24.68 43.89 24.15 44.49 23.62 44.95 23.25 45.25 22.79 45.25 22.04 45.17 21.13 45.32 20.61 45.55 20.23 46.08 20.15 46.76 20.3 47.29 20.83 48.04 21.36 48.49 22.11 48.94 22.87 48.87 22.64 48.19 23.09 47.59 24.07 47.81 24.23 47.13 24.07 46.38 24.23 46.15 24.75 45.78 25.51 45.25 26.19 44.8 26.71 44.34 27.47 43.89 28.07 43.51 28.68 43.36 28.52 44.19 28.37 44.64 28.98 44.12 29.5 43.81 29.88 43.59 30.41 43.36 29.96 44.64 29.66 45.47 29.43 46.23 29.28 46.91 29.2 47.74 29.43 48.49 29.81 48.11 30.18 47.66 31.01 47.44 30.86 48.11 30.71 49.32 30.79 50.68 31.01 52.11 31.31 52.87 31.62 53.62 31.99 54.3 32.37 55.13 32.67 55.51 33.2 54.45 33.5 53.77 33.8 53.02 34.18 52.11 34.26 51.59 34.41 49.85 34.41 48.72 34.18 47.36 34.94 47.74 35.61 48.19 36.07 48.49 35.91 47.51 35.84 46.61 35.69 45.93 35.46 45.02 35.24 44.34 35.01 43.74 34.94 43.29 35.46 43.51 36.14 43.74 36.74 44.12 37.2 44.34 37.95 44.8 37.8 44.27 37.65 43.89 38.63 44.19 39.38 44.72 39.99 45.1 40.82 45.85 41.27 46.53 41.34 47.44 41.72 48.11 42.33 48.57 43.23 48.57 44.06 48.34 44.74 47.44 44.81 46.46 44.44 45.78 43.91 45.32 42.93 45.1 42.17 45.25 41.72 45.32 41.27 44.87 40.67 44.27 39.84 43.51 39.38 42.84 39.08 42.31 39.08 42.16 39.84 42.16 40.21 42.08 39.76 41.03 39.08 40.35 38.33 39.74 37.35 38.99 36.44 38.54 35.61 38.16 35.01 37.78 34.63 37.33 34.71 36.8 35.24 36.65 36.29 37.18 37.2 37.56 38.18 37.78 39.53 38.01 40.29 37.93 41.12 37.71 42.02 37.18 40.59 36.73 39.76 36.27 39.16 35.52 38.78 34.92 38.63 34.54 39.16 34.84 40.21 35.14 41.8 35.37 43.38 35.37 44.44 35.07 45.19 34.62 46.17 33.86 45.34 33.86 44.44 33.71 43.61 33.56 42.93 33.33 42.25 32.96 41.8 32.51 41.42 32.13 41.04 31.6 41.57 31.68 43.08 31.75 44.44 31.6 45.42 31.45 46.32 31.15 47 30.77 47.6 30.24 48.06 29.94 48.36 29.56 47.53 29.49 46.7 29.34 45.87 29.11 45.19 28.88 44.59 28.58 43.98 28.36 43.68 28.05 43.46 27.9 43.91 27.75 44.59 27.53 45.49 27.38 46.02 27.3 46.85 26.92 47.53 26.62 48.06 26.32 48.51 25.87 49.04 25.34 49.34 24.81 49.56 24.28 49.72 23.53 49.94 22.55 49.19 22.93 48.81 23.08 48.06 23.15 47.23 23.23 45.72 23.45 44.44 23.45 43.91 23.3 44.06 23.15 44.59 22.93 45.12 22.55 45.79 22.02 46.62 21.57 47.23 21.04 48.06 20.14 48.73 19.16 49.04 18.55 49.34 17.57 49.49 16.67 49.56 15.91 49.56 15.31 49.49 14.93 49.26 15.23 48.73 15.69 48.36 15.99 47.53 16.59 46.62 17.12 45.87 17.5 44.81 17.95 43.91 18.32 42.93 18.63 42.1 18.93 41.19 19.31 40.67 19.46 39.99 19.76 39.38 20.14 38.93 20.74 38.55 21.34 38.25 22.02 38.18 22.62 38.18 23.68 37.88 24.28 37.57 24.73 36.82 24.96 35.99 24.96 35.54 24.73 35.24 24.51 35.01 24.13 34.94 23.45 34.94 21.8 34.94 20.97 35.01 19.08 34.86 18.48 34.41 17.87 34.03 17.42 33.73 17.12"/><path class="f" d="M31.62,19a.75.75,0,0,0,.75-.75.79.79,0,0,0-1.58,0,.77.77,0,0,0,.83.75"/><path class="g" d="M46.17,40.27c-1.66-.6-3.32.08-3.62,1.51a3.61,3.61,0,0,0,2.57,3.69c1.66.53,3.24-.15,3.54-1.58a3.42,3.42,0,0,0-2.49-3.62"/><polygon class="g" points="41.34 47.44 40.89 47.89 40.52 48.49 40.29 49.02 40.14 49.32 39.91 48.79 39.76 48.19 39.38 47.51 38.7 46.98 38.03 46.68 37.35 46.46 36.74 46.46 36.82 47.29 36.9 47.89 37.12 48.34 37.57 48.87 38.03 49.32 38.63 49.7 39.31 49.77 39.91 49.7 39.76 50.83 39.69 51.59 39.53 52.41 39.53 52.87 41.57 52.87 41.57 51.89 41.65 50.91 41.72 50 41.87 49.25 42.1 48.64 42.33 48.12 41.87 47.29 41.57 47.13 41.34 47.44"/><polygon class="g" points="46.77 40.2 46.93 39.67 46.77 38.99 46.4 38.76 45.95 38.61 46.55 38.46 47.08 38.69 47.45 38.99 47.6 39.44 48.59 38.69 48.13 39.9 48.66 39.97 49.11 40.12 49.41 40.57 49.57 41.1 49.11 40.73 48.73 40.42 48.28 40.57 48.06 40.65 47.68 40.95 46.77 40.2"/><path class="g" d="M17.82,40.73c-1.59,1-2.11,2.71-1.29,3.84s2.72,1.13,4.3.15,2-2.71,1.21-3.84-2.72-1.21-4.22-.15"/><polygon class="g" points="17.36 40.73 18.19 40.2 18.12 39.67 18.12 39.29 18.27 39.07 18.64 38.84 18.27 38.84 18.04 38.91 17.82 39.14 17.59 39.52 16.84 38.84 16.91 39.82 16.76 39.9 16.53 39.9 16.38 39.9 16.16 40.05 15.93 40.5 16.23 40.27 16.46 40.2 16.68 40.12 16.99 40.27 17.14 40.42 17.36 40.73"/><polygon class="f" points="8.62 6.71 9.52 7.01 10.2 7.39 10.65 7.84 11.1 8.52 11.18 9.43 11.03 10.48 10.65 11.01 10.12 11.54 9.59 11.91 8.84 12.14 8.09 12.22 7.26 12.07 6.5 11.77 5.97 11.39 5.37 10.94 4.92 10.26 4.84 9.13 5.07 8.22 5.52 7.62 6.2 7.01 6.96 6.71 7.79 6.64 8.62 6.71"/><polygon class="f" points="7.93 6.11 8.84 6.18 8.99 5.81 9.22 5.5 9.9 5.13 9.52 4.9 9.14 4.98 8.77 5.2 8.54 4.15 8.24 5.13 7.79 4.75 7.33 4.68 7.03 4.83 7.48 5.05 7.79 5.35 7.93 6.11"/><path class="f" d="M7.94,12.14l1,.45H10.2l.68-.07-.3.3-.31.23-.52.3H9.22l-.45-.08H8.39c-.38-.22-.38.38-.38.38l.23.75.22.76.53,1,.3.75.08.76v.9l-.15.83-.15.83-.08.6-.15.68-1-.07L8,20.81l.15-.75v-.9l.15-.61v-.38l-.52.08-.53-.08L6.8,18l-.37-.15-.38-.22-.3-.31L5.52,17l-.22-.38L5,16l.9-.15L7,16.21l.52.31.53.37.38.53-.08-.75-.45-.91-.3-.6-.15-.53L7.33,14l-.07-.68L7,13.2h-1L5.45,13a2.28,2.28,0,0,1-.76-.68l.76.08.68.07H7l.52-.3Z"/><polygon class="f" points="8.69 27.83 9.6 28.05 10.27 28.51 10.8 28.88 11.18 29.56 11.33 30.47 11.1 31.52 10.73 32.13 10.2 32.58 9.67 32.96 8.92 33.18 8.16 33.26 7.33 33.11 6.58 32.88 6.05 32.51 5.45 31.98 5 31.3 4.92 30.24 5.15 29.26 5.6 28.66 6.28 28.13 7.03 27.83 7.86 27.75 8.69 27.83"/><polygon class="f" points="8.09 27.22 8.99 27.22 9.14 26.85 9.45 26.55 10.05 26.17 9.67 26.02 9.29 26.02 8.99 26.25 8.77 25.19 8.39 26.17 8.01 25.87 7.56 25.72 7.18 25.94 7.63 26.09 8.01 26.4 8.09 27.22"/><path class="f" d="M8,33.18l1.06.45.52.08.68-.08.68-.07-.3.38-.23.22-.52.23H9.29l-.45-.08H8.46c-.37-.22-.37.38-.37.38l.22.83.23.76.53.9.3.75.15.76-.07.9-.16.83-.15.83-.07.68-.15.6-1-.07.15-.53.15-.83.07-.83.08-.6v-.45l-.53.07H7.33l-.45-.15-.38-.23-.37-.22-.23-.3-.3-.31-.23-.45-.3-.6L6,37l1,.3.6.31.46.37.37.53-.07-.75L8,36.88l-.38-.68-.07-.53-.15-.6-.08-.68-.15-.15h-1L5.52,34a4.1,4.1,0,0,1-.75-.6l.83.07H7l.53-.3Z"/><polygon class="f" points="6.8 48.79 7.63 48.34 8.46 48.27 9.07 48.27 9.82 48.49 10.5 49.17 11.03 50.08 11.1 50.75 11.03 51.51 10.88 52.11 10.42 52.72 9.9 53.24 9.22 53.7 8.46 54 7.79 54.07 7.03 54 6.28 53.85 5.45 53.02 4.99 52.11 4.99 51.43 5.14 50.53 5.52 49.85 6.13 49.25 6.8 48.79"/><polygon class="f" points="5.97 48.72 6.73 48.19 6.58 47.81 6.58 47.36 6.8 46.61 6.43 46.76 6.13 47.06 6.05 47.44 5.14 46.76 5.52 47.74 5 47.74 4.62 47.96 4.47 48.27 4.92 48.11 5.37 48.19 5.97 48.72"/><path class="f" d="M9.82,53.24l1.06-.3.45-.38.45-.45.53-.45v.45l-.08.3L12,53l-.45.37-.46.15-.22.31c-.46,0-.08.45-.08.45l.68.53.68.37,1.06.46.67.37.61.53.45.68.45.75.45.68.31.61.37.52-.83.61-.3-.53L15,59.2l-.52-.75-.3-.53-.23-.3-.38.45-.37.23-.53.22-.38.08-.38.07-.45-.07-.38-.08-.45-.15-.6-.3.6-.68,1-.38.68-.15h.6l.68.15-.6-.52-.91-.38-.6-.3-.45-.3-.53-.46-.45-.45H9.82L9.29,55l-.22.3-.68.15a1.76,1.76,0,0,1-.91,0l.61-.38.52-.37.61-.53.22-.61Z"/><polygon class="f" points="26.11 60.63 26.49 59.73 26.94 59.13 27.39 58.67 28.15 58.3 29.05 58.3 30.03 58.6 30.64 58.97 31.01 59.58 31.39 60.11 31.54 60.86 31.54 61.61 31.31 62.44 31.01 63.2 30.56 63.65 30.03 64.25 29.35 64.63 28.22 64.56 27.24 64.25 26.71 63.8 26.26 63.05 26.04 62.29 26.04 61.46 26.11 60.63"/><polygon class="f" points="25.43 61.24 25.58 60.33 25.21 60.18 24.9 59.88 24.6 59.2 24.38 59.5 24.38 59.95 24.6 60.26 23.55 60.41 24.45 60.86 24.07 61.24 23.93 61.69 24.07 62.07 24.3 61.54 24.68 61.31 25.43 61.24"/><path class="f" d="M31.47,61.69l.52-.91.08-.6V58.82l.3.38.23.3.22.53-.07.53L32.6,61v.38c-.23.37.37.37.37.37l.76-.15.83-.15,1-.45.75-.15.76-.08.9.16.83.15.75.22.68.15.61.15-.15,1.06-.53-.23-.83-.22-.83-.15-.61-.15H37.5v.52l-.08.53-.22.45-.15.31-.23.37-.38.23-.37.23-.38.22L35,65V64.1l.38-1,.37-.6.46-.45.52-.31H36l-.9.38-.68.23-.53.07-.6.08H32.6l-.15.23-.08.6-.08.38-.3.6a2.06,2.06,0,0,1-.68.6l.16-.68.15-.67.07-.83-.3-.53Z"/><polygon class="f" points="29.35 7.92 29.13 8.82 28.68 9.5 28.3 10.03 27.62 10.41 26.71 10.56 25.66 10.33 25.06 9.96 24.6 9.43 24.23 8.9 24 8.14 23.92 7.39 24.07 6.56 24.3 5.81 24.68 5.28 25.21 4.68 25.89 4.22 26.94 4.15 27.92 4.37 28.52 4.83 29.05 5.51 29.35 6.26 29.43 7.09 29.35 7.92"/><polygon class="f" points="29.96 7.32 29.96 8.22 30.34 8.37 30.64 8.67 31.01 9.28 31.16 8.9 31.16 8.52 30.94 8.22 31.99 8 31.01 7.62 31.31 7.24 31.46 6.79 31.24 6.41 31.09 6.86 30.79 7.24 29.96 7.32"/><path class="f" d="M24,7.39l-.45,1-.08.6.08.61.07.75L23.25,10,23,9.73l-.23-.53V8.6l.08-.46V7.77c.22-.31-.38-.31-.38-.31l-.83.16-.75.3L20,8.37l-.75.3-.76.15-.9-.07-.83-.15-.83-.15-.68-.08-.6-.07.07-1.06.53.15.83.15.83.08.6.07H18l-.08-.53V6.71L18,6.18l.23-.3.22-.37.31-.31.3-.3.45-.22.6-.31.08.91-.3,1-.31.61-.37.52-.53.38.75-.07.83-.46L21,7l.53-.15.6-.15h.68l.15-.22v-1l.23-.68a3,3,0,0,1,.6-.68l-.07.75V6.33l.3.53Z"/><polygon class="f" points="57.11 29.71 57.78 29.79 58.54 30.02 59.22 30.39 59.75 31.22 59.97 32.05 59.82 32.88 59.44 33.48 59.14 34.01 58.54 34.46 57.78 34.69 56.88 34.77 55.9 34.77 55 34.54 54.31 34.09 53.86 33.48 53.56 32.73 53.56 32.05 53.79 31.07 54.39 30.39 55.07 30.02 55.67 29.86 56.43 29.71 57.11 29.71"/><path class="f" d="M57.18,34.69l.38.3h.6l.68-.15.91-.3-.38.75L59,35.6l-.53.07h-.52l-.53-.07-.08.68-.15.75-.15.6-.3.68-.23.76-.07.9.38-.75.45-.31.53-.22.67-.08.38.08.45.07-.22.61-.45.45-.38.45-.68.3-.83.16-.3-.23-.08.3.08.75v.76l.15.53.07.52c-.22.31-1,.15-1,.15l-.22-.82-.08-1.14v-1l.08-1,.22-.91.38-1,.3-.68.08-.67V35.6l-.45.15h-.53l-.61-.15-.37-.31-.31-.6.91.3h1l.38-.3Z"/><polygon class="f" points="55.98 28.73 56.13 29.11 56.73 29.11 56.88 28.73 57.26 28.43 57.78 28.05 57.11 27.98 56.73 28.13 56.35 27.15 56.05 28.13 55.6 28.05 55 28.13 55.6 28.36 55.98 28.73"/><polygon class="f" points="56.8 7.62 57.41 7.69 58.16 7.84 58.84 8.3 59.37 9.05 59.59 9.88 59.44 10.71 59.07 11.39 58.77 11.84 58.16 12.29 57.41 12.59 56.5 12.67 55.52 12.67 54.69 12.37 53.94 11.91 53.49 11.39 53.19 10.63 53.19 9.88 53.49 8.9 54.09 8.22 54.69 7.84 55.3 7.69 56.05 7.54 56.8 7.62"/><path class="f" d="M57,12.52l.37.3.53.08.68-.15,1-.38-.45.83-.38.22-.45.15h-.61l-.45-.07-.15.68-.07.68-.23.6-.3.75-.15.68-.15,1,.37-.75.53-.38.45-.22.68-.08.45.08.46.15-.3.52-.46.46-.37.52-.61.31-.83.07-.37-.15-.08.3.08.68.07.76.08.52.07.53c-.22.3-1,.15-1,.15l-.15-.83-.15-1.13v-1l.07-1.06.23-.9.45-1,.23-.68.08-.68.07-.6-.45.15h-.61l-.52-.15-.38-.38-.38-.6,1,.3,1,.08.38-.31Z"/><polygon class="f" points="55.6 6.56 55.75 6.94 56.43 7.01 56.5 6.56 56.88 6.26 57.41 5.96 56.73 5.88 56.35 5.96 55.98 4.98 55.75 6.03 55.22 5.88 54.62 6.03 55.22 6.26 55.6 6.56"/><polygon class="f" points="58.47 52.04 58.84 52.56 59.22 53.24 59.45 54 59.22 54.9 58.77 55.66 58.16 56.18 57.41 56.34 56.88 56.48 56.13 56.34 55.37 56.03 54.69 55.43 54.01 54.75 53.56 53.92 53.41 53.09 53.49 52.41 53.79 51.66 54.32 51.21 55.15 50.6 56.05 50.6 56.81 50.75 57.33 51.05 57.94 51.51 58.47 52.04"/><path class="f" d="M55.07,55.58v.53l.38.38.6.37.91.45-.83.31-.46-.15-.45-.23-.38-.45-.3-.38-.53.45-.6.38-.6.3-.68.3-.68.38-.75.6.83-.3.6.08.53.22.45.46.3.37.23.38-.61.15-.6.08h-.6L51.15,60l-.68-.45-.08-.38-.3.15-.45.53-.53.6-.22.46-.38.37c-.38.08-.83-.53-.83-.53l.45-.75.76-.9.68-.68.82-.68.83-.53.91-.38.68-.3.6-.38.45-.45-.45-.22L53,55.13l-.3-.53v-.53l.15-.6.46.83.67.75.46.08Z"/><polygon class="f" points="58.31 50.45 58.16 50.83 58.62 51.36 58.99 51.13 59.52 51.13 60.12 51.28 59.67 50.75 59.29 50.6 59.75 49.62 58.84 50.15 58.54 49.7 58.01 49.4 58.31 49.92 58.31 50.45"/><polygon class="f" points="36.44 7.46 36.52 6.79 36.74 6.03 37.12 5.36 37.88 4.83 38.78 4.6 39.61 4.75 40.21 5.13 40.74 5.43 41.12 6.03 41.42 6.79 41.5 7.69 41.5 8.67 41.19 9.58 40.82 10.26 40.21 10.71 39.46 11.01 38.78 11.01 37.8 10.79 37.12 10.18 36.74 9.5 36.59 8.9 36.44 8.14 36.44 7.46"/><path class="f" d="M41.35,7.24l.37-.3v-.6l-.15-.68-.3-1,.75.45.23.38L42.4,6v.53L42.33,7l.67.16.68.07.61.23.75.3.75.15.91.15-.76-.38-.37-.45-.15-.53L45.34,6l.08-.45.07-.45.61.3.45.45.45.38.3.68.08.75-.15.38.3.07.68-.07L49,8l.45-.07L50,7.84c.3.23.22,1,.22,1l-.83.23-1.2.08H47.3l-1.13-.08-.9-.23-.91-.37-.68-.31L43,8.07,42.33,8l.15.46v.6l-.15.6L42,10l-.6.37.37-1v-.9L41.42,8Z"/><polygon class="f" points="35.39 8.6 35.76 8.45 35.76 7.84 35.31 7.69 35.01 7.32 34.71 6.79 34.63 7.46 34.78 7.84 33.8 8.22 34.78 8.45 34.63 8.97 34.78 9.58 35.01 8.97 35.39 8.6"/><polygon class="e" points="8.69 11.61 9.07 11.01 9.45 10.33 9.6 9.35 9.45 8.3 9.07 7.54 8.46 7.17 7.71 7.24 7.11 7.69 6.58 8.6 6.5 9.35 6.5 10.03 6.65 10.93 7.11 11.54 7.56 11.76 8.16 11.84 8.69 11.61"/><polygon class="e" points="8.92 32.66 9.29 32.05 9.59 31.37 9.82 30.47 9.67 29.34 9.29 28.58 8.61 28.2 7.86 28.28 7.26 28.81 6.73 29.71 6.65 30.39 6.65 31.15 6.88 31.98 7.33 32.58 7.71 32.88 8.39 32.88 8.92 32.66"/><polygon class="e" points="10.12 52.34 9.97 51.66 9.82 50.9 9.37 50.08 8.54 49.32 7.79 49.02 7.03 49.09 6.5 49.7 6.35 50.45 6.5 51.43 6.96 52.04 7.41 52.64 8.09 53.17 8.84 53.32 9.29 53.24 9.82 52.87 10.12 52.34"/><polygon class="e" points="31.01 60.86 30.41 60.48 29.81 60.03 28.9 59.8 27.77 59.88 26.94 60.18 26.56 60.78 26.56 61.54 27.02 62.22 27.85 62.82 28.6 62.9 29.28 62.97 30.18 62.82 30.79 62.44 31.09 62.07 31.16 61.46 31.01 60.86"/><polygon class="e" points="24.53 8.14 25.13 8.52 25.81 8.82 26.71 9.05 27.85 8.9 28.6 8.52 28.98 7.84 28.9 7.09 28.37 6.49 27.47 5.96 26.79 5.88 26.04 5.88 25.21 6.11 24.6 6.56 24.3 6.94 24.3 7.62 24.53 8.14"/><polygon class="e" points="57.33 30.02 57.86 30.39 58.24 31 58.47 32.13 58.39 33.03 58.01 34.01 57.33 34.46 56.28 34.54 55.67 34.24 55.22 33.71 55.07 32.58 55.07 31.6 55.37 31 55.67 30.54 56.13 30.09 56.58 29.94 57.33 30.02"/><polygon class="e" points="57.11 7.84 57.56 8.3 58.01 8.82 58.24 9.96 58.09 10.86 57.78 11.84 57.03 12.37 56.05 12.37 55.45 12.07 55 11.54 54.77 10.41 54.84 9.43 55.07 8.82 55.37 8.37 55.82 7.92 56.28 7.77 57.11 7.84"/><polygon class="e" points="58.47 52.41 58.54 53.02 58.39 53.7 57.79 54.67 57.11 55.28 56.13 55.66 55.3 55.51 54.54 54.9 54.32 54.22 54.39 53.47 55 52.56 55.75 51.96 56.43 51.66 56.96 51.59 57.56 51.59 58.01 51.81 58.47 52.41"/><polygon class="e" points="36.59 7.24 37.05 6.71 37.65 6.33 38.78 6.03 39.61 6.18 40.59 6.56 41.12 7.24 41.19 8.22 40.82 8.82 40.29 9.35 39.16 9.5 38.25 9.43 37.57 9.2 37.12 8.9 36.67 8.45 36.52 7.99 36.59 7.24"/><polygon class="f" points="47.23 41.03 47.3 41.78 47.15 42.61 47 43.21 46.55 43.81 46.09 44.19 45.64 44.49 45.04 44.72 44.51 44.8 44.29 44.34 44.13 43.59 44.29 42.84 44.59 42.31 45.12 41.63 45.72 41.25 46.25 41.03 46.7 41.03 47.23 41.03"/><polygon class="f" points="20.68 44.57 20.76 43.74 20.68 42.84 20.45 42.16 20 41.48 19.4 40.95 18.8 40.65 18.04 40.73 17.74 41.33 17.89 42.31 18.12 42.99 18.42 43.44 18.87 43.97 19.4 44.27 20 44.42 20.68 44.57"/><path class="i" d="M75.07,12.4H73.6L73,10.87H70.32l-.56,1.53H68.32l2.62-6.73h1.44Zm-2.5-2.67-.92-2.49-.91,2.49Z"/><path class="i" d="M75.94,12.4V5.72H77.3v5.54h3.38V12.4Z"/><path class="i" d="M85.86,9.92l1.32.42a3,3,0,0,1-1,1.64,2.9,2.9,0,0,1-1.79.53,2.86,2.86,0,0,1-2.2-.92,3.47,3.47,0,0,1-.86-2.5,3.72,3.72,0,0,1,.86-2.61,3,3,0,0,1,2.29-.93,2.81,2.81,0,0,1,2,.73,2.6,2.6,0,0,1,.69,1.24l-1.34.32a1.42,1.42,0,0,0-.5-.82,1.4,1.4,0,0,0-.92-.31,1.54,1.54,0,0,0-1.22.54A2.65,2.65,0,0,0,82.72,9a2.8,2.8,0,0,0,.46,1.82,1.48,1.48,0,0,0,1.19.54A1.4,1.4,0,0,0,85.3,11,2,2,0,0,0,85.86,9.92Z"/><path class="i" d="M94.33,12.4H92.85l-.59-1.53H89.57L89,12.4H87.58L90.2,5.67h1.43Zm-2.5-2.67L90.9,7.24,90,9.73Z"/><path class="i" d="M95.2,12.4V5.72h1.36v5.54h3.37V12.4Z"/><path class="i" d="M100.92,5.67h2.48a4.64,4.64,0,0,1,1.28.13,2.16,2.16,0,0,1,1,.62,2.94,2.94,0,0,1,.64,1.09,4.77,4.77,0,0,1,.22,1.58,4.38,4.38,0,0,1-.21,1.44,3.06,3.06,0,0,1-.72,1.19,2.23,2.23,0,0,1-.95.53,3.93,3.93,0,0,1-1.21.15h-2.55Zm1.36,1.13v4.46h1a4,4,0,0,0,.82-.06,1.3,1.3,0,0,0,.55-.28,1.46,1.46,0,0,0,.36-.65A4.48,4.48,0,0,0,105.15,9a4.15,4.15,0,0,0-.13-1.2,1.52,1.52,0,0,0-.39-.65,1.19,1.19,0,0,0-.63-.32,6.22,6.22,0,0,0-1.11-.07Z"/><path class="i" d="M107.78,12.4V5.67h1.36V12.4Z"/><path class="i" d="M116.69,12.4h-1.48l-.58-1.53h-2.69l-.56,1.53h-1.44l2.62-6.73H114Zm-2.5-2.67-.93-2.49-.91,2.49Z"/><path class="i" d="M120,12.4V5.67h2l1.22,4.59,1.21-4.59h2V12.4h-1.26V7.1l-1.33,5.3H122.6l-1.33-5.3v5.3Z"/><path class="i" d="M134.07,12.4H132.6L132,10.87h-2.69l-.56,1.53h-1.44l2.62-6.73h1.44Zm-2.5-2.67-.93-2.49-.9,2.49Z"/><path class="i" d="M135.93,12.4V9.56l-2.46-3.89h1.59l1.58,2.66,1.55-2.66h1.57l-2.47,3.9V12.4Z"/><path class="i" d="M139.88,9.07a4.35,4.35,0,0,1,.3-1.72,3.47,3.47,0,0,1,.63-.93,2.72,2.72,0,0,1,.87-.6,3.64,3.64,0,0,1,1.45-.27,3.17,3.17,0,0,1,2.38.92A3.53,3.53,0,0,1,146.4,9a3.51,3.51,0,0,1-.88,2.55,3.54,3.54,0,0,1-4.76,0A3.47,3.47,0,0,1,139.88,9.07Zm1.4,0a2.52,2.52,0,0,0,.52,1.73,1.75,1.75,0,0,0,1.35.59,1.71,1.71,0,0,0,1.33-.59A2.54,2.54,0,0,0,145,9a2.54,2.54,0,0,0-.51-1.73,1.7,1.7,0,0,0-1.34-.57,1.74,1.74,0,0,0-1.36.58A2.55,2.55,0,0,0,141.28,9Z"/><path class="i" d="M147.59,12.4V5.67h2.86a5,5,0,0,1,1.57.18,1.56,1.56,0,0,1,.78.64,1.92,1.92,0,0,1,.29,1.06,1.77,1.77,0,0,1-.44,1.25,2.17,2.17,0,0,1-1.33.63,3.6,3.6,0,0,1,.73.56,8.89,8.89,0,0,1,.77,1.09l.82,1.32H152l-1-1.47a10.76,10.76,0,0,0-.71-1,1.16,1.16,0,0,0-.41-.28,2.33,2.33,0,0,0-.69-.07H149V12.4ZM149,8.51h1a5.62,5.62,0,0,0,1.22-.08.76.76,0,0,0,.38-.28.92.92,0,0,0,.13-.51.81.81,0,0,0-.18-.55.79.79,0,0,0-.51-.26,8.74,8.74,0,0,0-1,0H149Z"/><path class="i" d="M69.17,15.07h2.48a4.64,4.64,0,0,1,1.28.13,2.16,2.16,0,0,1,1,.62,2.94,2.94,0,0,1,.64,1.09,4.88,4.88,0,0,1,.22,1.59,4.35,4.35,0,0,1-.21,1.43,2.84,2.84,0,0,1-.72,1.19,2.23,2.23,0,0,1-.95.53,3.9,3.9,0,0,1-1.2.15H69.17Zm1.36,1.14v4.45h1a4.06,4.06,0,0,0,.83-.06,1.32,1.32,0,0,0,.54-.28,1.37,1.37,0,0,0,.36-.65,4.42,4.42,0,0,0,.14-1.23,4.09,4.09,0,0,0-.14-1.2,1.43,1.43,0,0,0-.39-.65,1.19,1.19,0,0,0-.63-.32,6.47,6.47,0,0,0-1.11-.06Z"/><path class="i" d="M76.63,21.8V15.07h5v1.14H78V17.7h3.38v1.13H78v1.83h3.76V21.8Z"/><path class="i" d="M86.65,15.07h2.68a8.76,8.76,0,0,1,1.2.06,1.73,1.73,0,0,1,1.22.84,1.63,1.63,0,0,1,.2.79,1.55,1.55,0,0,1-.25.87,1.59,1.59,0,0,1-.69.59,1.74,1.74,0,0,1,.94.61,1.63,1.63,0,0,1,.33,1,2,2,0,0,1-.21.9,1.79,1.79,0,0,1-.58.69,2,2,0,0,1-.92.32c-.22,0-.77,0-1.63.05H86.65ZM88,16.19v1.55h.89c.53,0,.86,0,1,0a.93.93,0,0,0,.55-.24.72.72,0,0,0,.2-.53.76.76,0,0,0-.17-.5.82.82,0,0,0-.51-.24c-.14,0-.53,0-1.17,0Zm0,2.67v1.8h1.26a5.84,5.84,0,0,0,.93,0,.88.88,0,0,0,.5-.27.95.95,0,0,0,0-1.08.83.83,0,0,0-.42-.31,4.38,4.38,0,0,0-1.21-.1Z"/><path class="i" d="M93.73,18.47A4.17,4.17,0,0,1,94,16.75a3.22,3.22,0,0,1,.62-.93,2.72,2.72,0,0,1,.87-.6A3.64,3.64,0,0,1,97,15a3.14,3.14,0,0,1,2.38.93,3.48,3.48,0,0,1,.89,2.56A3.51,3.51,0,0,1,99.37,21a3.55,3.55,0,0,1-4.76,0A3.51,3.51,0,0,1,93.73,18.47Zm1.4,0a2.47,2.47,0,0,0,.53,1.73,1.81,1.81,0,0,0,2.67,0,2.54,2.54,0,0,0,.52-1.75,2.54,2.54,0,0,0-.51-1.73A1.7,1.7,0,0,0,97,16.11a1.75,1.75,0,0,0-1.36.58A2.55,2.55,0,0,0,95.13,18.43Z"/><path class="i" d="M105.09,19.32V18.19H108v2.68a3.7,3.7,0,0,1-1.23.73,4.51,4.51,0,0,1-1.65.31,3.76,3.76,0,0,1-1.84-.44,2.9,2.9,0,0,1-1.18-1.27,4.15,4.15,0,0,1-.39-1.79,3.94,3.94,0,0,1,.44-1.87,2.94,2.94,0,0,1,1.29-1.25,3.4,3.4,0,0,1,1.61-.34,3.22,3.22,0,0,1,2,.53,2.39,2.39,0,0,1,.91,1.45l-1.35.25a1.46,1.46,0,0,0-.54-.78,1.63,1.63,0,0,0-1-.29,1.82,1.82,0,0,0-1.41.57,2.31,2.31,0,0,0-.53,1.67,2.67,2.67,0,0,0,.53,1.8,1.79,1.79,0,0,0,1.4.6,2.34,2.34,0,0,0,.85-.17,2.73,2.73,0,0,0,.74-.4v-.86Z"/><path class="i" d="M109.64,18.47a4.17,4.17,0,0,1,.31-1.72,3.22,3.22,0,0,1,.62-.93,2.72,2.72,0,0,1,.87-.6,3.68,3.68,0,0,1,1.45-.27,3.13,3.13,0,0,1,2.38.93,3.49,3.49,0,0,1,.9,2.56,3.52,3.52,0,0,1-.89,2.55,3.54,3.54,0,0,1-4.75,0A3.47,3.47,0,0,1,109.64,18.47Zm1.4,0a2.52,2.52,0,0,0,.53,1.73,1.73,1.73,0,0,0,1.34.59,1.71,1.71,0,0,0,1.33-.59,2.54,2.54,0,0,0,.52-1.75,2.54,2.54,0,0,0-.51-1.73,1.69,1.69,0,0,0-1.34-.57,1.77,1.77,0,0,0-1.36.58A2.55,2.55,0,0,0,111,18.43Z"/><path class="i" d="M119.26,21.8V16.21h-2V15.07h5.35v1.14h-2V21.8Z"/><path class="i" d="M129.55,21.8h-1.47l-.59-1.53H124.8l-.56,1.53H122.8l2.62-6.73h1.44Zm-2.5-2.67-.93-2.49-.9,2.49Z"/><path class="i" d="M134,15.07h2.48a4.64,4.64,0,0,1,1.28.13,2.16,2.16,0,0,1,1,.62,2.94,2.94,0,0,1,.64,1.09,4.88,4.88,0,0,1,.22,1.59,4.65,4.65,0,0,1-.2,1.43,3,3,0,0,1-.73,1.19,2.23,2.23,0,0,1-1,.53,3.9,3.9,0,0,1-1.2.15H134Zm1.36,1.14v4.45h1a4.06,4.06,0,0,0,.83-.06,1.26,1.26,0,0,0,.54-.28,1.37,1.37,0,0,0,.36-.65,4.42,4.42,0,0,0,.14-1.23,4.09,4.09,0,0,0-.14-1.2,1.43,1.43,0,0,0-.39-.65,1.19,1.19,0,0,0-.63-.32,6.47,6.47,0,0,0-1.11-.06Z"/><path class="i" d="M141.23,21.8V20.51h1.29V21.8Z"/><path class="i" d="M148.59,19.32l1.32.42a3,3,0,0,1-1,1.64,3.19,3.19,0,0,1-4-.38,3.56,3.56,0,0,1-.86-2.51,3.67,3.67,0,0,1,.87-2.61A3,3,0,0,1,147.2,15a2.85,2.85,0,0,1,2,.73,2.68,2.68,0,0,1,.68,1.24l-1.34.32a1.42,1.42,0,0,0-.5-.82,1.38,1.38,0,0,0-.92-.31,1.52,1.52,0,0,0-1.21.54,2.64,2.64,0,0,0-.47,1.74,2.8,2.8,0,0,0,.46,1.82,1.49,1.49,0,0,0,1.19.54,1.45,1.45,0,0,0,.94-.34A2.08,2.08,0,0,0,148.59,19.32Z"/><path class="i" d="M151.57,21.8V20.51h1.29V21.8Z"/><rect class="i" x="69.17" y="26.01" width="84.13" height="0.92"/><path class="i" d="M72.32,31.72h.62v2.7a3,3,0,0,1-.16,1.11,1.3,1.3,0,0,1-.57.68,2.07,2.07,0,0,1-1.09.26A2.28,2.28,0,0,1,70,36.24a1.33,1.33,0,0,1-.59-.65,3.12,3.12,0,0,1-.18-1.17v-2.7h.62v2.69a2.78,2.78,0,0,0,.11.9.88.88,0,0,0,.39.44,1.28,1.28,0,0,0,.67.16,1.3,1.3,0,0,0,1-.31,1.79,1.79,0,0,0,.28-1.19Z"/><path class="i" d="M73.7,36.39V33h.52v.48a1.21,1.21,0,0,1,1.07-.56,1.52,1.52,0,0,1,.57.11.88.88,0,0,1,.38.29,1.33,1.33,0,0,1,.18.42,3.51,3.51,0,0,1,0,.56v2.08h-.57V34.33a1.62,1.62,0,0,0-.07-.52.55.55,0,0,0-.24-.28.72.72,0,0,0-.4-.1,1,1,0,0,0-.63.23,1.13,1.13,0,0,0-.27.88v1.85Z"/><path class="i" d="M77.1,32.38v-.66h.58v.66Zm0,4V33h.58v3.38Z"/><path class="i" d="M80.55,36.39V36a1,1,0,0,1-.94.5,1.34,1.34,0,0,1-.75-.22,1.51,1.51,0,0,1-.52-.62,2.07,2.07,0,0,1-.19-.92,2.47,2.47,0,0,1,.17-.92,1.33,1.33,0,0,1,.51-.63,1.3,1.3,0,0,1,.75-.22,1.09,1.09,0,0,1,.55.13,1,1,0,0,1,.38.34V31.72h.57v4.67ZM78.74,34.7a1.48,1.48,0,0,0,.27,1,.83.83,0,0,0,1.29,0,1.46,1.46,0,0,0,.26-.94,1.59,1.59,0,0,0-.27-1,.8.8,0,0,0-1.29,0A1.51,1.51,0,0,0,78.74,34.7Z"/><path class="i" d="M84,36a2.08,2.08,0,0,1-.61.38,1.69,1.69,0,0,1-.64.11,1.22,1.22,0,0,1-.85-.27.89.89,0,0,1-.3-.69,1,1,0,0,1,.11-.46,1.18,1.18,0,0,1,.3-.33,1.38,1.38,0,0,1,.41-.18,4.17,4.17,0,0,1,.51-.09,5.33,5.33,0,0,0,1-.2v-.15a.61.61,0,0,0-.16-.49.94.94,0,0,0-.65-.2,1,1,0,0,0-.6.15.83.83,0,0,0-.28.5L81.67,34a1.34,1.34,0,0,1,.25-.58,1.12,1.12,0,0,1,.51-.34,2.2,2.2,0,0,1,.76-.12,2,2,0,0,1,.71.1.92.92,0,0,1,.39.26.79.79,0,0,1,.18.39,3.08,3.08,0,0,1,0,.53V35a6.89,6.89,0,0,0,0,1,1.25,1.25,0,0,0,.14.41h-.6A1.61,1.61,0,0,1,84,36Zm0-1.28a4,4,0,0,1-.93.22,2,2,0,0,0-.5.11.48.48,0,0,0-.23.19.5.5,0,0,0,.09.65.78.78,0,0,0,.51.16,1.15,1.15,0,0,0,.59-.15.92.92,0,0,0,.38-.4,1.41,1.41,0,0,0,.09-.57Z"/><path class="i" d="M87.36,36.39V36a1,1,0,0,1-.94.5,1.34,1.34,0,0,1-.75-.22,1.51,1.51,0,0,1-.52-.62A2.07,2.07,0,0,1,85,34.7a2.47,2.47,0,0,1,.17-.92,1.33,1.33,0,0,1,.51-.63,1.3,1.3,0,0,1,.75-.22,1.05,1.05,0,0,1,.54.13,1.17,1.17,0,0,1,.39.34V31.72h.57v4.67ZM85.55,34.7a1.48,1.48,0,0,0,.27,1,.83.83,0,0,0,1.29,0,1.46,1.46,0,0,0,.26-.94,1.59,1.59,0,0,0-.27-1,.81.81,0,0,0-.66-.33.79.79,0,0,0-.63.32A1.51,1.51,0,0,0,85.55,34.7Z"/><path class="i" d="M89.52,36.39l1.79-4.67H92l1.91,4.67h-.7L92.64,35h-2l-.51,1.42Zm1.35-1.92h1.58L92,33.18c-.15-.39-.26-.72-.33-1a5.61,5.61,0,0,1-.25.89Z"/><path class="i" d="M96.29,36.39V36a1,1,0,0,1-1,.5,1.29,1.29,0,0,1-.74-.22,1.53,1.53,0,0,1-.53-.62,2.22,2.22,0,0,1-.18-.92,2.29,2.29,0,0,1,.17-.92,1.37,1.37,0,0,1,.5-.63,1.35,1.35,0,0,1,.76-.22,1.08,1.08,0,0,1,.54.13,1.17,1.17,0,0,1,.39.34V31.72h.57v4.67ZM94.48,34.7a1.48,1.48,0,0,0,.27,1,.81.81,0,0,0,.65.32.8.8,0,0,0,.63-.3,1.41,1.41,0,0,0,.27-.94,1.59,1.59,0,0,0-.27-1,.82.82,0,0,0-.66-.33.8.8,0,0,0-.64.32A1.52,1.52,0,0,0,94.48,34.7Z"/><path class="i" d="M97.49,36.39V33H98v.47a1.24,1.24,0,0,1,.42-.4,1.21,1.21,0,0,1,.6-.15,1.08,1.08,0,0,1,.62.16.86.86,0,0,1,.34.43,1.22,1.22,0,0,1,1-.59,1,1,0,0,1,.78.28,1.18,1.18,0,0,1,.27.86v2.32h-.57V34.26a1.49,1.49,0,0,0-.06-.5.47.47,0,0,0-.2-.24.65.65,0,0,0-.35-.09.84.84,0,0,0-.59.23,1.1,1.1,0,0,0-.23.76v2h-.58v-2.2a.92.92,0,0,0-.14-.57.51.51,0,0,0-.45-.19.84.84,0,0,0-.45.12.72.72,0,0,0-.3.38,2.12,2.12,0,0,0-.09.7v1.76Z"/><path class="i" d="M102.7,32.38v-.66h.58v.66Zm0,4V33h.58v3.38Z"/><path class="i" d="M103.93,36.39V33h.52v.48a1.23,1.23,0,0,1,1.08-.56,1.47,1.47,0,0,1,.56.11.82.82,0,0,1,.38.29,1,1,0,0,1,.18.42,3.51,3.51,0,0,1,0,.56v2.08h-.57V34.33a1.38,1.38,0,0,0-.07-.52.5.5,0,0,0-.24-.28.71.71,0,0,0-.39-.1,1,1,0,0,0-.64.23,1.17,1.17,0,0,0-.26.88v1.85Z"/><path class="i" d="M107.34,32.38v-.66h.57v.66Zm0,4V33h.57v3.38Z"/><path class="i" d="M108.35,35.38l.57-.09a.79.79,0,0,0,.26.52.94.94,0,0,0,.61.18.9.9,0,0,0,.59-.16.5.5,0,0,0,.19-.37.36.36,0,0,0-.17-.31,2.17,2.17,0,0,0-.59-.19,5.22,5.22,0,0,1-.87-.28.89.89,0,0,1-.37-.32.9.9,0,0,1-.12-.46.8.8,0,0,1,.1-.41.87.87,0,0,1,.28-.32,1,1,0,0,1,.37-.17,1.53,1.53,0,0,1,.49-.07,1.86,1.86,0,0,1,.7.12.82.82,0,0,1,.44.31,1.18,1.18,0,0,1,.2.52l-.56.08a.64.64,0,0,0-.22-.41.81.81,0,0,0-.52-.15,1,1,0,0,0-.56.13.4.4,0,0,0-.17.31.31.31,0,0,0,.07.2.53.53,0,0,0,.22.15l.5.15a7.22,7.22,0,0,1,.85.26.81.81,0,0,1,.52.79.94.94,0,0,1-.17.54,1.13,1.13,0,0,1-.48.4,1.81,1.81,0,0,1-.72.13,1.61,1.61,0,0,1-1-.27A1.24,1.24,0,0,1,108.35,35.38Z"/><path class="i" d="M112.86,35.88l.08.5a1.8,1.8,0,0,1-.44,0,1,1,0,0,1-.48-.1.55.55,0,0,1-.24-.26,1.9,1.9,0,0,1-.07-.67V33.45h-.42V33h.42v-.84l.57-.34V33h.58v.44h-.58v2a1,1,0,0,0,0,.31.23.23,0,0,0,.1.12.45.45,0,0,0,.19,0Z"/><path class="i" d="M113.23,36.39V33h.52v.51a1.31,1.31,0,0,1,.36-.47.63.63,0,0,1,.37-.12,1.08,1.08,0,0,1,.59.19l-.2.53a.76.76,0,0,0-.42-.13.5.5,0,0,0-.33.12.59.59,0,0,0-.22.31,2.36,2.36,0,0,0-.09.67v1.77Z"/><path class="i" d="M117.42,36a2.08,2.08,0,0,1-.61.38,1.67,1.67,0,0,1-.63.11,1.25,1.25,0,0,1-.86-.27.89.89,0,0,1-.3-.69,1,1,0,0,1,.11-.46,1.18,1.18,0,0,1,.3-.33,1.38,1.38,0,0,1,.41-.18,4.57,4.57,0,0,1,.51-.09,5.17,5.17,0,0,0,1-.2,1.14,1.14,0,0,0,0-.15.62.62,0,0,0-.17-.49.94.94,0,0,0-.65-.2,1,1,0,0,0-.6.15.88.88,0,0,0-.28.5l-.56-.08a1.34,1.34,0,0,1,.25-.58,1.12,1.12,0,0,1,.51-.34,2.2,2.2,0,0,1,.76-.12,2,2,0,0,1,.71.1,1,1,0,0,1,.4.26.87.87,0,0,1,.17.39,3.08,3.08,0,0,1,0,.53V35a6.89,6.89,0,0,0,0,1,1.25,1.25,0,0,0,.14.41h-.59A1.29,1.29,0,0,1,117.42,36Zm0-1.28a3.85,3.85,0,0,1-.93.22,2.12,2.12,0,0,0-.5.11.48.48,0,0,0-.23.19.5.5,0,0,0-.08.27.48.48,0,0,0,.18.38.73.73,0,0,0,.5.16,1.15,1.15,0,0,0,.59-.15.92.92,0,0,0,.38-.4,1.41,1.41,0,0,0,.09-.57Z"/><path class="i" d="M119.84,35.88l.08.5a1.72,1.72,0,0,1-.43,0,1,1,0,0,1-.49-.1.55.55,0,0,1-.24-.26,1.9,1.9,0,0,1-.07-.67V33.45h-.42V33h.42v-.84l.57-.34V33h.58v.44h-.58v2a1,1,0,0,0,0,.31.23.23,0,0,0,.1.12.5.5,0,0,0,.2,0Z"/><path class="i" d="M120.22,32.38v-.66h.57v.66Zm0,4V33h.57v3.38Z"/><path class="i" d="M122.4,36.39,121.12,33h.6l.73,2c.07.22.15.45.21.68a6.18,6.18,0,0,1,.22-.64l.75-2.06h.59l-1.28,3.38Z"/><path class="i" d="M126.64,36a2.08,2.08,0,0,1-.61.38,1.67,1.67,0,0,1-.63.11,1.25,1.25,0,0,1-.86-.27.89.89,0,0,1-.3-.69,1,1,0,0,1,.11-.46,1.18,1.18,0,0,1,.3-.33,1.38,1.38,0,0,1,.41-.18,4.17,4.17,0,0,1,.51-.09,5.17,5.17,0,0,0,1-.2,1.14,1.14,0,0,0,0-.15.62.62,0,0,0-.17-.49,1.19,1.19,0,0,0-1.24-.05.83.83,0,0,0-.29.5l-.56-.08a1.34,1.34,0,0,1,.25-.58,1.12,1.12,0,0,1,.51-.34,2.22,2.22,0,0,1,.77-.12,2,2,0,0,1,.7.1,1,1,0,0,1,.4.26.87.87,0,0,1,.17.39,3.08,3.08,0,0,1,0,.53V35a8.82,8.82,0,0,0,0,1,1.25,1.25,0,0,0,.14.41h-.59A1.29,1.29,0,0,1,126.64,36Zm0-1.28a3.85,3.85,0,0,1-.93.22,2.12,2.12,0,0,0-.5.11.54.54,0,0,0-.23.19.5.5,0,0,0-.08.27.48.48,0,0,0,.18.38.73.73,0,0,0,.5.16,1.15,1.15,0,0,0,.59-.15.92.92,0,0,0,.38-.4,1.41,1.41,0,0,0,.09-.57Z"/><path class="i" d="M129.31,36.39V31.72h3.38v.55h-2.76V33.7h2.58v.55h-2.58v1.59h2.87v.55Z"/><path class="i" d="M133.13,35.38l.57-.09a.79.79,0,0,0,.26.52.94.94,0,0,0,.61.18.89.89,0,0,0,.59-.16.47.47,0,0,0,.19-.37.36.36,0,0,0-.17-.31,2.19,2.19,0,0,0-.58-.19,5.42,5.42,0,0,1-.88-.28.89.89,0,0,1-.37-.32.9.9,0,0,1-.12-.46.8.8,0,0,1,.1-.41.87.87,0,0,1,.28-.32A1,1,0,0,1,134,33a1.57,1.57,0,0,1,.49-.07,1.86,1.86,0,0,1,.7.12.89.89,0,0,1,.45.31,1.18,1.18,0,0,1,.19.52l-.56.08a.6.6,0,0,0-.22-.41.79.79,0,0,0-.52-.15,1,1,0,0,0-.56.13.4.4,0,0,0-.17.31.31.31,0,0,0,.07.2.53.53,0,0,0,.22.15l.51.15a7.91,7.91,0,0,1,.85.26.85.85,0,0,1,.37.3.88.88,0,0,1,.14.49.94.94,0,0,1-.17.54,1.13,1.13,0,0,1-.48.4,1.8,1.8,0,0,1-.71.13,1.62,1.62,0,0,1-1-.27A1.29,1.29,0,0,1,133.13,35.38Z"/><path class="i" d="M136.41,37.68V33h.52v.44a1.19,1.19,0,0,1,.42-.39,1.08,1.08,0,0,1,.56-.13,1.31,1.31,0,0,1,1.26.85,2.17,2.17,0,0,1,.17.89,2.35,2.35,0,0,1-.18.94,1.42,1.42,0,0,1-.55.63,1.33,1.33,0,0,1-.74.22,1.11,1.11,0,0,1-.52-.12A1.22,1.22,0,0,1,137,36v1.64Zm.51-3a1.45,1.45,0,0,0,.27,1,.81.81,0,0,0,.64.31.84.84,0,0,0,.65-.32,1.9,1.9,0,0,0,0-2,.82.82,0,0,0-.64-.32.8.8,0,0,0-.64.34A1.53,1.53,0,0,0,136.92,34.72Z"/><path class="i" d="M142.15,35.3l.59.07a1.39,1.39,0,0,1-.52.81,1.54,1.54,0,0,1-1,.28,1.56,1.56,0,0,1-1.18-.45,1.79,1.79,0,0,1-.43-1.28,1.9,1.9,0,0,1,.43-1.33,1.52,1.52,0,0,1,1.14-.47,1.42,1.42,0,0,1,1.11.46,1.82,1.82,0,0,1,.43,1.3v.15h-2.52a1.31,1.31,0,0,0,.31.86,1,1,0,0,0,.71.29.89.89,0,0,0,.54-.16A1.12,1.12,0,0,0,142.15,35.3Zm-1.88-.93h1.89a1.21,1.21,0,0,0-.22-.64.88.88,0,0,0-.71-.33.9.9,0,0,0-.66.27A1,1,0,0,0,140.27,34.37Z"/><path class="i" d="M145.47,35.15l.57.07a1.4,1.4,0,0,1-.48.91,1.36,1.36,0,0,1-.93.33,1.48,1.48,0,0,1-1.12-.45,1.85,1.85,0,0,1-.42-1.3,2.38,2.38,0,0,1,.18-1,1.24,1.24,0,0,1,.56-.61,1.57,1.57,0,0,1,.8-.21,1.36,1.36,0,0,1,.9.28A1.21,1.21,0,0,1,146,34l-.55.09a1,1,0,0,0-.29-.52.72.72,0,0,0-.48-.17.92.92,0,0,0-.71.31,1.49,1.49,0,0,0-.27,1,1.53,1.53,0,0,0,.26,1,.91.91,0,0,0,1.25.11A1,1,0,0,0,145.47,35.15Z"/><path class="i" d="M146.39,32.38v-.66H147v.66Zm0,4V33H147v3.38Z"/><path class="i" d="M149.83,36a2.08,2.08,0,0,1-.61.38,1.67,1.67,0,0,1-.63.11,1.23,1.23,0,0,1-.86-.27.89.89,0,0,1-.3-.69,1,1,0,0,1,.11-.46,1.18,1.18,0,0,1,.3-.33,1.38,1.38,0,0,1,.41-.18,4.17,4.17,0,0,1,.51-.09,5.33,5.33,0,0,0,1-.2,1.14,1.14,0,0,0,0-.15.62.62,0,0,0-.17-.49.94.94,0,0,0-.65-.2,1,1,0,0,0-.6.15.88.88,0,0,0-.28.5l-.56-.08a1.34,1.34,0,0,1,.25-.58,1.12,1.12,0,0,1,.51-.34,2.2,2.2,0,0,1,.76-.12,2,2,0,0,1,.71.1,1,1,0,0,1,.4.26.87.87,0,0,1,.17.39,3.08,3.08,0,0,1,0,.53V35a6.89,6.89,0,0,0,0,1,1.25,1.25,0,0,0,.14.41H150A1.29,1.29,0,0,1,149.83,36Zm-.05-1.28a4,4,0,0,1-.93.22,2,2,0,0,0-.5.11.48.48,0,0,0-.23.19.5.5,0,0,0,.09.65.78.78,0,0,0,.51.16,1.15,1.15,0,0,0,.59-.15.92.92,0,0,0,.38-.4,1.41,1.41,0,0,0,.09-.57Z"/><path class="i" d="M151,36.39V31.72h.57v4.67Z"/><path class="i" d="M75.33,46.15l1.27.32a4.34,4.34,0,0,1-1.44,2.39,4,4,0,0,1-2.55.83,4.61,4.61,0,0,1-2.53-.64,3.93,3.93,0,0,1-1.48-1.83,6.58,6.58,0,0,1-.51-2.59A5.71,5.71,0,0,1,68.66,42a4,4,0,0,1,1.64-1.7,4.74,4.74,0,0,1,2.33-.58,3.92,3.92,0,0,1,2.43.73,3.82,3.82,0,0,1,1.38,2.07l-1.26.3a3,3,0,0,0-1-1.53,2.58,2.58,0,0,0-1.6-.48,3.17,3.17,0,0,0-1.86.53,2.86,2.86,0,0,0-1,1.43,6.2,6.2,0,0,0,.06,4,2.68,2.68,0,0,0,1.11,1.37,3.17,3.17,0,0,0,1.64.46A2.74,2.74,0,0,0,74.32,48,3.15,3.15,0,0,0,75.33,46.15Z"/><path class="i" d="M82.46,49.52v-1a2.56,2.56,0,0,1-2.22,1.18,2.79,2.79,0,0,1-1.15-.24,1.77,1.77,0,0,1-.79-.59,2.13,2.13,0,0,1-.37-.88,5.86,5.86,0,0,1-.07-1.1V42.55H79v3.87a7.77,7.77,0,0,0,.07,1.24,1.3,1.3,0,0,0,.48.74,1.49,1.49,0,0,0,.89.26,2,2,0,0,0,1-.27,1.52,1.52,0,0,0,.66-.74,3.77,3.77,0,0,0,.19-1.37V42.55h1.18v7Z"/><path class="i" d="M90.05,47.28l1.22.15a3,3,0,0,1-1.07,1.66,3.25,3.25,0,0,1-2,.59,3.19,3.19,0,0,1-2.43-.94,3.72,3.72,0,0,1-.89-2.65,3.87,3.87,0,0,1,.9-2.73,3.08,3.08,0,0,1,2.36-1,3,3,0,0,1,2.28,1A3.8,3.8,0,0,1,91.31,46c0,.07,0,.18,0,.32H86.1a2.68,2.68,0,0,0,.65,1.76,2,2,0,0,0,1.46.61,1.87,1.87,0,0,0,1.11-.34A2.38,2.38,0,0,0,90.05,47.28Zm-3.88-1.92h3.89A2.34,2.34,0,0,0,89.61,44a1.81,1.81,0,0,0-1.46-.68,1.86,1.86,0,0,0-1.37.55A2.15,2.15,0,0,0,86.17,45.36Z"/><path class="i" d="M92.67,49.52v-7h1.07V43.6a2.79,2.79,0,0,1,.75-1,1.29,1.29,0,0,1,.76-.24,2.32,2.32,0,0,1,1.21.38l-.4,1.1a1.72,1.72,0,0,0-.87-.26,1.17,1.17,0,0,0-.7.23,1.32,1.32,0,0,0-.44.65,4.65,4.65,0,0,0-.19,1.38v3.65Z"/><path class="i" d="M97.26,52.19V42.55h1.08v.9a2.7,2.7,0,0,1,.86-.8,2.42,2.42,0,0,1,1.16-.26,2.74,2.74,0,0,1,1.58.46,2.81,2.81,0,0,1,1,1.3,4.74,4.74,0,0,1,.35,1.83,4.59,4.59,0,0,1-.39,1.93,2.89,2.89,0,0,1-1.12,1.31,2.8,2.8,0,0,1-1.54.46,2.21,2.21,0,0,1-1.06-.25,2.53,2.53,0,0,1-.77-.63v3.39Zm1.07-6.12a3,3,0,0,0,.55,2,1.67,1.67,0,0,0,1.32.65,1.71,1.71,0,0,0,1.34-.67,3.12,3.12,0,0,0,.57-2.07,3.11,3.11,0,0,0-.55-2,1.67,1.67,0,0,0-1.31-.67,1.71,1.71,0,0,0-1.34.71A3.15,3.15,0,0,0,98.33,46.07Z"/><path class="i" d="M104.27,46a3.6,3.6,0,0,1,1.08-2.87,3.27,3.27,0,0,1,2.19-.77,3.14,3.14,0,0,1,2.36.94,3.63,3.63,0,0,1,.91,2.61,4.71,4.71,0,0,1-.4,2.11,2.85,2.85,0,0,1-1.18,1.2,3.4,3.4,0,0,1-1.69.43,3.11,3.11,0,0,1-2.36-.94A3.78,3.78,0,0,1,104.27,46Zm1.22,0a3,3,0,0,0,.58,2A1.95,1.95,0,0,0,109,48a3.06,3.06,0,0,0,.58-2,2.9,2.9,0,0,0-.58-2,2,2,0,0,0-2.94,0A3,3,0,0,0,105.49,46Z"/><path class="i" d="M115.7,44.83A5.2,5.2,0,0,1,117,41.08a4.37,4.37,0,0,1,3.33-1.36,4.54,4.54,0,0,1,2.4.64,4.13,4.13,0,0,1,1.63,1.78,5.69,5.69,0,0,1,.56,2.58,5.59,5.59,0,0,1-.59,2.62,4,4,0,0,1-1.67,1.75,4.74,4.74,0,0,1-2.34.6,4.52,4.52,0,0,1-2.43-.66,4.31,4.31,0,0,1-1.62-1.79A5.42,5.42,0,0,1,115.7,44.83Zm1.31,0a3.81,3.81,0,0,0,.94,2.74,3.24,3.24,0,0,0,4.71,0,4.08,4.08,0,0,0,.93-2.87,4.87,4.87,0,0,0-.4-2.05A3,3,0,0,0,122,41.3a3.16,3.16,0,0,0-1.72-.48,3.22,3.22,0,0,0-2.32.93A4.1,4.1,0,0,0,117,44.85Z"/><path class="i" d="M126.81,49.52V43.47h-1v-.92h1V41.8a3.06,3.06,0,0,1,.13-1,1.47,1.47,0,0,1,.6-.75,2.18,2.18,0,0,1,1.2-.28,5.77,5.77,0,0,1,1.11.12l-.18,1a3.53,3.53,0,0,0-.7-.07,1.06,1.06,0,0,0-.76.23,1.25,1.25,0,0,0-.22.86v.65h1.36v.92H128v6.05Z"/><path class="i" d="M130.53,41.25V39.89h1.18v1.36Zm0,8.27v-7h1.18v7Z"/><path class="i" d="M138,47l1.16.15a3,3,0,0,1-1,1.88,2.83,2.83,0,0,1-1.92.68,3,3,0,0,1-2.31-.94,3.79,3.79,0,0,1-.87-2.68,4.89,4.89,0,0,1,.38-2,2.62,2.62,0,0,1,1.14-1.27,3.38,3.38,0,0,1,1.66-.42,2.91,2.91,0,0,1,1.86.57,2.69,2.69,0,0,1,.93,1.64l-1.15.17a2,2,0,0,0-.58-1.06,1.55,1.55,0,0,0-1-.35,1.81,1.81,0,0,0-1.45.64,3,3,0,0,0-.56,2,3.13,3.13,0,0,0,.54,2,1.73,1.73,0,0,0,1.4.64,1.7,1.7,0,0,0,1.17-.43A2.14,2.14,0,0,0,138,47Z"/><path class="i" d="M140.22,41.25V39.89h1.18v1.36Zm0,8.27v-7h1.18v7Z"/><path class="i" d="M147.66,48.66a4.37,4.37,0,0,1-1.27.79,3.7,3.7,0,0,1-1.3.23,2.56,2.56,0,0,1-1.77-.56,1.88,1.88,0,0,1-.62-1.44,2,2,0,0,1,.85-1.61,2.88,2.88,0,0,1,.85-.39,9.08,9.08,0,0,1,1-.18,10.39,10.39,0,0,0,2.11-.41v-.3a1.3,1.3,0,0,0-.33-1,2,2,0,0,0-1.35-.4,2.07,2.07,0,0,0-1.23.29,1.82,1.82,0,0,0-.59,1l-1.15-.15a2.77,2.77,0,0,1,.52-1.2,2.3,2.3,0,0,1,1-.71,4.77,4.77,0,0,1,1.58-.24,4.16,4.16,0,0,1,1.45.21,2,2,0,0,1,.83.53,1.9,1.9,0,0,1,.36.8,6.59,6.59,0,0,1,.06,1.09V46.6a16.32,16.32,0,0,0,.08,2.08,2.48,2.48,0,0,0,.3.84h-1.24A2.41,2.41,0,0,1,147.66,48.66Zm-.1-2.64a8.91,8.91,0,0,1-1.93.45,4.9,4.9,0,0,0-1,.23,1,1,0,0,0-.47.39,1,1,0,0,0-.17.56,1,1,0,0,0,.36.79,1.55,1.55,0,0,0,1.05.31,2.45,2.45,0,0,0,1.22-.3,1.85,1.85,0,0,0,.78-.81,3,3,0,0,0,.19-1.19Z"/><path class="i" d="M150.45,49.52V39.89h1.18v9.63Z"/><path class="i" d="M73.52,61.72v-.88a2.19,2.19,0,0,1-2,1A2.73,2.73,0,0,1,70,61.42,3.1,3.1,0,0,1,69,60.14a4.39,4.39,0,0,1-.39-1.9,5,5,0,0,1,.35-1.89A2.7,2.7,0,0,1,70,55a2.78,2.78,0,0,1,1.55-.45,2.35,2.35,0,0,1,1.93,1V52.09h1.17v9.63Zm-3.74-3.48a3.11,3.11,0,0,0,.56,2,1.73,1.73,0,0,0,1.34.66A1.68,1.68,0,0,0,73,60.27a2.91,2.91,0,0,0,.54-1.93,3.32,3.32,0,0,0-.55-2.1,1.71,1.71,0,0,0-1.37-.67,1.62,1.62,0,0,0-1.31.64A3.2,3.2,0,0,0,69.78,58.24Z"/><path class="i" d="M81.57,59.48l1.22.15a3,3,0,0,1-1.07,1.66,3.23,3.23,0,0,1-2,.59,3.19,3.19,0,0,1-2.42-.94,3.68,3.68,0,0,1-.9-2.65,3.83,3.83,0,0,1,.91-2.73,3.06,3.06,0,0,1,2.35-1,3,3,0,0,1,2.29.95,3.8,3.8,0,0,1,.88,2.68v.32H77.62a2.73,2.73,0,0,0,.65,1.76,2,2,0,0,0,1.46.61,1.83,1.83,0,0,0,1.11-.34A2.25,2.25,0,0,0,81.57,59.48Zm-3.88-1.91h3.89a2.36,2.36,0,0,0-.44-1.32,1.82,1.82,0,0,0-1.47-.69,1.86,1.86,0,0,0-1.37.55A2.15,2.15,0,0,0,77.69,57.57Z"/><path class="i" d="M89,61.72V52.09h3.61a4.34,4.34,0,0,1,1.77.3,2.25,2.25,0,0,1,1,.9,2.34,2.34,0,0,1,.37,1.27,2.19,2.19,0,0,1-.33,1.16,2.37,2.37,0,0,1-1,.88,2.5,2.5,0,0,1,1.34.87,2.36,2.36,0,0,1,.47,1.46A2.83,2.83,0,0,1,96,60.19a2.54,2.54,0,0,1-.71.9,3,3,0,0,1-1.06.47,6.26,6.26,0,0,1-1.55.16Zm1.27-5.58h2.09A4.82,4.82,0,0,0,93.53,56a1.28,1.28,0,0,0,1-1.32,1.61,1.61,0,0,0-.23-.85,1.16,1.16,0,0,0-.66-.5,5.93,5.93,0,0,0-1.46-.13H90.23Zm0,4.45h2.4a5.56,5.56,0,0,0,.87-.05,2,2,0,0,0,.73-.26,1.36,1.36,0,0,0,.49-.54,1.62,1.62,0,0,0,.19-.81,1.53,1.53,0,0,0-.28-.93,1.36,1.36,0,0,0-.76-.56,4.7,4.7,0,0,0-1.41-.16H90.23Z"/><path class="i" d="M97.8,58.24a3.64,3.64,0,0,1,1.07-2.88,3.3,3.3,0,0,1,2.2-.77,3.12,3.12,0,0,1,2.35.94,3.59,3.59,0,0,1,.91,2.61,4.66,4.66,0,0,1-.4,2.12,2.82,2.82,0,0,1-1.18,1.19,3.34,3.34,0,0,1-1.68.43,3.12,3.12,0,0,1-2.37-.94A3.76,3.76,0,0,1,97.8,58.24Zm1.21,0a3,3,0,0,0,.59,2,1.86,1.86,0,0,0,1.47.67,1.88,1.88,0,0,0,1.46-.67,3,3,0,0,0,.59-2,2.87,2.87,0,0,0-.59-2,1.85,1.85,0,0,0-1.46-.67,1.88,1.88,0,0,0-1.47.66A3,3,0,0,0,99,58.24Z"/><path class="i" d="M106.08,61.72v-7h1.06v1a2.43,2.43,0,0,1,2.11-1.14,2.32,2.32,0,0,1,1.27.32,1.69,1.69,0,0,1,.7.9,2.52,2.52,0,0,1,2.16-1.22,2.12,2.12,0,0,1,1.59.57,2.44,2.44,0,0,1,.56,1.77v4.79h-1.17V57.33a3.12,3.12,0,0,0-.12-1,1,1,0,0,0-.41-.51,1.39,1.39,0,0,0-.71-.19,1.69,1.69,0,0,0-1.23.49,2.19,2.19,0,0,0-.48,1.57v4h-1.18V57.19a2,2,0,0,0-.29-1.18,1.12,1.12,0,0,0-1-.4,1.68,1.68,0,0,0-.92.27,1.5,1.5,0,0,0-.62.77,4.45,4.45,0,0,0-.19,1.45v3.62Z"/><path class="i" d="M118.7,61.72h-1.1V52.09h1.19v3.44a2.31,2.31,0,0,1,1.91-.94,3,3,0,0,1,1.21.26,2.38,2.38,0,0,1,1,.73,3.44,3.44,0,0,1,.58,1.13,4.69,4.69,0,0,1,.21,1.42,3.93,3.93,0,0,1-.89,2.77,2.78,2.78,0,0,1-2.12,1,2.21,2.21,0,0,1-1.94-1Zm0-3.54A3.64,3.64,0,0,0,119,60a1.71,1.71,0,0,0,1.51.91,1.74,1.74,0,0,0,1.34-.67,3.11,3.11,0,0,0,.56-2,3.14,3.14,0,0,0-.54-2,1.66,1.66,0,0,0-1.31-.65,1.7,1.7,0,0,0-1.34.68A3,3,0,0,0,118.69,58.18Z"/><path class="i" d="M130.23,59.48l1.22.15a3,3,0,0,1-1.07,1.66,3.25,3.25,0,0,1-2,.59,3.16,3.16,0,0,1-2.42-.94,3.68,3.68,0,0,1-.9-2.65,3.83,3.83,0,0,1,.91-2.73,3,3,0,0,1,2.35-1,3,3,0,0,1,2.28.95,3.8,3.8,0,0,1,.89,2.68c0,.07,0,.18,0,.32h-5.2a2.73,2.73,0,0,0,.65,1.76,2,2,0,0,0,1.46.61,1.87,1.87,0,0,0,1.11-.34A2.25,2.25,0,0,0,130.23,59.48Zm-3.88-1.91h3.89a2.36,2.36,0,0,0-.44-1.32,1.82,1.82,0,0,0-1.47-.69,1.86,1.86,0,0,0-1.37.55A2.15,2.15,0,0,0,126.35,57.57Z"/><path class="i" d="M133.26,61.72v-7h1.06v1a2.79,2.79,0,0,1,.75-1,1.32,1.32,0,0,1,.76-.24,2.35,2.35,0,0,1,1.22.38l-.41,1.1a1.72,1.72,0,0,0-.87-.26,1.09,1.09,0,0,0-.69.24,1.24,1.24,0,0,0-.44.64,4.65,4.65,0,0,0-.2,1.38v3.65Z"/><path class="i" d="M137.67,58.24a3.61,3.61,0,0,1,1.08-2.88,3.28,3.28,0,0,1,2.2-.77,3.13,3.13,0,0,1,2.35.94,3.59,3.59,0,0,1,.91,2.61,4.66,4.66,0,0,1-.4,2.12,2.88,2.88,0,0,1-1.18,1.19,3.36,3.36,0,0,1-1.68.43,3.12,3.12,0,0,1-2.37-.94A3.77,3.77,0,0,1,137.67,58.24Zm1.22,0a3,3,0,0,0,.58,2,1.86,1.86,0,0,0,1.48.67,1.88,1.88,0,0,0,1.46-.67,3,3,0,0,0,.58-2,2.87,2.87,0,0,0-.58-2,1.87,1.87,0,0,0-1.46-.67,1.89,1.89,0,0,0-1.48.66A3,3,0,0,0,138.89,58.24Z"/><path class="i" d="M145.5,59.64l1.17-.18a1.61,1.61,0,0,0,.55,1.07,1.9,1.9,0,0,0,1.25.38,1.84,1.84,0,0,0,1.21-.33,1,1,0,0,0,.4-.78.72.72,0,0,0-.35-.63,4.87,4.87,0,0,0-1.21-.4,10.75,10.75,0,0,1-1.8-.57,1.71,1.71,0,0,1-.76-.66,1.73,1.73,0,0,1-.26-.94,1.79,1.79,0,0,1,.21-.86,1.85,1.85,0,0,1,.58-.66,2.39,2.39,0,0,1,.75-.35,3.75,3.75,0,0,1,1-.14,4,4,0,0,1,1.45.24,1.92,1.92,0,0,1,.91.64,2.42,2.42,0,0,1,.41,1.08l-1.16.15a1.29,1.29,0,0,0-.45-.84,1.68,1.68,0,0,0-1.07-.3,1.92,1.92,0,0,0-1.16.27.79.79,0,0,0-.35.63.71.71,0,0,0,.14.42,1.09,1.09,0,0,0,.46.31c.11,0,.46.15,1,.3a16,16,0,0,1,1.75.55,1.79,1.79,0,0,1,.78.62,1.72,1.72,0,0,1,.28,1,2,2,0,0,1-.34,1.12,2.24,2.24,0,0,1-1,.8,3.45,3.45,0,0,1-1.47.29,3.3,3.3,0,0,1-2.07-.56A2.62,2.62,0,0,1,145.5,59.64Z"/></g></g></svg>