<svg xmlns="http://www.w3.org/2000/svg" xmlns:xlink="http://www.w3.org/1999/xlink" viewBox="0 0 110.46 128.37"><defs><style>.a{fill:none;}.b{fill:#7e8083;}.c{opacity:0.8;}.d{clip-path:url(#a);}.e{fill:#e0e1e3;}.f{fill:#5d5d60;}.f,.g{fill-rule:evenodd;}</style><clipPath id="a"><rect class="a" x="12.49" width="82.99" height="83.5"/></clipPath></defs><path class="b" d="M8.56,97.75a3,3,0,0,1-1,.56,4.32,4.32,0,0,1-1.33.18H5.17l-.63,2.73h-1L5.24,94H7.15a4.29,4.29,0,0,1,1.1.11A1.88,1.88,0,0,1,9,94.4a1.49,1.49,0,0,1,.44.53,1.78,1.78,0,0,1,.15.76,2.57,2.57,0,0,1-.26,1.13A2.63,2.63,0,0,1,8.56,97.75Zm0-1.89a1.14,1.14,0,0,0-.09-.46A.73.73,0,0,0,8.17,95a1.39,1.39,0,0,0-.49-.23,3,3,0,0,0-.74-.07H6l-.69,3h.87a3.76,3.76,0,0,0,1-.11,1.84,1.84,0,0,0,.67-.34,1.93,1.93,0,0,0,.49-.63A1.77,1.77,0,0,0,8.52,95.86Z"/><path class="b" d="M13.92,96.73h-.05a2.83,2.83,0,0,0-.36-.07,2.49,2.49,0,0,0-.41,0,2.3,2.3,0,0,0-.91.2,5.67,5.67,0,0,0-.86.5l-.89,3.88H9.52l1.24-5.46h.93l-.19.81a4.89,4.89,0,0,1,1.11-.63,2.33,2.33,0,0,1,.86-.18h.35l.31,0Z"/><path class="b" d="M19.15,97.69a4.43,4.43,0,0,1-.23,1.41,3.65,3.65,0,0,1-.63,1.17,3.33,3.33,0,0,1-1,.81,2.79,2.79,0,0,1-1.29.29,2,2,0,0,1-1.52-.56A2.1,2.1,0,0,1,14,99.28a4.26,4.26,0,0,1,.22-1.39,3.79,3.79,0,0,1,.64-1.19,3.06,3.06,0,0,1,1-.79,2.81,2.81,0,0,1,1.29-.3,1.9,1.9,0,0,1,2.06,2.08Zm-1.5,2.06a2.84,2.84,0,0,0,.4-.9,3.88,3.88,0,0,0,.14-1.09,1.49,1.49,0,0,0-.32-1,1.19,1.19,0,0,0-.93-.35,1.63,1.63,0,0,0-.85.22,2.16,2.16,0,0,0-.65.63,3,3,0,0,0-.4.9,4.18,4.18,0,0,0-.14,1.07,1.54,1.54,0,0,0,.32,1,1.2,1.2,0,0,0,.93.36,1.63,1.63,0,0,0,.85-.22A2,2,0,0,0,17.65,99.75Z"/><path class="b" d="M20.84,103.23h-1l1.59-2.33-1-5.14h.95l.76,4.06,2.61-4.06h1Z"/><path class="b" d="M28.34,101.34a2.67,2.67,0,0,1-1.77-.53,1.9,1.9,0,0,1-.65-1.56,3.77,3.77,0,0,1,.95-2.57,3,3,0,0,1,2.34-1.07,2,2,0,0,1,1.42.46,1.69,1.69,0,0,1,.49,1.3,3.38,3.38,0,0,1,0,.46c0,.21-.07.46-.13.74h-4a2.7,2.7,0,0,0,0,.28,2.18,2.18,0,0,0,0,.25,1.43,1.43,0,0,0,.41,1.08,1.67,1.67,0,0,0,1.2.4,3.19,3.19,0,0,0,1.1-.21,4.29,4.29,0,0,0,1-.48h.05l-.2,1L30,101a3.91,3.91,0,0,1-.5.15,5.06,5.06,0,0,1-.53.11A3.27,3.27,0,0,1,28.34,101.34Zm1.84-3.44q0-.15,0-.24a1.55,1.55,0,0,0,0-.22,1.1,1.1,0,0,0-.29-.81,1.2,1.2,0,0,0-.91-.3,2,2,0,0,0-1.23.43,2.15,2.15,0,0,0-.73,1.14Z"/><path class="b" d="M34.08,101.34a3.14,3.14,0,0,1-.91-.12,1.92,1.92,0,0,1-.7-.39,1.63,1.63,0,0,1-.44-.64,2.29,2.29,0,0,1-.16-.9,4.17,4.17,0,0,1,.24-1.43,3.78,3.78,0,0,1,.68-1.17,3,3,0,0,1,1.05-.77,3.17,3.17,0,0,1,1.35-.29,3,3,0,0,1,.9.14,3.36,3.36,0,0,1,.74.31l-.2,1h-.05a3.11,3.11,0,0,0-.25-.2,1.82,1.82,0,0,0-.34-.22,2.64,2.64,0,0,0-.45-.18A1.88,1.88,0,0,0,35,96.4a1.85,1.85,0,0,0-1.55.8,3.13,3.13,0,0,0-.6,1.94,1.46,1.46,0,0,0,.36,1.06,1.3,1.3,0,0,0,1,.37,2.21,2.21,0,0,0,.62-.09,2.59,2.59,0,0,0,.52-.19,4.73,4.73,0,0,0,.45-.23l.29-.19h.06l-.2,1a6,6,0,0,1-.9.33A3.43,3.43,0,0,1,34.08,101.34Z"/><path class="b" d="M41,95.76l-.17.74H39L38.38,99a2.43,2.43,0,0,0-.09.44,2.13,2.13,0,0,0,0,.39.69.69,0,0,0,.18.53.94.94,0,0,0,.67.18,2.33,2.33,0,0,0,.47-.07l.38-.11h0l-.18.79-.58.11a3.84,3.84,0,0,1-.55,0,1.65,1.65,0,0,1-1-.29,1.13,1.13,0,0,1-.37-.94c0-.1,0-.2,0-.31s0-.22.06-.35L38,96.5h-.62l.17-.74h.62l.37-1.57h.92l-.37,1.57Z"/><path class="b" d="M46.23,97.69A4.43,4.43,0,0,1,46,99.1a3.67,3.67,0,0,1-.64,1.17,3.29,3.29,0,0,1-1,.81,2.8,2.8,0,0,1-1.3.29,2,2,0,0,1-1.51-.56A2.07,2.07,0,0,1,41,99.28a4.26,4.26,0,0,1,.22-1.39,4,4,0,0,1,.64-1.19,3.21,3.21,0,0,1,1-.79,2.77,2.77,0,0,1,1.28-.3,1.9,1.9,0,0,1,2.06,2.08Zm-1.49,2.06a3.08,3.08,0,0,0,.4-.9,4.28,4.28,0,0,0,.14-1.09,1.45,1.45,0,0,0-.33-1,1.17,1.17,0,0,0-.92-.35,1.61,1.61,0,0,0-.85.22,2,2,0,0,0-.65.63,3,3,0,0,0-.41.9A4.18,4.18,0,0,0,42,99.2a1.49,1.49,0,0,0,.33,1,1.2,1.2,0,0,0,.93.36,1.66,1.66,0,0,0,.85-.22A2,2,0,0,0,44.74,99.75Z"/><path class="b" d="M55.53,97.75a3,3,0,0,1-1,.56,4.39,4.39,0,0,1-1.34.18h-1l-.64,2.73h-1L52.21,94h1.91a4.29,4.29,0,0,1,1.1.11,2,2,0,0,1,.71.34,1.49,1.49,0,0,1,.44.53,1.78,1.78,0,0,1,.15.76,2.57,2.57,0,0,1-.26,1.13A2.74,2.74,0,0,1,55.53,97.75Zm-.05-1.89a1.14,1.14,0,0,0-.08-.46.73.73,0,0,0-.26-.36,1.48,1.48,0,0,0-.49-.23,3,3,0,0,0-.74-.07H53l-.68,3h.86a3.84,3.84,0,0,0,1-.11,1.77,1.77,0,0,0,1.16-1A1.77,1.77,0,0,0,55.48,95.86Z"/><path class="b" d="M59.07,101.34a2.68,2.68,0,0,1-1.78-.53,1.89,1.89,0,0,1-.64-1.56,3.76,3.76,0,0,1,.94-2.57,3,3,0,0,1,2.34-1.07,2,2,0,0,1,1.42.46,1.69,1.69,0,0,1,.5,1.3,3.85,3.85,0,0,1-.05.46,6.86,6.86,0,0,1-.13.74h-4a2.7,2.7,0,0,0,0,.28,2.18,2.18,0,0,0,0,.25,1.4,1.4,0,0,0,.42,1.08,1.65,1.65,0,0,0,1.19.4,3.2,3.2,0,0,0,1.11-.21,4.43,4.43,0,0,0,1-.48h0l-.2,1-.44.16a4.23,4.23,0,0,1-.49.15,4.71,4.71,0,0,1-.54.11A3.22,3.22,0,0,1,59.07,101.34ZM60.9,97.9a1.29,1.29,0,0,0,0-.24,1.55,1.55,0,0,0,0-.22,1.09,1.09,0,0,0-.28-.81,1.23,1.23,0,0,0-.92-.3,2,2,0,0,0-1.23.43,2.15,2.15,0,0,0-.73,1.14Z"/><path class="b" d="M68.62,93.62l-1.76,7.6H66l.13-.58a5.19,5.19,0,0,1-1,.58,2.21,2.21,0,0,1-.82.15,1.59,1.59,0,0,1-1.22-.49,2,2,0,0,1-.46-1.42A4.57,4.57,0,0,1,62.83,98a4,4,0,0,1,.66-1.23,3.07,3.07,0,0,1,1-.82,2.44,2.44,0,0,1,1.2-.31,3.32,3.32,0,0,1,.8.09,2.63,2.63,0,0,1,.69.28l.54-2.36ZM67,96.74a3.67,3.67,0,0,0-.64-.25,2.86,2.86,0,0,0-.67-.08,1.66,1.66,0,0,0-.91.25,2.24,2.24,0,0,0-.68.66,3.3,3.3,0,0,0-.4.93,4.33,4.33,0,0,0-.14,1,1.41,1.41,0,0,0,.26.91,1,1,0,0,0,.83.32,1.86,1.86,0,0,0,.84-.21,5.06,5.06,0,0,0,.79-.45Z"/><path class="b" d="M72.13,100.63l-.35.23a3.48,3.48,0,0,1-.47.24,2.73,2.73,0,0,1-.55.19,3,3,0,0,1-.71.08A1.51,1.51,0,0,1,69,101a1.28,1.28,0,0,1-.4-1,1.94,1.94,0,0,1,.29-1.1,2.16,2.16,0,0,1,.84-.73,4.64,4.64,0,0,1,1.33-.4,14.65,14.65,0,0,1,1.78-.15c0-.09,0-.17,0-.24a1.36,1.36,0,0,0,0-.21.74.74,0,0,0-.09-.38.68.68,0,0,0-.27-.23,1.17,1.17,0,0,0-.4-.12,3.73,3.73,0,0,0-.5,0,4,4,0,0,0-1,.13,6.89,6.89,0,0,0-.86.27h0l.18-.92c.19,0,.46-.11.82-.17a6.15,6.15,0,0,1,1-.09,2.94,2.94,0,0,1,1.52.32,1.08,1.08,0,0,1,.51,1c0,.09,0,.18,0,.28s0,.2-.06.28l-.85,3.71H72Zm.54-2.29c-.5,0-1,.06-1.34.11a3.9,3.9,0,0,0-1,.25,1.28,1.28,0,0,0-.6.44,1.08,1.08,0,0,0-.21.68.63.63,0,0,0,.24.54,1.17,1.17,0,0,0,.74.19,2.34,2.34,0,0,0,.91-.2,4.84,4.84,0,0,0,.86-.48Z"/><path class="b" d="M80.34,95.76l-1.11,4.85a3.69,3.69,0,0,1-1,2,3,3,0,0,1-2,.64,6.07,6.07,0,0,1-.85-.06,5,5,0,0,1-.78-.17l.21-.92h0a4.79,4.79,0,0,0,.73.24,4,4,0,0,0,.88.11,2.3,2.3,0,0,0,.79-.12,1.63,1.63,0,0,0,.53-.32,1.82,1.82,0,0,0,.34-.48,3.12,3.12,0,0,0,.2-.61l.11-.48a5.19,5.19,0,0,1-.87.5,2.41,2.41,0,0,1-1,.16,1.63,1.63,0,0,1-1.25-.48,2,2,0,0,1-.45-1.37,4.09,4.09,0,0,1,.24-1.38,4,4,0,0,1,.64-1.18,3.2,3.2,0,0,1,1-.81,2.56,2.56,0,0,1,1.22-.3,3,3,0,0,1,.83.11,2.41,2.41,0,0,1,.65.28l.11-.24Zm-1.13,1a4,4,0,0,0-.65-.25,2.52,2.52,0,0,0-.67-.09,1.73,1.73,0,0,0-.87.22,2,2,0,0,0-.68.6,2.92,2.92,0,0,0-.41.87,3.6,3.6,0,0,0-.15,1A1.31,1.31,0,0,0,76,100a1.06,1.06,0,0,0,.85.32,2.23,2.23,0,0,0,.82-.17,5.85,5.85,0,0,0,.82-.43Z"/><path class="b" d="M86.25,97.69A4.43,4.43,0,0,1,86,99.1a3.65,3.65,0,0,1-.63,1.17,3.33,3.33,0,0,1-1,.81,2.79,2.79,0,0,1-1.29.29,2,2,0,0,1-1.52-.56,2.11,2.11,0,0,1-.55-1.53,4.27,4.27,0,0,1,.23-1.39,3.6,3.6,0,0,1,.64-1.19,3.06,3.06,0,0,1,1-.79,2.79,2.79,0,0,1,1.29-.3,1.89,1.89,0,0,1,2,2.08Zm-1.49,2.06a2.84,2.84,0,0,0,.4-.9,3.88,3.88,0,0,0,.14-1.09,1.49,1.49,0,0,0-.32-1,1.19,1.19,0,0,0-.93-.35,1.63,1.63,0,0,0-.85.22,2.16,2.16,0,0,0-.65.63,3,3,0,0,0-.4.9A3.79,3.79,0,0,0,82,99.2a1.54,1.54,0,0,0,.32,1,1.2,1.2,0,0,0,.93.36,1.63,1.63,0,0,0,.85-.22A2,2,0,0,0,84.76,99.75ZM86.22,93l-1.74,1.83h-.76L85,93Z"/><path class="b" d="M92.63,95.76l-1.11,4.85a3.76,3.76,0,0,1-1.06,2,3,3,0,0,1-2,.64,5.93,5.93,0,0,1-.84-.06,5.46,5.46,0,0,1-.79-.17l.21-.92h0a5,5,0,0,0,.74.24,4,4,0,0,0,.87.11,2.3,2.3,0,0,0,.79-.12A1.58,1.58,0,0,0,90,102a2,2,0,0,0,.33-.48,2.57,2.57,0,0,0,.2-.61l.11-.48a5.19,5.19,0,0,1-.87.5,2.41,2.41,0,0,1-1,.16,1.61,1.61,0,0,1-1.24-.48,2,2,0,0,1-.45-1.37,4.34,4.34,0,0,1,.23-1.38A4,4,0,0,1,88,96.72a3.16,3.16,0,0,1,1-.81,2.59,2.59,0,0,1,1.22-.3,3.05,3.05,0,0,1,.84.11,2.21,2.21,0,0,1,.64.28l.12-.24Zm-1.14,1a3.86,3.86,0,0,0-.64-.25,2.57,2.57,0,0,0-.67-.09,1.71,1.71,0,0,0-.87.22,1.94,1.94,0,0,0-.68.6,2.71,2.71,0,0,0-.42.87,3.6,3.6,0,0,0-.15,1,1.32,1.32,0,0,0,.27.89,1,1,0,0,0,.84.32,2.19,2.19,0,0,0,.82-.17,5.85,5.85,0,0,0,.82-.43Z"/><path class="b" d="M95.37,95.76l-1.26,5.46h-.92l1.26-5.46Zm.49-1.86-.22.95h-1l.23-.95Z"/><path class="b" d="M98.29,101.34a3.21,3.21,0,0,1-.92-.12,2,2,0,0,1-.7-.39,1.63,1.63,0,0,1-.44-.64,2.49,2.49,0,0,1-.16-.9,4.17,4.17,0,0,1,.24-1.43A3.78,3.78,0,0,1,97,96.69a3.21,3.21,0,0,1,2.4-1.06,2.93,2.93,0,0,1,.9.14,3.67,3.67,0,0,1,.75.31l-.21,1h0l-.24-.2a2.33,2.33,0,0,0-.35-.22,2.53,2.53,0,0,0-.44-.18,2,2,0,0,0-.56-.07,1.87,1.87,0,0,0-1.55.8,3.19,3.19,0,0,0-.59,1.94,1.46,1.46,0,0,0,.35,1.06,1.32,1.32,0,0,0,1,.37,2.15,2.15,0,0,0,.61-.09,2.7,2.7,0,0,0,.53-.19,4.53,4.53,0,0,0,.44-.23l.3-.19h0l-.19,1a6.9,6.9,0,0,1-.9.33A3.54,3.54,0,0,1,98.29,101.34Z"/><path class="b" d="M106.49,97.69a4.43,4.43,0,0,1-.22,1.41,3.48,3.48,0,0,1-.64,1.17,3.29,3.29,0,0,1-1,.81,2.8,2.8,0,0,1-1.3.29,2,2,0,0,1-1.51-.56,2.11,2.11,0,0,1-.55-1.53,4.27,4.27,0,0,1,.23-1.39,3.6,3.6,0,0,1,.64-1.19,3.06,3.06,0,0,1,1-.79,2.79,2.79,0,0,1,1.29-.3,1.89,1.89,0,0,1,2,2.08ZM105,99.75a2.84,2.84,0,0,0,.4-.9,3.88,3.88,0,0,0,.14-1.09,1.45,1.45,0,0,0-.33-1,1.16,1.16,0,0,0-.92-.35,1.63,1.63,0,0,0-.85.22,2.16,2.16,0,0,0-.65.63,3,3,0,0,0-.4.9,3.79,3.79,0,0,0-.14,1.07,1.54,1.54,0,0,0,.32,1,1.2,1.2,0,0,0,.93.36,1.63,1.63,0,0,0,.85-.22A2,2,0,0,0,105,99.75Z"/><path class="b" d="M28.84,112.22h-1l-.25-2H24.48l-1.19,2h-1L26.59,105h1.28Zm-1.33-2.84-.46-3.58L25,109.38Z"/><path class="b" d="M35.69,106.76l-3.47,5.46h-.91l-.93-5.46h.93l.69,4.36,2.68-4.36Z"/><path class="b" d="M39.15,111.63l-.36.23a2.88,2.88,0,0,1-.46.24,2.73,2.73,0,0,1-.55.19,3.08,3.08,0,0,1-.71.08A1.5,1.5,0,0,1,36,112a1.28,1.28,0,0,1-.4-1,2,2,0,0,1,.28-1.1,2.2,2.2,0,0,1,.85-.73,4.64,4.64,0,0,1,1.33-.4,14.65,14.65,0,0,1,1.78-.15c0-.09,0-.17,0-.24a1.36,1.36,0,0,0,0-.21.64.64,0,0,0-.36-.61,1.17,1.17,0,0,0-.4-.12,3.84,3.84,0,0,0-.5,0,3.91,3.91,0,0,0-.95.13,6.89,6.89,0,0,0-.86.27H36.8l.18-.92c.19,0,.46-.11.82-.17a6.15,6.15,0,0,1,1-.09,2.94,2.94,0,0,1,1.52.32,1.08,1.08,0,0,1,.51,1,1.41,1.41,0,0,1,0,.28,2,2,0,0,1,0,.28l-.85,3.71H39Zm.54-2.29c-.51,0-.95.06-1.34.11a3.9,3.9,0,0,0-1,.25,1.28,1.28,0,0,0-.6.44,1.08,1.08,0,0,0-.21.68.63.63,0,0,0,.24.54,1.17,1.17,0,0,0,.74.19,2.34,2.34,0,0,0,.91-.2,4.84,4.84,0,0,0,.86-.48Z"/><path class="b" d="M44.38,104.62l-1.76,7.6h-.91l1.75-7.6Z"/><path class="b" d="M53.58,112.22H52.43l-2-6.51-1.5,6.51H48L49.71,105h1.45L53,110.88,54.35,105h.91Z"/><path class="b" d="M60.8,108.69a4.43,4.43,0,0,1-.23,1.41,3.65,3.65,0,0,1-.63,1.17,3.29,3.29,0,0,1-1,.81,2.83,2.83,0,0,1-1.3.29,2,2,0,0,1-1.52-.56,2.1,2.1,0,0,1-.54-1.53,4.26,4.26,0,0,1,.22-1.39,3.79,3.79,0,0,1,.64-1.19,3,3,0,0,1,1-.79,2.77,2.77,0,0,1,1.28-.3,1.9,1.9,0,0,1,2.06,2.08Zm-1.5,2.06a3.09,3.09,0,0,0,.41-.9,4.28,4.28,0,0,0,.14-1.09,1.45,1.45,0,0,0-.33-1,1.18,1.18,0,0,0-.92-.35,1.61,1.61,0,0,0-.85.22,2,2,0,0,0-.65.63,3,3,0,0,0-.41.9,4.18,4.18,0,0,0-.14,1.07,1.49,1.49,0,0,0,.33,1,1.2,1.2,0,0,0,.93.36,1.66,1.66,0,0,0,.85-.22A2,2,0,0,0,59.3,110.75Z"/><path class="b" d="M63,112.22H61.83l.33-1.4h1.17Z"/><path class="b" d="M73.48,112.22H68.55l.23-1,1.17-.86c.32-.24.71-.54,1.16-.9a9.43,9.43,0,0,0,1.68-1.6,2.12,2.12,0,0,0,.49-1.27.82.82,0,0,0-.34-.72,1.45,1.45,0,0,0-.87-.25,3.54,3.54,0,0,0-1,.17,5,5,0,0,0-1.1.47h0l.2-1a5.77,5.77,0,0,1,1-.32,5.23,5.23,0,0,1,1.15-.14,2.38,2.38,0,0,1,1.51.43,1.4,1.4,0,0,1,.53,1.16,2.75,2.75,0,0,1-.44,1.48,8,8,0,0,1-1.58,1.64c-.44.36-.9.72-1.37,1.07l-1.17.85h3.91Z"/><path class="b" d="M80.84,107.27a6.22,6.22,0,0,1-.31,2,4.87,4.87,0,0,1-.88,1.62A4.1,4.1,0,0,1,78.23,112a4.16,4.16,0,0,1-1.86.4,3.43,3.43,0,0,1-.48,0,1.82,1.82,0,0,1-.37-.09l.17-.86h0a2.53,2.53,0,0,0,.37.11,2.49,2.49,0,0,0,.57.06,2.8,2.8,0,0,0,1.86-.69,3.36,3.36,0,0,0,1.1-1.76,6.06,6.06,0,0,1-.91.39,3.55,3.55,0,0,1-1,.12,2.75,2.75,0,0,1-.82-.11,1.92,1.92,0,0,1-.66-.36,1.58,1.58,0,0,1-.46-.59,2.24,2.24,0,0,1-.16-.86,2.78,2.78,0,0,1,.84-2,2.83,2.83,0,0,1,2.08-.85,2.09,2.09,0,0,1,1.66.67A2.63,2.63,0,0,1,80.84,107.27Zm-1,0a2.3,2.3,0,0,0-.12-.79,1.56,1.56,0,0,0-.31-.52,1.22,1.22,0,0,0-.44-.28,1.71,1.71,0,0,0-1.83.49,2.16,2.16,0,0,0-.48,1.44,1.21,1.21,0,0,0,.36.94,1.6,1.6,0,0,0,1.08.32,3.41,3.41,0,0,0,.8-.11,3.61,3.61,0,0,0,.82-.33,4.34,4.34,0,0,0,.09-.52A5.72,5.72,0,0,0,79.87,107.24Z"/><path class="b" d="M85.75,111.58a3.27,3.27,0,0,1-1,.58,3.65,3.65,0,0,1-1.3.21,4.35,4.35,0,0,1-1.14-.15,4.4,4.4,0,0,1-.94-.36l.23-.93h.08a3.29,3.29,0,0,0,.84.44,3.23,3.23,0,0,0,1.08.19,2,2,0,0,0,1.44-.53,1.79,1.79,0,0,0,.56-1.36.87.87,0,0,0-.36-.76,1.93,1.93,0,0,0-1.11-.26h-.46l.19-.77h.46a2.32,2.32,0,0,0,1.36-.38,1.19,1.19,0,0,0,.52-1,.76.76,0,0,0-.31-.64,1.59,1.59,0,0,0-.93-.23,3.73,3.73,0,0,0-1.09.19,4.76,4.76,0,0,0-1,.45h0l.21-1a5.85,5.85,0,0,1,1-.31,4.7,4.7,0,0,1,1.14-.15,2.61,2.61,0,0,1,1.52.39,1.19,1.19,0,0,1,.55,1,1.76,1.76,0,0,1-.53,1.28,2.4,2.4,0,0,1-1.35.71v.05a2.14,2.14,0,0,1,.42.15,1.69,1.69,0,0,1,.41.26,1.35,1.35,0,0,1,.31.42,1.4,1.4,0,0,1,.12.6,2.31,2.31,0,0,1-.23,1A2.55,2.55,0,0,1,85.75,111.58Z"/><path class="b" d="M6,128.22H4.76l-2.43-2.89H1v2.89H0V121H2a5.58,5.58,0,0,1,1.09.08,2.34,2.34,0,0,1,.8.31,1.72,1.72,0,0,1,.61.62,1.89,1.89,0,0,1,.23,1,2.16,2.16,0,0,1-.4,1.32,2.43,2.43,0,0,1-1.09.8ZM3.75,123a1.2,1.2,0,0,0-.11-.55.94.94,0,0,0-.36-.41,1.31,1.31,0,0,0-.5-.2,3.43,3.43,0,0,0-.68,0H1v2.74h1a3.66,3.66,0,0,0,.8-.08,1.23,1.23,0,0,0,.59-.3,1.46,1.46,0,0,0,.32-.47A1.91,1.91,0,0,0,3.75,123Z"/><path class="b" d="M10.93,128.22H10v-.59l-.32.24a2.46,2.46,0,0,1-.41.23,2.35,2.35,0,0,1-.53.19,2.78,2.78,0,0,1-.69.08,1.77,1.77,0,0,1-1.25-.49,1.63,1.63,0,0,1-.52-1.25,1.71,1.71,0,0,1,.27-1,1.77,1.77,0,0,1,.76-.6,3.9,3.9,0,0,1,1.2-.3c.46,0,1-.09,1.49-.12v-.14a1.15,1.15,0,0,0-.1-.52.89.89,0,0,0-.32-.32,1.53,1.53,0,0,0-.47-.15,3.48,3.48,0,0,0-.57,0,3.57,3.57,0,0,0-.81.1,5.8,5.8,0,0,0-.91.27h0v-.93c.18,0,.44-.1.77-.16a5.81,5.81,0,0,1,1-.09,4.31,4.31,0,0,1,1,.1,2,2,0,0,1,.74.32,1.49,1.49,0,0,1,.47.58,2.27,2.27,0,0,1,.16.88ZM10,126.87v-1.52l-1,.08a5.32,5.32,0,0,0-.91.14,1.38,1.38,0,0,0-.63.35.84.84,0,0,0-.25.65.91.91,0,0,0,.28.71,1.39,1.39,0,0,0,.87.23,2.1,2.1,0,0,0,.88-.18A3.69,3.69,0,0,0,10,126.87Z"/><path class="b" d="M17.12,128.22H16.2v-.58a3.41,3.41,0,0,1-.82.54,2.43,2.43,0,0,1-.94.19,1.86,1.86,0,0,1-1.55-.75,3.41,3.41,0,0,1-.57-2.09,3.71,3.71,0,0,1,.2-1.24,3,3,0,0,1,.53-.92,2.29,2.29,0,0,1,.78-.56,2.23,2.23,0,0,1,.91-.2,2.88,2.88,0,0,1,.76.09,3.3,3.3,0,0,1,.7.28v-2.36h.92Zm-.92-1.35v-3.13a4.39,4.39,0,0,0-.66-.23,3.24,3.24,0,0,0-.64-.06,1.43,1.43,0,0,0-1.2.54,2.35,2.35,0,0,0-.43,1.52A2.73,2.73,0,0,0,13.6,127a1.16,1.16,0,0,0,1.06.5,1.88,1.88,0,0,0,.79-.17A3.18,3.18,0,0,0,16.2,126.87Z"/><path class="b" d="M19.91,121.85h-1v-.95h1Zm-.06,6.37h-.91v-5.46h.91Z"/><path class="b" d="M25.7,127.87a6.08,6.08,0,0,1-.87.35,3.1,3.1,0,0,1-.87.12,3.41,3.41,0,0,1-1.09-.17,2.27,2.27,0,0,1-.84-.53,2.42,2.42,0,0,1-.56-.89,3.69,3.69,0,0,1-.19-1.25,2.87,2.87,0,0,1,.73-2.1,2.58,2.58,0,0,1,1.95-.77,3.26,3.26,0,0,1,.92.14,4,4,0,0,1,.82.32v1h-.05a3,3,0,0,0-.86-.5,2.34,2.34,0,0,0-.87-.18,1.56,1.56,0,0,0-1.24.53,2.84,2.84,0,0,0,0,3.05,1.52,1.52,0,0,0,1.25.53,2.2,2.2,0,0,0,.56-.07,2.44,2.44,0,0,0,.52-.19c.13-.07.26-.14.38-.22a2.71,2.71,0,0,0,.27-.2h.05Z"/><path class="b" d="M31.12,128.22h-.91v-.59l-.33.24a3.18,3.18,0,0,1-.93.42,2.93,2.93,0,0,1-.7.08,1.77,1.77,0,0,1-1.25-.49,1.67,1.67,0,0,1-.52-1.25,1.71,1.71,0,0,1,.27-1,1.77,1.77,0,0,1,.76-.6,3.9,3.9,0,0,1,1.2-.3q.69-.08,1.5-.12v-.14a1.14,1.14,0,0,0-.11-.52.89.89,0,0,0-.32-.32,1.53,1.53,0,0,0-.47-.15,3.48,3.48,0,0,0-.57,0,3.57,3.57,0,0,0-.81.1,5.8,5.8,0,0,0-.91.27H27v-.93c.18,0,.44-.1.77-.16a5.83,5.83,0,0,1,1-.09,4.28,4.28,0,0,1,1,.1,2,2,0,0,1,.74.32,1.49,1.49,0,0,1,.47.58,2.27,2.27,0,0,1,.16.88Zm-.91-1.35v-1.52l-1,.08a5,5,0,0,0-.9.14,1.37,1.37,0,0,0-.64.35.84.84,0,0,0-.25.65.91.91,0,0,0,.28.71,1.39,1.39,0,0,0,.87.23,2.1,2.1,0,0,0,.88-.18A4.07,4.07,0,0,0,30.21,126.87Z"/><path class="b" d="M36.92,127.87a7.19,7.19,0,0,1-.87.35,3.17,3.17,0,0,1-.88.12,3.4,3.4,0,0,1-1.08-.17,2.4,2.4,0,0,1-.85-.53,2.28,2.28,0,0,1-.55-.89,3.69,3.69,0,0,1-.19-1.25,2.87,2.87,0,0,1,.73-2.1,2.58,2.58,0,0,1,1.94-.77,3.21,3.21,0,0,1,.92.14,4.09,4.09,0,0,1,.83.32v1h-.05a3.2,3.2,0,0,0-.87-.5,2.26,2.26,0,0,0-.87-.18,1.54,1.54,0,0,0-1.23.53,2.3,2.3,0,0,0-.45,1.54,2.27,2.27,0,0,0,.44,1.51,1.5,1.5,0,0,0,1.24.53,2.22,2.22,0,0,0,.57-.07,2.66,2.66,0,0,0,.52-.19l.37-.22a3,3,0,0,0,.28-.2h.05Z"/><path class="b" d="M39.08,121.85h-1v-.95h1ZM39,128.22h-.91v-5.46H39Z"/><path class="b" d="M45.49,125.49a3.06,3.06,0,0,1-.69,2.11,2.56,2.56,0,0,1-3.66,0,3.57,3.57,0,0,1,0-4.22,2.56,2.56,0,0,1,3.66,0A3.06,3.06,0,0,1,45.49,125.49Zm-1,0a2.52,2.52,0,0,0-.41-1.57,1.55,1.55,0,0,0-2.32,0,3.16,3.16,0,0,0,0,3.13,1.51,1.51,0,0,0,2.3,0A2.46,2.46,0,0,0,44.54,125.49Zm0-5.46-1.33,1.83h-.73l.88-1.83Z"/><path class="b" d="M51.47,128.22h-.92v-3.11a5.08,5.08,0,0,0,0-.7,1.39,1.39,0,0,0-.16-.52.76.76,0,0,0-.35-.31,1.71,1.71,0,0,0-.6-.1,2,2,0,0,0-.79.19,4,4,0,0,0-.78.47v4.08h-.92v-5.46h.92v.61a3.4,3.4,0,0,1,.89-.56,2.37,2.37,0,0,1,.94-.2,1.71,1.71,0,0,1,1.35.53,2.28,2.28,0,0,1,.46,1.54Z"/><path class="b" d="M61.62,128.22H56.83V121h4.79v.85H57.79v2h3.83v.86H57.79v2.7h3.83Z"/><path class="b" d="M68.7,128.22H67.5l-3.45-6.51v6.51h-.9V121h1.5l3.14,5.93V121h.91Z"/><path class="b" d="M75.82,121.8h-2.6v6.42h-1V121.8h-2.6V121h6.17Z"/><path class="b" d="M84.62,128.22H80.69v-.75H82.2V122.6H80.69v-.66a5.42,5.42,0,0,0,.66,0,2,2,0,0,0,.53-.15.9.9,0,0,0,.5-.82h.76v6.55h1.48Z"/><path class="b" d="M91,128.22H87.05v-.75h1.51V122.6H87.05v-.66a5.42,5.42,0,0,0,.66,0,2,2,0,0,0,.53-.15,1.06,1.06,0,0,0,.35-.31,1,1,0,0,0,.15-.51h.76v6.55H91Z"/><path class="b" d="M97.34,128.22H93.4v-.75h1.52V122.6H93.4v-.66a5.14,5.14,0,0,0,.66,0,1.91,1.91,0,0,0,.53-.15,1,1,0,0,0,.36-.31,1.06,1.06,0,0,0,.15-.51h.75v6.55h1.49Z"/><path class="b" d="M104.22,125.86a2.39,2.39,0,0,1-.73,1.81,2.52,2.52,0,0,1-1.79.7,2.8,2.8,0,0,1-1-.17,2.15,2.15,0,0,1-.77-.49,2.63,2.63,0,0,1-.65-1.08,5,5,0,0,1-.23-1.61,6.35,6.35,0,0,1,.21-1.71,3.86,3.86,0,0,1,.66-1.33,3,3,0,0,1,1.11-.86,3.71,3.71,0,0,1,1.58-.31l.49,0a2.74,2.74,0,0,1,.39.09v.93h-.05a2.11,2.11,0,0,0-.41-.14,2.6,2.6,0,0,0-.56-.06,2.21,2.21,0,0,0-1.68.66,2.82,2.82,0,0,0-.73,1.77,4.18,4.18,0,0,1,.81-.38,3.19,3.19,0,0,1,.92-.13,3.37,3.37,0,0,1,.82.09,2,2,0,0,1,.72.34,1.87,1.87,0,0,1,.65.75A2.5,2.5,0,0,1,104.22,125.86Zm-1,0a1.84,1.84,0,0,0-.14-.76,1.25,1.25,0,0,0-.44-.51,1.12,1.12,0,0,0-.5-.21,3.45,3.45,0,0,0-.57,0,3.18,3.18,0,0,0-.77.1,4,4,0,0,0-.73.3c0,.07,0,.14,0,.21v.25a3.64,3.64,0,0,0,.16,1.22,1.78,1.78,0,0,0,.43.71,1.62,1.62,0,0,0,.49.31,1.48,1.48,0,0,0,.57.1,1.44,1.44,0,0,0,1.11-.43A1.75,1.75,0,0,0,103.23,125.9Z"/><path class="b" d="M110.46,124.14a6.2,6.2,0,0,1-.22,1.73,3.54,3.54,0,0,1-.66,1.33,2.85,2.85,0,0,1-1.11.85,4.06,4.06,0,0,1-2,.28l-.4-.08v-.94h0a1.65,1.65,0,0,0,.4.14,2,2,0,0,0,.58.07,2.22,2.22,0,0,0,1.69-.65,2.89,2.89,0,0,0,.71-1.78,3.78,3.78,0,0,1-.86.39,3.34,3.34,0,0,1-.87.11,4,4,0,0,1-.81-.08,2.13,2.13,0,0,1-.73-.35,1.81,1.81,0,0,1-.65-.75,2.48,2.48,0,0,1-.22-1.1,2.41,2.41,0,0,1,.73-1.81,2.49,2.49,0,0,1,1.79-.7,2.84,2.84,0,0,1,1,.16,2.25,2.25,0,0,1,.78.49,2.63,2.63,0,0,1,.64,1A5,5,0,0,1,110.46,124.14Zm-1-.21a4,4,0,0,0-.15-1.21,1.79,1.79,0,0,0-.43-.72,1.48,1.48,0,0,0-.5-.31,1.7,1.7,0,0,0-.57-.1,1.45,1.45,0,0,0-1.11.44,1.78,1.78,0,0,0-.41,1.24,1.84,1.84,0,0,0,.14.76,1.23,1.23,0,0,0,.44.51,1.26,1.26,0,0,0,.48.2,2.71,2.71,0,0,0,.59.05,3,3,0,0,0,1.5-.4c0-.07,0-.13,0-.2Z"/><g class="c"><g class="d"><rect class="e" x="12.6" width="82.77" height="72.66"/><path class="f" d="M45.73,16.39a2.74,2.74,0,0,0,.7-.23h.93c.3.2.5.5.82.7V17c.26.36.33.91.58,1.28v.12a2,2,0,0,0,.35,1v.12a1.19,1.19,0,0,0,.34.7.52.52,0,0,0,.82.23,5.89,5.89,0,0,1,2.44-.12c.22.05.29.25.58.24a2.66,2.66,0,0,0,.23.69v.12a2.66,2.66,0,0,1-.58.58h-.11c-.74.2-1.83,0-2.45.35h-.11c-.23.12-.5.2-.58.47s-.15.16-.12.34c-.13,0-.13.19-.12.35v.12c-.46,1.17.66,1.75.59,2.91v.11a1.85,1.85,0,0,1-2.91,0A11,11,0,0,0,47,24.06v-.35c-.09-1.58-2.27-.74-2.9-.23H44a4.11,4.11,0,0,1-1.28.23H42.6c-.17,0-.2-.19-.35-.23v-.11c-.08-.31-.35-.43-.58-.58v-.24c0-.54.32-.68.58-.93.45.07.56-.21,1-.11a5.18,5.18,0,0,0,1.63-.12H45c1.13.1,1.64-1.31,1-2.21v-.12c-.16-.07,0-.44-.23-.46a.63.63,0,0,0-.12-.46c-.11-.51-.66-1.07-.34-1.63.13,0,.33,0,.34-.12"/><polygon class="g" points="49.57 56.27 50.97 56.27 50.97 62.2 50.85 62.2 49.92 62.2 49.8 62.2 49.57 62.2 49.57 56.27"/><polygon class="g" points="66.08 56.27 67.47 56.27 67.47 62.2 66.08 62.2 66.08 61.84 66.08 61.73 66.08 61.27 66.08 59.64 66.08 59.06 66.08 56.27"/><path class="g" d="M12.49,78c0-2.78,4.87-2.21,4.18.82H14.93c-.07-.28.14-.85-.12-.93,0-.29,0-.57-.23-.58-.61.31-.35,1.6-.35,2.55S14,82,14.58,82.31c.59-.07.26-1.06.35-1.63-.41-.06-.38-.55-.35-1.05h2.09v3.61H15.51c0-.21-.14-.25-.12-.47a1.63,1.63,0,0,1-2.9-1Z"/><path class="g" d="M17.37,79.17c-.56-3.63,3.85-3.94,4.18-.82.13,1.17.24,3.6-.34,4.42-1.13,1.58-4.81.49-3.84-2.32Zm2.32-1.51c0-.26-.09-.37-.34-.35-.4.49-.24,1.65-.24,2.56s-.26,2.11.35,2.44c.21,0,.27-.2.23-.47a14.64,14.64,0,0,0,0-4.18"/><path class="g" d="M43.06,77.89c0-2.26,4.09-2.26,4.07,0v3.83c0,2.27-4.11,2.28-4.07,0Zm1.74-.23c.21,1.45-.43,3.76.35,4.65.46-1.18.24-3.63.12-5h-.35c0,.15-.15.16-.12.35"/><path class="g" d="M73.52,81.84c0,1.92-3.22,2-4,.81s-.48-5.71.69-6.27,3.17-.14,3.26,1.39v1.51H71.77c-.11-.62.25-1.72-.23-2-.76.13-.46,1.49-.46,2.44s-.24,2.26.35,2.56c.66,0,.21-1.18.34-1.75h1.75Z"/><path class="g" d="M22.25,76.38h2.67c1.55-.21,2,3,.47,3.14a2.19,2.19,0,0,1,1.05.81V82c0,.76-.32,1.23-1.05,1.28H22.25Zm2.09,1.16c-.49-.45-.43,1.26-.23,1.51.85.34.78-1.55.23-1.51m0,4.53c.59,0,.46-1.68.12-1.86V80.1H24c.13.57-.31,2.32.35,2"/><path class="g" d="M29,76.38v6.86c-.52-.21-1.36.33-1.74-.12-.64-.76.49-5.75,0-6.74Z"/><path class="g" d="M32.83,82v1.28h-3V76.38h2.9v1.28H31.55v1.28c.13.26.73,0,1.05.11v1.28H31.55v1.51c.2.27.89,0,1.28.12"/><path class="g" d="M33.41,76.38H36c1.44-.08,1.7,1.49,1.39,2.79a1.26,1.26,0,0,1-.81.46c1.23.29.9,2.12.93,3.61H35.85a12.49,12.49,0,0,0-.11-2.79c0-.2-.09-.22-.24-.24s0-.13-.11-.11c-.51.61-.1,2.15-.23,3.14H33.41Zm2.09,1.16c-.49-.44-.43,1.26-.23,1.51h.23c.52,0,.52-1.51,0-1.51"/><path class="g" d="M39.81,76.49c.17,1,.58,1.74.81,2.68,0,.11.09.14.12.23a15.47,15.47,0,0,0,.11-3h1.4v6.86c-.53,0-1.28.11-1.63-.12-.14-.94-.5-1.68-.7-2.56,0-.15-.15-.16-.11-.35a14.79,14.79,0,0,0-.12,3h-1.4V76.38c.5,0,1.2-.12,1.52.11"/><path class="g" d="M49.45,76.38H52c1,.05,1.63.46,1.63,1.51v4c0,.86-.32,1.31-1,1.4H49.45Zm2.1,1.16c-.66-.1-.32,3.71-.24,4.65.09,0,.23,0,.24-.12.76-.82.15-3,.35-4.41-.15,0-.17-.15-.35-.12"/><path class="g" d="M57.47,82v1.28h-3V76.38h2.91v1.28H56.2v1.28c.16.26.81,0,1.16.11v1.28c-.35.07-1-.15-1.16.12v1.39c.2.27.88,0,1.27.12"/><path class="g" d="M59.68,76.38h1.75A51,51,0,0,0,61.54,82h1.05v1.28H59.68Z"/><path class="g" d="M63.75,76.38h2.68c.24,2.23.62,4.33.93,6.51v.35H65.61c.48-1-1-1.8-.81-.47-.17,0-.11.28-.12.47H62.94v-.35c.25-2.19.64-4.25.81-6.51m1.63,3.83a9.21,9.21,0,0,0-.23-2.32,23.48,23.48,0,0,0-.35,2.9c.33.48,1.06-.24.58-.58"/><path class="g" d="M76.08,76.38v6.86c-.53-.21-1.37.33-1.75-.12-.63-.76.49-5.75,0-6.74Z"/><path class="g" d="M78.63,76.38c.15,1.9-.3,4.4.24,5.93.19,0,.22-.09.23-.24a53,53,0,0,0,.11-5.69H81c-.37,1.89.8,6-.82,6.86-1,.53-3.22.15-3.25-1.28V76.38Z"/><path class="g" d="M84.21,76.38c.92,0,1.51.35,1.63,1.16v4.77a1.06,1.06,0,0,1-1,.93c-.39-.37-2.56.45-3,0s0-2.53,0-3.49V76.38Zm-.35,1h-.34c.15,1.52-.31,3.64.23,4.77.63-.88.43-3.7.11-4.77"/><path class="g" d="M87.12,76.38h2.67c.25,2.23.63,4.33.93,6.51v.35H89c.45-.93-.88-1.81-.81-.59-.26,0-.06.42-.12.59H86.31v-.35c.25-2.19.63-4.25.81-6.51m1.63,3.83a9.19,9.19,0,0,0-.24-2.32,23.52,23.52,0,0,0-.34,2.9c.33.48,1-.24.58-.58"/><path class="g" d="M94.33,83.24H91.19V76.38h2.56c2.58,0,1.59,4.84,1.28,6.62-.35,0-.36.27-.7.24M93.51,78c.09-.43-.13-.56-.46-.58-.12,1.29-.35,3.68.11,4.77a.42.42,0,0,0,.35-.58,10.94,10.94,0,0,0,0-3.61"/><path class="g" d="M23.06,45.92c.33-.1.31.16.59.12v.11c.4.14.47.61.69.93V48c-.25.25-.28.72-.81.7a1.63,1.63,0,0,1,.93,1.16v.58a2.88,2.88,0,0,0-.23.7,3.51,3.51,0,0,1-1.05.7H20.74V45.92h2.32ZM22.6,47.2c-.51-.54-.61.79-.35,1,.09,0,.23,0,.23-.11.36,0,.55-.84.12-.93m-.35,3.37c.14,0,.33,0,.35-.12a.46.46,0,0,0,.23-.69c-.08-.23-.31-.31-.58-.35a1.25,1.25,0,0,0,0,1.16"/><path class="g" d="M86.19,44.29a.61.61,0,0,0-.12.35c-.1,0-.11,0-.11.12v.11a.77.77,0,0,1-1.17.35c.12,0,.09-.14.12-.23,0-.28.21-.25.12-.58a.77.77,0,0,1,.23-.35c.28.07.84-.15.93.12Z"/><path class="g" d="M86.19,45.92a.52.52,0,0,1,.11.35c-.08.35.21.34.12.7.17.21,0,.77.24.92v.24c0,.16,0,.33.11.35-.09.44.14.55.12.93a16,16,0,0,0,.46,2.09v.23c0,.1,0,.11-.11.12h-1.4c.06-.37-.21-.41-.12-.82h-.93c-.14.21,0,.68-.23.82H83.17a19.89,19.89,0,0,1,.35-2v-.23h.11c-.09-.4.17-.45.12-.81v-.24c.13,0,.1-.21.11-.35v-.11a6.23,6.23,0,0,0,.35-1.4v-.11c0-.16.17-.23.12-.47.25-.45,1.25-.14,1.86-.23m-.93,1.86a19.91,19.91,0,0,0-.23,2c.17-.07.6.13.58-.12-.29-.45-.1-1.38-.35-1.86"/><path class="g" d="M73.75,51.85c-.35-.07-1,.15-1.16-.12V47.31h-.7c-.26,0,0-.49-.12-.69v-.7h3V47.2H74v4.65Z"/><path class="g" d="M87.35,53.94h.12c-22,.19-44.83.19-66.85,0H87.35Z"/><path class="g" d="M23,56.27h.23v.11c.36-.08.22.32.58.23v.12a.6.6,0,0,0,.35.35c-.1.33.16.3.12.58s.16.3.11.58-.11.51-.11.82h-.12c0,.5-.42.66-.7.93H23.3c-.2.19-.69.09-1.05.11-.27.47,0,1.43-.11,2.1h-1.4V56.27H23Zm-.58,2.55c.36,0,.4-.29.46-.58v-.11c0-.28-.12-.5-.35-.59v-.11c-.63-.24-.4,1.82-.11,1.39"/><path class="g" d="M86.3,56.5c0,.16,0,.33.12.35-.07.37.08.54.12.81s.08.31.12.46v.12a5.67,5.67,0,0,0,.23,1.16A.8.8,0,0,0,87,60c-.08.35.12.42.12.69v.12c.17.22,0,.77.23.93v.47H86.07c-.13,0-.2,0-.23-.12.08-.36-.12-.43-.12-.7h-.93c.1.4-.17.45-.11.82H83.52c-.17,0-.33,0-.35-.12.09-.33.13-.72.23-1V60.8a4,4,0,0,0,.23-.81v-.35a6.23,6.23,0,0,0,.35-1.4V58h.12v-.35c.2-.38.14-1,.34-1.39.61.08,1.62-.22,1.86.23m-1,1.62a14.74,14.74,0,0,1-.23,2h.58c-.2-.5-.13-1.88-.35-2"/><path class="g" d="M75.15,56.61c.2.85.25,2.46.46,2.91,0-.89.29-1.57.35-2.44V57a.58.58,0,0,0,.12-.35V56.5c.19-.43,1.08-.16,1.62-.23v.23a2.66,2.66,0,0,0-.23,1c-.11,0-.09.15-.12.24V58c-.13,0-.09.21-.11.35v.11c-.19.12-.13.5-.23.7v.12a4.53,4.53,0,0,0-.24,1v.12c-.19.12-.12.49-.23.7v.11c-.19.24-.09.77-.35.94H74.8c-.14,0-.1-.22-.12-.36s-.07-.69-.23-.92c.09-.41-.17-.45-.12-.82,0-.19-.11-.2-.11-.35v-.23c0-.19-.11-.2-.12-.35a.74.74,0,0,0-.12-.58c.09-.36-.12-.42-.11-.7v-.11a7.09,7.09,0,0,1-.24-1.28c.1-.43,1.55-.35,1.52.11"/><path class="g" d="M58.87,62.2h-1c-.15-1.44.31-3.49-.23-4.54h-.12c-.17,0-.42,0-.46-.12V56.27h3c.15.88,0,1.43-.81,1.39-.15,1.44.3,3.48-.23,4.54Z"/><path class="g" d="M47,10.23h2.91a.77.77,0,0,0,.58.12h.23a.67.67,0,0,0,.47.11h.11a.67.67,0,0,0,.47.12.73.73,0,0,0,.58.11v.12a5.36,5.36,0,0,1,1.4.47.5.5,0,0,0,.34.11c0,.1,0,.11.12.12a.58.58,0,0,0,.35.12v.11a2.47,2.47,0,0,1,.93.47c.17.06.29.17.46.23v.11c.37-.05.31.32.59.35h.11c.15.2.24.46.58.47,0,.1.11.21.23.23a13.94,13.94,0,0,0,1.63,1.63v.12a.59.59,0,0,0,.35.34c0,.1.12.12.12.24V16c.31.19.42.59.7.82V17c0,.11.1.21.23.24v.11c.11.16.11.43.35.47a14.94,14.94,0,0,1,1.39-2.33c.1,0,.11,0,.12-.11h.11A30.13,30.13,0,0,1,64.8,13c.09,0,.11-.12.23-.12s.21-.1.23-.23c.32.08.24-.23.47-.23.17-.17.49-.21.58-.47h.12A27,27,0,0,1,69,10.81a3.09,3.09,0,0,0,.93-.23c.17,0,.33,0,.35-.12.38.07.54-.08.82-.11.44.09.55-.14.93-.12h.46a18.67,18.67,0,0,1,3.14.12h.23a5.24,5.24,0,0,0,1,.23H77c.12.19.5.12.7.23h.12v.12c.33-.1.3.16.58.12h.12v.11c.34,0,.35.26.69.23s.3.25.58.24c.55.5,1.33.76,1.87,1.27h.11a11.84,11.84,0,0,0,1.28,1.17v.11a9.75,9.75,0,0,0-1.51,1.75c-.1,0-.11,0-.12.11-.3.28-.7.46-.81.93h-.23a7.44,7.44,0,0,0-2-1.62h-.12v-.12c-.35,0-.52-.25-.81-.35h-.12v-.12c-.54,0-.71-.37-1.28-.34a.59.59,0,0,0-.46-.12,1,1,0,0,0-.7-.12h-.23c0-.16-.29-.09-.46-.11H73.05c-.36,0-.85-.08-1,.11h-.24a3.55,3.55,0,0,0-1.39.35h-.23c-.1,0-.11.05-.12.12-.46,0-.67.25-1,.35a9.36,9.36,0,0,0-4,3.6.32.32,0,0,0-.23.35h-.12c-.11.39-.37.64-.46,1.05v.11a3.94,3.94,0,0,0-.58,1.74c-.2.2-.1.69-.12,1-.26.05-.05.57-.12.81v.7a5.61,5.61,0,0,0,.35,2.21c-.08.36.12.43.12.7a5,5,0,0,0,.7,1.51V29c.29.44.45,1,.93,1.28v.11c0,.1.11.12.11.23A9.27,9.27,0,0,0,67,32a10.5,10.5,0,0,1,1,.7c.24,0,.15.31.47.23V33c.29,0,.36.19.58.24s.29.25.58.23c0,.1,0,.11.12.12.28-.05.25.21.58.11.1.18.37.17.58.24a11.19,11.19,0,0,0,1.39.23h.12a2.4,2.4,0,0,0,1.63,0h.12a.75.75,0,0,0,.58-.12h.34c.36-.15.94-.07,1.17-.35h.11a2.34,2.34,0,0,0,.93-.35c.19,0,.2-.11.35-.11a10.14,10.14,0,0,0,3.37-2.68v-.11c.4-.22.53-.71.82-1.05,0-.22.25-.29.23-.58a6.76,6.76,0,0,0,1-2.91v-.11c-.1-.33.16-.3.11-.58H75.61V21.85H87.35v4.07a2.07,2.07,0,0,0-.11.93c-.12,0-.1.15-.12.24.08.35-.2.34-.12.69a2,2,0,0,0-.23.82v.11a.5.5,0,0,0-.23.47.63.63,0,0,0-.12.46h-.11a7.91,7.91,0,0,1-.59,1.28c0,.1-.11.12-.11.24A5.38,5.38,0,0,0,85,32c0,.27-.41.21-.35.58h-.12c0,.24-.31.23-.35.46a13.13,13.13,0,0,0-1.62,1.63,11.27,11.27,0,0,0-1.4,1.17h-.12A23.14,23.14,0,0,1,78.4,37.2c-.19,0-.2.11-.35.12a16.22,16.22,0,0,0-1.63.46h-.11c-.57,0-1.09.16-1.63.23h-3a.66.66,0,0,0-.47-.11h-.46a.67.67,0,0,0-.47-.12h-.11v-.11c-.41.09-.45-.18-.82-.12a.58.58,0,0,0-.35-.12,2.66,2.66,0,0,0-.69-.23h-.12c-.19-.28-.68-.25-.93-.46a.48.48,0,0,0-.35-.12V36.5c-.17-.06-.29-.17-.46-.23h-.12A.72.72,0,0,0,66,36h-.11v-.12a6.14,6.14,0,0,0-1.17-.7c0-.09,0-.11-.11-.11-.93-.85-1.83-1.74-2.68-2.68,0-.09,0-.1-.11-.11a2.52,2.52,0,0,0-.7-1.05c0-.19-.11-.2-.12-.35s-.07-.32-.23-.35a2.87,2.87,0,0,1-.35.59v.11h-.11a5.1,5.1,0,0,1-.93,1.4c0,.09-.12.11-.12.23a2.44,2.44,0,0,0-.81.93.55.55,0,0,0-.35.35c-.1,0-.11,0-.12.11s-.11.05-.12.12c-.82.53-1.55,1.16-2.32,1.74h-.12a8.73,8.73,0,0,0-1.28.7H54c-.18.17-.55.16-.7.35h-.12a25.35,25.35,0,0,1-2.67.7h-.12c-.35-.09-.42.12-.69.11h-3c-.43-.15-1-.1-1.51-.23-.28,0-.25-.21-.58-.11a.53.53,0,0,0-.35-.12h-.11A11.4,11.4,0,0,0,42.59,37h-.11a.77.77,0,0,0-.35-.23H42c-.59-.42-1.28-.74-1.86-1.17H40v-.11c-.38-.1-.51-.42-.82-.58h-.11a1,1,0,0,0-.47-.47,6.37,6.37,0,0,0-1.16-1.16c-.36-.42-.7-.86-1-1.28,0,.21-.14.24-.11.46v.12H36.2c0,.29-.18.36-.23.58v.12c-.1,0-.11,0-.12.11-.05.23-.25.3-.23.59H35.5c-.43.8-1.22,1.25-1.74,2h-.12c-.5.43-1.21.65-1.74,1h-.23c-.1,0-.12.12-.23.12h-.12c-.2.1-.58,0-.7.23H30.5c-.16.06-.6-.14-.58.11h-.46a10.27,10.27,0,0,1-1.51.12H20.74c.08-8.91-.16-18.14.12-26.86h5.69c.28,0,.44.19.82.12s.55.14.93.12h.34c0,.13.22.1.35.12a.73.73,0,0,0,.47.11c0,.11.14.09.23.12h.12A7.43,7.43,0,0,1,33.64,15v.11a9,9,0,0,1,.58,4.07v.12a.52.52,0,0,0-.11.35,7.93,7.93,0,0,0-.23,1c-.1,0-.11,0-.12.12-.1.29-.32.46-.35.81-.47.46-.84,1-1.28,1.51a7.61,7.61,0,0,1,2,1.05c.23.22.07-.93.11-1.28v-.81c0-.28.22-.25.12-.58v-.12c.11-.47.24-.93.35-1.39v-.12c.22-.16.17-.6.35-.82a2.66,2.66,0,0,0,.23-.69c.1,0,.11-.05.12-.12v-.11a18.24,18.24,0,0,1,3.83-4.77c.1,0,.11,0,.12-.12.32.09.23-.23.47-.23V12.9c.09,0,.11-.11.23-.11A12.08,12.08,0,0,0,41.2,12h.12c.09,0,.11,0,.11-.11h.12l1.39-.7h.12c.28-.26.89-.19,1.16-.47h.23a.54.54,0,0,1,.35-.11h.12c.21-.14.68,0,.81-.23h.35c.41.09.45-.18.82-.12Zm1.86,3.84H47.36a7.21,7.21,0,0,0-2.21.46,2.88,2.88,0,0,0-.7.23A.52.52,0,0,0,44,15h-.12a3,3,0,0,0-.93.58h-.11c-.29.21-.66.35-.82.7H41.9a9.93,9.93,0,0,0-1.86,2v.12c-.26.09-.29.4-.47.58s-.25.29-.23.58a2.1,2.1,0,0,0-.47.93v.12a2.6,2.6,0,0,0-.34,1.16v.11a4.86,4.86,0,0,0-.24,1.28v.12a2.4,2.4,0,0,0,0,1.63v.23a6.37,6.37,0,0,0,.47,2.09A2,2,0,0,0,39,28a3.24,3.24,0,0,0,.58,1.16v.12c.17,0,.13.25.24.34.21.29.35.66.69.82v.11a10,10,0,0,0,1.86,1.75h.12c0,.13.13.18.23.23s.15.32.47.23a2.28,2.28,0,0,0,.69.47H44a.54.54,0,0,0,.46.23c.16,0,.23.16.47.12a3.37,3.37,0,0,0,1.63.46h.11c.16,0,.23.17.47.12h.23a2.4,2.4,0,0,0,1.63,0h.23a.67.67,0,0,0,.47-.12,5.09,5.09,0,0,0,1.62-.35,5.76,5.76,0,0,0,2-.93h.12c.75-.41,1.25-1.07,2-1.51V31c.13,0,.18-.13.23-.23.39-.2.54-.63.82-.93A5.06,5.06,0,0,0,57,28.83c.2-.11.21-.41.35-.58v-.12a2.69,2.69,0,0,0,.35-.93c0-.15.16-.22.11-.46s.15-.16.12-.35c0-.38.21-.49.12-.93a2.59,2.59,0,0,0,.11-1.05v-.58a4.16,4.16,0,0,0-.11-1.16,2,2,0,0,0-.12-.82.52.52,0,0,0-.12-.34,2,2,0,0,0-.23-.82c-.06-.2-.06-.48-.23-.58a5,5,0,0,0-.47-1.05,2,2,0,0,0-.34-.46v-.12a11,11,0,0,0-1.75-2c-.16,0-.2-.19-.35-.23a3,3,0,0,0-1-.82h-.12c-.16-.34-.64-.37-.93-.58a3.94,3.94,0,0,0-1.16-.35,6,6,0,0,0-2.33-.46M24.81,22.2h1.63a4,4,0,0,0,2-.46h.23A3.34,3.34,0,0,0,30.16,20v-.24a1.58,1.58,0,0,0,.23-.93v-.58c-.07-.28.15-.84-.12-.93a.78.78,0,0,0-.11-.58,2.54,2.54,0,0,0-1.28-1.63c-.22,0-.21-.33-.58-.23a.58.58,0,0,0-.59-.23H27.6a.18.18,0,0,0-.23-.12H27a8.22,8.22,0,0,0-2.21-.11,50.52,50.52,0,0,0,0,7.78m0,3.49a22.07,22.07,0,0,0-.12,3.95c0,1.2-.38,3.62,0,4.07s1.94-.06,2.68,0h.11c.4,0,.94.09,1.16-.11h.24a4,4,0,0,0,3.49-2.33v-.11a2.54,2.54,0,0,0,.23-2,1.9,1.9,0,0,0-.23-1.05,3.61,3.61,0,0,0-1.75-1.86H30.5a5.82,5.82,0,0,0-2.32-.58h-.12c-.16-.26-.81,0-1.16-.11-.66.07-1.62-.16-2.09.11"/><path class="g" d="M34.22,46.15a2.72,2.72,0,0,1,1.28-.35c.29.18.72.21.93.47h.12a4.67,4.67,0,0,1,.7,1.51v2c.09.32-.17.3-.12.58-.11.23-.24.46-.35.69s-.52.49-.81.7c-.28,0-.25.21-.58.12H35c-.65-.13-.95-.6-1.4-.93V50.8c-.15-.27-.19-.66-.35-.93v-.11a.76.76,0,0,0-.11-.59v-.69c.15-.43.17-1,.35-1.4V47a6,6,0,0,0,.69-.82m1.17,1.16c-.48,0-.52.49-.58.93a1.44,1.44,0,0,0,0,1.28,1.84,1.84,0,0,0,.23.82h.46c.12-.16.12-.43.24-.58v-.35a2.57,2.57,0,0,0,0-1.17v-.35c0-.27-.12-.5-.35-.58"/><path class="g" d="M46.78,46.5a2.9,2.9,0,0,1,1.4-.7h.34c.75.15,1.08.71,1.51,1.17v.11c0,.17,0,.33-.11.35H49.8c-.31.2-.74.27-1,.47h-.12c0-1-1.1-.44-.93.34a1.79,1.79,0,0,0,0,1.4v.12c0,.29.18.36.23.58h.58a2.51,2.51,0,0,1,.24-.7c-.17-.06-.6.14-.58-.12V48.36h2.09v.35a12.82,12.82,0,0,1-.35,2.09c-.37.49-.68,1-1.51,1.05h-.7a.77.77,0,0,0-.35-.23h-.12a6.22,6.22,0,0,1-.92-1.28v-.12c0-.24-.09-.31-.12-.46v-2h.12a1.76,1.76,0,0,1,.23-.81c0-.24.31-.15.23-.47"/><path class="g" d="M60.27,46a4.79,4.79,0,0,1,.81-.24h.12c.14.16.54.07.69.24s.49.2.59.46a2.56,2.56,0,0,1,.58,1.63v1.74c0,.21-.15.25-.12.47a7.15,7.15,0,0,1-.7,1.16h-.11c-1.32,1-2.79-.3-3-1.51v-.23a2.59,2.59,0,0,0-.11-1v-.12h.11a2.73,2.73,0,0,1,.47-1.86v-.11a1.79,1.79,0,0,0,.58-.58Zm1.27,1.85c0-.85-1-.59-.93.12v.12a1.77,1.77,0,0,0,0,1.39c0,.14,0,.33.12.35V50c0,.36.25.37.58.35a3,3,0,0,0,.23-2.1Z"/><path class="g" d="M31.55,56.38a1.59,1.59,0,0,1,1.28-.11H33a2.68,2.68,0,0,1,1.39,1.85v.24a9.13,9.13,0,0,1-.11,2.21v.11c-.12,0-.09.14-.12.24a2.68,2.68,0,0,1-.7.92,1.58,1.58,0,0,1-.81.35c-.47.08-.67-.11-1.05-.11V62c-.59-.14-.71-.76-1-1.16.09-.33-.17-.3-.12-.58V58c.12-.15.11-.43.23-.58v-.12c.24-.35.59-.57.82-.93Zm1.28,2.21a3.09,3.09,0,0,0-.23-.93c-.52-.09-.65.21-.7.58v.58c-.24.1-.12.81,0,.93v.58c.22,0,.08.39.35.35.42.08.46-.24.46-.58.1,0,.14-.1.12-.23a1.51,1.51,0,0,0,0-1.28"/><path class="g" d="M41.08,56.5a7.81,7.81,0,0,0,.93-.35h.12c.33-.1.3.16.58.12h.12c.58.18.27,1.27.35,2h-.12v-.12c-.08-.26-.35-.34-.58-.46h-.35a.7.7,0,0,0-.12.46,2.62,2.62,0,0,0,.93.82v.12A2.21,2.21,0,0,1,42.6,62h-.12c-.09.1-.32.07-.35.24H41.2c-.19-.17-.6-.1-.7-.35V60.8c.07-.17-.13-.6.12-.58.08.26.35.35.58.46h.58c0-.29.22-.36,0-.58s-.17-.37-.46-.35c0-.1,0-.11-.12-.11a1,1,0,0,0-.46-.47c0-.37-.27-.51-.24-.93a1.93,1.93,0,0,1,.24-1.16c.1-.21.28-.34.34-.58"/></g></g></svg>