<svg xmlns="http://www.w3.org/2000/svg" xmlns:xlink="http://www.w3.org/1999/xlink" viewBox="0 0 137.5 109.41"><defs><style>.a{fill:none;}.b{fill:#7e8083;}.c{opacity:0.7;}.d{clip-path:url(#a);}.e,.f{fill:#696b6d;}.e{fill-rule:evenodd;}</style><clipPath id="a"><rect class="a" x="1.26" width="135.2" height="61.78"/></clipPath></defs><path class="b" d="M5,78.8a3,3,0,0,1-1,.55,4,4,0,0,1-1.33.19H1.61L1,82.26H0L1.68,75H3.59a4.24,4.24,0,0,1,1.1.12,2.13,2.13,0,0,1,.71.33,1.52,1.52,0,0,1,.44.54,1.75,1.75,0,0,1,.15.76,2.47,2.47,0,0,1-.26,1.13A2.63,2.63,0,0,1,5,78.8Zm0-1.9a1.18,1.18,0,0,0-.09-.46.81.81,0,0,0-.25-.35,1.21,1.21,0,0,0-.5-.23,3,3,0,0,0-.74-.07h-.9l-.69,3h.87a3.76,3.76,0,0,0,1-.11,1.7,1.7,0,0,0,.67-.34,1.8,1.8,0,0,0,.49-.62A1.82,1.82,0,0,0,5,76.9Z"/><path class="b" d="M8.64,74.66l-1.76,7.6H6l1.75-7.6Z"/><path class="b" d="M12.16,81.68l-.36.22a2.94,2.94,0,0,1-.46.25,3.53,3.53,0,0,1-.55.19,3.11,3.11,0,0,1-.71.07A1.47,1.47,0,0,1,9,82a1.27,1.27,0,0,1-.4-1A2,2,0,0,1,8.9,80a2.12,2.12,0,0,1,.85-.73,4.34,4.34,0,0,1,1.33-.4,12.77,12.77,0,0,1,1.78-.16c0-.09,0-.17.05-.23a1.49,1.49,0,0,0,0-.21.63.63,0,0,0-.1-.38.67.67,0,0,0-.26-.24,1.17,1.17,0,0,0-.4-.12,3.84,3.84,0,0,0-.5,0,4,4,0,0,0-.95.14,7.08,7.08,0,0,0-.86.26h0l.18-.92c.19,0,.46-.1.82-.16a6.15,6.15,0,0,1,1-.09,3,3,0,0,1,1.52.31,1.1,1.1,0,0,1,.51,1c0,.09,0,.18,0,.28l-.06.28-.85,3.7H12Zm.54-2.29a10.07,10.07,0,0,0-1.34.11,3.9,3.9,0,0,0-1,.25,1.35,1.35,0,0,0-.61.43,1.19,1.19,0,0,0-.2.69.66.66,0,0,0,.24.54,1.24,1.24,0,0,0,.74.18,2.17,2.17,0,0,0,.91-.2,5.51,5.51,0,0,0,.86-.47Z"/><path class="b" d="M20.17,78.05c0,.08,0,.19,0,.32s0,.25-.06.35l-.82,3.54h-.91l.71-3.1c0-.18.07-.33.09-.46a2.34,2.34,0,0,0,0-.38.89.89,0,0,0-.2-.62,1.06,1.06,0,0,0-.73-.2,1.93,1.93,0,0,0-.82.2,7,7,0,0,0-.88.49l-.94,4.07h-.91L16,76.81h.91l-.14.6a6,6,0,0,1,1-.56,2.39,2.39,0,0,1,.94-.19,1.53,1.53,0,0,1,1.11.36A1.28,1.28,0,0,1,20.17,78.05Z"/><path class="b" d="M31.09,75l-.19.82H27.08l-.48,2.06h3.83l-.19.82H26.41l-.63,2.75H29.6l-.19.82H24.62L26.3,75Z"/><path class="b" d="M32.58,82.39a3.64,3.64,0,0,1-1.09-.15,4.52,4.52,0,0,1-.81-.33l.21-1h.05l.26.21a2.61,2.61,0,0,0,.42.24,3,3,0,0,0,.53.19,2.47,2.47,0,0,0,.63.08,2,2,0,0,0,1.08-.25.84.84,0,0,0,.39-.75.48.48,0,0,0-.2-.4,1.89,1.89,0,0,0-.58-.23L33,79.93l-.53-.13a1.68,1.68,0,0,1-.85-.47,1.07,1.07,0,0,1-.27-.74,1.57,1.57,0,0,1,.16-.71,1.8,1.8,0,0,1,.5-.61,2.28,2.28,0,0,1,.79-.43,3.31,3.31,0,0,1,1.08-.16,4,4,0,0,1,1,.12,3,3,0,0,1,.79.3l-.19.94h-.05l-.24-.17a2.39,2.39,0,0,0-.4-.22,2.56,2.56,0,0,0-.49-.16,2.25,2.25,0,0,0-.58-.07,1.73,1.73,0,0,0-1,.25.81.81,0,0,0-.39.7.53.53,0,0,0,.19.41,1.26,1.26,0,0,0,.57.26l.5.11.5.11a1.67,1.67,0,0,1,.85.44,1,1,0,0,1,.29.74,1.62,1.62,0,0,1-.18.74,1.79,1.79,0,0,1-.51.62,2.68,2.68,0,0,1-.84.44A3.82,3.82,0,0,1,32.58,82.39Z"/><path class="b" d="M38.45,82.38a3.21,3.21,0,0,1-.92-.12,1.86,1.86,0,0,1-.69-.38,1.73,1.73,0,0,1-.45-.64,2.5,2.5,0,0,1-.15-.9,4.42,4.42,0,0,1,.23-1.43,3.57,3.57,0,0,1,.68-1.17,3.21,3.21,0,0,1,2.4-1.06,2.92,2.92,0,0,1,.9.13,4.34,4.34,0,0,1,.75.31l-.2,1h-.06l-.24-.21a2.3,2.3,0,0,0-.79-.39,2,2,0,0,0-.56-.07,1.84,1.84,0,0,0-1.55.8,3.19,3.19,0,0,0-.59,1.94,1.5,1.5,0,0,0,.35,1.06,1.36,1.36,0,0,0,1,.37,2.15,2.15,0,0,0,.61-.09,3.55,3.55,0,0,0,.53-.19,3.09,3.09,0,0,0,.44-.24,2.34,2.34,0,0,0,.3-.19h0l-.19,1a6.9,6.9,0,0,1-.9.33A3.19,3.19,0,0,1,38.45,82.38Z"/><path class="b" d="M46.66,78.74a4.42,4.42,0,0,1-.23,1.4,3.65,3.65,0,0,1-.63,1.17,3,3,0,0,1-1,.81,2.67,2.67,0,0,1-1.29.29A2,2,0,0,1,42,81.86a2.1,2.1,0,0,1-.54-1.53,4.32,4.32,0,0,1,.22-1.4,3.74,3.74,0,0,1,.64-1.18,3.09,3.09,0,0,1,1-.8,2.94,2.94,0,0,1,1.29-.29,1.89,1.89,0,0,1,2.06,2.08Zm-1.5,2.06a2.89,2.89,0,0,0,.4-.91,3.81,3.81,0,0,0,.14-1.08,1.52,1.52,0,0,0-.32-1,1.23,1.23,0,0,0-.93-.35,1.64,1.64,0,0,0-.85.23,2.24,2.24,0,0,0-.65.62,3,3,0,0,0-.4.91,3.79,3.79,0,0,0-.14,1.07,1.51,1.51,0,0,0,.32,1,1.17,1.17,0,0,0,.93.37,1.64,1.64,0,0,0,.85-.23A2,2,0,0,0,45.16,80.8Z"/><path class="b" d="M50.05,74.66l-1.76,7.6h-.92l1.76-7.6Z"/><path class="b" d="M53.57,81.68l-.36.22a2.94,2.94,0,0,1-.46.25,3.67,3.67,0,0,1-.56.19,3,3,0,0,1-.71.07,1.44,1.44,0,0,1-1-.38,1.28,1.28,0,0,1-.41-1,2,2,0,0,1,.29-1.1,2.05,2.05,0,0,1,.85-.73,4.26,4.26,0,0,1,1.33-.4,12.76,12.76,0,0,1,1.77-.16c0-.09,0-.17.05-.23a.75.75,0,0,0,0-.21.71.71,0,0,0-.09-.38A.67.67,0,0,0,54,77.6a1.25,1.25,0,0,0-.4-.12,3.84,3.84,0,0,0-.5,0,3.9,3.9,0,0,0-.95.14,7.31,7.31,0,0,0-.87.26h0l.18-.92c.18,0,.45-.1.81-.16a6.24,6.24,0,0,1,1-.09,3,3,0,0,1,1.53.31,1.11,1.11,0,0,1,.5,1,1.37,1.37,0,0,1,0,.28,2.33,2.33,0,0,1,0,.28l-.85,3.7h-.91Zm.53-2.29a10.06,10.06,0,0,0-1.33.11,4.12,4.12,0,0,0-1,.25,1.37,1.37,0,0,0-.6.43,1.13,1.13,0,0,0-.2.69.66.66,0,0,0,.24.54,1.2,1.2,0,0,0,.74.18,2.16,2.16,0,0,0,.9-.2,4.73,4.73,0,0,0,.86-.47Z"/><path class="b" d="M60.52,77.77h-.05l-.36-.07-.41,0a2.12,2.12,0,0,0-.91.21,5.43,5.43,0,0,0-.87.5L57,82.26h-.93l1.25-5.45h.92l-.18.8A5.78,5.78,0,0,1,59.2,77a2.53,2.53,0,0,1,.87-.17h.35l.31.05Z"/><path class="b" d="M70.08,74.66l-1.76,7.6H67.4l.13-.57a5.6,5.6,0,0,1-1,.57,2.27,2.27,0,0,1-.83.15,1.57,1.57,0,0,1-1.22-.49A2,2,0,0,1,64,80.5,4.5,4.5,0,0,1,64.28,79,4.27,4.27,0,0,1,65,77.79a3,3,0,0,1,1-.83,2.51,2.51,0,0,1,1.2-.3,3.38,3.38,0,0,1,.8.09,2.38,2.38,0,0,1,.68.28l.55-2.37Zm-1.64,3.13a2.63,2.63,0,0,0-.65-.25,2.41,2.41,0,0,0-.67-.08,1.71,1.71,0,0,0-.9.24,2.17,2.17,0,0,0-.68.67,2.81,2.81,0,0,0-.4.93,4.33,4.33,0,0,0-.14,1,1.37,1.37,0,0,0,.26.91,1,1,0,0,0,.83.31,2,2,0,0,0,.83-.2,6.54,6.54,0,0,0,.79-.45Z"/><path class="b" d="M72.71,82.39a2.74,2.74,0,0,1-1.78-.53,1.92,1.92,0,0,1-.64-1.56,3.74,3.74,0,0,1,.94-2.57,3,3,0,0,1,2.35-1.07,2,2,0,0,1,1.42.46,1.72,1.72,0,0,1,.49,1.29c0,.1,0,.26,0,.47s-.08.45-.14.73h-4c0,.1,0,.19,0,.28a2.35,2.35,0,0,0,0,.26,1.4,1.4,0,0,0,.42,1.08,1.69,1.69,0,0,0,1.19.39A3.2,3.2,0,0,0,74,81.41a4.42,4.42,0,0,0,1-.47H75l-.2,1-.44.16a4.48,4.48,0,0,1-.5.15l-.54.11A3.15,3.15,0,0,1,72.71,82.39Zm1.83-3.45c0-.09,0-.17,0-.24v-.21a1.13,1.13,0,0,0-.28-.82,1.27,1.27,0,0,0-.92-.29,1.9,1.9,0,0,0-1.23.43,2,2,0,0,0-.72,1.13Z"/><path class="b" d="M86.14,75l-.19.82H82.12l-.47,2.06h3.83l-.19.82H81.46l-.63,2.75h3.82l-.19.82H79.67L81.35,75Z"/><path class="b" d="M94.79,78c0,.11,0,.22,0,.35s0,.24-.07.36l-.82,3.54H93l.71-3.1c0-.18.08-.34.1-.48a3.32,3.32,0,0,0,0-.41.81.81,0,0,0-.19-.57.93.93,0,0,0-.71-.2,1.81,1.81,0,0,0-.81.21,6.84,6.84,0,0,0-.86.5c0,.08,0,.18,0,.28s0,.2,0,.28l-.81,3.49h-.91l.71-3.1c0-.21.08-.37.1-.5a1.72,1.72,0,0,0,0-.39.69.69,0,0,0-.24-.61,1.17,1.17,0,0,0-.66-.16,1.91,1.91,0,0,0-.66.14,6.74,6.74,0,0,0-1,.55l-.94,4.07h-.92l1.26-5.45h.92l-.14.6a6.52,6.52,0,0,1,1-.55,2.09,2.09,0,0,1,.92-.2,1.54,1.54,0,0,1,.9.23,1.08,1.08,0,0,1,.45.65,5.93,5.93,0,0,1,1.16-.68,2.84,2.84,0,0,1,1-.2,1.46,1.46,0,0,1,1.08.35A1.35,1.35,0,0,1,94.79,78Z"/><path class="b" d="M98.23,82.39a2.73,2.73,0,0,1-1.77-.53,1.92,1.92,0,0,1-.64-1.56,3.74,3.74,0,0,1,.94-2.57,3,3,0,0,1,2.34-1.07,2,2,0,0,1,1.42.46,1.69,1.69,0,0,1,.5,1.29,4,4,0,0,1,0,.47,6.73,6.73,0,0,1-.13.73h-4c0,.1,0,.19,0,.28a2.35,2.35,0,0,0,0,.26,1.4,1.4,0,0,0,.42,1.08,1.67,1.67,0,0,0,1.19.39,3.11,3.11,0,0,0,1.1-.21,4.77,4.77,0,0,0,1-.47h0l-.2,1-.44.16a4.23,4.23,0,0,1-.49.15l-.54.11A3.27,3.27,0,0,1,98.23,82.39Zm1.84-3.45c0-.09,0-.17,0-.24a1.34,1.34,0,0,0,0-.21,1.13,1.13,0,0,0-.28-.82,1.27,1.27,0,0,0-.92-.29,1.9,1.9,0,0,0-1.23.43A2.09,2.09,0,0,0,97,78.94Z"/><path class="b" d="M106,77.77h0l-.37-.07-.4,0a2.12,2.12,0,0,0-.91.21,5.43,5.43,0,0,0-.87.5l-.88,3.87h-.93l1.25-5.45h.92l-.18.8a5.78,5.78,0,0,1,1.1-.63,2.53,2.53,0,0,1,.87-.17h.34l.32.05Z"/><path class="b" d="M111.54,76.81l-1.11,4.85a3.73,3.73,0,0,1-1.05,2,3,3,0,0,1-2,.64,5,5,0,0,1-.85-.07,5.62,5.62,0,0,1-.78-.17l.21-.91h0a4,4,0,0,0,.73.23,3.51,3.51,0,0,0,.88.12,2.3,2.3,0,0,0,.79-.12,1.49,1.49,0,0,0,.53-.33,1.77,1.77,0,0,0,.34-.47,3.36,3.36,0,0,0,.2-.61l.11-.48a6,6,0,0,1-.87.5,2.6,2.6,0,0,1-1,.16,1.61,1.61,0,0,1-1.25-.49,1.93,1.93,0,0,1-.44-1.37,4.21,4.21,0,0,1,.87-2.56,3.17,3.17,0,0,1,1-.8,2.59,2.59,0,0,1,1.22-.3,3.12,3.12,0,0,1,.84.1,2.69,2.69,0,0,1,.64.28l.11-.23Zm-1.13,1a3.23,3.23,0,0,0-.65-.25,2.5,2.5,0,0,0-.66-.09,1.87,1.87,0,0,0-.88.21,2.19,2.19,0,0,0-.68.61,2.92,2.92,0,0,0-.41.87,3.6,3.6,0,0,0-.15,1,1.39,1.39,0,0,0,.26.89,1.05,1.05,0,0,0,.85.31,2,2,0,0,0,.82-.17,4.3,4.3,0,0,0,.82-.43Z"/><path class="b" d="M114.67,82.39a2.73,2.73,0,0,1-1.77-.53,1.92,1.92,0,0,1-.64-1.56,3.74,3.74,0,0,1,.94-2.57,3,3,0,0,1,2.34-1.07,2,2,0,0,1,1.42.46,1.69,1.69,0,0,1,.5,1.29c0,.1,0,.26,0,.47s-.08.45-.14.73h-4c0,.1,0,.19,0,.28a2.35,2.35,0,0,0,0,.26,1.4,1.4,0,0,0,.42,1.08,1.67,1.67,0,0,0,1.19.39,3.11,3.11,0,0,0,1.1-.21,4.77,4.77,0,0,0,1-.47h.05l-.2,1-.44.16a4.23,4.23,0,0,1-.49.15l-.54.11A3.27,3.27,0,0,1,114.67,82.39Zm1.84-3.45a1.12,1.12,0,0,0,0-.24,1.34,1.34,0,0,0,0-.21,1.13,1.13,0,0,0-.28-.82,1.27,1.27,0,0,0-.92-.29,1.9,1.9,0,0,0-1.23.43,2.09,2.09,0,0,0-.73,1.13Z"/><path class="b" d="M123.52,78.05a2.23,2.23,0,0,1,0,.32,1.7,1.7,0,0,1-.06.35l-.81,3.54h-.92l.71-3.1c0-.18.07-.33.09-.46a1.58,1.58,0,0,0,0-.38.85.85,0,0,0-.21-.62,1,1,0,0,0-.73-.2,1.93,1.93,0,0,0-.82.2,6.24,6.24,0,0,0-.87.49L119,82.26h-.92l1.26-5.45h.92l-.14.6a5.61,5.61,0,0,1,1-.56,2.32,2.32,0,0,1,.94-.19,1.56,1.56,0,0,1,1.11.36A1.32,1.32,0,0,1,123.52,78.05Z"/><path class="b" d="M126.74,82.38a3.14,3.14,0,0,1-.91-.12,1.9,1.9,0,0,1-.7-.38,1.7,1.7,0,0,1-.44-.64,2.29,2.29,0,0,1-.16-.9,4.17,4.17,0,0,1,.24-1.43,3.57,3.57,0,0,1,.68-1.17,2.92,2.92,0,0,1,1-.77,3.09,3.09,0,0,1,1.35-.29,2.92,2.92,0,0,1,.9.13,3.92,3.92,0,0,1,.74.31l-.2,1h0l-.25-.21a1.82,1.82,0,0,0-.34-.22,2,2,0,0,0-.45-.17,1.88,1.88,0,0,0-.55-.07,1.83,1.83,0,0,0-1.55.8,3.13,3.13,0,0,0-.6,1.94,1.46,1.46,0,0,0,.36,1.06,1.34,1.34,0,0,0,1,.37,2.15,2.15,0,0,0,.61-.09,3,3,0,0,0,.52-.19,3.21,3.21,0,0,0,.45-.24l.3-.19h.05l-.2,1a6.27,6.27,0,0,1-.89.33A3.21,3.21,0,0,1,126.74,82.38Z"/><path class="b" d="M131.78,76.81l-1.26,5.45h-.92l1.26-5.45Zm.5-1.87-.23,1h-1l.22-1Z"/><path class="b" d="M135.8,81.68l-.36.22a3.47,3.47,0,0,1-.46.25,4.08,4.08,0,0,1-.56.19,3,3,0,0,1-.71.07,1.44,1.44,0,0,1-1.05-.38,1.28,1.28,0,0,1-.41-1,2,2,0,0,1,.29-1.1,2.09,2.09,0,0,1,.84-.73,4.43,4.43,0,0,1,1.33-.4,12.92,12.92,0,0,1,1.78-.16c0-.09,0-.17,0-.23a1.49,1.49,0,0,0,0-.21.71.71,0,0,0-.09-.38.64.64,0,0,0-.27-.24,1.12,1.12,0,0,0-.39-.12,4,4,0,0,0-.51,0,3.89,3.89,0,0,0-.94.14,6.78,6.78,0,0,0-.87.26h-.05l.18-.92c.19,0,.46-.1.82-.16a6.24,6.24,0,0,1,1-.09A2.93,2.93,0,0,1,137,77a1.1,1.1,0,0,1,.51,1c0,.09,0,.18,0,.28s0,.19,0,.28l-.86,3.7h-.91Zm.53-2.29a10.22,10.22,0,0,0-1.34.11,3.9,3.9,0,0,0-1,.25,1.26,1.26,0,0,0-.6.43,1.13,1.13,0,0,0-.21.69.66.66,0,0,0,.24.54,1.24,1.24,0,0,0,.74.18,2.17,2.17,0,0,0,.91-.2,5.09,5.09,0,0,0,.86-.47Z"/><path class="b" d="M11.26,95.27h-1l1.59-2.33-1-5.13h1l.77,4.06,2.6-4.06h1Z"/><path class="b" d="M23,93.39a3.11,3.11,0,0,1-2.16-.71,2.6,2.6,0,0,1-.79-2,5.74,5.74,0,0,1,.3-1.88,4.75,4.75,0,0,1,.87-1.52,4.14,4.14,0,0,1,1.38-1,4.37,4.37,0,0,1,1.83-.37,4.56,4.56,0,0,1,1.19.15,4.91,4.91,0,0,1,1.15.49l-.22,1.09h-.07c-.11-.11-.21-.21-.32-.3a2.68,2.68,0,0,0-.49-.3,2.51,2.51,0,0,0-.64-.24,3.47,3.47,0,0,0-.82-.1,2.81,2.81,0,0,0-1.26.29,3,3,0,0,0-1,.8A3.86,3.86,0,0,0,21.35,89a4.74,4.74,0,0,0-.23,1.52A2.22,2.22,0,0,0,21.64,92a2,2,0,0,0,1.51.56,3.66,3.66,0,0,0,.88-.11,3.89,3.89,0,0,0,.75-.27,3.74,3.74,0,0,0,.57-.31l.44-.31h.07l-.23,1.12a8.28,8.28,0,0,1-1.18.47A5,5,0,0,1,23,93.39Z"/><path class="b" d="M32,89.74a4.41,4.41,0,0,1-.22,1.4,3.48,3.48,0,0,1-.64,1.17,3,3,0,0,1-1,.81,2.68,2.68,0,0,1-1.3.29,2,2,0,0,1-1.51-.55,2.11,2.11,0,0,1-.55-1.53,4.33,4.33,0,0,1,.23-1.4,3.55,3.55,0,0,1,.64-1.18,3.09,3.09,0,0,1,1-.8A2.91,2.91,0,0,1,30,87.66,1.88,1.88,0,0,1,32,89.74ZM30.55,91.8a2.89,2.89,0,0,0,.4-.91,3.81,3.81,0,0,0,.14-1.08,1.48,1.48,0,0,0-.33-1,1.19,1.19,0,0,0-.92-.35,1.64,1.64,0,0,0-.85.23,2.24,2.24,0,0,0-.65.62,3,3,0,0,0-.4.91,3.79,3.79,0,0,0-.14,1.07,1.51,1.51,0,0,0,.32,1,1.17,1.17,0,0,0,.93.37,1.64,1.64,0,0,0,.85-.23A2.13,2.13,0,0,0,30.55,91.8Z"/><path class="b" d="M38.22,89.05a2.23,2.23,0,0,1,0,.32,1.7,1.7,0,0,1-.06.35l-.81,3.54H36.4l.71-3.1c0-.18.07-.33.09-.46a1.58,1.58,0,0,0,0-.38A.85.85,0,0,0,37,88.7a1,1,0,0,0-.73-.2,1.93,1.93,0,0,0-.82.2,6.24,6.24,0,0,0-.87.49l-.94,4.07h-.92L34,87.81h.92l-.14.6a5.61,5.61,0,0,1,1-.56,2.32,2.32,0,0,1,.94-.19,1.56,1.56,0,0,1,1.11.36A1.32,1.32,0,0,1,38.22,89.05Z"/><path class="b" d="M43.17,87.81l-.16.74h-1.9l-.58,2.52a3.95,3.95,0,0,0-.13.83.71.71,0,0,0,.18.53,1,1,0,0,0,.67.17,1.78,1.78,0,0,0,.47-.07l.38-.1h0l-.17.78a3.63,3.63,0,0,1-.59.11,3.86,3.86,0,0,1-.55.05,1.61,1.61,0,0,1-1-.3,1.09,1.09,0,0,1-.37-.93,3,3,0,0,1,0-.31c0-.1,0-.22.06-.35l.68-2.93h-.62l.17-.74h.62l.37-1.57h.92l-.37,1.57Z"/><path class="b" d="M45.21,87.81,44,93.26H43l1.26-5.45Zm.5-1.87-.22,1h-1l.22-1Z"/><path class="b" d="M51.23,89.05c0,.08,0,.19,0,.32s0,.25-.06.35l-.82,3.54h-.92l.72-3.1c0-.18.07-.33.09-.46a2.34,2.34,0,0,0,0-.38.89.89,0,0,0-.2-.62,1.07,1.07,0,0,0-.74-.2,1.89,1.89,0,0,0-.81.2,7,7,0,0,0-.88.49l-.94,4.07h-.92L47,87.81h.92l-.14.6a6,6,0,0,1,1-.56,2.36,2.36,0,0,1,.94-.19,1.53,1.53,0,0,1,1.11.36A1.28,1.28,0,0,1,51.23,89.05Z"/><path class="b" d="M57.76,87.81l-1.11,4.85a3.8,3.8,0,0,1-1.06,2,3,3,0,0,1-2,.64,4.76,4.76,0,0,1-.84-.07,5.46,5.46,0,0,1-.79-.17l.21-.91h0a4.11,4.11,0,0,0,.74.23,3.49,3.49,0,0,0,.87.12,2.3,2.3,0,0,0,.79-.12,1.45,1.45,0,0,0,.54-.33,2,2,0,0,0,.33-.47,2.73,2.73,0,0,0,.2-.61l.11-.48a6,6,0,0,1-.87.5,2.6,2.6,0,0,1-1,.16,1.58,1.58,0,0,1-1.24-.49,1.93,1.93,0,0,1-.45-1.37A4.24,4.24,0,0,1,52.47,90a4,4,0,0,1,.65-1.19,3.13,3.13,0,0,1,1-.8,2.59,2.59,0,0,1,1.22-.3,3.12,3.12,0,0,1,.84.1,2.52,2.52,0,0,1,.64.28l.12-.23Zm-1.14,1a3.14,3.14,0,0,0-.64-.25,2.57,2.57,0,0,0-.67-.09,1.81,1.81,0,0,0-.87.21,2.08,2.08,0,0,0-.68.61,2.71,2.71,0,0,0-.42.87,3.6,3.6,0,0,0-.15,1,1.33,1.33,0,0,0,.27.89,1,1,0,0,0,.84.31,2,2,0,0,0,.82-.17,4.3,4.3,0,0,0,.82-.43Z"/><path class="b" d="M60.89,93.39a2.74,2.74,0,0,1-1.78-.53,1.92,1.92,0,0,1-.64-1.56,3.75,3.75,0,0,1,1-2.57,3,3,0,0,1,2.34-1.07,2,2,0,0,1,1.42.46,1.68,1.68,0,0,1,.49,1.29,3.5,3.5,0,0,1,0,.47,7,7,0,0,1-.14.73h-4c0,.1,0,.19,0,.28s0,.18,0,.26a1.4,1.4,0,0,0,.42,1.08,1.69,1.69,0,0,0,1.19.39,3.2,3.2,0,0,0,1.11-.21,4.42,4.42,0,0,0,1-.47h.06l-.2,1-.44.16a4.48,4.48,0,0,1-.5.15l-.54.11A3.15,3.15,0,0,1,60.89,93.39Zm1.83-3.45c0-.09,0-.17,0-.24s0-.13,0-.21a1.14,1.14,0,0,0-.29-.82,1.24,1.24,0,0,0-.91-.29,1.91,1.91,0,0,0-1.24.43,2.08,2.08,0,0,0-.72,1.13Z"/><path class="b" d="M69.73,89.05c0,.08,0,.19,0,.32s0,.25-.06.35l-.82,3.54h-.91l.71-3.1c0-.18.07-.33.09-.46a2.34,2.34,0,0,0,0-.38.89.89,0,0,0-.2-.62,1.06,1.06,0,0,0-.73-.2,1.89,1.89,0,0,0-.82.2,7,7,0,0,0-.88.49l-.94,4.07h-.91l1.26-5.45h.91l-.14.6a6,6,0,0,1,1-.56,2.39,2.39,0,0,1,.94-.19,1.53,1.53,0,0,1,1.11.36A1.28,1.28,0,0,1,69.73,89.05Z"/><path class="b" d="M73,93.38a3.21,3.21,0,0,1-.92-.12,1.86,1.86,0,0,1-.69-.38,1.73,1.73,0,0,1-.45-.64,2.5,2.5,0,0,1-.15-.9A4.42,4.42,0,0,1,71,89.91a3.57,3.57,0,0,1,.68-1.17,3.21,3.21,0,0,1,2.4-1.06,2.92,2.92,0,0,1,.9.13,4.34,4.34,0,0,1,.75.31l-.2,1h-.06l-.24-.21a2.3,2.3,0,0,0-.79-.39,2,2,0,0,0-.56-.07,1.84,1.84,0,0,0-1.55.8,3.19,3.19,0,0,0-.59,1.94,1.46,1.46,0,0,0,.35,1.06,1.36,1.36,0,0,0,1,.37,2.15,2.15,0,0,0,.61-.09,3.55,3.55,0,0,0,.53-.19,3.09,3.09,0,0,0,.44-.24,2.34,2.34,0,0,0,.3-.19H75l-.19,1a6.9,6.9,0,0,1-.9.33A3.19,3.19,0,0,1,73,93.38Z"/><path class="b" d="M78,87.81l-1.26,5.45h-.92l1.26-5.45Zm.5-1.87-.22,1h-1l.22-1Z"/><path class="b" d="M82,92.68l-.36.22a2.94,2.94,0,0,1-.46.25,3.67,3.67,0,0,1-.56.19,3,3,0,0,1-.71.07,1.44,1.44,0,0,1-1-.38,1.28,1.28,0,0,1-.41-1,2,2,0,0,1,.29-1.1,2.05,2.05,0,0,1,.85-.73,4.26,4.26,0,0,1,1.33-.4,12.76,12.76,0,0,1,1.77-.16c0-.09,0-.17,0-.23a.75.75,0,0,0,0-.21.71.71,0,0,0-.09-.38.67.67,0,0,0-.26-.24,1.25,1.25,0,0,0-.4-.12,3.84,3.84,0,0,0-.5,0,3.9,3.9,0,0,0-1,.14,6.57,6.57,0,0,0-.86.26h0l.18-.92c.18,0,.45-.1.81-.16a6.24,6.24,0,0,1,1-.09,3,3,0,0,1,1.53.31,1.11,1.11,0,0,1,.5,1,1.37,1.37,0,0,1,0,.28,2.33,2.33,0,0,1,0,.28l-.85,3.7h-.91Zm.53-2.29a10.06,10.06,0,0,0-1.33.11,4.12,4.12,0,0,0-1,.25,1.37,1.37,0,0,0-.6.43,1.13,1.13,0,0,0-.2.69.66.66,0,0,0,.24.54,1.2,1.2,0,0,0,.74.18,2.16,2.16,0,0,0,.9-.2,4.73,4.73,0,0,0,.86-.47Z"/><path class="b" d="M86.26,93.39a3.64,3.64,0,0,1-1.09-.15,4.52,4.52,0,0,1-.81-.33l.21-1h.05l.26.21a2.61,2.61,0,0,0,.42.24,3,3,0,0,0,.53.19,2.47,2.47,0,0,0,.63.08,2,2,0,0,0,1.08-.25.84.84,0,0,0,.39-.75.48.48,0,0,0-.2-.4,1.89,1.89,0,0,0-.58-.23l-.46-.09-.53-.13a1.68,1.68,0,0,1-.85-.47,1.07,1.07,0,0,1-.27-.74,1.57,1.57,0,0,1,.16-.71,1.8,1.8,0,0,1,.5-.61,2.28,2.28,0,0,1,.79-.43,3.31,3.31,0,0,1,1.08-.16,4,4,0,0,1,1,.12,3,3,0,0,1,.79.3l-.19.94h0l-.24-.17a2.39,2.39,0,0,0-.4-.22,2.56,2.56,0,0,0-.49-.16,2.25,2.25,0,0,0-.58-.07,1.79,1.79,0,0,0-1,.25.83.83,0,0,0-.38.7.53.53,0,0,0,.19.41,1.26,1.26,0,0,0,.57.26l.5.11.5.11a1.67,1.67,0,0,1,.85.44,1,1,0,0,1,.29.74,1.62,1.62,0,0,1-.18.74,1.79,1.79,0,0,1-.51.62,2.68,2.68,0,0,1-.84.44A3.82,3.82,0,0,1,86.26,93.39Z"/><path class="b" d="M96.8,90.52h-3v-.88h3Z"/><path class="b" d="M108.18,89.63a3.86,3.86,0,0,1-.43,1.8,3.24,3.24,0,0,1-1.15,1.25,3.58,3.58,0,0,1-1.11.44,7.15,7.15,0,0,1-1.62.14H102V86h1.81a7.51,7.51,0,0,1,1.69.15,3.91,3.91,0,0,1,1.07.43,3.23,3.23,0,0,1,1.15,1.23A3.8,3.8,0,0,1,108.18,89.63Zm-1,0a3.13,3.13,0,0,0-.3-1.44,2.13,2.13,0,0,0-.89-.92,2.71,2.71,0,0,0-.91-.34,5.57,5.57,0,0,0-1.16-.1H103v5.61h.91a6.26,6.26,0,0,0,1.22-.1,2.83,2.83,0,0,0,1-.38,2.14,2.14,0,0,0,.82-.92A3.22,3.22,0,0,0,107.17,89.62Z"/><path class="b" d="M114.5,88.19a2.35,2.35,0,0,1-.17.89,2.09,2.09,0,0,1-.47.72,2.36,2.36,0,0,1-.89.56,3.68,3.68,0,0,1-1.3.19h-1v2.71h-1V86h2a5,5,0,0,1,1.11.11,2.67,2.67,0,0,1,.81.34,2,2,0,0,1,.64.7A2.18,2.18,0,0,1,114.5,88.19Zm-1,0a1.45,1.45,0,0,0-.13-.65,1.11,1.11,0,0,0-.4-.46,1.6,1.6,0,0,0-.54-.21,3.18,3.18,0,0,0-.75-.07h-1v2.91h.81a3.62,3.62,0,0,0,1-.11,1.36,1.36,0,0,0,.59-.33,1.55,1.55,0,0,0,.33-.5A1.72,1.72,0,0,0,113.49,88.21Z"/><path class="b" d="M121.25,93.26h-1l-.71-2h-3.14l-.72,2h-1L117.32,86h1.29Zm-2-2.86-1.27-3.56-1.28,3.56Z"/><path class="b" d="M127.15,93.26h-4.79V86h4.79v.86h-3.83v2h3.83v.86h-3.83v2.7h3.83Z"/><path class="b" d="M12.16,109.26H10.9l-2.43-2.89H7.11v2.89h-1V102h2a5.49,5.49,0,0,1,1.09.09,2.14,2.14,0,0,1,.8.3,1.77,1.77,0,0,1,.84,1.59,2.15,2.15,0,0,1-.4,1.31,2.36,2.36,0,0,1-1.09.8ZM9.89,104a1.25,1.25,0,0,0-.11-.56,1,1,0,0,0-.36-.41,1.24,1.24,0,0,0-.5-.19,3.37,3.37,0,0,0-.68-.06H7.11v2.75h1a3.09,3.09,0,0,0,.8-.09,1.15,1.15,0,0,0,.58-.3,1.18,1.18,0,0,0,.33-.47A1.82,1.82,0,0,0,9.89,104Z"/><path class="b" d="M17.07,109.26h-.92v-.58l-.33.23a2.12,2.12,0,0,1-.4.24,3,3,0,0,1-.53.19,2.82,2.82,0,0,1-.69.07,1.73,1.73,0,0,1-1.25-.49,1.61,1.61,0,0,1-.52-1.24,1.69,1.69,0,0,1,.27-1,1.79,1.79,0,0,1,.76-.61,4.57,4.57,0,0,1,1.2-.3c.46,0,1-.09,1.49-.11v-.14A1,1,0,0,0,16,105a.69.69,0,0,0-.31-.32,1.3,1.3,0,0,0-.47-.16,5.17,5.17,0,0,0-.57,0,4.17,4.17,0,0,0-.81.09,5.88,5.88,0,0,0-.91.28h-.05v-.94c.18,0,.43-.1.77-.16a5.77,5.77,0,0,1,1-.08,5,5,0,0,1,1,.09,1.85,1.85,0,0,1,.74.33,1.42,1.42,0,0,1,.47.58,2.23,2.23,0,0,1,.16.88Zm-.92-1.34V106.4l-1,.07a6.55,6.55,0,0,0-.91.14,1.71,1.71,0,0,0-.64.35,1,1,0,0,0,0,1.36,1.33,1.33,0,0,0,.87.24,2,2,0,0,0,.88-.19A4.17,4.17,0,0,0,16.15,107.92Z"/><path class="b" d="M23.26,109.26h-.92v-.57a3.09,3.09,0,0,1-.82.53,2.26,2.26,0,0,1-.94.19,1.86,1.86,0,0,1-1.55-.75,3.38,3.38,0,0,1-.57-2.08,3.62,3.62,0,0,1,.2-1.24,2.85,2.85,0,0,1,.53-.92,2.24,2.24,0,0,1,.77-.57,2.3,2.3,0,0,1,.92-.19,2.88,2.88,0,0,1,.76.09,3.3,3.3,0,0,1,.7.28v-2.37h.92Zm-.92-1.34v-3.13a3.5,3.5,0,0,0-.66-.23,3.24,3.24,0,0,0-.64-.06,1.42,1.42,0,0,0-1.2.53,2.38,2.38,0,0,0-.43,1.53,2.69,2.69,0,0,0,.33,1.47,1.17,1.17,0,0,0,1.06.51,1.89,1.89,0,0,0,.79-.18A3.14,3.14,0,0,0,22.34,107.92Z"/><path class="b" d="M26.56,109.26H25.4v-1.39h1.16Z"/><path class="b" d="M36.94,102.85H33.26v2.05h3.16v.86H33.26v3.5h-1V102h4.65Z"/><path class="b" d="M43.46,102.83a3.37,3.37,0,0,1,.68,1.19,5,5,0,0,1,.24,1.61,4.77,4.77,0,0,1-.25,1.61,3.23,3.23,0,0,1-.67,1.18,2.79,2.79,0,0,1-1.06.74,3.64,3.64,0,0,1-1.4.25,3.71,3.71,0,0,1-1.4-.25,2.94,2.94,0,0,1-1.06-.74,3.23,3.23,0,0,1-.68-1.19,4.89,4.89,0,0,1-.24-1.6,5,5,0,0,1,.24-1.6,3.21,3.21,0,0,1,.68-1.2,2.82,2.82,0,0,1,1.07-.74,3.7,3.7,0,0,1,1.39-.25,3.64,3.64,0,0,1,1.4.26A2.84,2.84,0,0,1,43.46,102.83Zm-.09,2.8a3.38,3.38,0,0,0-.63-2.19,2.35,2.35,0,0,0-3.48,0,3.38,3.38,0,0,0-.63,2.19,3.31,3.31,0,0,0,.64,2.19,2.35,2.35,0,0,0,3.46,0A3.31,3.31,0,0,0,43.37,105.63Z"/><path class="b" d="M50.67,104.19a2.35,2.35,0,0,1-.17.89,2.25,2.25,0,0,1-.47.72,2.36,2.36,0,0,1-.89.56,3.72,3.72,0,0,1-1.3.19h-1v2.71h-1V102h2a5,5,0,0,1,1.11.11,2.67,2.67,0,0,1,.81.34,2,2,0,0,1,.64.7A2.18,2.18,0,0,1,50.67,104.19Zm-1,0a1.45,1.45,0,0,0-.13-.65,1.11,1.11,0,0,0-.4-.46,1.6,1.6,0,0,0-.54-.21,3.22,3.22,0,0,0-.76-.07h-.95v2.91h.81a3.49,3.49,0,0,0,1-.11,1.34,1.34,0,0,0,.6-.33,1.37,1.37,0,0,0,.32-.5A1.5,1.5,0,0,0,49.66,104.21Z"/><path class="b" d="M57.41,109.26h-1l-.71-2H52.53l-.72,2h-1L53.48,102h1.29Zm-2-2.86-1.27-3.56-1.28,3.56Z"/><path class="b" d="M63.31,109.26H58.52V102h4.79v.86H59.48v2h3.83v.86H59.48v2.7h3.83Z"/><path class="b" d="M67.66,106.52h-3v-.88h3Z"/><path class="b" d="M74.11,109.26H69.19v-1l1-.88q.51-.44,1-.87A9.56,9.56,0,0,0,72.46,105a2.07,2.07,0,0,0,.35-1.15,1.15,1.15,0,0,0-.37-.89,1.59,1.59,0,0,0-1-.32,3.56,3.56,0,0,0-1,.16,3.72,3.72,0,0,0-1,.48h0v-1a5.27,5.27,0,0,1,.93-.31,4.91,4.91,0,0,1,1.12-.14,2.62,2.62,0,0,1,1.75.54,1.83,1.83,0,0,1,.63,1.46,2.66,2.66,0,0,1-.1.77,2.52,2.52,0,0,1-.31.69,4.85,4.85,0,0,1-.45.59c-.17.2-.38.41-.62.65s-.71.67-1.08,1l-1,.9h3.91Z"/><path class="b" d="M80.46,105.62a5.27,5.27,0,0,1-.61,2.88,2.44,2.44,0,0,1-3.82,0,7,7,0,0,1,0-5.71,2.42,2.42,0,0,1,3.82,0A5.38,5.38,0,0,1,80.46,105.62Zm-1.28,2.22a3.33,3.33,0,0,0,.23-.93,11.9,11.9,0,0,0,.06-1.29,12.16,12.16,0,0,0-.06-1.29,2.87,2.87,0,0,0-.24-.92,1.32,1.32,0,0,0-.46-.57,1.38,1.38,0,0,0-.76-.19,1.36,1.36,0,0,0-.76.19,1.33,1.33,0,0,0-.48.58,3,3,0,0,0-.23.94,12.44,12.44,0,0,0-.06,1.27,11.32,11.32,0,0,0,.06,1.28,2.89,2.89,0,0,0,.23.92,1.25,1.25,0,0,0,.45.58,1.42,1.42,0,0,0,.79.2,1.5,1.5,0,0,0,.76-.19A1.25,1.25,0,0,0,79.18,107.84Z"/><path class="b" d="M86.82,105.62a5.36,5.36,0,0,1-.61,2.88,2.14,2.14,0,0,1-1.91.91,2.11,2.11,0,0,1-1.91-.93,7,7,0,0,1,0-5.71,2.41,2.41,0,0,1,3.81,0A5.28,5.28,0,0,1,86.82,105.62Zm-1.29,2.22a3.32,3.32,0,0,0,.24-.93,11.9,11.9,0,0,0,.06-1.29,12.16,12.16,0,0,0-.06-1.29,3.16,3.16,0,0,0-.24-.92,1.22,1.22,0,0,0-1.23-.76,1.38,1.38,0,0,0-.76.19,1.25,1.25,0,0,0-.47.58,3,3,0,0,0-.23.94,12.44,12.44,0,0,0-.06,1.27c0,.51,0,.94,0,1.28a3.54,3.54,0,0,0,.23.92,1.34,1.34,0,0,0,.46.58,1.41,1.41,0,0,0,.78.2,1.45,1.45,0,0,0,.76-.19A1.19,1.19,0,0,0,85.53,107.84Z"/><path class="b" d="M93.17,105.19a6.67,6.67,0,0,1-.21,1.73,3.72,3.72,0,0,1-.66,1.32,3,3,0,0,1-1.11.86,3.82,3.82,0,0,1-1.57.3l-.48,0a2,2,0,0,1-.4-.09v-.93h.05a2,2,0,0,0,.4.14,2.49,2.49,0,0,0,.57.06,2.22,2.22,0,0,0,1.69-.64,2.86,2.86,0,0,0,.71-1.79,3.72,3.72,0,0,1-.85.39,3,3,0,0,1-.87.12,3.49,3.49,0,0,1-.82-.09,2.28,2.28,0,0,1-.73-.34,1.88,1.88,0,0,1-.64-.76,2.45,2.45,0,0,1-.22-1.1,2.39,2.39,0,0,1,.73-1.81,2.52,2.52,0,0,1,1.79-.7,2.78,2.78,0,0,1,1,.17,2.15,2.15,0,0,1,.79.49,2.66,2.66,0,0,1,.64,1A5.1,5.1,0,0,1,93.17,105.19Zm-1-.21a3.72,3.72,0,0,0-.16-1.22,1.61,1.61,0,0,0-.43-.71,1.23,1.23,0,0,0-.49-.31,1.56,1.56,0,0,0-.57-.1,1.45,1.45,0,0,0-1.11.44,1.75,1.75,0,0,0-.41,1.24,1.8,1.8,0,0,0,.13.75,1.21,1.21,0,0,0,.45.51,1.16,1.16,0,0,0,.48.21,3.42,3.42,0,0,0,.59,0,3.46,3.46,0,0,0,.77-.1,3.12,3.12,0,0,0,.73-.3c0-.07,0-.14,0-.2A2,2,0,0,0,92.19,105Z"/><path class="b" d="M99.6,109.26H94.81V102H99.6v.86H95.78v2H99.6v.86H95.78v2.7H99.6Z"/><path class="b" d="M107.15,109.26h-1.26l-2.43-2.89H102.1v2.89h-1V102h2a5.6,5.6,0,0,1,1.1.09,2.09,2.09,0,0,1,.79.3,2,2,0,0,1,.62.63,1.84,1.84,0,0,1,.22,1,2.08,2.08,0,0,1-.4,1.31,2.33,2.33,0,0,1-1.08.8ZM104.89,104a1.4,1.4,0,0,0-.11-.56,1.07,1.07,0,0,0-.36-.41,1.3,1.3,0,0,0-.5-.19,3.44,3.44,0,0,0-.68-.06H102.1v2.75h1a3.2,3.2,0,0,0,.8-.09,1.2,1.2,0,0,0,.58-.3,1.16,1.16,0,0,0,.32-.47A1.8,1.8,0,0,0,104.89,104Z"/><path class="b" d="M112.4,109.26h-3.93v-.74H110v-4.87h-1.51V103a5.42,5.42,0,0,0,.66,0,1.47,1.47,0,0,0,.53-.15.88.88,0,0,0,.35-.31.9.9,0,0,0,.15-.5h.76v6.55h1.48Z"/><path class="b" d="M119.17,105.62a5.26,5.26,0,0,1-.62,2.88,2.43,2.43,0,0,1-3.81,0,7,7,0,0,1,0-5.71,2.41,2.41,0,0,1,3.81,0A5.37,5.37,0,0,1,119.17,105.62Zm-1.29,2.22a3,3,0,0,0,.23-.93,11.9,11.9,0,0,0,.06-1.29,12.16,12.16,0,0,0-.06-1.29,3.17,3.17,0,0,0-.23-.92,1.34,1.34,0,0,0-.47-.57,1.36,1.36,0,0,0-.76-.19,1.38,1.38,0,0,0-.76.19,1.25,1.25,0,0,0-.47.58,3,3,0,0,0-.23.94,12.44,12.44,0,0,0-.06,1.27c0,.51,0,.94.05,1.28a3.18,3.18,0,0,0,.23.92,1.34,1.34,0,0,0,.46.58,1.39,1.39,0,0,0,.78.2,1.45,1.45,0,0,0,.76-.19A1.19,1.19,0,0,0,117.88,107.84Z"/><path class="b" d="M125.52,105.62a5.27,5.27,0,0,1-.61,2.88,2.43,2.43,0,0,1-3.81,0,5.29,5.29,0,0,1-.61-2.85,5.36,5.36,0,0,1,.61-2.86,2.42,2.42,0,0,1,3.82,0A5.38,5.38,0,0,1,125.52,105.62Zm-1.28,2.22a3.33,3.33,0,0,0,.23-.93,11.9,11.9,0,0,0,.06-1.29,12.16,12.16,0,0,0-.06-1.29,2.87,2.87,0,0,0-.24-.92,1.32,1.32,0,0,0-.46-.57,1.61,1.61,0,0,0-1.52,0,1.33,1.33,0,0,0-.48.58,3,3,0,0,0-.22.94,12.44,12.44,0,0,0-.06,1.27,11.63,11.63,0,0,0,.05,1.28,3.18,3.18,0,0,0,.23.92,1.34,1.34,0,0,0,.46.58,1.36,1.36,0,0,0,.78.2,1.47,1.47,0,0,0,.76-.19A1.25,1.25,0,0,0,124.24,107.84Z"/><path class="b" d="M131.48,109.26h-3.94v-.74h1.51v-4.87h-1.51V103a5.28,5.28,0,0,0,.66,0,1.47,1.47,0,0,0,.53-.15.88.88,0,0,0,.35-.31.9.9,0,0,0,.15-.5H130v6.55h1.49Z"/><g class="c"><g class="d"><path class="e" d="M3.16,0H21.93C37,.26,38.38,27.25,26.69,32.55,20.37,35.41,12,33.29,3.16,34Zm18.3,25.19c3-2.05,3.63-11.61.95-15.21-2-2.63-5.08-2-8.56-2.14-.55,5.62-.08,12.28-.23,18.3,3.16-.32,5.8.43,7.84-.95"/><path class="e" d="M39.75,0h20c9.88,0,11.88,15.74,4,20-3.72,2-8.09,1.25-13.3,1.43-.56,3.72-.08,8.47-.24,12.59H39.75ZM50.21,6.89V14.5c10.27,2.25,10.47-9.6,0-7.61"/><path class="e" d="M80.15,0H91.79c4.18,11.35,8.67,22.37,12.59,34H93.45c-.53-1.92-1.19-3.72-1.66-5.7H80.15A38,38,0,0,0,78.48,34H67.55c4.07-11.46,8.64-22.41,12.6-34m2.13,20.91h7.13C88.28,17,87.15,13,85.85,9.27c-1.11,4-2.33,7.8-3.57,11.64"/><path class="e" d="M107.71,0h28V7.37H118.4c-.55,1.27-.08,3.56-.24,5.22h16.16v6.89H118.4c-.55,1.75-.08,4.52-.24,6.66h18.06V34H107.71Z"/><path class="e" d="M40.7,39.44c.31.33,1,.24,1.67.24-.4,1-.9,1.8-2.38,1.66,0-.83.68-1.06.71-1.9"/><path class="e" d="M2,39.68c2.46.25,4.35-.32,5.71,1,3,2.85,0,9-5.71,7.13Zm1.67,6.65a4,4,0,0,0,3.08-.71c-.11-1.23.26-2.95-.23-3.8-.44-.67-1.77-.45-2.85-.48Z"/><rect class="f" x="9.81" y="39.68" width="1.66" height="1.66"/><rect class="f" x="35" y="39.68" width="1.66" height="1.66"/><path class="e" d="M58.05,39.68h1.66v8.08c-2-.51-2.65.28-4.75-.24-2.34-2.16,0-7.65,3.09-5Zm-.95,3.56c-1.56-.94-2.14,3.36-.24,3.33,1.53,0,1.57-3,.24-3.33"/><path class="e" d="M69.93,39.68c2,.45,3.8-.48,5.23.48,2.23,1.49.86,5.7-3.33,4.51-.7.49.23,2.6-.48,3.09H70.4c-1.09-1.76-.17-5.53-.47-8.08m1.66,3.56c1.37,0,3,.28,2.85-1.18-.36-.83-1.62-.75-2.85-.72Z"/><rect class="f" x="112.22" y="39.68" width="1.43" height="1.66"/><path class="e" d="M119.59,39.68c-.7.65-.94,1.76-2.38,1.66,0-1.39.77-1.92,2.38-1.66"/><path class="e" d="M11.48,41.82v5.94H9.81c.58-2-1.45-6.52,1.67-5.94"/><path class="e" d="M12.67,41.82c2,.34,2.07,0,3.8.24.17.72-.25.86-.24,1.42-2.37-1-1.9,2.22-1.9,4.28H12.67Z"/><path class="e" d="M21.93,45.38H18.37c-.45.17.32,1.09.71,1.19,1.16-.18,1.48-1.11,2.85-.47-1.66,3.82-7.37.51-5-3.33,1.82-1.74,5.65-.84,5,2.61M18.37,44.2h1.9c.17-1.2-2.14-1.37-1.9,0"/><path class="e" d="M28.11,44c-1.75.48-1.52-1-3.09-.72-.89.73-.89,2.83.24,3.33,1.18-.08,1.14-1.39,2.85-1-1.54,5.15-7.92.14-4.75-3.09,1.18-1.2,4.69-1.05,4.75,1.43"/><path class="e" d="M34.05,44c-1.54.43-1.51-.71-2.61-.72-1.48-.06-1.15,3-.24,3.33,1.4.14,1.11-1.42,2.85-1-1.13,4.24-6.56,1.82-5.23-2.14.65-1.91,5-2.63,5.23.48"/><path class="e" d="M36.66,41.82v5.94H35c.58-2-1.45-6.52,1.66-5.94"/><path class="e" d="M43.55,46.33c-.72,1.93-5,1.76-5.7,0-1.79-4.91,6.94-7,5.7,0m-2.85.24C42,46.5,42,45.15,41.89,43.72c-2-2.14-3.6,2.59-1.19,2.85"/><path class="e" d="M44.74,41.82c.65.07,1.76-.33,1.43.71a2.76,2.76,0,0,1,3.8.24v5H48.31c-.13-1.46.27-3.44-.24-4.52-2.83-.6-1,3.43-2.14,4.52H44.74Z"/><path class="e" d="M65.89,45.38H62.33c-.46.17.32,1.09.71,1.19,1.16-.18,1.47-1.11,2.85-.47-2.12,3.9-6.49.7-5.23-2.62a2.79,2.79,0,0,1,5.23,1.9M62.33,44.2h1.9c.12-1.26-2-1.26-1.9,0"/><path class="e" d="M77.06,41.82c.67.12,2-.43,1.66.71a1.58,1.58,0,0,1,2.14-.47c.17.72-.24.86-.24,1.42-2.45-.61-1.71,2.09-1.9,4.28H77.06Z"/><path class="e" d="M86.32,45.38H82.76c-.06.78.28,1.15.95,1.19,1-.28,1.3-1.07,2.61-.47-1.87,3.53-6.41,1-5.22-2.62.82-2.54,6.07-2.24,5.22,1.9M82.76,44.2c.6-.2,2,.46,1.9-.48-.37-.75-2-.6-1.9.48"/><path class="e" d="M86.8,41.82h1.66c.27,1.39,1.06,2.27,1.19,3.8a28,28,0,0,0,1.43-3.8h1.66c-.57,2.12-1.62,3.77-2.14,5.94H88.94c-.52-2.17-1.57-3.82-2.14-5.94"/><path class="e" d="M98.44,45.38H94.88c-.45.17.32,1.09.71,1.19,1.21-.32,1.57-1,3.09-.47-.74,1.24-2,2-4.28,1.66-4.93-3.89,4.13-9.61,4-2.38M94.88,44.2h1.9c.17-1.2-2.14-1.37-1.9,0"/><path class="e" d="M99.39,41.82c.67.12,2-.43,1.67.71a3.18,3.18,0,0,1,2.37-.71c1.73.59,1.75,4.25.95,5.94h-1.19c-.16-1.66.5-4.14-.71-4.75-1.89.16-1.33,2.78-1.42,4.75H99.39Z"/><path class="e" d="M111,44c-1.51.39-1.47-.75-2.62-.72-1.49.12-1.12,3.12,0,3.33,1.18-.08,1.15-1.39,2.85-1-.69,3.49-5.12,2.65-5.46-.24-.4-3.35,4.4-5.3,5.23-1.42"/><path class="e" d="M112.22,41.82h1.43c-.16,1.9.31,4.43-.24,5.94h-.71c-1.08-1.06-.18-4.1-.48-5.94"/><path class="e" d="M119.59,47.52c-6.82,2.45-5.51-8-.24-5.46,1.57.75,2,4.18.24,5.46m-1.9-1c1.71.12,2.38-3.5-.48-3.33-1.13,1-.89,3.23.48,3.33"/><path class="e" d="M121.73,41.82h1c.71-.24.42.53.47,1a2.52,2.52,0,0,1,3.8,0v5h-1.66c.19-1.61.58-3.81-.47-4.75-2,.06-1.32,2.8-1.43,4.75h-1.66Z"/><path class="e" d="M130.76,41.82h1.66c.23,1.43,1,2.29,1.19,3.8.75-1,1-2.51,1.42-3.8h1.43c-1.34,3.18-.66,8.37-5.47,8.08,0-1.27,1.3-1.24,1.91-1.9-.57-2.21-1.58-4-2.14-6.18"/><path class="e" d="M1.26,59.64v-.47a44.23,44.23,0,0,0,2.85-7.61H6c1,2.77,2.11,5.34,3.09,8.08H7.2a6.3,6.3,0,0,0-.71-1.9H3.87a2.84,2.84,0,0,0-.71,1.9Zm3.09-3.33H6a7.4,7.4,0,0,0-1-2.37,8.23,8.23,0,0,0-.71,2.37"/><rect class="f" x="32.62" y="51.56" width="1.66" height="1.66"/><path class="e" d="M40,51.56c-.4.95-.89,1.8-2.38,1.67.28-1.08.65-2,2.38-1.67"/><path class="e" d="M69,51.56h5.94v1.67H70.64v1.18c.8.71,3.24-.23,4,.48v.71c-.38,1-2.65.2-3.8.48-.54.25-.09,1.49-.24,2.13,1.35.16,3.32-.31,4.28.24v.72c-1.06,1.08-4.1.17-5.94.47Z"/><rect class="f" x="122.2" y="51.56" width="1.66" height="1.66"/><path class="e" d="M56.39,51.8h1.42v7.84c-1.89-.39-1.82,0-4,0-3.09-1.45-.66-8.2,2.62-5.23ZM55,54.89c-1.27.37-1.5,3.81.48,3.56C56.9,58,56.57,55,55,54.89"/><path class="e" d="M12.67,54.17v.48c.24.8-.74.37-1.19.48V58c.16.74.63.31,1.19.23v1.43H10.29c-.76-1.14.54-4.35-.95-4.75-.25-1.12.83-.92.47-2.14,2-2,1.07,1.31,2.86,1.42"/><path class="e" d="M19.79,53.7c1.71,1.18,2.42-.41,4.52.24,1.1,1,.6,3.67.71,5.7H23.36c-.17-1.65.49-4.14-.72-4.75-1.71.34-1.32,2.79-1.42,4.75H19.79Z"/><path class="e" d="M31.44,55.6c-1.24.78-1.57-.39-2.62-.47-1.48-.07-1.15,3-.24,3.32,1.41.14,1.12-1.42,2.86-1-1.09,4.26-6.57,1.84-5.23-2.14.63-1.86,4.69-2.54,5.23.24"/><path class="e" d="M37.38,53.94c6.65-1.91,3.1,9.79-1.43,5a3.15,3.15,0,0,1,1.43-5m1.18,4.51c1.1-.2,1.16-2.05.72-3.09-2.53-1.42-3.27,3.18-.72,3.09"/><path class="e" d="M47.59,54.65v5H45.93c-.24-1.58.61-4.26-.71-4.75-1.85.13-1,3-1.19,4.75H42.37v-5.7c.64.07,1.76-.34,1.42.71a2.5,2.5,0,0,1,3.8,0"/><path class="e" d="M64.23,57.26H60.66c.08.56.25,1,.72,1.19,1.38,0,1.37-1.21,2.85-.47-1.9,3.56-6.39,1-5.23-2.62.81-2.55,6.13-2.28,5.23,1.9m-3.57-1.18c.6-.2,2.05.46,1.9-.48-.36-.75-2-.6-1.9.48"/><path class="e" d="M84.42,54.41c.47,1.36.15,3.5.24,5.23H83c-.22-1.6.58-4.22-.72-4.75-1.38.59-1.16,2.79-1.18,4.75H79.67c-.11-1.63.33-3.82-.47-4.75-2,.07-1.3,2.82-1.43,4.75H76.11v-5.7c2.14.8,3.12-1,4.75.47a2.88,2.88,0,0,1,3.56,0"/><path class="e" d="M91.08,57.26H87.27c0,.59.38.74.48,1.19,1.61.22,1.59-1.21,3.09-.47,0,1.87-2.7,1.91-4.28,1.42-2.34-2.37,0-7.38,3.57-5.23a6.3,6.3,0,0,1,1,3.09m-3.81-1.18c.65-.15,1.89.3,2.14-.24-.19-.94-2.23-1-2.14.24"/><path class="e" d="M95.83,53.94c.17.72-.24.86-.24,1.42-2.28-.93-1.86,2.25-1.9,4.28H92v-5.7c.54.17,1.85-.43,1.66.47a1.58,1.58,0,0,1,2.14-.47"/><path class="e" d="M100.58,61.78H97.25c-.3-.64-1-.85-1-1.9,1.39-.28,3.74,2.07,3.81-.48-4,1.84-5.49-4.88-1.91-5.7,1.59-.36,1.74,1.15,3.57.24-.28,2.73.83,6.84-1.19,7.84m-1.19-3.57c1.16-.47.85-3.05-.23-3.32-1.68.11-2,3.59.23,3.32"/><path class="e" d="M108.18,57.26h-3.8c.1.46.51.6.48,1.19,1.61.22,1.59-1.21,3.09-.47,0,1.79-1.92,1.73-3.81,1.66-5.06-3.93,4.18-9.6,4-2.38m-3.56-1.18h1.9c.17-1.2-2.14-1.37-1.9,0"/><path class="e" d="M114.6,54.65v5h-1.66c-.22-1.6.58-4.22-.72-4.75-1.85.13-1,3-1.18,4.75h-1.67c-.16-1.74.32-4.12-.24-5.47,1.87.19,3.83-1.15,5.47.48"/><path class="e" d="M121,55.6c-1.21.76-1.5-.45-2.61-.47-1.58,0-1.07,3.16,0,3.32,1.11-.15,1.14-1.39,2.85-1-1,4.84-8.18.64-4.75-3.09,1.32-1.06,4.39-.89,4.51,1.19"/><path class="e" d="M129.81,54.41c.5,1.4-.05,3.85.47,5.23-2-.52-2.82.32-5-.24a3.86,3.86,0,0,1-.24-2.37c.76-.75,2.17-.85,3.33-1.19.17-.65-.47-.48-.47-1-1.23,0-1.26,1.12-2.86.71.14-2.12,3.33-2.34,4.76-1.19M126.48,58c.4,1,2.39.42,1.9-.95-.72.23-1.93,0-1.9.95"/><path class="e" d="M136,55.36c-1.43.83-2-1.06-3.32-.23.62,1.19,2.86.77,3.56,1.9,1.08,3.43-5.19,3.45-5.23.95,1.51-.94,2.09,1.26,3.57.23-.38-1.12-2.27-.74-3.09-1.42-2.18-2.87,4.13-4.5,4.51-1.43"/><rect class="f" x="32.62" y="53.94" width="1.66" height="5.7"/><rect class="f" x="122.2" y="53.94" width="1.66" height="5.7"/><path class="e" d="M16.7,57.74c.22-.5,1,.45,1.67.24.09,1.94-2.72,1.89-4.28,1.42-4.19-4.19,4.85-8.91,4.52-2.14H14.8c0,.59.38.74.48,1.19.81.24,2-.39,1.42-.71m-1.9-1.66h2.14c.15-1.29-2.28-1.29-2.14,0"/></g></g></svg>